<?xml version="1.0" encoding="UTF-8" standalone="no"?>
<svg
   xmlns:dc="http://purl.org/dc/elements/1.1/"
   xmlns:cc="http://creativecommons.org/ns#"
   xmlns:rdf="http://www.w3.org/1999/02/22-rdf-syntax-ns#"
   xmlns:svg="http://www.w3.org/2000/svg"
   xmlns="http://www.w3.org/2000/svg"
   xmlns:sodipodi="http://sodipodi.sourceforge.net/DTD/sodipodi-0.dtd"
   xmlns:inkscape="http://www.inkscape.org/namespaces/inkscape"
   inkscape:version="1.0 (4035a4fb49, 2020-05-01)"
   sodipodi:docname="whole.svg"
   id="svg3127"
   version="1.2"
   viewBox="0 0 49.52 27.531"
   height="27.531"
   width="49.52">
  <metadata
     id="metadata3133">
    <rdf:RDF>
      <cc:Work
         rdf:about="">
        <dc:format>image/svg+xml</dc:format>
        <dc:type
           rdf:resource="http://purl.org/dc/dcmitype/StillImage" />
        <dc:title>exercise4</dc:title>
      </cc:Work>
    </rdf:RDF>
  </metadata>
  <defs
     id="defs3131" />
  <sodipodi:namedview
     inkscape:current-layer="svg3127"
     inkscape:window-maximized="1"
     inkscape:window-y="-8"
     inkscape:window-x="-8"
     inkscape:cy="1639.533"
     inkscape:cx="-1185.54"
     inkscape:zoom="0.16919192"
     showgrid="false"
     id="namedview3129"
     inkscape:window-height="837"
     inkscape:window-width="1600"
     inkscape:pageshadow="2"
     inkscape:pageopacity="0"
     guidetolerance="10"
     gridtolerance="10"
     objecttolerance="10"
     borderopacity="1"
     bordercolor="#666666"
     pagecolor="#ffffff" />
  <title
     id="title2767">exercise4</title>
  <desc
     id="desc2769">Generated by MuseScore 3.0.1</desc>
  <path
     id="path2913"
     d="m 21.49,2.531 c -2.35,0 -4.04,0.813 -5.08,2.438 -1.17,1.562 -1.75,3.682 -1.75,6.359 0,3.062 0.81,5.698 2.44,7.906 1.62,2.146 3.41,3.646 5.37,4.5 1.75,0.844 3.6,1.266 5.56,1.266 2.28,0 4.01,-0.813 5.17,-2.438 1.11,-1.635 1.66,-3.755 1.66,-6.359 0,-3.063 -0.81,-5.698 -2.44,-7.906 C 30.8,6.213 29.04,4.713 27.16,3.797 25.26,2.953 23.37,2.531 21.49,2.531 M 24.81,0 c 7.04,0 12.89,1.364 17.58,4.094 4.75,2.739 7.13,5.963 7.13,9.671 0,3.969 -2.45,7.224 -7.33,9.766 -4.89,2.667 -10.68,4 -17.38,4 -6.9,0 -12.76,-1.365 -17.57,-4.094 C 2.41,20.698 0,17.474 0,13.765 0,9.797 2.48,6.541 7.42,4 12.31,1.333 18.11,0 24.81,0"
     class="Note" />
</svg>
