<?xml version="1.0" encoding="UTF-8" standalone="no"?>
<svg
   xmlns:dc="http://purl.org/dc/elements/1.1/"
   xmlns:cc="http://creativecommons.org/ns#"
   xmlns:rdf="http://www.w3.org/1999/02/22-rdf-syntax-ns#"
   xmlns:svg="http://www.w3.org/2000/svg"
   xmlns="http://www.w3.org/2000/svg"
   xmlns:sodipodi="http://sodipodi.sourceforge.net/DTD/sodipodi-0.dtd"
   xmlns:inkscape="http://www.inkscape.org/namespaces/inkscape"
   width="628.20099"
   height="146.075"
   viewBox="0 0 628.20099 146.075"
   version="1.2"
   id="svg9312"
   sodipodi:docname="eighths.svg"
   inkscape:version="1.0 (4035a4fb49, 2020-05-01)">
  <metadata
     id="metadata9318">
    <rdf:RDF>
      <cc:Work
         rdf:about="">
        <dc:format>image/svg+xml</dc:format>
        <dc:type
           rdf:resource="http://purl.org/dc/dcmitype/StillImage" />
        <dc:title>exercise-collection1 (1)</dc:title>
      </cc:Work>
    </rdf:RDF>
  </metadata>
  <defs
     id="defs9316" />
  <sodipodi:namedview
     inkscape:document-rotation="0"
     pagecolor="#ffffff"
     bordercolor="#666666"
     borderopacity="1"
     objecttolerance="10"
     gridtolerance="10"
     guidetolerance="10"
     inkscape:pageopacity="0"
     inkscape:pageshadow="2"
     inkscape:window-width="1600"
     inkscape:window-height="837"
     id="namedview9314"
     showgrid="false"
     inkscape:zoom="0.16919192"
     inkscape:cx="1185.791"
     inkscape:cy="1670.577"
     inkscape:window-x="-8"
     inkscape:window-y="-8"
     inkscape:window-maximized="1"
     inkscape:current-layer="svg9312" />
  <title
     id="title8390">exercise-collection1 (1)</title>
  <desc
     id="desc8392">Generated by MuseScore 3.0.1</desc>
  <polyline
     class="LedgerLine"
     fill="none"
     stroke="#000000"
     stroke-width="4"
     stroke-linecap="square"
     stroke-linejoin="bevel"
     points="441.894,441.732 489.808,441.732"
     id="polyline8616"
     transform="translate(-344.209,-309.423)" />
  <polyline
     class="LedgerLine"
     fill="none"
     stroke="#000000"
     stroke-width="4"
     stroke-linecap="square"
     stroke-linejoin="bevel"
     points="346.209,441.732 394.123,441.732"
     id="polyline8618"
     transform="translate(-344.209,-309.423)" />
  <polyline
     class="Stem"
     fill="none"
     stroke="#000000"
     stroke-width="3.25"
     stroke-linecap="round"
     stroke-linejoin="bevel"
     points="1025.13,358.928 1025.13,441.732"
     id="polyline8764"
     transform="translate(-428.209,-309.423)" />
  <polyline
     class="Stem"
     fill="none"
     stroke="#000000"
     stroke-width="3.25"
     stroke-linecap="round"
     stroke-linejoin="bevel"
     points="863.424,412.037 863.424,341.732"
     id="polyline8766"
     transform="translate(-344.209,-309.423)" />
  <polyline
     class="Stem"
     fill="none"
     stroke="#000000"
     stroke-width="3.25"
     stroke-linecap="round"
     stroke-linejoin="bevel"
     points="767.738,387.037 767.738,316.732"
     id="polyline8768"
     transform="translate(-344.209,-309.423)" />
  <polyline
     class="Stem"
     fill="none"
     stroke="#000000"
     stroke-width="3.25"
     stroke-linecap="round"
     stroke-linejoin="bevel"
     points="672.053,424.537 672.053,360.482"
     id="polyline8770"
     transform="translate(-344.209,-309.423)" />
  <polyline
     class="Stem"
     fill="none"
     stroke="#000000"
     stroke-width="3.25"
     stroke-linecap="round"
     stroke-linejoin="bevel"
     points="576.368,424.537 576.368,362.566"
     id="polyline8772"
     transform="translate(-344.209,-309.423)" />
  <polyline
     class="Stem"
     fill="none"
     stroke="#000000"
     stroke-width="3.25"
     stroke-linecap="round"
     stroke-linejoin="bevel"
     points="480.683,437.037 480.683,364.649"
     id="polyline8774"
     transform="translate(-344.209,-309.423)" />
  <polyline
     class="Stem"
     fill="none"
     stroke="#000000"
     stroke-width="3.25"
     stroke-linecap="round"
     stroke-linejoin="bevel"
     points="384.998,437.037 384.998,366.732"
     id="polyline8776"
     transform="translate(-344.209,-309.423)" />
  <path
     class="Note"
     d="m 617.261,31.044 c 3.13,0 5.77,0.812 7.93,2.437 2.01,1.761 3.01,3.974 3.01,6.641 0,4.489 -2.31,8.687 -6.92,12.594 -4.69,3.906 -9.7,5.859 -15.05,5.859 -3.12,0 -5.76,-0.813 -7.9,-2.438 -2.02,-1.76 -3.04,-3.974 -3.04,-6.64 0,-4.49 2.35,-8.688 7.04,-12.594 4.56,-3.906 9.54,-5.859 14.93,-5.859"
     id="path9238" />
  <path
     class="Note"
     d="m 509.894,93.544 c 3.125,0 5.766,0.812 7.922,2.437 2.011,1.761 3.016,3.974 3.016,6.641 0,4.489 -2.307,8.687 -6.922,12.594 -4.688,3.906 -9.703,5.859 -15.047,5.859 -3.125,0 -5.76,-0.813 -7.906,-2.438 -2.021,-1.76 -3.031,-3.974 -3.031,-6.64 0,-4.49 2.343,-8.688 7.031,-12.594 4.562,-3.906 9.541,-5.859 14.937,-5.859"
     id="path9244" />
  <path
     class="Note"
     d="m 414.209,68.544 c 3.125,0 5.766,0.812 7.922,2.437 2.01,1.761 3.016,3.974 3.016,6.641 0,4.489 -2.308,8.687 -6.922,12.594 -4.688,3.906 -9.703,5.859 -15.047,5.859 -3.125,0 -5.761,-0.813 -7.906,-2.438 -2.021,-1.76 -3.032,-3.974 -3.032,-6.64 0,-4.49 2.344,-8.688 7.032,-12.594 4.562,-3.906 9.541,-5.859 14.937,-5.859"
     id="path9250" />
  <path
     class="Note"
     d="m 318.524,106.044 c 3.125,0 5.766,0.812 7.922,2.437 2.01,1.761 3.016,3.974 3.016,6.641 0,4.489 -2.308,8.687 -6.922,12.594 -4.688,3.906 -9.703,5.859 -15.047,5.859 -3.125,0 -5.761,-0.813 -7.906,-2.438 -2.021,-1.76 -3.032,-3.974 -3.032,-6.64 0,-4.49 2.344,-8.688 7.032,-12.594 4.562,-3.906 9.541,-5.859 14.937,-5.859"
     id="path9256" />
  <path
     class="Note"
     d="m 222.839,106.044 c 3.125,0 5.766,0.812 7.922,2.437 2.01,1.761 3.015,3.974 3.015,6.641 0,4.489 -2.307,8.687 -6.921,12.594 -4.688,3.906 -9.704,5.859 -15.047,5.859 -3.125,0 -5.761,-0.813 -7.907,-2.438 -2.02,-1.76 -3.031,-3.974 -3.031,-6.64 0,-4.49 2.344,-8.688 7.031,-12.594 4.563,-3.906 9.542,-5.859 14.938,-5.859"
     id="path9262" />
  <path
     class="Note"
     d="m 127.154,118.544 c 3.125,0 5.765,0.812 7.922,2.437 2.01,1.761 3.015,3.974 3.015,6.641 0,4.489 -2.307,8.687 -6.922,12.594 -4.687,3.906 -9.703,5.859 -15.047,5.859 -3.125,0 -5.76,-0.813 -7.906,-2.438 -2.021,-1.76 -3.031,-3.974 -3.031,-6.64 0,-4.49 2.344,-8.688 7.031,-12.594 4.563,-3.906 9.542,-5.859 14.938,-5.859"
     id="path9268" />
  <path
     class="Note"
     d="m 31.469,118.544 c 3.125,0 5.765,0.812 7.921,2.437 2.011,1.761 3.016,3.974 3.016,6.641 0,4.489 -2.307,8.687 -6.922,12.594 -4.687,3.906 -9.703,5.859 -15.047,5.859 -3.125,0 -5.76,-0.813 -7.906,-2.438 -2.021,-1.76 -3.031,-3.974 -3.031,-6.64 0,-4.49 2.344,-8.688 7.031,-12.594 4.563,-3.906 9.542,-5.859 14.938,-5.859"
     id="path9274" />
  <path
     class="Beam"
     fill-rule="evenodd"
     d="m 421.904,0 98.936,25.849 v 12.92 L 421.904,12.92 V 0"
     id="path9306" />
  <path
     class="Beam"
     fill-rule="evenodd"
     d="M 39.164,51.129 329.469,44.808 V 57.311 L 39.164,63.632 V 51.129"
     id="path9308" />
  <path
     class="Hook"
     d="m 618.041,59.95 c 1.5,0 3.1,2.437 4.8,7.312 1.63,4.823 2.44,9.417 2.44,13.782 0,3.708 -0.91,7.385 -2.74,11.031 -1.88,3.906 -4.13,7.292 -6.73,10.156 l -8.02,8.985 c -2.46,2.864 -4.68,6.182 -6.64,9.953 -1.82,3.645 -2.73,7.359 -2.73,11.14 h -3.13 v -25 h 3.13 c 1.76,-1.104 4.36,-2.864 7.81,-5.281 1.56,-1.167 3.91,-3.12 7.03,-5.859 2.55,-2.344 4.47,-4.75 5.77,-7.219 1.36,-2.604 2.05,-5.24 2.05,-7.906 0,-6.188 -1.8,-12.344 -5.38,-18.469 0,0 0,-0.13 0,-0.391 0,-0.583 0.2,-1.067 0.59,-1.453 0.53,-0.521 1.11,-0.781 1.75,-0.781"
     id="path9310" />
</svg>
