<?xml version="1.0" encoding="UTF-8" standalone="no"?>
<svg
   xmlns:dc="http://purl.org/dc/elements/1.1/"
   xmlns:cc="http://creativecommons.org/ns#"
   xmlns:rdf="http://www.w3.org/1999/02/22-rdf-syntax-ns#"
   xmlns:svg="http://www.w3.org/2000/svg"
   xmlns="http://www.w3.org/2000/svg"
   xmlns:sodipodi="http://sodipodi.sourceforge.net/DTD/sodipodi-0.dtd"
   xmlns:inkscape="http://www.inkscape.org/namespaces/inkscape"
   sodipodi:docname="eighth.svg"
   inkscape:version="1.0 (4035a4fb49, 2020-05-01)"
   id="svg44"
   version="1.1"
   viewBox="0 0 8.7074404 27.222977"
   height="27.222977mm"
   width="8.7074404mm">
  <defs
     id="defs38" />
  <sodipodi:namedview
     inkscape:window-maximized="0"
     inkscape:window-y="0"
     inkscape:window-x="130"
     inkscape:window-height="860"
     inkscape:window-width="1375"
     showgrid="false"
     inkscape:document-rotation="0"
     inkscape:current-layer="layer1"
     inkscape:document-units="mm"
     inkscape:cy="580.01643"
     inkscape:cx="933.59786"
     inkscape:zoom="0.35"
     inkscape:pageshadow="2"
     inkscape:pageopacity="0.0"
     borderopacity="1.0"
     bordercolor="#666666"
     pagecolor="#ffffff"
     id="base" />
  <metadata
     id="metadata41">
    <rdf:RDF>
      <cc:Work
         rdf:about="">
        <dc:format>image/svg+xml</dc:format>
        <dc:type
           rdf:resource="http://purl.org/dc/dcmitype/StillImage" />
        <dc:title></dc:title>
      </cc:Work>
    </rdf:RDF>
  </metadata>
  <g
     transform="translate(141.1811,5.2960125)"
     id="layer1"
     inkscape:groupmode="layer"
     inkscape:label="Layer 1">
    <polyline
       transform="matrix(0.26458333,0,0,0.26458333,-411.98214,-95.377907)"
       id="polyline8764"
       points="1025.13,358.928 1025.13,441.732"
       stroke-linejoin="bevel"
       stroke-linecap="round"
       stroke-width="3.25"
       stroke="#000000"
       fill="none"
       class="Stem" />
    <path
       style="stroke-width:0.264583"
       id="path9238"
       d="m -135.3682,-5.2960125 c 0.82814,0 1.52664,0.2148416 2.09814,0.6447896 0.53181,0.4659312 0.7964,1.0514541 0.7964,1.7570979 0,1.1877146 -0.61119,2.29843537 -1.83092,3.33216247 -1.24089,1.03346253 -2.56646,1.55019373 -3.98198,1.55019373 -0.8255,0 -1.524,-0.2151062 -2.09021,-0.6450541 -0.53445,-0.46566673 -0.80433,-1.05145423 -0.80433,-1.75683343 0,-1.18797907 0.62177,-2.29869997 1.86267,-3.33216247 1.2065,-1.0334625 2.52412,-1.5501937 3.95023,-1.5501937"
       class="Note" />
    <path
       style="stroke-width:0.264583"
       id="path9310"
       d="m -135.16183,2.3520333 c 0.39688,0 0.82021,0.6447896 1.27,1.9346334 0.43127,1.2760858 0.64558,2.4915808 0.64558,3.6464878 0,0.981075 -0.24077,1.953948 -0.72495,2.9186175 -0.49742,1.033463 -1.09273,1.929342 -1.78065,2.687109 l -2.12196,2.377281 c -0.65087,0.757767 -1.23825,1.635654 -1.75683,2.633398 -0.48154,0.964406 -0.72231,1.947069 -0.72231,2.947458 h -0.82815 v -6.614583 h 0.82815 c 0.46566,-0.2921 1.15358,-0.757767 2.06639,-1.397265 0.41275,-0.308768 1.03452,-0.8255 1.86002,-1.550193 0.67469,-0.620184 1.18269,-1.256771 1.52665,-1.910028 0.35983,-0.6889745 0.54239,-1.3864155 0.54239,-2.0917945 0,-1.637242 -0.47625,-3.266017 -1.42345,-4.8865899 0,0 0,-0.034396 0,-0.1034521 0,-0.1542521 0.0529,-0.2823104 0.1561,-0.3844396 0.14023,-0.1378479 0.29369,-0.2066396 0.46302,-0.2066396"
       class="Hook" />
  </g>
</svg>
