<?xml version="1.0" encoding="UTF-8" standalone="no"?>
<svg
   xmlns:dc="http://purl.org/dc/elements/1.1/"
   xmlns:cc="http://creativecommons.org/ns#"
   xmlns:rdf="http://www.w3.org/1999/02/22-rdf-syntax-ns#"
   xmlns:svg="http://www.w3.org/2000/svg"
   xmlns="http://www.w3.org/2000/svg"
   xmlns:sodipodi="http://sodipodi.sourceforge.net/DTD/sodipodi-0.dtd"
   xmlns:inkscape="http://www.inkscape.org/namespaces/inkscape"
   inkscape:version="1.0 (4035a4fb49, 2020-05-01)"
   sodipodi:docname="exercise7.svg"
   id="svg7331"
   version="1.2"
   viewBox="0 0 2776.5381 435.35999"
   height="435.35999"
   width="2776.5381">
  <metadata
     id="metadata7337">
    <rdf:RDF>
      <cc:Work
         rdf:about="">
        <dc:format>image/svg+xml</dc:format>
        <dc:type
           rdf:resource="http://purl.org/dc/dcmitype/StillImage" />
      </cc:Work>
    </rdf:RDF>
  </metadata>
  <defs
     id="defs7335" />
  <sodipodi:namedview
     inkscape:current-layer="svg7331"
     inkscape:window-maximized="1"
     inkscape:window-y="-8"
     inkscape:window-x="-8"
     inkscape:cy="1704.877"
     inkscape:cx="1388.268"
     inkscape:zoom="0.16919192"
     showgrid="false"
     id="namedview7333"
     inkscape:window-height="837"
     inkscape:window-width="1600"
     inkscape:pageshadow="2"
     inkscape:pageopacity="0"
     guidetolerance="10"
     gridtolerance="10"
     objecttolerance="10"
     borderopacity="1"
     bordercolor="#666666"
     pagecolor="#ffffff" />
  <title
     id="title6999">exercise7</title>
  <desc
     id="desc7001">Generated by MuseScore 3.0.1</desc>
  <polyline
     transform="translate(-141.732,-275.123)"
     id="polyline7003"
     points="141.732,316.732 2918.27,316.732"
     stroke-linejoin="bevel"
     stroke-width="2"
     stroke="#000000"
     fill="none"
     class="StaffLines" />
  <polyline
     transform="translate(-141.732,-275.123)"
     id="polyline7005"
     points="141.732,341.732 2918.27,341.732"
     stroke-linejoin="bevel"
     stroke-width="2"
     stroke="#000000"
     fill="none"
     class="StaffLines" />
  <polyline
     transform="translate(-141.732,-275.123)"
     id="polyline7007"
     points="141.732,366.732 2918.27,366.732"
     stroke-linejoin="bevel"
     stroke-width="2"
     stroke="#000000"
     fill="none"
     class="StaffLines" />
  <polyline
     transform="translate(-141.732,-275.123)"
     id="polyline7009"
     points="141.732,391.732 2918.27,391.732"
     stroke-linejoin="bevel"
     stroke-width="2"
     stroke="#000000"
     fill="none"
     class="StaffLines" />
  <polyline
     transform="translate(-141.732,-275.123)"
     id="polyline7011"
     points="141.732,416.732 2918.27,416.732"
     stroke-linejoin="bevel"
     stroke-width="2"
     stroke="#000000"
     fill="none"
     class="StaffLines" />
  <polyline
     transform="translate(-141.732,-275.123)"
     id="polyline7013"
     points="141.732,579.233 2918.27,579.233"
     stroke-linejoin="bevel"
     stroke-width="2"
     stroke="#000000"
     fill="none"
     class="StaffLines" />
  <polyline
     transform="translate(-141.732,-275.123)"
     id="polyline7015"
     points="141.732,616.733 2918.27,616.733"
     stroke-linejoin="bevel"
     stroke-width="2"
     stroke="#000000"
     fill="none"
     class="StaffLines" />
  <polyline
     transform="translate(-141.732,-275.123)"
     id="polyline7017"
     points="141.732,654.233 2918.27,654.233"
     stroke-linejoin="bevel"
     stroke-width="2"
     stroke="#000000"
     fill="none"
     class="StaffLines" />
  <polyline
     transform="translate(-141.732,-275.123)"
     id="polyline7019"
     points="141.732,691.733 2918.27,691.733"
     stroke-linejoin="bevel"
     stroke-width="2"
     stroke="#000000"
     fill="none"
     class="StaffLines" />
  <polyline
     transform="translate(-141.732,-275.123)"
     id="polyline7021"
     points="2893.77,578.233 2893.77,692.733"
     stroke-linejoin="bevel"
     stroke-width="4"
     stroke="#000000"
     fill="none"
     class="BarLine" />
  <polyline
     transform="translate(-141.732,-275.123)"
     id="polyline7023"
     points="2912.02,578.233 2912.02,692.733"
     stroke-linejoin="bevel"
     stroke-width="12.5"
     stroke="#000000"
     fill="none"
     class="BarLine" />
  <polyline
     transform="translate(-141.732,-275.123)"
     id="polyline7025"
     points="2893.77,315.732 2893.77,417.732"
     stroke-linejoin="bevel"
     stroke-width="4"
     stroke="#000000"
     fill="none"
     class="BarLine" />
  <polyline
     transform="translate(-141.732,-275.123)"
     id="polyline7027"
     points="2912.02,315.732 2912.02,417.732"
     stroke-linejoin="bevel"
     stroke-width="12.5"
     stroke="#000000"
     fill="none"
     class="BarLine" />
  <polyline
     transform="translate(-141.732,-275.123)"
     id="polyline7029"
     points="2287.2,578.233 2287.2,692.733"
     stroke-linejoin="bevel"
     stroke-width="4"
     stroke="#000000"
     fill="none"
     class="BarLine" />
  <polyline
     transform="translate(-141.732,-275.123)"
     id="polyline7031"
     points="2287.2,315.732 2287.2,417.732"
     stroke-linejoin="bevel"
     stroke-width="4"
     stroke="#000000"
     fill="none"
     class="BarLine" />
  <polyline
     transform="translate(-141.732,-275.123)"
     id="polyline7033"
     points="1635.34,578.233 1635.34,692.733"
     stroke-linejoin="bevel"
     stroke-width="4"
     stroke="#000000"
     fill="none"
     class="BarLine" />
  <polyline
     transform="translate(-141.732,-275.123)"
     id="polyline7035"
     points="1635.34,315.732 1635.34,417.732"
     stroke-linejoin="bevel"
     stroke-width="4"
     stroke="#000000"
     fill="none"
     class="BarLine" />
  <polyline
     transform="translate(-141.732,-275.123)"
     id="polyline7037"
     points="976.276,578.233 976.276,692.733"
     stroke-linejoin="bevel"
     stroke-width="4"
     stroke="#000000"
     fill="none"
     class="BarLine" />
  <polyline
     transform="translate(-141.732,-275.123)"
     id="polyline7039"
     points="976.276,315.732 976.276,417.732"
     stroke-linejoin="bevel"
     stroke-width="4"
     stroke="#000000"
     fill="none"
     class="BarLine" />
  <polyline
     transform="translate(-141.732,-275.123)"
     id="polyline7041"
     points="143.732,578.233 143.732,692.733"
     stroke-linejoin="bevel"
     stroke-width="4"
     stroke="#000000"
     fill="none"
     class="BarLine" />
  <polyline
     transform="translate(-141.732,-275.123)"
     id="polyline7043"
     points="143.732,315.732 143.732,579.233"
     stroke-linejoin="bevel"
     stroke-width="4"
     stroke="#000000"
     fill="none"
     class="BarLine" />
  <polyline
     transform="translate(-141.732,-275.123)"
     id="polyline7045"
     points="2316.2,441.732 2364.12,441.732"
     stroke-linejoin="bevel"
     stroke-linecap="square"
     stroke-width="4"
     stroke="#000000"
     fill="none"
     class="LedgerLine" />
  <polyline
     transform="translate(-141.732,-275.123)"
     id="polyline7047"
     points="1453.46,441.732 1501.38,441.732"
     stroke-linejoin="bevel"
     stroke-linecap="square"
     stroke-width="4"
     stroke="#000000"
     fill="none"
     class="LedgerLine" />
  <polyline
     transform="translate(-141.732,-275.123)"
     id="polyline7049"
     points="1005.28,441.732 1053.19,441.732"
     stroke-linejoin="bevel"
     stroke-linecap="square"
     stroke-width="4"
     stroke="#000000"
     fill="none"
     class="LedgerLine" />
  <polyline
     transform="translate(-141.732,-275.123)"
     id="polyline7051"
     points="346.209,441.732 394.123,441.732"
     stroke-linejoin="bevel"
     stroke-linecap="square"
     stroke-width="4"
     stroke="#000000"
     fill="none"
     class="LedgerLine" />
  <polyline
     transform="translate(-141.732,-275.123)"
     id="polyline7053"
     points="2759.73,358.928 2759.73,435.482"
     stroke-linejoin="bevel"
     stroke-linecap="round"
     stroke-width="3.25"
     stroke="#000000"
     fill="none"
     class="Stem" />
  <polyline
     transform="translate(-141.732,-275.123)"
     id="polyline7055"
     points="2676.19,358.928 2676.19,422.982"
     stroke-linejoin="bevel"
     stroke-linecap="round"
     stroke-width="3.25"
     stroke="#000000"
     fill="none"
     class="Stem" />
  <polyline
     transform="translate(-141.732,-275.123)"
     id="polyline7057"
     points="2592.65,358.928 2592.65,422.982"
     stroke-linejoin="bevel"
     stroke-linecap="round"
     stroke-width="3.25"
     stroke="#000000"
     fill="none"
     class="Stem" />
  <polyline
     transform="translate(-141.732,-275.123)"
     id="polyline7059"
     points="2488.65,412.037 2488.65,329.232"
     stroke-linejoin="bevel"
     stroke-linecap="round"
     stroke-width="3.25"
     stroke="#000000"
     fill="none"
     class="Stem" />
  <polyline
     transform="translate(-141.732,-275.123)"
     id="polyline7061"
     points="2354.99,437.037 2354.99,307.357"
     stroke-linejoin="bevel"
     stroke-linecap="round"
     stroke-width="3.25"
     stroke="#000000"
     fill="none"
     class="Stem" />
  <polyline
     transform="translate(-141.732,-275.123)"
     id="polyline7063"
     points="2200.64,371.428 2200.64,441.732"
     stroke-linejoin="bevel"
     stroke-linecap="round"
     stroke-width="3.25"
     stroke="#000000"
     fill="none"
     class="Stem" />
  <polyline
     transform="translate(-141.732,-275.123)"
     id="polyline7065"
     points="2114.45,371.428 2114.45,441.732"
     stroke-linejoin="bevel"
     stroke-linecap="round"
     stroke-width="3.25"
     stroke="#000000"
     fill="none"
     class="Stem" />
  <polyline
     transform="translate(-141.732,-275.123)"
     id="polyline7067"
     points="2028.26,371.428 2028.26,441.732"
     stroke-linejoin="bevel"
     stroke-linecap="round"
     stroke-width="3.25"
     stroke="#000000"
     fill="none"
     class="Stem" />
  <polyline
     transform="translate(-141.732,-275.123)"
     id="polyline7069"
     points="1942.07,371.428 1942.07,441.732"
     stroke-linejoin="bevel"
     stroke-linecap="round"
     stroke-width="3.25"
     stroke="#000000"
     fill="none"
     class="Stem" />
  <polyline
     transform="translate(-141.732,-275.123)"
     id="polyline7071"
     points="1833.83,387.037 1833.83,307.357"
     stroke-linejoin="bevel"
     stroke-linecap="round"
     stroke-width="3.25"
     stroke="#000000"
     fill="none"
     class="Stem" />
  <polyline
     transform="translate(-141.732,-275.123)"
     id="polyline7073"
     points="1695.92,424.537 1695.92,307.357"
     stroke-linejoin="bevel"
     stroke-linecap="round"
     stroke-width="3.25"
     stroke="#000000"
     fill="none"
     class="Stem" />
  <polyline
     transform="translate(-141.732,-275.123)"
     id="polyline7075"
     points="1578.44,399.537 1578.44,310.482"
     stroke-linejoin="bevel"
     stroke-linecap="round"
     stroke-width="3.25"
     stroke="#000000"
     fill="none"
     class="Stem" />
  <polyline
     transform="translate(-141.732,-275.123)"
     id="polyline7077"
     points="1492.25,437.037 1492.25,306.316"
     stroke-linejoin="bevel"
     stroke-linecap="round"
     stroke-width="3.25"
     stroke="#000000"
     fill="none"
     class="Stem" />
  <polyline
     transform="translate(-141.732,-275.123)"
     id="polyline7079"
     points="1406.06,399.537 1406.06,302.149"
     stroke-linejoin="bevel"
     stroke-linecap="round"
     stroke-width="3.25"
     stroke="#000000"
     fill="none"
     class="Stem" />
  <polyline
     transform="translate(-141.732,-275.123)"
     id="polyline7081"
     points="1319.87,374.537 1319.87,297.982"
     stroke-linejoin="bevel"
     stroke-linecap="round"
     stroke-width="3.25"
     stroke="#000000"
     fill="none"
     class="Stem" />
  <polyline
     transform="translate(-141.732,-275.123)"
     id="polyline7083"
     points="1181.97,399.537 1181.97,316.732"
     stroke-linejoin="bevel"
     stroke-linecap="round"
     stroke-width="3.25"
     stroke="#000000"
     fill="none"
     class="Stem" />
  <polyline
     transform="translate(-141.732,-275.123)"
     id="polyline7085"
     points="1044.06,437.037 1044.06,297.982"
     stroke-linejoin="bevel"
     stroke-linecap="round"
     stroke-width="3.25"
     stroke="#000000"
     fill="none"
     class="Stem" />
  <polyline
     transform="translate(-141.732,-275.123)"
     id="polyline7087"
     points="889.711,358.928 889.711,422.982"
     stroke-linejoin="bevel"
     stroke-linecap="round"
     stroke-width="3.25"
     stroke="#000000"
     fill="none"
     class="Stem" />
  <polyline
     transform="translate(-141.732,-275.123)"
     id="polyline7089"
     points="803.521,358.928 803.521,422.982"
     stroke-linejoin="bevel"
     stroke-linecap="round"
     stroke-width="3.25"
     stroke="#000000"
     fill="none"
     class="Stem" />
  <polyline
     transform="translate(-141.732,-275.123)"
     id="polyline7091"
     points="717.331,358.928 717.331,422.982"
     stroke-linejoin="bevel"
     stroke-linecap="round"
     stroke-width="3.25"
     stroke="#000000"
     fill="none"
     class="Stem" />
  <polyline
     transform="translate(-141.732,-275.123)"
     id="polyline7093"
     points="631.141,358.928 631.141,422.982"
     stroke-linejoin="bevel"
     stroke-linecap="round"
     stroke-width="3.25"
     stroke="#000000"
     fill="none"
     class="Stem" />
  <polyline
     transform="translate(-141.732,-275.123)"
     id="polyline7095"
     points="522.902,412.037 522.902,329.232"
     stroke-linejoin="bevel"
     stroke-linecap="round"
     stroke-width="3.25"
     stroke="#000000"
     fill="none"
     class="Stem" />
  <polyline
     transform="translate(-141.732,-275.123)"
     id="polyline7097"
     points="384.998,437.037 384.998,307.357"
     stroke-linejoin="bevel"
     stroke-linecap="round"
     stroke-width="3.25"
     stroke="#000000"
     fill="none"
     class="Stem" />
  <path
     id="path7099"
     d="m 2621.128,285.36 h 28 v 37.5 h -28 v -37.5"
     fill-rule="evenodd"
     fill="#ffffff"
     class="Note" />
  <path
     id="path7101"
     d="m 2621.128,285.36 h 28 v 37.5 h -28 v -37.5"
     fill-rule="evenodd"
     fill="#ffffff"
     class="Note" />
  <path
     id="path7103"
     d="m 2627.268,315.094 c 0.69,0 1.73,0.406 3.09,1.219 1.36,0.812 2.55,1.218 3.56,1.218 1.66,0 3.06,-0.64 4.2,-1.921 1.14,-1.282 1.71,-2.86 1.71,-4.735 0,-1.166 -0.2,-2.198 -0.61,-3.094 -0.41,-0.895 -0.93,-1.588 -1.56,-2.078 -0.63,-0.489 -1.38,-0.89 -2.25,-1.203 -0.87,-0.312 -1.68,-0.513 -2.45,-0.601 -0.76,-0.089 -1.58,-0.133 -2.44,-0.133 v -0.594 c 1.02,-0.354 1.89,-0.706 2.63,-1.055 0.73,-0.349 1.5,-0.815 2.31,-1.398 0.81,-0.583 1.43,-1.294 1.87,-2.133 0.44,-0.838 0.65,-1.799 0.65,-2.883 0,-1.406 -0.45,-2.56 -1.37,-3.461 -0.92,-0.901 -2.11,-1.351 -3.58,-1.351 -1.4,0 -2.64,0.383 -3.71,1.148 -1.07,0.766 -2.06,1.972 -2.99,3.617 l -0.67,-0.171 c 0.77,-2.136 1.82,-3.886 3.16,-5.25 1.34,-1.365 3.24,-2.047 5.7,-2.047 2.07,0 3.76,0.57 5.06,1.711 1.3,1.14 1.95,2.627 1.95,4.461 0,1.229 -0.31,2.307 -0.94,3.234 -0.63,0.927 -1.73,1.917 -3.29,2.969 1.8,0.781 3.21,1.776 4.23,2.984 1.02,1.208 1.53,2.932 1.53,5.172 0,3.187 -1.17,5.737 -3.53,7.648 -2.35,1.912 -5.32,2.868 -8.89,2.868 -1.55,0 -2.79,-0.232 -3.7,-0.696 -0.92,-0.463 -1.38,-1.086 -1.38,-1.867 0,-0.479 0.16,-0.862 0.47,-1.148 0.31,-0.287 0.73,-0.43 1.24,-0.43"
     class="Note" />
  <path
     id="path7105"
     d="m 2638.338,65.344 c 3.13,0 5.77,0.812 7.93,2.437 2.01,1.761 3.01,3.974 3.01,6.641 0,4.49 -2.31,8.687 -6.92,12.594 -4.69,3.906 -9.7,5.859 -15.05,5.859 -3.12,0 -5.76,-0.812 -7.9,-2.437 -2.02,-1.761 -3.03,-3.974 -3.03,-6.641 0,-4.49 2.34,-8.688 7.03,-12.594 4.56,-3.906 9.54,-5.859 14.93,-5.859"
     class="Note" />
  <path
     id="path7107"
     d="m 2537.588,285.36 h 28 v 37.5 h -28 v -37.5"
     fill-rule="evenodd"
     fill="#ffffff"
     class="Note" />
  <path
     id="path7109"
     d="m 2537.588,285.36 h 28 v 37.5 h -28 v -37.5"
     fill-rule="evenodd"
     fill="#ffffff"
     class="Note" />
  <path
     id="path7111"
     d="m 2543.728,315.094 c 0.69,0 1.73,0.406 3.09,1.219 1.37,0.812 2.55,1.218 3.56,1.218 1.66,0 3.06,-0.64 4.2,-1.921 1.14,-1.282 1.71,-2.86 1.71,-4.735 0,-1.166 -0.2,-2.198 -0.61,-3.094 -0.41,-0.895 -0.92,-1.588 -1.55,-2.078 -0.63,-0.489 -1.38,-0.89 -2.25,-1.203 -0.87,-0.312 -1.69,-0.513 -2.46,-0.601 -0.76,-0.089 -1.58,-0.133 -2.44,-0.133 v -0.594 c 1.02,-0.354 1.9,-0.706 2.63,-1.055 0.73,-0.349 1.51,-0.815 2.31,-1.398 0.81,-0.583 1.43,-1.294 1.87,-2.133 0.44,-0.838 0.66,-1.799 0.66,-2.883 0,-1.406 -0.46,-2.56 -1.38,-3.461 -0.92,-0.901 -2.11,-1.351 -3.58,-1.351 -1.4,0 -2.64,0.383 -3.71,1.148 -1.07,0.766 -2.06,1.972 -2.99,3.617 l -0.67,-0.171 c 0.77,-2.136 1.82,-3.886 3.16,-5.25 1.34,-1.365 3.24,-2.047 5.7,-2.047 2.07,0 3.76,0.57 5.06,1.711 1.3,1.14 1.95,2.627 1.95,4.461 0,1.229 -0.31,2.307 -0.94,3.234 -0.63,0.927 -1.73,1.917 -3.29,2.969 1.8,0.781 3.21,1.776 4.23,2.984 1.02,1.208 1.53,2.932 1.53,5.172 0,3.187 -1.17,5.737 -3.53,7.648 -2.35,1.912 -5.32,2.868 -8.89,2.868 -1.55,0 -2.78,-0.232 -3.7,-0.696 -0.92,-0.463 -1.38,-1.086 -1.38,-1.867 0,-0.479 0.16,-0.862 0.47,-1.148 0.32,-0.287 0.73,-0.43 1.24,-0.43"
     class="Note" />
  <path
     id="path7113"
     d="m 2554.808,65.344 c 3.12,0 5.76,0.812 7.92,2.437 2.01,1.761 3.01,3.974 3.01,6.641 0,4.49 -2.3,8.687 -6.92,12.594 -4.69,3.906 -9.7,5.859 -15.05,5.859 -3.12,0 -5.76,-0.812 -7.9,-2.437 -2.02,-1.761 -3.03,-3.974 -3.03,-6.641 0,-4.49 2.34,-8.688 7.03,-12.594 4.56,-3.906 9.54,-5.859 14.94,-5.859"
     class="Note" />
  <path
     id="path7115"
     d="m 2454.048,285.36 h 28 v 37.5 h -28 v -37.5"
     fill-rule="evenodd"
     fill="#ffffff"
     class="Note" />
  <path
     id="path7117"
     d="m 2454.048,285.36 h 28 v 37.5 h -28 v -37.5"
     fill-rule="evenodd"
     fill="#ffffff"
     class="Note" />
  <path
     id="path7119"
     d="m 2460.188,315.094 c 0.7,0 1.73,0.406 3.09,1.219 1.37,0.812 2.55,1.218 3.56,1.218 1.66,0 3.06,-0.64 4.2,-1.921 1.14,-1.282 1.71,-2.86 1.71,-4.735 0,-1.166 -0.2,-2.198 -0.61,-3.094 -0.41,-0.895 -0.92,-1.588 -1.55,-2.078 -0.63,-0.489 -1.38,-0.89 -2.25,-1.203 -0.87,-0.312 -1.69,-0.513 -2.46,-0.601 -0.76,-0.089 -1.58,-0.133 -2.44,-0.133 v -0.594 c 1.02,-0.354 1.9,-0.706 2.63,-1.055 0.73,-0.349 1.51,-0.815 2.31,-1.398 0.81,-0.583 1.43,-1.294 1.87,-2.133 0.44,-0.838 0.66,-1.799 0.66,-2.883 0,-1.406 -0.46,-2.56 -1.38,-3.461 -0.92,-0.901 -2.11,-1.351 -3.58,-1.351 -1.4,0 -2.64,0.383 -3.71,1.148 -1.07,0.766 -2.06,1.972 -2.99,3.617 l -0.67,-0.171 c 0.77,-2.136 1.82,-3.886 3.16,-5.25 1.34,-1.365 3.24,-2.047 5.7,-2.047 2.07,0 3.76,0.57 5.06,1.711 1.3,1.14 1.95,2.627 1.95,4.461 0,1.229 -0.31,2.307 -0.94,3.234 -0.63,0.927 -1.73,1.917 -3.29,2.969 1.8,0.781 3.21,1.776 4.23,2.984 1.02,1.208 1.53,2.932 1.53,5.172 0,3.187 -1.17,5.737 -3.53,7.648 -2.35,1.912 -5.31,2.868 -8.89,2.868 -1.55,0 -2.78,-0.232 -3.7,-0.696 -0.92,-0.463 -1.38,-1.086 -1.38,-1.867 0,-0.479 0.16,-0.862 0.47,-1.148 0.32,-0.287 0.73,-0.43 1.24,-0.43"
     class="Note" />
  <path
     id="path7121"
     d="m 2471.268,65.344 c 3.12,0 5.76,0.812 7.92,2.437 2.01,1.761 3.01,3.974 3.01,6.641 0,4.49 -2.3,8.687 -6.92,12.594 -4.69,3.906 -9.7,5.859 -15.05,5.859 -3.12,0 -5.76,-0.812 -7.9,-2.437 -2.02,-1.761 -3.03,-3.974 -3.03,-6.641 0,-4.49 2.34,-8.688 7.03,-12.594 4.56,-3.906 9.54,-5.859 14.94,-5.859"
     class="Note" />
  <path
     id="path7123"
     d="m 2320.378,322.86 h 28 v 37.5 h -28 v -37.5"
     fill-rule="evenodd"
     fill="#ffffff"
     class="Note" />
  <path
     id="path7125"
     d="m 2320.378,322.86 h 28 v 37.5 h -28 v -37.5"
     fill-rule="evenodd"
     fill="#ffffff"
     class="Note" />
  <path
     id="path7127"
     d="m 2341.518,352.414 c -1.86,2.88 -4.32,4.321 -7.39,4.321 -3.06,0 -5.52,-1.469 -7.38,-4.407 -1.86,-2.937 -2.79,-6.718 -2.79,-11.343 0,-4.344 0.93,-7.98 2.79,-10.907 1.86,-2.927 4.38,-4.39 7.56,-4.39 2.94,0 5.35,1.44 7.21,4.32 1.86,2.88 2.79,6.633 2.79,11.258 0,4.552 -0.93,8.268 -2.79,11.148 m -7.34,-25.554 c -3.93,0 -5.89,4.843 -5.89,14.531 0,9.448 1.95,14.172 5.84,14.172 3.9,0 5.85,-4.74 5.85,-14.219 0,-4.708 -0.5,-8.3 -1.49,-10.773 -0.99,-2.474 -2.42,-3.711 -4.31,-3.711"
     class="Note" />
  <path
     id="path7129"
     d="m 2337.598,127.844 c 3.13,0 5.77,0.812 7.93,2.437 2.01,1.761 3.01,3.974 3.01,6.641 0,4.49 -2.31,8.687 -6.92,12.594 -4.69,3.906 -9.7,5.859 -15.05,5.859 -3.12,0 -5.76,-0.812 -7.9,-2.437 -2.03,-1.761 -3.04,-3.974 -3.04,-6.641 0,-4.49 2.35,-8.688 7.04,-12.594 4.56,-3.906 9.54,-5.859 14.93,-5.859"
     class="Note" />
  <path
     id="path7131"
     d="m 2186.718,397.86 h 28 v 37.5 h -28 v -37.5"
     fill-rule="evenodd"
     fill="#ffffff"
     class="Note" />
  <path
     id="path7133"
     d="m 2186.718,397.86 h 28 v 37.5 h -28 v -37.5"
     fill-rule="evenodd"
     fill="#ffffff"
     class="Note" />
  <path
     id="path7135"
     d="m 2207.848,427.414 c -1.85,2.881 -4.32,4.321 -7.38,4.321 -3.06,0 -5.52,-1.469 -7.38,-4.407 -1.86,-2.937 -2.79,-6.718 -2.79,-11.343 0,-4.344 0.93,-7.98 2.79,-10.907 1.86,-2.927 4.38,-4.39 7.55,-4.39 2.95,0 5.36,1.44 7.21,4.32 1.86,2.88 2.79,6.633 2.79,11.258 0,4.552 -0.93,8.268 -2.79,11.148 m -7.33,-25.554 c -3.93,0 -5.89,4.843 -5.89,14.531 0,9.448 1.95,14.172 5.84,14.172 3.9,0 5.85,-4.74 5.85,-14.219 0,-4.708 -0.5,-8.299 -1.49,-10.773 -0.99,-2.474 -2.43,-3.711 -4.31,-3.711"
     class="Note" />
  <path
     id="path7137"
     d="m 2186.718,360.36 h 28 v 37.5 h -28 v -37.5"
     fill-rule="evenodd"
     fill="#ffffff"
     class="Note" />
  <path
     id="path7139"
     d="m 2186.718,360.36 h 28 v 37.5 h -28 v -37.5"
     fill-rule="evenodd"
     fill="#ffffff"
     class="Note" />
  <path
     id="path7141"
     d="m 2207.848,389.914 c -1.85,2.881 -4.32,4.321 -7.38,4.321 -3.06,0 -5.52,-1.469 -7.38,-4.407 -1.86,-2.937 -2.79,-6.718 -2.79,-11.343 0,-4.344 0.93,-7.98 2.79,-10.907 1.86,-2.927 4.38,-4.39 7.55,-4.39 2.95,0 5.36,1.44 7.21,4.32 1.86,2.88 2.79,6.633 2.79,11.258 0,4.552 -0.93,8.268 -2.79,11.148 m -7.33,-25.554 c -3.93,0 -5.89,4.843 -5.89,14.531 0,9.448 1.95,14.172 5.84,14.172 3.9,0 5.85,-4.74 5.85,-14.219 0,-4.708 -0.5,-8.299 -1.49,-10.773 -0.99,-2.474 -2.43,-3.711 -4.31,-3.711"
     class="Note" />
  <path
     id="path7143"
     d="m 2203.938,102.844 c 3.13,0 5.77,0.812 7.92,2.437 2.01,1.761 3.02,3.974 3.02,6.641 0,4.49 -2.31,8.687 -6.92,12.594 -4.69,3.906 -9.71,5.859 -15.05,5.859 -3.13,0 -5.76,-0.812 -7.91,-2.437 -2.02,-1.761 -3.03,-3.974 -3.03,-6.641 0,-4.49 2.35,-8.688 7.03,-12.594 4.57,-3.906 9.54,-5.859 14.94,-5.859"
     class="Note" />
  <path
     id="path7145"
     d="m 2203.938,152.844 c 3.13,0 5.77,0.812 7.92,2.437 2.01,1.761 3.02,3.974 3.02,6.641 0,4.49 -2.31,8.687 -6.92,12.594 -4.69,3.906 -9.71,5.859 -15.05,5.859 -3.13,0 -5.76,-0.812 -7.91,-2.437 -2.02,-1.761 -3.03,-3.974 -3.03,-6.641 0,-4.49 2.35,-8.688 7.03,-12.594 4.57,-3.906 9.54,-5.859 14.94,-5.859"
     class="Note" />
  <path
     id="path7147"
     d="m 2062.028,285.36 h 28 v 37.5 h -28 v -37.5"
     fill-rule="evenodd"
     fill="#ffffff"
     class="Note" />
  <path
     id="path7149"
     d="m 2062.028,285.36 h 28 v 37.5 h -28 v -37.5"
     fill-rule="evenodd"
     fill="#ffffff"
     class="Note" />
  <path
     id="path7151"
     d="m 2065.918,297.141 c 0.16,-0.688 0.31,-1.284 0.46,-1.789 0.14,-0.505 0.46,-1.242 0.96,-2.211 0.5,-0.969 1.06,-1.774 1.68,-2.414 0.61,-0.641 1.47,-1.216 2.56,-1.727 1.09,-0.51 2.33,-0.765 3.7,-0.765 2.35,0 4.32,0.76 5.92,2.281 1.61,1.521 2.41,3.401 2.41,5.64 0,3.386 -1.92,7.089 -5.77,11.11 l -7.54,7.922 h 10.75 c 1.02,0 1.78,-0.172 2.27,-0.516 0.5,-0.344 1.17,-1.161 2.01,-2.453 l 0.58,0.219 -2.47,6.172 h -17.56 v -0.547 l 8.01,-8.5 c 3.9,-4.136 5.85,-8.037 5.85,-11.703 0,-1.886 -0.59,-3.415 -1.75,-4.586 -1.17,-1.172 -2.7,-1.758 -4.6,-1.758 -1.55,0 -2.8,0.427 -3.75,1.281 -0.95,0.854 -1.87,2.38 -2.76,4.578 l -0.96,-0.234"
     class="Note" />
  <path
     id="path7153"
     d="m 2079.248,77.844 c 3.13,0 5.77,0.812 7.92,2.437 2.01,1.761 3.02,3.974 3.02,6.641 0,4.49 -2.31,8.687 -6.92,12.594 -4.69,3.906 -9.71,5.859 -15.05,5.859 -3.13,0 -5.76,-0.812 -7.91,-2.437 -2.02,-1.761 -3.03,-3.974 -3.03,-6.641 0,-4.49 2.35,-8.688 7.03,-12.594 4.57,-3.906 9.54,-5.859 14.94,-5.859"
     class="Note" />
  <path
     id="path7155"
     d="m 1975.838,285.36 h 28 v 37.5 h -28 v -37.5"
     fill-rule="evenodd"
     fill="#ffffff"
     class="Note" />
  <path
     id="path7157"
     d="m 1975.838,285.36 h 28 v 37.5 h -28 v -37.5"
     fill-rule="evenodd"
     fill="#ffffff"
     class="Note" />
  <path
     id="path7159"
     d="m 1979.728,297.141 c 0.16,-0.688 0.31,-1.284 0.46,-1.789 0.14,-0.505 0.46,-1.242 0.96,-2.211 0.5,-0.969 1.06,-1.774 1.68,-2.414 0.61,-0.641 1.47,-1.216 2.56,-1.727 1.09,-0.51 2.33,-0.765 3.7,-0.765 2.35,0 4.32,0.76 5.92,2.281 1.61,1.521 2.41,3.401 2.41,5.64 0,3.386 -1.92,7.089 -5.77,11.11 l -7.54,7.922 h 10.75 c 1.02,0 1.78,-0.172 2.27,-0.516 0.5,-0.344 1.17,-1.161 2.01,-2.453 l 0.58,0.219 -2.47,6.172 h -17.56 v -0.547 l 8.01,-8.5 c 3.9,-4.136 5.85,-8.037 5.85,-11.703 0,-1.886 -0.59,-3.415 -1.75,-4.586 -1.17,-1.172 -2.7,-1.758 -4.6,-1.758 -1.55,0 -2.8,0.427 -3.75,1.281 -0.95,0.854 -1.87,2.38 -2.76,4.578 l -0.96,-0.234"
     class="Note" />
  <path
     id="path7161"
     d="m 1993.058,77.844 c 3.13,0 5.77,0.812 7.92,2.437 2.01,1.761 3.02,3.974 3.02,6.641 0,4.49 -2.31,8.687 -6.92,12.594 -4.69,3.906 -9.71,5.859 -15.05,5.859 -3.13,0 -5.76,-0.812 -7.91,-2.437 -2.02,-1.761 -3.03,-3.974 -3.03,-6.641 0,-4.49 2.35,-8.688 7.03,-12.594 4.57,-3.906 9.55,-5.859 14.94,-5.859"
     class="Note" />
  <path
     id="path7163"
     d="m 1889.648,285.36 h 28 v 37.5 h -28 v -37.5"
     fill-rule="evenodd"
     fill="#ffffff"
     class="Note" />
  <path
     id="path7165"
     d="m 1889.648,285.36 h 28 v 37.5 h -28 v -37.5"
     fill-rule="evenodd"
     fill="#ffffff"
     class="Note" />
  <path
     id="path7167"
     d="m 1893.538,297.141 c 0.16,-0.688 0.31,-1.284 0.46,-1.789 0.14,-0.505 0.46,-1.242 0.96,-2.211 0.5,-0.969 1.06,-1.774 1.68,-2.414 0.61,-0.641 1.47,-1.216 2.56,-1.727 1.09,-0.51 2.33,-0.765 3.7,-0.765 2.35,0 4.32,0.76 5.92,2.281 1.61,1.521 2.41,3.401 2.41,5.64 0,3.386 -1.92,7.089 -5.77,11.11 l -7.54,7.922 h 10.75 c 1.02,0 1.78,-0.172 2.27,-0.516 0.5,-0.344 1.17,-1.161 2.01,-2.453 l 0.58,0.219 -2.47,6.172 h -17.56 v -0.547 l 8.01,-8.5 c 3.9,-4.136 5.85,-8.037 5.85,-11.703 0,-1.886 -0.59,-3.415 -1.75,-4.586 -1.17,-1.172 -2.7,-1.758 -4.6,-1.758 -1.55,0 -2.8,0.427 -3.75,1.281 -0.95,0.854 -1.87,2.38 -2.76,4.578 l -0.96,-0.234"
     class="Note" />
  <path
     id="path7169"
     d="m 1906.868,77.844 c 3.13,0 5.77,0.812 7.92,2.437 2.01,1.761 3.02,3.974 3.02,6.641 0,4.49 -2.31,8.687 -6.92,12.594 -4.69,3.906 -9.71,5.859 -15.05,5.859 -3.13,0 -5.76,-0.812 -7.91,-2.437 -2.02,-1.761 -3.03,-3.974 -3.03,-6.641 0,-4.49 2.35,-8.688 7.03,-12.594 4.57,-3.906 9.55,-5.859 14.94,-5.859"
     class="Note" />
  <path
     id="path7171"
     d="m 1803.458,285.36 h 28 v 37.5 h -28 v -37.5"
     fill-rule="evenodd"
     fill="#ffffff"
     class="Note" />
  <path
     id="path7173"
     d="m 1803.458,285.36 h 28 v 37.5 h -28 v -37.5"
     fill-rule="evenodd"
     fill="#ffffff"
     class="Note" />
  <path
     id="path7175"
     d="m 1807.348,297.141 c 0.16,-0.688 0.31,-1.284 0.46,-1.789 0.14,-0.505 0.47,-1.242 0.97,-2.211 0.5,-0.969 1.05,-1.774 1.67,-2.414 0.61,-0.641 1.47,-1.216 2.56,-1.727 1.09,-0.51 2.33,-0.765 3.7,-0.765 2.35,0 4.32,0.76 5.92,2.281 1.61,1.521 2.41,3.401 2.41,5.64 0,3.386 -1.92,7.089 -5.76,11.11 l -7.55,7.922 h 10.75 c 1.02,0 1.78,-0.172 2.27,-0.516 0.5,-0.344 1.17,-1.161 2.01,-2.453 l 0.58,0.219 -2.47,6.172 h -17.56 v -0.547 l 8.01,-8.5 c 3.9,-4.136 5.85,-8.037 5.85,-11.703 0,-1.886 -0.59,-3.415 -1.75,-4.586 -1.17,-1.172 -2.7,-1.758 -4.6,-1.758 -1.55,0 -2.8,0.427 -3.75,1.281 -0.95,0.854 -1.87,2.38 -2.76,4.578 l -0.96,-0.234"
     class="Note" />
  <path
     id="path7177"
     d="m 1820.678,77.844 c 3.13,0 5.77,0.812 7.92,2.437 2.01,1.761 3.02,3.974 3.02,6.641 0,4.49 -2.31,8.687 -6.92,12.594 -4.69,3.906 -9.71,5.859 -15.05,5.859 -3.13,0 -5.76,-0.812 -7.91,-2.437 -2.02,-1.761 -3.03,-3.974 -3.03,-6.641 0,-4.49 2.35,-8.688 7.03,-12.594 4.57,-3.906 9.55,-5.859 14.94,-5.859"
     class="Note" />
  <path
     id="path7179"
     d="m 1665.558,322.86 h 28 v 37.5 h -28 v -37.5"
     fill-rule="evenodd"
     fill="#ffffff"
     class="Note" />
  <path
     id="path7181"
     d="m 1665.558,322.86 h 28 v 37.5 h -28 v -37.5"
     fill-rule="evenodd"
     fill="#ffffff"
     class="Note" />
  <path
     id="path7183"
     d="m 1671.698,352.594 c 0.7,0 1.73,0.406 3.09,1.219 1.37,0.812 2.56,1.218 3.57,1.218 1.65,0 3.05,-0.64 4.19,-1.921 1.14,-1.282 1.71,-2.86 1.71,-4.735 0,-1.166 -0.2,-2.198 -0.61,-3.094 -0.4,-0.895 -0.92,-1.588 -1.55,-2.078 -0.63,-0.489 -1.38,-0.89 -2.25,-1.203 -0.87,-0.312 -1.69,-0.513 -2.46,-0.601 -0.76,-0.089 -1.58,-0.133 -2.44,-0.133 v -0.594 c 1.02,-0.354 1.9,-0.706 2.63,-1.055 0.74,-0.349 1.51,-0.815 2.31,-1.398 0.81,-0.583 1.43,-1.294 1.87,-2.133 0.44,-0.838 0.66,-1.799 0.66,-2.883 0,-1.406 -0.46,-2.56 -1.38,-3.461 -0.91,-0.901 -2.11,-1.351 -3.57,-1.351 -1.41,0 -2.65,0.383 -3.72,1.148 -1.06,0.766 -2.06,1.972 -2.99,3.617 l -0.67,-0.171 c 0.77,-2.136 1.83,-3.886 3.16,-5.25 1.34,-1.365 3.24,-2.047 5.7,-2.047 2.07,0 3.76,0.57 5.06,1.711 1.3,1.14 1.96,2.627 1.96,4.461 0,1.229 -0.32,2.307 -0.95,3.234 -0.63,0.927 -1.73,1.917 -3.29,2.969 1.8,0.781 3.21,1.776 4.24,2.984 1.02,1.208 1.53,2.932 1.53,5.172 0,3.187 -1.18,5.737 -3.53,7.648 -2.36,1.912 -5.32,2.868 -8.9,2.868 -1.55,0 -2.78,-0.232 -3.7,-0.696 -0.92,-0.463 -1.37,-1.086 -1.37,-1.867 0,-0.479 0.15,-0.862 0.47,-1.148 0.31,-0.287 0.72,-0.43 1.23,-0.43"
     class="Note" />
  <path
     id="path7185"
     d="m 1682.778,102.844 c 3.12,0 5.76,0.812 7.92,2.437 2.01,1.761 3.02,3.974 3.02,6.641 0,4.49 -2.31,8.687 -6.93,12.594 -4.68,3.906 -9.7,5.859 -15.04,5.859 -3.13,0 -5.76,-0.812 -7.91,-2.437 -2.02,-1.761 -3.03,-3.974 -3.03,-6.641 0,-4.49 2.34,-8.688 7.03,-12.594 4.56,-3.906 9.54,-5.859 14.94,-5.859"
     class="Note" />
  <path
     id="path7187"
     d="m 1527.658,397.86 h 28 v 37.5 h -28 v -37.5"
     fill-rule="evenodd"
     fill="#ffffff"
     class="Note" />
  <path
     id="path7189"
     d="m 1527.658,397.86 h 28 v 37.5 h -28 v -37.5"
     fill-rule="evenodd"
     fill="#ffffff"
     class="Note" />
  <path
     id="path7191"
     d="m 1548.788,427.414 c -1.86,2.881 -4.32,4.321 -7.38,4.321 -3.07,0 -5.53,-1.469 -7.39,-4.407 -1.86,-2.937 -2.79,-6.718 -2.79,-11.343 0,-4.344 0.93,-7.98 2.79,-10.907 1.86,-2.927 4.38,-4.39 7.56,-4.39 2.94,0 5.35,1.44 7.21,4.32 1.86,2.88 2.79,6.633 2.79,11.258 0,4.552 -0.93,8.268 -2.79,11.148 m -7.34,-25.554 c -3.93,0 -5.89,4.843 -5.89,14.531 0,9.448 1.95,14.172 5.85,14.172 3.89,0 5.84,-4.74 5.84,-14.219 0,-4.708 -0.5,-8.299 -1.49,-10.773 -0.99,-2.474 -2.42,-3.711 -4.31,-3.711"
     class="Note" />
  <path
     id="path7193"
     d="m 1527.658,360.36 h 28 v 37.5 h -28 v -37.5"
     fill-rule="evenodd"
     fill="#ffffff"
     class="Note" />
  <path
     id="path7195"
     d="m 1527.658,360.36 h 28 v 37.5 h -28 v -37.5"
     fill-rule="evenodd"
     fill="#ffffff"
     class="Note" />
  <path
     id="path7197"
     d="m 1531.548,372.141 c 0.15,-0.688 0.3,-1.284 0.45,-1.789 0.14,-0.505 0.47,-1.242 0.97,-2.211 0.5,-0.969 1.05,-1.774 1.67,-2.414 0.61,-0.641 1.47,-1.216 2.56,-1.727 1.1,-0.51 2.33,-0.765 3.71,-0.765 2.34,0 4.31,0.76 5.92,2.281 1.6,1.521 2.4,3.401 2.4,5.64 0,3.386 -1.92,7.089 -5.76,11.11 l -7.55,7.922 h 10.75 c 1.02,0 1.78,-0.172 2.27,-0.516 0.5,-0.344 1.17,-1.161 2.01,-2.453 l 0.58,0.219 -2.47,6.172 h -17.56 v -0.547 l 8.01,-8.5 c 3.9,-4.136 5.85,-8.037 5.85,-11.703 0,-1.886 -0.59,-3.414 -1.75,-4.586 -1.17,-1.172 -2.7,-1.758 -4.6,-1.758 -1.55,0 -2.8,0.427 -3.75,1.281 -0.94,0.854 -1.87,2.38 -2.76,4.578 l -0.95,-0.234"
     class="Note" />
  <path
     id="path7199"
     d="m 1544.868,102.844 c 3.13,0 5.77,0.812 7.93,2.437 2.01,1.761 3.01,3.974 3.01,6.641 0,4.49 -2.31,8.687 -6.92,12.594 -4.69,3.906 -9.7,5.859 -15.05,5.859 -3.12,0 -5.76,-0.812 -7.9,-2.437 -2.02,-1.761 -3.03,-3.974 -3.03,-6.641 0,-4.49 2.34,-8.688 7.03,-12.594 4.56,-3.906 9.54,-5.859 14.93,-5.859"
     class="Note" />
  <path
     id="path7201"
     d="m 1544.868,140.344 c 3.13,0 5.77,0.812 7.93,2.437 2.01,1.761 3.01,3.974 3.01,6.641 0,4.49 -2.31,8.687 -6.92,12.594 -4.69,3.906 -9.7,5.859 -15.05,5.859 -3.12,0 -5.76,-0.812 -7.9,-2.437 -2.02,-1.761 -3.03,-3.974 -3.03,-6.641 0,-4.49 2.34,-8.688 7.03,-12.594 4.56,-3.906 9.54,-5.859 14.93,-5.859"
     class="Note" />
  <path
     id="path7203"
     d="m 1410.168,322.86 h 28 v 37.5 h -28 v -37.5"
     fill-rule="evenodd"
     fill="#ffffff"
     class="Note" />
  <path
     id="path7205"
     d="m 1410.168,322.86 h 28 v 37.5 h -28 v -37.5"
     fill-rule="evenodd"
     fill="#ffffff"
     class="Note" />
  <path
     id="path7207"
     d="m 1420.908,329.422 c -0.54,0 -1.62,0.333 -3.24,1 v -0.641 l 8.1,-4.093 0.36,0.093 v 27 c 0,1.084 0.27,1.79 0.81,2.118 0.54,0.328 1.7,0.507 3.47,0.539 v 0.672 h -12.43 v -0.672 c 1.68,-0.063 2.81,-0.31 3.4,-0.742 0.58,-0.433 0.87,-1.357 0.87,-2.774 v -20.375 c 0,-1.417 -0.45,-2.125 -1.34,-2.125"
     class="Note" />
  <path
     id="path7209"
     d="m 1427.388,115.344 c 3.13,0 5.77,0.812 7.92,2.437 2.01,1.761 3.02,3.974 3.02,6.641 0,4.49 -2.31,8.687 -6.92,12.594 -4.69,3.906 -9.71,5.859 -15.05,5.859 -3.13,0 -5.76,-0.812 -7.91,-2.437 -2.02,-1.761 -3.03,-3.974 -3.03,-6.641 0,-4.49 2.35,-8.688 7.03,-12.594 4.57,-3.906 9.55,-5.859 14.94,-5.859"
     class="Note" />
  <path
     id="path7211"
     d="m 1323.978,360.36 h 28 v 37.5 h -28 v -37.5"
     fill-rule="evenodd"
     fill="#ffffff"
     class="Note" />
  <path
     id="path7213"
     d="m 1323.978,360.36 h 28 v 37.5 h -28 v -37.5"
     fill-rule="evenodd"
     fill="#ffffff"
     class="Note" />
  <path
     id="path7215"
     d="m 1345.118,389.914 c -1.86,2.881 -4.32,4.321 -7.39,4.321 -3.06,0 -5.52,-1.469 -7.38,-4.407 -1.86,-2.937 -2.79,-6.718 -2.79,-11.343 0,-4.344 0.93,-7.98 2.79,-10.907 1.86,-2.927 4.38,-4.39 7.55,-4.39 2.95,0 5.36,1.44 7.22,4.32 1.85,2.88 2.78,6.633 2.78,11.258 0,4.552 -0.93,8.268 -2.78,11.148 m -7.34,-25.554 c -3.93,0 -5.89,4.843 -5.89,14.531 0,9.448 1.95,14.172 5.84,14.172 3.9,0 5.85,-4.74 5.85,-14.219 0,-4.708 -0.5,-8.299 -1.49,-10.773 -0.99,-2.474 -2.43,-3.711 -4.31,-3.711"
     class="Note" />
  <path
     id="path7217"
     d="m 1341.198,152.844 c 3.13,0 5.77,0.812 7.92,2.437 2.01,1.761 3.02,3.974 3.02,6.641 0,4.49 -2.31,8.687 -6.92,12.594 -4.69,3.906 -9.71,5.859 -15.05,5.859 -3.12,0 -5.76,-0.812 -7.91,-2.437 -2.02,-1.761 -3.03,-3.974 -3.03,-6.641 0,-4.49 2.35,-8.688 7.03,-12.594 4.57,-3.906 9.55,-5.859 14.94,-5.859"
     class="Note" />
  <path
     id="path7219"
     d="m 1237.788,322.86 h 28 v 37.5 h -28 v -37.5"
     fill-rule="evenodd"
     fill="#ffffff"
     class="Note" />
  <path
     id="path7221"
     d="m 1237.788,322.86 h 28 v 37.5 h -28 v -37.5"
     fill-rule="evenodd"
     fill="#ffffff"
     class="Note" />
  <path
     id="path7223"
     d="m 1248.528,329.422 c -0.54,0 -1.62,0.333 -3.24,1 v -0.641 l 8.1,-4.093 0.36,0.093 v 27 c 0,1.084 0.27,1.79 0.81,2.118 0.54,0.328 1.7,0.507 3.47,0.539 v 0.672 h -12.42 v -0.672 c 1.67,-0.063 2.8,-0.31 3.39,-0.742 0.58,-0.433 0.87,-1.357 0.87,-2.774 v -20.375 c 0,-1.417 -0.45,-2.125 -1.34,-2.125"
     class="Note" />
  <path
     id="path7225"
     d="m 1255.008,115.344 c 3.13,0 5.77,0.812 7.92,2.437 2.01,1.761 3.02,3.974 3.02,6.641 0,4.49 -2.31,8.687 -6.92,12.594 -4.69,3.906 -9.71,5.859 -15.05,5.859 -3.12,0 -5.76,-0.812 -7.91,-2.437 -2.02,-1.761 -3.03,-3.974 -3.03,-6.641 0,-4.49 2.35,-8.688 7.03,-12.594 4.57,-3.906 9.55,-5.859 14.94,-5.859"
     class="Note" />
  <path
     id="path7227"
     d="m 1151.598,285.36 h 28 v 37.5 h -28 v -37.5"
     fill-rule="evenodd"
     fill="#ffffff"
     class="Note" />
  <path
     id="path7229"
     d="m 1151.598,285.36 h 28 v 37.5 h -28 v -37.5"
     fill-rule="evenodd"
     fill="#ffffff"
     class="Note" />
  <path
     id="path7231"
     d="m 1172.738,314.914 c -1.86,2.88 -4.32,4.321 -7.39,4.321 -3.06,0 -5.52,-1.469 -7.38,-4.407 -1.86,-2.937 -2.79,-6.718 -2.79,-11.343 0,-4.344 0.93,-7.98 2.79,-10.907 1.86,-2.927 4.38,-4.39 7.55,-4.39 2.95,0 5.36,1.44 7.22,4.32 1.86,2.88 2.78,6.633 2.78,11.258 0,4.552 -0.92,8.268 -2.78,11.148 m -7.34,-25.554 c -3.93,0 -5.89,4.843 -5.89,14.531 0,9.448 1.95,14.172 5.84,14.172 3.9,0 5.85,-4.74 5.85,-14.219 0,-4.708 -0.5,-8.3 -1.49,-10.774 -0.99,-2.473 -2.42,-3.71 -4.31,-3.71"
     class="Note" />
  <path
     id="path7233"
     d="m 1168.818,90.344 c 3.13,0 5.77,0.812 7.92,2.437 2.01,1.761 3.02,3.974 3.02,6.641 0,4.49 -2.31,8.687 -6.92,12.594 -4.69,3.906 -9.71,5.859 -15.05,5.859 -3.12,0 -5.76,-0.812 -7.91,-2.437 -2.02,-1.761 -3.03,-3.974 -3.03,-6.641 0,-4.49 2.35,-8.688 7.03,-12.594 4.57,-3.906 9.55,-5.859 14.94,-5.859"
     class="Note" />
  <path
     id="path7235"
     d="m 1013.698,322.86 h 28 v 37.5 h -28 v -37.5"
     fill-rule="evenodd"
     fill="#ffffff"
     class="Note" />
  <path
     id="path7237"
     d="m 1013.698,322.86 h 28 v 37.5 h -28 v -37.5"
     fill-rule="evenodd"
     fill="#ffffff"
     class="Note" />
  <path
     id="path7239"
     d="m 1024.428,329.422 c -0.54,0 -1.62,0.333 -3.23,1 v -0.641 l 8.09,-4.093 0.36,0.093 v 27 c 0,1.084 0.27,1.79 0.81,2.118 0.55,0.328 1.7,0.507 3.47,0.539 v 0.672 h -12.42 v -0.672 c 1.68,-0.063 2.81,-0.31 3.39,-0.742 0.59,-0.433 0.88,-1.357 0.88,-2.774 v -20.375 c 0,-1.417 -0.45,-2.125 -1.35,-2.125"
     class="Note" />
  <path
     id="path7241"
     d="m 1030.918,115.344 c 3.12,0 5.76,0.812 7.92,2.437 2.01,1.761 3.02,3.974 3.02,6.641 0,4.49 -2.31,8.687 -6.93,12.594 -4.68,3.906 -9.7,5.859 -15.04,5.859 -3.13,0 -5.76,-0.812 -7.91,-2.437 -2.02,-1.761 -3.03,-3.974 -3.03,-6.641 0,-4.49 2.34,-8.688 7.03,-12.594 4.56,-3.906 9.54,-5.859 14.94,-5.859"
     class="Note" />
  <path
     id="path7243"
     d="m 875.798,397.86 h 28 v 37.5 h -28 v -37.5"
     fill-rule="evenodd"
     fill="#ffffff"
     class="Note" />
  <path
     id="path7245"
     d="m 875.798,397.86 h 28 v 37.5 h -28 v -37.5"
     fill-rule="evenodd"
     fill="#ffffff"
     class="Note" />
  <path
     id="path7247"
     d="m 879.688,409.641 c 0.15,-0.688 0.3,-1.284 0.45,-1.789 0.15,-0.505 0.47,-1.242 0.97,-2.211 0.5,-0.969 1.06,-1.774 1.67,-2.414 0.61,-0.641 1.47,-1.216 2.56,-1.727 1.1,-0.51 2.33,-0.765 3.71,-0.765 2.34,0 4.31,0.76 5.92,2.281 1.6,1.521 2.4,3.401 2.4,5.641 0,3.385 -1.92,7.088 -5.76,11.109 l -7.55,7.922 h 10.75 c 1.02,0 1.78,-0.172 2.27,-0.516 0.5,-0.344 1.17,-1.161 2.01,-2.453 l 0.58,0.219 -2.47,6.172 h -17.56 v -0.547 l 8.01,-8.5 c 3.9,-4.136 5.85,-8.037 5.85,-11.703 0,-1.886 -0.58,-3.414 -1.75,-4.586 -1.17,-1.172 -2.7,-1.758 -4.6,-1.758 -1.55,0 -2.8,0.427 -3.75,1.281 -0.94,0.854 -1.86,2.38 -2.76,4.578 l -0.95,-0.234"
     class="Note" />
  <path
     id="path7249"
     d="m 875.798,360.36 h 28 v 37.5 h -28 v -37.5"
     fill-rule="evenodd"
     fill="#ffffff"
     class="Note" />
  <path
     id="path7251"
     d="m 875.798,360.36 h 28 v 37.5 h -28 v -37.5"
     fill-rule="evenodd"
     fill="#ffffff"
     class="Note" />
  <path
     id="path7253"
     d="m 896.928,389.914 c -1.86,2.881 -4.32,4.321 -7.38,4.321 -3.07,0 -5.53,-1.469 -7.39,-4.407 -1.86,-2.937 -2.79,-6.718 -2.79,-11.343 0,-4.344 0.93,-7.98 2.79,-10.907 1.86,-2.927 4.38,-4.39 7.56,-4.39 2.95,0 5.35,1.44 7.21,4.32 1.86,2.88 2.79,6.633 2.79,11.258 0,4.552 -0.93,8.268 -2.79,11.148 m -7.34,-25.554 c -3.92,0 -5.89,4.843 -5.89,14.531 0,9.448 1.95,14.172 5.85,14.172 3.89,0 5.84,-4.74 5.84,-14.219 0,-4.708 -0.5,-8.299 -1.49,-10.773 -0.98,-2.474 -2.42,-3.711 -4.31,-3.711"
     class="Note" />
  <path
     id="path7255"
     d="m 893.008,90.344 c 3.13,0 5.77,0.812 7.93,2.437 2.01,1.761 3.01,3.974 3.01,6.641 0,4.49 -2.31,8.687 -6.92,12.594 -4.69,3.906 -9.7,5.859 -15.05,5.859 -3.12,0 -5.76,-0.812 -7.9,-2.437 -2.02,-1.761 -3.03,-3.974 -3.03,-6.641 0,-4.49 2.34,-8.688 7.03,-12.594 4.56,-3.906 9.54,-5.859 14.93,-5.859"
     class="Note" />
  <path
     id="path7257"
     d="m 893.008,152.844 c 3.13,0 5.77,0.812 7.93,2.437 2.01,1.761 3.01,3.974 3.01,6.641 0,4.49 -2.31,8.687 -6.92,12.594 -4.69,3.906 -9.7,5.859 -15.05,5.859 -3.12,0 -5.76,-0.812 -7.9,-2.437 -2.02,-1.761 -3.03,-3.974 -3.03,-6.641 0,-4.49 2.34,-8.688 7.03,-12.594 4.56,-3.906 9.54,-5.859 14.93,-5.859"
     class="Note" />
  <path
     id="path7259"
     d="m 751.104,285.36 h 28 v 37.5 h -28 v -37.5"
     fill-rule="evenodd"
     fill="#ffffff"
     class="Note" />
  <path
     id="path7261"
     d="m 751.104,285.36 h 28 v 37.5 h -28 v -37.5"
     fill-rule="evenodd"
     fill="#ffffff"
     class="Note" />
  <path
     id="path7263"
     d="m 757.244,315.094 c 0.698,0 1.73,0.406 3.094,1.219 1.365,0.812 2.552,1.218 3.563,1.218 1.656,0 3.054,-0.64 4.195,-1.921 1.141,-1.282 1.711,-2.86 1.711,-4.735 0,-1.166 -0.203,-2.198 -0.609,-3.094 -0.407,-0.895 -0.925,-1.588 -1.555,-2.078 -0.63,-0.489 -1.38,-0.89 -2.25,-1.203 -0.87,-0.312 -1.688,-0.513 -2.453,-0.601 -0.766,-0.089 -1.581,-0.133 -2.446,-0.133 v -0.594 c 1.021,-0.354 1.899,-0.706 2.633,-1.055 0.735,-0.349 1.505,-0.815 2.313,-1.398 0.807,-0.583 1.429,-1.294 1.867,-2.133 0.437,-0.838 0.656,-1.799 0.656,-2.883 0,-1.406 -0.458,-2.56 -1.375,-3.461 -0.917,-0.901 -2.109,-1.351 -3.578,-1.351 -1.406,0 -2.643,0.383 -3.711,1.148 -1.068,0.766 -2.065,1.972 -2.992,3.617 l -0.672,-0.171 c 0.771,-2.136 1.826,-3.886 3.164,-5.25 1.339,-1.365 3.237,-2.047 5.695,-2.047 2.073,0 3.761,0.57 5.063,1.711 1.302,1.14 1.953,2.627 1.953,4.461 0,1.229 -0.315,2.307 -0.945,3.234 -0.631,0.927 -1.727,1.917 -3.289,2.969 1.802,0.781 3.213,1.776 4.234,2.984 1.021,1.208 1.531,2.932 1.531,5.172 0,3.187 -1.177,5.737 -3.531,7.648 -2.354,1.912 -5.318,2.868 -8.891,2.868 -1.552,0 -2.786,-0.232 -3.703,-0.696 -0.916,-0.463 -1.375,-1.086 -1.375,-1.867 0,-0.479 0.157,-0.862 0.469,-1.148 0.313,-0.287 0.724,-0.43 1.234,-0.43"
     class="Note" />
  <path
     id="path7265"
     d="m 768.322,65.344 c 3.125,0 5.766,0.812 7.922,2.437 2.011,1.761 3.016,3.974 3.016,6.641 0,4.49 -2.307,8.687 -6.922,12.594 -4.687,3.906 -9.703,5.859 -15.047,5.859 -3.125,0 -5.76,-0.812 -7.906,-2.437 -2.021,-1.761 -3.031,-3.974 -3.031,-6.641 0,-4.49 2.343,-8.688 7.031,-12.594 4.562,-3.906 9.542,-5.859 14.937,-5.859"
     class="Note" />
  <path
     id="path7267"
     d="m 664.914,285.36 h 28 v 37.5 h -28 v -37.5"
     fill-rule="evenodd"
     fill="#ffffff"
     class="Note" />
  <path
     id="path7269"
     d="m 664.914,285.36 h 28 v 37.5 h -28 v -37.5"
     fill-rule="evenodd"
     fill="#ffffff"
     class="Note" />
  <path
     id="path7271"
     d="m 671.055,315.094 c 0.697,0 1.729,0.406 3.093,1.219 1.365,0.812 2.552,1.218 3.563,1.218 1.656,0 3.055,-0.64 4.195,-1.921 1.141,-1.282 1.711,-2.86 1.711,-4.735 0,-1.166 -0.203,-2.198 -0.609,-3.094 -0.407,-0.895 -0.925,-1.588 -1.555,-2.078 -0.63,-0.489 -1.38,-0.89 -2.25,-1.203 -0.87,-0.312 -1.687,-0.513 -2.453,-0.601 -0.766,-0.089 -1.581,-0.133 -2.445,-0.133 v -0.594 c 1.02,-0.354 1.898,-0.706 2.632,-1.055 0.735,-0.349 1.506,-0.815 2.313,-1.398 0.807,-0.583 1.43,-1.294 1.867,-2.133 0.438,-0.838 0.656,-1.799 0.656,-2.883 0,-1.406 -0.458,-2.56 -1.375,-3.461 -0.916,-0.901 -2.109,-1.351 -3.578,-1.351 -1.406,0 -2.643,0.383 -3.711,1.148 -1.067,0.766 -2.065,1.972 -2.992,3.617 l -0.672,-0.171 c 0.771,-2.136 1.826,-3.886 3.164,-5.25 1.339,-1.365 3.237,-2.047 5.696,-2.047 2.072,0 3.76,0.57 5.062,1.711 1.302,1.14 1.953,2.627 1.953,4.461 0,1.229 -0.315,2.307 -0.945,3.234 -0.63,0.927 -1.727,1.917 -3.289,2.969 1.802,0.781 3.213,1.776 4.234,2.984 1.021,1.208 1.531,2.932 1.531,5.172 0,3.187 -1.177,5.737 -3.531,7.648 -2.354,1.912 -5.318,2.868 -8.89,2.868 -1.553,0 -2.787,-0.232 -3.704,-0.696 -0.916,-0.463 -1.375,-1.086 -1.375,-1.867 0,-0.479 0.157,-0.862 0.469,-1.148 0.313,-0.287 0.724,-0.43 1.235,-0.43"
     class="Note" />
  <path
     id="path7273"
     d="m 682.133,65.344 c 3.125,0 5.765,0.812 7.922,2.437 2.01,1.761 3.015,3.974 3.015,6.641 0,4.49 -2.307,8.687 -6.922,12.594 -4.687,3.906 -9.703,5.859 -15.047,5.859 -3.125,0 -5.76,-0.812 -7.906,-2.437 -2.021,-1.761 -3.031,-3.974 -3.031,-6.641 0,-4.49 2.344,-8.688 7.031,-12.594 4.563,-3.906 9.542,-5.859 14.938,-5.859"
     class="Note" />
  <path
     id="path7275"
     d="m 578.724,285.36 h 28 v 37.5 h -28 v -37.5"
     fill-rule="evenodd"
     fill="#ffffff"
     class="Note" />
  <path
     id="path7277"
     d="m 578.724,285.36 h 28 v 37.5 h -28 v -37.5"
     fill-rule="evenodd"
     fill="#ffffff"
     class="Note" />
  <path
     id="path7279"
     d="m 584.865,315.094 c 0.698,0 1.729,0.406 3.094,1.219 1.364,0.812 2.552,1.218 3.562,1.218 1.656,0 3.055,-0.64 4.195,-1.921 1.141,-1.282 1.711,-2.86 1.711,-4.735 0,-1.166 -0.203,-2.198 -0.609,-3.094 -0.406,-0.895 -0.925,-1.588 -1.555,-2.078 -0.63,-0.489 -1.38,-0.89 -2.25,-1.203 -0.87,-0.312 -1.687,-0.513 -2.453,-0.601 -0.766,-0.089 -1.581,-0.133 -2.445,-0.133 v -0.594 c 1.021,-0.354 1.898,-0.706 2.633,-1.055 0.734,-0.349 1.505,-0.815 2.312,-1.398 0.807,-0.583 1.43,-1.294 1.867,-2.133 0.438,-0.838 0.657,-1.799 0.657,-2.883 0,-1.406 -0.459,-2.56 -1.375,-3.461 -0.917,-0.901 -2.11,-1.351 -3.579,-1.351 -1.406,0 -2.643,0.383 -3.711,1.148 -1.067,0.766 -2.065,1.972 -2.992,3.617 l -0.672,-0.171 c 0.771,-2.136 1.826,-3.886 3.164,-5.25 1.339,-1.365 3.237,-2.047 5.696,-2.047 2.073,0 3.76,0.57 5.062,1.711 1.302,1.14 1.953,2.627 1.953,4.461 0,1.229 -0.315,2.307 -0.945,3.234 -0.63,0.927 -1.726,1.917 -3.289,2.969 1.802,0.781 3.214,1.776 4.234,2.984 1.021,1.208 1.532,2.932 1.532,5.172 0,3.187 -1.177,5.737 -3.532,7.648 -2.354,1.912 -5.317,2.868 -8.89,2.868 -1.552,0 -2.787,-0.232 -3.703,-0.696 -0.917,-0.463 -1.375,-1.086 -1.375,-1.867 0,-0.479 0.156,-0.862 0.468,-1.148 0.313,-0.287 0.724,-0.43 1.235,-0.43"
     class="Note" />
  <path
     id="path7281"
     d="m 595.943,65.344 c 3.125,0 5.766,0.812 7.922,2.437 2.01,1.761 3.015,3.974 3.015,6.641 0,4.49 -2.307,8.687 -6.921,12.594 -4.688,3.906 -9.704,5.859 -15.047,5.859 -3.125,0 -5.761,-0.812 -7.907,-2.437 -2.02,-1.761 -3.031,-3.974 -3.031,-6.641 0,-4.49 2.344,-8.688 7.031,-12.594 4.563,-3.906 9.542,-5.859 14.938,-5.859"
     class="Note" />
  <path
     id="path7283"
     d="m 492.534,285.36 h 28 v 37.5 h -28 v -37.5"
     fill-rule="evenodd"
     fill="#ffffff"
     class="Note" />
  <path
     id="path7285"
     d="m 492.534,285.36 h 28 v 37.5 h -28 v -37.5"
     fill-rule="evenodd"
     fill="#ffffff"
     class="Note" />
  <path
     id="path7287"
     d="m 498.675,315.094 c 0.698,0 1.729,0.406 3.094,1.219 1.364,0.812 2.552,1.218 3.562,1.218 1.656,0 3.055,-0.64 4.196,-1.921 1.14,-1.282 1.71,-2.86 1.71,-4.735 0,-1.166 -0.203,-2.198 -0.609,-3.094 -0.406,-0.895 -0.924,-1.588 -1.555,-2.078 -0.63,-0.489 -1.38,-0.89 -2.25,-1.203 -0.869,-0.312 -1.687,-0.513 -2.453,-0.601 -0.765,-0.089 -1.58,-0.133 -2.445,-0.133 v -0.594 c 1.021,-0.354 1.898,-0.706 2.633,-1.055 0.734,-0.349 1.505,-0.815 2.312,-1.398 0.808,-0.583 1.43,-1.294 1.867,-2.133 0.438,-0.838 0.657,-1.799 0.657,-2.883 0,-1.406 -0.459,-2.56 -1.375,-3.461 -0.917,-0.901 -2.11,-1.351 -3.578,-1.351 -1.407,0 -2.644,0.383 -3.711,1.148 -1.068,0.766 -2.065,1.972 -2.993,3.617 l -0.671,-0.171 c 0.77,-2.136 1.825,-3.886 3.164,-5.25 1.338,-1.365 3.237,-2.047 5.695,-2.047 2.073,0 3.76,0.57 5.062,1.711 1.303,1.14 1.954,2.627 1.954,4.461 0,1.229 -0.316,2.307 -0.946,3.234 -0.63,0.927 -1.726,1.917 -3.289,2.969 1.802,0.781 3.214,1.776 4.235,2.984 1.02,1.208 1.531,2.932 1.531,5.172 0,3.187 -1.177,5.737 -3.531,7.648 -2.355,1.912 -5.318,2.868 -8.891,2.868 -1.552,0 -2.786,-0.232 -3.703,-0.696 -0.917,-0.463 -1.375,-1.086 -1.375,-1.867 0,-0.479 0.156,-0.862 0.469,-1.148 0.312,-0.287 0.724,-0.43 1.234,-0.43"
     class="Note" />
  <path
     id="path7289"
     d="m 509.753,65.344 c 3.125,0 5.766,0.812 7.922,2.437 2.01,1.761 3.016,3.974 3.016,6.641 0,4.49 -2.308,8.687 -6.922,12.594 -4.688,3.906 -9.703,5.859 -15.047,5.859 -3.125,0 -5.761,-0.812 -7.906,-2.437 -2.021,-1.761 -3.032,-3.974 -3.032,-6.641 0,-4.49 2.344,-8.688 7.032,-12.594 4.562,-3.906 9.541,-5.859 14.937,-5.859"
     class="Note" />
  <path
     id="path7291"
     d="m 354.631,322.86 h 28 v 37.5 h -28 v -37.5"
     fill-rule="evenodd"
     fill="#ffffff"
     class="Note" />
  <path
     id="path7293"
     d="m 354.631,322.86 h 28 v 37.5 h -28 v -37.5"
     fill-rule="evenodd"
     fill="#ffffff"
     class="Note" />
  <path
     id="path7295"
     d="m 375.763,352.414 c -1.859,2.88 -4.32,4.321 -7.382,4.321 -3.063,0 -5.524,-1.469 -7.383,-4.407 -1.86,-2.937 -2.789,-6.718 -2.789,-11.343 0,-4.344 0.929,-7.98 2.789,-10.907 1.859,-2.927 4.377,-4.39 7.555,-4.39 2.947,0 5.351,1.44 7.21,4.32 1.86,2.88 2.79,6.633 2.79,11.258 0,4.552 -0.93,8.268 -2.79,11.148 m -7.335,-25.554 c -3.928,0 -5.891,4.843 -5.891,14.531 0,9.448 1.948,14.172 5.844,14.172 3.895,0 5.843,-4.74 5.843,-14.219 0,-4.708 -0.494,-8.3 -1.484,-10.773 -0.99,-2.474 -2.427,-3.711 -4.312,-3.711"
     class="Note" />
  <path
     id="path7297"
     d="m 371.849,127.844 c 3.125,0 5.766,0.812 7.922,2.437 2.011,1.761 3.016,3.974 3.016,6.641 0,4.49 -2.307,8.687 -6.922,12.594 -4.687,3.906 -9.703,5.859 -15.047,5.859 -3.125,0 -5.76,-0.812 -7.906,-2.437 -2.021,-1.761 -3.031,-3.974 -3.031,-6.641 0,-4.49 2.343,-8.688 7.031,-12.594 4.562,-3.906 9.542,-5.859 14.937,-5.859"
     class="Note" />
  <path
     id="path7299"
     d="m 216.727,397.86 h 28 v 37.5 h -28 v -37.5"
     fill-rule="evenodd"
     fill="#ffffff"
     class="Note" />
  <path
     id="path7301"
     d="m 216.727,397.86 h 28 v 37.5 h -28 v -37.5"
     fill-rule="evenodd"
     fill="#ffffff"
     class="Note" />
  <path
     id="path7303"
     d="m 237.86,427.414 c -1.86,2.881 -4.321,4.321 -7.383,4.321 -3.063,0 -5.523,-1.469 -7.383,-4.407 -1.859,-2.937 -2.789,-6.718 -2.789,-11.343 0,-4.344 0.93,-7.98 2.789,-10.907 1.86,-2.927 4.378,-4.39 7.555,-4.39 2.948,0 5.351,1.44 7.211,4.32 1.859,2.88 2.789,6.633 2.789,11.258 0,4.552 -0.93,8.268 -2.789,11.148 m -7.336,-25.554 c -3.927,0 -5.891,4.843 -5.891,14.531 0,9.448 1.948,14.172 5.844,14.172 3.896,0 5.844,-4.74 5.844,-14.219 0,-4.708 -0.495,-8.299 -1.485,-10.773 -0.989,-2.474 -2.427,-3.711 -4.312,-3.711"
     class="Note" />
  <path
     id="path7305"
     d="m 216.727,360.36 h 28 v 37.5 h -28 v -37.5"
     fill-rule="evenodd"
     fill="#ffffff"
     class="Note" />
  <path
     id="path7307"
     d="m 216.727,360.36 h 28 v 37.5 h -28 v -37.5"
     fill-rule="evenodd"
     fill="#ffffff"
     class="Note" />
  <path
     id="path7309"
     d="m 237.86,389.914 c -1.86,2.881 -4.321,4.321 -7.383,4.321 -3.063,0 -5.523,-1.469 -7.383,-4.407 -1.859,-2.937 -2.789,-6.718 -2.789,-11.343 0,-4.344 0.93,-7.98 2.789,-10.907 1.86,-2.927 4.378,-4.39 7.555,-4.39 2.948,0 5.351,1.44 7.211,4.32 1.859,2.88 2.789,6.633 2.789,11.258 0,4.552 -0.93,8.268 -2.789,11.148 m -7.336,-25.554 c -3.927,0 -5.891,4.843 -5.891,14.531 0,9.448 1.948,14.172 5.844,14.172 3.896,0 5.844,-4.74 5.844,-14.219 0,-4.708 -0.495,-8.299 -1.485,-10.773 -0.989,-2.474 -2.427,-3.711 -4.312,-3.711"
     class="Note" />
  <path
     id="path7311"
     d="m 233.946,102.844 c 3.125,0 5.765,0.812 7.922,2.437 2.01,1.761 3.015,3.974 3.015,6.641 0,4.49 -2.307,8.687 -6.922,12.594 -4.687,3.906 -9.703,5.859 -15.047,5.859 -3.125,0 -5.76,-0.812 -7.906,-2.437 -2.021,-1.761 -3.031,-3.974 -3.031,-6.641 0,-4.49 2.344,-8.688 7.031,-12.594 4.563,-3.906 9.542,-5.859 14.938,-5.859"
     class="Note" />
  <path
     id="path7313"
     d="m 233.946,152.844 c 3.125,0 5.765,0.812 7.922,2.437 2.01,1.761 3.015,3.974 3.015,6.641 0,4.49 -2.307,8.687 -6.922,12.594 -4.687,3.906 -9.703,5.859 -15.047,5.859 -3.125,0 -5.76,-0.812 -7.906,-2.437 -2.021,-1.761 -3.031,-3.974 -3.031,-6.641 0,-4.49 2.344,-8.688 7.031,-12.594 4.563,-3.906 9.542,-5.859 14.938,-5.859"
     class="Note" />
  <path
     id="path7315"
     d="m 50.102,313.453 v -3.5 H 25.399 v 3.5 h 10.406 v 28 h 4 v -28 h 10.297 m 1.406,62.907 -11,-31.5 h -5.203 l -11.297,31.5 h 4.297 l 3.297,-9.5 h 12.203 l 3.203,9.5 h 4.5 M 42.711,363.563 H 32.602 l 5.203,-14.407 4.906,14.407 m 6.797,38.593 c 0,-3.796 -1.703,-6.093 -5.703,-7.593 2.797,-1.407 4.297,-3.703 4.297,-6.907 0,-4.593 -3.297,-8 -9.297,-8 H 26.008 v 31.5 h 14.203 c 5.688,0 9.297,-3.796 9.297,-9 m -5.406,-13.89 c 0,3.203 -1.797,5 -6.297,5 h -7.797 v -10.11 h 7.797 c 4.5,0 6.297,1.907 6.297,5.11 m 1.406,13.89 c 0,3.11 -1.797,5.407 -5.609,5.407 h -9.891 v -10.797 h 9.891 c 3.812,0 5.609,2.39 5.609,5.39"
     class="Clef" />
  <path
     id="path7317"
     d="m 61.024,91.016 c 0,0 0.198,0 0.593,0 0.261,-0.063 0.485,-0.094 0.672,-0.094 7.292,0 13.282,2.573 17.969,7.719 4.688,5.073 7.031,10.994 7.031,17.765 0,8.407 -3.479,15.245 -10.437,20.516 -1.823,1.437 -4.203,2.609 -7.141,3.516 0.334,4.229 0.5,7.645 0.5,10.25 0,0.52 -0.067,2.411 -0.203,5.671 -0.26,6.053 -2.344,11.292 -6.25,15.719 -3.771,4.365 -8.458,6.547 -14.062,6.547 -5.271,0 -9.761,-1.854 -13.469,-5.562 -3.719,-3.782 -5.578,-8.339 -5.578,-13.672 0,-2.802 1.078,-5.183 3.234,-7.141 2.208,-1.948 4.776,-2.922 7.703,-2.922 2.604,0 4.787,1.011 6.547,3.031 1.823,1.886 2.734,4.23 2.734,7.032 0,2.531 -0.911,4.708 -2.734,6.531 -1.823,1.823 -4.005,2.734 -6.547,2.734 -1.041,0 -2.047,-0.192 -3.015,-0.578 2.864,4.229 6.671,6.344 11.421,6.344 4.49,0 8.167,-1.823 11.032,-5.469 3,-3.771 4.63,-8.166 4.89,-13.187 0.125,-3.125 0.188,-4.912 0.188,-5.36 0,-3.646 -0.13,-6.64 -0.391,-8.984 -3.25,0.521 -6.146,0.781 -8.687,0.781 -9.052,0 -16.766,-3.583 -23.141,-10.75 -6.25,-7.229 -9.375,-15.823 -9.375,-25.781 0,-2.083 0.193,-4.198 0.578,-6.344 0.396,-1.76 0.886,-3.682 1.469,-5.765 0.323,-1.178 1.203,-3.068 2.641,-5.672 0.52,-0.782 1.106,-1.758 1.757,-2.93 0.651,-1.172 1.107,-1.951 1.368,-2.336 0.645,-1.302 1.911,-3.062 3.796,-5.281 0.521,-0.584 1.06,-1.232 1.618,-1.945 0.557,-0.714 1.031,-1.3 1.422,-1.758 0.39,-0.459 0.682,-0.818 0.875,-1.078 0.192,-0.261 1.658,-1.985 4.398,-5.172 0.646,-0.657 1.279,-1.357 1.898,-2.102 0.62,-0.745 1.125,-1.331 1.516,-1.758 0.391,-0.427 0.685,-0.734 0.883,-0.922 -2.344,-7.75 -3.813,-13.937 -4.406,-18.562 -0.448,-3.708 -0.672,-8.787 -0.672,-15.234 0,-5.667 1.302,-10.974 3.906,-15.922 C 50.086,7.755 53.633,3.557 58.196,0.297 58.456,0.099 58.779,0 59.164,0 c 0.459,0 0.787,0.099 0.985,0.297 3.51,4.229 6.536,9.729 9.078,16.5 2.604,6.771 3.906,12.927 3.906,18.469 0,6.25 -1.495,12.109 -4.484,17.578 -3.386,5.791 -7.75,11.781 -13.094,17.969 1.365,4.291 3.187,11.026 5.469,20.203 m 8.297,45.422 c 3.385,-1.24 6.026,-3.355 7.921,-6.344 2.084,-2.865 3.125,-6.089 3.125,-9.672 0,-4.625 -1.562,-8.729 -4.687,-12.313 -3.198,-3.708 -7.271,-5.791 -12.219,-6.25 2.802,13.74 4.755,25.266 5.86,34.579 M 31.539,113.875 c 0,6.448 2.605,12.115 7.813,17 5.333,4.75 11.323,7.125 17.969,7.125 2.729,0 5.395,-0.198 8,-0.594 -1.042,-9.896 -3.094,-21.744 -6.157,-35.547 -3.708,0.396 -6.666,1.698 -8.875,3.907 -2.156,2.281 -3.234,4.854 -3.234,7.718 0,4.948 2.641,8.954 7.922,12.016 0.448,0.458 0.672,0.948 0.672,1.469 0,0.521 -0.224,1.005 -0.672,1.453 -0.396,0.458 -0.886,0.687 -1.469,0.687 -0.062,0 -0.354,-0.062 -0.875,-0.187 -3.719,-2.021 -6.583,-4.625 -8.594,-7.813 -1.895,-3.395 -2.843,-6.817 -2.843,-10.265 0,-4.49 1.401,-8.557 4.203,-12.203 2.927,-3.646 6.734,-5.99 11.422,-7.032 -1.823,-7.291 -3.318,-12.989 -4.485,-17.093 -1.041,1.177 -2.294,2.593 -3.758,4.25 -1.463,1.656 -2.325,2.651 -2.586,2.984 -2.343,3.052 -4.135,5.427 -5.375,7.125 -2.218,3.063 -3.848,5.698 -4.89,7.906 -1.104,2.479 -2.078,5.183 -2.922,8.11 -0.844,2.802 -1.266,5.797 -1.266,8.984 m 32.61,-99.312 c -4.886,2.406 -8.724,5.854 -11.516,10.343 -2.864,4.625 -4.297,9.604 -4.297,14.938 0,4.687 1.172,11.005 3.516,18.953 4.687,-5.667 8.203,-10.906 10.547,-15.719 2.468,-5.083 3.703,-10.39 3.703,-15.922 0,-4.166 -0.651,-8.364 -1.953,-12.593"
     class="Clef" />
  <path
     id="path7319"
     d="m 135.039,42.789 c 1.948,0 3.607,-0.226 4.977,-0.68 1.37,-0.453 2.247,-0.679 2.633,-0.679 0.458,0 0.818,0.13 1.078,0.39 0.198,0.188 0.328,0.412 0.391,0.672 0,0.136 -0.068,0.334 -0.204,0.594 l -28.406,33.016 h 16.688 V 63.008 c 0,-0.844 0.229,-1.563 0.687,-2.156 0.781,-0.646 1.432,-1.037 1.953,-1.172 0.844,-0.386 1.886,-1.297 3.125,-2.735 1.042,-1.166 2.282,-3.213 3.719,-6.14 0.188,-0.396 0.479,-0.594 0.875,-0.594 0.781,0 1.234,0.458 1.359,1.375 v 24.516 h 7.141 c 0.906,0 1.427,0.484 1.563,1.453 0,0.979 -0.521,1.468 -1.563,1.468 h -7.141 v 0.782 c 0,2.604 0.651,4.817 1.954,6.64 1.5,1.823 3.26,2.735 5.281,2.735 0.781,0 1.172,0.39 1.172,1.172 0,0.781 -0.391,1.171 -1.172,1.171 -1.365,0 -3.578,-0.192 -6.641,-0.578 -2.802,-0.458 -4.984,-0.687 -6.547,-0.687 -1.625,0 -3.807,0.229 -6.547,0.687 -2.927,0.386 -5.104,0.578 -6.531,0.578 -0.781,0 -1.172,-0.39 -1.172,-1.171 0,-0.782 0.391,-1.172 1.172,-1.172 2.011,0 3.766,-0.912 5.266,-2.735 1.364,-1.885 2.047,-4.099 2.047,-6.64 v -0.782 h -16.688 c -1.114,0 -1.896,-0.26 -2.344,-0.781 -0.531,-0.385 -0.796,-0.906 -0.796,-1.562 0,-0.198 0.489,-0.88 1.468,-2.047 1.115,-1.302 2.287,-2.896 3.516,-4.781 1.437,-2.219 2.807,-4.5 4.109,-6.844 1.427,-2.667 2.568,-5.729 3.422,-9.188 0.969,-3.51 1.453,-7.088 1.453,-10.734 0,-1.042 0.459,-1.563 1.375,-1.563 0.198,0 0.62,0.099 1.266,0.297 0.198,0.063 0.607,0.159 1.226,0.289 0.62,0.131 1.123,0.258 1.508,0.383 1.177,0.198 2.287,0.297 3.328,0.297"
     class="TimeSig" />
  <path
     id="path7321"
     d="m 135.039,92.961 c 1.948,0 3.607,-0.227 4.977,-0.68 1.37,-0.453 2.247,-0.679 2.633,-0.679 0.458,0 0.818,0.13 1.078,0.39 0.198,0.188 0.328,0.412 0.391,0.672 0,0.136 -0.068,0.333 -0.204,0.594 l -28.406,33.016 h 16.688 V 113.18 c 0,-0.844 0.229,-1.563 0.687,-2.156 0.781,-0.646 1.432,-1.037 1.953,-1.172 0.844,-0.386 1.886,-1.297 3.125,-2.735 1.042,-1.166 2.282,-3.213 3.719,-6.14 0.188,-0.396 0.479,-0.594 0.875,-0.594 0.781,0 1.234,0.458 1.359,1.375 v 24.516 h 7.141 c 0.906,0 1.427,0.484 1.563,1.453 0,0.979 -0.521,1.468 -1.563,1.468 h -7.141 v 0.782 c 0,2.604 0.651,4.817 1.954,6.64 1.5,1.823 3.26,2.735 5.281,2.735 0.781,0 1.172,0.39 1.172,1.172 0,0.781 -0.391,1.171 -1.172,1.171 -1.365,0 -3.578,-0.192 -6.641,-0.578 -2.802,-0.458 -4.984,-0.687 -6.547,-0.687 -1.625,0 -3.807,0.229 -6.547,0.687 -2.927,0.386 -5.104,0.578 -6.531,0.578 -0.781,0 -1.172,-0.39 -1.172,-1.171 0,-0.782 0.391,-1.172 1.172,-1.172 2.011,0 3.766,-0.912 5.266,-2.735 1.364,-1.885 2.047,-4.099 2.047,-6.64 v -0.782 h -16.688 c -1.114,0 -1.896,-0.26 -2.344,-0.781 -0.531,-0.385 -0.796,-0.906 -0.796,-1.562 0,-0.198 0.489,-0.881 1.468,-2.047 1.115,-1.302 2.287,-2.896 3.516,-4.781 1.437,-2.219 2.807,-4.5 4.109,-6.844 1.427,-2.667 2.568,-5.729 3.422,-9.188 0.969,-3.51 1.453,-7.088 1.453,-10.734 0,-1.042 0.459,-1.563 1.375,-1.563 0.198,0 0.62,0.099 1.266,0.297 0.198,0.063 0.607,0.159 1.226,0.289 0.62,0.131 1.123,0.258 1.508,0.383 1.177,0.198 2.287,0.297 3.328,0.297"
     class="TimeSig" />
  <path
     id="path7323"
     d="m 2449.298,141.609 h 86.79 v 12.5 h -86.79 v -12.5"
     fill-rule="evenodd"
     class="Beam" />
  <path
     id="path7325"
     d="m 1798.708,160.359 h 261.82 v 12.5 h -261.82 v -12.5"
     fill-rule="evenodd"
     class="Beam" />
  <path
     id="path7327"
     d="m 1176.518,16.445 261.82,12.657 V 41.617 L 1176.518,28.96 V 16.445"
     fill-rule="evenodd"
     class="Beam" />
  <path
     id="path7329"
     d="m 487.784,141.609 h 261.82 v 12.5 h -261.82 v -12.5"
     fill-rule="evenodd"
     class="Beam" />
</svg>
