<?xml version="1.0" encoding="UTF-8" standalone="no"?>
<svg
   xmlns:dc="http://purl.org/dc/elements/1.1/"
   xmlns:cc="http://creativecommons.org/ns#"
   xmlns:rdf="http://www.w3.org/1999/02/22-rdf-syntax-ns#"
   xmlns:svg="http://www.w3.org/2000/svg"
   xmlns="http://www.w3.org/2000/svg"
   xmlns:sodipodi="http://sodipodi.sourceforge.net/DTD/sodipodi-0.dtd"
   xmlns:inkscape="http://www.inkscape.org/namespaces/inkscape"
   inkscape:version="1.0 (4035a4fb49, 2020-05-01)"
   sodipodi:docname="exercise4.svg"
   id="svg6452"
   version="1.2"
   viewBox="0 0 2776.5381 430.79999"
   height="430.79999"
   width="2776.5381">
  <metadata
     id="metadata6458">
    <rdf:RDF>
      <cc:Work
         rdf:about="">
        <dc:format>image/svg+xml</dc:format>
        <dc:type
           rdf:resource="http://purl.org/dc/dcmitype/StillImage" />
        <dc:title>exercise-collection1 (1)</dc:title>
      </cc:Work>
    </rdf:RDF>
  </metadata>
  <defs
     id="defs6456" />
  <sodipodi:namedview
     inkscape:current-layer="svg6452"
     inkscape:window-maximized="1"
     inkscape:window-y="-8"
     inkscape:window-x="-8"
     inkscape:cy="-119.43"
     inkscape:cx="1388.268"
     inkscape:zoom="0.33838384"
     showgrid="false"
     id="namedview6454"
     inkscape:window-height="837"
     inkscape:window-width="1600"
     inkscape:pageshadow="2"
     inkscape:pageopacity="0"
     guidetolerance="10"
     gridtolerance="10"
     objecttolerance="10"
     borderopacity="1"
     bordercolor="#666666"
     pagecolor="#ffffff" />
  <title
     id="title5396">exercise-collection1 (1)</title>
  <desc
     id="desc5398">Generated by MuseScore 3.0.1</desc>
  <polyline
     transform="translate(-141.732,-2099.43)"
     id="polyline5454"
     points="141.732,2154.23 2918.27,2154.23"
     stroke-linejoin="bevel"
     stroke-width="2"
     stroke="#000000"
     fill="none"
     class="StaffLines" />
  <polyline
     transform="translate(-141.732,-2099.43)"
     id="polyline5456"
     points="141.732,2179.23 2918.27,2179.23"
     stroke-linejoin="bevel"
     stroke-width="2"
     stroke="#000000"
     fill="none"
     class="StaffLines" />
  <polyline
     transform="translate(-141.732,-2099.43)"
     id="polyline5458"
     points="141.732,2204.23 2918.27,2204.23"
     stroke-linejoin="bevel"
     stroke-width="2"
     stroke="#000000"
     fill="none"
     class="StaffLines" />
  <polyline
     transform="translate(-141.732,-2099.43)"
     id="polyline5460"
     points="141.732,2229.23 2918.27,2229.23"
     stroke-linejoin="bevel"
     stroke-width="2"
     stroke="#000000"
     fill="none"
     class="StaffLines" />
  <polyline
     transform="translate(-141.732,-2099.43)"
     id="polyline5462"
     points="141.732,2254.23 2918.27,2254.23"
     stroke-linejoin="bevel"
     stroke-width="2"
     stroke="#000000"
     fill="none"
     class="StaffLines" />
  <polyline
     transform="translate(-141.732,-2099.43)"
     id="polyline5464"
     points="141.732,2416.73 2918.27,2416.73"
     stroke-linejoin="bevel"
     stroke-width="2"
     stroke="#000000"
     fill="none"
     class="StaffLines" />
  <polyline
     transform="translate(-141.732,-2099.43)"
     id="polyline5466"
     points="141.732,2454.23 2918.27,2454.23"
     stroke-linejoin="bevel"
     stroke-width="2"
     stroke="#000000"
     fill="none"
     class="StaffLines" />
  <polyline
     transform="translate(-141.732,-2099.43)"
     id="polyline5468"
     points="141.732,2491.73 2918.27,2491.73"
     stroke-linejoin="bevel"
     stroke-width="2"
     stroke="#000000"
     fill="none"
     class="StaffLines" />
  <polyline
     transform="translate(-141.732,-2099.43)"
     id="polyline5470"
     points="141.732,2529.23 2918.27,2529.23"
     stroke-linejoin="bevel"
     stroke-width="2"
     stroke="#000000"
     fill="none"
     class="StaffLines" />
  <polyline
     transform="translate(-141.732,-2099.43)"
     id="polyline5510"
     points="2916.27,2415.73 2916.27,2530.23"
     stroke-linejoin="bevel"
     stroke-width="4"
     stroke="#000000"
     fill="none"
     class="BarLine" />
  <polyline
     transform="translate(-141.732,-2099.43)"
     id="polyline5512"
     points="2916.27,2153.23 2916.27,2255.23"
     stroke-linejoin="bevel"
     stroke-width="4"
     stroke="#000000"
     fill="none"
     class="BarLine" />
  <polyline
     transform="translate(-141.732,-2099.43)"
     id="polyline5514"
     points="2306.94,2415.73 2306.94,2530.23"
     stroke-linejoin="bevel"
     stroke-width="4"
     stroke="#000000"
     fill="none"
     class="BarLine" />
  <polyline
     transform="translate(-141.732,-2099.43)"
     id="polyline5516"
     points="2306.94,2153.23 2306.94,2255.23"
     stroke-linejoin="bevel"
     stroke-width="4"
     stroke="#000000"
     fill="none"
     class="BarLine" />
  <polyline
     transform="translate(-141.732,-2099.43)"
     id="polyline5518"
     points="1645.11,2415.73 1645.11,2530.23"
     stroke-linejoin="bevel"
     stroke-width="4"
     stroke="#000000"
     fill="none"
     class="BarLine" />
  <polyline
     transform="translate(-141.732,-2099.43)"
     id="polyline5520"
     points="1645.11,2153.23 1645.11,2255.23"
     stroke-linejoin="bevel"
     stroke-width="4"
     stroke="#000000"
     fill="none"
     class="BarLine" />
  <polyline
     transform="translate(-141.732,-2099.43)"
     id="polyline5522"
     points="983.282,2415.73 983.282,2530.23"
     stroke-linejoin="bevel"
     stroke-width="4"
     stroke="#000000"
     fill="none"
     class="BarLine" />
  <polyline
     transform="translate(-141.732,-2099.43)"
     id="polyline5524"
     points="983.282,2153.23 983.282,2255.23"
     stroke-linejoin="bevel"
     stroke-width="4"
     stroke="#000000"
     fill="none"
     class="BarLine" />
  <polyline
     transform="translate(-141.732,-2099.43)"
     id="polyline5526"
     points="143.732,2415.73 143.732,2530.23"
     stroke-linejoin="bevel"
     stroke-width="4"
     stroke="#000000"
     fill="none"
     class="BarLine" />
  <polyline
     transform="translate(-141.732,-2099.43)"
     id="polyline5528"
     points="143.732,2153.23 143.732,2416.73"
     stroke-linejoin="bevel"
     stroke-width="4"
     stroke="#000000"
     fill="none"
     class="BarLine" />
  <polyline
     transform="translate(-141.732,-2099.43)"
     id="polyline5610"
     points="2648.96,2279.23 2698.68,2279.23"
     stroke-linejoin="bevel"
     stroke-linecap="square"
     stroke-width="4"
     stroke="#000000"
     fill="none"
     class="LedgerLine" />
  <polyline
     transform="translate(-141.732,-2099.43)"
     id="polyline5612"
     points="2139.81,2279.23 2187.72,2279.23"
     stroke-linejoin="bevel"
     stroke-linecap="square"
     stroke-width="4"
     stroke="#000000"
     fill="none"
     class="LedgerLine" />
  <polyline
     transform="translate(-141.732,-2099.43)"
     id="polyline5614"
     points="1824.54,2279.23 1872.45,2279.23"
     stroke-linejoin="bevel"
     stroke-linecap="square"
     stroke-width="4"
     stroke="#000000"
     fill="none"
     class="LedgerLine" />
  <polyline
     transform="translate(-141.732,-2099.43)"
     id="polyline5616"
     points="1477.98,2279.23 1525.89,2279.23"
     stroke-linejoin="bevel"
     stroke-linecap="square"
     stroke-width="4"
     stroke="#000000"
     fill="none"
     class="LedgerLine" />
  <polyline
     transform="translate(-141.732,-2099.43)"
     id="polyline5618"
     points="1162.71,2279.23 1210.62,2279.23"
     stroke-linejoin="bevel"
     stroke-linecap="square"
     stroke-width="4"
     stroke="#000000"
     fill="none"
     class="LedgerLine" />
  <polyline
     transform="translate(-141.732,-2099.43)"
     id="polyline5620"
     points="814.673,2279.23 862.588,2279.23"
     stroke-linejoin="bevel"
     stroke-linecap="square"
     stroke-width="4"
     stroke="#000000"
     fill="none"
     class="LedgerLine" />
  <polyline
     transform="translate(-141.732,-2099.43)"
     id="polyline5622"
     points="496.457,2279.23 544.371,2279.23"
     stroke-linejoin="bevel"
     stroke-linecap="square"
     stroke-width="4"
     stroke="#000000"
     fill="none"
     class="LedgerLine" />
  <polyline
     transform="translate(-141.732,-2099.43)"
     id="polyline5670"
     points="2689.55,2275.39 2689.55,2116.73"
     stroke-linejoin="bevel"
     stroke-linecap="round"
     stroke-width="3.25"
     stroke="#000000"
     fill="none"
     class="Stem" />
  <polyline
     transform="translate(-141.732,-2099.43)"
     id="polyline5672"
     points="2528.09,2249.54 2528.09,2166.73"
     stroke-linejoin="bevel"
     stroke-linecap="round"
     stroke-width="3.25"
     stroke="#000000"
     fill="none"
     class="Stem" />
  <polyline
     transform="translate(-141.732,-2099.43)"
     id="polyline5674"
     points="2367.52,2262.04 2367.52,2179.23"
     stroke-linejoin="bevel"
     stroke-linecap="round"
     stroke-width="3.25"
     stroke="#000000"
     fill="none"
     class="Stem" />
  <polyline
     transform="translate(-141.732,-2099.43)"
     id="polyline5676"
     points="2178.59,2274.54 2178.59,2191.73"
     stroke-linejoin="bevel"
     stroke-linecap="round"
     stroke-width="3.25"
     stroke="#000000"
     fill="none"
     class="Stem" />
  <polyline
     transform="translate(-141.732,-2099.43)"
     id="polyline5678"
     points="2020.96,2249.54 2020.96,2166.73"
     stroke-linejoin="bevel"
     stroke-linecap="round"
     stroke-width="3.25"
     stroke="#000000"
     fill="none"
     class="Stem" />
  <polyline
     transform="translate(-141.732,-2099.43)"
     id="polyline5680"
     points="1863.33,2274.54 1863.33,2191.73"
     stroke-linejoin="bevel"
     stroke-linecap="round"
     stroke-width="3.25"
     stroke="#000000"
     fill="none"
     class="Stem" />
  <polyline
     transform="translate(-141.732,-2099.43)"
     id="polyline5682"
     points="1705.69,2237.04 1705.69,2154.23"
     stroke-linejoin="bevel"
     stroke-linecap="round"
     stroke-width="3.25"
     stroke="#000000"
     fill="none"
     class="Stem" />
  <polyline
     transform="translate(-141.732,-2099.43)"
     id="polyline5684"
     points="1516.77,2274.54 1516.77,2191.73"
     stroke-linejoin="bevel"
     stroke-linecap="round"
     stroke-width="3.25"
     stroke="#000000"
     fill="none"
     class="Stem" />
  <polyline
     transform="translate(-141.732,-2099.43)"
     id="polyline5686"
     points="1359.13,2224.54 1359.13,2144.86"
     stroke-linejoin="bevel"
     stroke-linecap="round"
     stroke-width="3.25"
     stroke="#000000"
     fill="none"
     class="Stem" />
  <polyline
     transform="translate(-141.732,-2099.43)"
     id="polyline5688"
     points="1201.5,2274.54 1201.5,2191.73"
     stroke-linejoin="bevel"
     stroke-linecap="round"
     stroke-width="3.25"
     stroke="#000000"
     fill="none"
     class="Stem" />
  <polyline
     transform="translate(-141.732,-2099.43)"
     id="polyline5690"
     points="1043.86,2212.04 1043.86,2135.48"
     stroke-linejoin="bevel"
     stroke-linecap="round"
     stroke-width="3.25"
     stroke="#000000"
     fill="none"
     class="Stem" />
  <polyline
     transform="translate(-141.732,-2099.43)"
     id="polyline5692"
     points="853.463,2274.54 853.463,2191.73"
     stroke-linejoin="bevel"
     stroke-linecap="round"
     stroke-width="3.25"
     stroke="#000000"
     fill="none"
     class="Stem" />
  <polyline
     transform="translate(-141.732,-2099.43)"
     id="polyline5694"
     points="664.69,2208.93 664.69,2282.36"
     stroke-linejoin="bevel"
     stroke-linecap="round"
     stroke-width="3.25"
     stroke="#000000"
     fill="none"
     class="Stem" />
  <polyline
     transform="translate(-141.732,-2099.43)"
     id="polyline5696"
     points="535.246,2274.54 535.246,2191.73"
     stroke-linejoin="bevel"
     stroke-linecap="round"
     stroke-width="3.25"
     stroke="#000000"
     fill="none"
     class="Stem" />
  <polyline
     transform="translate(-141.732,-2099.43)"
     id="polyline5698"
     points="346.474,2196.43 346.474,2272.98"
     stroke-linejoin="bevel"
     stroke-linecap="round"
     stroke-width="3.25"
     stroke="#000000"
     fill="none"
     class="Stem" />
  <path
     id="path5922"
     d="m 2521.288,298.55 h 28 v 37.5 h -28 v -37.5"
     fill-rule="evenodd"
     fill="#ffffff"
     class="Note" />
  <path
     id="path5924"
     d="m 2527.428,328.29 c 0.69,0 1.73,0.4 3.09,1.22 1.36,0.81 2.55,1.22 3.56,1.22 1.66,0 3.06,-0.65 4.2,-1.93 1.14,-1.28 1.71,-2.86 1.71,-4.73 0,-1.17 -0.2,-2.2 -0.61,-3.09 -0.41,-0.9 -0.92,-1.59 -1.56,-2.08 -0.63,-0.49 -1.38,-0.89 -2.25,-1.21 -0.86,-0.31 -1.68,-0.51 -2.45,-0.6 -0.76,-0.09 -1.58,-0.13 -2.44,-0.13 v -0.59 c 1.02,-0.36 1.89,-0.71 2.63,-1.06 0.73,-0.35 1.5,-0.81 2.31,-1.4 0.81,-0.58 1.43,-1.29 1.87,-2.13 0.44,-0.84 0.66,-1.8 0.66,-2.88 0,-1.41 -0.46,-2.56 -1.38,-3.46 -0.92,-0.9 -2.11,-1.36 -3.58,-1.36 -1.4,0 -2.64,0.39 -3.71,1.15 -1.07,0.77 -2.06,1.97 -2.99,3.62 l -0.67,-0.17 c 0.77,-2.14 1.82,-3.89 3.16,-5.25 1.34,-1.37 3.24,-2.05 5.7,-2.05 2.07,0 3.76,0.57 5.06,1.71 1.3,1.14 1.95,2.63 1.95,4.46 0,1.23 -0.31,2.31 -0.94,3.24 -0.63,0.93 -1.73,1.91 -3.29,2.97 1.8,0.78 3.21,1.77 4.23,2.98 1.02,1.21 1.53,2.93 1.53,5.17 0,3.19 -1.17,5.74 -3.53,7.65 -2.35,1.91 -5.32,2.87 -8.89,2.87 -1.55,0 -2.79,-0.23 -3.7,-0.7 -0.92,-0.46 -1.38,-1.08 -1.38,-1.86 0,-0.48 0.16,-0.87 0.47,-1.15 0.31,-0.29 0.73,-0.43 1.24,-0.43"
     class="Note" />
  <path
     id="path5926"
     d="m 2521.288,336.05 h 28 v 37.5 h -28 v -37.5"
     fill-rule="evenodd"
     fill="#ffffff"
     class="Note" />
  <path
     id="path5928"
     d="m 2542.418,365.61 c -1.86,2.88 -4.32,4.32 -7.38,4.32 -3.07,0 -5.53,-1.47 -7.39,-4.41 -1.86,-2.94 -2.79,-6.72 -2.79,-11.34 0,-4.35 0.93,-7.98 2.79,-10.91 1.86,-2.92 4.38,-4.39 7.56,-4.39 2.95,0 5.35,1.44 7.21,4.32 1.86,2.88 2.79,6.63 2.79,11.26 0,4.55 -0.93,8.27 -2.79,11.15 m -7.34,-25.56 c -3.92,0 -5.89,4.85 -5.89,14.53 0,9.45 1.95,14.18 5.85,14.18 3.89,0 5.84,-4.74 5.84,-14.22 0,-4.71 -0.5,-8.3 -1.48,-10.78 -0.99,-2.47 -2.43,-3.71 -4.32,-3.71"
     class="Note" />
  <path
     id="path5930"
     d="m 2521.288,373.55 h 28 v 37.5 h -28 v -37.5"
     fill-rule="evenodd"
     fill="#ffffff"
     class="Note" />
  <path
     id="path5932"
     d="m 2542.418,403.11 c -1.86,2.88 -4.32,4.32 -7.38,4.32 -3.07,0 -5.53,-1.47 -7.39,-4.41 -1.86,-2.93 -2.79,-6.72 -2.79,-11.34 0,-4.34 0.93,-7.98 2.79,-10.91 1.86,-2.92 4.38,-4.39 7.56,-4.39 2.95,0 5.35,1.44 7.21,4.32 1.86,2.88 2.79,6.64 2.79,11.26 0,4.55 -0.93,8.27 -2.79,11.15 m -7.34,-25.56 c -3.92,0 -5.89,4.85 -5.89,14.54 0,9.44 1.95,14.17 5.85,14.17 3.89,0 5.84,-4.74 5.84,-14.22 0,-4.71 -0.5,-8.3 -1.48,-10.78 -0.99,-2.47 -2.43,-3.71 -4.32,-3.71"
     class="Note" />
  <path
     id="path5934"
     d="m 2546.278,85.76 c 0,-1.11 -0.42,-2.05 -1.27,-2.83 -0.85,-0.85 -1.83,-1.27 -2.94,-1.27 -1.94,0 -5.88,1.96 -11.81,5.86 -6.12,3.97 -9.87,6.8 -11.23,8.5 -0.72,0.91 -1.08,1.85 -1.08,2.83 0,1.1 0.43,2.05 1.28,2.83 0.78,0.84 1.76,1.26 2.92,1.26 1.89,0 5.86,-1.95 11.92,-5.86 5.99,-3.9 9.7,-6.73 11.13,-8.5 0.72,-0.84 1.08,-1.78 1.08,-2.82 m -5.17,-7.22 c 5.59,0 8.39,2.4 8.39,7.22 0,2.34 -0.69,5.07 -2.05,8.2 -1.36,3.06 -3.19,5.41 -5.47,7.03 -5.01,3.39 -11.29,5.08 -18.84,5.08 -5.61,0 -8.41,-2.41 -8.41,-7.22 0,-2.15 0.68,-4.85 2.05,-8.11 1.3,-3.12 3.12,-5.5 5.47,-7.12 5.02,-3.39 11.3,-5.08 18.86,-5.08"
     class="Note" />
  <path
     id="path5936"
     d="m 2546.278,148.26 c 0,-1.11 -0.42,-2.05 -1.27,-2.83 -0.85,-0.85 -1.83,-1.27 -2.94,-1.27 -1.94,0 -5.88,1.96 -11.81,5.86 -6.12,3.97 -9.87,6.8 -11.23,8.5 -0.72,0.91 -1.08,1.85 -1.08,2.83 0,1.1 0.43,2.05 1.28,2.83 0.78,0.84 1.76,1.26 2.92,1.26 1.89,0 5.86,-1.95 11.92,-5.86 5.99,-3.9 9.7,-6.73 11.13,-8.5 0.72,-0.84 1.08,-1.78 1.08,-2.82 m -5.17,-7.22 c 5.59,0 8.39,2.4 8.39,7.22 0,2.34 -0.69,5.07 -2.05,8.2 -1.36,3.06 -3.19,5.41 -5.47,7.03 -5.01,3.39 -11.29,5.08 -18.84,5.08 -5.61,0 -8.41,-2.41 -8.41,-7.22 0,-2.15 0.68,-4.85 2.05,-8.11 1.3,-3.12 3.12,-5.5 5.47,-7.12 5.02,-3.39 11.3,-5.08 18.86,-5.08"
     class="Note" />
  <path
     id="path5938"
     d="m 2546.278,173.26 c 0,-1.11 -0.42,-2.05 -1.27,-2.83 -0.85,-0.85 -1.83,-1.27 -2.94,-1.27 -1.94,0 -5.88,1.96 -11.81,5.86 -6.12,3.97 -9.87,6.8 -11.23,8.5 -0.72,0.91 -1.08,1.85 -1.08,2.83 0,1.1 0.43,2.05 1.28,2.83 0.78,0.84 1.76,1.26 2.92,1.26 1.89,0 5.86,-1.95 11.92,-5.86 5.99,-3.9 9.7,-6.73 11.13,-8.5 0.72,-0.84 1.08,-1.78 1.08,-2.82 m -5.17,-7.22 c 5.59,0 8.39,2.4 8.39,7.22 0,2.34 -0.69,5.07 -2.05,8.2 -1.36,3.06 -3.19,5.41 -5.47,7.03 -5.01,3.39 -11.29,5.08 -18.84,5.08 -5.61,0 -8.41,-2.41 -8.41,-7.22 0,-2.15 0.68,-4.85 2.05,-8.11 1.3,-3.12 3.12,-5.5 5.47,-7.12 5.02,-3.39 11.3,-5.08 18.86,-5.08"
     class="Note" />
  <path
     id="path5940"
     d="m 2359.818,336.05 h 28 v 37.5 h -28 v -37.5"
     fill-rule="evenodd"
     fill="#ffffff"
     class="Note" />
  <path
     id="path5942"
     d="m 2380.948,365.61 c -1.86,2.88 -4.32,4.32 -7.38,4.32 -3.06,0 -5.53,-1.47 -7.38,-4.41 -1.86,-2.94 -2.79,-6.72 -2.79,-11.34 0,-4.35 0.93,-7.98 2.79,-10.91 1.85,-2.92 4.37,-4.39 7.55,-4.39 2.95,0 5.35,1.44 7.21,4.32 1.86,2.88 2.79,6.63 2.79,11.26 0,4.55 -0.93,8.27 -2.79,11.15 m -7.34,-25.56 c -3.92,0 -5.89,4.85 -5.89,14.53 0,9.45 1.95,14.18 5.85,14.18 3.89,0 5.84,-4.74 5.84,-14.22 0,-4.71 -0.49,-8.3 -1.48,-10.78 -0.99,-2.47 -2.43,-3.71 -4.32,-3.71"
     class="Note" />
  <path
     id="path5944"
     d="m 2377.038,141.04 c 3.12,0 5.76,0.81 7.92,2.44 2.01,1.76 3.01,3.97 3.01,6.64 0,4.49 -2.3,8.68 -6.92,12.59 -4.69,3.91 -9.7,5.86 -15.04,5.86 -3.13,0 -5.76,-0.81 -7.91,-2.44 -2.02,-1.76 -3.03,-3.97 -3.03,-6.64 0,-4.49 2.34,-8.69 7.03,-12.59 4.56,-3.91 9.54,-5.86 14.94,-5.86"
     class="Note" />
  <path
     id="path5946"
     d="m 2199.248,373.55 h 28 v 37.5 h -28 v -37.5"
     fill-rule="evenodd"
     fill="#ffffff"
     class="Note" />
  <path
     id="path5948"
     d="m 2203.138,385.34 c 0.16,-0.69 0.31,-1.29 0.46,-1.79 0.14,-0.51 0.46,-1.25 0.96,-2.21 0.5,-0.97 1.06,-1.78 1.68,-2.42 0.61,-0.64 1.47,-1.22 2.56,-1.73 1.09,-0.51 2.33,-0.76 3.7,-0.76 2.35,0 4.32,0.76 5.92,2.28 1.61,1.52 2.41,3.4 2.41,5.64 0,3.39 -1.92,7.09 -5.77,11.11 l -7.54,7.92 h 10.75 c 1.02,0 1.78,-0.17 2.27,-0.51 0.5,-0.35 1.17,-1.17 2.01,-2.46 l 0.58,0.22 -2.47,6.17 h -17.56 v -0.54 l 8.01,-8.5 c 3.9,-4.14 5.85,-8.04 5.85,-11.71 0,-1.88 -0.59,-3.41 -1.75,-4.58 -1.17,-1.17 -2.7,-1.76 -4.6,-1.76 -1.55,0 -2.8,0.43 -3.75,1.28 -0.95,0.86 -1.87,2.38 -2.76,4.58 l -0.96,-0.23"
     class="Note" />
  <path
     id="path5950"
     d="m 2216.468,153.54 c 3.13,0 5.77,0.81 7.92,2.44 2.01,1.76 3.02,3.97 3.02,6.64 0,4.49 -2.31,8.68 -6.92,12.59 -4.69,3.91 -9.71,5.86 -15.05,5.86 -3.13,0 -5.76,-0.81 -7.91,-2.44 -2.02,-1.76 -3.03,-3.97 -3.03,-6.64 0,-4.49 2.35,-8.69 7.03,-12.59 4.57,-3.91 9.55,-5.86 14.94,-5.86"
     class="Note" />
  <path
     id="path5952"
     d="m 2010.328,373.55 h 28 v 37.5 h -28 v -37.5"
     fill-rule="evenodd"
     fill="#ffffff"
     class="Note" />
  <path
     id="path5954"
     d="m 2031.458,403.11 c -1.86,2.88 -4.32,4.32 -7.38,4.32 -3.07,0 -5.53,-1.47 -7.39,-4.41 -1.86,-2.93 -2.79,-6.72 -2.79,-11.34 0,-4.34 0.93,-7.98 2.79,-10.91 1.86,-2.92 4.38,-4.39 7.56,-4.39 2.95,0 5.35,1.44 7.21,4.32 1.86,2.88 2.79,6.64 2.79,11.26 0,4.55 -0.93,8.27 -2.79,11.15 m -7.34,-25.56 c -3.92,0 -5.89,4.85 -5.89,14.54 0,9.44 1.95,14.17 5.85,14.17 3.89,0 5.84,-4.74 5.84,-14.22 0,-4.71 -0.5,-8.3 -1.49,-10.78 -0.98,-2.47 -2.42,-3.71 -4.31,-3.71"
     class="Note" />
  <path
     id="path5956"
     d="m 2027.538,166.04 c 3.13,0 5.77,0.81 7.93,2.44 2.01,1.76 3.01,3.97 3.01,6.64 0,4.49 -2.31,8.68 -6.92,12.59 -4.69,3.91 -9.7,5.86 -15.05,5.86 -3.12,0 -5.76,-0.81 -7.9,-2.44 -2.02,-1.76 -3.03,-3.97 -3.03,-6.64 0,-4.49 2.34,-8.69 7.03,-12.59 4.56,-3.91 9.54,-5.86 14.93,-5.86"
     class="Note" />
  <path
     id="path5958"
     d="m 1852.688,336.05 h 28 v 37.5 h -28 v -37.5"
     fill-rule="evenodd"
     fill="#ffffff"
     class="Note" />
  <path
     id="path5960"
     d="m 1873.818,365.61 c -1.86,2.88 -4.32,4.32 -7.38,4.32 -3.06,0 -5.52,-1.47 -7.38,-4.41 -1.86,-2.94 -2.79,-6.72 -2.79,-11.34 0,-4.35 0.93,-7.98 2.79,-10.91 1.86,-2.92 4.38,-4.39 7.55,-4.39 2.95,0 5.35,1.44 7.21,4.32 1.86,2.88 2.79,6.63 2.79,11.26 0,4.55 -0.93,8.27 -2.79,11.15 m -7.33,-25.56 c -3.93,0 -5.89,4.85 -5.89,14.53 0,9.45 1.95,14.18 5.84,14.18 3.9,0 5.85,-4.74 5.85,-14.22 0,-4.71 -0.5,-8.3 -1.49,-10.78 -0.99,-2.47 -2.43,-3.71 -4.31,-3.71"
     class="Note" />
  <path
     id="path5962"
     d="m 1869.908,141.04 c 3.13,0 5.77,0.81 7.92,2.44 2.01,1.76 3.02,3.97 3.02,6.64 0,4.49 -2.31,8.68 -6.92,12.59 -4.69,3.91 -9.71,5.86 -15.05,5.86 -3.13,0 -5.76,-0.81 -7.91,-2.44 -2.02,-1.76 -3.03,-3.97 -3.03,-6.64 0,-4.49 2.35,-8.69 7.03,-12.59 4.57,-3.91 9.54,-5.86 14.94,-5.86"
     class="Note" />
  <path
     id="path5964"
     d="m 1695.058,373.55 h 28 v 37.5 h -28 v -37.5"
     fill-rule="evenodd"
     fill="#ffffff"
     class="Note" />
  <path
     id="path5966"
     d="m 1716.188,403.11 c -1.86,2.88 -4.32,4.32 -7.38,4.32 -3.06,0 -5.53,-1.47 -7.39,-4.41 -1.85,-2.93 -2.78,-6.72 -2.78,-11.34 0,-4.34 0.93,-7.98 2.78,-10.91 1.86,-2.92 4.38,-4.39 7.56,-4.39 2.95,0 5.35,1.44 7.21,4.32 1.86,2.88 2.79,6.64 2.79,11.26 0,4.55 -0.93,8.27 -2.79,11.15 m -7.34,-25.56 c -3.92,0 -5.89,4.85 -5.89,14.54 0,9.44 1.95,14.17 5.85,14.17 3.89,0 5.84,-4.74 5.84,-14.22 0,-4.71 -0.49,-8.3 -1.48,-10.78 -0.99,-2.47 -2.43,-3.71 -4.32,-3.71"
     class="Note" />
  <path
     id="path5968"
     d="m 1712.278,166.04 c 3.12,0 5.76,0.81 7.92,2.44 2.01,1.76 3.01,3.97 3.01,6.64 0,4.49 -2.3,8.68 -6.92,12.59 -4.69,3.91 -9.7,5.86 -15.04,5.86 -3.13,0 -5.77,-0.81 -7.91,-2.44 -2.02,-1.76 -3.03,-3.97 -3.03,-6.64 0,-4.49 2.34,-8.69 7.03,-12.59 4.56,-3.91 9.54,-5.86 14.94,-5.86"
     class="Note" />
  <path
     id="path5970"
     d="m 1537.418,336.05 h 28 v 37.5 h -28 v -37.5"
     fill-rule="evenodd"
     fill="#ffffff"
     class="Note" />
  <path
     id="path5972"
     d="m 1548.158,342.62 c -0.54,0 -1.62,0.33 -3.24,1 v -0.64 l 8.1,-4.1 0.36,0.1 v 27 c 0,1.08 0.27,1.78 0.81,2.11 0.54,0.33 1.7,0.51 3.47,0.54 v 0.67 h -12.42 v -0.67 c 1.67,-0.06 2.8,-0.31 3.39,-0.74 0.58,-0.43 0.87,-1.36 0.87,-2.77 v -20.38 c 0,-1.42 -0.45,-2.12 -1.34,-2.12"
     class="Note" />
  <path
     id="path5974"
     d="m 1554.638,128.54 c 3.13,0 5.77,0.81 7.92,2.44 2.01,1.76 3.02,3.97 3.02,6.64 0,4.49 -2.31,8.68 -6.92,12.59 -4.69,3.91 -9.71,5.86 -15.05,5.86 -3.12,0 -5.76,-0.81 -7.91,-2.44 -2.02,-1.76 -3.03,-3.97 -3.03,-6.64 0,-4.49 2.35,-8.69 7.03,-12.59 4.57,-3.91 9.55,-5.86 14.94,-5.86"
     class="Note" />
  <path
     id="path5976"
     d="m 1348.498,373.55 h 28 v 37.5 h -28 v -37.5"
     fill-rule="evenodd"
     fill="#ffffff"
     class="Note" />
  <path
     id="path5978"
     d="m 1369.628,403.11 c -1.86,2.88 -4.32,4.32 -7.38,4.32 -3.07,0 -5.53,-1.47 -7.39,-4.41 -1.86,-2.93 -2.79,-6.72 -2.79,-11.34 0,-4.34 0.93,-7.98 2.79,-10.91 1.86,-2.92 4.38,-4.39 7.56,-4.39 2.95,0 5.35,1.44 7.21,4.32 1.86,2.88 2.79,6.64 2.79,11.26 0,4.55 -0.93,8.27 -2.79,11.15 m -7.34,-25.56 c -3.92,0 -5.89,4.85 -5.89,14.54 0,9.44 1.95,14.17 5.85,14.17 3.89,0 5.84,-4.74 5.84,-14.22 0,-4.71 -0.49,-8.3 -1.48,-10.78 -0.99,-2.47 -2.43,-3.71 -4.32,-3.71"
     class="Note" />
  <path
     id="path5980"
     d="m 1365.718,166.04 c 3.12,0 5.76,0.81 7.92,2.44 2.01,1.76 3.01,3.97 3.01,6.64 0,4.49 -2.3,8.68 -6.92,12.59 -4.69,3.91 -9.7,5.86 -15.05,5.86 -3.12,0 -5.76,-0.81 -7.9,-2.44 -2.02,-1.76 -3.03,-3.97 -3.03,-6.64 0,-4.49 2.34,-8.69 7.03,-12.59 4.56,-3.91 9.54,-5.86 14.94,-5.86"
     class="Note" />
  <path
     id="path5982"
     d="m 1190.858,336.05 h 28 v 37.5 h -28 v -37.5"
     fill-rule="evenodd"
     fill="#ffffff"
     class="Note" />
  <path
     id="path5984"
     d="m 1196.998,365.79 c 0.7,0 1.73,0.4 3.1,1.22 1.36,0.81 2.55,1.22 3.56,1.22 1.66,0 3.05,-0.65 4.19,-1.93 1.15,-1.28 1.72,-2.86 1.72,-4.73 0,-1.17 -0.21,-2.2 -0.61,-3.09 -0.41,-0.9 -0.93,-1.59 -1.56,-2.08 -0.63,-0.49 -1.38,-0.89 -2.25,-1.21 -0.87,-0.31 -1.69,-0.51 -2.45,-0.6 -0.77,-0.09 -1.58,-0.13 -2.45,-0.13 v -0.59 c 1.02,-0.36 1.9,-0.71 2.64,-1.06 0.73,-0.35 1.5,-0.81 2.31,-1.4 0.81,-0.58 1.43,-1.29 1.87,-2.13 0.43,-0.84 0.65,-1.8 0.65,-2.88 0,-1.41 -0.46,-2.56 -1.37,-3.46 -0.92,-0.9 -2.11,-1.36 -3.58,-1.36 -1.41,0 -2.64,0.39 -3.71,1.15 -1.07,0.77 -2.07,1.97 -2.99,3.62 l -0.68,-0.17 c 0.77,-2.14 1.83,-3.89 3.17,-5.25 1.34,-1.37 3.23,-2.05 5.69,-2.05 2.08,0 3.76,0.57 5.07,1.71 1.3,1.14 1.95,2.63 1.95,4.46 0,1.23 -0.32,2.31 -0.95,3.24 -0.63,0.93 -1.72,1.91 -3.29,2.97 1.81,0.78 3.22,1.77 4.24,2.98 1.02,1.21 1.53,2.93 1.53,5.17 0,3.19 -1.18,5.74 -3.53,7.65 -2.36,1.91 -5.32,2.87 -8.89,2.87 -1.55,0 -2.79,-0.23 -3.7,-0.7 -0.92,-0.46 -1.38,-1.08 -1.38,-1.86 0,-0.48 0.16,-0.87 0.47,-1.15 0.31,-0.29 0.72,-0.43 1.23,-0.43"
     class="Note" />
  <path
     id="path5986"
     d="m 1208.078,116.04 c 3.13,0 5.77,0.81 7.92,2.44 2.01,1.76 3.02,3.97 3.02,6.64 0,4.49 -2.31,8.68 -6.92,12.59 -4.69,3.91 -9.71,5.86 -15.05,5.86 -3.12,0 -5.76,-0.81 -7.91,-2.44 -2.02,-1.76 -3.03,-3.97 -3.03,-6.64 0,-4.49 2.35,-8.69 7.03,-12.59 4.57,-3.91 9.55,-5.86 14.94,-5.86"
     class="Note" />
  <path
     id="path5988"
     d="m 1033.228,373.55 h 28 v 37.5 h -28 v -37.5"
     fill-rule="evenodd"
     fill="#ffffff"
     class="Note" />
  <path
     id="path5990"
     d="m 1054.358,403.11 c -1.86,2.88 -4.32,4.32 -7.38,4.32 -3.06,0 -5.52,-1.47 -7.38,-4.41 -1.86,-2.93 -2.79,-6.72 -2.79,-11.34 0,-4.34 0.93,-7.98 2.79,-10.91 1.86,-2.92 4.37,-4.39 7.55,-4.39 2.95,0 5.35,1.44 7.21,4.32 1.86,2.88 2.79,6.64 2.79,11.26 0,4.55 -0.93,8.27 -2.79,11.15 m -7.33,-25.56 c -3.93,0 -5.9,4.85 -5.9,14.54 0,9.44 1.95,14.17 5.85,14.17 3.89,0 5.84,-4.74 5.84,-14.22 0,-4.71 -0.49,-8.3 -1.48,-10.78 -0.99,-2.47 -2.43,-3.71 -4.31,-3.71"
     class="Note" />
  <path
     id="path5992"
     d="m 1050.448,166.04 c 3.12,0 5.76,0.81 7.92,2.44 2.01,1.76 3.01,3.97 3.01,6.64 0,4.49 -2.3,8.68 -6.92,12.59 -4.68,3.91 -9.7,5.86 -15.04,5.86 -3.13,0 -5.76,-0.81 -7.91,-2.44 -2.02,-1.76 -3.03,-3.97 -3.03,-6.64 0,-4.49 2.34,-8.69 7.03,-12.59 4.56,-3.91 9.54,-5.86 14.94,-5.86"
     class="Note" />
  <path
     id="path5994"
     d="m 875.588,298.55 h 28 v 37.5 h -28 v -37.5"
     fill-rule="evenodd"
     fill="#ffffff"
     class="Note" />
  <path
     id="path5996"
     d="m 896.728,328.11 c -1.86,2.88 -4.32,4.32 -7.39,4.32 -3.06,0 -5.52,-1.47 -7.38,-4.41 -1.86,-2.94 -2.79,-6.72 -2.79,-11.34 0,-4.35 0.93,-7.98 2.79,-10.91 1.86,-2.92 4.38,-4.39 7.56,-4.39 2.94,0 5.35,1.44 7.21,4.32 1.86,2.88 2.79,6.63 2.79,11.26 0,4.55 -0.93,8.27 -2.79,11.15 m -7.34,-25.56 c -3.93,0 -5.89,4.85 -5.89,14.53 0,9.45 1.95,14.18 5.84,14.18 3.9,0 5.85,-4.74 5.85,-14.22 0,-4.71 -0.5,-8.3 -1.49,-10.78 -0.99,-2.47 -2.42,-3.71 -4.31,-3.71"
     class="Note" />
  <path
     id="path5998"
     d="m 892.808,103.54 c 3.13,0 5.77,0.81 7.93,2.44 2.01,1.76 3.01,3.97 3.01,6.64 0,4.49 -2.31,8.68 -6.92,12.59 -4.69,3.91 -9.7,5.86 -15.05,5.86 -3.12,0 -5.76,-0.81 -7.9,-2.44 -2.02,-1.76 -3.04,-3.97 -3.04,-6.64 0,-4.49 2.35,-8.69 7.04,-12.59 4.56,-3.91 9.54,-5.86 14.93,-5.86"
     class="Note" />
  <path
     id="path6000"
     d="m 685.191,373.55 h 28 v 37.5 h -28 v -37.5"
     fill-rule="evenodd"
     fill="#ffffff"
     class="Note" />
  <path
     id="path6002"
     d="m 706.324,403.11 c -1.859,2.88 -4.32,4.32 -7.383,4.32 -3.062,0 -5.523,-1.47 -7.382,-4.41 -1.86,-2.93 -2.789,-6.72 -2.789,-11.34 0,-4.34 0.929,-7.98 2.789,-10.91 1.859,-2.92 4.377,-4.39 7.554,-4.39 2.948,0 5.352,1.44 7.211,4.32 1.86,2.88 2.789,6.64 2.789,11.26 0,4.55 -0.929,8.27 -2.789,11.15 m -7.336,-25.56 c -3.927,0 -5.89,4.85 -5.89,14.54 0,9.44 1.948,14.17 5.843,14.17 3.896,0 5.844,-4.74 5.844,-14.22 0,-4.71 -0.495,-8.3 -1.484,-10.78 -0.99,-2.47 -2.427,-3.71 -4.313,-3.71"
     class="Note" />
  <path
     id="path6004"
     d="m 702.41,166.04 c 3.125,0 5.766,0.81 7.922,2.44 2.011,1.76 3.016,3.97 3.016,6.64 0,4.49 -2.308,8.68 -6.922,12.59 -4.688,3.91 -9.703,5.86 -15.047,5.86 -3.125,0 -5.76,-0.81 -7.906,-2.44 -2.021,-1.76 -3.032,-3.97 -3.032,-6.64 0,-4.49 2.344,-8.69 7.032,-12.59 4.562,-3.91 9.541,-5.86 14.937,-5.86"
     class="Note" />
  <path
     id="path6006"
     d="m 526.083,298.55 h 28 v 37.5 h -28 v -37.5"
     fill-rule="evenodd"
     fill="#ffffff"
     class="Note" />
  <path
     id="path6008"
     d="m 529.974,310.33 c 0.156,-0.68 0.307,-1.28 0.453,-1.78 0.146,-0.51 0.469,-1.25 0.969,-2.22 0.5,-0.96 1.057,-1.77 1.672,-2.41 0.614,-0.64 1.468,-1.22 2.562,-1.73 1.094,-0.51 2.328,-0.76 3.703,-0.76 2.344,0 4.318,0.76 5.922,2.28 1.604,1.52 2.406,3.4 2.406,5.64 0,3.39 -1.921,7.09 -5.765,11.11 l -7.547,7.92 h 10.75 c 1.021,0 1.779,-0.17 2.273,-0.51 0.495,-0.35 1.164,-1.17 2.008,-2.46 l 0.578,0.22 -2.468,6.17 h -17.563 v -0.54 l 8.016,-8.5 c 3.895,-4.14 5.843,-8.04 5.843,-11.71 0,-1.88 -0.583,-3.41 -1.75,-4.58 -1.166,-1.17 -2.698,-1.76 -4.593,-1.76 -1.552,0 -2.802,0.43 -3.75,1.28 -0.948,0.86 -1.87,2.38 -2.766,4.58 l -0.953,-0.24"
     class="Note" />
  <path
     id="path6010"
     d="m 543.302,91.04 c 3.125,0 5.766,0.81 7.922,2.44 2.01,1.76 3.016,3.97 3.016,6.64 0,4.49 -2.308,8.68 -6.922,12.59 -4.688,3.91 -9.703,5.86 -15.047,5.86 -3.125,0 -5.761,-0.81 -7.906,-2.44 -2.021,-1.76 -3.032,-3.97 -3.032,-6.64 0,-4.49 2.344,-8.69 7.032,-12.59 4.562,-3.91 9.541,-5.86 14.937,-5.86"
     class="Note" />
  <path
     id="path6012"
     d="m 366.975,373.55 h 28 v 37.5 h -28 v -37.5"
     fill-rule="evenodd"
     fill="#ffffff"
     class="Note" />
  <path
     id="path6014"
     d="m 388.108,403.11 c -1.859,2.88 -4.32,4.32 -7.383,4.32 -3.062,0 -5.523,-1.47 -7.383,-4.41 -1.859,-2.93 -2.789,-6.72 -2.789,-11.34 0,-4.34 0.93,-7.98 2.789,-10.91 1.86,-2.92 4.378,-4.39 7.555,-4.39 2.948,0 5.352,1.44 7.211,4.32 1.859,2.88 2.789,6.64 2.789,11.26 0,4.55 -0.93,8.27 -2.789,11.15 m -7.336,-25.56 c -3.927,0 -5.891,4.85 -5.891,14.54 0,9.44 1.948,14.17 5.844,14.17 3.896,0 5.844,-4.74 5.844,-14.22 0,-4.71 -0.495,-8.3 -1.485,-10.78 -0.989,-2.47 -2.427,-3.71 -4.312,-3.71"
     class="Note" />
  <path
     id="path6016"
     d="m 384.194,166.04 c 3.125,0 5.765,0.81 7.922,2.44 2.01,1.76 3.015,3.97 3.015,6.64 0,4.49 -2.307,8.68 -6.922,12.59 -4.687,3.91 -9.703,5.86 -15.046,5.86 -3.125,0 -5.761,-0.81 -7.907,-2.44 -2.021,-1.76 -3.031,-3.97 -3.031,-6.64 0,-4.49 2.344,-8.69 7.031,-12.59 4.563,-3.91 9.542,-5.86 14.938,-5.86"
     class="Note" />
  <path
     id="path6018"
     d="m 207.867,298.55 h 28 v 37.5 h -28 v -37.5"
     fill-rule="evenodd"
     fill="#ffffff"
     class="Note" />
  <path
     id="path6020"
     d="m 214.008,328.29 c 0.697,0 1.729,0.4 3.093,1.22 1.365,0.81 2.552,1.22 3.563,1.22 1.656,0 3.054,-0.65 4.195,-1.93 1.141,-1.28 1.711,-2.86 1.711,-4.73 0,-1.17 -0.203,-2.2 -0.609,-3.09 -0.407,-0.9 -0.925,-1.59 -1.555,-2.08 -0.63,-0.49 -1.38,-0.89 -2.25,-1.21 -0.87,-0.31 -1.688,-0.51 -2.453,-0.6 -0.766,-0.09 -1.581,-0.13 -2.445,-0.13 v -0.59 c 1.02,-0.36 1.898,-0.71 2.632,-1.06 0.735,-0.35 1.506,-0.81 2.313,-1.4 0.807,-0.58 1.43,-1.29 1.867,-2.13 0.438,-0.84 0.656,-1.8 0.656,-2.88 0,-1.41 -0.458,-2.56 -1.375,-3.46 -0.916,-0.9 -2.109,-1.36 -3.578,-1.36 -1.406,0 -2.643,0.39 -3.711,1.15 -1.068,0.77 -2.065,1.97 -2.992,3.62 l -0.672,-0.17 c 0.771,-2.14 1.826,-3.89 3.164,-5.25 1.339,-1.37 3.237,-2.05 5.696,-2.05 2.072,0 3.76,0.57 5.062,1.71 1.302,1.14 1.953,2.63 1.953,4.46 0,1.23 -0.315,2.31 -0.945,3.24 -0.63,0.93 -1.727,1.91 -3.289,2.97 1.802,0.78 3.213,1.77 4.234,2.98 1.021,1.21 1.531,2.93 1.531,5.17 0,3.19 -1.177,5.74 -3.531,7.65 -2.354,1.91 -5.318,2.87 -8.89,2.87 -1.553,0 -2.787,-0.23 -3.704,-0.7 -0.916,-0.46 -1.375,-1.08 -1.375,-1.86 0,-0.48 0.157,-0.87 0.469,-1.15 0.313,-0.29 0.724,-0.43 1.235,-0.43"
     class="Note" />
  <path
     id="path6022"
     d="m 225.086,78.54 c 3.125,0 5.765,0.81 7.922,2.44 2.01,1.76 3.015,3.97 3.015,6.64 0,4.49 -2.307,8.68 -6.922,12.59 -4.687,3.91 -9.703,5.86 -15.047,5.86 -3.125,0 -5.76,-0.81 -7.906,-2.44 -2.021,-1.76 -3.031,-3.97 -3.031,-6.64 0,-4.49 2.344,-8.69 7.031,-12.59 4.563,-3.91 9.542,-5.86 14.938,-5.86"
     class="Note" />
  <path
     id="path6388"
     d="m 50.102,326.65 v -3.5 H 25.399 v 3.5 h 10.406 v 28 h 4 v -28 h 10.297 m 1.406,62.9 -11,-31.5 h -5.203 l -11.297,31.5 h 4.297 l 3.297,-9.5 h 12.203 l 3.203,9.5 h 4.5 M 42.711,376.76 H 32.602 l 5.203,-14.41 4.906,14.41 m 6.797,38.59 c 0,-3.8 -1.703,-6.09 -5.703,-7.59 2.797,-1.41 4.297,-3.71 4.297,-6.91 0,-4.59 -3.297,-8 -9.297,-8 H 26.008 v 31.5 h 14.203 c 5.688,0 9.297,-3.8 9.297,-9 m -5.406,-13.89 c 0,3.2 -1.797,5 -6.297,5 h -7.797 v -10.11 h 7.797 c 4.5,0 6.297,1.91 6.297,5.11 m 1.406,13.89 c 0,3.11 -1.797,5.41 -5.609,5.41 h -9.891 v -10.8 h 9.891 c 3.812,0 5.609,2.39 5.609,5.39"
     class="Clef" />
  <path
     id="path6390"
     d="m 61.024,104.21 c 0,0 0.198,0 0.593,0 0.261,-0.06 0.485,-0.09 0.672,-0.09 7.292,0 13.282,2.57 17.969,7.71 4.688,5.08 7.031,11 7.031,17.77 0,8.41 -3.479,15.25 -10.437,20.52 -1.823,1.43 -4.203,2.61 -7.141,3.51 0.334,4.23 0.5,7.65 0.5,10.25 0,0.52 -0.067,2.41 -0.203,5.67 -0.26,6.06 -2.344,11.3 -6.25,15.72 -3.771,4.37 -8.458,6.55 -14.062,6.55 -5.271,0 -9.761,-1.85 -13.469,-5.56 -3.719,-3.78 -5.578,-8.34 -5.578,-13.68 0,-2.8 1.078,-5.18 3.234,-7.14 2.208,-1.94 4.776,-2.92 7.703,-2.92 2.604,0 4.787,1.01 6.547,3.03 1.823,1.89 2.734,4.23 2.734,7.03 0,2.54 -0.911,4.71 -2.734,6.54 -1.823,1.82 -4.005,2.73 -6.547,2.73 -1.041,0 -2.047,-0.19 -3.015,-0.58 2.864,4.23 6.671,6.35 11.421,6.35 4.49,0 8.167,-1.83 11.032,-5.47 3,-3.77 4.63,-8.17 4.89,-13.19 0.125,-3.13 0.188,-4.91 0.188,-5.36 0,-3.65 -0.13,-6.64 -0.391,-8.98 -3.25,0.52 -6.146,0.78 -8.687,0.78 -9.052,0 -16.766,-3.59 -23.141,-10.75 -6.25,-7.23 -9.375,-15.83 -9.375,-25.78 0,-2.09 0.193,-4.2 0.578,-6.35 0.396,-1.76 0.886,-3.68 1.469,-5.76 0.323,-1.18 1.203,-3.07 2.641,-5.68 0.52,-0.78 1.106,-1.75 1.757,-2.92 0.651,-1.18 1.107,-1.96 1.368,-2.34 0.645,-1.3 1.911,-3.06 3.796,-5.28 0.521,-0.59 1.06,-1.23 1.618,-1.95 0.557,-0.71 1.031,-1.3 1.422,-1.76 0.39,-0.45 0.682,-0.81 0.875,-1.07 0.192,-0.26 1.658,-1.99 4.398,-5.18 0.646,-0.65 1.279,-1.35 1.898,-2.1 0.62,-0.74 1.125,-1.33 1.516,-1.75 0.391,-0.43 0.685,-0.74 0.883,-0.93 -2.344,-7.75 -3.813,-13.93 -4.406,-18.56 -0.448,-3.71 -0.672,-8.79 -0.672,-15.23 0,-5.67 1.302,-10.98 3.906,-15.93 2.531,-5.13 6.078,-9.33 10.641,-12.59 0.26,-0.2 0.583,-0.3 0.968,-0.3 0.459,0 0.787,0.1 0.985,0.3 3.51,4.23 6.536,9.73 9.078,16.5 2.604,6.77 3.906,12.93 3.906,18.47 0,6.25 -1.495,12.11 -4.484,17.58 -3.386,5.79 -7.75,11.78 -13.094,17.97 1.365,4.29 3.187,11.02 5.469,20.2 m 8.297,45.42 c 3.385,-1.24 6.026,-3.35 7.921,-6.34 2.084,-2.87 3.125,-6.09 3.125,-9.67 0,-4.63 -1.562,-8.73 -4.687,-12.32 -3.198,-3.7 -7.271,-5.79 -12.219,-6.25 2.802,13.74 4.755,25.27 5.86,34.58 M 31.539,127.07 c 0,6.45 2.605,12.11 7.813,17 5.333,4.75 11.323,7.12 17.969,7.12 2.729,0 5.395,-0.19 8,-0.59 -1.042,-9.9 -3.094,-21.74 -6.157,-35.55 -3.708,0.4 -6.666,1.7 -8.875,3.91 -2.156,2.28 -3.234,4.85 -3.234,7.72 0,4.95 2.641,8.95 7.922,12.01 0.448,0.46 0.672,0.95 0.672,1.47 0,0.52 -0.224,1.01 -0.672,1.46 -0.396,0.45 -0.886,0.68 -1.469,0.68 -0.062,0 -0.354,-0.06 -0.875,-0.18 -3.719,-2.02 -6.583,-4.63 -8.594,-7.82 -1.895,-3.39 -2.843,-6.81 -2.843,-10.26 0,-4.49 1.401,-8.56 4.203,-12.21 2.927,-3.64 6.734,-5.98 11.422,-7.03 -1.823,-7.29 -3.318,-12.99 -4.485,-17.09 -1.041,1.18 -2.294,2.59 -3.758,4.25 -1.463,1.66 -2.325,2.65 -2.586,2.98 -2.343,3.06 -4.135,5.43 -5.375,7.13 -2.218,3.06 -3.848,5.7 -4.89,7.91 -1.104,2.47 -2.078,5.18 -2.922,8.1 -0.844,2.81 -1.266,5.8 -1.266,8.99 m 32.61,-99.31 c -4.886,2.4 -8.724,5.85 -11.516,10.34 -2.864,4.63 -4.297,9.6 -4.297,14.94 0,4.69 1.172,11 3.516,18.95 4.687,-5.67 8.203,-10.91 10.547,-15.72 2.468,-5.08 3.703,-10.39 3.703,-15.92 0,-4.17 -0.651,-8.36 -1.953,-12.59"
     class="Clef" />
  <path
     id="path6408"
     d="m 135.039,55.98 c 1.948,0 3.607,-0.22 4.977,-0.68 1.37,-0.45 2.247,-0.68 2.633,-0.68 0.458,0 0.818,0.13 1.078,0.39 0.198,0.19 0.328,0.42 0.391,0.68 0,0.13 -0.068,0.33 -0.204,0.59 L 115.508,89.3 h 16.688 V 76.2 c 0,-0.84 0.229,-1.56 0.687,-2.15 0.781,-0.65 1.432,-1.04 1.953,-1.18 0.844,-0.38 1.886,-1.29 3.125,-2.73 1.042,-1.17 2.282,-3.21 3.719,-6.14 0.188,-0.4 0.479,-0.59 0.875,-0.59 0.781,0 1.234,0.45 1.359,1.37 V 89.3 h 7.141 c 0.906,0 1.427,0.48 1.563,1.45 0,0.98 -0.521,1.47 -1.563,1.47 h -7.141 V 93 c 0,2.6 0.651,4.82 1.954,6.64 1.5,1.82 3.26,2.73 5.281,2.73 0.781,0 1.172,0.39 1.172,1.18 0,0.78 -0.391,1.17 -1.172,1.17 -1.365,0 -3.578,-0.2 -6.641,-0.58 -2.802,-0.46 -4.984,-0.69 -6.547,-0.69 -1.625,0 -3.807,0.23 -6.547,0.69 -2.927,0.38 -5.104,0.58 -6.531,0.58 -0.781,0 -1.172,-0.39 -1.172,-1.17 0,-0.79 0.391,-1.18 1.172,-1.18 2.011,0 3.766,-0.91 5.266,-2.73 1.364,-1.89 2.047,-4.1 2.047,-6.64 v -0.78 h -16.688 c -1.114,0 -1.896,-0.26 -2.344,-0.78 -0.531,-0.39 -0.796,-0.91 -0.796,-1.57 0,-0.19 0.489,-0.88 1.468,-2.04 1.115,-1.31 2.287,-2.9 3.516,-4.78 1.437,-2.22 2.807,-4.5 4.109,-6.85 1.427,-2.66 2.568,-5.73 3.422,-9.19 0.969,-3.51 1.453,-7.08 1.453,-10.73 0,-1.04 0.459,-1.56 1.375,-1.56 0.198,0 0.62,0.1 1.266,0.29 0.198,0.07 0.607,0.16 1.226,0.29 0.62,0.13 1.123,0.26 1.508,0.39 1.177,0.19 2.287,0.29 3.328,0.29"
     class="TimeSig" />
  <path
     id="path6410"
     d="m 135.039,106.16 c 1.948,0 3.607,-0.23 4.977,-0.68 1.37,-0.46 2.247,-0.68 2.633,-0.68 0.458,0 0.818,0.13 1.078,0.39 0.198,0.18 0.328,0.41 0.391,0.67 0,0.13 -0.068,0.33 -0.204,0.59 l -28.406,33.02 h 16.688 v -13.1 c 0,-0.84 0.229,-1.56 0.687,-2.15 0.781,-0.65 1.432,-1.04 1.953,-1.17 0.844,-0.39 1.886,-1.3 3.125,-2.74 1.042,-1.17 2.282,-3.21 3.719,-6.14 0.188,-0.4 0.479,-0.59 0.875,-0.59 0.781,0 1.234,0.46 1.359,1.37 v 24.52 h 7.141 c 0.906,0 1.427,0.48 1.563,1.45 0,0.98 -0.521,1.47 -1.563,1.47 h -7.141 v 0.78 c 0,2.6 0.651,4.82 1.954,6.64 1.5,1.82 3.26,2.74 5.281,2.74 0.781,0 1.172,0.39 1.172,1.17 0,0.78 -0.391,1.17 -1.172,1.17 -1.365,0 -3.578,-0.19 -6.641,-0.58 -2.802,-0.46 -4.984,-0.69 -6.547,-0.69 -1.625,0 -3.807,0.23 -6.547,0.69 -2.927,0.39 -5.104,0.58 -6.531,0.58 -0.781,0 -1.172,-0.39 -1.172,-1.17 0,-0.78 0.391,-1.17 1.172,-1.17 2.011,0 3.766,-0.92 5.266,-2.74 1.364,-1.88 2.047,-4.1 2.047,-6.64 v -0.78 h -16.688 c -1.114,0 -1.896,-0.26 -2.344,-0.78 -0.531,-0.39 -0.796,-0.91 -0.796,-1.56 0,-0.2 0.489,-0.88 1.468,-2.05 1.115,-1.3 2.287,-2.9 3.516,-4.78 1.437,-2.22 2.807,-4.5 4.109,-6.85 1.427,-2.66 2.568,-5.73 3.422,-9.18 0.969,-3.51 1.453,-7.09 1.453,-10.74 0,-1.04 0.459,-1.56 1.375,-1.56 0.198,0 0.62,0.1 1.266,0.3 0.198,0.06 0.607,0.16 1.226,0.29 0.62,0.13 1.123,0.25 1.508,0.38 1.177,0.2 2.287,0.3 3.328,0.3"
     class="TimeSig" />
  <path
     id="path6424"
     d="m 2391.098,14.03 -10.23,22.92 h -0.56 l -10.05,-22 v 16.13 c 0,2.02 0.24,3.36 0.72,4.01 0.48,0.66 1.49,1.02 3.04,1.1 v 0.76 h -9.4 v -0.76 c 1.65,-0.11 2.72,-0.47 3.19,-1.1 0.46,-0.62 0.7,-1.96 0.7,-4.01 V 14.84 c 0,-1.47 -0.22,-2.41 -0.66,-2.83 -0.45,-0.41 -1.49,-0.67 -3.14,-0.78 v -0.75 h 7.91 l 9.25,20.19 8.83,-20.19 h 7.97 v 0.75 c -1.5,0.14 -2.46,0.42 -2.87,0.85 -0.41,0.42 -0.62,1.35 -0.62,2.76 v 17.75 c 0,1.42 0.21,2.35 0.64,2.78 0.43,0.44 1.38,0.71 2.85,0.82 v 0.76 h -11.21 v -0.76 c 1.58,-0.11 2.58,-0.39 3,-0.86 0.43,-0.46 0.64,-1.52 0.64,-3.17 V 14.03"
     class="Fingering" />
  <path
     id="path6426"
     d="M 2221.538,32.59 V 14.84 c 0,-1.47 -0.22,-2.41 -0.66,-2.83 -0.45,-0.42 -1.52,-0.68 -3.23,-0.78 v -0.75 h 11.89 v 0.75 c -1.69,0.08 -2.76,0.34 -3.23,0.76 -0.46,0.43 -0.69,1.38 -0.69,2.85 v 17.75 c 0,1.47 0.24,2.42 0.72,2.86 0.48,0.43 1.54,0.68 3.2,0.73 v 0.77 h -11.89 v -0.77 c 1.69,-0.05 2.76,-0.29 3.21,-0.72 0.45,-0.43 0.68,-1.38 0.68,-2.87"
     class="Fingering" />
  <path
     id="path6428"
     d="M 2035.208,32.59 V 14.84 c 0,-1.47 -0.22,-2.41 -0.66,-2.83 -0.45,-0.42 -1.52,-0.68 -3.23,-0.78 v -0.75 h 11.89 v 0.75 c -1.69,0.08 -2.76,0.34 -3.23,0.77 -0.46,0.42 -0.69,1.37 -0.69,2.84 v 17.75 c 0,1.47 0.24,2.42 0.72,2.86 0.48,0.44 1.54,0.68 3.2,0.73 v 0.77 h -11.89 v -0.77 c 1.69,-0.05 2.76,-0.29 3.21,-0.72 0.45,-0.42 0.68,-1.38 0.68,-2.87"
     class="Fingering" />
  <path
     id="path6430"
     d="m 1883.978,14.03 -10.24,22.92 h -0.56 l -10.05,-22 v 16.13 c 0,2.02 0.24,3.35 0.72,4.01 0.48,0.66 1.5,1.02 3.05,1.09 v 0.77 h -9.41 v -0.77 c 1.66,-0.1 2.72,-0.46 3.19,-1.09 0.47,-0.62 0.7,-1.96 0.7,-4.01 V 14.84 c 0,-1.47 -0.22,-2.41 -0.66,-2.83 -0.44,-0.41 -1.49,-0.67 -3.13,-0.78 v -0.75 h 7.9 l 9.25,20.19 8.83,-20.19 h 7.97 v 0.75 c -1.5,0.14 -2.46,0.42 -2.87,0.85 -0.41,0.42 -0.62,1.34 -0.62,2.76 v 17.75 c 0,1.42 0.22,2.34 0.65,2.78 0.42,0.44 1.37,0.71 2.84,0.81 v 0.77 h -11.2 v -0.77 c 1.57,-0.1 2.57,-0.38 3,-0.85 0.42,-0.46 0.64,-1.52 0.64,-3.18 V 14.03"
     class="Fingering" />
  <path
     id="path6432"
     d="M 1714.748,32.59 V 14.84 c 0,-1.47 -0.22,-2.41 -0.67,-2.83 -0.44,-0.41 -1.51,-0.67 -3.22,-0.78 v -0.75 h 11.89 v 0.75 c -1.69,0.09 -2.76,0.34 -3.23,0.77 -0.46,0.43 -0.69,1.37 -0.69,2.84 v 17.75 c 0,1.47 0.24,2.42 0.72,2.86 0.47,0.44 1.54,0.68 3.2,0.74 v 0.76 h -11.89 v -0.76 c 1.69,-0.06 2.76,-0.3 3.21,-0.72 0.45,-0.43 0.68,-1.39 0.68,-2.88"
     class="Fingering" />
  <path
     id="path6434"
     d="m 1568.708,14.03 -10.24,22.92 h -0.56 l -10.05,-22 v 16.13 c 0,2.02 0.24,3.36 0.72,4.01 0.48,0.66 1.5,1.02 3.05,1.1 v 0.76 h -9.41 v -0.76 c 1.66,-0.11 2.72,-0.47 3.19,-1.1 0.47,-0.62 0.7,-1.96 0.7,-4.01 V 14.84 c 0,-1.47 -0.22,-2.41 -0.66,-2.83 -0.44,-0.41 -1.49,-0.67 -3.13,-0.78 v -0.75 h 7.9 l 9.25,20.19 8.83,-20.19 h 7.97 v 0.75 c -1.5,0.14 -2.45,0.42 -2.87,0.85 -0.41,0.42 -0.61,1.35 -0.61,2.76 v 17.75 c 0,1.42 0.21,2.35 0.64,2.78 0.42,0.44 1.37,0.71 2.84,0.82 v 0.76 h -11.2 v -0.76 c 1.57,-0.11 2.57,-0.39 3,-0.86 0.43,-0.46 0.64,-1.52 0.64,-3.17 V 14.03"
     class="Fingering" />
  <path
     id="path6436"
     d="m 1368.188,32.585 v -17.75 c 0,-1.46 -0.22,-2.41 -0.67,-2.82 -0.44,-0.42 -1.51,-0.68 -3.22,-0.78 v -0.75 h 11.89 v 0.75 c -1.69,0.08 -2.77,0.33 -3.23,0.76 -0.46,0.43 -0.69,1.38 -0.69,2.84 v 17.75 c 0,1.47 0.24,2.43 0.71,2.86 0.48,0.44 1.55,0.69 3.21,0.74 v 0.76 h -11.89 v -0.76 c 1.68,-0.05 2.76,-0.29 3.21,-0.72 0.45,-0.43 0.68,-1.39 0.68,-2.88"
     class="Fingering" />
  <path
     id="path6438"
     d="m 1222.148,14.03 -10.24,22.92 h -0.56 l -10.05,-22 v 16.12 c 0,2.02 0.24,3.36 0.72,4.02 0.48,0.65 1.5,1.02 3.05,1.09 v 0.77 h -9.41 v -0.77 c 1.66,-0.1 2.72,-0.47 3.19,-1.09 0.47,-0.63 0.7,-1.97 0.7,-4.02 V 14.84 c 0,-1.47 -0.22,-2.41 -0.66,-2.83 -0.44,-0.42 -1.49,-0.68 -3.13,-0.78 v -0.75 h 7.9 l 9.25,20.19 8.83,-20.19 h 7.97 v 0.75 c -1.5,0.13 -2.46,0.41 -2.87,0.84 -0.41,0.43 -0.61,1.35 -0.61,2.77 v 17.75 c 0,1.41 0.21,2.34 0.64,2.78 0.42,0.44 1.37,0.71 2.84,0.81 v 0.77 h -11.2 v -0.77 c 1.57,-0.1 2.57,-0.39 3,-0.85 0.42,-0.46 0.64,-1.52 0.64,-3.18 V 14.03"
     class="Fingering" />
  <path
     id="path6440"
     d="M 1052.918,32.59 V 14.84 c 0,-1.47 -0.22,-2.41 -0.66,-2.83 -0.45,-0.42 -1.52,-0.68 -3.23,-0.78 v -0.75 h 11.89 v 0.75 c -1.69,0.08 -2.76,0.34 -3.23,0.76 -0.46,0.43 -0.69,1.38 -0.69,2.85 v 17.75 c 0,1.47 0.24,2.42 0.72,2.86 0.48,0.43 1.54,0.68 3.2,0.73 v 0.77 h -11.89 v -0.77 c 1.69,-0.05 2.76,-0.29 3.21,-0.72 0.45,-0.42 0.68,-1.38 0.68,-2.87"
     class="Fingering" />
  <path
     id="path6442"
     d="m 911.038,36.43 v 0.76 h -10.21 v -0.76 c 1.08,-0.02 1.81,-0.13 2.21,-0.32 0.4,-0.18 0.61,-0.53 0.61,-1.04 0,-0.64 -0.26,-1.53 -0.77,-2.67 l -1.64,-3.85 h -10.49 l -1.82,4.69 c -0.22,0.55 -0.33,1.07 -0.33,1.55 0,1.09 0.9,1.64 2.72,1.64 v 0.76 h -7.92 v -0.76 c 0.99,-0.06 1.75,-0.43 2.3,-1.14 0.55,-0.7 1.44,-2.5 2.66,-5.41 l 8.32,-19.64 h 0.79 l 9.97,22.72 c 0.64,1.46 1.17,2.39 1.6,2.79 0.42,0.4 1.09,0.62 2,0.68 m -19.6,-9.52 h 9.24 l -4.64,-11 -4.6,11"
     class="Fingering" />
  <path
     id="path6444"
     d="M 704.883,32.59 V 14.84 c 0,-1.47 -0.221,-2.41 -0.664,-2.83 -0.443,-0.42 -1.518,-0.68 -3.227,-0.78 v -0.75 h 11.891 v 0.75 c -1.688,0.08 -2.763,0.34 -3.227,0.76 -0.463,0.43 -0.695,1.38 -0.695,2.85 v 17.75 c 0,1.47 0.24,2.42 0.719,2.86 0.479,0.43 1.547,0.68 3.203,0.73 v 0.77 h -11.891 v -0.77 c 1.688,-0.05 2.758,-0.29 3.211,-0.72 0.453,-0.43 0.68,-1.38 0.68,-2.87"
     class="Fingering" />
  <path
     id="path6446"
     d="m 543.734,36.425 v 0.77 h -10.203 v -0.77 c 1.073,-0.02 1.81,-0.12 2.211,-0.31 0.401,-0.19 0.601,-0.54 0.601,-1.05 0,-0.63 -0.255,-1.52 -0.765,-2.67 l -1.641,-3.84 h -10.484 l -1.829,4.68 c -0.218,0.56 -0.328,1.07 -0.328,1.55 0,1.09 0.907,1.64 2.719,1.64 v 0.77 h -7.922 v -0.77 c 0.99,-0.05 1.758,-0.43 2.305,-1.13 0.547,-0.7 1.435,-2.51 2.664,-5.42 l 8.312,-19.64 h 0.797 l 9.969,22.72 c 0.636,1.46 1.167,2.39 1.594,2.79 0.427,0.4 1.094,0.63 2,0.68 m -19.594,-9.51 h 9.234 l -4.64,-11 -4.594,11"
     class="Fingering" />
  <path
     id="path6448"
     d="M 384.07,32.59 V 14.84 c 0,-1.47 -0.222,-2.41 -0.665,-2.83 -0.442,-0.41 -1.518,-0.67 -3.226,-0.78 v -0.75 h 11.891 v 0.75 c -1.688,0.08 -2.763,0.34 -3.227,0.77 -0.464,0.42 -0.695,1.37 -0.695,2.84 v 17.75 c 0,1.47 0.239,2.42 0.718,2.86 0.48,0.44 1.547,0.68 3.204,0.73 v 0.77 h -11.891 v -0.77 c 1.687,-0.05 2.758,-0.29 3.211,-0.71 0.453,-0.43 0.68,-1.39 0.68,-2.88"
     class="Fingering" />
  <path
     id="path6450"
     d="m 230.711,36.43 v 0.76 h -10.203 v -0.76 c 1.073,-0.02 1.81,-0.13 2.211,-0.32 0.401,-0.18 0.602,-0.53 0.602,-1.04 0,-0.64 -0.255,-1.53 -0.766,-2.68 l -1.641,-3.84 H 210.43 l -1.828,4.69 c -0.219,0.55 -0.328,1.07 -0.328,1.55 0,1.09 0.906,1.64 2.719,1.64 v 0.76 h -7.922 v -0.76 c 0.989,-0.06 1.758,-0.43 2.304,-1.14 0.547,-0.7 1.435,-2.5 2.664,-5.41 l 8.313,-19.64 h 0.797 l 9.969,22.72 c 0.635,1.46 1.166,2.39 1.593,2.79 0.427,0.4 1.094,0.62 2,0.68 m -19.593,-9.52 h 9.234 l -4.641,-11 -4.593,11"
     class="Fingering" />
</svg>
