<?xml version="1.0" encoding="UTF-8" standalone="no"?>
<svg
   xmlns:dc="http://purl.org/dc/elements/1.1/"
   xmlns:cc="http://creativecommons.org/ns#"
   xmlns:rdf="http://www.w3.org/1999/02/22-rdf-syntax-ns#"
   xmlns:svg="http://www.w3.org/2000/svg"
   xmlns="http://www.w3.org/2000/svg"
   xmlns:sodipodi="http://sodipodi.sourceforge.net/DTD/sodipodi-0.dtd"
   xmlns:inkscape="http://www.inkscape.org/namespaces/inkscape"
   inkscape:version="1.0 (4035a4fb49, 2020-05-01)"
   sodipodi:docname="exercise7.svg"
   id="svg2998"
   version="1.2"
   viewBox="0 0 2778.1379 580.495"
   height="580.495"
   width="2778.1379">
  <metadata
     id="metadata3004">
    <rdf:RDF>
      <cc:Work
         rdf:about="">
        <dc:format>image/svg+xml</dc:format>
        <dc:type
           rdf:resource="http://purl.org/dc/dcmitype/StillImage" />
        <dc:title>c-exercise3 (1)</dc:title>
      </cc:Work>
    </rdf:RDF>
  </metadata>
  <defs
     id="defs3002" />
  <sodipodi:namedview
     inkscape:current-layer="svg2998"
     inkscape:window-maximized="1"
     inkscape:window-y="-8"
     inkscape:window-x="-8"
     inkscape:cy="1455.4768"
     inkscape:cx="1368.268"
     inkscape:zoom="0.16919192"
     showgrid="false"
     id="namedview3000"
     inkscape:window-height="837"
     inkscape:window-width="1600"
     inkscape:pageshadow="2"
     inkscape:pageopacity="0"
     guidetolerance="10"
     gridtolerance="10"
     objecttolerance="10"
     borderopacity="1"
     bordercolor="#666666"
     pagecolor="#ffffff" />
  <title
     id="title1508">c-exercise3 (1)</title>
  <desc
     id="desc1510">Generated by MuseScore 3.0.1</desc>
  <polyline
     transform="translate(-141.732,-2874.935)"
     id="polyline1584"
     points="141.732,3016.73 2918.27,3016.73"
     stroke-linejoin="bevel"
     stroke-width="2.8"
     stroke="#000000"
     fill="none"
     class="StaffLines" />
  <polyline
     transform="translate(-141.732,-2874.935)"
     id="polyline1586"
     points="141.732,3051.73 2918.27,3051.73"
     stroke-linejoin="bevel"
     stroke-width="2.8"
     stroke="#000000"
     fill="none"
     class="StaffLines" />
  <polyline
     transform="translate(-141.732,-2874.935)"
     id="polyline1588"
     points="141.732,3086.73 2918.27,3086.73"
     stroke-linejoin="bevel"
     stroke-width="2.8"
     stroke="#000000"
     fill="none"
     class="StaffLines" />
  <polyline
     transform="translate(-141.732,-2874.935)"
     id="polyline1590"
     points="141.732,3121.73 2918.27,3121.73"
     stroke-linejoin="bevel"
     stroke-width="2.8"
     stroke="#000000"
     fill="none"
     class="StaffLines" />
  <polyline
     transform="translate(-141.732,-2874.935)"
     id="polyline1592"
     points="141.732,3156.73 2918.27,3156.73"
     stroke-linejoin="bevel"
     stroke-width="2.8"
     stroke="#000000"
     fill="none"
     class="StaffLines" />
  <polyline
     transform="translate(-141.732,-2874.935)"
     id="polyline1594"
     points="141.732,3319.23 2918.27,3319.23"
     stroke-linejoin="bevel"
     stroke-width="2.4"
     stroke="#000000"
     fill="none"
     class="StaffLines" />
  <polyline
     transform="translate(-141.732,-2874.935)"
     id="polyline1596"
     points="141.732,3364.23 2918.27,3364.23"
     stroke-linejoin="bevel"
     stroke-width="2.4"
     stroke="#000000"
     fill="none"
     class="StaffLines" />
  <polyline
     transform="translate(-141.732,-2874.935)"
     id="polyline1598"
     points="141.732,3409.23 2918.27,3409.23"
     stroke-linejoin="bevel"
     stroke-width="2.4"
     stroke="#000000"
     fill="none"
     class="StaffLines" />
  <polyline
     transform="translate(-141.732,-2874.935)"
     id="polyline1600"
     points="141.732,3454.23 2918.27,3454.23"
     stroke-linejoin="bevel"
     stroke-width="2.4"
     stroke="#000000"
     fill="none"
     class="StaffLines" />
  <path
     id="path1602"
     d="m 2509.8281,462.295 c 23.76,-28.45 71.3,-28.45 95.07,0 -23.77,-24.45 -71.31,-24.45 -95.07,0"
     fill-rule="evenodd"
     stroke-linejoin="round"
     stroke-linecap="round"
     stroke-width="1.75"
     stroke="#000000"
     class="SlurSegment" />
  <path
     id="path1604"
     d="m 2517.5581,278.295 c 14.8499,33 62.38,50.5 95.07,35 -34.07,19.25 -81.61,1.75 -95.07,-35"
     fill-rule="evenodd"
     stroke-linejoin="round"
     stroke-linecap="round"
     stroke-width="1.75"
     stroke="#000000"
     class="SlurSegment" />
  <path
     id="path1606"
     d="m 1654.3879,462.295 c 23.77,-28.45 71.31,-28.45 95.07,0 -23.76,-24.45 -71.3,-24.45 -95.07,0"
     fill-rule="evenodd"
     stroke-linejoin="round"
     stroke-linecap="round"
     stroke-width="1.75"
     stroke="#000000"
     class="SlurSegment" />
  <path
     id="path1608"
     d="m 1662.1279,278.295 c 14.84,33 62.3802,50.5 95.07,35 -34.07,19.25 -81.6099,1.75 -95.07,-35"
     fill-rule="evenodd"
     stroke-linejoin="round"
     stroke-linecap="round"
     stroke-width="1.75"
     stroke="#000000"
     class="SlurSegment" />
  <path
     id="path1610"
     d="m 798.96,462.295 c 23.767,-28.45 71.298,-28.45 95.068,0 -23.77,-24.45 -71.301,-24.45 -95.068,0"
     fill-rule="evenodd"
     stroke-linejoin="round"
     stroke-linecap="round"
     stroke-width="1.75"
     stroke="#000000"
     class="SlurSegment" />
  <path
     id="path1612"
     d="m 806.697,278.295 c 14.843,33 62.381,50.5 95.071,35 -34.07,19.25 -81.61,1.75 -95.071,-35"
     fill-rule="evenodd"
     stroke-linejoin="round"
     stroke-linecap="round"
     stroke-width="1.75"
     stroke="#000000"
     class="SlurSegment" />
  <polyline
     transform="translate(-141.732,-2874.935)"
     id="polyline1614"
     points="2916.67,3318.03 2916.67,3455.43"
     stroke-linejoin="bevel"
     stroke-width="4.8"
     stroke="#000000"
     class="BarLine" />
  <polyline
     transform="translate(-141.732,-2874.935)"
     id="polyline1616"
     points="2917.07,3015.33 2917.07,3158.13"
     stroke-linejoin="bevel"
     stroke-width="5.6"
     stroke="#000000"
     class="BarLine" />
  <polyline
     transform="translate(-141.732,-2874.935)"
     id="polyline1618"
     points="2488.95,3318.03 2488.95,3455.43"
     stroke-linejoin="bevel"
     stroke-width="4.8"
     stroke="#000000"
     class="BarLine" />
  <polyline
     transform="translate(-141.732,-2874.935)"
     id="polyline1620"
     points="2489.35,3015.33 2489.35,3158.13"
     stroke-linejoin="bevel"
     stroke-width="5.6"
     stroke="#000000"
     class="BarLine" />
  <polyline
     transform="translate(-141.732,-2874.935)"
     id="polyline1622"
     points="2061.24,3318.03 2061.24,3455.43"
     stroke-linejoin="bevel"
     stroke-width="4.8"
     stroke="#000000"
     class="BarLine" />
  <polyline
     transform="translate(-141.732,-2874.935)"
     id="polyline1624"
     points="2061.64,3015.33 2061.64,3158.13"
     stroke-linejoin="bevel"
     stroke-width="5.6"
     stroke="#000000"
     class="BarLine" />
  <polyline
     transform="translate(-141.732,-2874.935)"
     id="polyline1626"
     points="1633.52,3318.03 1633.52,3455.43"
     stroke-linejoin="bevel"
     stroke-width="4.8"
     stroke="#000000"
     class="BarLine" />
  <polyline
     transform="translate(-141.732,-2874.935)"
     id="polyline1628"
     points="1633.92,3015.33 1633.92,3158.13"
     stroke-linejoin="bevel"
     stroke-width="5.6"
     stroke="#000000"
     class="BarLine" />
  <polyline
     transform="translate(-141.732,-2874.935)"
     id="polyline1630"
     points="1205.8,3318.03 1205.8,3455.43"
     stroke-linejoin="bevel"
     stroke-width="4.8"
     stroke="#000000"
     class="BarLine" />
  <polyline
     transform="translate(-141.732,-2874.935)"
     id="polyline1632"
     points="1206.2,3015.33 1206.2,3158.13"
     stroke-linejoin="bevel"
     stroke-width="5.6"
     stroke="#000000"
     class="BarLine" />
  <polyline
     transform="translate(-141.732,-2874.935)"
     id="polyline1634"
     points="778.089,3318.03 778.089,3455.43"
     stroke-linejoin="bevel"
     stroke-width="4.8"
     stroke="#000000"
     class="BarLine" />
  <polyline
     transform="translate(-141.732,-2874.935)"
     id="polyline1636"
     points="778.489,3015.33 778.489,3158.13"
     stroke-linejoin="bevel"
     stroke-width="5.6"
     stroke="#000000"
     class="BarLine" />
  <polyline
     transform="translate(-141.732,-2874.935)"
     id="polyline1638"
     points="143.732,3318.03 143.732,3455.43"
     stroke-linejoin="bevel"
     stroke-width="4"
     stroke="#000000"
     class="BarLine" />
  <polyline
     transform="translate(-141.732,-2874.935)"
     id="polyline1640"
     points="143.732,3015.33 143.732,3319.23"
     stroke-linejoin="bevel"
     stroke-width="4"
     stroke="#000000"
     class="BarLine" />
  <polyline
     transform="translate(-141.732,-2874.935)"
     id="polyline1754"
     points="2813.88,3191.73 2884.99,3191.73"
     stroke-linejoin="bevel"
     stroke-linecap="square"
     stroke-width="5.6"
     stroke="#000000"
     class="LedgerLine" />
  <polyline
     transform="translate(-141.732,-2874.935)"
     id="polyline1756"
     points="2386.16,3191.73 2457.28,3191.73"
     stroke-linejoin="bevel"
     stroke-linecap="square"
     stroke-width="5.6"
     stroke="#000000"
     class="LedgerLine" />
  <polyline
     transform="translate(-141.732,-2874.935)"
     id="polyline1758"
     points="1958.45,3191.73 2029.56,3191.73"
     stroke-linejoin="bevel"
     stroke-linecap="square"
     stroke-width="5.6"
     stroke="#000000"
     class="LedgerLine" />
  <polyline
     transform="translate(-141.732,-2874.935)"
     id="polyline1760"
     points="1530.73,3191.73 1601.85,3191.73"
     stroke-linejoin="bevel"
     stroke-linecap="square"
     stroke-width="5.6"
     stroke="#000000"
     class="LedgerLine" />
  <polyline
     transform="translate(-141.732,-2874.935)"
     id="polyline1762"
     points="1103.01,3191.73 1174.13,3191.73"
     stroke-linejoin="bevel"
     stroke-linecap="square"
     stroke-width="5.6"
     stroke="#000000"
     class="LedgerLine" />
  <polyline
     transform="translate(-141.732,-2874.935)"
     id="polyline1764"
     points="675.298,3191.73 746.413,3191.73"
     stroke-linejoin="bevel"
     stroke-linecap="square"
     stroke-width="5.6"
     stroke="#000000"
     class="LedgerLine" />
  <polyline
     transform="translate(-141.732,-2874.935)"
     id="polyline1812"
     points="2872.87,3186.36 2872.87,3069.23"
     stroke-linejoin="bevel"
     stroke-linecap="round"
     stroke-width="4.55"
     stroke="#000000"
     class="Stem" />
  <polyline
     transform="translate(-141.732,-2874.935)"
     id="polyline1814"
     points="2777.8,3151.47 2777.8,3034.23"
     stroke-linejoin="bevel"
     stroke-linecap="round"
     stroke-width="4.55"
     stroke="#000000"
     class="Stem" />
  <polyline
     transform="translate(-141.732,-2874.935)"
     id="polyline1816"
     points="2682.73,3116.36 2682.73,3003.61"
     stroke-linejoin="bevel"
     stroke-linecap="round"
     stroke-width="4.55"
     stroke="#000000"
     class="Stem" />
  <polyline
     transform="translate(-141.732,-2874.935)"
     id="polyline1818"
     points="2526.39,3074.39 2526.39,3182.98"
     stroke-linejoin="bevel"
     stroke-linecap="round"
     stroke-width="4.55"
     stroke="#000000"
     class="Stem" />
  <polyline
     transform="translate(-141.732,-2874.935)"
     id="polyline1820"
     points="2445.15,3186.36 2445.15,3069.23"
     stroke-linejoin="bevel"
     stroke-linecap="round"
     stroke-width="4.55"
     stroke="#000000"
     class="Stem" />
  <polyline
     transform="translate(-141.732,-2874.935)"
     id="polyline1822"
     points="2350.08,3151.47 2350.08,3034.23"
     stroke-linejoin="bevel"
     stroke-linecap="round"
     stroke-width="4.55"
     stroke="#000000"
     class="Stem" />
  <polyline
     transform="translate(-141.732,-2874.935)"
     id="polyline1824"
     points="2255.01,3116.36 2255.01,3003.61"
     stroke-linejoin="bevel"
     stroke-linecap="round"
     stroke-width="4.55"
     stroke="#000000"
     class="Stem" />
  <polyline
     transform="translate(-141.732,-2874.935)"
     id="polyline1826"
     points="2098.68,3074.39 2098.68,3182.98"
     stroke-linejoin="bevel"
     stroke-linecap="round"
     stroke-width="4.55"
     stroke="#000000"
     class="Stem" />
  <polyline
     transform="translate(-141.732,-2874.935)"
     id="polyline1828"
     points="2017.44,3186.36 2017.44,3069.23"
     stroke-linejoin="bevel"
     stroke-linecap="round"
     stroke-width="4.55"
     stroke="#000000"
     class="Stem" />
  <polyline
     transform="translate(-141.732,-2874.935)"
     id="polyline1830"
     points="1922.37,3151.47 1922.37,3034.23"
     stroke-linejoin="bevel"
     stroke-linecap="round"
     stroke-width="4.55"
     stroke="#000000"
     class="Stem" />
  <polyline
     transform="translate(-141.732,-2874.935)"
     id="polyline1832"
     points="1827.29,3116.36 1827.29,3003.61"
     stroke-linejoin="bevel"
     stroke-linecap="round"
     stroke-width="4.55"
     stroke="#000000"
     class="Stem" />
  <polyline
     transform="translate(-141.732,-2874.935)"
     id="polyline1834"
     points="1670.96,3074.39 1670.96,3182.98"
     stroke-linejoin="bevel"
     stroke-linecap="round"
     stroke-width="4.55"
     stroke="#000000"
     class="Stem" />
  <polyline
     transform="translate(-141.732,-2874.935)"
     id="polyline1836"
     points="1589.72,3186.36 1589.72,3069.23"
     stroke-linejoin="bevel"
     stroke-linecap="round"
     stroke-width="4.55"
     stroke="#000000"
     class="Stem" />
  <polyline
     transform="translate(-141.732,-2874.935)"
     id="polyline1838"
     points="1494.65,3151.47 1494.65,3034.23"
     stroke-linejoin="bevel"
     stroke-linecap="round"
     stroke-width="4.55"
     stroke="#000000"
     class="Stem" />
  <polyline
     transform="translate(-141.732,-2874.935)"
     id="polyline1840"
     points="1399.58,3116.36 1399.58,3003.61"
     stroke-linejoin="bevel"
     stroke-linecap="round"
     stroke-width="4.55"
     stroke="#000000"
     class="Stem" />
  <polyline
     transform="translate(-141.732,-2874.935)"
     id="polyline1842"
     points="1243.25,3074.39 1243.25,3182.98"
     stroke-linejoin="bevel"
     stroke-linecap="round"
     stroke-width="4.55"
     stroke="#000000"
     class="Stem" />
  <polyline
     transform="translate(-141.732,-2874.935)"
     id="polyline1844"
     points="1162,3186.36 1162,3069.23"
     stroke-linejoin="bevel"
     stroke-linecap="round"
     stroke-width="4.55"
     stroke="#000000"
     class="Stem" />
  <polyline
     transform="translate(-141.732,-2874.935)"
     id="polyline1846"
     points="1066.93,3151.47 1066.93,3034.23"
     stroke-linejoin="bevel"
     stroke-linecap="round"
     stroke-width="4.55"
     stroke="#000000"
     class="Stem" />
  <polyline
     transform="translate(-141.732,-2874.935)"
     id="polyline1848"
     points="971.862,3116.36 971.862,3003.61"
     stroke-linejoin="bevel"
     stroke-linecap="round"
     stroke-width="4.55"
     stroke="#000000"
     class="Stem" />
  <polyline
     transform="translate(-141.732,-2874.935)"
     id="polyline1850"
     points="815.53,3074.39 815.53,3182.98"
     stroke-linejoin="bevel"
     stroke-linecap="round"
     stroke-width="4.55"
     stroke="#000000"
     class="Stem" />
  <polyline
     transform="translate(-141.732,-2874.935)"
     id="polyline1852"
     points="734.288,3186.36 734.288,3069.23"
     stroke-linejoin="bevel"
     stroke-linecap="round"
     stroke-width="4.55"
     stroke="#000000"
     class="Stem" />
  <polyline
     transform="translate(-141.732,-2874.935)"
     id="polyline1854"
     points="639.217,3151.47 639.217,3034.23"
     stroke-linejoin="bevel"
     stroke-linecap="round"
     stroke-width="4.55"
     stroke="#000000"
     class="Stem" />
  <polyline
     transform="translate(-141.732,-2874.935)"
     id="polyline1856"
     points="544.146,3116.36 544.146,3003.61"
     stroke-linejoin="bevel"
     stroke-linecap="round"
     stroke-width="4.55"
     stroke="#000000"
     class="Stem" />
  <polyline
     transform="translate(-141.732,-2874.935)"
     id="polyline1858"
     points="387.814,3074.39 387.814,3182.98"
     stroke-linejoin="bevel"
     stroke-linecap="round"
     stroke-width="4.55"
     stroke="#000000"
     class="Stem" />
  <path
     id="path2034"
     d="m 2683.1681,511.795 h 33.6 v 45 h -33.6 v -45"
     fill-rule="evenodd"
     fill="#ffffff"
     class="Note" />
  <path
     id="path2036"
     d="m 2708.5281,544.365 c -2.23,3.46 -5.1901,5.18 -8.8601,5.18 -3.6799,0 -6.63,-1.76 -8.86,-5.28 -2.23,-3.53 -3.35,-8.06 -3.35,-13.61 0,-5.22 1.12,-9.58 3.35,-13.09 2.23,-3.51 5.25,-5.27 9.08,-5.27 3.53,0 6.41,1.73 8.64,5.18 2.23,3.46 3.34,7.96 3.34,13.51 0,5.47 -1.11,9.93 -3.34,13.38 m -8.8201,-30.66 c -4.6999,0 -7.06,5.81 -7.06,17.44 0,11.34 2.3401,17.01 7.02,17.01 4.6701,0 7.0101,-5.69 7.0101,-17.07 0,-5.65 -0.59,-9.96 -1.7801,-12.93 -1.19,-2.97 -2.92,-4.45 -5.19,-4.45"
     class="Note" />
  <path
     style="stroke-width:1.4"
     id="path2038"
     d="m 2699.0324,336.5263 c 15.1156,0 33.7314,-13.0157 33.7314,-26.3157 0,-7.9844 -6.8469,-13.1469 -16.8,-13.1469 -18.4844,0 -33.3158,12.7313 -33.3158,26.3157 0,8.2469 7.1313,13.1469 16.3844,13.1469"
     fill="#ffffff"
     class="Note" />
  <path
     style="stroke-width:1.4"
     id="path2040"
     d="m 2716.1169,296.9107 c -18.4845,0 -33.4689,12.7531 -33.4689,26.3156 0,8.4 7.1313,13.1687 16.3844,13.1687 15.1156,0 33.7314,-12.8844 33.7314,-26.3156 0,-7.9844 -6.8469,-13.1687 -16.6469,-13.1687 m -8.6845,33.7531 c -7.153,0 -11.7687,-5.0532 -11.7687,-13.4532 0,-8.4 4.6156,-13.4312 12.0531,-13.4312 5.7313,0 10.3469,3.2156 10.7844,9.2312 h -5.0531 c -0.8312,-3.3468 -2.6688,-4.7468 -5.6,-4.7468 -4.2,0 -6.8687,3.2156 -6.8687,9.1 0,5.5999 2.5375,8.8156 6.7375,8.8156 3.2155,0 5.3155,-1.5531 5.7312,-4.7688 h 5.1843 c -0.2843,5.8844 -4.6155,9.2532 -11.2,9.2532"
     class="Note" />
  <path
     id="path2042"
     d="m 2588.0981,466.795 h 33.6 v 45 h -33.6 v -45"
     fill-rule="evenodd"
     fill="#ffffff"
     class="Note" />
  <path
     id="path2044"
     d="m 2613.4581,499.365 c -2.23,3.46 -5.19,5.18 -8.8601,5.18 -3.6799,0 -6.63,-1.76 -8.86,-5.28 -2.23,-3.53 -3.35,-8.06 -3.35,-13.61 0,-5.22 1.12,-9.58 3.35,-13.09 2.23,-3.51 5.25,-5.27 9.08,-5.27 3.53,0 6.4099,1.73 8.6399,5.18 2.22,3.46 3.3401,7.96 3.3401,13.51 0,5.47 -1.12,9.93 -3.3401,13.38 m -8.82,-30.66 c -4.71,0 -7.06,5.81 -7.06,17.44 0,11.34 2.34,17.01 7.02,17.01 4.67,0 7.0101,-5.69 7.0101,-17.07 0,-5.65 -0.5901,-9.96 -1.7801,-12.93 -1.19,-2.97 -2.92,-4.45 -5.19,-4.45"
     class="Note" />
  <path
     style="stroke-width:1.4"
     id="path2046"
     d="m 2603.9624,301.5263 c 15.1157,0 33.7314,-13.0157 33.7314,-26.3157 0,-7.9844 -6.8469,-13.1469 -16.8,-13.1469 -18.4844,0 -33.3157,12.7313 -33.3157,26.3157 0,8.2469 7.1311,13.1469 16.3843,13.1469"
     fill="#ffffff"
     class="Note" />
  <path
     style="stroke-width:1.4"
     id="path2048"
     d="m 2621.0469,262.0637 c -18.4845,0 -33.4688,12.7313 -33.4688,26.3157 0,8.2469 7.2844,13.1469 16.3843,13.1469 15.1157,0 33.7314,-13.0157 33.7314,-26.3157 0,-7.9844 -6.8469,-13.1469 -16.6469,-13.1469 m 0,32.3313 h -18.4845 v -24.7844 h 17.9157 v 4.2 h -12.7313 v 5.7532 h 11.747 v 4.2 h -11.747 v 6.4312 h 13.3001 v 4.2"
     class="Note" />
  <path
     id="path2050"
     d="m 2493.0281,466.795 h 33.5999 v 45 h -33.5999 v -45"
     fill-rule="evenodd"
     fill="#ffffff"
     class="Note" />
  <path
     id="path2052"
     d="m 2500.3981,499.585 c 0.82,0 2.05,0.48 3.6999,1.46 1.64,0.97 3.0701,1.46 4.2801,1.46 1.9899,0 3.67,-0.77 5.04,-2.31 1.36,-1.53 2.04,-3.43 2.04,-5.69 0,-1.39 -0.24,-2.62 -0.72,-3.69 -0.49,-1.07 -1.11,-1.91 -1.86,-2.5 -0.7601,-0.59 -1.66,-1.08 -2.71,-1.45 -1.04,-0.38 -2.02,-0.62 -2.94,-0.72 -0.92,-0.11 -1.9,-0.16 -2.94,-0.16 v -0.7 c 1.2199,-0.44 2.27,-0.86 3.1599,-1.27 0.8801,-0.42 1.81,-0.97 2.7801,-1.68 0.9699,-0.7 1.71,-1.56 2.23,-2.57 0.52,-1.01 0.78,-2.16 0.78,-3.45 0,-1.7 -0.54,-3.09 -1.64,-4.16 -1.09,-1.08 -2.52,-1.62 -4.29,-1.62 -1.69,0 -3.17,0.46 -4.45,1.37 -1.27,0.92 -2.48,2.37 -3.6,4.35 l -0.8,-0.21 c 0.93,-2.56 2.2,-4.66 3.8,-6.29 1.6,-1.64 3.88,-2.46 6.83,-2.46 2.49,0 4.52,0.69 6.08,2.05 1.57,1.37 2.36,3.15 2.36,5.34 0,1.48 -0.38,2.78 -1.15,3.9 -0.76,1.11 -2.07,2.3 -3.93,3.56 2.15,0.94 3.84,2.13 5.07,3.58 1.22,1.44 1.83,3.52 1.83,6.21 0,3.83 -1.41,6.89 -4.24,9.18 -2.83,2.29 -6.38,3.43 -10.66,3.43 -1.88,0 -3.36,-0.27 -4.46,-0.83 -1.09,-0.56 -1.64,-1.31 -1.64,-2.24 0,-0.58 0.19,-1.04 0.57,-1.38 0.37,-0.34 0.87,-0.51 1.48,-0.51"
     class="Note" />
  <path
     style="stroke-width:1.4"
     id="path2054"
     d="m 2508.8924,266.5263 c 15.1157,0 33.7314,-13.0157 33.7314,-26.3157 0,-7.9844 -6.8469,-13.1469 -16.8,-13.1469 -18.4844,0 -33.3157,12.7313 -33.3157,26.3157 0,8.2469 7.1311,13.1469 16.3843,13.1469"
     fill="#ffffff"
     class="Note" />
  <path
     style="stroke-width:1.4"
     id="path2056"
     d="m 2525.9769,226.9107 c -18.4845,0 -33.4688,12.7531 -33.4688,26.3156 0,8.2687 7.2844,13.1687 16.5156,13.1687 14.9844,0 33.6,-13.0156 33.6,-26.3156 0,-7.9844 -6.8469,-13.1687 -16.6469,-13.1687 m -9.8,27.9999 c 3.0625,0 6.1469,-2.1 6.4312,-5.3156 h -5.7313 v -4.3312 h 10.2155 v 11.7468 l -3.2155,1.9688 -0.5688,-3.5 c -1.9687,2.6469 -4.3312,3.9156 -7.6999,3.9156 -6.8687,0 -11.9001,-5.4687 -11.9001,-13.1687 0,-7.9625 4.9001,-13.1469 12.3158,-13.1469 6.1685,0 10.3685,3.3469 11.0686,8.5312 h -4.9001 c -1.1154,-2.9312 -3.2154,-4.0468 -6.1685,-4.0468 -4.4844,0 -7.1315,3.0625 -7.1315,8.5312 0,5.3156 3.0845,8.8156 7.2846,8.8156"
     class="Note" />
  <path
     id="path2058"
     d="m 2397.9481,421.795 h 33.6 v 45 h -33.6 v -45"
     fill-rule="evenodd"
     fill="#ffffff"
     class="Note" />
  <path
     id="path2060"
     d="m 2405.3281,454.585 c 0.82,0 2.05,0.48 3.69,1.46 1.65,0.97 3.07,1.46 4.29,1.46 1.99,0 3.67,-0.77 5.03,-2.31 1.37,-1.53 2.05,-3.43 2.05,-5.69 0,-1.39 -0.24,-2.62 -0.72,-3.69 -0.49,-1.07 -1.11,-1.91 -1.86,-2.5 -0.76,-0.59 -1.66,-1.08 -2.71,-1.45 -1.04,-0.38 -2.03,-0.62 -2.94,-0.72 -0.92,-0.11 -1.9,-0.16 -2.94,-0.16 v -0.7 c 1.22,-0.44 2.27,-0.86 3.16,-1.27 0.88,-0.42 1.81,-0.97 2.78,-1.68 0.97,-0.7 1.71,-1.56 2.23,-2.57 0.52,-1.01 0.78,-2.16 0.78,-3.45 0,-1.7 -0.54,-3.09 -1.64,-4.16 -1.09,-1.08 -2.52,-1.62 -4.29,-1.62 -1.69,0 -3.17,0.46 -4.45,1.37 -1.28,0.92 -2.48,2.37 -3.6,4.35 l -0.8,-0.21 c 0.93,-2.56 2.19,-4.66 3.8,-6.29 1.6,-1.64 3.88,-2.46 6.83,-2.46 2.49,0 4.51,0.69 6.08,2.05 1.57,1.37 2.35,3.15 2.35,5.34 0,1.48 -0.38,2.78 -1.14,3.9 -0.76,1.11 -2.07,2.3 -3.93,3.56 2.15,0.94 3.84,2.13 5.07,3.58 1.22,1.44 1.83,3.52 1.83,6.21 0,3.83 -1.41,6.89 -4.24,9.18 -2.83,2.29 -6.38,3.43 -10.66,3.43 -1.88,0 -3.36,-0.27 -4.46,-0.83 -1.09,-0.56 -1.64,-1.31 -1.64,-2.24 0,-0.58 0.19,-1.04 0.56,-1.38 0.38,-0.34 0.87,-0.51 1.49,-0.51"
     class="Note" />
  <path
     style="stroke-width:1.4"
     id="path2062"
     d="m 2399.4224,214.0263 c 15.1157,0 33.7314,-13.0157 33.7314,-26.3157 0,-7.9844 -6.8469,-13.1469 -16.8,-13.1469 -18.4844,0 -33.3157,12.7313 -33.3157,26.3157 0,8.2469 7.1313,13.1469 16.3843,13.1469"
     fill="#ffffff"
     class="Note" />
  <path
     style="stroke-width:1.4"
     id="path2064"
     d="m 2416.5069,174.4107 c -18.4845,0 -33.4688,12.7531 -33.4688,26.3156 0,8.4 7.1313,13.1687 16.3843,13.1687 15.1157,0 33.7314,-12.8844 33.7314,-26.3156 0,-7.9844 -6.8469,-13.1687 -16.6469,-13.1687 m -8.6845,33.7531 c -7.153,0 -11.7687,-5.0532 -11.7687,-13.4532 0,-8.4 4.6157,-13.4312 12.0532,-13.4312 5.7312,0 10.3469,3.2156 10.7844,9.2312 h -5.0532 c -0.8312,-3.3468 -2.6687,-4.7468 -5.6,-4.7468 -4.2,0 -6.8687,3.2156 -6.8687,9.1 0,5.5999 2.5375,8.8156 6.7375,8.8156 3.2155,0 5.3155,-1.5531 5.7312,-4.7688 h 5.1843 c -0.2843,5.8844 -4.6155,9.2532 -11.2,9.2532"
     class="Note" />
  <path
     id="path2066"
     d="m 2255.4481,511.795 h 33.6 v 45 h -33.6 v -45"
     fill-rule="evenodd"
     fill="#ffffff"
     class="Note" />
  <path
     id="path2068"
     d="m 2280.8081,544.365 c -2.23,3.46 -5.18,5.18 -8.8601,5.18 -3.6799,0 -6.63,-1.76 -8.86,-5.28 -2.23,-3.53 -3.3401,-8.06 -3.3401,-13.61 0,-5.22 1.1101,-9.58 3.3401,-13.09 2.2301,-3.51 5.26,-5.27 9.0799,-5.27 3.5301,0 6.41,1.73 8.64,5.18 2.23,3.46 3.34,7.96 3.34,13.51 0,5.47 -1.11,9.93 -3.34,13.38 m -8.81,-30.66 c -4.71,0 -7.06,5.81 -7.06,17.44 0,11.34 2.33,17.01 7.0101,17.01 4.6799,0 7.02,-5.69 7.02,-17.07 0,-5.65 -0.6,-9.96 -1.7801,-12.93 -1.19,-2.97 -2.92,-4.45 -5.19,-4.45"
     class="Note" />
  <path
     style="stroke-width:1.4"
     id="path2070"
     d="m 2271.3124,336.5263 c 15.1156,0 33.7314,-13.0157 33.7314,-26.3157 0,-7.9844 -6.8469,-13.1469 -16.8,-13.1469 -18.4844,0 -33.3158,12.7313 -33.3158,26.3157 0,8.2469 7.1311,13.1469 16.3844,13.1469"
     fill="#ffffff"
     class="Note" />
  <path
     style="stroke-width:1.4"
     id="path2072"
     d="m 2288.3969,296.9107 c -18.4846,0 -33.4689,12.7531 -33.4689,26.3156 0,8.4 7.1311,13.1687 16.3844,13.1687 15.1156,0 33.7314,-12.8844 33.7314,-26.3156 0,-7.9844 -6.8469,-13.1687 -16.6469,-13.1687 m -8.6845,33.7531 c -7.153,0 -11.7687,-5.0532 -11.7687,-13.4532 0,-8.4 4.6156,-13.4312 12.0531,-13.4312 5.7313,0 10.3469,3.2156 10.7844,9.2312 h -5.0531 c -0.8312,-3.3468 -2.6688,-4.7468 -5.6,-4.7468 -4.2,0 -6.8687,3.2156 -6.8687,9.1 0,5.5999 2.5375,8.8156 6.7375,8.8156 3.2155,0 5.3155,-1.5531 5.7312,-4.7688 h 5.1843 c -0.2843,5.8844 -4.6155,9.2532 -11.2,9.2532"
     class="Note" />
  <path
     id="path2074"
     d="m 2160.3781,466.795 h 33.6 v 45 h -33.6 v -45"
     fill-rule="evenodd"
     fill="#ffffff"
     class="Note" />
  <path
     id="path2076"
     d="m 2185.7381,499.365 c -2.23,3.46 -5.18,5.18 -8.8601,5.18 -3.6799,0 -6.63,-1.76 -8.86,-5.28 -2.23,-3.53 -3.34,-8.06 -3.34,-13.61 0,-5.22 1.11,-9.58 3.34,-13.09 2.23,-3.51 5.2601,-5.27 9.08,-5.27 3.53,0 6.41,1.73 8.64,5.18 2.23,3.46 3.34,7.96 3.34,13.51 0,5.47 -1.11,9.93 -3.34,13.38 m -8.81,-30.66 c -4.71,0 -7.07,5.81 -7.07,17.44 0,11.34 2.34,17.01 7.0199,17.01 4.68,0 7.02,-5.69 7.02,-17.07 0,-5.65 -0.5999,-9.96 -1.7899,-12.93 -1.18,-2.97 -2.91,-4.45 -5.18,-4.45"
     class="Note" />
  <path
     style="stroke-width:1.4"
     id="path2078"
     d="m 2176.2424,301.5263 c 15.1156,0 33.7314,-13.0157 33.7314,-26.3157 0,-7.9844 -6.8469,-13.1469 -16.8,-13.1469 -18.4844,0 -33.3158,12.7313 -33.3158,26.3157 0,8.2469 7.1313,13.1469 16.3844,13.1469"
     fill="#ffffff"
     class="Note" />
  <path
     style="stroke-width:1.4"
     id="path2080"
     d="m 2193.3269,262.0637 c -18.4845,0 -33.4689,12.7313 -33.4689,26.3157 0,8.2469 7.2844,13.1469 16.3844,13.1469 15.1156,0 33.7314,-13.0157 33.7314,-26.3157 0,-7.9844 -6.8469,-13.1469 -16.6469,-13.1469 m 0,32.3313 h -18.4845 v -24.7844 h 17.9157 v 4.2 h -12.7313 v 5.7532 h 11.7469 v 4.2 h -11.7469 v 6.4312 h 13.3001 v 4.2"
     class="Note" />
  <path
     id="path2082"
     d="m 2065.3081,466.795 h 33.5999 v 45 h -33.5999 v -45"
     fill-rule="evenodd"
     fill="#ffffff"
     class="Note" />
  <path
     id="path2084"
     d="m 2072.6781,499.585 c 0.83,0 2.06,0.48 3.6999,1.46 1.64,0.97 3.0701,1.46 4.29,1.46 1.99,0 3.67,-0.77 5.0301,-2.31 1.36,-1.53 2.05,-3.43 2.05,-5.69 0,-1.39 -0.25,-2.62 -0.73,-3.69 -0.48,-1.07 -1.1,-1.91 -1.86,-2.5 -0.75,-0.59 -1.66,-1.08 -2.7,-1.45 -1.05,-0.38 -2.03,-0.62 -2.95,-0.72 -0.91,-0.11 -1.89,-0.16 -2.94,-0.16 v -0.7 c 1.22,-0.44 2.28,-0.86 3.16,-1.27 0.89,-0.42 1.81,-0.97 2.78,-1.68 0.97,-0.7 1.72,-1.56 2.24,-2.57 0.52,-1.01 0.78,-2.16 0.78,-3.45 0,-1.7 -0.55,-3.09 -1.64,-4.16 -1.1,-1.08 -2.53,-1.62 -4.3,-1.62 -1.69,0 -3.17,0.46 -4.44,1.37 -1.28,0.92 -2.48,2.37 -3.61,4.35 l -0.79,-0.21 c 0.92,-2.56 2.19,-4.66 3.79,-6.29 1.61,-1.64 3.88,-2.46 6.83,-2.46 2.4899,0 4.52,0.69 6.09,2.05 1.57,1.37 2.35,3.15 2.35,5.34 0,1.48 -0.38,2.78 -1.14,3.9 -0.76,1.11 -2.07,2.3 -3.94,3.56 2.16,0.94 3.85,2.13 5.07,3.58 1.23,1.44 1.84,3.52 1.84,6.21 0,3.83 -1.42,6.89 -4.24,9.18 -2.83,2.29 -6.39,3.43 -10.67,3.43 -1.87,0 -3.36,-0.27 -4.45,-0.83 -1.1,-0.56 -1.64,-1.31 -1.64,-2.24 0,-0.58 0.18,-1.04 0.56,-1.38 0.37,-0.34 0.87,-0.51 1.48,-0.51"
     class="Note" />
  <path
     style="stroke-width:1.4"
     id="path2086"
     d="m 2081.1724,266.5263 c 15.1157,0 33.7314,-13.0157 33.7314,-26.3157 0,-7.9844 -6.8469,-13.1469 -16.8,-13.1469 -18.4844,0 -33.3157,12.7313 -33.3157,26.3157 0,8.2469 7.1313,13.1469 16.3843,13.1469"
     fill="#ffffff"
     class="Note" />
  <path
     style="stroke-width:1.4"
     id="path2088"
     d="m 2098.2569,226.9107 c -18.4845,0 -33.4688,12.7531 -33.4688,26.3156 0,8.2687 7.2844,13.1687 16.5156,13.1687 14.9844,0 33.6,-13.0156 33.6,-26.3156 0,-7.9844 -6.8469,-13.1687 -16.647,-13.1687 m -9.8,27.9999 c 3.0625,0 6.1469,-2.1 6.4312,-5.3156 h -5.7312 v -4.3312 h 10.2155 v 11.7468 l -3.2155,1.9688 -0.5688,-3.5 c -1.9687,2.6469 -4.3312,3.9156 -7.7,3.9156 -6.8687,0 -11.9,-5.4687 -11.9,-13.1687 0,-7.9625 4.9,-13.1469 12.3157,-13.1469 6.1686,0 10.3686,3.3469 11.0686,8.5312 h -4.9 c -1.1155,-2.9312 -3.2155,-4.0468 -6.1686,-4.0468 -4.4844,0 -7.1314,3.0625 -7.1314,8.5312 0,5.3156 3.0845,8.8156 7.2845,8.8156"
     class="Note" />
  <path
     id="path2090"
     d="m 1970.2381,421.795 h 33.5999 v 45 h -33.5999 v -45"
     fill-rule="evenodd"
     fill="#ffffff"
     class="Note" />
  <path
     id="path2092"
     d="m 1977.608,454.585 c 0.8299,0 2.0599,0.48 3.7001,1.46 1.64,0.97 3.0698,1.46 4.2899,1.46 1.99,0 3.6601,-0.77 5.0299,-2.31 1.36,-1.53 2.05,-3.43 2.05,-5.69 0,-1.39 -0.25,-2.62 -0.73,-3.69 -0.49,-1.07 -1.0999,-1.91 -1.8599,-2.5 -0.76,-0.59 -1.6601,-1.08 -2.7001,-1.45 -1.0499,-0.38 -2.0299,-0.62 -2.95,-0.72 -0.92,-0.11 -1.89,-0.16 -2.94,-0.16 v -0.7 c 1.22,-0.44 2.27,-0.86 3.16,-1.27 0.8902,-0.42 1.81,-0.97 2.78,-1.68 0.97,-0.7 1.72,-1.56 2.24,-2.57 0.52,-1.01 0.78,-2.16 0.78,-3.45 0,-1.7 -0.55,-3.09 -1.64,-4.16 -1.1,-1.08 -2.53,-1.62 -4.3,-1.62 -1.69,0 -3.17,0.46 -4.45,1.37 -1.27,0.92 -2.47,2.37 -3.6,4.35 l -0.79,-0.21 c 0.9201,-2.56 2.1901,-4.66 3.79,-6.29 1.61,-1.64 3.8801,-2.46 6.83,-2.46 2.49,0 4.52,0.69 6.09,2.05 1.56,1.37 2.35,3.15 2.35,5.34 0,1.48 -0.38,2.78 -1.14,3.9 -0.76,1.11 -2.08,2.3 -3.94,3.56 2.16,0.94 3.85,2.13 5.07,3.58 1.22,1.44 1.84,3.52 1.84,6.21 0,3.83 -1.42,6.89 -4.25,9.18 -2.82,2.29 -6.38,3.43 -10.66,3.43 -1.87,0 -3.36,-0.27 -4.45,-0.83 -1.1,-0.56 -1.64,-1.31 -1.64,-2.24 0,-0.58 0.18,-1.04 0.56,-1.38 0.37,-0.34 0.87,-0.51 1.48,-0.51"
     class="Note" />
  <path
     style="stroke-width:1.4"
     id="path2094"
     d="m 1971.7022,214.0263 c 15.1159,0 33.7314,-13.0157 33.7314,-26.3157 0,-7.9844 -6.8469,-13.1469 -16.8,-13.1469 -18.4844,0 -33.3157,12.7313 -33.3157,26.3157 0,8.2469 7.1313,13.1469 16.3843,13.1469"
     fill="#ffffff"
     class="Note" />
  <path
     style="stroke-width:1.4"
     id="path2096"
     d="m 1988.7869,174.4107 c -18.4845,0 -33.4688,12.7531 -33.4688,26.3156 0,8.4 7.1313,13.1687 16.3841,13.1687 15.1159,0 33.7314,-12.8844 33.7314,-26.3156 0,-7.9844 -6.8469,-13.1687 -16.6469,-13.1687 m -8.6845,33.7531 c -7.153,0 -11.7687,-5.0532 -11.7687,-13.4532 0,-8.4 4.6157,-13.4312 12.0532,-13.4312 5.7312,0 10.3469,3.2156 10.7844,9.2312 h -5.0532 c -0.8312,-3.3468 -2.6687,-4.7468 -5.6,-4.7468 -4.2,0 -6.8687,3.2156 -6.8687,9.1 0,5.5999 2.5375,8.8156 6.7375,8.8156 3.2155,0 5.3155,-1.5531 5.7312,-4.7688 h 5.1843 c -0.2843,5.8844 -4.6155,9.2532 -11.2,9.2532"
     class="Note" />
  <path
     id="path2098"
     d="m 1827.7381,511.795 h 33.5999 v 45 h -33.5999 v -45"
     fill-rule="evenodd"
     fill="#ffffff"
     class="Note" />
  <path
     id="path2100"
     d="m 1853.088,544.365 c -2.22,3.46 -5.1801,5.18 -8.8499,5.18 -3.68,0 -6.6301,-1.76 -8.86,-5.28 -2.23,-3.53 -3.35,-8.06 -3.35,-13.61 0,-5.22 1.12,-9.58 3.35,-13.09 2.23,-3.51 5.25,-5.27 9.07,-5.27 3.54,0 6.42,1.73 8.64,5.18 2.23,3.46 3.35,7.96 3.35,13.51 0,5.47 -1.12,9.93 -3.35,13.38 m -8.81,-30.66 c -4.71,0 -7.06,5.81 -7.06,17.44 0,11.34 2.34,17.01 7.02,17.01 4.67,0 7.01,-5.69 7.01,-17.07 0,-5.65 -0.59,-9.96 -1.78,-12.93 -1.19,-2.97 -2.92,-4.45 -5.19,-4.45"
     class="Note" />
  <path
     style="stroke-width:1.4"
     id="path2102"
     d="m 1843.6024,336.5263 c 15.1157,0 33.7312,-13.0157 33.7312,-26.3157 0,-7.9844 -6.8469,-13.1469 -16.7999,-13.1469 -18.4845,0 -33.3158,12.7313 -33.3158,26.3157 0,8.2469 7.1313,13.1469 16.3843,13.1469"
     fill="#ffffff"
     class="Note" />
  <path
     style="stroke-width:1.4"
     id="path2104"
     d="m 1860.6868,296.9107 c -18.4846,0 -33.4689,12.7531 -33.4689,26.3156 0,8.4 7.1313,13.1687 16.3843,13.1687 15.1157,0 33.7314,-12.8844 33.7314,-26.3156 0,-7.9844 -6.8469,-13.1687 -16.6469,-13.1687 m -8.6845,33.7531 c -7.153,0 -11.7687,-5.0532 -11.7687,-13.4532 0,-8.4 4.6157,-13.4312 12.0532,-13.4312 5.7312,0 10.3469,3.2156 10.7844,9.2312 h -5.0532 c -0.8312,-3.3468 -2.6687,-4.7468 -5.6,-4.7468 -4.2,0 -6.8687,3.2156 -6.8687,9.1 0,5.5999 2.5375,8.8156 6.7375,8.8156 3.2155,0 5.3155,-1.5531 5.7312,-4.7688 h 5.1843 c -0.2843,5.8844 -4.6155,9.2532 -11.2,9.2532"
     class="Note" />
  <path
     id="path2106"
     d="m 1732.6579,466.795 h 33.6 v 45 h -33.6 v -45"
     fill-rule="evenodd"
     fill="#ffffff"
     class="Note" />
  <path
     id="path2108"
     d="m 1758.0181,499.365 c -2.23,3.46 -5.1801,5.18 -8.86,5.18 -3.67,0 -6.63,-1.76 -8.85,-5.28 -2.23,-3.53 -3.35,-8.06 -3.35,-13.61 0,-5.22 1.12,-9.58 3.35,-13.09 2.22,-3.51 5.25,-5.27 9.07,-5.27 3.53,0 6.41,1.73 8.64,5.18 2.23,3.46 3.35,7.96 3.35,13.51 0,5.47 -1.12,9.93 -3.35,13.38 m -8.81,-30.66 c -4.71,0 -7.06,5.81 -7.06,17.44 0,11.34 2.34,17.01 7.01,17.01 4.68,0 7.02,-5.69 7.02,-17.07 0,-5.65 -0.59,-9.96 -1.78,-12.93 -1.19,-2.97 -2.92,-4.45 -5.19,-4.45"
     class="Note" />
  <path
     style="stroke-width:1.4"
     id="path2110"
     d="m 1748.5224,301.5263 c 15.1157,0 33.7313,-13.0157 33.7313,-26.3157 0,-7.9844 -6.8469,-13.1469 -16.7999,-13.1469 -18.4845,0 -33.3159,12.7313 -33.3159,26.3157 0,8.2469 7.1313,13.1469 16.3843,13.1469"
     fill="#ffffff"
     class="Note" />
  <path
     style="stroke-width:1.4"
     id="path2112"
     d="m 1765.6069,262.0637 c -18.4845,0 -33.469,12.7313 -33.469,26.3157 0,8.2469 7.2844,13.1469 16.3843,13.1469 15.1157,0 33.7314,-13.0157 33.7314,-26.3157 0,-7.9844 -6.8469,-13.1469 -16.6469,-13.1469 m 0,32.3313 h -18.4845 v -24.7844 h 17.9157 v 4.2 h -12.7312 v 5.7532 h 11.7469 v 4.2 h -11.7469 v 6.4312 h 13.3 v 4.2"
     class="Note" />
  <path
     id="path2114"
     d="m 1637.588,466.795 h 33.5999 v 45 h -33.5999 v -45"
     fill-rule="evenodd"
     fill="#ffffff"
     class="Note" />
  <path
     id="path2116"
     d="m 1644.9681,499.585 c 0.82,0 2.05,0.48 3.69,1.46 1.64,0.97 3.07,1.46 4.29,1.46 1.99,0 3.67,-0.77 5.03,-2.31 1.3699,-1.53 2.05,-3.43 2.05,-5.69 0,-1.39 -0.24,-2.62 -0.73,-3.69 -0.48,-1.07 -1.1,-1.91 -1.86,-2.5 -0.75,-0.59 -1.65,-1.08 -2.7,-1.45 -1.05,-0.38 -2.03,-0.62 -2.94,-0.72 -0.9202,-0.11 -1.9002,-0.16 -2.9401,-0.16 v -0.7 c 1.22,-0.44 2.2699,-0.86 3.1601,-1.27 0.88,-0.42 1.8099,-0.97 2.78,-1.68 0.97,-0.7 1.71,-1.56 2.23,-2.57 0.52,-1.01 0.78,-2.16 0.78,-3.45 0,-1.7 -0.54,-3.09 -1.6402,-4.16 -1.0899,-1.08 -2.52,-1.62 -4.2999,-1.62 -1.6801,0 -3.1601,0.46 -4.4401,1.37 -1.28,0.92 -2.48,2.37 -3.5999,4.35 l -0.7999,-0.21 c 0.93,-2.56 2.19,-4.66 3.7999,-6.29 1.5999,-1.64 3.8801,-2.46 6.8299,-2.46 2.49,0 4.51,0.69 6.08,2.05 1.57,1.37 2.35,3.15 2.35,5.34 0,1.48 -0.38,2.78 -1.14,3.9 -0.76,1.11 -2.07,2.3 -3.93,3.56 2.15,0.94 3.84,2.13 5.07,3.58 1.22,1.44 1.83,3.52 1.83,6.21 0,3.83 -1.41,6.89 -4.24,9.18 -2.83,2.29 -6.38,3.43 -10.66,3.43 -1.88,0 -3.36,-0.27 -4.46,-0.83 -1.09,-0.56 -1.64,-1.31 -1.64,-2.24 0,-0.58 0.19,-1.04 0.56,-1.38 0.38,-0.34 0.87,-0.51 1.49,-0.51"
     class="Note" />
  <path
     style="stroke-width:1.4"
     id="path2118"
     d="m 1653.4522,266.5263 c 15.1159,0 33.7314,-13.0157 33.7314,-26.3157 0,-7.9844 -6.8469,-13.1469 -16.8,-13.1469 -18.4844,0 -33.3157,12.7313 -33.3157,26.3157 0,8.2469 7.1312,13.1469 16.3843,13.1469"
     fill="#ffffff"
     class="Note" />
  <path
     style="stroke-width:1.4"
     id="path2120"
     d="m 1670.5369,226.9107 c -18.4845,0 -33.4688,12.7531 -33.4688,26.3156 0,8.2687 7.2844,13.1687 16.5155,13.1687 14.9845,0 33.6,-13.0156 33.6,-26.3156 0,-7.9844 -6.8469,-13.1687 -16.6469,-13.1687 m -9.8,27.9999 c 3.0625,0 6.1469,-2.1 6.4312,-5.3156 h -5.7311 v -4.3312 h 10.2155 v 11.7468 l -3.2155,1.9688 -0.5688,-3.5 c -1.9686,2.6469 -4.3313,3.9156 -7.7001,3.9156 -6.8687,0 -11.9,-5.4687 -11.9,-13.1687 0,-7.9625 4.9,-13.1469 12.3157,-13.1469 6.1686,0 10.3686,3.3469 11.0687,8.5312 h -4.9001 c -1.1155,-2.9312 -3.2155,-4.0468 -6.1686,-4.0468 -4.4844,0 -7.1314,3.0625 -7.1314,8.5312 0,5.3156 3.0845,8.8156 7.2845,8.8156"
     class="Note" />
  <path
     id="path2122"
     d="m 1542.5181,421.795 h 33.5999 v 45 h -33.5999 v -45"
     fill-rule="evenodd"
     fill="#ffffff"
     class="Note" />
  <path
     id="path2124"
     d="m 1549.8979,454.585 c 0.82,0 2.05,0.48 3.6901,1.46 1.6401,0.97 3.0699,1.46 4.2899,1.46 1.9901,0 3.6702,-0.77 5.03,-2.31 1.37,-1.53 2.05,-3.43 2.05,-5.69 0,-1.39 -0.24,-2.62 -0.73,-3.69 -0.48,-1.07 -1.1,-1.91 -1.8599,-2.5 -0.75,-0.59 -1.6501,-1.08 -2.7001,-1.45 -1.0499,-0.38 -2.03,-0.62 -2.94,-0.72 -0.92,-0.11 -1.9,-0.16 -2.94,-0.16 v -0.7 c 1.22,-0.44 2.27,-0.86 3.15,-1.27 0.8901,-0.42 1.82,-0.97 2.79,-1.68 0.96,-0.7 1.71,-1.56 2.23,-2.57 0.52,-1.01 0.78,-2.16 0.78,-3.45 0,-1.7 -0.55,-3.09 -1.64,-4.16 -1.09,-1.08 -2.53,-1.62 -4.3,-1.62 -1.68,0 -3.17,0.46 -4.44,1.37 -1.28,0.92 -2.48,2.37 -3.6,4.35 l -0.8,-0.21 c 0.93,-2.56 2.19,-4.66 3.8,-6.29 1.6,-1.64 3.88,-2.46 6.82,-2.46 2.49,0 4.52,0.69 6.09,2.05 1.57,1.37 2.35,3.15 2.35,5.34 0,1.48 -0.38,2.78 -1.14,3.9 -0.76,1.11 -2.07,2.3 -3.94,3.56 2.16,0.94 3.85,2.13 5.07,3.58 1.23,1.44 1.84,3.52 1.84,6.21 0,3.83 -1.41,6.89 -4.24,9.18 -2.83,2.29 -6.38,3.43 -10.67,3.43 -1.87,0 -3.36,-0.27 -4.45,-0.83 -1.09,-0.56 -1.64,-1.31 -1.64,-2.24 0,-0.58 0.19,-1.04 0.56,-1.38 0.38,-0.34 0.87,-0.51 1.49,-0.51"
     class="Note" />
  <path
     style="stroke-width:1.4"
     id="path2126"
     d="m 1543.9922,214.0263 c 15.1158,0 33.7314,-13.0157 33.7314,-26.3157 0,-7.9844 -6.8469,-13.1469 -16.8,-13.1469 -18.4844,0 -33.3157,12.7313 -33.3157,26.3157 0,8.2469 7.1312,13.1469 16.3843,13.1469"
     fill="#ffffff"
     class="Note" />
  <path
     style="stroke-width:1.4"
     id="path2128"
     d="m 1561.0769,174.4107 c -18.4845,0 -33.4689,12.7531 -33.4689,26.3156 0,8.4 7.1313,13.1687 16.3842,13.1687 15.1158,0 33.7314,-12.8844 33.7314,-26.3156 0,-7.9844 -6.8469,-13.1687 -16.6469,-13.1687 m -8.6845,33.7531 c -7.153,0 -11.7687,-5.0532 -11.7687,-13.4532 0,-8.4 4.6157,-13.4312 12.0532,-13.4312 5.7312,0 10.3469,3.2156 10.7844,9.2312 h -5.0532 c -0.8312,-3.3468 -2.6687,-4.7468 -5.6,-4.7468 -4.2,0 -6.8687,3.2156 -6.8687,9.1 0,5.5999 2.5375,8.8156 6.7375,8.8156 3.2155,0 5.3155,-1.5531 5.7312,-4.7688 h 5.1843 c -0.2843,5.8844 -4.6155,9.2532 -11.2,9.2532"
     class="Note" />
  <path
     id="path2130"
     d="m 1400.0181,511.795 h 33.5999 v 45 h -33.5999 v -45"
     fill-rule="evenodd"
     fill="#ffffff"
     class="Note" />
  <path
     id="path2132"
     d="m 1425.3779,544.365 c -2.23,3.46 -5.18,5.18 -8.8598,5.18 -3.6801,0 -6.6302,-1.76 -8.86,-5.28 -2.23,-3.53 -3.34,-8.06 -3.34,-13.61 0,-5.22 1.11,-9.58 3.34,-13.09 2.23,-3.51 5.26,-5.27 9.08,-5.27 3.53,0 6.41,1.73 8.64,5.18 2.23,3.46 3.34,7.96 3.34,13.51 0,5.47 -1.11,9.93 -3.34,13.38 m -8.81,-30.66 c -4.71,0 -7.07,5.81 -7.07,17.44 0,11.34 2.34,17.01 7.02,17.01 4.68,0 7.02,-5.69 7.02,-17.07 0,-5.65 -0.6,-9.96 -1.79,-12.93 -1.18,-2.97 -2.91,-4.45 -5.18,-4.45"
     class="Note" />
  <path
     style="stroke-width:1.4"
     id="path2134"
     d="m 1415.8824,336.5263 c 15.1157,0 33.7312,-13.0157 33.7312,-26.3157 0,-7.9844 -6.8469,-13.1469 -16.8,-13.1469 -18.4844,0 -33.3157,12.7313 -33.3157,26.3157 0,8.2469 7.1313,13.1469 16.3843,13.1469"
     fill="#ffffff"
     class="Note" />
  <path
     style="stroke-width:1.4"
     id="path2136"
     d="m 1432.9667,296.9107 c -18.4845,0 -33.4688,12.7531 -33.4688,26.3156 0,8.4 7.1313,13.1687 16.3843,13.1687 15.1157,0 33.7314,-12.8844 33.7314,-26.3156 0,-7.9844 -6.8469,-13.1687 -16.6469,-13.1687 m -8.6845,33.7531 c -7.153,0 -11.7687,-5.0532 -11.7687,-13.4532 0,-8.4 4.6157,-13.4312 12.0532,-13.4312 5.7312,0 10.3469,3.2156 10.7844,9.2312 h -5.0532 c -0.8312,-3.3468 -2.6687,-4.7468 -5.6,-4.7468 -4.2,0 -6.8687,3.2156 -6.8687,9.1 0,5.5999 2.5375,8.8156 6.7375,8.8156 3.2155,0 5.3155,-1.5531 5.7312,-4.7688 h 5.1843 c -0.2843,5.8844 -4.6155,9.2532 -11.2,9.2532"
     class="Note" />
  <path
     id="path2138"
     d="m 1304.9481,466.795 h 33.6 v 45 h -33.6 v -45"
     fill-rule="evenodd"
     fill="#ffffff"
     class="Note" />
  <path
     id="path2140"
     d="m 1330.3081,499.365 c -2.2301,3.46 -5.1802,5.18 -8.86,5.18 -3.68,0 -6.63,-1.76 -8.86,-5.28 -2.23,-3.53 -3.34,-8.06 -3.34,-13.61 0,-5.22 1.11,-9.58 3.34,-13.09 2.23,-3.51 5.25,-5.27 9.08,-5.27 3.53,0 6.41,1.73 8.64,5.18 2.23,3.46 3.34,7.96 3.34,13.51 0,5.47 -1.11,9.93 -3.34,13.38 m -8.81,-30.66 c -4.71,0 -7.07,5.81 -7.07,17.44 0,11.34 2.34,17.01 7.02,17.01 4.68,0 7.01,-5.69 7.01,-17.07 0,-5.65 -0.59,-9.96 -1.78,-12.93 -1.18,-2.97 -2.91,-4.45 -5.18,-4.45"
     class="Note" />
  <path
     style="stroke-width:1.4"
     id="path2142"
     d="m 1320.8124,301.5263 c 15.1157,0 33.7313,-13.0157 33.7313,-26.3157 0,-7.9844 -6.8469,-13.1469 -16.7999,-13.1469 -18.4845,0 -33.3159,12.7313 -33.3159,26.3157 0,8.2469 7.1313,13.1469 16.3843,13.1469"
     fill="#ffffff"
     class="Note" />
  <path
     style="stroke-width:1.4"
     id="path2144"
     d="m 1337.8969,262.0637 c -18.4846,0 -33.469,12.7313 -33.469,26.3157 0,8.2469 7.2844,13.1469 16.3843,13.1469 15.1157,0 33.7314,-13.0157 33.7314,-26.3157 0,-7.9844 -6.8469,-13.1469 -16.6469,-13.1469 m 0,32.3313 h -18.4845 v -24.7844 h 17.9157 v 4.2 h -12.7312 v 5.7532 h 11.7469 v 4.2 h -11.7469 v 6.4312 h 13.3 v 4.2"
     class="Note" />
  <path
     id="path2146"
     d="m 1209.8779,466.795 h 33.6 v 45 h -33.6 v -45"
     fill-rule="evenodd"
     fill="#ffffff"
     class="Note" />
  <path
     id="path2148"
     d="m 1217.2481,499.585 c 0.8299,0 2.06,0.48 3.7,1.46 1.64,0.97 3.07,1.46 4.29,1.46 1.99,0 3.66,-0.77 5.03,-2.31 1.3598,-1.53 2.04,-3.43 2.04,-5.69 0,-1.39 -0.24,-2.62 -0.7201,-3.69 -0.49,-1.07 -1.1099,-1.91 -1.8599,-2.5 -0.76,-0.59 -1.66,-1.08 -2.7,-1.45 -1.05,-0.38 -2.03,-0.62 -2.9501,-0.72 -0.9201,-0.11 -1.9001,-0.16 -2.9401,-0.16 v -0.7 c 1.2201,-0.44 2.27,-0.86 3.1602,-1.27 0.88,-0.42 1.8099,-0.97 2.7799,-1.68 0.9701,-0.7 1.7101,-1.56 2.2301,-2.57 0.5299,-1.01 0.7899,-2.16 0.7899,-3.45 0,-1.7 -0.5499,-3.09 -1.6401,-4.16 -1.0999,-1.08 -2.53,-1.62 -4.3,-1.62 -1.69,0 -3.17,0.46 -4.45,1.37 -1.27,0.92 -2.47,2.37 -3.5999,4.35 l -0.7999,-0.21 c 0.93,-2.56 2.2,-4.66 3.7999,-6.29 1.6099,-1.64 3.8801,-2.46 6.8299,-2.46 2.49,0 4.52,0.69 6.09,2.05 1.56,1.37 2.35,3.15 2.35,5.34 0,1.48 -0.38,2.78 -1.14,3.9 -0.76,1.11 -2.08,2.3 -3.94,3.56 2.16,0.94 3.85,2.13 5.07,3.58 1.22,1.44 1.84,3.52 1.84,6.21 0,3.83 -1.42,6.89 -4.25,9.18 -2.82,2.29 -6.38,3.43 -10.66,3.43 -1.88,0 -3.36,-0.27 -4.45,-0.83 -1.1,-0.56 -1.64,-1.31 -1.64,-2.24 0,-0.58 0.18,-1.04 0.56,-1.38 0.37,-0.34 0.87,-0.51 1.48,-0.51"
     class="Note" />
  <path
     style="stroke-width:1.4"
     id="path2150"
     d="m 1225.7422,266.5263 c 15.1158,0 33.7314,-13.0157 33.7314,-26.3157 0,-7.9844 -6.8469,-13.1469 -16.8,-13.1469 -18.4844,0 -33.3157,12.7313 -33.3157,26.3157 0,8.2469 7.1312,13.1469 16.3843,13.1469"
     fill="#ffffff"
     class="Note" />
  <path
     style="stroke-width:1.4"
     id="path2152"
     d="m 1242.8269,226.9107 c -18.4845,0 -33.4689,12.7531 -33.4689,26.3156 0,8.2687 7.2844,13.1687 16.5156,13.1687 14.9844,0 33.6,-13.0156 33.6,-26.3156 0,-7.9844 -6.8469,-13.1687 -16.6469,-13.1687 m -9.8,27.9999 c 3.0625,0 6.1469,-2.1 6.4312,-5.3156 h -5.7312 v -4.3312 h 10.2155 v 11.7468 l -3.2155,1.9688 -0.5688,-3.5 c -1.9685,2.6469 -4.3312,3.9156 -7.7,3.9156 -6.8687,0 -11.9,-5.4687 -11.9,-13.1687 0,-7.9625 4.9,-13.1469 12.3157,-13.1469 6.1686,0 10.3686,3.3469 11.0686,8.5312 h -4.9 c -1.1155,-2.9312 -3.2155,-4.0468 -6.1686,-4.0468 -4.4844,0 -7.1314,3.0625 -7.1314,8.5312 0,5.3156 3.0845,8.8156 7.2845,8.8156"
     class="Note" />
  <path
     id="path2154"
     d="m 1114.8081,421.795 h 33.5998 v 45 h -33.5998 v -45"
     fill-rule="evenodd"
     fill="#ffffff"
     class="Note" />
  <path
     id="path2156"
     d="m 1122.178,454.585 c 0.82,0 2.06,0.48 3.7,1.46 1.6401,0.97 3.07,1.46 4.29,1.46 1.99,0 3.6601,-0.77 5.03,-2.31 1.36,-1.53 2.04,-3.43 2.04,-5.69 0,-1.39 -0.24,-2.62 -0.72,-3.69 -0.49,-1.07 -1.11,-1.91 -1.86,-2.5 -0.76,-0.59 -1.66,-1.08 -2.71,-1.45 -1.04,-0.38 -2.02,-0.62 -2.94,-0.72 -0.9201,-0.11 -1.9001,-0.16 -2.94,-0.16 v -0.7 c 1.22,-0.44 2.2699,-0.86 3.16,-1.27 0.88,-0.42 1.81,-0.97 2.78,-1.68 0.97,-0.7 1.71,-1.56 2.23,-2.57 0.52,-1.01 0.79,-2.16 0.79,-3.45 0,-1.7 -0.55,-3.09 -1.6501,-4.16 -1.0899,-1.08 -2.52,-1.62 -4.29,-1.62 -1.69,0 -3.17,0.46 -4.45,1.37 -1.27,0.92 -2.47,2.37 -3.5999,4.35 l -0.8,-0.21 c 0.93,-2.56 2.2,-4.66 3.8,-6.29 1.6099,-1.64 3.88,-2.46 6.8299,-2.46 2.49,0 4.52,0.69 6.08,2.05 1.57,1.37 2.36,3.15 2.36,5.34 0,1.48 -0.38,2.78 -1.14,3.9 -0.76,1.11 -2.08,2.3 -3.94,3.56 2.15,0.94 3.84,2.13 5.07,3.58 1.22,1.44 1.83,3.52 1.83,6.21 0,3.83 -1.41,6.89 -4.24,9.18 -2.83,2.29 -6.38,3.43 -10.66,3.43 -1.88,0 -3.36,-0.27 -4.45,-0.83 -1.1,-0.56 -1.65,-1.31 -1.65,-2.24 0,-0.58 0.19,-1.04 0.57,-1.38 0.37,-0.34 0.87,-0.51 1.48,-0.51"
     class="Note" />
  <path
     style="stroke-width:1.4"
     id="path2158"
     d="m 1116.2724,214.0263 c 15.1157,0 33.7313,-13.0157 33.7313,-26.3157 0,-7.9844 -6.8469,-13.1469 -16.7999,-13.1469 -18.4845,0 -33.3159,12.7313 -33.3159,26.3157 0,8.2469 7.1313,13.1469 16.3843,13.1469"
     fill="#ffffff"
     class="Note" />
  <path
     style="stroke-width:1.4"
     id="path2160"
     d="m 1133.3569,174.4107 c -18.4845,0 -33.469,12.7531 -33.469,26.3156 0,8.4 7.1313,13.1687 16.3843,13.1687 15.1157,0 33.7314,-12.8844 33.7314,-26.3156 0,-7.9844 -6.8469,-13.1687 -16.6469,-13.1687 m -8.6845,33.7531 c -7.153,0 -11.7687,-5.0532 -11.7687,-13.4532 0,-8.4 4.6157,-13.4312 12.0532,-13.4312 5.7312,0 10.3469,3.2156 10.7844,9.2312 h -5.0532 c -0.8312,-3.3468 -2.6687,-4.7468 -5.6,-4.7468 -4.2,0 -6.8687,3.2156 -6.8687,9.1 0,5.5999 2.5375,8.8156 6.7375,8.8156 3.2155,0 5.3155,-1.5531 5.7312,-4.7688 h 5.1843 c -0.2843,5.8844 -4.6155,9.2532 -11.2,9.2532"
     class="Note" />
  <path
     id="path2162"
     d="m 972.298,511.795 h 33.6 v 45 h -33.6 v -45"
     fill-rule="evenodd"
     fill="#ffffff"
     class="Note" />
  <path
     id="path2164"
     d="m 997.658,544.365 c -2.23,3.46 -5.18,5.18 -8.86,5.18 -3.67,0 -6.63,-1.76 -8.86,-5.28 -2.22,-3.53 -3.34,-8.06 -3.34,-13.61 0,-5.22 1.12,-9.58 3.34,-13.09 2.23,-3.51 5.26,-5.27 9.08,-5.27 3.53,0 6.41,1.73 8.64,5.18 2.23004,3.46 3.35,7.96 3.35,13.51 0,5.47 -1.11996,9.93 -3.35,13.38 m -8.81,-30.66 c -4.71,0 -7.06,5.81 -7.06,17.44 0,11.34 2.34,17.01 7.01,17.01 4.68,0 7.02,-5.69 7.02,-17.07 0,-5.65 -0.59,-9.96 -1.78,-12.93 -1.19,-2.97 -2.92,-4.45 -5.19,-4.45"
     class="Note" />
  <path
     style="stroke-width:1.4"
     id="path2166"
     d="m 988.16234,336.5263 c 15.11566,0 33.73136,-13.0157 33.73136,-26.3157 0,-7.9844 -6.8469,-13.1469 -16.8,-13.1469 -18.48438,0 -33.3157,12.7313 -33.3157,26.3157 0,8.2469 7.13125,13.1469 16.38434,13.1469"
     fill="#ffffff"
     class="Note" />
  <path
     style="stroke-width:1.4"
     id="path2168"
     d="m 1005.2468,296.9107 c -18.48446,0 -33.4688,12.7531 -33.4688,26.3156 0,8.4 7.13125,13.1687 16.38434,13.1687 15.11566,0 33.73136,-12.8844 33.73136,-26.3156 0,-7.9844 -6.8469,-13.1687 -16.6469,-13.1687 m -8.68446,33.7531 c -7.15302,0 -11.76871,-5.0532 -11.76871,-13.4532 0,-8.4 4.61569,-13.4312 12.05319,-13.4312 5.73118,0 10.34688,3.2156 10.78438,9.2312 h -5.0532 c -0.8312,-3.3468 -2.66866,-4.7468 -5.6,-4.7468 -4.2,0 -6.86868,3.2156 -6.86868,9.1 0,5.5999 2.5375,8.8156 6.7375,8.8156 3.21548,0 5.31548,-1.5531 5.73118,-4.7688 h 5.1843 c -0.2844,5.8844 -4.6155,9.2532 -11.19996,9.2532"
     class="Note" />
  <path
     id="path2170"
     d="m 877.228,466.795 h 33.6 v 45 h -33.6 v -45"
     fill-rule="evenodd"
     fill="#ffffff"
     class="Note" />
  <path
     id="path2172"
     d="m 902.588,499.365 c -2.23,3.46 -5.18,5.18 -8.86,5.18 -3.67,0 -6.63,-1.76 -8.86,-5.28 -2.23,-3.53 -3.34,-8.06 -3.34,-13.61 0,-5.22 1.11,-9.58 3.34,-13.09 2.23,-3.51 5.26,-5.27 9.08,-5.27 3.53,0 6.41,1.73 8.64,5.18 2.23,3.46 3.35,7.96 3.35,13.51 0,5.47 -1.12,9.93 -3.35,13.38 m -8.81,-30.66 c -4.71,0 -7.06,5.81 -7.06,17.44 0,11.34 2.34,17.01 7.01,17.01 4.68,0 7.02,-5.69 7.02,-17.07 0,-5.65 -0.6,-9.96 -1.78,-12.93 -1.19,-2.97 -2.92,-4.45 -5.19,-4.45"
     class="Note" />
  <path
     style="stroke-width:1.4"
     id="path2174"
     d="m 893.09234,301.5263 c 15.11566,0 33.73132,-13.0157 33.73132,-26.3157 0,-7.9844 -6.84684,-13.1469 -16.8,-13.1469 -18.48434,0 -33.31566,12.7313 -33.31566,26.3157 0,8.2469 7.13125,13.1469 16.38434,13.1469"
     fill="#ffffff"
     class="Note" />
  <path
     style="stroke-width:1.4"
     id="path2176"
     d="m 910.17682,262.0637 c -18.48448,0 -33.46882,12.7313 -33.46882,26.3157 0,8.2469 7.28438,13.1469 16.38434,13.1469 15.11566,0 33.73132,-13.0157 33.73132,-26.3157 0,-7.9844 -6.84684,-13.1469 -16.64684,-13.1469 m 0,32.3313 H 891.69234 V 269.6106 H 909.608 v 4.2 h -12.73118 v 5.7532 h 11.74684 v 4.2 h -11.74684 v 6.4312 h 13.3 v 4.2"
     class="Note" />
  <path
     id="path2178"
     d="m 782.16,466.795 h 33.6 v 45 h -33.6 v -45"
     fill-rule="evenodd"
     fill="#ffffff"
     class="Note" />
  <path
     id="path2180"
     d="m 789.535,499.585 c 0.822,0 2.054,0.48 3.695,1.46 1.641,0.97 3.07,1.46 4.289,1.46 1.99,0 3.667,-0.77 5.031,-2.31 1.365,-1.53 2.047,-3.43 2.047,-5.69 0,-1.39 -0.242,-2.62 -0.726,-3.69 -0.485,-1.07 -1.105,-1.91 -1.86,-2.5 -0.755,-0.59 -1.656,-1.08 -2.703,-1.45 -1.047,-0.38 -2.029,-0.62 -2.945,-0.72 -0.917,-0.11 -1.896,-0.16 -2.938,-0.16 v -0.7 c 1.219,-0.44 2.271,-0.86 3.156,-1.27 0.886,-0.42 1.813,-0.97 2.782,-1.68 0.968,-0.7 1.713,-1.56 2.234,-2.57 0.521,-1.01 0.781,-2.16 0.781,-3.45 0,-1.7 -0.547,-3.09 -1.64,-4.16 -1.094,-1.08 -2.526,-1.62 -4.297,-1.62 -1.688,0 -3.169,0.46 -4.445,1.37 -1.277,0.92 -2.477,2.37 -3.602,4.35 l -0.797,-0.21 c 0.927,-2.56 2.193,-4.66 3.797,-6.29 1.604,-1.64 3.88,-2.46 6.828,-2.46 2.49,0 4.518,0.69 6.086,2.05 1.568,1.37 2.352,3.15 2.352,5.34 0,1.48 -0.381,2.78 -1.141,3.9 -0.76,1.11 -2.073,2.3 -3.938,3.56 2.157,0.94 3.847,2.13 5.071,3.58 1.224,1.44 1.836,3.52 1.836,6.21 0,3.83 -1.414,6.89 -4.242,9.18 -2.829,2.29 -6.383,3.43 -10.665,3.43 -1.875,0 -3.359,-0.27 -4.453,-0.83 -1.093,-0.56 -1.64,-1.31 -1.64,-2.24 0,-0.58 0.187,-1.04 0.562,-1.38 0.375,-0.34 0.87,-0.51 1.485,-0.51"
     class="Note" />
  <path
     style="stroke-width:1.4"
     id="path2182"
     d="m 798.02434,266.5263 c 15.11566,0 33.73132,-13.0157 33.73132,-26.3157 0,-7.9844 -6.84684,-13.1469 -16.8,-13.1469 -18.48434,0 -33.31566,12.7313 -33.31566,26.3157 0,8.2469 7.13125,13.1469 16.38434,13.1469"
     fill="#ffffff"
     class="Note" />
  <path
     style="stroke-width:1.4"
     id="path2184"
     d="m 815.10882,226.9107 c -18.48448,0 -33.46882,12.7531 -33.46882,26.3156 0,8.2687 7.28438,13.1687 16.51566,13.1687 14.98434,0 33.6,-13.0156 33.6,-26.3156 0,-7.9844 -6.84684,-13.1687 -16.64684,-13.1687 m -9.8,27.9999 c 3.0625,0 6.14684,-2.1 6.43118,-5.3156 h -5.73118 v -4.3312 h 10.21552 v 11.7468 l -3.21552,1.9688 -0.56882,-3.5 c -1.96868,2.6469 -4.33118,3.9156 -7.7,3.9156 -6.86868,0 -11.9,-5.4687 -11.9,-13.1687 0,-7.9625 4.9,-13.1469 12.31566,-13.1469 6.16868,0 10.36868,3.3469 11.06868,8.5312 h -4.9 c -1.11552,-2.9312 -3.21552,-4.0468 -6.16868,-4.0468 -4.48434,0 -7.13132,3.0625 -7.13132,8.5312 0,5.3156 3.08448,8.8156 7.28448,8.8156"
     class="Note" />
  <path
     id="path2186"
     d="m 687.089,421.795 h 33.6 v 45 h -33.6 v -45"
     fill-rule="evenodd"
     fill="#ffffff"
     class="Note" />
  <path
     id="path2188"
     d="m 694.464,454.585 c 0.822,0 2.054,0.48 3.695,1.46 1.64,0.97 3.07,1.46 4.289,1.46 1.99,0 3.667,-0.77 5.031,-2.31 1.365,-1.53 2.047,-3.43 2.047,-5.69 0,-1.39 -0.242,-2.62 -0.727,-3.69 -0.484,-1.07 -1.104,-1.91 -1.859,-2.5 -0.755,-0.59 -1.656,-1.08 -2.703,-1.45 -1.047,-0.38 -2.029,-0.62 -2.945,-0.72 -0.917,-0.11 -1.896,-0.16 -2.938,-0.16 v -0.7 c 1.219,-0.44 2.271,-0.86 3.156,-1.27 0.886,-0.42 1.813,-0.97 2.782,-1.68 0.968,-0.7 1.713,-1.56 2.234,-2.57 0.521,-1.01 0.781,-2.16 0.781,-3.45 0,-1.7 -0.547,-3.09 -1.64,-4.16 -1.094,-1.08 -2.526,-1.62 -4.297,-1.62 -1.688,0 -3.169,0.46 -4.446,1.37 -1.276,0.92 -2.476,2.37 -3.601,4.35 l -0.797,-0.21 c 0.927,-2.56 2.193,-4.66 3.797,-6.29 1.604,-1.64 3.88,-2.46 6.828,-2.46 2.49,0 4.518,0.69 6.086,2.05 1.568,1.37 2.352,3.15 2.352,5.34 0,1.48 -0.381,2.78 -1.141,3.9 -0.76,1.11 -2.073,2.3 -3.938,3.56 2.157,0.94 3.847,2.13 5.071,3.58 1.224,1.44 1.836,3.52 1.836,6.21 0,3.83 -1.414,6.89 -4.243,9.18 -2.828,2.29 -6.382,3.43 -10.664,3.43 -1.875,0 -3.359,-0.27 -4.453,-0.83 -1.093,-0.56 -1.64,-1.31 -1.64,-2.24 0,-0.58 0.187,-1.04 0.562,-1.38 0.375,-0.34 0.87,-0.51 1.485,-0.51"
     class="Note" />
  <path
     style="stroke-width:1.4"
     id="path2190"
     d="m 688.55734,214.0263 c 15.11566,0 33.73132,-13.0157 33.73132,-26.3157 0,-7.9844 -6.84684,-13.1469 -16.8,-13.1469 -18.48434,0 -33.31566,12.7313 -33.31566,26.3157 0,8.2469 7.13125,13.1469 16.38434,13.1469"
     fill="#ffffff"
     class="Note" />
  <path
     style="stroke-width:1.4"
     id="path2192"
     d="m 705.64182,174.4107 c -18.48448,0 -33.46882,12.7531 -33.46882,26.3156 0,8.4 7.13125,13.1687 16.38434,13.1687 15.11566,0 33.73132,-12.8844 33.73132,-26.3156 0,-7.9844 -6.84684,-13.1687 -16.64684,-13.1687 m -8.68448,33.7531 c -7.15302,0 -11.76871,-5.0532 -11.76871,-13.4532 0,-8.4 4.61569,-13.4312 12.05319,-13.4312 5.73118,0 10.34684,3.2156 10.78434,9.2312 H 702.973 c -0.83118,-3.3468 -2.66868,-4.7468 -5.6,-4.7468 -4.2,0 -6.86868,3.2156 -6.86868,9.1 0,5.5999 2.5375,8.8156 6.7375,8.8156 3.21552,0 5.31552,-1.5531 5.73118,-4.7688 h 5.18434 c -0.28434,5.8844 -4.61552,9.2532 -11.2,9.2532"
     class="Note" />
  <path
     id="path2194"
     d="m 544.586,511.795 h 33.6 v 45 h -33.6 v -45"
     fill-rule="evenodd"
     fill="#ffffff"
     class="Note" />
  <path
     id="path2196"
     d="m 569.945,544.365 c -2.229,3.46 -5.182,5.18 -8.859,5.18 -3.677,0 -6.631,-1.76 -8.86,-5.28 -2.229,-3.53 -3.343,-8.06 -3.343,-13.61 0,-5.22 1.114,-9.58 3.343,-13.09 2.229,-3.51 5.255,-5.27 9.078,-5.27 3.532,0 6.412,1.73 8.641,5.18 2.229,3.46 3.344,7.96 3.344,13.51 0,5.47 -1.115,9.93 -3.344,13.38 m -8.812,-30.66 c -4.709,0 -7.063,5.81 -7.063,17.44 0,11.34 2.339,17.01 7.016,17.01 4.677,0 7.015,-5.69 7.015,-17.07 0,-5.65 -0.593,-9.96 -1.781,-12.93 -1.187,-2.97 -2.917,-4.45 -5.187,-4.45"
     class="Note" />
  <path
     style="stroke-width:1.4"
     id="path2198"
     d="m 560.45034,336.5263 c 15.11566,0 33.73132,-13.0157 33.73132,-26.3157 0,-7.9844 -6.84684,-13.1469 -16.8,-13.1469 -18.48434,0 -33.31566,12.7313 -33.31566,26.3157 0,8.2469 7.13125,13.1469 16.38434,13.1469"
     fill="#ffffff"
     class="Note" />
  <path
     style="stroke-width:1.4"
     id="path2200"
     d="m 577.53482,296.9107 c -18.48448,0 -33.46882,12.7531 -33.46882,26.3156 0,8.4 7.13125,13.1687 16.38434,13.1687 15.11566,0 33.73132,-12.8844 33.73132,-26.3156 0,-7.9844 -6.84684,-13.1687 -16.64684,-13.1687 m -8.68448,33.7531 c -7.15302,0 -11.76871,-5.0532 -11.76871,-13.4532 0,-8.4 4.61569,-13.4312 12.05319,-13.4312 5.73118,0 10.34684,3.2156 10.78434,9.2312 H 574.866 c -0.83118,-3.3468 -2.66868,-4.7468 -5.6,-4.7468 -4.2,0 -6.86868,3.2156 -6.86868,9.1 0,5.5999 2.5375,8.8156 6.7375,8.8156 3.21552,0 5.31552,-1.5531 5.73118,-4.7688 h 5.18434 c -0.28434,5.8844 -4.61552,9.2532 -11.2,9.2532"
     class="Note" />
  <path
     id="path2202"
     d="m 449.515,466.795 h 33.6 v 45 h -33.6 v -45"
     fill-rule="evenodd"
     fill="#ffffff"
     class="Note" />
  <path
     id="path2204"
     d="m 474.874,499.365 c -2.229,3.46 -5.182,5.18 -8.859,5.18 -3.677,0 -6.631,-1.76 -8.86,-5.28 -2.229,-3.53 -3.343,-8.06 -3.343,-13.61 0,-5.22 1.114,-9.58 3.343,-13.09 2.229,-3.51 5.255,-5.27 9.078,-5.27 3.532,0 6.412,1.73 8.641,5.18 2.229,3.46 3.344,7.96 3.344,13.51 0,5.47 -1.115,9.93 -3.344,13.38 m -8.812,-30.66 c -4.709,0 -7.063,5.81 -7.063,17.44 0,11.34 2.339,17.01 7.016,17.01 4.677,0 7.015,-5.69 7.015,-17.07 0,-5.65 -0.593,-9.96 -1.781,-12.93 -1.187,-2.97 -2.917,-4.45 -5.187,-4.45"
     class="Note" />
  <path
     style="stroke-width:1.4"
     id="path2206"
     d="m 465.37934,301.5263 c 15.11566,0 33.73132,-13.0157 33.73132,-26.3157 0,-7.9844 -6.84684,-13.1469 -16.8,-13.1469 -18.48434,0 -33.31566,12.7313 -33.31566,26.3157 0,8.2469 7.13125,13.1469 16.38434,13.1469"
     fill="#ffffff"
     class="Note" />
  <path
     style="stroke-width:1.4"
     id="path2208"
     d="m 482.46382,262.0637 c -18.48448,0 -33.46882,12.7313 -33.46882,26.3157 0,8.2469 7.28438,13.1469 16.38434,13.1469 15.11566,0 33.73132,-13.0157 33.73132,-26.3157 0,-7.9844 -6.84684,-13.1469 -16.64684,-13.1469 m 0,32.3313 H 463.97934 V 269.6106 H 481.895 v 4.2 h -12.73118 v 5.7532 h 11.74684 v 4.2 h -11.74684 v 6.4312 h 13.3 v 4.2"
     class="Note" />
  <path
     id="path2210"
     d="m 354.444,466.795 h 33.6 v 45 h -33.6 v -45"
     fill-rule="evenodd"
     fill="#ffffff"
     class="Note" />
  <path
     id="path2212"
     d="m 361.819,499.585 c 0.823,0 2.054,0.48 3.695,1.46 1.641,0.97 3.07,1.46 4.289,1.46 1.99,0 3.667,-0.77 5.031,-2.31 1.365,-1.53 2.047,-3.43 2.047,-5.69 0,-1.39 -0.242,-2.62 -0.726,-3.69 -0.485,-1.07 -1.105,-1.91 -1.86,-2.5 -0.755,-0.59 -1.656,-1.08 -2.703,-1.45 -1.047,-0.38 -2.029,-0.62 -2.945,-0.72 -0.917,-0.11 -1.896,-0.16 -2.938,-0.16 v -0.7 c 1.219,-0.44 2.271,-0.86 3.157,-1.27 0.885,-0.42 1.812,-0.97 2.781,-1.68 0.969,-0.7 1.713,-1.56 2.234,-2.57 0.521,-1.01 0.781,-2.16 0.781,-3.45 0,-1.7 -0.546,-3.09 -1.64,-4.16 -1.094,-1.08 -2.526,-1.62 -4.297,-1.62 -1.688,0 -3.169,0.46 -4.445,1.37 -1.276,0.92 -2.477,2.37 -3.602,4.35 l -0.797,-0.21 c 0.927,-2.56 2.193,-4.66 3.797,-6.29 1.604,-1.64 3.88,-2.46 6.828,-2.46 2.49,0 4.518,0.69 6.086,2.05 1.568,1.37 2.352,3.15 2.352,5.34 0,1.48 -0.381,2.78 -1.141,3.9 -0.76,1.11 -2.073,2.3 -3.937,3.56 2.156,0.94 3.846,2.13 5.07,3.58 1.224,1.44 1.836,3.52 1.836,6.21 0,3.83 -1.414,6.89 -4.242,9.18 -2.829,2.29 -6.383,3.43 -10.664,3.43 -1.875,0 -3.36,-0.27 -4.454,-0.83 -1.093,-0.56 -1.64,-1.31 -1.64,-2.24 0,-0.58 0.187,-1.04 0.562,-1.38 0.375,-0.34 0.87,-0.51 1.485,-0.51"
     class="Note" />
  <path
     style="stroke-width:1.4"
     id="path2214"
     d="m 370.30834,266.5263 c 15.11566,0 33.73132,-13.0157 33.73132,-26.3157 0,-7.9844 -6.84684,-13.1469 -16.8,-13.1469 -18.48434,0 -33.31566,12.7313 -33.31566,26.3157 0,8.2469 7.13125,13.1469 16.38434,13.1469"
     fill="#ffffff"
     class="Note" />
  <path
     style="stroke-width:1.4"
     id="path2216"
     d="m 387.39282,226.9107 c -18.48448,0 -33.46882,12.7531 -33.46882,26.3156 0,8.2687 7.28438,13.1687 16.51566,13.1687 14.98434,0 33.6,-13.0156 33.6,-26.3156 0,-7.9844 -6.84684,-13.1687 -16.64684,-13.1687 m -9.8,27.9999 c 3.0625,0 6.14684,-2.1 6.43118,-5.3156 h -5.73118 v -4.3312 h 10.21552 v 11.7468 l -3.21552,1.9688 -0.56882,-3.5 c -1.96868,2.6469 -4.33118,3.9156 -7.7,3.9156 -6.86868,0 -11.9,-5.4687 -11.9,-13.1687 0,-7.9625 4.9,-13.1469 12.31566,-13.1469 6.16868,0 10.36868,3.3469 11.06868,8.5312 h -4.9 c -1.11552,-2.9312 -3.21552,-4.0468 -6.16868,-4.0468 -4.48434,0 -7.13132,3.0625 -7.13132,8.5312 0,5.3156 3.08448,8.8156 7.28448,8.8156"
     class="Note" />
  <path
     id="path2218"
     d="m 259.373,421.795 h 33.6 v 45 h -33.6 v -45"
     fill-rule="evenodd"
     fill="#ffffff"
     class="Note" />
  <path
     id="path2220"
     d="m 266.748,454.585 c 0.823,0 2.054,0.48 3.695,1.46 1.641,0.97 3.07,1.46 4.289,1.46 1.99,0 3.667,-0.77 5.031,-2.31 1.365,-1.53 2.047,-3.43 2.047,-5.69 0,-1.39 -0.242,-2.62 -0.726,-3.69 -0.485,-1.07 -1.105,-1.91 -1.86,-2.5 -0.755,-0.59 -1.656,-1.08 -2.703,-1.45 -1.047,-0.38 -2.029,-0.62 -2.945,-0.72 -0.917,-0.11 -1.896,-0.16 -2.938,-0.16 v -0.7 c 1.219,-0.44 2.271,-0.86 3.157,-1.27 0.885,-0.42 1.812,-0.97 2.781,-1.68 0.969,-0.7 1.713,-1.56 2.234,-2.57 0.521,-1.01 0.781,-2.16 0.781,-3.45 0,-1.7 -0.546,-3.09 -1.64,-4.16 -1.094,-1.08 -2.526,-1.62 -4.297,-1.62 -1.688,0 -3.169,0.46 -4.445,1.37 -1.276,0.92 -2.477,2.37 -3.602,4.35 l -0.797,-0.21 c 0.927,-2.56 2.193,-4.66 3.797,-6.29 1.604,-1.64 3.88,-2.46 6.828,-2.46 2.49,0 4.518,0.69 6.086,2.05 1.568,1.37 2.352,3.15 2.352,5.34 0,1.48 -0.381,2.78 -1.141,3.9 -0.76,1.11 -2.073,2.3 -3.937,3.56 2.156,0.94 3.846,2.13 5.07,3.58 1.224,1.44 1.836,3.52 1.836,6.21 0,3.83 -1.414,6.89 -4.242,9.18 -2.829,2.29 -6.383,3.43 -10.664,3.43 -1.875,0 -3.36,-0.27 -4.454,-0.83 -1.093,-0.56 -1.64,-1.31 -1.64,-2.24 0,-0.58 0.187,-1.04 0.562,-1.38 0.375,-0.34 0.87,-0.51 1.485,-0.51"
     class="Note" />
  <path
     style="stroke-width:1.4"
     id="path2222"
     d="m 260.84134,214.0263 c 15.11566,0 33.73132,-13.0157 33.73132,-26.3157 0,-7.9844 -6.84684,-13.1469 -16.8,-13.1469 -18.48434,0 -33.31566,12.7313 -33.31566,26.3157 0,8.2469 7.13125,13.1469 16.38434,13.1469"
     fill="#ffffff"
     class="Note" />
  <path
     style="stroke-width:1.4"
     id="path2224"
     d="m 277.92582,174.4107 c -18.48448,0 -33.46882,12.7531 -33.46882,26.3156 0,8.4 7.13125,13.1687 16.38434,13.1687 15.11566,0 33.73132,-12.8844 33.73132,-26.3156 0,-7.9844 -6.84684,-13.1687 -16.64684,-13.1687 m -8.68448,33.7531 c -7.15302,0 -11.76871,-5.0532 -11.76871,-13.4532 0,-8.4 4.61569,-13.4312 12.05319,-13.4312 5.73118,0 10.34684,3.2156 10.78434,9.2312 H 275.257 c -0.83118,-3.3468 -2.66868,-4.7468 -5.6,-4.7468 -4.2,0 -6.86868,3.2156 -6.86868,9.1 0,5.5999 2.5375,8.8156 6.7375,8.8156 3.21552,0 5.31552,-1.5531 5.73118,-4.7688 h 5.18434 c -0.28434,5.8844 -4.61552,9.2532 -11.2,9.2532"
     class="Note" />
  <path
     style="stroke-width:1.2"
     id="path2946"
     d="m 55.32228,455.5074 v -4.2 H 25.6785 v 4.2 H 38.166 v 33.6 h 4.8 v -33.6 h 12.35628 m 1.68744,75.4876 -13.2,-37.8 H 37.566 l -13.55625,37.8 H 29.166 l 3.956256,-11.4 H 47.766 l 3.84372,11.4 h 5.4 M 46.45356,515.6388 H 34.322256 l 6.243744,-17.2875 5.88756,17.2875 m 8.15616,46.3125 c 0,-4.5563 -2.04372,-7.3126 -6.84372,-9.1126 3.35628,-1.6874 5.15628,-4.4437 5.15628,-8.2874 0,-5.5126 -3.95628,-9.6 -11.15628,-9.6 H 26.409756 v 37.8 H 43.45356 c 6.825,0 11.15616,-4.5563 11.15616,-10.8 m -6.48744,-16.6687 c 0,3.8437 -2.15628,6 -7.55628,6 H 31.209756 V 539.1513 H 40.566 c 5.4,0 7.55628,2.2874 7.55628,6.1313 m 1.68744,16.6687 c 0,3.7313 -2.15616,6.4874 -6.73116,6.4874 H 31.209756 V 555.4826 H 43.07856 c 4.575,0 6.73116,2.8687 6.73116,6.4687"
     class="Clef" />
  <path
     style="stroke-width:1.4"
     id="path2948"
     d="m 75.77232,210.9637 c 0,0 0.27706,0 0.83118,0 0.36456,-0.087 0.67816,-0.1312 0.94066,-0.1312 10.20824,0 18.59368,3.6021 25.15618,10.8062 6.5625,7.1022 9.84382,15.3928 9.84382,24.8719 0,11.7688 -4.87088,21.3428 -14.6125,28.7219 -2.55206,2.0125 -5.88434,3.6532 -9.99684,4.9218 0.46662,5.9209 0.7,10.7043 0.7,14.35 0,0.7293 -0.09492,3.3761 -0.28448,7.9407 -0.36456,8.4729 -3.28118,15.8084 -8.75,22.0063 -5.27912,6.1103 -11.84162,9.1655 -19.6875,9.1655 -7.37912,0 -13.66456,-2.5957 -18.85618,-7.7875 -5.206278,-5.2936 -7.80941,-11.6739 -7.80941,-19.1405 0,-3.9229 1.509382,-7.2552 4.528132,-9.997 3.091718,-2.727 6.686498,-4.0905 10.784438,-4.0905 3.64574,0 6.70096,1.4146 9.16552,4.2437 2.55206,2.6396 3.82816,5.9209 3.82816,9.8438 0,3.5437 -1.2761,6.5916 -3.82816,9.1437 -2.55206,2.5521 -5.60728,3.8282 -9.16552,3.8282 -1.45838,0 -2.86566,-0.2698 -4.22198,-0.8094 4.01044,5.9208 9.34066,8.8812 15.99066,8.8812 6.28544,0 11.43338,-2.5521 15.44382,-7.6562 4.2,-5.2792 6.48228,-11.4334 6.84684,-18.4625 0.175,-4.375 0.2625,-6.8761 0.2625,-7.5031 0,-5.1043 -0.18228,-9.2969 -0.54684,-12.5782 -4.55,0.7291 -8.60426,1.0938 -12.1625,1.0938 -12.67294,0 -23.47198,-5.0167 -32.396938,-15.05 -8.75,-10.1209 -13.125007,-22.1521 -13.125007,-36.0938 0,-2.9166 0.269791,-5.8771 0.809375,-8.8813 0.554162,-2.4646 1.239588,-5.1551 2.05625,-8.0719 0.452088,-1.6479 1.684382,-4.2947 3.696882,-7.9406 0.729162,-1.0937 1.549478,-2.4609 2.460934,-4.1015 0.911456,-1.6406 1.549478,-2.7308 1.914066,-3.2704 0.904162,-1.8229 2.67603,-4.2875 5.315618,-7.3936 0.72912,-0.8168 1.48386,-1.7246 2.26408,-2.7235 0.78022,-0.999 1.44368,-1.8193 1.99066,-2.461 0.54684,-0.6416 0.95522,-1.1448 1.225,-1.5094 0.26978,-0.3645 2.32232,-2.7781 6.15776,-7.2406 0.90412,-0.9187 1.79004,-1.8994 2.65776,-2.9421 0.86772,-1.0427 1.575,-1.863 2.12198,-2.4609 0.54684,-0.598 0.95886,-1.0282 1.23592,-1.2907 -3.28132,-10.85 -5.3375,-19.5125 -6.16882,-25.9875 -0.62706,-5.1916 -0.94052,-12.3011 -0.94052,-21.3282 0,-7.9332 1.8228,-15.3634 5.46868,-22.2909 3.54382,-7.189 8.50934,-13.0662 14.89684,-17.6316 0.36456,-0.2758 0.81676,-0.4144 1.35632,-0.4144 0.64162,0 1.10096,0.1386 1.37816,0.4144 4.91456,5.922 9.15096,13.622 12.70934,23.1007 3.64574,9.4791 5.46868,18.0979 5.46868,25.8562 0,8.75 -2.09272,16.9531 -6.27802,24.6095 -4.7397,8.1082 -10.85,16.4936 -18.33132,25.1561 1.91044,6.0084 4.4625,15.4366 7.65632,28.2844 m 11.61552,63.5906 c 4.73956,-1.7354 8.43654,-4.6957 11.09066,-8.8811 2.91662,-4.0105 4.375,-8.524 4.375,-13.5407 0,-6.475 -2.1875,-12.2208 -6.5625,-17.2375 -4.47706,-5.1916 -10.17912,-8.1084 -17.10618,-8.75 3.9228,19.2354 6.65728,35.3718 8.20302,48.4093 M 34.494132,242.9669 c 0,9.0271 3.645824,16.9604 10.937528,23.7999 7.46662,6.65 15.85206,9.975 25.15618,9.975 3.82088,0 7.55426,-0.277 11.2,-0.8311 -1.45824,-13.8543 -4.33118,-30.4428 -8.61868,-49.7657 -5.19176,0.5541 -9.33338,2.3771 -12.425,5.4687 -3.01882,3.1938 -4.52816,6.7959 -4.52816,10.8063 0,6.9271 3.69684,12.5344 11.09066,16.8219 0.62706,0.6416 0.94066,1.3271 0.94066,2.0563 0,0.7291 -0.3136,1.4072 -0.94066,2.0343 -0.55426,0.6416 -1.23956,0.9625 -2.05632,0.9625 -0.0875,0 -0.49574,-0.088 -1.225,-0.2625 -5.20618,-2.8291 -9.21662,-6.475 -12.03118,-10.9375 -2.65426,-4.7542 -3.98132,-9.5448 -3.98132,-14.3719 0,-6.2854 1.96154,-11.9802 5.88448,-17.0844 4.0978,-5.1041 9.42802,-8.3853 15.99052,-9.8437 -2.55206,-10.2084 -4.64478,-18.1854 -6.27802,-23.9313 -1.45838,1.6479 -3.21202,3.6313 -5.26106,5.95 -2.0489,2.3188 -3.2557,3.7115 -3.62026,4.1781 -3.28118,4.273 -5.78956,7.598 -7.525,9.975 -3.10618,4.2875 -5.3886,7.9771 -6.84684,11.0689 -1.54588,3.4707 -2.90941,7.2552 -4.09066,11.353 -1.18125,3.923 -1.771868,8.1157 -1.771868,12.5782 M 80.14732,103.9292 c -6.8397,3.369 -12.2136,8.196 -16.12198,14.4815 -4.01044,6.475 -6.01552,13.4457 -6.01552,20.9125 0,6.5625 1.64052,15.4072 4.92184,26.5343 6.5625,-7.9334 11.48434,-15.2688 14.76566,-22.0063 3.45618,-7.1166 5.18434,-14.5469 5.18434,-22.2905 0,-5.8334 -0.91154,-11.7105 -2.73434,-17.6315"
     class="Clef" />
  <path
     style="stroke-width:1.4"
     id="path2966"
     d="m 169.39432,143.4468 c 2.72706,0 5.04938,-0.3171 6.9671,-0.9515 1.91772,-0.6344 3.14636,-0.9516 3.68592,-0.9516 0.64176,0 1.14478,0.1824 1.50948,0.547 0.27706,0.2625 0.45934,0.5759 0.54684,0.9405 0,0.1897 -0.0948,0.4667 -0.28434,0.8313 l -39.76882,46.2219 h 23.3625 v -18.3313 c 0,-1.1812 0.32088,-2.1875 0.9625,-3.0187 1.09382,-0.9042 2.00522,-1.4511 2.73434,-1.6406 1.18132,-0.5396 2.63956,-1.8157 4.375,-3.8282 1.45838,-1.6333 3.19382,-4.499 5.20632,-8.5969 0.2625,-0.5541 0.67074,-0.8312 1.225,-0.8312 1.09368,0 1.72816,0.6416 1.90316,1.925 v 34.3219 h 9.99684 c 1.26868,0 1.99794,0.6781 2.1875,2.0344 0,1.3708 -0.72926,2.0562 -2.1875,2.0562 h -9.99684 v 1.0938 c 0,3.6458 0.9114,6.7448 2.73434,9.2969 2.1,2.552 4.56456,3.8281 7.39368,3.8281 1.09382,0 1.64066,0.5469 1.64066,1.6405 0,1.0939 -0.54684,1.6407 -1.64066,1.6407 -1.91044,0 -5.00934,-0.2698 -9.29684,-0.8093 -3.92294,-0.6418 -6.97816,-0.9625 -9.16566,-0.9625 -2.275,0 -5.33022,0.3207 -9.16552,0.9625 -4.09794,0.5395 -7.14588,0.8093 -9.14382,0.8093 -1.09368,0 -1.64066,-0.5468 -1.64066,-1.6407 0,-1.0936 0.54698,-1.6405 1.64066,-1.6405 2.81456,0 5.27184,-1.2761 7.37184,-3.8281 1.91044,-2.6396 2.86566,-5.7386 2.86566,-9.2969 v -1.0938 h -23.3625 c -1.56041,0 -2.65416,-0.3646 -3.28125,-1.0937 -0.74375,-0.5397 -1.11563,-1.2688 -1.11563,-2.1875 0,-0.2771 0.68542,-1.2323 2.05626,-2.8657 1.56041,-1.8229 3.20103,-4.0541 4.92187,-6.6937 2.0125,-3.1063 3.93021,-6.3 5.75313,-9.5813 1.9979,-3.7333 3.59474,-8.0208 4.79062,-12.8624 1.35632,-4.9146 2.03434,-9.9241 2.03434,-15.0282 0,-1.4584 0.64176,-2.1875 1.925,-2.1875 0.27706,0 0.86772,0.1386 1.77198,0.4157 0.27706,0.087 0.84938,0.2223 1.7171,0.4046 0.86772,0.1822 1.57136,0.3609 2.11092,0.5359 1.64794,0.2772 3.2011,0.4156 4.65948,0.4156"
     class="TimeSig" />
  <path
     style="stroke-width:1.4"
     id="path2968"
     d="m 169.39432,213.6868 c 2.72706,0 5.04938,-0.3171 6.9671,-0.9515 1.91772,-0.6344 3.14636,-0.9516 3.68592,-0.9516 0.64176,0 1.14478,0.1824 1.50948,0.547 0.27706,0.2625 0.45934,0.5759 0.54684,0.9405 0,0.1897 -0.0948,0.4667 -0.28434,0.8313 l -39.76882,46.2219 h 23.3625 v -18.3313 c 0,-1.1812 0.32088,-2.1875 0.9625,-3.0187 1.09382,-0.9042 2.00522,-1.4511 2.73434,-1.6407 1.18132,-0.5395 2.63956,-1.8156 4.375,-3.8281 1.45838,-1.6333 3.19382,-4.499 5.20632,-8.5969 0.2625,-0.5541 0.67074,-0.8312 1.225,-0.8312 1.09368,0 1.72816,0.6416 1.90316,1.925 v 34.3219 h 9.99684 c 1.26868,0 1.99794,0.6781 2.1875,2.0344 0,1.3708 -0.72926,2.0562 -2.1875,2.0562 h -9.99684 v 1.0938 c 0,3.6458 0.9114,6.7448 2.73434,9.2969 2.1,2.552 4.56456,3.8281 7.39368,3.8281 1.09382,0 1.64066,0.5469 1.64066,1.6405 0,1.0939 -0.54684,1.6407 -1.64066,1.6407 -1.91044,0 -5.00934,-0.2698 -9.29684,-0.8093 -3.92294,-0.6418 -6.97816,-0.9625 -9.16566,-0.9625 -2.275,0 -5.33022,0.3207 -9.16552,0.9625 -4.09794,0.5395 -7.14588,0.8093 -9.14382,0.8093 -1.09368,0 -1.64066,-0.5468 -1.64066,-1.6407 0,-1.0936 0.54698,-1.6405 1.64066,-1.6405 2.81456,0 5.27184,-1.2761 7.37184,-3.8281 1.91044,-2.6396 2.86566,-5.7386 2.86566,-9.2969 v -1.0938 h -23.3625 c -1.56041,0 -2.65416,-0.3646 -3.28125,-1.0937 -0.74375,-0.5397 -1.11563,-1.2688 -1.11563,-2.1875 0,-0.2771 0.68542,-1.2323 2.05626,-2.8657 1.56041,-1.8229 3.20103,-4.0541 4.92187,-6.6937 2.0125,-3.1063 3.93021,-6.3 5.75313,-9.5813 1.9979,-3.7333 3.59474,-8.0208 4.79062,-12.8624 1.35632,-4.9146 2.03434,-9.9241 2.03434,-15.0282 0,-1.4584 0.64176,-2.1875 1.925,-2.1875 0.27706,0 0.86772,0.1386 1.77198,0.4157 0.27706,0.088 0.84938,0.2223 1.7171,0.4046 0.86772,0.1822 1.57136,0.3609 2.11092,0.5359 1.64794,0.2772 3.2011,0.4156 4.65948,0.4156"
     class="TimeSig" />
  <path
     id="path2986"
     d="m 138.266,39.985 c -1.344,-1.172 -3.188,-1.766 -5.375,-1.766 -8.313,0 -14.953,6.141 -14.953,12.688 0,3.953 3.187,6.297 7.312,6.297 6.719,0 15.032,-6.297 15.032,-12.672 V 1.516 h -2.016 v 38.469"
     class="Tempo" />
  <path
     id="path2988"
     d="m 212.516,30 h -46.375 v -8.078 h 46.375 V 30 m 0,20.485 h -46.375 v -8.063 h 46.375 v 8.063 M 278.422,0 v 2.188 c -6.104,1.24 -10.963,3.628 -14.578,7.164 -3.614,3.536 -6.203,8.388 -7.766,14.555 2.178,-0.927 4.527,-1.391 7.047,-1.391 4.761,0 8.571,1.505 11.43,4.516 2.859,3.01 4.289,7.052 4.289,12.125 0,5.708 -1.708,10.424 -5.125,14.148 -3.417,3.724 -7.729,5.586 -12.937,5.586 -5.886,0 -10.605,-2.185 -14.157,-6.555 -3.552,-4.369 -5.328,-10.195 -5.328,-17.476 0,-11.417 4.787,-20.432 14.36,-27.047 3.187,-2.177 6.39,-3.826 9.609,-4.945 3.219,-1.12 7.604,-2.076 13.156,-2.868 m -24.031,37.469 c 0,5.156 0.294,9.19 0.883,12.102 0.588,2.911 1.318,4.815 2.187,5.711 0.87,0.896 2.034,1.343 3.492,1.343 2.063,0 3.43,-0.825 4.102,-2.476 0.672,-1.651 1.008,-4.971 1.008,-9.961 0,-6.667 -0.56,-11.328 -1.68,-13.984 -1.12,-2.657 -3.075,-3.985 -5.867,-3.985 -1.292,0 -2.203,0.25 -2.734,0.75 -0.532,0.5 -0.896,1.492 -1.094,2.977 -0.198,1.484 -0.297,3.992 -0.297,7.523 m 28.562,-8.234 c 0,-8.229 1.821,-15.159 5.461,-20.789 C 292.055,2.816 296.563,0 301.938,0 c 5.427,0 9.948,2.816 13.562,8.446 3.615,5.63 5.422,12.643 5.422,21.039 0,8.458 -1.791,15.474 -5.375,21.047 -3.583,5.573 -8.094,8.359 -13.531,8.359 -5.594,0 -10.169,-2.773 -13.727,-8.32 -3.557,-5.547 -5.336,-12.659 -5.336,-21.336 m 19.063,27.297 c 1.854,0 3.258,-1.258 4.211,-3.774 0.953,-2.515 1.43,-7.049 1.43,-13.601 v -19.25 c 0,-6.209 -0.448,-10.685 -1.344,-13.43 -0.896,-2.745 -2.38,-4.117 -4.453,-4.117 -2.021,0 -3.466,1.344 -4.336,4.031 -0.87,2.688 -1.305,7.193 -1.305,13.516 v 19.25 c 0,6.208 0.448,10.656 1.344,13.343 0.896,2.688 2.38,4.032 4.453,4.032"
     class="Tempo" />
  <path
     id="path2990"
     d="m 2623.6281,94.255 c 0,1.2 -0.14,2.35 -0.42,3.46 -0.2801,1.1 -0.83,2.28 -1.65,3.52 -0.81,1.24 -1.9001,2.32 -3.25,3.22 -1.3601,0.9 -3.2,1.65 -5.54,2.25 -2.33,0.6 -5.0301,0.9 -8.1,0.9 -1.41,0 -3.02,-0.08 -4.83,-0.22 v 12.84 c 0,2.59 0.4,4.27 1.22,5.04 0.8099,0.78 2.59,1.21 5.36,1.31 v 1.32 h -19.61 v -1.32 c 2.6599,-0.24 4.3099,-0.75 4.94,-1.51 0.63,-0.77 0.9499,-2.62 0.9499,-5.57 v -30.31 c 0,-2.53 -0.33,-4.13 -0.9899,-4.83 -0.65,-0.7 -2.29,-1.19 -4.9,-1.47 v -1.33 h 18.48 c 2.0999,0 4.1399,0.2 6.09,0.59 1.96,0.4 3.91,1.04 5.85,1.93 1.94,0.89 3.4899,2.21 4.65,3.94 1.17,1.74 1.75,3.82 1.75,6.24 m -23.79,-7.67 v 18.14 c 1.62,0.14 2.95,0.21 3.98,0.21 8.13,0 12.19,-3.42 12.19,-10.25 0,-3.59 -1.12,-6.23 -3.37,-7.93 -2.24,-1.69 -5.72,-2.54 -10.43,-2.54 -0.94,0 -1.57,0.16 -1.89,0.49 -0.32,0.33 -0.48,0.95 -0.48,1.88"
     class="SystemText" />
  <path
     id="path2992"
     d="m 1768.1981,94.255 c 0,1.2 -0.14,2.35 -0.42,3.46 -0.28,1.1 -0.83,2.28 -1.6502,3.52 -0.8198,1.24 -1.9,2.32 -3.2599,3.22 -1.3499,0.9 -3.1901,1.65 -5.53,2.25 -2.3299,0.6 -5.0299,0.9 -8.1099,0.9 -1.4001,0 -3.01,-0.08 -4.82,-0.22 v 12.84 c 0,2.59 0.4,4.27 1.21,5.04 0.82,0.78 2.6,1.21 5.36,1.31 v 1.32 h -19.61 v -1.32 c 2.67,-0.24 4.32,-0.75 4.95,-1.51 0.63,-0.77 0.94,-2.62 0.94,-5.57 v -30.31 c 0,-2.53 -0.32,-4.13 -0.98,-4.83 -0.66,-0.7 -2.29,-1.19 -4.91,-1.47 v -1.33 h 18.49 c 2.1,0 4.13,0.2 6.09,0.59 1.96,0.4 3.91,1.04 5.85,1.93 1.93,0.89 3.49,2.21 4.65,3.94 1.17,1.74 1.75,3.82 1.75,6.24 m -23.79,-7.67 v 18.14 c 1.62,0.14 2.95,0.21 3.98,0.21 8.12,0 12.19,-3.42 12.19,-10.25 0,-3.59 -1.13,-6.23 -3.37,-7.93 -2.24,-1.69 -5.72,-2.54 -10.43,-2.54 -0.94,0 -1.57,0.16 -1.89,0.49 -0.32,0.33 -0.48,0.95 -0.48,1.88"
     class="SystemText" />
  <path
     id="path2994"
     d="m 912.768,94.255 c 0,1.2 -0.14,2.35 -0.42,3.46 -0.28,1.1 -0.83,2.28 -1.65,3.52 -0.82,1.24 -1.9,2.32 -3.26,3.22 -1.35,0.9 -3.2,1.65 -5.53,2.25 -2.33,0.6 -5.04,0.9 -8.11,0.9 -1.4,0 -3.01,-0.08 -4.83,-0.22 v 12.84 c 0,2.59 0.41,4.27 1.22,5.04 0.81,0.78 2.6,1.21 5.36,1.31 v 1.32 h -19.61 v -1.32 c 2.67,-0.24 4.32,-0.75 4.95,-1.51 0.63,-0.77 0.94,-2.62 0.94,-5.57 v -30.31 c 0,-2.53 -0.33,-4.13 -0.98,-4.83 -0.66,-0.7 -2.29,-1.19 -4.91,-1.47 v -1.33 h 18.49 c 2.1,0 4.13,0.2 6.09,0.59 1.96,0.4 3.91,1.04 5.84,1.93 1.94,0.89 3.49,2.21 4.66,3.94 1.17,1.74 1.75,3.82 1.75,6.24 m -23.8,-7.67 v 18.14 c 1.63,0.14 2.96,0.21 3.99,0.21 8.12,0 12.19,-3.42 12.19,-10.25 0,-3.59 -1.13,-6.23 -3.37,-7.93 -2.25,-1.69 -5.72,-2.54 -10.43,-2.54 -0.94,0 -1.57,0.16 -1.89,0.49 -0.32,0.33 -0.49,0.95 -0.49,1.88"
     class="SystemText" />
</svg>
