<?xml version="1.0" encoding="UTF-8" standalone="no"?>
<svg
   xmlns:dc="http://purl.org/dc/elements/1.1/"
   xmlns:cc="http://creativecommons.org/ns#"
   xmlns:rdf="http://www.w3.org/1999/02/22-rdf-syntax-ns#"
   xmlns:svg="http://www.w3.org/2000/svg"
   xmlns="http://www.w3.org/2000/svg"
   xmlns:sodipodi="http://sodipodi.sourceforge.net/DTD/sodipodi-0.dtd"
   xmlns:inkscape="http://www.inkscape.org/namespaces/inkscape"
   inkscape:version="1.0 (4035a4fb49, 2020-05-01)"
   sodipodi:docname="exercise3.svg"
   id="svg4304"
   version="1.2"
   viewBox="0 0 2776.5381 417.60999"
   height="417.60999"
   width="2776.5381">
  <metadata
     id="metadata4310">
    <rdf:RDF>
      <cc:Work
         rdf:about="">
        <dc:format>image/svg+xml</dc:format>
        <dc:type
           rdf:resource="http://purl.org/dc/dcmitype/StillImage" />
        <dc:title>exercise-collection1 (1)</dc:title>
      </cc:Work>
    </rdf:RDF>
  </metadata>
  <defs
     id="defs4308" />
  <sodipodi:namedview
     inkscape:current-layer="svg4304"
     inkscape:window-maximized="1"
     inkscape:window-y="-8"
     inkscape:window-x="-8"
     inkscape:cy="479.88"
     inkscape:cx="1388.268"
     inkscape:zoom="0.16919192"
     showgrid="false"
     id="namedview4306"
     inkscape:window-height="837"
     inkscape:window-width="1600"
     inkscape:pageshadow="2"
     inkscape:pageopacity="0"
     guidetolerance="10"
     gridtolerance="10"
     objecttolerance="10"
     borderopacity="1"
     bordercolor="#666666"
     pagecolor="#ffffff" />
  <title
     id="title3276">exercise-collection1 (1)</title>
  <desc
     id="desc3278">Generated by MuseScore 3.0.1</desc>
  <polyline
     transform="translate(-141.732,-1500.12)"
     id="polyline3316"
     points="141.732,1541.73 2918.27,1541.73"
     stroke-linejoin="bevel"
     stroke-width="2"
     stroke="#000000"
     fill="none"
     class="StaffLines" />
  <polyline
     transform="translate(-141.732,-1500.12)"
     id="polyline3318"
     points="141.732,1566.73 2918.27,1566.73"
     stroke-linejoin="bevel"
     stroke-width="2"
     stroke="#000000"
     fill="none"
     class="StaffLines" />
  <polyline
     transform="translate(-141.732,-1500.12)"
     id="polyline3320"
     points="141.732,1591.73 2918.27,1591.73"
     stroke-linejoin="bevel"
     stroke-width="2"
     stroke="#000000"
     fill="none"
     class="StaffLines" />
  <polyline
     transform="translate(-141.732,-1500.12)"
     id="polyline3322"
     points="141.732,1616.73 2918.27,1616.73"
     stroke-linejoin="bevel"
     stroke-width="2"
     stroke="#000000"
     fill="none"
     class="StaffLines" />
  <polyline
     transform="translate(-141.732,-1500.12)"
     id="polyline3324"
     points="141.732,1641.73 2918.27,1641.73"
     stroke-linejoin="bevel"
     stroke-width="2"
     stroke="#000000"
     fill="none"
     class="StaffLines" />
  <polyline
     transform="translate(-141.732,-1500.12)"
     id="polyline3326"
     points="141.732,1804.23 2918.27,1804.23"
     stroke-linejoin="bevel"
     stroke-width="2"
     stroke="#000000"
     fill="none"
     class="StaffLines" />
  <polyline
     transform="translate(-141.732,-1500.12)"
     id="polyline3328"
     points="141.732,1841.73 2918.27,1841.73"
     stroke-linejoin="bevel"
     stroke-width="2"
     stroke="#000000"
     fill="none"
     class="StaffLines" />
  <polyline
     transform="translate(-141.732,-1500.12)"
     id="polyline3330"
     points="141.732,1879.23 2918.27,1879.23"
     stroke-linejoin="bevel"
     stroke-width="2"
     stroke="#000000"
     fill="none"
     class="StaffLines" />
  <polyline
     transform="translate(-141.732,-1500.12)"
     id="polyline3332"
     points="141.732,1916.73 2918.27,1916.73"
     stroke-linejoin="bevel"
     stroke-width="2"
     stroke="#000000"
     fill="none"
     class="StaffLines" />
  <polyline
     transform="translate(-141.732,-1500.12)"
     id="polyline3410"
     points="2916.27,1803.23 2916.27,1917.73"
     stroke-linejoin="bevel"
     stroke-width="4"
     stroke="#000000"
     fill="none"
     class="BarLine" />
  <polyline
     transform="translate(-141.732,-1500.12)"
     id="polyline3412"
     points="2916.27,1540.73 2916.27,1642.73"
     stroke-linejoin="bevel"
     stroke-width="4"
     stroke="#000000"
     fill="none"
     class="BarLine" />
  <polyline
     transform="translate(-141.732,-1500.12)"
     id="polyline3414"
     points="2633.46,1803.23 2633.46,1917.73"
     stroke-linejoin="bevel"
     stroke-width="4"
     stroke="#000000"
     fill="none"
     class="BarLine" />
  <polyline
     transform="translate(-141.732,-1500.12)"
     id="polyline3416"
     points="2633.46,1540.73 2633.46,1642.73"
     stroke-linejoin="bevel"
     stroke-width="4"
     stroke="#000000"
     fill="none"
     class="BarLine" />
  <polyline
     transform="translate(-141.732,-1500.12)"
     id="polyline3418"
     points="2298.16,1803.23 2298.16,1917.73"
     stroke-linejoin="bevel"
     stroke-width="4"
     stroke="#000000"
     fill="none"
     class="BarLine" />
  <polyline
     transform="translate(-141.732,-1500.12)"
     id="polyline3420"
     points="2298.16,1540.73 2298.16,1642.73"
     stroke-linejoin="bevel"
     stroke-width="4"
     stroke="#000000"
     fill="none"
     class="BarLine" />
  <polyline
     transform="translate(-141.732,-1500.12)"
     id="polyline3422"
     points="1962.85,1803.23 1962.85,1917.73"
     stroke-linejoin="bevel"
     stroke-width="4"
     stroke="#000000"
     fill="none"
     class="BarLine" />
  <polyline
     transform="translate(-141.732,-1500.12)"
     id="polyline3424"
     points="1962.85,1540.73 1962.85,1642.73"
     stroke-linejoin="bevel"
     stroke-width="4"
     stroke="#000000"
     fill="none"
     class="BarLine" />
  <polyline
     transform="translate(-141.732,-1500.12)"
     id="polyline3426"
     points="1627.55,1803.23 1627.55,1917.73"
     stroke-linejoin="bevel"
     stroke-width="4"
     stroke="#000000"
     fill="none"
     class="BarLine" />
  <polyline
     transform="translate(-141.732,-1500.12)"
     id="polyline3428"
     points="1627.55,1540.73 1627.55,1642.73"
     stroke-linejoin="bevel"
     stroke-width="4"
     stroke="#000000"
     fill="none"
     class="BarLine" />
  <polyline
     transform="translate(-141.732,-1500.12)"
     id="polyline3430"
     points="1344.74,1803.23 1344.74,1917.73"
     stroke-linejoin="bevel"
     stroke-width="4"
     stroke="#000000"
     fill="none"
     class="BarLine" />
  <polyline
     transform="translate(-141.732,-1500.12)"
     id="polyline3432"
     points="1344.74,1540.73 1344.74,1642.73"
     stroke-linejoin="bevel"
     stroke-width="4"
     stroke="#000000"
     fill="none"
     class="BarLine" />
  <polyline
     transform="translate(-141.732,-1500.12)"
     id="polyline3434"
     points="1002.23,1803.23 1002.23,1917.73"
     stroke-linejoin="bevel"
     stroke-width="4"
     stroke="#000000"
     fill="none"
     class="BarLine" />
  <polyline
     transform="translate(-141.732,-1500.12)"
     id="polyline3436"
     points="1002.23,1540.73 1002.23,1642.73"
     stroke-linejoin="bevel"
     stroke-width="4"
     stroke="#000000"
     fill="none"
     class="BarLine" />
  <polyline
     transform="translate(-141.732,-1500.12)"
     id="polyline3438"
     points="659.721,1803.23 659.721,1917.73"
     stroke-linejoin="bevel"
     stroke-width="4"
     stroke="#000000"
     fill="none"
     class="BarLine" />
  <polyline
     transform="translate(-141.732,-1500.12)"
     id="polyline3440"
     points="659.721,1540.73 659.721,1642.73"
     stroke-linejoin="bevel"
     stroke-width="4"
     stroke="#000000"
     fill="none"
     class="BarLine" />
  <polyline
     transform="translate(-141.732,-1500.12)"
     id="polyline3442"
     points="143.732,1803.23 143.732,1917.73"
     stroke-linejoin="bevel"
     stroke-width="4"
     stroke="#000000"
     fill="none"
     class="BarLine" />
  <polyline
     transform="translate(-141.732,-1500.12)"
     id="polyline3444"
     points="143.732,1540.73 143.732,1804.23"
     stroke-linejoin="bevel"
     stroke-width="4"
     stroke="#000000"
     fill="none"
     class="BarLine" />
  <polyline
     transform="translate(-141.732,-1500.12)"
     id="polyline3504"
     points="1259.24,1666.73 1307.16,1666.73"
     stroke-linejoin="bevel"
     stroke-linecap="square"
     stroke-width="4"
     stroke="#000000"
     fill="none"
     class="LedgerLine" />
  <polyline
     transform="translate(-141.732,-1500.12)"
     id="polyline3506"
     points="1031.23,1666.73 1079.15,1666.73"
     stroke-linejoin="bevel"
     stroke-linecap="square"
     stroke-width="4"
     stroke="#000000"
     fill="none"
     class="LedgerLine" />
  <polyline
     transform="translate(-141.732,-1500.12)"
     id="polyline3508"
     points="688.721,1666.73 736.635,1666.73"
     stroke-linejoin="bevel"
     stroke-linecap="square"
     stroke-width="4"
     stroke="#000000"
     fill="none"
     class="LedgerLine" />
  <polyline
     transform="translate(-141.732,-1500.12)"
     id="polyline3510"
     points="346.209,1666.73 394.123,1666.73"
     stroke-linejoin="bevel"
     stroke-linecap="square"
     stroke-width="4"
     stroke="#000000"
     fill="none"
     class="LedgerLine" />
  <polyline
     transform="translate(-141.732,-1500.12)"
     id="polyline3580"
     points="2803.21,1583.15 2803.21,1660.48"
     stroke-linejoin="bevel"
     stroke-linecap="round"
     stroke-width="3.25"
     stroke="#000000"
     fill="none"
     class="Stem" />
  <polyline
     transform="translate(-141.732,-1500.12)"
     id="polyline3582"
     points="2734.25,1596.43 2734.25,1669.86"
     stroke-linejoin="bevel"
     stroke-linecap="round"
     stroke-width="3.25"
     stroke="#000000"
     fill="none"
     class="Stem" />
  <polyline
     transform="translate(-141.732,-1500.12)"
     id="polyline3584"
     points="2694.05,1599.54 2694.05,1522.98"
     stroke-linejoin="bevel"
     stroke-linecap="round"
     stroke-width="3.25"
     stroke="#000000"
     fill="none"
     class="Stem" />
  <polyline
     transform="translate(-141.732,-1500.12)"
     id="polyline3586"
     points="2586.75,1612.04 2586.75,1532.36"
     stroke-linejoin="bevel"
     stroke-linecap="round"
     stroke-width="3.25"
     stroke="#000000"
     fill="none"
     class="Stem" />
  <polyline
     transform="translate(-141.732,-1500.12)"
     id="polyline3588"
     points="2510.75,1649.54 2510.75,1566.73"
     stroke-linejoin="bevel"
     stroke-linecap="round"
     stroke-width="3.25"
     stroke="#000000"
     fill="none"
     class="Stem" />
  <polyline
     transform="translate(-141.732,-1500.12)"
     id="polyline3590"
     points="2434.74,1612.04 2434.74,1532.36"
     stroke-linejoin="bevel"
     stroke-linecap="round"
     stroke-width="3.25"
     stroke="#000000"
     fill="none"
     class="Stem" />
  <polyline
     transform="translate(-141.732,-1500.12)"
     id="polyline3592"
     points="2329.08,1596.43 2329.08,1669.86"
     stroke-linejoin="bevel"
     stroke-linecap="round"
     stroke-width="3.25"
     stroke="#000000"
     fill="none"
     class="Stem" />
  <polyline
     transform="translate(-141.732,-1500.12)"
     id="polyline3594"
     points="2251.44,1612.04 2251.44,1532.36"
     stroke-linejoin="bevel"
     stroke-linecap="round"
     stroke-width="3.25"
     stroke="#000000"
     fill="none"
     class="Stem" />
  <polyline
     transform="translate(-141.732,-1500.12)"
     id="polyline3596"
     points="2175.44,1649.54 2175.44,1566.73"
     stroke-linejoin="bevel"
     stroke-linecap="round"
     stroke-width="3.25"
     stroke="#000000"
     fill="none"
     class="Stem" />
  <polyline
     transform="translate(-141.732,-1500.12)"
     id="polyline3598"
     points="2099.44,1612.04 2099.44,1532.36"
     stroke-linejoin="bevel"
     stroke-linecap="round"
     stroke-width="3.25"
     stroke="#000000"
     fill="none"
     class="Stem" />
  <polyline
     transform="translate(-141.732,-1500.12)"
     id="polyline3600"
     points="1993.77,1596.43 1993.77,1669.86"
     stroke-linejoin="bevel"
     stroke-linecap="round"
     stroke-width="3.25"
     stroke="#000000"
     fill="none"
     class="Stem" />
  <polyline
     transform="translate(-141.732,-1500.12)"
     id="polyline3602"
     points="1916.14,1612.04 1916.14,1532.36"
     stroke-linejoin="bevel"
     stroke-linecap="round"
     stroke-width="3.25"
     stroke="#000000"
     fill="none"
     class="Stem" />
  <polyline
     transform="translate(-141.732,-1500.12)"
     id="polyline3604"
     points="1840.14,1649.54 1840.14,1566.73"
     stroke-linejoin="bevel"
     stroke-linecap="round"
     stroke-width="3.25"
     stroke="#000000"
     fill="none"
     class="Stem" />
  <polyline
     transform="translate(-141.732,-1500.12)"
     id="polyline3606"
     points="1764.13,1612.04 1764.13,1532.36"
     stroke-linejoin="bevel"
     stroke-linecap="round"
     stroke-width="3.25"
     stroke="#000000"
     fill="none"
     class="Stem" />
  <polyline
     transform="translate(-141.732,-1500.12)"
     id="polyline3608"
     points="1658.47,1596.43 1658.47,1669.86"
     stroke-linejoin="bevel"
     stroke-linecap="round"
     stroke-width="3.25"
     stroke="#000000"
     fill="none"
     class="Stem" />
  <polyline
     transform="translate(-141.732,-1500.12)"
     id="polyline3610"
     points="1514.49,1583.15 1514.49,1660.48"
     stroke-linejoin="bevel"
     stroke-linecap="round"
     stroke-width="3.25"
     stroke="#000000"
     fill="none"
     class="Stem" />
  <polyline
     transform="translate(-141.732,-1500.12)"
     id="polyline3612"
     points="1445.53,1583.93 1445.53,1660.48"
     stroke-linejoin="bevel"
     stroke-linecap="round"
     stroke-width="3.25"
     stroke="#000000"
     fill="none"
     class="Stem" />
  <polyline
     transform="translate(-141.732,-1500.12)"
     id="polyline3614"
     points="1405.33,1637.04 1405.33,1554.23"
     stroke-linejoin="bevel"
     stroke-linecap="round"
     stroke-width="3.25"
     stroke="#000000"
     fill="none"
     class="Stem" />
  <polyline
     transform="translate(-141.732,-1500.12)"
     id="polyline3616"
     points="1298.03,1662.04 1298.03,1579.23"
     stroke-linejoin="bevel"
     stroke-linecap="round"
     stroke-width="3.25"
     stroke="#000000"
     fill="none"
     class="Stem" />
  <polyline
     transform="translate(-141.732,-1500.12)"
     id="polyline3618"
     points="1192.36,1583.93 1192.36,1660.48"
     stroke-linejoin="bevel"
     stroke-linecap="round"
     stroke-width="3.25"
     stroke="#000000"
     fill="none"
     class="Stem" />
  <polyline
     transform="translate(-141.732,-1500.12)"
     id="polyline3620"
     points="1146.02,1637.04 1146.02,1554.23"
     stroke-linejoin="bevel"
     stroke-linecap="round"
     stroke-width="3.25"
     stroke="#000000"
     fill="none"
     class="Stem" />
  <polyline
     transform="translate(-141.732,-1500.12)"
     id="polyline3622"
     points="1070.02,1662.04 1070.02,1579.23"
     stroke-linejoin="bevel"
     stroke-linecap="round"
     stroke-width="3.25"
     stroke="#000000"
     fill="none"
     class="Stem" />
  <polyline
     transform="translate(-141.732,-1500.12)"
     id="polyline3624"
     points="955.519,1637.04 955.519,1554.23"
     stroke-linejoin="bevel"
     stroke-linecap="round"
     stroke-width="3.25"
     stroke="#000000"
     fill="none"
     class="Stem" />
  <polyline
     transform="translate(-141.732,-1500.12)"
     id="polyline3626"
     points="849.852,1583.93 849.852,1660.48"
     stroke-linejoin="bevel"
     stroke-linecap="round"
     stroke-width="3.25"
     stroke="#000000"
     fill="none"
     class="Stem" />
  <polyline
     transform="translate(-141.732,-1500.12)"
     id="polyline3628"
     points="803.513,1637.04 803.513,1554.23"
     stroke-linejoin="bevel"
     stroke-linecap="round"
     stroke-width="3.25"
     stroke="#000000"
     fill="none"
     class="Stem" />
  <polyline
     transform="translate(-141.732,-1500.12)"
     id="polyline3630"
     points="727.51,1662.04 727.51,1579.23"
     stroke-linejoin="bevel"
     stroke-linecap="round"
     stroke-width="3.25"
     stroke="#000000"
     fill="none"
     class="Stem" />
  <polyline
     transform="translate(-141.732,-1500.12)"
     id="polyline3632"
     points="613.007,1637.04 613.007,1554.23"
     stroke-linejoin="bevel"
     stroke-linecap="round"
     stroke-width="3.25"
     stroke="#000000"
     fill="none"
     class="Stem" />
  <polyline
     transform="translate(-141.732,-1500.12)"
     id="polyline3634"
     points="507.34,1583.93 507.34,1660.48"
     stroke-linejoin="bevel"
     stroke-linecap="round"
     stroke-width="3.25"
     stroke="#000000"
     fill="none"
     class="Stem" />
  <polyline
     transform="translate(-141.732,-1500.12)"
     id="polyline3636"
     points="461.001,1637.04 461.001,1554.23"
     stroke-linejoin="bevel"
     stroke-linecap="round"
     stroke-width="3.25"
     stroke="#000000"
     fill="none"
     class="Stem" />
  <polyline
     transform="translate(-141.732,-1500.12)"
     id="polyline3638"
     points="384.998,1662.04 384.998,1579.23"
     stroke-linejoin="bevel"
     stroke-linecap="round"
     stroke-width="3.25"
     stroke="#000000"
     fill="none"
     class="Stem" />
  <path
     id="path3904"
     d="m 2665.508,285.36 h 28 v 37.5 h -28 v -37.5"
     fill-rule="evenodd"
     fill="#ffffff"
     class="Note" />
  <path
     id="path3906"
     d="m 2671.648,315.1 c 0.69,0 1.73,0.4 3.09,1.22 1.36,0.81 2.55,1.22 3.56,1.22 1.66,0 3.06,-0.65 4.2,-1.93 1.14,-1.28 1.71,-2.86 1.71,-4.73 0,-1.17 -0.2,-2.2 -0.61,-3.09 -0.41,-0.9 -0.93,-1.59 -1.56,-2.08 -0.63,-0.49 -1.38,-0.89 -2.25,-1.21 -0.87,-0.31 -1.68,-0.51 -2.45,-0.6 -0.76,-0.09 -1.58,-0.13 -2.44,-0.13 v -0.59 c 1.02,-0.36 1.89,-0.71 2.63,-1.06 0.73,-0.35 1.5,-0.81 2.31,-1.4 0.81,-0.58 1.43,-1.29 1.87,-2.13 0.44,-0.84 0.65,-1.8 0.65,-2.88 0,-1.41 -0.45,-2.56 -1.37,-3.46 -0.92,-0.9 -2.11,-1.36 -3.58,-1.36 -1.4,0 -2.64,0.39 -3.71,1.15 -1.07,0.77 -2.06,1.97 -2.99,3.62 l -0.67,-0.17 c 0.77,-2.14 1.82,-3.89 3.16,-5.25 1.34,-1.37 3.24,-2.05 5.7,-2.05 2.07,0 3.76,0.57 5.06,1.71 1.3,1.14 1.95,2.63 1.95,4.46 0,1.23 -0.31,2.31 -0.94,3.24 -0.63,0.92 -1.73,1.91 -3.29,2.97 1.8,0.78 3.21,1.77 4.23,2.98 1.02,1.21 1.53,2.93 1.53,5.17 0,3.19 -1.17,5.74 -3.53,7.65 -2.35,1.91 -5.32,2.87 -8.89,2.87 -1.55,0 -2.79,-0.23 -3.7,-0.7 -0.92,-0.46 -1.38,-1.08 -1.38,-1.86 0,-0.48 0.16,-0.87 0.47,-1.15 0.31,-0.29 0.73,-0.43 1.24,-0.43"
     class="Note" />
  <path
     id="path3908"
     d="m 2691.398,72.57 c 0,-1.11 -0.42,-2.05 -1.27,-2.83 -0.85,-0.85 -1.83,-1.27 -2.93,-1.27 -1.95,0 -5.89,1.96 -11.82,5.86 -6.12,3.97 -9.87,6.8 -11.23,8.5 -0.72,0.91 -1.08,1.85 -1.08,2.83 0,1.1 0.43,2.05 1.28,2.83 0.78,0.84 1.76,1.26 2.92,1.26 1.89,0 5.86,-1.95 11.93,-5.86 5.99,-3.9 9.69,-6.74 11.12,-8.5 0.72,-0.84 1.08,-1.78 1.08,-2.82 m -5.17,-7.22 c 5.59,0 8.39,2.4 8.39,7.22 0,2.34 -0.68,5.07 -2.05,8.2 -1.36,3.06 -3.19,5.41 -5.47,7.03 -5.01,3.39 -11.29,5.08 -18.84,5.08 -5.6,0 -8.41,-2.41 -8.41,-7.22 0,-2.15 0.69,-4.85 2.05,-8.11 1.3,-3.12 3.12,-5.5 5.47,-7.12 5.02,-3.39 11.31,-5.08 18.86,-5.08"
     class="Note" />
  <path
     id="path3910"
     d="m 2595.638,285.36 h 28 v 37.5 h -28 v -37.5"
     fill-rule="evenodd"
     fill="#ffffff"
     class="Note" />
  <path
     id="path3912"
     d="m 2599.528,297.14 c 0.16,-0.68 0.31,-1.28 0.45,-1.78 0.15,-0.51 0.47,-1.25 0.97,-2.22 0.5,-0.96 1.06,-1.77 1.68,-2.41 0.61,-0.64 1.46,-1.22 2.56,-1.73 1.09,-0.51 2.33,-0.76 3.7,-0.76 2.34,0 4.32,0.76 5.92,2.28 1.61,1.52 2.41,3.4 2.41,5.64 0,3.39 -1.92,7.09 -5.77,11.11 l -7.54,7.92 h 10.75 c 1.02,0 1.78,-0.17 2.27,-0.51 0.49,-0.35 1.16,-1.17 2.01,-2.46 l 0.58,0.22 -2.47,6.17 h -17.57 v -0.54 l 8.02,-8.5 c 3.9,-4.14 5.84,-8.04 5.84,-11.71 0,-1.88 -0.58,-3.41 -1.75,-4.58 -1.16,-1.17 -2.69,-1.76 -4.59,-1.76 -1.55,0 -2.8,0.43 -3.75,1.28 -0.95,0.85 -1.87,2.38 -2.77,4.58 l -0.95,-0.24"
     class="Note" />
  <path
     id="path3914"
     d="m 2612.858,77.85 c 3.12,0 5.77,0.81 7.92,2.44 2.01,1.76 3.02,3.97 3.02,6.64 0,4.49 -2.31,8.68 -6.92,12.59 -4.69,3.91 -9.71,5.86 -15.05,5.86 -3.13,0 -5.76,-0.81 -7.91,-2.44 -2.02,-1.76 -3.03,-3.97 -3.03,-6.64 0,-4.49 2.34,-8.69 7.03,-12.59 4.56,-3.91 9.54,-5.86 14.94,-5.86"
     class="Note" />
  <path
     id="path3916"
     d="m 2525.778,285.36 h 28 v 37.5 h -28 v -37.5"
     fill-rule="evenodd"
     fill="#ffffff"
     class="Note" />
  <path
     id="path3918"
     d="m 2546.908,314.92 c -1.86,2.88 -4.32,4.32 -7.38,4.32 -3.07,0 -5.53,-1.47 -7.39,-4.41 -1.86,-2.94 -2.79,-6.72 -2.79,-11.34 0,-4.35 0.93,-7.98 2.79,-10.91 1.86,-2.93 4.38,-4.39 7.56,-4.39 2.95,0 5.35,1.44 7.21,4.32 1.86,2.88 2.79,6.63 2.79,11.26 0,4.55 -0.93,8.27 -2.79,11.15 m -7.34,-25.56 c -3.92,0 -5.89,4.85 -5.89,14.53 0,9.45 1.95,14.18 5.85,14.18 3.89,0 5.84,-4.74 5.84,-14.22 0,-4.71 -0.49,-8.3 -1.48,-10.78 -0.99,-2.47 -2.43,-3.71 -4.32,-3.71"
     class="Note" />
  <path
     id="path3920"
     d="m 2542.998,90.35 c 3.12,0 5.76,0.81 7.92,2.44 2.01,1.76 3.01,3.97 3.01,6.64 0,4.49 -2.3,8.68 -6.92,12.59 -4.69,3.91 -9.7,5.86 -15.05,5.86 -3.12,0 -5.76,-0.81 -7.9,-2.44 -2.02,-1.76 -3.03,-3.97 -3.03,-6.64 0,-4.49 2.34,-8.69 7.03,-12.59 4.56,-3.91 9.54,-5.86 14.94,-5.86"
     class="Note" />
  <path
     id="path3922"
     d="m 2418.478,322.86 h 28 v 37.5 h -28 v -37.5"
     fill-rule="evenodd"
     fill="#ffffff"
     class="Note" />
  <path
     id="path3924"
     d="m 2424.618,352.6 c 0.7,0 1.73,0.4 3.09,1.22 1.37,0.81 2.56,1.22 3.57,1.22 1.65,0 3.05,-0.65 4.19,-1.93 1.14,-1.28 1.71,-2.86 1.71,-4.73 0,-1.17 -0.2,-2.2 -0.61,-3.09 -0.4,-0.9 -0.92,-1.59 -1.55,-2.08 -0.63,-0.49 -1.38,-0.89 -2.25,-1.21 -0.87,-0.31 -1.69,-0.51 -2.45,-0.6 -0.77,-0.09 -1.58,-0.13 -2.45,-0.13 v -0.59 c 1.02,-0.36 1.9,-0.71 2.63,-1.06 0.74,-0.35 1.51,-0.81 2.32,-1.4 0.8,-0.58 1.43,-1.29 1.86,-2.13 0.44,-0.84 0.66,-1.8 0.66,-2.88 0,-1.41 -0.46,-2.56 -1.38,-3.46 -0.91,-0.9 -2.1,-1.36 -3.57,-1.36 -1.41,0 -2.65,0.39 -3.71,1.15 -1.07,0.77 -2.07,1.97 -3,3.62 l -0.67,-0.17 c 0.77,-2.14 1.83,-3.89 3.17,-5.25 1.33,-1.37 3.23,-2.05 5.69,-2.05 2.07,0 3.76,0.57 5.06,1.71 1.31,1.14 1.96,2.63 1.96,4.46 0,1.23 -0.32,2.31 -0.95,3.24 -0.63,0.92 -1.73,1.91 -3.29,2.97 1.8,0.78 3.22,1.77 4.24,2.98 1.02,1.21 1.53,2.93 1.53,5.17 0,3.19 -1.18,5.74 -3.53,7.65 -2.36,1.91 -5.32,2.87 -8.89,2.87 -1.56,0 -2.79,-0.23 -3.71,-0.7 -0.91,-0.46 -1.37,-1.08 -1.37,-1.86 0,-0.48 0.15,-0.87 0.47,-1.15 0.31,-0.29 0.72,-0.43 1.23,-0.43"
     class="Note" />
  <path
     id="path3926"
     d="m 2435.698,102.85 c 3.12,0 5.76,0.81 7.92,2.44 2.01,1.76 3.02,3.97 3.02,6.64 0,4.49 -2.31,8.68 -6.93,12.59 -4.68,3.91 -9.7,5.86 -15.04,5.86 -3.13,0 -5.76,-0.81 -7.91,-2.44 -2.02,-1.76 -3.03,-3.97 -3.03,-6.64 0,-4.49 2.34,-8.69 7.03,-12.59 4.56,-3.91 9.54,-5.86 14.94,-5.86"
     class="Note" />
  <path
     id="path3928"
     d="m 2342.478,360.36 h 28 v 37.5 h -28 v -37.5"
     fill-rule="evenodd"
     fill="#ffffff"
     class="Note" />
  <path
     id="path3930"
     d="m 2346.368,372.14 c 0.15,-0.68 0.31,-1.28 0.45,-1.78 0.15,-0.51 0.47,-1.25 0.97,-2.22 0.5,-0.96 1.06,-1.77 1.67,-2.41 0.62,-0.64 1.47,-1.22 2.56,-1.73 1.1,-0.51 2.33,-0.76 3.71,-0.76 2.34,0 4.32,0.76 5.92,2.28 1.6,1.52 2.41,3.4 2.41,5.64 0,3.39 -1.93,7.09 -5.77,11.11 l -7.55,7.92 h 10.75 c 1.02,0 1.78,-0.17 2.28,-0.51 0.49,-0.35 1.16,-1.17 2,-2.46 l 0.58,0.22 -2.47,6.17 h -17.56 v -0.54 l 8.02,-8.5 c 3.89,-4.14 5.84,-8.04 5.84,-11.71 0,-1.88 -0.58,-3.41 -1.75,-4.58 -1.17,-1.17 -2.7,-1.76 -4.59,-1.76 -1.56,0 -2.81,0.43 -3.75,1.28 -0.95,0.86 -1.87,2.38 -2.77,4.58 l -0.95,-0.24"
     class="Note" />
  <path
     id="path3932"
     d="m 2359.698,140.35 c 3.12,0 5.76,0.81 7.92,2.44 2.01,1.76 3.01,3.97 3.01,6.64 0,4.49 -2.3,8.68 -6.92,12.59 -4.69,3.91 -9.7,5.86 -15.04,5.86 -3.13,0 -5.77,-0.81 -7.91,-2.44 -2.02,-1.76 -3.03,-3.97 -3.03,-6.64 0,-4.49 2.34,-8.69 7.03,-12.59 4.56,-3.91 9.54,-5.86 14.94,-5.86"
     class="Note" />
  <path
     id="path3934"
     d="m 2266.468,322.86 h 28 v 37.5 h -28 v -37.5"
     fill-rule="evenodd"
     fill="#ffffff"
     class="Note" />
  <path
     id="path3936"
     d="m 2272.618,352.6 c 0.69,0 1.72,0.4 3.09,1.22 1.36,0.81 2.55,1.22 3.56,1.22 1.66,0 3.06,-0.65 4.2,-1.93 1.14,-1.28 1.71,-2.86 1.71,-4.73 0,-1.17 -0.21,-2.2 -0.61,-3.09 -0.41,-0.9 -0.93,-1.59 -1.56,-2.08 -0.63,-0.49 -1.38,-0.89 -2.25,-1.21 -0.87,-0.31 -1.68,-0.51 -2.45,-0.6 -0.77,-0.09 -1.58,-0.13 -2.44,-0.13 v -0.59 c 1.02,-0.36 1.89,-0.71 2.63,-1.06 0.73,-0.35 1.5,-0.81 2.31,-1.4 0.81,-0.58 1.43,-1.29 1.87,-2.13 0.44,-0.84 0.65,-1.8 0.65,-2.88 0,-1.41 -0.45,-2.56 -1.37,-3.46 -0.92,-0.9 -2.11,-1.36 -3.58,-1.36 -1.41,0 -2.64,0.39 -3.71,1.15 -1.07,0.77 -2.07,1.97 -2.99,3.62 l -0.67,-0.17 c 0.77,-2.14 1.82,-3.89 3.16,-5.25 1.34,-1.37 3.24,-2.05 5.7,-2.05 2.07,0 3.76,0.57 5.06,1.71 1.3,1.14 1.95,2.63 1.95,4.46 0,1.23 -0.31,2.31 -0.94,3.24 -0.63,0.92 -1.73,1.91 -3.29,2.97 1.8,0.78 3.21,1.77 4.23,2.98 1.02,1.21 1.53,2.93 1.53,5.17 0,3.19 -1.17,5.74 -3.53,7.65 -2.35,1.91 -5.32,2.87 -8.89,2.87 -1.55,0 -2.79,-0.23 -3.7,-0.7 -0.92,-0.46 -1.38,-1.08 -1.38,-1.86 0,-0.48 0.16,-0.87 0.47,-1.15 0.31,-0.29 0.72,-0.43 1.24,-0.43"
     class="Note" />
  <path
     id="path3938"
     d="m 2283.688,102.85 c 3.13,0 5.77,0.81 7.93,2.44 2.01,1.76 3.01,3.97 3.01,6.64 0,4.49 -2.31,8.68 -6.92,12.59 -4.69,3.91 -9.7,5.86 -15.05,5.86 -3.12,0 -5.76,-0.81 -7.9,-2.44 -2.02,-1.76 -3.04,-3.97 -3.04,-6.64 0,-4.49 2.35,-8.69 7.04,-12.59 4.56,-3.91 9.54,-5.86 14.93,-5.86"
     class="Note" />
  <path
     id="path3940"
     d="m 2190.468,285.36 h 28 v 37.5 h -28 v -37.5"
     fill-rule="evenodd"
     fill="#ffffff"
     class="Note" />
  <path
     id="path3942"
     d="m 2194.358,297.14 c 0.16,-0.68 0.31,-1.28 0.46,-1.78 0.14,-0.51 0.46,-1.25 0.96,-2.22 0.5,-0.96 1.06,-1.77 1.68,-2.41 0.61,-0.64 1.46,-1.22 2.56,-1.73 1.09,-0.51 2.33,-0.76 3.7,-0.76 2.35,0 4.32,0.76 5.92,2.28 1.61,1.52 2.41,3.4 2.41,5.64 0,3.39 -1.92,7.09 -5.77,11.11 l -7.54,7.92 h 10.75 c 1.02,0 1.78,-0.17 2.27,-0.51 0.5,-0.35 1.16,-1.17 2.01,-2.46 l 0.58,0.22 -2.47,6.17 h -17.56 v -0.54 l 8.01,-8.5 c 3.9,-4.14 5.84,-8.04 5.84,-11.71 0,-1.88 -0.58,-3.41 -1.75,-4.58 -1.16,-1.17 -2.69,-1.76 -4.59,-1.76 -1.55,0 -2.8,0.43 -3.75,1.28 -0.95,0.85 -1.87,2.38 -2.76,4.58 l -0.96,-0.24"
     class="Note" />
  <path
     id="path3944"
     d="m 2207.688,77.85 c 3.13,0 5.77,0.81 7.92,2.44 2.01,1.76 3.02,3.97 3.02,6.64 0,4.49 -2.31,8.68 -6.92,12.59 -4.69,3.91 -9.71,5.86 -15.05,5.86 -3.13,0 -5.76,-0.81 -7.91,-2.44 -2.02,-1.76 -3.03,-3.97 -3.03,-6.64 0,-4.49 2.35,-8.69 7.03,-12.59 4.57,-3.91 9.54,-5.86 14.94,-5.86"
     class="Note" />
  <path
     id="path3946"
     d="m 2083.178,322.86 h 28 v 37.5 h -28 v -37.5"
     fill-rule="evenodd"
     fill="#ffffff"
     class="Note" />
  <path
     id="path3948"
     d="m 2089.318,352.6 c 0.69,0 1.73,0.4 3.09,1.22 1.36,0.81 2.55,1.22 3.56,1.22 1.66,0 3.06,-0.65 4.2,-1.93 1.14,-1.28 1.71,-2.86 1.71,-4.73 0,-1.17 -0.2,-2.2 -0.61,-3.09 -0.41,-0.9 -0.92,-1.59 -1.56,-2.08 -0.63,-0.49 -1.38,-0.89 -2.25,-1.21 -0.86,-0.31 -1.68,-0.51 -2.45,-0.6 -0.76,-0.09 -1.58,-0.13 -2.44,-0.13 v -0.59 c 1.02,-0.36 1.89,-0.71 2.63,-1.06 0.73,-0.35 1.5,-0.81 2.31,-1.4 0.81,-0.58 1.43,-1.29 1.87,-2.13 0.44,-0.84 0.66,-1.8 0.66,-2.88 0,-1.41 -0.46,-2.56 -1.38,-3.46 -0.92,-0.9 -2.11,-1.36 -3.58,-1.36 -1.4,0 -2.64,0.39 -3.71,1.15 -1.07,0.77 -2.06,1.97 -2.99,3.62 l -0.67,-0.17 c 0.77,-2.14 1.82,-3.89 3.16,-5.25 1.34,-1.37 3.24,-2.05 5.7,-2.05 2.07,0 3.76,0.57 5.06,1.71 1.3,1.14 1.95,2.63 1.95,4.46 0,1.23 -0.31,2.31 -0.94,3.24 -0.63,0.92 -1.73,1.91 -3.29,2.97 1.8,0.78 3.21,1.77 4.23,2.98 1.02,1.21 1.53,2.93 1.53,5.17 0,3.19 -1.17,5.74 -3.53,7.65 -2.35,1.91 -5.32,2.87 -8.89,2.87 -1.55,0 -2.79,-0.23 -3.7,-0.7 -0.92,-0.46 -1.38,-1.08 -1.38,-1.86 0,-0.48 0.16,-0.87 0.47,-1.15 0.31,-0.29 0.73,-0.43 1.24,-0.43"
     class="Note" />
  <path
     id="path3950"
     d="m 2100.388,102.85 c 3.13,0 5.77,0.81 7.93,2.44 2.01,1.76 3.01,3.97 3.01,6.64 0,4.49 -2.31,8.68 -6.92,12.59 -4.69,3.91 -9.7,5.86 -15.05,5.86 -3.12,0 -5.76,-0.81 -7.9,-2.44 -2.02,-1.76 -3.03,-3.97 -3.03,-6.64 0,-4.49 2.34,-8.69 7.03,-12.59 4.56,-3.91 9.54,-5.86 14.93,-5.86"
     class="Note" />
  <path
     id="path3952"
     d="m 2007.168,360.36 h 28 v 37.5 h -28 v -37.5"
     fill-rule="evenodd"
     fill="#ffffff"
     class="Note" />
  <path
     id="path3954"
     d="m 2011.058,372.14 c 0.16,-0.68 0.31,-1.28 0.46,-1.78 0.14,-0.51 0.47,-1.25 0.97,-2.22 0.5,-0.96 1.05,-1.77 1.67,-2.41 0.61,-0.64 1.47,-1.22 2.56,-1.73 1.09,-0.51 2.33,-0.76 3.7,-0.76 2.35,0 4.32,0.76 5.92,2.28 1.61,1.52 2.41,3.4 2.41,5.64 0,3.39 -1.92,7.09 -5.76,11.11 l -7.55,7.92 h 10.75 c 1.02,0 1.78,-0.17 2.27,-0.51 0.5,-0.35 1.17,-1.17 2.01,-2.46 l 0.58,0.22 -2.47,6.17 h -17.56 v -0.54 l 8.01,-8.5 c 3.9,-4.14 5.85,-8.04 5.85,-11.71 0,-1.88 -0.59,-3.41 -1.75,-4.58 -1.17,-1.17 -2.7,-1.76 -4.6,-1.76 -1.55,0 -2.8,0.43 -3.75,1.28 -0.95,0.86 -1.87,2.38 -2.76,4.58 l -0.96,-0.24"
     class="Note" />
  <path
     id="path3956"
     d="m 2024.388,140.35 c 3.13,0 5.77,0.81 7.92,2.44 2.01,1.76 3.02,3.97 3.02,6.64 0,4.49 -2.31,8.68 -6.92,12.59 -4.69,3.91 -9.71,5.86 -15.05,5.86 -3.12,0 -5.76,-0.81 -7.91,-2.44 -2.02,-1.76 -3.03,-3.97 -3.03,-6.64 0,-4.49 2.35,-8.69 7.03,-12.59 4.57,-3.91 9.55,-5.86 14.94,-5.86"
     class="Note" />
  <path
     id="path3958"
     d="m 1931.168,322.86 h 28 v 37.5 h -28 v -37.5"
     fill-rule="evenodd"
     fill="#ffffff"
     class="Note" />
  <path
     id="path3960"
     d="m 1937.308,352.6 c 0.7,0 1.73,0.4 3.09,1.22 1.37,0.81 2.56,1.22 3.57,1.22 1.65,0 3.05,-0.65 4.19,-1.93 1.14,-1.28 1.71,-2.86 1.71,-4.73 0,-1.17 -0.2,-2.2 -0.61,-3.09 -0.4,-0.9 -0.92,-1.59 -1.55,-2.08 -0.63,-0.49 -1.38,-0.89 -2.25,-1.21 -0.87,-0.31 -1.69,-0.51 -2.45,-0.6 -0.77,-0.09 -1.58,-0.13 -2.45,-0.13 v -0.59 c 1.02,-0.36 1.9,-0.71 2.63,-1.06 0.74,-0.35 1.51,-0.81 2.32,-1.4 0.8,-0.58 1.43,-1.29 1.86,-2.13 0.44,-0.84 0.66,-1.8 0.66,-2.88 0,-1.41 -0.46,-2.56 -1.38,-3.46 -0.91,-0.9 -2.11,-1.36 -3.57,-1.36 -1.41,0 -2.65,0.39 -3.71,1.15 -1.07,0.77 -2.07,1.97 -3,3.62 l -0.67,-0.17 c 0.77,-2.14 1.83,-3.89 3.17,-5.25 1.33,-1.37 3.23,-2.05 5.69,-2.05 2.07,0 3.76,0.57 5.06,1.71 1.31,1.14 1.96,2.63 1.96,4.46 0,1.23 -0.32,2.31 -0.95,3.24 -0.63,0.92 -1.73,1.91 -3.29,2.97 1.8,0.78 3.22,1.77 4.24,2.98 1.02,1.21 1.53,2.93 1.53,5.17 0,3.19 -1.18,5.74 -3.53,7.65 -2.36,1.91 -5.32,2.87 -8.89,2.87 -1.56,0 -2.79,-0.23 -3.71,-0.7 -0.91,-0.46 -1.37,-1.08 -1.37,-1.86 0,-0.48 0.15,-0.87 0.47,-1.15 0.31,-0.29 0.72,-0.43 1.23,-0.43"
     class="Note" />
  <path
     id="path3962"
     d="m 1948.388,102.85 c 3.12,0 5.76,0.81 7.92,2.44 2.01,1.76 3.02,3.97 3.02,6.64 0,4.49 -2.31,8.68 -6.93,12.59 -4.68,3.91 -9.7,5.86 -15.04,5.86 -3.13,0 -5.76,-0.81 -7.91,-2.44 -2.02,-1.76 -3.03,-3.97 -3.03,-6.64 0,-4.49 2.34,-8.69 7.03,-12.59 4.56,-3.91 9.54,-5.86 14.94,-5.86"
     class="Note" />
  <path
     id="path3964"
     d="m 1855.168,285.36 h 28 v 37.5 h -28 v -37.5"
     fill-rule="evenodd"
     fill="#ffffff"
     class="Note" />
  <path
     id="path3966"
     d="m 1859.058,297.14 c 0.15,-0.68 0.3,-1.28 0.45,-1.78 0.15,-0.51 0.47,-1.25 0.97,-2.22 0.5,-0.96 1.06,-1.77 1.67,-2.41 0.62,-0.64 1.47,-1.22 2.56,-1.73 1.1,-0.51 2.33,-0.76 3.71,-0.76 2.34,0 4.31,0.76 5.92,2.28 1.6,1.52 2.41,3.4 2.41,5.64 0,3.39 -1.93,7.09 -5.77,11.11 l -7.55,7.92 h 10.75 c 1.02,0 1.78,-0.17 2.28,-0.51 0.49,-0.35 1.16,-1.17 2,-2.46 l 0.58,0.22 -2.47,6.17 h -17.56 v -0.54 l 8.02,-8.5 c 3.89,-4.14 5.84,-8.04 5.84,-11.71 0,-1.88 -0.58,-3.41 -1.75,-4.58 -1.17,-1.17 -2.7,-1.76 -4.59,-1.76 -1.56,0 -2.81,0.43 -3.75,1.28 -0.95,0.85 -1.87,2.38 -2.77,4.58 l -0.95,-0.24"
     class="Note" />
  <path
     id="path3968"
     d="m 1872.388,77.85 c 3.12,0 5.76,0.81 7.92,2.44 2.01,1.76 3.01,3.97 3.01,6.64 0,4.49 -2.3,8.68 -6.92,12.59 -4.69,3.91 -9.7,5.86 -15.05,5.86 -3.12,0 -5.76,-0.81 -7.9,-2.44 -2.02,-1.76 -3.03,-3.97 -3.03,-6.64 0,-4.49 2.34,-8.69 7.03,-12.59 4.56,-3.91 9.54,-5.86 14.94,-5.86"
     class="Note" />
  <path
     id="path3970"
     d="m 1747.868,322.86 h 28 v 37.5 h -28 v -37.5"
     fill-rule="evenodd"
     fill="#ffffff"
     class="Note" />
  <path
     id="path3972"
     d="m 1754.008,352.6 c 0.7,0 1.73,0.4 3.1,1.22 1.36,0.81 2.55,1.22 3.56,1.22 1.65,0 3.05,-0.65 4.19,-1.93 1.14,-1.28 1.71,-2.86 1.71,-4.73 0,-1.17 -0.2,-2.2 -0.61,-3.09 -0.4,-0.9 -0.92,-1.59 -1.55,-2.08 -0.63,-0.49 -1.38,-0.89 -2.25,-1.21 -0.87,-0.31 -1.69,-0.51 -2.45,-0.6 -0.77,-0.09 -1.58,-0.13 -2.45,-0.13 v -0.59 c 1.02,-0.36 1.9,-0.71 2.63,-1.06 0.74,-0.35 1.51,-0.81 2.32,-1.4 0.8,-0.58 1.43,-1.29 1.86,-2.13 0.44,-0.84 0.66,-1.8 0.66,-2.88 0,-1.41 -0.46,-2.56 -1.37,-3.46 -0.92,-0.9 -2.11,-1.36 -3.58,-1.36 -1.41,0 -2.65,0.39 -3.71,1.15 -1.07,0.77 -2.07,1.97 -3,3.62 l -0.67,-0.17 c 0.77,-2.14 1.83,-3.89 3.17,-5.25 1.33,-1.37 3.23,-2.05 5.69,-2.05 2.07,0 3.76,0.57 5.06,1.71 1.31,1.14 1.96,2.63 1.96,4.46 0,1.23 -0.32,2.31 -0.95,3.24 -0.63,0.92 -1.72,1.91 -3.29,2.97 1.8,0.78 3.22,1.77 4.24,2.98 1.02,1.21 1.53,2.93 1.53,5.17 0,3.19 -1.18,5.74 -3.53,7.65 -2.36,1.91 -5.32,2.87 -8.89,2.87 -1.56,0 -2.79,-0.23 -3.71,-0.7 -0.91,-0.46 -1.37,-1.08 -1.37,-1.86 0,-0.48 0.15,-0.87 0.47,-1.15 0.31,-0.29 0.72,-0.43 1.23,-0.43"
     class="Note" />
  <path
     id="path3974"
     d="m 1765.088,102.85 c 3.12,0 5.77,0.81 7.92,2.44 2.01,1.76 3.02,3.97 3.02,6.64 0,4.49 -2.31,8.68 -6.92,12.59 -4.69,3.91 -9.71,5.86 -15.05,5.86 -3.13,0 -5.76,-0.81 -7.91,-2.44 -2.02,-1.76 -3.03,-3.97 -3.03,-6.64 0,-4.49 2.34,-8.69 7.03,-12.59 4.56,-3.91 9.54,-5.86 14.94,-5.86"
     class="Note" />
  <path
     id="path3976"
     d="m 1671.868,360.36 h 28 v 37.5 h -28 v -37.5"
     fill-rule="evenodd"
     fill="#ffffff"
     class="Note" />
  <path
     id="path3978"
     d="m 1675.758,372.14 c 0.15,-0.68 0.31,-1.28 0.45,-1.78 0.15,-0.51 0.47,-1.25 0.97,-2.22 0.5,-0.96 1.06,-1.77 1.67,-2.41 0.62,-0.64 1.47,-1.22 2.56,-1.73 1.1,-0.51 2.33,-0.76 3.71,-0.76 2.34,0 4.32,0.76 5.92,2.28 1.6,1.52 2.41,3.4 2.41,5.64 0,3.39 -1.93,7.09 -5.77,11.11 l -7.55,7.92 h 10.75 c 1.02,0 1.78,-0.17 2.28,-0.51 0.49,-0.35 1.16,-1.17 2,-2.46 l 0.58,0.22 -2.47,6.17 h -17.56 v -0.54 l 8.02,-8.5 c 3.89,-4.14 5.84,-8.04 5.84,-11.71 0,-1.88 -0.58,-3.41 -1.75,-4.58 -1.17,-1.17 -2.7,-1.76 -4.59,-1.76 -1.55,0 -2.8,0.43 -3.75,1.28 -0.95,0.86 -1.87,2.38 -2.77,4.58 l -0.95,-0.24"
     class="Note" />
  <path
     id="path3980"
     d="m 1689.088,140.35 c 3.12,0 5.76,0.81 7.92,2.44 2.01,1.76 3.01,3.97 3.01,6.64 0,4.49 -2.3,8.68 -6.92,12.59 -4.69,3.91 -9.7,5.86 -15.04,5.86 -3.13,0 -5.76,-0.81 -7.91,-2.44 -2.02,-1.76 -3.03,-3.97 -3.03,-6.64 0,-4.49 2.34,-8.69 7.03,-12.59 4.56,-3.91 9.54,-5.86 14.94,-5.86"
     class="Note" />
  <path
     id="path3982"
     d="m 1595.868,322.86 h 28 v 37.5 h -28 v -37.5"
     fill-rule="evenodd"
     fill="#ffffff"
     class="Note" />
  <path
     id="path3984"
     d="m 1602.008,352.6 c 0.69,0 1.72,0.4 3.09,1.22 1.36,0.81 2.55,1.22 3.56,1.22 1.66,0 3.06,-0.65 4.2,-1.93 1.14,-1.28 1.71,-2.86 1.71,-4.73 0,-1.17 -0.2,-2.2 -0.61,-3.09 -0.41,-0.9 -0.93,-1.59 -1.56,-2.08 -0.63,-0.49 -1.38,-0.89 -2.25,-1.21 -0.87,-0.31 -1.68,-0.51 -2.45,-0.6 -0.76,-0.09 -1.58,-0.13 -2.44,-0.13 v -0.59 c 1.02,-0.36 1.89,-0.71 2.63,-1.06 0.73,-0.35 1.5,-0.81 2.31,-1.4 0.81,-0.58 1.43,-1.29 1.87,-2.13 0.44,-0.84 0.65,-1.8 0.65,-2.88 0,-1.41 -0.45,-2.56 -1.37,-3.46 -0.92,-0.9 -2.11,-1.36 -3.58,-1.36 -1.4,0 -2.64,0.39 -3.71,1.15 -1.07,0.77 -2.06,1.97 -2.99,3.62 l -0.67,-0.17 c 0.77,-2.14 1.82,-3.89 3.16,-5.25 1.34,-1.37 3.24,-2.05 5.7,-2.05 2.07,0 3.76,0.57 5.06,1.71 1.3,1.14 1.95,2.63 1.95,4.46 0,1.23 -0.31,2.31 -0.94,3.24 -0.63,0.92 -1.73,1.91 -3.29,2.97 1.8,0.78 3.21,1.77 4.23,2.98 1.02,1.21 1.53,2.93 1.53,5.17 0,3.19 -1.17,5.74 -3.53,7.65 -2.35,1.91 -5.32,2.87 -8.89,2.87 -1.55,0 -2.79,-0.23 -3.7,-0.7 -0.92,-0.46 -1.38,-1.08 -1.38,-1.86 0,-0.48 0.16,-0.87 0.47,-1.15 0.31,-0.29 0.73,-0.43 1.24,-0.43"
     class="Note" />
  <path
     id="path3986"
     d="m 1613.078,102.85 c 3.13,0 5.77,0.81 7.93,2.44 2.01,1.76 3.01,3.97 3.01,6.64 0,4.49 -2.31,8.68 -6.92,12.59 -4.69,3.91 -9.7,5.86 -15.05,5.86 -3.12,0 -5.76,-0.81 -7.9,-2.44 -2.02,-1.76 -3.03,-3.97 -3.03,-6.64 0,-4.49 2.34,-8.69 7.03,-12.59 4.56,-3.91 9.54,-5.86 14.93,-5.86"
     class="Note" />
  <path
     id="path3988"
     d="m 1519.858,285.36 h 28 v 37.5 h -28 v -37.5"
     fill-rule="evenodd"
     fill="#ffffff"
     class="Note" />
  <path
     id="path3990"
     d="m 1523.748,297.14 c 0.16,-0.68 0.31,-1.28 0.46,-1.78 0.14,-0.51 0.46,-1.25 0.96,-2.22 0.5,-0.96 1.06,-1.77 1.68,-2.41 0.61,-0.64 1.47,-1.22 2.56,-1.73 1.09,-0.51 2.33,-0.76 3.7,-0.76 2.35,0 4.32,0.76 5.92,2.28 1.61,1.52 2.41,3.4 2.41,5.64 0,3.39 -1.92,7.09 -5.77,11.11 l -7.54,7.92 h 10.75 c 1.02,0 1.78,-0.17 2.27,-0.51 0.5,-0.35 1.17,-1.17 2.01,-2.46 l 0.58,0.22 -2.47,6.17 h -17.56 v -0.54 l 8.01,-8.5 c 3.9,-4.14 5.85,-8.04 5.85,-11.71 0,-1.88 -0.59,-3.41 -1.75,-4.58 -1.17,-1.17 -2.7,-1.76 -4.6,-1.76 -1.55,0 -2.8,0.43 -3.75,1.28 -0.95,0.85 -1.87,2.38 -2.76,4.58 l -0.96,-0.24"
     class="Note" />
  <path
     id="path3992"
     d="m 1537.078,77.85 c 3.13,0 5.77,0.81 7.92,2.44 2.01,1.76 3.02,3.97 3.02,6.64 0,4.49 -2.31,8.68 -6.92,12.59 -4.69,3.91 -9.71,5.86 -15.05,5.86 -3.13,0 -5.76,-0.81 -7.91,-2.44 -2.02,-1.76 -3.03,-3.97 -3.03,-6.64 0,-4.49 2.35,-8.69 7.03,-12.59 4.57,-3.91 9.55,-5.86 14.94,-5.86"
     class="Note" />
  <path
     id="path3994"
     d="m 1376.788,285.36 h 28 v 37.5 h -28 v -37.5"
     fill-rule="evenodd"
     fill="#ffffff"
     class="Note" />
  <path
     id="path3996"
     d="m 1382.928,315.1 c 0.69,0 1.73,0.4 3.09,1.22 1.37,0.81 2.55,1.22 3.56,1.22 1.66,0 3.06,-0.65 4.2,-1.93 1.14,-1.28 1.71,-2.86 1.71,-4.73 0,-1.17 -0.2,-2.2 -0.61,-3.09 -0.41,-0.9 -0.92,-1.59 -1.55,-2.08 -0.63,-0.49 -1.38,-0.89 -2.25,-1.21 -0.87,-0.31 -1.69,-0.51 -2.46,-0.6 -0.76,-0.09 -1.58,-0.13 -2.44,-0.13 v -0.59 c 1.02,-0.36 1.9,-0.71 2.63,-1.06 0.73,-0.35 1.5,-0.81 2.31,-1.4 0.81,-0.58 1.43,-1.29 1.87,-2.13 0.44,-0.84 0.66,-1.8 0.66,-2.88 0,-1.41 -0.46,-2.56 -1.38,-3.46 -0.92,-0.9 -2.11,-1.36 -3.58,-1.36 -1.4,0 -2.64,0.39 -3.71,1.15 -1.07,0.77 -2.06,1.97 -2.99,3.62 l -0.67,-0.17 c 0.77,-2.14 1.82,-3.89 3.16,-5.25 1.34,-1.37 3.24,-2.05 5.7,-2.05 2.07,0 3.76,0.57 5.06,1.71 1.3,1.14 1.95,2.63 1.95,4.46 0,1.23 -0.31,2.31 -0.94,3.24 -0.63,0.92 -1.73,1.91 -3.29,2.97 1.8,0.78 3.21,1.77 4.23,2.98 1.02,1.21 1.53,2.93 1.53,5.17 0,3.19 -1.17,5.74 -3.53,7.65 -2.35,1.91 -5.32,2.87 -8.89,2.87 -1.55,0 -2.78,-0.23 -3.7,-0.7 -0.92,-0.46 -1.38,-1.08 -1.38,-1.86 0,-0.48 0.16,-0.87 0.47,-1.15 0.31,-0.29 0.73,-0.43 1.24,-0.43"
     class="Note" />
  <path
     id="path3998"
     d="m 1402.678,72.57 c 0,-1.11 -0.42,-2.05 -1.26,-2.83 -0.86,-0.85 -1.84,-1.27 -2.94,-1.27 -1.95,0 -5.89,1.96 -11.81,5.86 -6.13,3.97 -9.87,6.8 -11.24,8.5 -0.72,0.91 -1.08,1.85 -1.08,2.83 0,1.1 0.43,2.05 1.28,2.83 0.79,0.84 1.76,1.26 2.93,1.26 1.88,0 5.86,-1.95 11.92,-5.86 5.99,-3.9 9.7,-6.74 11.12,-8.5 0.72,-0.84 1.08,-1.78 1.08,-2.82 m -5.17,-7.22 c 5.59,0 8.39,2.4 8.39,7.22 0,2.34 -0.68,5.07 -2.05,8.2 -1.36,3.06 -3.18,5.41 -5.47,7.03 -5.01,3.39 -11.29,5.08 -18.84,5.08 -5.6,0 -8.41,-2.41 -8.41,-7.22 0,-2.15 0.69,-4.85 2.05,-8.11 1.3,-3.12 3.13,-5.5 5.47,-7.12 5.02,-3.39 11.31,-5.08 18.86,-5.08"
     class="Note" />
  <path
     id="path4000"
     d="m 1306.918,285.36 h 28 v 37.5 h -28 v -37.5"
     fill-rule="evenodd"
     fill="#ffffff"
     class="Note" />
  <path
     id="path4002"
     d="m 1313.058,315.1 c 0.7,0 1.73,0.4 3.1,1.22 1.36,0.81 2.55,1.22 3.56,1.22 1.65,0 3.05,-0.65 4.19,-1.93 1.14,-1.28 1.71,-2.86 1.71,-4.73 0,-1.17 -0.2,-2.2 -0.6,-3.09 -0.41,-0.9 -0.93,-1.59 -1.56,-2.08 -0.63,-0.49 -1.38,-0.89 -2.25,-1.21 -0.87,-0.31 -1.69,-0.51 -2.45,-0.6 -0.77,-0.09 -1.58,-0.13 -2.45,-0.13 v -0.59 c 1.02,-0.36 1.9,-0.71 2.64,-1.06 0.73,-0.35 1.5,-0.81 2.31,-1.4 0.81,-0.58 1.43,-1.29 1.86,-2.13 0.44,-0.84 0.66,-1.8 0.66,-2.88 0,-1.41 -0.46,-2.56 -1.37,-3.46 -0.92,-0.9 -2.11,-1.36 -3.58,-1.36 -1.41,0 -2.65,0.39 -3.71,1.15 -1.07,0.77 -2.07,1.97 -3,3.62 l -0.67,-0.17 c 0.77,-2.14 1.83,-3.89 3.17,-5.25 1.34,-1.37 3.23,-2.05 5.69,-2.05 2.08,0 3.76,0.57 5.06,1.71 1.31,1.14 1.96,2.63 1.96,4.46 0,1.23 -0.32,2.31 -0.95,3.24 -0.63,0.92 -1.72,1.91 -3.29,2.97 1.81,0.78 3.22,1.77 4.24,2.98 1.02,1.21 1.53,2.93 1.53,5.17 0,3.19 -1.18,5.74 -3.53,7.65 -2.36,1.91 -5.32,2.87 -8.89,2.87 -1.55,0 -2.79,-0.23 -3.71,-0.7 -0.91,-0.46 -1.37,-1.08 -1.37,-1.86 0,-0.48 0.16,-0.87 0.47,-1.15 0.31,-0.29 0.72,-0.43 1.23,-0.43"
     class="Note" />
  <path
     id="path4004"
     d="m 1324.138,65.35 c 3.13,0 5.77,0.81 7.92,2.44 2.01,1.76 3.02,3.97 3.02,6.64 0,4.49 -2.31,8.68 -6.92,12.59 -4.69,3.91 -9.71,5.86 -15.05,5.86 -3.13,0 -5.76,-0.81 -7.91,-2.44 -2.02,-1.76 -3.03,-3.97 -3.03,-6.64 0,-4.49 2.35,-8.69 7.03,-12.59 4.57,-3.91 9.54,-5.86 14.94,-5.86"
     class="Note" />
  <path
     id="path4006"
     d="m 1237.058,322.86 h 28 v 37.5 h -28 v -37.5"
     fill-rule="evenodd"
     fill="#ffffff"
     class="Note" />
  <path
     id="path4008"
     d="m 1258.188,352.42 c -1.86,2.88 -4.32,4.32 -7.38,4.32 -3.07,0 -5.53,-1.47 -7.39,-4.41 -1.85,-2.94 -2.78,-6.72 -2.78,-11.34 0,-4.35 0.93,-7.98 2.78,-10.91 1.86,-2.92 4.38,-4.39 7.56,-4.39 2.95,0 5.35,1.44 7.21,4.32 1.86,2.88 2.79,6.63 2.79,11.26 0,4.55 -0.93,8.27 -2.79,11.15 m -7.34,-25.56 c -3.92,0 -5.89,4.85 -5.89,14.53 0,9.45 1.95,14.18 5.85,14.18 3.89,0 5.84,-4.74 5.84,-14.22 0,-4.71 -0.49,-8.3 -1.48,-10.78 -0.99,-2.47 -2.43,-3.71 -4.32,-3.71"
     class="Note" />
  <path
     id="path4010"
     d="m 1254.278,127.85 c 3.12,0 5.76,0.81 7.92,2.44 2.01,1.76 3.01,3.97 3.01,6.64 0,4.49 -2.3,8.68 -6.92,12.59 -4.69,3.91 -9.7,5.86 -15.05,5.86 -3.12,0 -5.76,-0.81 -7.9,-2.44 -2.02,-1.76 -3.03,-3.97 -3.03,-6.64 0,-4.49 2.34,-8.69 7.03,-12.59 4.56,-3.91 9.54,-5.86 14.94,-5.86"
     class="Note" />
  <path
     id="path4012"
     d="m 1129.758,360.36 h 28 v 37.5 h -28 v -37.5"
     fill-rule="evenodd"
     fill="#ffffff"
     class="Note" />
  <path
     id="path4014"
     d="m 1150.888,389.92 c -1.86,2.88 -4.32,4.32 -7.38,4.32 -3.06,0 -5.52,-1.47 -7.38,-4.41 -1.86,-2.94 -2.79,-6.72 -2.79,-11.34 0,-4.35 0.93,-7.98 2.79,-10.91 1.86,-2.92 4.38,-4.39 7.55,-4.39 2.95,0 5.35,1.44 7.21,4.32 1.86,2.88 2.79,6.63 2.79,11.26 0,4.55 -0.93,8.27 -2.79,11.15 m -7.33,-25.56 c -3.93,0 -5.89,4.85 -5.89,14.53 0,9.45 1.95,14.18 5.84,14.18 3.9,0 5.85,-4.74 5.85,-14.22 0,-4.71 -0.5,-8.3 -1.49,-10.78 -0.99,-2.47 -2.43,-3.71 -4.31,-3.71"
     class="Note" />
  <path
     id="path4016"
     d="m 1146.978,152.85 c 3.13,0 5.77,0.81 7.92,2.44 2.01,1.76 3.02,3.97 3.02,6.64 0,4.49 -2.31,8.68 -6.92,12.59 -4.69,3.91 -9.71,5.86 -15.05,5.86 -3.13,0 -5.76,-0.81 -7.91,-2.44 -2.02,-1.76 -3.03,-3.97 -3.03,-6.64 0,-4.49 2.35,-8.69 7.03,-12.59 4.57,-3.91 9.54,-5.86 14.94,-5.86"
     class="Note" />
  <path
     id="path4018"
     d="m 1053.758,285.36 h 28 v 37.5 h -28 v -37.5"
     fill-rule="evenodd"
     fill="#ffffff"
     class="Note" />
  <path
     id="path4020"
     d="m 1059.898,315.1 c 0.7,0 1.73,0.4 3.09,1.22 1.37,0.81 2.55,1.22 3.57,1.22 1.65,0 3.05,-0.65 4.19,-1.93 1.14,-1.28 1.71,-2.86 1.71,-4.73 0,-1.17 -0.2,-2.2 -0.61,-3.09 -0.4,-0.9 -0.92,-1.59 -1.55,-2.08 -0.63,-0.49 -1.38,-0.89 -2.25,-1.21 -0.87,-0.31 -1.69,-0.51 -2.46,-0.6 -0.76,-0.09 -1.58,-0.13 -2.44,-0.13 v -0.59 c 1.02,-0.36 1.9,-0.71 2.63,-1.06 0.74,-0.35 1.51,-0.81 2.31,-1.4 0.81,-0.58 1.43,-1.29 1.87,-2.13 0.44,-0.84 0.66,-1.8 0.66,-2.88 0,-1.41 -0.46,-2.56 -1.38,-3.46 -0.91,-0.9 -2.11,-1.36 -3.58,-1.36 -1.4,0 -2.64,0.39 -3.71,1.15 -1.06,0.77 -2.06,1.97 -2.99,3.62 l -0.67,-0.17 c 0.77,-2.14 1.83,-3.89 3.16,-5.25 1.34,-1.37 3.24,-2.05 5.7,-2.05 2.07,0 3.76,0.57 5.06,1.71 1.3,1.14 1.95,2.63 1.95,4.46 0,1.23 -0.31,2.31 -0.94,3.24 -0.63,0.92 -1.73,1.91 -3.29,2.97 1.8,0.78 3.21,1.77 4.23,2.98 1.03,1.21 1.54,2.93 1.54,5.17 0,3.19 -1.18,5.74 -3.54,7.65 -2.35,1.91 -5.31,2.87 -8.89,2.87 -1.55,0 -2.78,-0.23 -3.7,-0.7 -0.92,-0.46 -1.37,-1.08 -1.37,-1.86 0,-0.48 0.15,-0.87 0.46,-1.15 0.32,-0.29 0.73,-0.43 1.24,-0.43"
     class="Note" />
  <path
     id="path4022"
     d="m 1070.978,65.35 c 3.12,0 5.76,0.81 7.92,2.44 2.01,1.76 3.01,3.97 3.01,6.64 0,4.49 -2.3,8.68 -6.92,12.59 -4.68,3.91 -9.7,5.86 -15.04,5.86 -3.13,0 -5.76,-0.81 -7.91,-2.44 -2.02,-1.76 -3.03,-3.97 -3.03,-6.64 0,-4.49 2.34,-8.69 7.03,-12.59 4.56,-3.91 9.54,-5.86 14.94,-5.86"
     class="Note" />
  <path
     id="path4024"
     d="m 977.758,322.86 h 28 v 37.5 h -28 v -37.5"
     fill-rule="evenodd"
     fill="#ffffff"
     class="Note" />
  <path
     id="path4026"
     d="m 998.888,352.42 c -1.86,2.88 -4.32,4.32 -7.38,4.32 -3.07,0 -5.53,-1.47 -7.39,-4.41 -1.86,-2.94 -2.79,-6.72 -2.79,-11.34 0,-4.35 0.93,-7.98 2.79,-10.91 1.86,-2.92 4.38,-4.39 7.56,-4.39 2.95,0 5.35,1.44 7.21,4.32 1.86,2.88 2.79,6.63 2.79,11.26 0,4.55 -0.93,8.27 -2.79,11.15 m -7.34,-25.56 c -3.92,0 -5.89,4.85 -5.89,14.53 0,9.45 1.95,14.18 5.85,14.18 3.89,0 5.84,-4.74 5.84,-14.22 0,-4.71 -0.5,-8.3 -1.49,-10.78 -0.98,-2.47 -2.42,-3.71 -4.31,-3.71"
     class="Note" />
  <path
     id="path4028"
     d="m 994.968,127.85 c 3.13,0 5.77,0.81 7.93,2.44 2.01,1.76 3.01,3.97 3.01,6.64 0,4.49 -2.31,8.68 -6.92,12.59 -4.69,3.91 -9.7,5.86 -15.05,5.86 -3.12,0 -5.76,-0.81 -7.9,-2.44 -2.02,-1.76 -3.03,-3.97 -3.03,-6.64 0,-4.49 2.34,-8.69 7.03,-12.59 4.56,-3.91 9.54,-5.86 14.93,-5.86"
     class="Note" />
  <path
     id="path4030"
     d="m 901.748,360.36 h 28 v 37.5 h -28 v -37.5"
     fill-rule="evenodd"
     fill="#ffffff"
     class="Note" />
  <path
     id="path4032"
     d="m 922.888,389.92 c -1.86,2.88 -4.32,4.32 -7.39,4.32 -3.06,0 -5.52,-1.47 -7.38,-4.41 -1.86,-2.94 -2.79,-6.72 -2.79,-11.34 0,-4.35 0.93,-7.98 2.79,-10.91 1.86,-2.92 4.38,-4.39 7.55,-4.39 2.95,0 5.36,1.44 7.22,4.32 1.85,2.88 2.78,6.63 2.78,11.26 0,4.55 -0.93,8.27 -2.78,11.15 m -7.34,-25.56 c -3.93,0 -5.89,4.85 -5.89,14.53 0,9.45 1.95,14.18 5.84,14.18 3.9,0 5.85,-4.74 5.85,-14.22 0,-4.71 -0.5,-8.3 -1.49,-10.78 -0.99,-2.47 -2.43,-3.71 -4.31,-3.71"
     class="Note" />
  <path
     id="path4034"
     d="m 918.968,152.85 c 3.13,0 5.77,0.81 7.92,2.44 2.01,1.76 3.02,3.97 3.02,6.64 0,4.49 -2.31,8.68 -6.92,12.59 -4.69,3.91 -9.71,5.86 -15.05,5.86 -3.12,0 -5.76,-0.81 -7.91,-2.44 -2.02,-1.76 -3.03,-3.97 -3.03,-6.64 0,-4.49 2.35,-8.69 7.03,-12.59 4.57,-3.91 9.55,-5.86 14.94,-5.86"
     class="Note" />
  <path
     id="path4036"
     d="m 787.248,322.86 h 28 v 37.5 h -28 v -37.5"
     fill-rule="evenodd"
     fill="#ffffff"
     class="Note" />
  <path
     id="path4038"
     d="m 808.38,352.42 c -1.859,2.88 -4.32,4.32 -7.382,4.32 -3.063,0 -5.524,-1.47 -7.383,-4.41 -1.86,-2.94 -2.789,-6.72 -2.789,-11.34 0,-4.35 0.929,-7.98 2.789,-10.91 1.859,-2.92 4.377,-4.39 7.555,-4.39 2.947,0 5.351,1.44 7.21,4.32 1.86,2.88 2.79,6.63 2.79,11.26 0,4.55 -0.93,8.27 -2.79,11.15 m -7.335,-25.56 c -3.928,0 -5.891,4.85 -5.891,14.53 0,9.45 1.948,14.18 5.844,14.18 3.895,0 5.843,-4.74 5.843,-14.22 0,-4.71 -0.494,-8.3 -1.484,-10.78 -0.99,-2.47 -2.427,-3.71 -4.312,-3.71"
     class="Note" />
  <path
     id="path4040"
     d="m 804.466,127.85 c 3.125,0 5.766,0.81 7.922,2.44 2.011,1.76 3.016,3.97 3.016,6.64 0,4.49 -2.307,8.68 -6.922,12.59 -4.687,3.91 -9.703,5.86 -15.047,5.86 -3.125,0 -5.76,-0.81 -7.906,-2.44 -2.021,-1.76 -3.031,-3.97 -3.031,-6.64 0,-4.49 2.343,-8.69 7.031,-12.59 4.562,-3.91 9.542,-5.86 14.937,-5.86"
     class="Note" />
  <path
     id="path4042"
     d="m 711.245,285.36 h 28 v 37.5 h -28 v -37.5"
     fill-rule="evenodd"
     fill="#ffffff"
     class="Note" />
  <path
     id="path4044"
     d="m 717.385,315.1 c 0.698,0 1.729,0.4 3.094,1.22 1.365,0.81 2.552,1.22 3.563,1.22 1.656,0 3.054,-0.65 4.195,-1.93 1.141,-1.28 1.711,-2.86 1.711,-4.73 0,-1.17 -0.203,-2.2 -0.61,-3.09 -0.406,-0.9 -0.924,-1.59 -1.554,-2.08 -0.63,-0.49 -1.38,-0.89 -2.25,-1.21 -0.87,-0.31 -1.688,-0.51 -2.453,-0.6 -0.766,-0.09 -1.581,-0.13 -2.446,-0.13 v -0.59 c 1.021,-0.36 1.899,-0.71 2.633,-1.06 0.735,-0.35 1.505,-0.81 2.313,-1.4 0.807,-0.58 1.429,-1.29 1.867,-2.13 0.437,-0.84 0.656,-1.8 0.656,-2.88 0,-1.41 -0.458,-2.56 -1.375,-3.46 -0.917,-0.9 -2.109,-1.36 -3.578,-1.36 -1.406,0 -2.643,0.39 -3.711,1.15 -1.068,0.77 -2.065,1.97 -2.992,3.62 l -0.672,-0.17 c 0.771,-2.14 1.825,-3.89 3.164,-5.25 1.339,-1.37 3.237,-2.05 5.695,-2.05 2.073,0 3.761,0.57 5.063,1.71 1.302,1.14 1.953,2.63 1.953,4.46 0,1.23 -0.315,2.31 -0.945,3.24 -0.631,0.92 -1.727,1.91 -3.289,2.97 1.802,0.78 3.213,1.77 4.234,2.98 1.021,1.21 1.531,2.93 1.531,5.17 0,3.19 -1.177,5.74 -3.531,7.65 -2.354,1.91 -5.318,2.87 -8.891,2.87 -1.552,0 -2.786,-0.23 -3.703,-0.7 -0.916,-0.46 -1.375,-1.08 -1.375,-1.86 0,-0.48 0.156,-0.87 0.469,-1.15 0.312,-0.29 0.724,-0.43 1.234,-0.43"
     class="Note" />
  <path
     id="path4046"
     d="m 728.463,65.35 c 3.125,0 5.766,0.81 7.922,2.44 2.011,1.76 3.016,3.97 3.016,6.64 0,4.49 -2.307,8.68 -6.922,12.59 -4.687,3.91 -9.703,5.86 -15.047,5.86 -3.125,0 -5.76,-0.81 -7.906,-2.44 -2.021,-1.76 -3.031,-3.97 -3.031,-6.64 0,-4.49 2.343,-8.69 7.031,-12.59 4.562,-3.91 9.542,-5.86 14.937,-5.86"
     class="Note" />
  <path
     id="path4048"
     d="m 635.242,322.86 h 28 v 37.5 h -28 v -37.5"
     fill-rule="evenodd"
     fill="#ffffff"
     class="Note" />
  <path
     id="path4050"
     d="m 656.375,352.42 c -1.86,2.88 -4.321,4.32 -7.383,4.32 -3.063,0 -5.524,-1.47 -7.383,-4.41 -1.859,-2.94 -2.789,-6.72 -2.789,-11.34 0,-4.35 0.93,-7.98 2.789,-10.91 1.859,-2.92 4.378,-4.39 7.555,-4.39 2.948,0 5.351,1.44 7.211,4.32 1.859,2.88 2.789,6.63 2.789,11.26 0,4.55 -0.93,8.27 -2.789,11.15 m -7.336,-25.56 c -3.927,0 -5.891,4.85 -5.891,14.53 0,9.45 1.948,14.18 5.844,14.18 3.896,0 5.844,-4.74 5.844,-14.22 0,-4.71 -0.495,-8.3 -1.485,-10.78 -0.989,-2.47 -2.427,-3.71 -4.312,-3.71"
     class="Note" />
  <path
     id="path4052"
     d="m 652.461,127.85 c 3.125,0 5.765,0.81 7.921,2.44 2.011,1.76 3.016,3.97 3.016,6.64 0,4.49 -2.307,8.68 -6.922,12.59 -4.687,3.91 -9.703,5.86 -15.047,5.86 -3.125,0 -5.76,-0.81 -7.906,-2.44 -2.021,-1.76 -3.031,-3.97 -3.031,-6.64 0,-4.49 2.344,-8.69 7.031,-12.59 4.563,-3.91 9.542,-5.86 14.938,-5.86"
     class="Note" />
  <path
     id="path4054"
     d="m 559.239,360.36 h 28 v 37.5 h -28 v -37.5"
     fill-rule="evenodd"
     fill="#ffffff"
     class="Note" />
  <path
     id="path4056"
     d="m 580.372,389.92 c -1.86,2.88 -4.321,4.32 -7.383,4.32 -3.063,0 -5.524,-1.47 -7.383,-4.41 -1.859,-2.94 -2.789,-6.72 -2.789,-11.34 0,-4.35 0.93,-7.98 2.789,-10.91 1.859,-2.92 4.378,-4.39 7.555,-4.39 2.948,0 5.351,1.44 7.211,4.32 1.859,2.88 2.789,6.63 2.789,11.26 0,4.55 -0.93,8.27 -2.789,11.15 m -7.336,-25.56 c -3.927,0 -5.891,4.85 -5.891,14.53 0,9.45 1.948,14.18 5.844,14.18 3.896,0 5.844,-4.74 5.844,-14.22 0,-4.71 -0.495,-8.3 -1.485,-10.78 -0.989,-2.47 -2.427,-3.71 -4.312,-3.71"
     class="Note" />
  <path
     id="path4058"
     d="m 576.458,152.85 c 3.125,0 5.765,0.81 7.921,2.44 2.011,1.76 3.016,3.97 3.016,6.64 0,4.49 -2.307,8.68 -6.922,12.59 -4.687,3.91 -9.703,5.86 -15.047,5.86 -3.125,0 -5.76,-0.81 -7.906,-2.44 -2.021,-1.76 -3.031,-3.97 -3.031,-6.64 0,-4.49 2.344,-8.69 7.031,-12.59 4.563,-3.91 9.542,-5.86 14.938,-5.86"
     class="Note" />
  <path
     id="path4060"
     d="m 444.736,322.86 h 28 v 37.5 h -28 v -37.5"
     fill-rule="evenodd"
     fill="#ffffff"
     class="Note" />
  <path
     id="path4062"
     d="m 465.869,352.42 c -1.86,2.88 -4.321,4.32 -7.383,4.32 -3.063,0 -5.524,-1.47 -7.383,-4.41 -1.859,-2.94 -2.789,-6.72 -2.789,-11.34 0,-4.35 0.93,-7.98 2.789,-10.91 1.859,-2.92 4.378,-4.39 7.555,-4.39 2.948,0 5.351,1.44 7.211,4.32 1.859,2.88 2.789,6.63 2.789,11.26 0,4.55 -0.93,8.27 -2.789,11.15 m -7.336,-25.56 c -3.927,0 -5.891,4.85 -5.891,14.53 0,9.45 1.948,14.18 5.844,14.18 3.896,0 5.844,-4.74 5.844,-14.22 0,-4.71 -0.495,-8.3 -1.485,-10.78 -0.989,-2.47 -2.427,-3.71 -4.312,-3.71"
     class="Note" />
  <path
     id="path4064"
     d="m 461.955,127.85 c 3.125,0 5.765,0.81 7.921,2.44 2.011,1.76 3.016,3.97 3.016,6.64 0,4.49 -2.307,8.68 -6.922,12.59 -4.687,3.91 -9.703,5.86 -15.047,5.86 -3.125,0 -5.76,-0.81 -7.906,-2.44 -2.021,-1.76 -3.031,-3.97 -3.031,-6.64 0,-4.49 2.344,-8.69 7.031,-12.59 4.563,-3.91 9.542,-5.86 14.938,-5.86"
     class="Note" />
  <path
     id="path4066"
     d="m 368.733,285.36 h 28 v 37.5 h -28 v -37.5"
     fill-rule="evenodd"
     fill="#ffffff"
     class="Note" />
  <path
     id="path4068"
     d="m 374.874,315.1 c 0.697,0 1.729,0.4 3.093,1.22 1.365,0.81 2.552,1.22 3.563,1.22 1.656,0 3.054,-0.65 4.195,-1.93 1.141,-1.28 1.711,-2.86 1.711,-4.73 0,-1.17 -0.203,-2.2 -0.609,-3.09 -0.407,-0.9 -0.925,-1.59 -1.555,-2.08 -0.63,-0.49 -1.38,-0.89 -2.25,-1.21 -0.87,-0.31 -1.688,-0.51 -2.453,-0.6 -0.766,-0.09 -1.581,-0.13 -2.445,-0.13 v -0.59 c 1.02,-0.36 1.898,-0.71 2.632,-1.06 0.735,-0.35 1.506,-0.81 2.313,-1.4 0.807,-0.58 1.43,-1.29 1.867,-2.13 0.438,-0.84 0.656,-1.8 0.656,-2.88 0,-1.41 -0.458,-2.56 -1.375,-3.46 -0.916,-0.9 -2.109,-1.36 -3.578,-1.36 -1.406,0 -2.643,0.39 -3.711,1.15 -1.068,0.77 -2.065,1.97 -2.992,3.62 l -0.672,-0.17 c 0.771,-2.14 1.826,-3.89 3.164,-5.25 1.339,-1.37 3.237,-2.05 5.696,-2.05 2.072,0 3.76,0.57 5.062,1.71 1.302,1.14 1.953,2.63 1.953,4.46 0,1.23 -0.315,2.31 -0.945,3.24 -0.63,0.92 -1.727,1.91 -3.289,2.97 1.802,0.78 3.213,1.77 4.234,2.98 1.021,1.21 1.531,2.93 1.531,5.17 0,3.19 -1.177,5.74 -3.531,7.65 -2.354,1.91 -5.318,2.87 -8.89,2.87 -1.553,0 -2.787,-0.23 -3.704,-0.7 -0.916,-0.46 -1.375,-1.08 -1.375,-1.86 0,-0.48 0.157,-0.87 0.469,-1.15 0.313,-0.29 0.724,-0.43 1.235,-0.43"
     class="Note" />
  <path
     id="path4070"
     d="m 385.952,65.35 c 3.125,0 5.765,0.81 7.922,2.44 2.01,1.76 3.015,3.97 3.015,6.64 0,4.49 -2.307,8.68 -6.922,12.59 -4.687,3.91 -9.703,5.86 -15.047,5.86 -3.125,0 -5.76,-0.81 -7.906,-2.44 -2.021,-1.76 -3.031,-3.97 -3.031,-6.64 0,-4.49 2.344,-8.69 7.031,-12.59 4.563,-3.91 9.542,-5.86 14.938,-5.86"
     class="Note" />
  <path
     id="path4072"
     d="m 292.73,322.86 h 28 v 37.5 h -28 v -37.5"
     fill-rule="evenodd"
     fill="#ffffff"
     class="Note" />
  <path
     id="path4074"
     d="m 313.863,352.42 c -1.86,2.88 -4.321,4.32 -7.383,4.32 -3.063,0 -5.524,-1.47 -7.383,-4.41 -1.859,-2.94 -2.789,-6.72 -2.789,-11.34 0,-4.35 0.93,-7.98 2.789,-10.91 1.859,-2.92 4.378,-4.39 7.555,-4.39 2.948,0 5.351,1.44 7.211,4.32 1.859,2.88 2.789,6.63 2.789,11.26 0,4.55 -0.93,8.27 -2.789,11.15 m -7.336,-25.56 c -3.927,0 -5.891,4.85 -5.891,14.53 0,9.45 1.948,14.18 5.844,14.18 3.896,0 5.844,-4.74 5.844,-14.22 0,-4.71 -0.495,-8.3 -1.485,-10.78 -0.989,-2.47 -2.427,-3.71 -4.312,-3.71"
     class="Note" />
  <path
     id="path4076"
     d="m 309.949,127.85 c 3.125,0 5.765,0.81 7.922,2.44 2.01,1.76 3.015,3.97 3.015,6.64 0,4.49 -2.307,8.68 -6.922,12.59 -4.687,3.91 -9.703,5.86 -15.047,5.86 -3.125,0 -5.76,-0.81 -7.906,-2.44 -2.021,-1.76 -3.031,-3.97 -3.031,-6.64 0,-4.49 2.344,-8.69 7.031,-12.59 4.563,-3.91 9.542,-5.86 14.938,-5.86"
     class="Note" />
  <path
     id="path4078"
     d="m 216.727,360.36 h 28 v 37.5 h -28 v -37.5"
     fill-rule="evenodd"
     fill="#ffffff"
     class="Note" />
  <path
     id="path4080"
     d="m 237.86,389.92 c -1.86,2.88 -4.321,4.32 -7.383,4.32 -3.063,0 -5.523,-1.47 -7.383,-4.41 -1.859,-2.94 -2.789,-6.72 -2.789,-11.34 0,-4.35 0.93,-7.98 2.789,-10.91 1.86,-2.92 4.378,-4.39 7.555,-4.39 2.948,0 5.351,1.44 7.211,4.32 1.859,2.88 2.789,6.63 2.789,11.26 0,4.55 -0.93,8.27 -2.789,11.15 m -7.336,-25.56 c -3.927,0 -5.891,4.85 -5.891,14.53 0,9.45 1.948,14.18 5.844,14.18 3.896,0 5.844,-4.74 5.844,-14.22 0,-4.71 -0.495,-8.3 -1.485,-10.78 -0.989,-2.47 -2.427,-3.71 -4.312,-3.71"
     class="Note" />
  <path
     id="path4082"
     d="m 233.946,152.85 c 3.125,0 5.765,0.81 7.922,2.44 2.01,1.76 3.015,3.97 3.015,6.64 0,4.49 -2.307,8.68 -6.922,12.59 -4.687,3.91 -9.703,5.86 -15.047,5.86 -3.125,0 -5.76,-0.81 -7.906,-2.44 -2.021,-1.76 -3.031,-3.97 -3.031,-6.64 0,-4.49 2.344,-8.69 7.031,-12.59 4.563,-3.91 9.542,-5.86 14.938,-5.86"
     class="Note" />
  <path
     id="path4272"
     d="m 50.102,313.46 v -3.5 H 25.399 v 3.5 h 10.406 v 28 h 4 v -28 h 10.297 m 1.406,62.9 -11,-31.5 h -5.203 l -11.297,31.5 h 4.297 l 3.297,-9.5 h 12.203 l 3.203,9.5 h 4.5 M 42.711,363.57 H 32.602 l 5.203,-14.41 4.906,14.41 m 6.797,38.59 c 0,-3.8 -1.703,-6.09 -5.703,-7.59 2.797,-1.41 4.297,-3.71 4.297,-6.91 0,-4.59 -3.297,-8 -9.297,-8 H 26.008 v 31.5 h 14.203 c 5.688,0 9.297,-3.8 9.297,-9 m -5.406,-13.89 c 0,3.2 -1.797,5 -6.297,5 h -7.797 v -10.11 h 7.797 c 4.5,0 6.297,1.91 6.297,5.11 m 1.406,13.89 c 0,3.11 -1.797,5.41 -5.609,5.41 h -9.891 v -10.8 h 9.891 c 3.812,0 5.609,2.39 5.609,5.39"
     class="Clef" />
  <path
     id="path4274"
     d="m 61.024,91.02 c 0,0 0.198,0 0.593,0 0.261,-0.06 0.485,-0.09 0.672,-0.09 7.292,0 13.282,2.57 17.969,7.71 4.688,5.08 7.031,11 7.031,17.77 0,8.41 -3.479,15.24 -10.437,20.52 -1.823,1.43 -4.203,2.61 -7.141,3.51 0.334,4.23 0.5,7.65 0.5,10.25 0,0.52 -0.067,2.41 -0.203,5.67 -0.26,6.06 -2.344,11.29 -6.25,15.72 -3.771,4.37 -8.458,6.55 -14.062,6.55 -5.271,0 -9.761,-1.86 -13.469,-5.56 -3.719,-3.78 -5.578,-8.34 -5.578,-13.68 0,-2.8 1.078,-5.18 3.234,-7.14 2.208,-1.94 4.776,-2.92 7.703,-2.92 2.604,0 4.787,1.01 6.547,3.03 1.823,1.89 2.734,4.23 2.734,7.03 0,2.54 -0.911,4.71 -2.734,6.54 -1.823,1.82 -4.005,2.73 -6.547,2.73 -1.041,0 -2.047,-0.19 -3.015,-0.58 2.864,4.23 6.671,6.35 11.421,6.35 4.49,0 8.167,-1.83 11.032,-5.47 3,-3.77 4.63,-8.17 4.89,-13.19 0.125,-3.13 0.188,-4.91 0.188,-5.36 0,-3.65 -0.13,-6.64 -0.391,-8.98 -3.25,0.52 -6.146,0.78 -8.687,0.78 -9.052,0 -16.766,-3.59 -23.141,-10.75 -6.25,-7.23 -9.375,-15.83 -9.375,-25.78 0,-2.09 0.193,-4.2 0.578,-6.35 0.396,-1.76 0.886,-3.68 1.469,-5.76 0.323,-1.18 1.203,-3.07 2.641,-5.68 0.52,-0.78 1.106,-1.75 1.757,-2.93 0.651,-1.17 1.107,-1.95 1.368,-2.33 0.645,-1.3 1.911,-3.06 3.796,-5.28 0.521,-0.59 1.06,-1.23 1.618,-1.95 0.557,-0.71 1.031,-1.3 1.422,-1.76 0.39,-0.45 0.682,-0.81 0.875,-1.07 0.192,-0.26 1.658,-1.99 4.398,-5.18 0.646,-0.65 1.279,-1.35 1.898,-2.1 0.62,-0.74 1.125,-1.33 1.516,-1.75 0.391,-0.43 0.685,-0.74 0.883,-0.93 -2.344,-7.75 -3.813,-13.93 -4.406,-18.56 -0.448,-3.71 -0.672,-8.79 -0.672,-15.23 0,-5.67 1.302,-10.98 3.906,-15.93 C 50.086,7.76 53.633,3.56 58.196,0.3 58.456,0.1 58.779,0 59.164,0 c 0.459,0 0.787,0.1 0.985,0.3 3.51,4.23 6.536,9.73 9.078,16.5 2.604,6.77 3.906,12.93 3.906,18.47 0,6.25 -1.495,12.11 -4.484,17.58 -3.386,5.79 -7.75,11.78 -13.094,17.97 1.365,4.29 3.187,11.02 5.469,20.2 m 8.297,45.42 c 3.385,-1.24 6.026,-3.35 7.921,-6.34 2.084,-2.87 3.125,-6.09 3.125,-9.67 0,-4.63 -1.562,-8.73 -4.687,-12.32 -3.198,-3.71 -7.271,-5.79 -12.219,-6.25 2.802,13.74 4.755,25.27 5.86,34.58 M 31.539,113.88 c 0,6.45 2.605,12.11 7.813,17 5.333,4.75 11.323,7.12 17.969,7.12 2.729,0 5.395,-0.19 8,-0.59 -1.042,-9.9 -3.094,-21.74 -6.157,-35.55 -3.708,0.4 -6.666,1.7 -8.875,3.91 -2.156,2.28 -3.234,4.85 -3.234,7.72 0,4.95 2.641,8.95 7.922,12.01 0.448,0.46 0.672,0.95 0.672,1.47 0,0.52 -0.224,1.01 -0.672,1.46 -0.396,0.45 -0.886,0.68 -1.469,0.68 -0.062,0 -0.354,-0.06 -0.875,-0.18 -3.719,-2.03 -6.583,-4.63 -8.594,-7.82 -1.895,-3.39 -2.843,-6.81 -2.843,-10.26 0,-4.49 1.401,-8.56 4.203,-12.21 2.927,-3.64 6.734,-5.99 11.422,-7.03 -1.823,-7.29 -3.318,-12.99 -4.485,-17.09 -1.041,1.18 -2.294,2.59 -3.758,4.25 -1.463,1.66 -2.325,2.65 -2.586,2.98 -2.343,3.06 -4.135,5.43 -5.375,7.13 -2.218,3.06 -3.848,5.7 -4.89,7.91 -1.104,2.47 -2.078,5.18 -2.922,8.1 -0.844,2.81 -1.266,5.8 -1.266,8.99 m 32.61,-99.31 c -4.886,2.4 -8.724,5.85 -11.516,10.34 -2.864,4.63 -4.297,9.6 -4.297,14.94 0,4.69 1.172,11 3.516,18.95 4.687,-5.67 8.203,-10.91 10.547,-15.72 2.468,-5.08 3.703,-10.39 3.703,-15.92 0,-4.17 -0.651,-8.36 -1.953,-12.59"
     class="Clef" />
  <path
     id="path4292"
     d="m 135.039,42.79 c 1.948,0 3.607,-0.22 4.977,-0.68 1.37,-0.45 2.247,-0.68 2.633,-0.68 0.458,0 0.818,0.13 1.078,0.39 0.198,0.19 0.328,0.42 0.391,0.68 0,0.13 -0.068,0.33 -0.204,0.59 l -28.406,33.02 h 16.688 v -13.1 c 0,-0.84 0.229,-1.56 0.687,-2.15 0.781,-0.65 1.432,-1.04 1.953,-1.18 0.844,-0.38 1.886,-1.29 3.125,-2.73 1.042,-1.17 2.282,-3.21 3.719,-6.14 0.188,-0.4 0.479,-0.6 0.875,-0.6 0.781,0 1.234,0.46 1.359,1.38 v 24.52 h 7.141 c 0.906,0 1.427,0.48 1.563,1.45 0,0.98 -0.521,1.47 -1.563,1.47 h -7.141 v 0.78 c 0,2.6 0.651,4.82 1.954,6.64 1.5,1.82 3.26,2.73 5.281,2.73 0.781,0 1.172,0.39 1.172,1.18 0,0.78 -0.391,1.17 -1.172,1.17 -1.365,0 -3.578,-0.2 -6.641,-0.58 -2.802,-0.46 -4.984,-0.69 -6.547,-0.69 -1.625,0 -3.807,0.23 -6.547,0.69 -2.927,0.38 -5.104,0.58 -6.531,0.58 -0.781,0 -1.172,-0.39 -1.172,-1.17 0,-0.79 0.391,-1.18 1.172,-1.18 2.011,0 3.766,-0.91 5.266,-2.73 1.364,-1.89 2.047,-4.1 2.047,-6.64 v -0.78 h -16.688 c -1.114,0 -1.896,-0.26 -2.344,-0.78 -0.531,-0.39 -0.796,-0.91 -0.796,-1.57 0,-0.19 0.489,-0.88 1.468,-2.04 1.115,-1.31 2.287,-2.9 3.516,-4.78 1.437,-2.22 2.807,-4.5 4.109,-6.85 1.427,-2.67 2.568,-5.73 3.422,-9.19 0.969,-3.51 1.453,-7.08 1.453,-10.73 0,-1.04 0.459,-1.56 1.375,-1.56 0.198,0 0.62,0.1 1.266,0.29 0.198,0.07 0.607,0.16 1.226,0.29 0.62,0.13 1.123,0.26 1.508,0.39 1.177,0.19 2.287,0.29 3.328,0.29"
     class="TimeSig" />
  <path
     id="path4294"
     d="m 135.039,92.96 c 1.948,0 3.607,-0.22 4.977,-0.67 1.37,-0.46 2.247,-0.68 2.633,-0.68 0.458,0 0.818,0.13 1.078,0.39 0.198,0.18 0.328,0.41 0.391,0.67 0,0.13 -0.068,0.33 -0.204,0.59 l -28.406,33.02 h 16.688 v -13.1 c 0,-0.84 0.229,-1.56 0.687,-2.15 0.781,-0.65 1.432,-1.04 1.953,-1.17 0.844,-0.39 1.886,-1.3 3.125,-2.74 1.042,-1.17 2.282,-3.21 3.719,-6.14 0.188,-0.4 0.479,-0.59 0.875,-0.59 0.781,0 1.234,0.45 1.359,1.37 v 24.52 h 7.141 c 0.906,0 1.427,0.48 1.563,1.45 0,0.98 -0.521,1.47 -1.563,1.47 h -7.141 v 0.78 c 0,2.6 0.651,4.82 1.954,6.64 1.5,1.82 3.26,2.74 5.281,2.74 0.781,0 1.172,0.39 1.172,1.17 0,0.78 -0.391,1.17 -1.172,1.17 -1.365,0 -3.578,-0.19 -6.641,-0.58 -2.802,-0.46 -4.984,-0.69 -6.547,-0.69 -1.625,0 -3.807,0.23 -6.547,0.69 -2.927,0.39 -5.104,0.58 -6.531,0.58 -0.781,0 -1.172,-0.39 -1.172,-1.17 0,-0.78 0.391,-1.17 1.172,-1.17 2.011,0 3.766,-0.92 5.266,-2.74 1.364,-1.88 2.047,-4.1 2.047,-6.64 v -0.78 h -16.688 c -1.114,0 -1.896,-0.26 -2.344,-0.78 -0.531,-0.39 -0.796,-0.91 -0.796,-1.56 0,-0.2 0.489,-0.88 1.468,-2.05 1.115,-1.3 2.287,-2.9 3.516,-4.78 1.437,-2.22 2.807,-4.5 4.109,-6.85 1.427,-2.66 2.568,-5.73 3.422,-9.18 0.969,-3.51 1.453,-7.09 1.453,-10.74 0,-1.04 0.459,-1.56 1.375,-1.56 0.198,0 0.62,0.1 1.266,0.3 0.198,0.06 0.607,0.15 1.226,0.29 0.62,0.13 1.123,0.25 1.508,0.38 1.177,0.2 2.287,0.29 3.328,0.29"
     class="TimeSig" />
</svg>
