<?xml version="1.0" encoding="UTF-8" standalone="no"?>
<svg
   xmlns:dc="http://purl.org/dc/elements/1.1/"
   xmlns:cc="http://creativecommons.org/ns#"
   xmlns:rdf="http://www.w3.org/1999/02/22-rdf-syntax-ns#"
   xmlns:svg="http://www.w3.org/2000/svg"
   xmlns="http://www.w3.org/2000/svg"
   xmlns:sodipodi="http://sodipodi.sourceforge.net/DTD/sodipodi-0.dtd"
   xmlns:inkscape="http://www.inkscape.org/namespaces/inkscape"
   inkscape:version="1.0 (4035a4fb49, 2020-05-01)"
   sodipodi:docname="exercise6.svg"
   id="svg4780"
   version="1.2"
   viewBox="0 0 2786.7561 963.905"
   height="963.90497"
   width="2786.7561">
  <metadata
     id="metadata4786">
    <rdf:RDF>
      <cc:Work
         rdf:about="">
        <dc:format>image/svg+xml</dc:format>
        <dc:type
           rdf:resource="http://purl.org/dc/dcmitype/StillImage" />
      </cc:Work>
    </rdf:RDF>
  </metadata>
  <defs
     id="defs4784" />
  <sodipodi:namedview
     inkscape:current-layer="svg4780"
     inkscape:window-maximized="1"
     inkscape:window-y="-8"
     inkscape:window-x="-8"
     inkscape:cy="1704.877"
     inkscape:cx="1398.486"
     inkscape:zoom="0.16919192"
     showgrid="false"
     id="namedview4782"
     inkscape:window-height="837"
     inkscape:window-width="1600"
     inkscape:pageshadow="2"
     inkscape:pageopacity="0"
     guidetolerance="10"
     gridtolerance="10"
     objecttolerance="10"
     borderopacity="1"
     bordercolor="#666666"
     pagecolor="#ffffff" />
  <title
     id="title4162">exercise6</title>
  <desc
     id="desc4164">Generated by MuseScore 3.0.1</desc>
  <polyline
     transform="translate(-131.514,-275.123)"
     id="polyline4166"
     points="141.732,316.732 2918.27,316.732"
     stroke-linejoin="bevel"
     stroke-width="2"
     stroke="#000000"
     fill="none"
     class="StaffLines" />
  <polyline
     transform="translate(-131.514,-275.123)"
     id="polyline4168"
     points="141.732,341.732 2918.27,341.732"
     stroke-linejoin="bevel"
     stroke-width="2"
     stroke="#000000"
     fill="none"
     class="StaffLines" />
  <polyline
     transform="translate(-131.514,-275.123)"
     id="polyline4170"
     points="141.732,366.732 2918.27,366.732"
     stroke-linejoin="bevel"
     stroke-width="2"
     stroke="#000000"
     fill="none"
     class="StaffLines" />
  <polyline
     transform="translate(-131.514,-275.123)"
     id="polyline4172"
     points="141.732,391.732 2918.27,391.732"
     stroke-linejoin="bevel"
     stroke-width="2"
     stroke="#000000"
     fill="none"
     class="StaffLines" />
  <polyline
     transform="translate(-131.514,-275.123)"
     id="polyline4174"
     points="141.732,416.732 2918.27,416.732"
     stroke-linejoin="bevel"
     stroke-width="2"
     stroke="#000000"
     fill="none"
     class="StaffLines" />
  <polyline
     transform="translate(-131.514,-275.123)"
     id="polyline4176"
     points="141.732,579.233 2918.27,579.233"
     stroke-linejoin="bevel"
     stroke-width="2"
     stroke="#000000"
     fill="none"
     class="StaffLines" />
  <polyline
     transform="translate(-131.514,-275.123)"
     id="polyline4178"
     points="141.732,616.733 2918.27,616.733"
     stroke-linejoin="bevel"
     stroke-width="2"
     stroke="#000000"
     fill="none"
     class="StaffLines" />
  <polyline
     transform="translate(-131.514,-275.123)"
     id="polyline4180"
     points="141.732,654.233 2918.27,654.233"
     stroke-linejoin="bevel"
     stroke-width="2"
     stroke="#000000"
     fill="none"
     class="StaffLines" />
  <polyline
     transform="translate(-131.514,-275.123)"
     id="polyline4182"
     points="141.732,691.733 2918.27,691.733"
     stroke-linejoin="bevel"
     stroke-width="2"
     stroke="#000000"
     fill="none"
     class="StaffLines" />
  <path
     id="path4202"
     d="m 13,733.827 c 0,-1.42 -0.316,-2.67 -0.946,-3.76 -0.63,-1.08 -1.39,-1.93 -2.281,-2.53 -0.891,-0.6 -1.888,-1.09 -2.992,-1.47 -1.104,-0.39 -2.065,-0.64 -2.883,-0.76 -0.818,-0.12 -1.529,-0.18 -2.133,-0.18 -0.323,0 -0.484,-0.11 -0.484,-0.33 0,-0.073 0.01,-0.14 0.031,-0.203 l 4.359,-9.453 h 8.36 c 0.427,0 0.768,-0.068 1.023,-0.203 0.255,-0.135 0.529,-0.417 0.821,-0.844 l 0.359,0.281 -1.516,3.563 c -0.104,0.24 -0.411,0.359 -0.922,0.359 H 5.953 l -1.672,3.391 c 3.885,0.687 6.776,1.81 8.672,3.369 1.895,1.56 2.843,3.84 2.843,6.85 0,1.57 -0.247,2.97 -0.742,4.2 -0.495,1.23 -1.122,2.22 -1.883,2.97 -0.76,0.75 -1.64,1.37 -2.64,1.85 -1,0.47 -1.959,0.8 -2.875,0.98 -0.917,0.18 -1.844,0.27 -2.781,0.27 -1.49,0 -2.675,-0.23 -3.555,-0.67 -0.88,-0.44 -1.32,-1.05 -1.32,-1.82 0,-0.99 0.572,-1.48 1.718,-1.48 0.75,0 1.716,0.41 2.899,1.22 1.182,0.82 2.122,1.23 2.82,1.23 1.573,0 2.893,-0.66 3.961,-1.98 1.068,-1.31 1.602,-2.93 1.602,-4.85"
     class="MeasureNumber" />
  <polyline
     transform="translate(-131.514,-275.123)"
     id="polyline4228"
     points="2916.27,578.233 2916.27,692.733"
     stroke-linejoin="bevel"
     stroke-width="4"
     stroke="#000000"
     fill="none"
     class="BarLine" />
  <polyline
     transform="translate(-131.514,-275.123)"
     id="polyline4230"
     points="2916.27,315.732 2916.27,417.732"
     stroke-linejoin="bevel"
     stroke-width="4"
     stroke="#000000"
     fill="none"
     class="BarLine" />
  <polyline
     transform="translate(-131.514,-275.123)"
     id="polyline4232"
     points="2085.74,578.233 2085.74,692.733"
     stroke-linejoin="bevel"
     stroke-width="4"
     stroke="#000000"
     fill="none"
     class="BarLine" />
  <polyline
     transform="translate(-131.514,-275.123)"
     id="polyline4234"
     points="2085.74,315.732 2085.74,417.732"
     stroke-linejoin="bevel"
     stroke-width="4"
     stroke="#000000"
     fill="none"
     class="BarLine" />
  <polyline
     transform="translate(-131.514,-275.123)"
     id="polyline4236"
     points="1534.4,578.233 1534.4,692.733"
     stroke-linejoin="bevel"
     stroke-width="4"
     stroke="#000000"
     fill="none"
     class="BarLine" />
  <polyline
     transform="translate(-131.514,-275.123)"
     id="polyline4238"
     points="1534.4,315.732 1534.4,417.732"
     stroke-linejoin="bevel"
     stroke-width="4"
     stroke="#000000"
     fill="none"
     class="BarLine" />
  <polyline
     transform="translate(-131.514,-275.123)"
     id="polyline4240"
     points="832.158,578.233 832.158,692.733"
     stroke-linejoin="bevel"
     stroke-width="4"
     stroke="#000000"
     fill="none"
     class="BarLine" />
  <polyline
     transform="translate(-131.514,-275.123)"
     id="polyline4242"
     points="832.158,315.732 832.158,417.732"
     stroke-linejoin="bevel"
     stroke-width="4"
     stroke="#000000"
     fill="none"
     class="BarLine" />
  <polyline
     transform="translate(-131.514,-275.123)"
     id="polyline4244"
     points="143.732,578.233 143.732,692.733"
     stroke-linejoin="bevel"
     stroke-width="4"
     stroke="#000000"
     fill="none"
     class="BarLine" />
  <polyline
     transform="translate(-131.514,-275.123)"
     id="polyline4246"
     points="143.732,315.732 143.732,579.233"
     stroke-linejoin="bevel"
     stroke-width="4"
     stroke="#000000"
     fill="none"
     class="BarLine" />
  <polyline
     transform="translate(-131.514,-275.123)"
     id="polyline4248"
     points="2807.76,441.732 2855.68,441.732"
     stroke-linejoin="bevel"
     stroke-linecap="square"
     stroke-width="4"
     stroke="#000000"
     fill="none"
     class="LedgerLine" />
  <polyline
     transform="translate(-131.514,-275.123)"
     id="polyline4250"
     points="2708.76,441.732 2756.68,441.732"
     stroke-linejoin="bevel"
     stroke-linecap="square"
     stroke-width="4"
     stroke="#000000"
     fill="none"
     class="LedgerLine" />
  <polyline
     transform="translate(-131.514,-275.123)"
     id="polyline4252"
     points="2609.76,441.732 2657.67,441.732"
     stroke-linejoin="bevel"
     stroke-linecap="square"
     stroke-width="4"
     stroke="#000000"
     fill="none"
     class="LedgerLine" />
  <polyline
     transform="translate(-131.514,-275.123)"
     id="polyline4254"
     points="2510.75,441.732 2558.67,441.732"
     stroke-linejoin="bevel"
     stroke-linecap="square"
     stroke-width="4"
     stroke="#000000"
     fill="none"
     class="LedgerLine" />
  <polyline
     transform="translate(-131.514,-275.123)"
     id="polyline4256"
     points="2411.75,441.732 2459.67,441.732"
     stroke-linejoin="bevel"
     stroke-linecap="square"
     stroke-width="4"
     stroke="#000000"
     fill="none"
     class="LedgerLine" />
  <polyline
     transform="translate(-131.514,-275.123)"
     id="polyline4258"
     points="2312.75,441.732 2360.66,441.732"
     stroke-linejoin="bevel"
     stroke-linecap="square"
     stroke-width="4"
     stroke="#000000"
     fill="none"
     class="LedgerLine" />
  <polyline
     transform="translate(-131.514,-275.123)"
     id="polyline4260"
     points="2213.74,441.732 2261.66,441.732"
     stroke-linejoin="bevel"
     stroke-linecap="square"
     stroke-width="4"
     stroke="#000000"
     fill="none"
     class="LedgerLine" />
  <polyline
     transform="translate(-131.514,-275.123)"
     id="polyline4262"
     points="2114.74,441.732 2162.65,441.732"
     stroke-linejoin="bevel"
     stroke-linecap="square"
     stroke-width="4"
     stroke="#000000"
     fill="none"
     class="LedgerLine" />
  <polyline
     transform="translate(-131.514,-275.123)"
     id="polyline4264"
     points="1948.03,441.732 1995.94,441.732"
     stroke-linejoin="bevel"
     stroke-linecap="square"
     stroke-width="4"
     stroke="#000000"
     fill="none"
     class="LedgerLine" />
  <polyline
     transform="translate(-131.514,-275.123)"
     id="polyline4266"
     points="1819.82,441.732 1867.73,441.732"
     stroke-linejoin="bevel"
     stroke-linecap="square"
     stroke-width="4"
     stroke="#000000"
     fill="none"
     class="LedgerLine" />
  <polyline
     transform="translate(-131.514,-275.123)"
     id="polyline4268"
     points="1691.61,441.732 1739.52,441.732"
     stroke-linejoin="bevel"
     stroke-linecap="square"
     stroke-width="4"
     stroke="#000000"
     fill="none"
     class="LedgerLine" />
  <polyline
     transform="translate(-131.514,-275.123)"
     id="polyline4270"
     points="1563.4,441.732 1611.31,441.732"
     stroke-linejoin="bevel"
     stroke-linecap="square"
     stroke-width="4"
     stroke="#000000"
     fill="none"
     class="LedgerLine" />
  <polyline
     transform="translate(-131.514,-275.123)"
     id="polyline4320"
     points="2846.55,437.037 2846.55,366.732"
     stroke-linejoin="bevel"
     stroke-linecap="round"
     stroke-width="3.25"
     stroke="#000000"
     fill="none"
     class="Stem" />
  <polyline
     transform="translate(-131.514,-275.123)"
     id="polyline4322"
     points="2747.55,437.037 2747.55,366.732"
     stroke-linejoin="bevel"
     stroke-linecap="round"
     stroke-width="3.25"
     stroke="#000000"
     fill="none"
     class="Stem" />
  <polyline
     transform="translate(-131.514,-275.123)"
     id="polyline4324"
     points="2648.55,437.037 2648.55,366.732"
     stroke-linejoin="bevel"
     stroke-linecap="round"
     stroke-width="3.25"
     stroke="#000000"
     fill="none"
     class="Stem" />
  <polyline
     transform="translate(-131.514,-275.123)"
     id="polyline4326"
     points="2549.54,437.037 2549.54,366.732"
     stroke-linejoin="bevel"
     stroke-linecap="round"
     stroke-width="3.25"
     stroke="#000000"
     fill="none"
     class="Stem" />
  <polyline
     transform="translate(-131.514,-275.123)"
     id="polyline4328"
     points="2450.54,437.037 2450.54,366.732"
     stroke-linejoin="bevel"
     stroke-linecap="round"
     stroke-width="3.25"
     stroke="#000000"
     fill="none"
     class="Stem" />
  <polyline
     transform="translate(-131.514,-275.123)"
     id="polyline4330"
     points="2351.54,437.037 2351.54,366.732"
     stroke-linejoin="bevel"
     stroke-linecap="round"
     stroke-width="3.25"
     stroke="#000000"
     fill="none"
     class="Stem" />
  <polyline
     transform="translate(-131.514,-275.123)"
     id="polyline4332"
     points="2252.53,437.037 2252.53,366.732"
     stroke-linejoin="bevel"
     stroke-linecap="round"
     stroke-width="3.25"
     stroke="#000000"
     fill="none"
     class="Stem" />
  <polyline
     transform="translate(-131.514,-275.123)"
     id="polyline4334"
     points="2153.53,437.037 2153.53,366.732"
     stroke-linejoin="bevel"
     stroke-linecap="round"
     stroke-width="3.25"
     stroke="#000000"
     fill="none"
     class="Stem" />
  <polyline
     transform="translate(-131.514,-275.123)"
     id="polyline4336"
     points="1986.82,437.037 1986.82,354.232"
     stroke-linejoin="bevel"
     stroke-linecap="round"
     stroke-width="3.25"
     stroke="#000000"
     fill="none"
     class="Stem" />
  <polyline
     transform="translate(-131.514,-275.123)"
     id="polyline4338"
     points="1858.61,437.037 1858.61,354.232"
     stroke-linejoin="bevel"
     stroke-linecap="round"
     stroke-width="3.25"
     stroke="#000000"
     fill="none"
     class="Stem" />
  <polyline
     transform="translate(-131.514,-275.123)"
     id="polyline4340"
     points="1730.4,437.037 1730.4,354.232"
     stroke-linejoin="bevel"
     stroke-linecap="round"
     stroke-width="3.25"
     stroke="#000000"
     fill="none"
     class="Stem" />
  <polyline
     transform="translate(-131.514,-275.123)"
     id="polyline4342"
     points="1602.19,437.037 1602.19,354.232"
     stroke-linejoin="bevel"
     stroke-linecap="round"
     stroke-width="3.25"
     stroke="#000000"
     fill="none"
     class="Stem" />
  <polyline
     transform="translate(-131.514,-275.123)"
     id="polyline4344"
     points="1479.82,387.037 1479.82,316.732"
     stroke-linejoin="bevel"
     stroke-linecap="round"
     stroke-width="3.25"
     stroke="#000000"
     fill="none"
     class="Stem" />
  <polyline
     transform="translate(-131.514,-275.123)"
     id="polyline4346"
     points="1395.95,387.037 1395.95,316.732"
     stroke-linejoin="bevel"
     stroke-linecap="round"
     stroke-width="3.25"
     stroke="#000000"
     fill="none"
     class="Stem" />
  <polyline
     transform="translate(-131.514,-275.123)"
     id="polyline4348"
     points="1312.08,387.037 1312.08,316.732"
     stroke-linejoin="bevel"
     stroke-linecap="round"
     stroke-width="3.25"
     stroke="#000000"
     fill="none"
     class="Stem" />
  <polyline
     transform="translate(-131.514,-275.123)"
     id="polyline4350"
     points="1228.22,387.037 1228.22,316.732"
     stroke-linejoin="bevel"
     stroke-linecap="round"
     stroke-width="3.25"
     stroke="#000000"
     fill="none"
     class="Stem" />
  <polyline
     transform="translate(-131.514,-275.123)"
     id="polyline4352"
     points="1144.35,387.037 1144.35,316.732"
     stroke-linejoin="bevel"
     stroke-linecap="round"
     stroke-width="3.25"
     stroke="#000000"
     fill="none"
     class="Stem" />
  <polyline
     transform="translate(-131.514,-275.123)"
     id="polyline4354"
     points="1060.48,387.037 1060.48,316.732"
     stroke-linejoin="bevel"
     stroke-linecap="round"
     stroke-width="3.25"
     stroke="#000000"
     fill="none"
     class="Stem" />
  <polyline
     transform="translate(-131.514,-275.123)"
     id="polyline4356"
     points="976.609,387.037 976.609,316.732"
     stroke-linejoin="bevel"
     stroke-linecap="round"
     stroke-width="3.25"
     stroke="#000000"
     fill="none"
     class="Stem" />
  <polyline
     transform="translate(-131.514,-275.123)"
     id="polyline4358"
     points="892.74,387.037 892.74,316.732"
     stroke-linejoin="bevel"
     stroke-linecap="round"
     stroke-width="3.25"
     stroke="#000000"
     fill="none"
     class="Stem" />
  <polyline
     transform="translate(-131.514,-275.123)"
     id="polyline4360"
     points="746.21,387.037 746.21,307.357"
     stroke-linejoin="bevel"
     stroke-linecap="round"
     stroke-width="3.25"
     stroke="#000000"
     fill="none"
     class="Stem" />
  <polyline
     transform="translate(-131.514,-275.123)"
     id="polyline4362"
     points="630.973,387.037 630.973,307.357"
     stroke-linejoin="bevel"
     stroke-linecap="round"
     stroke-width="3.25"
     stroke="#000000"
     fill="none"
     class="Stem" />
  <polyline
     transform="translate(-131.514,-275.123)"
     id="polyline4364"
     points="515.735,387.037 515.735,307.357"
     stroke-linejoin="bevel"
     stroke-linecap="round"
     stroke-width="3.25"
     stroke="#000000"
     fill="none"
     class="Stem" />
  <polyline
     transform="translate(-131.514,-275.123)"
     id="polyline4366"
     points="400.498,387.037 400.498,307.357"
     stroke-linejoin="bevel"
     stroke-linecap="round"
     stroke-width="3.25"
     stroke="#000000"
     fill="none"
     class="Stem" />
  <path
     id="path4560"
     d="m 2688.496,360.36 h 28 v 37.5 h -28 v -37.5"
     fill-rule="evenodd"
     fill="#ffffff"
     class="Note" />
  <path
     id="path4562"
     d="m 2688.496,360.36 h 28 v 37.5 h -28 v -37.5"
     fill-rule="evenodd"
     fill="#ffffff"
     class="Note" />
  <path
     id="path4564"
     d="m 2709.636,389.914 c -1.86,2.881 -4.32,4.321 -7.39,4.321 -3.06,0 -5.52,-1.469 -7.38,-4.407 -1.86,-2.937 -2.79,-6.718 -2.79,-11.343 0,-4.344 0.93,-7.98 2.79,-10.907 1.86,-2.927 4.38,-4.39 7.56,-4.39 2.94,0 5.35,1.44 7.21,4.32 1.86,2.88 2.79,6.633 2.79,11.258 0,4.552 -0.93,8.268 -2.79,11.148 m -7.34,-25.554 c -3.93,0 -5.89,4.843 -5.89,14.531 0,9.448 1.95,14.172 5.84,14.172 3.9,0 5.85,-4.74 5.85,-14.219 0,-4.708 -0.5,-8.299 -1.49,-10.773 -0.99,-2.474 -2.42,-3.711 -4.31,-3.711"
     class="Note" />
  <path
     id="path4566"
     d="m 2705.716,152.844 c 3.13,0 5.77,0.812 7.93,2.437 2.01,1.761 3.01,3.974 3.01,6.641 0,4.49 -2.31,8.687 -6.92,12.594 -4.69,3.906 -9.7,5.859 -15.05,5.859 -3.12,0 -5.76,-0.812 -7.9,-2.437 -2.02,-1.761 -3.04,-3.974 -3.04,-6.641 0,-4.49 2.35,-8.688 7.04,-12.594 4.56,-3.906 9.54,-5.859 14.93,-5.859"
     class="Note" />
  <path
     id="path4568"
     d="m 2589.496,360.36 h 28 v 37.5 h -28 v -37.5"
     fill-rule="evenodd"
     fill="#ffffff"
     class="Note" />
  <path
     id="path4570"
     d="m 2589.496,360.36 h 28 v 37.5 h -28 v -37.5"
     fill-rule="evenodd"
     fill="#ffffff"
     class="Note" />
  <path
     id="path4572"
     d="m 2610.626,389.914 c -1.86,2.881 -4.32,4.321 -7.38,4.321 -3.06,0 -5.52,-1.469 -7.38,-4.407 -1.86,-2.937 -2.79,-6.718 -2.79,-11.343 0,-4.344 0.93,-7.98 2.79,-10.907 1.86,-2.927 4.38,-4.39 7.55,-4.39 2.95,0 5.35,1.44 7.21,4.32 1.86,2.88 2.79,6.633 2.79,11.258 0,4.552 -0.93,8.268 -2.79,11.148 m -7.33,-25.554 c -3.93,0 -5.89,4.843 -5.89,14.531 0,9.448 1.95,14.172 5.84,14.172 3.9,0 5.85,-4.74 5.85,-14.219 0,-4.708 -0.5,-8.299 -1.49,-10.773 -0.99,-2.474 -2.43,-3.711 -4.31,-3.711"
     class="Note" />
  <path
     id="path4574"
     d="m 2606.716,152.844 c 3.13,0 5.77,0.812 7.92,2.437 2.01,1.761 3.02,3.974 3.02,6.641 0,4.49 -2.31,8.687 -6.92,12.594 -4.69,3.906 -9.71,5.859 -15.05,5.859 -3.13,0 -5.76,-0.812 -7.91,-2.437 -2.02,-1.761 -3.03,-3.974 -3.03,-6.641 0,-4.49 2.35,-8.688 7.03,-12.594 4.57,-3.906 9.54,-5.859 14.94,-5.859"
     class="Note" />
  <path
     id="path4576"
     d="m 2490.496,360.36 h 28 v 37.5 h -28 v -37.5"
     fill-rule="evenodd"
     fill="#ffffff"
     class="Note" />
  <path
     id="path4578"
     d="m 2490.496,360.36 h 28 v 37.5 h -28 v -37.5"
     fill-rule="evenodd"
     fill="#ffffff"
     class="Note" />
  <path
     id="path4580"
     d="m 2511.626,389.914 c -1.86,2.881 -4.32,4.321 -7.38,4.321 -3.06,0 -5.53,-1.469 -7.38,-4.407 -1.86,-2.937 -2.79,-6.718 -2.79,-11.343 0,-4.344 0.93,-7.98 2.79,-10.907 1.85,-2.927 4.37,-4.39 7.55,-4.39 2.95,0 5.35,1.44 7.21,4.32 1.86,2.88 2.79,6.633 2.79,11.258 0,4.552 -0.93,8.268 -2.79,11.148 m -7.34,-25.554 c -3.92,0 -5.89,4.843 -5.89,14.531 0,9.448 1.95,14.172 5.85,14.172 3.89,0 5.84,-4.74 5.84,-14.219 0,-4.708 -0.49,-8.299 -1.48,-10.773 -0.99,-2.474 -2.43,-3.711 -4.32,-3.711"
     class="Note" />
  <path
     id="path4582"
     d="m 2507.716,152.844 c 3.12,0 5.76,0.812 7.92,2.437 2.01,1.761 3.01,3.974 3.01,6.641 0,4.49 -2.3,8.687 -6.92,12.594 -4.69,3.906 -9.7,5.859 -15.04,5.859 -3.13,0 -5.76,-0.812 -7.91,-2.437 -2.02,-1.761 -3.03,-3.974 -3.03,-6.641 0,-4.49 2.34,-8.688 7.03,-12.594 4.56,-3.906 9.54,-5.859 14.94,-5.859"
     class="Note" />
  <path
     id="path4584"
     d="m 2391.486,360.36 h 28 v 37.5 h -28 v -37.5"
     fill-rule="evenodd"
     fill="#ffffff"
     class="Note" />
  <path
     id="path4586"
     d="m 2391.486,360.36 h 28 v 37.5 h -28 v -37.5"
     fill-rule="evenodd"
     fill="#ffffff"
     class="Note" />
  <path
     id="path4588"
     d="m 2412.626,389.914 c -1.86,2.881 -4.32,4.321 -7.39,4.321 -3.06,0 -5.52,-1.469 -7.38,-4.407 -1.86,-2.937 -2.79,-6.718 -2.79,-11.343 0,-4.344 0.93,-7.98 2.79,-10.907 1.86,-2.927 4.38,-4.39 7.56,-4.39 2.94,0 5.35,1.44 7.21,4.32 1.86,2.88 2.79,6.633 2.79,11.258 0,4.552 -0.93,8.268 -2.79,11.148 m -7.34,-25.554 c -3.93,0 -5.89,4.843 -5.89,14.531 0,9.448 1.95,14.172 5.84,14.172 3.9,0 5.85,-4.74 5.85,-14.219 0,-4.708 -0.5,-8.299 -1.49,-10.773 -0.99,-2.474 -2.42,-3.711 -4.31,-3.711"
     class="Note" />
  <path
     id="path4590"
     d="m 2408.706,152.844 c 3.13,0 5.77,0.812 7.93,2.437 2.01,1.761 3.01,3.974 3.01,6.641 0,4.49 -2.31,8.687 -6.92,12.594 -4.69,3.906 -9.7,5.859 -15.05,5.859 -3.12,0 -5.76,-0.812 -7.9,-2.437 -2.03,-1.761 -3.04,-3.974 -3.04,-6.641 0,-4.49 2.35,-8.688 7.04,-12.594 4.56,-3.906 9.54,-5.859 14.93,-5.859"
     class="Note" />
  <path
     id="path4592"
     d="m 2292.486,360.36 h 28 v 37.5 h -28 v -37.5"
     fill-rule="evenodd"
     fill="#ffffff"
     class="Note" />
  <path
     id="path4594"
     d="m 2292.486,360.36 h 28 v 37.5 h -28 v -37.5"
     fill-rule="evenodd"
     fill="#ffffff"
     class="Note" />
  <path
     id="path4596"
     d="m 2313.616,389.914 c -1.86,2.881 -4.32,4.321 -7.38,4.321 -3.06,0 -5.52,-1.469 -7.38,-4.407 -1.86,-2.937 -2.79,-6.718 -2.79,-11.343 0,-4.344 0.93,-7.98 2.79,-10.907 1.86,-2.927 4.38,-4.39 7.55,-4.39 2.95,0 5.35,1.44 7.21,4.32 1.86,2.88 2.79,6.633 2.79,11.258 0,4.552 -0.93,8.268 -2.79,11.148 m -7.33,-25.554 c -3.93,0 -5.89,4.843 -5.89,14.531 0,9.448 1.95,14.172 5.84,14.172 3.9,0 5.84,-4.74 5.84,-14.219 0,-4.708 -0.49,-8.299 -1.48,-10.773 -0.99,-2.474 -2.43,-3.711 -4.31,-3.711"
     class="Note" />
  <path
     id="path4598"
     d="m 2309.706,152.844 c 3.12,0 5.77,0.812 7.92,2.437 2.01,1.761 3.02,3.974 3.02,6.641 0,4.49 -2.31,8.687 -6.92,12.594 -4.69,3.906 -9.71,5.859 -15.05,5.859 -3.13,0 -5.76,-0.812 -7.91,-2.437 -2.02,-1.761 -3.03,-3.974 -3.03,-6.641 0,-4.49 2.34,-8.688 7.03,-12.594 4.56,-3.906 9.54,-5.859 14.94,-5.859"
     class="Note" />
  <path
     id="path4600"
     d="m 2193.486,360.36 h 28 v 37.5 h -28 v -37.5"
     fill-rule="evenodd"
     fill="#ffffff"
     class="Note" />
  <path
     id="path4602"
     d="m 2193.486,360.36 h 28 v 37.5 h -28 v -37.5"
     fill-rule="evenodd"
     fill="#ffffff"
     class="Note" />
  <path
     id="path4604"
     d="m 2214.616,389.914 c -1.86,2.881 -4.32,4.321 -7.38,4.321 -3.06,0 -5.53,-1.469 -7.39,-4.407 -1.85,-2.937 -2.78,-6.718 -2.78,-11.343 0,-4.344 0.93,-7.98 2.78,-10.907 1.86,-2.927 4.38,-4.39 7.56,-4.39 2.95,0 5.35,1.44 7.21,4.32 1.86,2.88 2.79,6.633 2.79,11.258 0,4.552 -0.93,8.268 -2.79,11.148 m -7.34,-25.554 c -3.92,0 -5.89,4.843 -5.89,14.531 0,9.448 1.95,14.172 5.85,14.172 3.89,0 5.84,-4.74 5.84,-14.219 0,-4.708 -0.49,-8.299 -1.48,-10.773 -0.99,-2.474 -2.43,-3.711 -4.32,-3.711"
     class="Note" />
  <path
     id="path4606"
     d="m 2210.706,152.844 c 3.12,0 5.76,0.812 7.92,2.437 2.01,1.761 3.01,3.974 3.01,6.641 0,4.49 -2.3,8.687 -6.92,12.594 -4.69,3.906 -9.7,5.859 -15.04,5.859 -3.13,0 -5.77,-0.812 -7.91,-2.437 -2.02,-1.761 -3.03,-3.974 -3.03,-6.641 0,-4.49 2.34,-8.688 7.03,-12.594 4.56,-3.906 9.54,-5.859 14.94,-5.859"
     class="Note" />
  <path
     id="path4608"
     d="m 2094.476,360.36 h 28 v 37.5 h -28 v -37.5"
     fill-rule="evenodd"
     fill="#ffffff"
     class="Note" />
  <path
     id="path4610"
     d="m 2094.476,360.36 h 28 v 37.5 h -28 v -37.5"
     fill-rule="evenodd"
     fill="#ffffff"
     class="Note" />
  <path
     id="path4612"
     d="m 2115.616,389.914 c -1.86,2.881 -4.32,4.321 -7.39,4.321 -3.06,0 -5.52,-1.469 -7.38,-4.407 -1.86,-2.937 -2.79,-6.718 -2.79,-11.343 0,-4.344 0.93,-7.98 2.79,-10.907 1.86,-2.927 4.38,-4.39 7.56,-4.39 2.94,0 5.35,1.44 7.21,4.32 1.86,2.88 2.79,6.633 2.79,11.258 0,4.552 -0.93,8.268 -2.79,11.148 m -7.34,-25.554 c -3.93,0 -5.89,4.843 -5.89,14.531 0,9.448 1.95,14.172 5.84,14.172 3.9,0 5.85,-4.74 5.85,-14.219 0,-4.708 -0.5,-8.299 -1.49,-10.773 -0.99,-2.474 -2.42,-3.711 -4.31,-3.711"
     class="Note" />
  <path
     id="path4614"
     d="m 2111.696,152.844 c 3.13,0 5.77,0.812 7.92,2.437 2.02,1.761 3.02,3.974 3.02,6.641 0,4.49 -2.31,8.687 -6.92,12.594 -4.69,3.906 -9.7,5.859 -15.05,5.859 -3.12,0 -5.76,-0.812 -7.9,-2.437 -2.03,-1.761 -3.04,-3.974 -3.04,-6.641 0,-4.49 2.35,-8.688 7.04,-12.594 4.56,-3.906 9.54,-5.859 14.93,-5.859"
     class="Note" />
  <path
     id="path4616"
     d="m 1995.476,360.36 h 28 v 37.5 h -28 v -37.5"
     fill-rule="evenodd"
     fill="#ffffff"
     class="Note" />
  <path
     id="path4618"
     d="m 1995.476,360.36 h 28 v 37.5 h -28 v -37.5"
     fill-rule="evenodd"
     fill="#ffffff"
     class="Note" />
  <path
     id="path4620"
     d="m 2016.606,389.914 c -1.86,2.881 -4.32,4.321 -7.38,4.321 -3.06,0 -5.52,-1.469 -7.38,-4.407 -1.86,-2.937 -2.79,-6.718 -2.79,-11.343 0,-4.344 0.93,-7.98 2.79,-10.907 1.86,-2.927 4.38,-4.39 7.55,-4.39 2.95,0 5.35,1.44 7.21,4.32 1.86,2.88 2.79,6.633 2.79,11.258 0,4.552 -0.93,8.268 -2.79,11.148 m -7.33,-25.554 c -3.93,0 -5.89,4.843 -5.89,14.531 0,9.448 1.94,14.172 5.84,14.172 3.9,0 5.84,-4.74 5.84,-14.219 0,-4.708 -0.49,-8.299 -1.48,-10.773 -0.99,-2.474 -2.43,-3.711 -4.31,-3.711"
     class="Note" />
  <path
     id="path4622"
     d="m 2012.696,152.844 c 3.12,0 5.77,0.812 7.92,2.437 2.01,1.761 3.02,3.974 3.02,6.641 0,4.49 -2.31,8.687 -6.92,12.594 -4.69,3.906 -9.71,5.859 -15.05,5.859 -3.13,0 -5.76,-0.812 -7.91,-2.437 -2.02,-1.761 -3.03,-3.974 -3.03,-6.641 0,-4.49 2.34,-8.688 7.03,-12.594 4.56,-3.906 9.54,-5.859 14.94,-5.859"
     class="Note" />
  <path
     id="path4624"
     d="m 1828.766,360.36 h 28 v 37.5 h -28 v -37.5"
     fill-rule="evenodd"
     fill="#ffffff"
     class="Note" />
  <path
     id="path4626"
     d="m 1828.766,360.36 h 28 v 37.5 h -28 v -37.5"
     fill-rule="evenodd"
     fill="#ffffff"
     class="Note" />
  <path
     id="path4628"
     d="m 1849.896,389.914 c -1.86,2.881 -4.32,4.321 -7.38,4.321 -3.06,0 -5.52,-1.469 -7.38,-4.407 -1.86,-2.937 -2.79,-6.718 -2.79,-11.343 0,-4.344 0.93,-7.98 2.79,-10.907 1.86,-2.927 4.38,-4.39 7.55,-4.39 2.95,0 5.35,1.44 7.21,4.32 1.86,2.88 2.79,6.633 2.79,11.258 0,4.552 -0.93,8.268 -2.79,11.148 m -7.33,-25.554 c -3.93,0 -5.89,4.843 -5.89,14.531 0,9.448 1.94,14.172 5.84,14.172 3.9,0 5.84,-4.74 5.84,-14.219 0,-4.708 -0.49,-8.299 -1.48,-10.773 -0.99,-2.474 -2.43,-3.711 -4.31,-3.711"
     class="Note" />
  <path
     id="path4630"
     d="m 1845.986,152.844 c 3.12,0 5.77,0.812 7.92,2.437 2.01,1.761 3.02,3.974 3.02,6.641 0,4.49 -2.31,8.687 -6.92,12.594 -4.69,3.906 -9.71,5.859 -15.05,5.859 -3.13,0 -5.76,-0.812 -7.91,-2.437 -2.02,-1.761 -3.03,-3.974 -3.03,-6.641 0,-4.49 2.34,-8.688 7.03,-12.594 4.56,-3.906 9.54,-5.859 14.94,-5.859"
     class="Note" />
  <path
     id="path4632"
     d="m 1700.556,360.36 h 28 v 37.5 h -28 v -37.5"
     fill-rule="evenodd"
     fill="#ffffff"
     class="Note" />
  <path
     id="path4634"
     d="m 1700.556,360.36 h 28 v 37.5 h -28 v -37.5"
     fill-rule="evenodd"
     fill="#ffffff"
     class="Note" />
  <path
     id="path4636"
     d="m 1721.686,389.914 c -1.86,2.881 -4.32,4.321 -7.38,4.321 -3.06,0 -5.52,-1.469 -7.38,-4.407 -1.86,-2.937 -2.79,-6.718 -2.79,-11.343 0,-4.344 0.93,-7.98 2.79,-10.907 1.86,-2.927 4.38,-4.39 7.55,-4.39 2.95,0 5.35,1.44 7.21,4.32 1.86,2.88 2.79,6.633 2.79,11.258 0,4.552 -0.93,8.268 -2.79,11.148 m -7.33,-25.554 c -3.93,0 -5.89,4.843 -5.89,14.531 0,9.448 1.94,14.172 5.84,14.172 3.9,0 5.84,-4.74 5.84,-14.219 0,-4.708 -0.49,-8.299 -1.48,-10.773 -0.99,-2.474 -2.43,-3.711 -4.31,-3.711"
     class="Note" />
  <path
     id="path4638"
     d="m 1717.776,152.844 c 3.12,0 5.77,0.812 7.92,2.437 2.01,1.761 3.02,3.974 3.02,6.641 0,4.49 -2.31,8.687 -6.92,12.594 -4.69,3.906 -9.71,5.859 -15.05,5.859 -3.13,0 -5.76,-0.812 -7.91,-2.437 -2.02,-1.761 -3.03,-3.974 -3.03,-6.641 0,-4.49 2.34,-8.688 7.03,-12.594 4.56,-3.906 9.54,-5.859 14.94,-5.859"
     class="Note" />
  <path
     id="path4640"
     d="m 1572.346,360.36 h 28 v 37.5 h -28 v -37.5"
     fill-rule="evenodd"
     fill="#ffffff"
     class="Note" />
  <path
     id="path4642"
     d="m 1572.346,360.36 h 28 v 37.5 h -28 v -37.5"
     fill-rule="evenodd"
     fill="#ffffff"
     class="Note" />
  <path
     id="path4644"
     d="m 1593.476,389.914 c -1.86,2.881 -4.32,4.321 -7.38,4.321 -3.06,0 -5.52,-1.469 -7.38,-4.407 -1.86,-2.937 -2.79,-6.718 -2.79,-11.343 0,-4.344 0.93,-7.98 2.79,-10.907 1.86,-2.927 4.38,-4.39 7.55,-4.39 2.95,0 5.35,1.44 7.21,4.32 1.86,2.88 2.79,6.633 2.79,11.258 0,4.552 -0.93,8.268 -2.79,11.148 m -7.33,-25.554 c -3.93,0 -5.89,4.843 -5.89,14.531 0,9.448 1.94,14.172 5.84,14.172 3.9,0 5.84,-4.74 5.84,-14.219 0,-4.708 -0.49,-8.299 -1.48,-10.773 -0.99,-2.474 -2.43,-3.711 -4.31,-3.711"
     class="Note" />
  <path
     id="path4646"
     d="m 1589.566,152.844 c 3.12,0 5.77,0.812 7.92,2.437 2.01,1.761 3.02,3.974 3.02,6.641 0,4.49 -2.31,8.687 -6.92,12.594 -4.69,3.906 -9.71,5.859 -15.05,5.859 -3.13,0 -5.76,-0.812 -7.91,-2.437 -2.02,-1.761 -3.03,-3.974 -3.03,-6.641 0,-4.49 2.34,-8.688 7.03,-12.594 4.56,-3.906 9.54,-5.859 14.94,-5.859"
     class="Note" />
  <path
     id="path4648"
     d="m 1444.136,360.36 h 28 v 37.5 h -28 v -37.5"
     fill-rule="evenodd"
     fill="#ffffff"
     class="Note" />
  <path
     id="path4650"
     d="m 1444.136,360.36 h 28 v 37.5 h -28 v -37.5"
     fill-rule="evenodd"
     fill="#ffffff"
     class="Note" />
  <path
     id="path4652"
     d="m 1465.266,389.914 c -1.86,2.881 -4.32,4.321 -7.38,4.321 -3.06,0 -5.52,-1.469 -7.38,-4.407 -1.86,-2.937 -2.79,-6.718 -2.79,-11.343 0,-4.344 0.93,-7.98 2.79,-10.907 1.86,-2.927 4.38,-4.39 7.55,-4.39 2.95,0 5.35,1.44 7.21,4.32 1.86,2.88 2.79,6.633 2.79,11.258 0,4.552 -0.93,8.268 -2.79,11.148 m -7.33,-25.554 c -3.93,0 -5.89,4.843 -5.89,14.531 0,9.448 1.94,14.172 5.84,14.172 3.9,0 5.84,-4.74 5.84,-14.219 0,-4.708 -0.49,-8.299 -1.48,-10.773 -0.99,-2.474 -2.43,-3.711 -4.31,-3.711"
     class="Note" />
  <path
     id="path4654"
     d="m 1461.356,152.844 c 3.12,0 5.77,0.812 7.92,2.437 2.01,1.761 3.02,3.974 3.02,6.641 0,4.49 -2.31,8.687 -6.92,12.594 -4.69,3.906 -9.71,5.859 -15.05,5.859 -3.13,0 -5.76,-0.812 -7.91,-2.437 -2.02,-1.761 -3.03,-3.974 -3.03,-6.641 0,-4.49 2.34,-8.688 7.03,-12.594 4.56,-3.906 9.54,-5.859 14.94,-5.859"
     class="Note" />
  <path
     id="path4656"
     d="m 1321.766,397.86 h 28 v 37.5 h -28 v -37.5"
     fill-rule="evenodd"
     fill="#ffffff"
     class="Note" />
  <path
     id="path4658"
     d="m 1321.766,397.86 h 28 v 37.5 h -28 v -37.5"
     fill-rule="evenodd"
     fill="#ffffff"
     class="Note" />
  <path
     id="path4660"
     d="m 1342.896,427.414 c -1.85,2.881 -4.32,4.321 -7.38,4.321 -3.06,0 -5.52,-1.469 -7.38,-4.407 -1.86,-2.937 -2.79,-6.718 -2.79,-11.343 0,-4.344 0.93,-7.98 2.79,-10.907 1.86,-2.927 4.38,-4.39 7.55,-4.39 2.95,0 5.36,1.44 7.21,4.32 1.86,2.88 2.79,6.633 2.79,11.258 0,4.552 -0.93,8.268 -2.79,11.148 m -7.33,-25.554 c -3.93,0 -5.89,4.843 -5.89,14.531 0,9.448 1.95,14.172 5.84,14.172 3.9,0 5.85,-4.74 5.85,-14.219 0,-4.708 -0.5,-8.299 -1.49,-10.773 -0.99,-2.474 -2.43,-3.711 -4.31,-3.711"
     class="Note" />
  <path
     id="path4662"
     d="m 1338.986,102.844 c 3.13,0 5.77,0.812 7.92,2.437 2.01,1.761 3.02,3.974 3.02,6.641 0,4.49 -2.31,8.687 -6.92,12.594 -4.69,3.906 -9.71,5.859 -15.05,5.859 -3.13,0 -5.76,-0.812 -7.91,-2.437 -2.02,-1.761 -3.03,-3.974 -3.03,-6.641 0,-4.49 2.35,-8.688 7.03,-12.594 4.57,-3.906 9.54,-5.859 14.94,-5.859"
     class="Note" />
  <path
     id="path4664"
     d="m 1237.896,397.86 h 28 v 37.5 h -28 v -37.5"
     fill-rule="evenodd"
     fill="#ffffff"
     class="Note" />
  <path
     id="path4666"
     d="m 1237.896,397.86 h 28 v 37.5 h -28 v -37.5"
     fill-rule="evenodd"
     fill="#ffffff"
     class="Note" />
  <path
     id="path4668"
     d="m 1259.036,427.414 c -1.86,2.881 -4.32,4.321 -7.39,4.321 -3.06,0 -5.52,-1.469 -7.38,-4.407 -1.86,-2.937 -2.79,-6.718 -2.79,-11.343 0,-4.344 0.93,-7.98 2.79,-10.907 1.86,-2.927 4.38,-4.39 7.56,-4.39 2.94,0 5.35,1.44 7.21,4.32 1.86,2.88 2.79,6.633 2.79,11.258 0,4.552 -0.93,8.268 -2.79,11.148 m -7.34,-25.554 c -3.93,0 -5.89,4.843 -5.89,14.531 0,9.448 1.95,14.172 5.84,14.172 3.9,0 5.85,-4.74 5.85,-14.219 0,-4.708 -0.5,-8.299 -1.49,-10.773 -0.99,-2.474 -2.42,-3.711 -4.31,-3.711"
     class="Note" />
  <path
     id="path4670"
     d="m 1255.116,102.844 c 3.13,0 5.77,0.812 7.92,2.437 2.01,1.761 3.02,3.974 3.02,6.641 0,4.49 -2.31,8.687 -6.92,12.594 -4.69,3.906 -9.71,5.859 -15.05,5.859 -3.12,0 -5.76,-0.812 -7.91,-2.437 -2.02,-1.761 -3.03,-3.974 -3.03,-6.641 0,-4.49 2.35,-8.688 7.03,-12.594 4.57,-3.906 9.55,-5.859 14.94,-5.859"
     class="Note" />
  <path
     id="path4672"
     d="m 1154.026,397.86 h 28 v 37.5 h -28 v -37.5"
     fill-rule="evenodd"
     fill="#ffffff"
     class="Note" />
  <path
     id="path4674"
     d="m 1154.026,397.86 h 28 v 37.5 h -28 v -37.5"
     fill-rule="evenodd"
     fill="#ffffff"
     class="Note" />
  <path
     id="path4676"
     d="m 1175.166,427.414 c -1.86,2.881 -4.32,4.321 -7.39,4.321 -3.06,0 -5.52,-1.469 -7.38,-4.407 -1.86,-2.937 -2.79,-6.718 -2.79,-11.343 0,-4.344 0.93,-7.98 2.79,-10.907 1.86,-2.927 4.38,-4.39 7.56,-4.39 2.94,0 5.35,1.44 7.21,4.32 1.86,2.88 2.79,6.633 2.79,11.258 0,4.552 -0.93,8.268 -2.79,11.148 m -7.34,-25.554 c -3.93,0 -5.89,4.843 -5.89,14.531 0,9.448 1.95,14.172 5.84,14.172 3.9,0 5.85,-4.74 5.85,-14.219 0,-4.708 -0.5,-8.299 -1.49,-10.773 -0.99,-2.474 -2.42,-3.711 -4.31,-3.711"
     class="Note" />
  <path
     id="path4678"
     d="m 1171.246,102.844 c 3.13,0 5.77,0.812 7.93,2.437 2.01,1.761 3.01,3.974 3.01,6.641 0,4.49 -2.31,8.687 -6.92,12.594 -4.69,3.906 -9.7,5.859 -15.05,5.859 -3.12,0 -5.76,-0.812 -7.9,-2.437 -2.02,-1.761 -3.04,-3.974 -3.04,-6.641 0,-4.49 2.35,-8.688 7.04,-12.594 4.56,-3.906 9.54,-5.859 14.93,-5.859"
     class="Note" />
  <path
     id="path4680"
     d="m 1070.166,397.86 h 28 v 37.5 h -28 v -37.5"
     fill-rule="evenodd"
     fill="#ffffff"
     class="Note" />
  <path
     id="path4682"
     d="m 1070.166,397.86 h 28 v 37.5 h -28 v -37.5"
     fill-rule="evenodd"
     fill="#ffffff"
     class="Note" />
  <path
     id="path4684"
     d="m 1091.296,427.414 c -1.86,2.881 -4.32,4.321 -7.38,4.321 -3.07,0 -5.53,-1.469 -7.39,-4.407 -1.86,-2.937 -2.79,-6.718 -2.79,-11.343 0,-4.344 0.93,-7.98 2.79,-10.907 1.86,-2.927 4.38,-4.39 7.56,-4.39 2.95,0 5.35,1.44 7.21,4.32 1.86,2.88 2.79,6.633 2.79,11.258 0,4.552 -0.93,8.268 -2.79,11.148 m -7.34,-25.554 c -3.92,0 -5.89,4.843 -5.89,14.531 0,9.448 1.95,14.172 5.85,14.172 3.89,0 5.84,-4.74 5.84,-14.219 0,-4.708 -0.5,-8.299 -1.48,-10.773 -0.99,-2.474 -2.43,-3.711 -4.32,-3.711"
     class="Note" />
  <path
     id="path4686"
     d="m 1087.376,102.844 c 3.13,0 5.77,0.812 7.93,2.437 2.01,1.761 3.01,3.974 3.01,6.641 0,4.49 -2.31,8.687 -6.92,12.594 -4.69,3.906 -9.7,5.859 -15.05,5.859 -3.12,0 -5.76,-0.812 -7.9,-2.437 -2.02,-1.761 -3.03,-3.974 -3.03,-6.641 0,-4.49 2.34,-8.688 7.03,-12.594 4.56,-3.906 9.54,-5.859 14.93,-5.859"
     class="Note" />
  <path
     id="path4688"
     d="m 986.296,397.86 h 28 v 37.5 h -28 v -37.5"
     fill-rule="evenodd"
     fill="#ffffff"
     class="Note" />
  <path
     id="path4690"
     d="m 986.296,397.86 h 28 v 37.5 h -28 v -37.5"
     fill-rule="evenodd"
     fill="#ffffff"
     class="Note" />
  <path
     id="path4692"
     d="m 1007.426,427.414 c -1.86,2.881 -4.32,4.321 -7.38,4.321 -3.07,0 -5.53,-1.469 -7.39,-4.407 -1.85,-2.937 -2.78,-6.718 -2.78,-11.343 0,-4.344 0.93,-7.98 2.78,-10.907 1.86,-2.927 4.38,-4.39 7.56,-4.39 2.95,0 5.35,1.44 7.21,4.32 1.86,2.88 2.79,6.633 2.79,11.258 0,4.552 -0.93,8.268 -2.79,11.148 m -7.34,-25.554 c -3.92,0 -5.89,4.843 -5.89,14.531 0,9.448 1.95,14.172 5.85,14.172 3.89,0 5.84,-4.74 5.84,-14.219 0,-4.708 -0.49,-8.299 -1.48,-10.773 -0.99,-2.474 -2.43,-3.711 -4.32,-3.711"
     class="Note" />
  <path
     id="path4694"
     d="m 1003.516,102.844 c 3.12,0 5.76,0.812 7.92,2.437 2.01,1.761 3.01,3.974 3.01,6.641 0,4.49 -2.3,8.687 -6.92,12.594 -4.69,3.906 -9.7,5.859 -15.05,5.859 -3.12,0 -5.76,-0.812 -7.9,-2.437 -2.02,-1.761 -3.03,-3.974 -3.03,-6.641 0,-4.49 2.34,-8.688 7.03,-12.594 4.56,-3.906 9.54,-5.859 14.94,-5.859"
     class="Note" />
  <path
     id="path4696"
     d="m 902.426,397.86 h 28 v 37.5 h -28 v -37.5"
     fill-rule="evenodd"
     fill="#ffffff"
     class="Note" />
  <path
     id="path4698"
     d="m 902.426,397.86 h 28 v 37.5 h -28 v -37.5"
     fill-rule="evenodd"
     fill="#ffffff"
     class="Note" />
  <path
     id="path4700"
     d="m 923.556,427.414 c -1.86,2.881 -4.32,4.321 -7.38,4.321 -3.06,0 -5.52,-1.469 -7.38,-4.407 -1.86,-2.937 -2.79,-6.718 -2.79,-11.343 0,-4.344 0.93,-7.98 2.79,-10.907 1.86,-2.927 4.37,-4.39 7.55,-4.39 2.95,0 5.35,1.44 7.21,4.32 1.86,2.88 2.79,6.633 2.79,11.258 0,4.552 -0.93,8.268 -2.79,11.148 m -7.33,-25.554 c -3.93,0 -5.9,4.843 -5.9,14.531 0,9.448 1.95,14.172 5.85,14.172 3.89,0 5.84,-4.74 5.84,-14.219 0,-4.708 -0.49,-8.299 -1.48,-10.773 -0.99,-2.474 -2.43,-3.711 -4.31,-3.711"
     class="Note" />
  <path
     id="path4702"
     d="m 919.646,102.844 c 3.12,0 5.76,0.812 7.92,2.437 2.01,1.761 3.01,3.974 3.01,6.641 0,4.49 -2.3,8.687 -6.92,12.594 -4.68,3.906 -9.7,5.859 -15.04,5.859 -3.13,0 -5.76,-0.812 -7.91,-2.437 -2.02,-1.761 -3.03,-3.974 -3.03,-6.641 0,-4.49 2.34,-8.688 7.03,-12.594 4.56,-3.906 9.54,-5.859 14.94,-5.859"
     class="Note" />
  <path
     id="path4704"
     d="m 818.556,397.86 h 28 v 37.5 h -28 v -37.5"
     fill-rule="evenodd"
     fill="#ffffff"
     class="Note" />
  <path
     id="path4706"
     d="m 818.556,397.86 h 28 v 37.5 h -28 v -37.5"
     fill-rule="evenodd"
     fill="#ffffff"
     class="Note" />
  <path
     id="path4708"
     d="m 839.689,427.414 c -1.86,2.881 -4.321,4.321 -7.383,4.321 -3.063,0 -5.523,-1.469 -7.383,-4.407 -1.859,-2.937 -2.789,-6.718 -2.789,-11.343 0,-4.344 0.93,-7.98 2.789,-10.907 1.86,-2.927 4.378,-4.39 7.555,-4.39 2.948,0 5.351,1.44 7.211,4.32 1.859,2.88 2.789,6.633 2.789,11.258 0,4.552 -0.93,8.268 -2.789,11.148 m -7.336,-25.554 c -3.927,0 -5.891,4.843 -5.891,14.531 0,9.448 1.948,14.172 5.844,14.172 3.896,0 5.844,-4.74 5.844,-14.219 0,-4.708 -0.495,-8.299 -1.485,-10.773 -0.989,-2.474 -2.427,-3.711 -4.312,-3.711"
     class="Note" />
  <path
     id="path4710"
     d="m 835.775,102.844 c 3.125,0 5.765,0.812 7.922,2.437 2.01,1.761 3.015,3.974 3.015,6.641 0,4.49 -2.307,8.687 -6.922,12.594 -4.687,3.906 -9.703,5.859 -15.047,5.859 -3.125,0 -5.76,-0.812 -7.906,-2.437 -2.021,-1.761 -3.031,-3.974 -3.031,-6.641 0,-4.49 2.344,-8.688 7.031,-12.594 4.563,-3.906 9.542,-5.859 14.938,-5.859"
     class="Note" />
  <path
     id="path4712"
     d="m 734.687,397.86 h 28 v 37.5 h -28 v -37.5"
     fill-rule="evenodd"
     fill="#ffffff"
     class="Note" />
  <path
     id="path4714"
     d="m 734.687,397.86 h 28 v 37.5 h -28 v -37.5"
     fill-rule="evenodd"
     fill="#ffffff"
     class="Note" />
  <path
     id="path4716"
     d="m 755.82,427.414 c -1.859,2.881 -4.32,4.321 -7.383,4.321 -3.062,0 -5.523,-1.469 -7.383,-4.407 -1.859,-2.937 -2.789,-6.718 -2.789,-11.343 0,-4.344 0.93,-7.98 2.789,-10.907 1.86,-2.927 4.378,-4.39 7.555,-4.39 2.948,0 5.352,1.44 7.211,4.32 1.859,2.88 2.789,6.633 2.789,11.258 0,4.552 -0.93,8.268 -2.789,11.148 m -7.336,-25.554 c -3.927,0 -5.89,4.843 -5.89,14.531 0,9.448 1.947,14.172 5.843,14.172 3.896,0 5.844,-4.74 5.844,-14.219 0,-4.708 -0.495,-8.299 -1.484,-10.773 -0.99,-2.474 -2.427,-3.711 -4.313,-3.711"
     class="Note" />
  <path
     id="path4718"
     d="m 751.906,102.844 c 3.125,0 5.766,0.812 7.922,2.437 2.01,1.761 3.016,3.974 3.016,6.641 0,4.49 -2.308,8.687 -6.922,12.594 -4.688,3.906 -9.703,5.859 -15.047,5.859 -3.125,0 -5.761,-0.812 -7.906,-2.437 -2.021,-1.761 -3.032,-3.974 -3.032,-6.641 0,-4.49 2.344,-8.688 7.032,-12.594 4.562,-3.906 9.541,-5.859 14.937,-5.859"
     class="Note" />
  <path
     id="path4720"
     d="m 588.157,397.86 h 28 v 37.5 h -28 v -37.5"
     fill-rule="evenodd"
     fill="#ffffff"
     class="Note" />
  <path
     id="path4722"
     d="m 588.157,397.86 h 28 v 37.5 h -28 v -37.5"
     fill-rule="evenodd"
     fill="#ffffff"
     class="Note" />
  <path
     id="path4724"
     d="m 609.29,427.414 c -1.86,2.881 -4.321,4.321 -7.383,4.321 -3.063,0 -5.523,-1.469 -7.383,-4.407 -1.859,-2.937 -2.789,-6.718 -2.789,-11.343 0,-4.344 0.93,-7.98 2.789,-10.907 1.86,-2.927 4.378,-4.39 7.555,-4.39 2.948,0 5.351,1.44 7.211,4.32 1.859,2.88 2.789,6.633 2.789,11.258 0,4.552 -0.93,8.268 -2.789,11.148 m -7.336,-25.554 c -3.927,0 -5.891,4.843 -5.891,14.531 0,9.448 1.948,14.172 5.844,14.172 3.896,0 5.844,-4.74 5.844,-14.219 0,-4.708 -0.495,-8.299 -1.485,-10.773 -0.989,-2.474 -2.427,-3.711 -4.312,-3.711"
     class="Note" />
  <path
     id="path4726"
     d="m 605.376,102.844 c 3.125,0 5.765,0.812 7.922,2.437 2.01,1.761 3.015,3.974 3.015,6.641 0,4.49 -2.307,8.687 -6.922,12.594 -4.687,3.906 -9.703,5.859 -15.047,5.859 -3.125,0 -5.76,-0.812 -7.906,-2.437 -2.021,-1.761 -3.031,-3.974 -3.031,-6.641 0,-4.49 2.344,-8.688 7.031,-12.594 4.563,-3.906 9.542,-5.859 14.938,-5.859"
     class="Note" />
  <path
     id="path4728"
     d="m 472.92,397.86 h 28 v 37.5 h -28 v -37.5"
     fill-rule="evenodd"
     fill="#ffffff"
     class="Note" />
  <path
     id="path4730"
     d="m 472.92,397.86 h 28 v 37.5 h -28 v -37.5"
     fill-rule="evenodd"
     fill="#ffffff"
     class="Note" />
  <path
     id="path4732"
     d="m 494.052,427.414 c -1.859,2.881 -4.32,4.321 -7.382,4.321 -3.063,0 -5.524,-1.469 -7.383,-4.407 -1.86,-2.937 -2.789,-6.718 -2.789,-11.343 0,-4.344 0.929,-7.98 2.789,-10.907 1.859,-2.927 4.377,-4.39 7.555,-4.39 2.947,0 5.351,1.44 7.21,4.32 1.86,2.88 2.79,6.633 2.79,11.258 0,4.552 -0.93,8.268 -2.79,11.148 m -7.335,-25.554 c -3.928,0 -5.891,4.843 -5.891,14.531 0,9.448 1.948,14.172 5.844,14.172 3.895,0 5.843,-4.74 5.843,-14.219 0,-4.708 -0.494,-8.299 -1.484,-10.773 -0.99,-2.474 -2.427,-3.711 -4.312,-3.711"
     class="Note" />
  <path
     id="path4734"
     d="m 490.138,102.844 c 3.125,0 5.766,0.812 7.922,2.437 2.011,1.761 3.016,3.974 3.016,6.641 0,4.49 -2.307,8.687 -6.922,12.594 -4.687,3.906 -9.703,5.859 -15.047,5.859 -3.125,0 -5.76,-0.812 -7.906,-2.437 -2.021,-1.761 -3.031,-3.974 -3.031,-6.641 0,-4.49 2.343,-8.688 7.031,-12.594 4.562,-3.906 9.542,-5.859 14.937,-5.859"
     class="Note" />
  <path
     id="path4736"
     d="m 357.682,397.86 h 28 v 37.5 h -28 v -37.5"
     fill-rule="evenodd"
     fill="#ffffff"
     class="Note" />
  <path
     id="path4738"
     d="m 357.682,397.86 h 28 v 37.5 h -28 v -37.5"
     fill-rule="evenodd"
     fill="#ffffff"
     class="Note" />
  <path
     id="path4740"
     d="m 378.815,427.414 c -1.859,2.881 -4.32,4.321 -7.383,4.321 -3.062,0 -5.523,-1.469 -7.382,-4.407 -1.86,-2.937 -2.79,-6.718 -2.79,-11.343 0,-4.344 0.93,-7.98 2.79,-10.907 1.859,-2.927 4.377,-4.39 7.554,-4.39 2.948,0 5.352,1.44 7.211,4.32 1.86,2.88 2.789,6.633 2.789,11.258 0,4.552 -0.929,8.268 -2.789,11.148 m -7.336,-25.554 c -3.927,0 -5.89,4.843 -5.89,14.531 0,9.448 1.947,14.172 5.843,14.172 3.896,0 5.844,-4.74 5.844,-14.219 0,-4.708 -0.495,-8.299 -1.484,-10.773 -0.99,-2.474 -2.427,-3.711 -4.313,-3.711"
     class="Note" />
  <path
     id="path4742"
     d="m 374.901,102.844 c 3.125,0 5.766,0.812 7.922,2.437 2.01,1.761 3.016,3.974 3.016,6.641 0,4.49 -2.308,8.687 -6.922,12.594 -4.688,3.906 -9.703,5.859 -15.047,5.859 -3.125,0 -5.761,-0.812 -7.906,-2.437 -2.021,-1.761 -3.032,-3.974 -3.032,-6.641 0,-4.49 2.344,-8.688 7.032,-12.594 4.562,-3.906 9.541,-5.859 14.937,-5.859"
     class="Note" />
  <path
     id="path4744"
     d="m 242.445,397.86 h 28 v 37.5 h -28 v -37.5"
     fill-rule="evenodd"
     fill="#ffffff"
     class="Note" />
  <path
     id="path4746"
     d="m 242.445,397.86 h 28 v 37.5 h -28 v -37.5"
     fill-rule="evenodd"
     fill="#ffffff"
     class="Note" />
  <path
     id="path4748"
     d="m 263.578,427.414 c -1.86,2.881 -4.321,4.321 -7.383,4.321 -3.063,0 -5.523,-1.469 -7.383,-4.407 -1.859,-2.937 -2.789,-6.718 -2.789,-11.343 0,-4.344 0.93,-7.98 2.789,-10.907 1.86,-2.927 4.378,-4.39 7.555,-4.39 2.948,0 5.351,1.44 7.211,4.32 1.859,2.88 2.789,6.633 2.789,11.258 0,4.552 -0.93,8.268 -2.789,11.148 m -7.336,-25.554 c -3.927,0 -5.891,4.843 -5.891,14.531 0,9.448 1.948,14.172 5.844,14.172 3.896,0 5.844,-4.74 5.844,-14.219 0,-4.708 -0.495,-8.299 -1.485,-10.773 -0.989,-2.474 -2.427,-3.711 -4.312,-3.711"
     class="Note" />
  <path
     id="path4750"
     d="m 259.664,102.844 c 3.125,0 5.765,0.812 7.922,2.437 2.01,1.761 3.015,3.974 3.015,6.641 0,4.49 -2.307,8.687 -6.922,12.594 -4.687,3.906 -9.703,5.859 -15.047,5.859 -3.125,0 -5.76,-0.812 -7.906,-2.437 -2.021,-1.761 -3.031,-3.974 -3.031,-6.641 0,-4.49 2.344,-8.688 7.031,-12.594 4.563,-3.906 9.542,-5.859 14.938,-5.859"
     class="Note" />
  <path
     id="path4756"
     d="m 60.32,313.453 v -3.5 H 35.617 v 3.5 h 10.406 v 28 h 4 v -28 H 60.32 m 1.406,62.907 -11,-31.5 h -5.203 l -11.297,31.5 h 4.297 l 3.297,-9.5 h 12.203 l 3.203,9.5 h 4.5 M 52.929,363.563 H 42.82 l 5.203,-14.407 4.906,14.407 m 6.797,38.593 c 0,-3.796 -1.703,-6.093 -5.703,-7.593 2.797,-1.407 4.297,-3.703 4.297,-6.907 0,-4.593 -3.297,-8 -9.297,-8 H 36.226 v 31.5 h 14.203 c 5.688,0 9.297,-3.796 9.297,-9 m -5.406,-13.89 c 0,3.203 -1.797,5 -6.297,5 h -7.797 v -10.11 h 7.797 c 4.5,0 6.297,1.907 6.297,5.11 m 1.406,13.89 c 0,3.11 -1.797,5.407 -5.609,5.407 h -9.891 v -10.797 h 9.891 c 3.812,0 5.609,2.39 5.609,5.39"
     class="Clef" />
  <path
     id="path4758"
     d="m 71.242,91.016 c 0,0 0.198,0 0.593,0 0.261,-0.063 0.485,-0.094 0.672,-0.094 7.292,0 13.282,2.573 17.969,7.719 4.688,5.073 7.031,10.994 7.031,17.765 0,8.407 -3.479,15.245 -10.437,20.516 -1.823,1.437 -4.203,2.609 -7.141,3.516 0.334,4.229 0.5,7.645 0.5,10.25 0,0.52 -0.067,2.411 -0.203,5.671 -0.26,6.053 -2.344,11.292 -6.25,15.719 -3.771,4.365 -8.458,6.547 -14.062,6.547 -5.271,0 -9.761,-1.854 -13.469,-5.562 -3.719,-3.782 -5.578,-8.339 -5.578,-13.672 0,-2.802 1.078,-5.183 3.234,-7.141 2.208,-1.948 4.776,-2.922 7.703,-2.922 2.604,0 4.787,1.011 6.547,3.031 1.823,1.886 2.734,4.23 2.734,7.032 0,2.531 -0.911,4.708 -2.734,6.531 -1.823,1.823 -4.005,2.734 -6.547,2.734 -1.041,0 -2.047,-0.192 -3.015,-0.578 2.864,4.229 6.671,6.344 11.421,6.344 4.49,0 8.167,-1.823 11.032,-5.469 3,-3.771 4.63,-8.166 4.89,-13.187 0.125,-3.125 0.188,-4.912 0.188,-5.36 0,-3.646 -0.13,-6.64 -0.391,-8.984 -3.25,0.521 -6.146,0.781 -8.687,0.781 -9.052,0 -16.766,-3.583 -23.141,-10.75 -6.25,-7.229 -9.375,-15.823 -9.375,-25.781 0,-2.083 0.193,-4.198 0.578,-6.344 0.396,-1.76 0.886,-3.682 1.469,-5.765 0.323,-1.178 1.203,-3.068 2.641,-5.672 0.52,-0.782 1.106,-1.758 1.757,-2.93 0.651,-1.172 1.107,-1.951 1.368,-2.336 0.645,-1.302 1.911,-3.062 3.796,-5.281 0.521,-0.584 1.06,-1.232 1.618,-1.945 0.557,-0.714 1.031,-1.3 1.422,-1.758 0.39,-0.459 0.682,-0.818 0.875,-1.078 0.192,-0.261 1.658,-1.985 4.398,-5.172 0.646,-0.657 1.279,-1.357 1.898,-2.102 0.62,-0.745 1.125,-1.331 1.516,-1.758 0.391,-0.427 0.685,-0.734 0.883,-0.922 -2.344,-7.75 -3.813,-13.937 -4.406,-18.562 -0.448,-3.708 -0.672,-8.787 -0.672,-15.234 0,-5.667 1.302,-10.974 3.906,-15.922 C 60.304,7.755 63.851,3.557 68.414,0.297 68.674,0.099 68.997,0 69.382,0 c 0.459,0 0.787,0.099 0.985,0.297 3.51,4.229 6.536,9.729 9.078,16.5 2.604,6.771 3.906,12.927 3.906,18.469 0,6.25 -1.495,12.109 -4.484,17.578 -3.386,5.791 -7.75,11.781 -13.094,17.969 1.365,4.291 3.187,11.026 5.469,20.203 m 8.297,45.422 c 3.385,-1.24 6.026,-3.355 7.921,-6.344 2.084,-2.865 3.125,-6.089 3.125,-9.672 0,-4.625 -1.562,-8.729 -4.687,-12.313 -3.198,-3.708 -7.271,-5.791 -12.219,-6.25 2.802,13.74 4.755,25.266 5.86,34.579 M 41.757,113.875 c 0,6.448 2.605,12.115 7.813,17 5.333,4.75 11.323,7.125 17.969,7.125 2.729,0 5.395,-0.198 8,-0.594 -1.042,-9.896 -3.094,-21.744 -6.157,-35.547 -3.708,0.396 -6.666,1.698 -8.875,3.907 -2.156,2.281 -3.234,4.854 -3.234,7.718 0,4.948 2.641,8.954 7.922,12.016 0.448,0.458 0.672,0.948 0.672,1.469 0,0.521 -0.224,1.005 -0.672,1.453 -0.396,0.458 -0.886,0.687 -1.469,0.687 -0.062,0 -0.354,-0.062 -0.875,-0.187 -3.719,-2.021 -6.583,-4.625 -8.594,-7.813 -1.895,-3.395 -2.843,-6.817 -2.843,-10.265 0,-4.49 1.401,-8.557 4.203,-12.203 2.927,-3.646 6.734,-5.99 11.422,-7.032 -1.823,-7.291 -3.318,-12.989 -4.485,-17.093 -1.041,1.177 -2.294,2.593 -3.758,4.25 -1.463,1.656 -2.325,2.651 -2.586,2.984 -2.343,3.052 -4.135,5.427 -5.375,7.125 -2.218,3.063 -3.848,5.698 -4.89,7.906 -1.104,2.479 -2.078,5.183 -2.922,8.11 -0.844,2.802 -1.266,5.797 -1.266,8.984 m 32.61,-99.312 c -4.886,2.406 -8.724,5.854 -11.516,10.343 -2.864,4.625 -4.297,9.604 -4.297,14.938 0,4.687 1.172,11.005 3.516,18.953 4.687,-5.667 8.203,-10.906 10.547,-15.719 2.468,-5.083 3.703,-10.39 3.703,-15.922 0,-4.166 -0.651,-8.364 -1.953,-12.593"
     class="Clef" />
  <path
     id="path4760"
     d="m 170.257,42.789 c 1.948,0 3.607,-0.226 4.977,-0.68 1.37,-0.453 2.247,-0.679 2.633,-0.679 0.458,0 0.818,0.13 1.078,0.39 0.198,0.188 0.328,0.412 0.391,0.672 0,0.136 -0.068,0.334 -0.204,0.594 l -28.406,33.016 h 16.688 V 63.008 c 0,-0.844 0.229,-1.563 0.687,-2.156 0.781,-0.646 1.432,-1.037 1.953,-1.172 0.844,-0.386 1.886,-1.297 3.125,-2.735 1.042,-1.166 2.282,-3.213 3.719,-6.14 0.188,-0.396 0.479,-0.594 0.875,-0.594 0.781,0 1.234,0.458 1.359,1.375 v 24.516 h 7.141 c 0.906,0 1.427,0.484 1.563,1.453 0,0.979 -0.521,1.468 -1.563,1.468 h -7.141 v 0.782 c 0,2.604 0.651,4.817 1.954,6.64 1.5,1.823 3.26,2.735 5.281,2.735 0.781,0 1.172,0.39 1.172,1.172 0,0.781 -0.391,1.171 -1.172,1.171 -1.365,0 -3.578,-0.192 -6.641,-0.578 -2.802,-0.458 -4.984,-0.687 -6.547,-0.687 -1.625,0 -3.807,0.229 -6.547,0.687 -2.927,0.386 -5.104,0.578 -6.531,0.578 -0.781,0 -1.172,-0.39 -1.172,-1.171 0,-0.782 0.391,-1.172 1.172,-1.172 2.011,0 3.766,-0.912 5.266,-2.735 1.364,-1.885 2.047,-4.099 2.047,-6.64 v -0.782 h -16.688 c -1.114,0 -1.896,-0.26 -2.344,-0.781 -0.531,-0.385 -0.796,-0.906 -0.796,-1.562 0,-0.198 0.489,-0.88 1.468,-2.047 1.115,-1.302 2.287,-2.896 3.516,-4.781 1.437,-2.219 2.807,-4.5 4.109,-6.844 1.427,-2.667 2.568,-5.729 3.422,-9.188 0.969,-3.51 1.453,-7.088 1.453,-10.734 0,-1.042 0.459,-1.563 1.375,-1.563 0.198,0 0.62,0.099 1.266,0.297 0.198,0.063 0.607,0.159 1.226,0.289 0.62,0.131 1.123,0.258 1.508,0.383 1.177,0.198 2.287,0.297 3.328,0.297"
     class="TimeSig" />
  <path
     id="path4762"
     d="m 170.257,92.961 c 1.948,0 3.607,-0.227 4.977,-0.68 1.37,-0.453 2.247,-0.679 2.633,-0.679 0.458,0 0.818,0.13 1.078,0.39 0.198,0.188 0.328,0.412 0.391,0.672 0,0.136 -0.068,0.333 -0.204,0.594 l -28.406,33.016 h 16.688 V 113.18 c 0,-0.844 0.229,-1.563 0.687,-2.156 0.781,-0.646 1.432,-1.037 1.953,-1.172 0.844,-0.386 1.886,-1.297 3.125,-2.735 1.042,-1.166 2.282,-3.213 3.719,-6.14 0.188,-0.396 0.479,-0.594 0.875,-0.594 0.781,0 1.234,0.458 1.359,1.375 v 24.516 h 7.141 c 0.906,0 1.427,0.484 1.563,1.453 0,0.979 -0.521,1.468 -1.563,1.468 h -7.141 v 0.782 c 0,2.604 0.651,4.817 1.954,6.64 1.5,1.823 3.26,2.735 5.281,2.735 0.781,0 1.172,0.39 1.172,1.172 0,0.781 -0.391,1.171 -1.172,1.171 -1.365,0 -3.578,-0.192 -6.641,-0.578 -2.802,-0.458 -4.984,-0.687 -6.547,-0.687 -1.625,0 -3.807,0.229 -6.547,0.687 -2.927,0.386 -5.104,0.578 -6.531,0.578 -0.781,0 -1.172,-0.39 -1.172,-1.171 0,-0.782 0.391,-1.172 1.172,-1.172 2.011,0 3.766,-0.912 5.266,-2.735 1.364,-1.885 2.047,-4.099 2.047,-6.64 v -0.782 h -16.688 c -1.114,0 -1.896,-0.26 -2.344,-0.781 -0.531,-0.385 -0.796,-0.906 -0.796,-1.562 0,-0.198 0.489,-0.881 1.468,-2.047 1.115,-1.302 2.287,-2.896 3.516,-4.781 1.437,-2.219 2.807,-4.5 4.109,-6.844 1.427,-2.667 2.568,-5.729 3.422,-9.188 0.969,-3.51 1.453,-7.088 1.453,-10.734 0,-1.042 0.459,-1.563 1.375,-1.563 0.198,0 0.62,0.099 1.266,0.297 0.198,0.063 0.607,0.159 1.226,0.289 0.62,0.131 1.123,0.258 1.508,0.383 1.177,0.198 2.287,0.297 3.328,0.297"
     class="TimeSig" />
  <path
     id="path4772"
     d="m 2416.406,85.359 h 300.26 v 12.5 h -300.26 v -12.5"
     fill-rule="evenodd"
     class="Beam" />
  <path
     id="path4774"
     d="m 2020.386,85.359 h 300.27 v 12.5 h -300.27 v -12.5"
     fill-rule="evenodd"
     class="Beam" />
  <path
     id="path4776"
     d="m 1095.076,35.359 h 254.86 v 12.5 h -254.86 v -12.5"
     fill-rule="evenodd"
     class="Beam" />
  <path
     id="path4778"
     d="m 759.601,35.359 h 254.855 v 12.5 H 759.601 v -12.5"
     fill-rule="evenodd"
     class="Beam" />
  <polyline
     class="StaffLines"
     fill="none"
     stroke="#000000"
     stroke-width="2"
     stroke-linejoin="bevel"
     points="141.732,1066.73 2918.27,1066.73"
     id="polyline4184"
     transform="translate(-132.069,-478.82501)" />
  <polyline
     class="StaffLines"
     fill="none"
     stroke="#000000"
     stroke-width="2"
     stroke-linejoin="bevel"
     points="141.732,1091.73 2918.27,1091.73"
     id="polyline4186"
     transform="translate(-132.069,-478.82501)" />
  <polyline
     class="StaffLines"
     fill="none"
     stroke="#000000"
     stroke-width="2"
     stroke-linejoin="bevel"
     points="141.732,1116.73 2918.27,1116.73"
     id="polyline4188"
     transform="translate(-132.069,-478.82501)" />
  <polyline
     class="StaffLines"
     fill="none"
     stroke="#000000"
     stroke-width="2"
     stroke-linejoin="bevel"
     points="141.732,1141.73 2918.27,1141.73"
     id="polyline4190"
     transform="translate(-132.069,-478.82501)" />
  <polyline
     class="StaffLines"
     fill="none"
     stroke="#000000"
     stroke-width="2"
     stroke-linejoin="bevel"
     points="141.732,1166.73 2918.27,1166.73"
     id="polyline4192"
     transform="translate(-132.069,-478.82501)" />
  <polyline
     class="StaffLines"
     fill="none"
     stroke="#000000"
     stroke-width="2"
     stroke-linejoin="bevel"
     points="141.732,1329.23 2918.27,1329.23"
     id="polyline4194"
     transform="translate(-132.069,-478.82501)" />
  <polyline
     class="StaffLines"
     fill="none"
     stroke="#000000"
     stroke-width="2"
     stroke-linejoin="bevel"
     points="141.732,1366.73 2918.27,1366.73"
     id="polyline4196"
     transform="translate(-132.069,-478.82501)" />
  <polyline
     class="StaffLines"
     fill="none"
     stroke="#000000"
     stroke-width="2"
     stroke-linejoin="bevel"
     points="141.732,1404.23 2918.27,1404.23"
     id="polyline4198"
     transform="translate(-132.069,-478.82501)" />
  <polyline
     class="StaffLines"
     fill="none"
     stroke="#000000"
     stroke-width="2"
     stroke-linejoin="bevel"
     points="141.732,1441.73 2918.27,1441.73"
     id="polyline4200"
     transform="translate(-132.069,-478.82501)" />
  <polyline
     class="BarLine"
     fill="none"
     stroke="#000000"
     stroke-width="4"
     stroke-linejoin="bevel"
     points="2893.77,1328.23 2893.77,1442.73"
     id="polyline4204"
     transform="translate(-132.069,-478.82501)" />
  <polyline
     class="BarLine"
     fill="none"
     stroke="#000000"
     stroke-width="12.5"
     stroke-linejoin="bevel"
     points="2912.02,1328.23 2912.02,1442.73"
     id="polyline4206"
     transform="translate(-132.069,-478.82501)" />
  <polyline
     class="BarLine"
     fill="none"
     stroke="#000000"
     stroke-width="4"
     stroke-linejoin="bevel"
     points="2893.77,1065.73 2893.77,1167.73"
     id="polyline4208"
     transform="translate(-132.069,-478.82501)" />
  <polyline
     class="BarLine"
     fill="none"
     stroke="#000000"
     stroke-width="12.5"
     stroke-linejoin="bevel"
     points="2912.02,1065.73 2912.02,1167.73"
     id="polyline4210"
     transform="translate(-132.069,-478.82501)" />
  <polyline
     class="BarLine"
     fill="none"
     stroke="#000000"
     stroke-width="4"
     stroke-linejoin="bevel"
     points="2130.87,1328.23 2130.87,1442.73"
     id="polyline4212"
     transform="translate(-132.069,-478.82501)" />
  <polyline
     class="BarLine"
     fill="none"
     stroke="#000000"
     stroke-width="4"
     stroke-linejoin="bevel"
     points="2130.87,1065.73 2130.87,1167.73"
     id="polyline4214"
     transform="translate(-132.069,-478.82501)" />
  <polyline
     class="BarLine"
     fill="none"
     stroke="#000000"
     stroke-width="4"
     stroke-linejoin="bevel"
     points="1577.97,1328.23 1577.97,1442.73"
     id="polyline4216"
     transform="translate(-132.069,-478.82501)" />
  <polyline
     class="BarLine"
     fill="none"
     stroke="#000000"
     stroke-width="4"
     stroke-linejoin="bevel"
     points="1577.97,1065.73 1577.97,1167.73"
     id="polyline4218"
     transform="translate(-132.069,-478.82501)" />
  <polyline
     class="BarLine"
     fill="none"
     stroke="#000000"
     stroke-width="4"
     stroke-linejoin="bevel"
     points="815.078,1328.23 815.078,1442.73"
     id="polyline4220"
     transform="translate(-132.069,-478.82501)" />
  <polyline
     class="BarLine"
     fill="none"
     stroke="#000000"
     stroke-width="4"
     stroke-linejoin="bevel"
     points="815.078,1065.73 815.078,1167.73"
     id="polyline4222"
     transform="translate(-132.069,-478.82501)" />
  <polyline
     class="BarLine"
     fill="none"
     stroke="#000000"
     stroke-width="4"
     stroke-linejoin="bevel"
     points="143.732,1328.23 143.732,1442.73"
     id="polyline4224"
     transform="translate(-132.069,-478.82501)" />
  <polyline
     class="BarLine"
     fill="none"
     stroke="#000000"
     stroke-width="4"
     stroke-linejoin="bevel"
     points="143.732,1065.73 143.732,1329.23"
     id="polyline4226"
     transform="translate(-132.069,-478.82501)" />
  <polyline
     class="Stem"
     fill="none"
     stroke="#000000"
     stroke-width="3.25"
     stroke-linecap="round"
     stroke-linejoin="bevel"
     points="2831.61,1124.54 2831.61,1060.48"
     id="polyline4272"
     transform="translate(-132.069,-478.82501)" />
  <polyline
     class="Stem"
     fill="none"
     stroke="#000000"
     stroke-width="3.25"
     stroke-linecap="round"
     stroke-linejoin="bevel"
     points="2740.16,1124.54 2740.16,1060.48"
     id="polyline4274"
     transform="translate(-132.069,-478.82501)" />
  <polyline
     class="Stem"
     fill="none"
     stroke="#000000"
     stroke-width="3.25"
     stroke-linecap="round"
     stroke-linejoin="bevel"
     points="2648.71,1124.54 2648.71,1060.48"
     id="polyline4276"
     transform="translate(-132.069,-478.82501)" />
  <polyline
     class="Stem"
     fill="none"
     stroke="#000000"
     stroke-width="3.25"
     stroke-linecap="round"
     stroke-linejoin="bevel"
     points="2557.26,1124.54 2557.26,1060.48"
     id="polyline4278"
     transform="translate(-132.069,-478.82501)" />
  <polyline
     class="Stem"
     fill="none"
     stroke="#000000"
     stroke-width="3.25"
     stroke-linecap="round"
     stroke-linejoin="bevel"
     points="2465.81,1124.54 2465.81,1060.48"
     id="polyline4280"
     transform="translate(-132.069,-478.82501)" />
  <polyline
     class="Stem"
     fill="none"
     stroke="#000000"
     stroke-width="3.25"
     stroke-linecap="round"
     stroke-linejoin="bevel"
     points="2374.35,1124.54 2374.35,1060.48"
     id="polyline4282"
     transform="translate(-132.069,-478.82501)" />
  <polyline
     class="Stem"
     fill="none"
     stroke="#000000"
     stroke-width="3.25"
     stroke-linecap="round"
     stroke-linejoin="bevel"
     points="2282.9,1124.54 2282.9,1060.48"
     id="polyline4284"
     transform="translate(-132.069,-478.82501)" />
  <polyline
     class="Stem"
     fill="none"
     stroke="#000000"
     stroke-width="3.25"
     stroke-linecap="round"
     stroke-linejoin="bevel"
     points="2191.45,1124.54 2191.45,1060.48"
     id="polyline4286"
     transform="translate(-132.069,-478.82501)" />
  <polyline
     class="Stem"
     fill="none"
     stroke="#000000"
     stroke-width="3.25"
     stroke-linecap="round"
     stroke-linejoin="bevel"
     points="2029.76,1124.54 2029.76,1047.98"
     id="polyline4288"
     transform="translate(-132.069,-478.82501)" />
  <polyline
     class="Stem"
     fill="none"
     stroke="#000000"
     stroke-width="3.25"
     stroke-linecap="round"
     stroke-linejoin="bevel"
     points="1899.36,1124.54 1899.36,1047.98"
     id="polyline4290"
     transform="translate(-132.069,-478.82501)" />
  <polyline
     class="Stem"
     fill="none"
     stroke="#000000"
     stroke-width="3.25"
     stroke-linecap="round"
     stroke-linejoin="bevel"
     points="1768.96,1124.54 1768.96,1047.98"
     id="polyline4292"
     transform="translate(-132.069,-478.82501)" />
  <polyline
     class="Stem"
     fill="none"
     stroke="#000000"
     stroke-width="3.25"
     stroke-linecap="round"
     stroke-linejoin="bevel"
     points="1638.56,1124.54 1638.56,1047.98"
     id="polyline4294"
     transform="translate(-132.069,-478.82501)" />
  <polyline
     class="Stem"
     fill="none"
     stroke="#000000"
     stroke-width="3.25"
     stroke-linecap="round"
     stroke-linejoin="bevel"
     points="1515.81,1162.04 1515.81,1091.73"
     id="polyline4296"
     transform="translate(-132.069,-478.82501)" />
  <polyline
     class="Stem"
     fill="none"
     stroke="#000000"
     stroke-width="3.25"
     stroke-linecap="round"
     stroke-linejoin="bevel"
     points="1424.36,1162.04 1424.36,1091.73"
     id="polyline4298"
     transform="translate(-132.069,-478.82501)" />
  <polyline
     class="Stem"
     fill="none"
     stroke="#000000"
     stroke-width="3.25"
     stroke-linecap="round"
     stroke-linejoin="bevel"
     points="1332.91,1162.04 1332.91,1091.73"
     id="polyline4300"
     transform="translate(-132.069,-478.82501)" />
  <polyline
     class="Stem"
     fill="none"
     stroke="#000000"
     stroke-width="3.25"
     stroke-linecap="round"
     stroke-linejoin="bevel"
     points="1241.46,1162.04 1241.46,1091.73"
     id="polyline4302"
     transform="translate(-132.069,-478.82501)" />
  <polyline
     class="Stem"
     fill="none"
     stroke="#000000"
     stroke-width="3.25"
     stroke-linecap="round"
     stroke-linejoin="bevel"
     points="1150.01,1162.04 1150.01,1091.73"
     id="polyline4304"
     transform="translate(-132.069,-478.82501)" />
  <polyline
     class="Stem"
     fill="none"
     stroke="#000000"
     stroke-width="3.25"
     stroke-linecap="round"
     stroke-linejoin="bevel"
     points="1058.56,1162.04 1058.56,1091.73"
     id="polyline4306"
     transform="translate(-132.069,-478.82501)" />
  <polyline
     class="Stem"
     fill="none"
     stroke="#000000"
     stroke-width="3.25"
     stroke-linecap="round"
     stroke-linejoin="bevel"
     points="967.111,1162.04 967.111,1091.73"
     id="polyline4308"
     transform="translate(-132.069,-478.82501)" />
  <polyline
     class="Stem"
     fill="none"
     stroke="#000000"
     stroke-width="3.25"
     stroke-linecap="round"
     stroke-linejoin="bevel"
     points="875.66,1162.04 875.66,1091.73"
     id="polyline4310"
     transform="translate(-132.069,-478.82501)" />
  <polyline
     class="Stem"
     fill="none"
     stroke="#000000"
     stroke-width="3.25"
     stroke-linecap="round"
     stroke-linejoin="bevel"
     points="713.966,1162.04 713.966,1079.23"
     id="polyline4312"
     transform="translate(-132.069,-478.82501)" />
  <polyline
     class="Stem"
     fill="none"
     stroke="#000000"
     stroke-width="3.25"
     stroke-linecap="round"
     stroke-linejoin="bevel"
     points="583.565,1162.04 583.565,1079.23"
     id="polyline4314"
     transform="translate(-132.069,-478.82501)" />
  <polyline
     class="Stem"
     fill="none"
     stroke="#000000"
     stroke-width="3.25"
     stroke-linecap="round"
     stroke-linejoin="bevel"
     points="453.165,1162.04 453.165,1079.23"
     id="polyline4316"
     transform="translate(-132.069,-478.82501)" />
  <polyline
     class="Stem"
     fill="none"
     stroke="#000000"
     stroke-width="3.25"
     stroke-linecap="round"
     stroke-linejoin="bevel"
     points="322.764,1162.04 322.764,1079.23"
     id="polyline4318"
     transform="translate(-132.069,-478.82501)" />
  <path
     class="Note"
     fill="#ffffff"
     fill-rule="evenodd"
     d="m 2673.001,831.655 h 28 v 37.5 h -28 v -37.5"
     id="path4368" />
  <path
     class="Note"
     fill="#ffffff"
     fill-rule="evenodd"
     d="m 2673.001,831.655 h 28 v 37.5 h -28 v -37.5"
     id="path4370" />
  <path
     class="Note"
     d="m 2694.131,861.215 c -1.86,2.88 -4.32,4.32 -7.38,4.32 -3.06,0 -5.53,-1.47 -7.39,-4.41 -1.85,-2.94 -2.78,-6.72 -2.78,-11.34 0,-4.35 0.93,-7.98 2.78,-10.91 1.86,-2.93 4.38,-4.39 7.56,-4.39 2.95,0 5.35,1.44 7.21,4.32 1.86,2.88 2.79,6.63 2.79,11.26 0,4.55 -0.93,8.27 -2.79,11.15 m -7.34,-25.56 c -3.92,0 -5.89,4.85 -5.89,14.53 0,9.45 1.95,14.18 5.85,14.18 3.89,0 5.84,-4.74 5.84,-14.22 0,-4.71 -0.49,-8.3 -1.48,-10.78 -0.99,-2.47 -2.43,-3.71 -4.32,-3.71"
     id="path4372" />
  <path
     class="Note"
     d="m 2690.221,636.64499 c 3.12,0 5.76,0.81 7.92,2.43 2.01,1.77 3.01,3.98 3.01,6.65 0,4.48 -2.3,8.68 -6.92,12.59 -4.69,3.91 -9.7,5.86 -15.04,5.86 -3.13,0 -5.77,-0.81 -7.91,-2.44 -2.02,-1.76 -3.03,-3.97 -3.03,-6.64 0,-4.49 2.34,-8.69 7.03,-12.59 4.56,-3.91 9.54,-5.86 14.94,-5.86"
     id="path4374" />
  <path
     class="Note"
     fill="#ffffff"
     fill-rule="evenodd"
     d="m 2581.551,831.655 h 28 v 37.5 h -28 v -37.5"
     id="path4376" />
  <path
     class="Note"
     fill="#ffffff"
     fill-rule="evenodd"
     d="m 2581.551,831.655 h 28 v 37.5 h -28 v -37.5"
     id="path4378" />
  <path
     class="Note"
     d="m 2602.681,861.215 c -1.86,2.88 -4.32,4.32 -7.38,4.32 -3.07,0 -5.53,-1.47 -7.39,-4.41 -1.85,-2.94 -2.78,-6.72 -2.78,-11.34 0,-4.35 0.93,-7.98 2.78,-10.91 1.86,-2.93 4.38,-4.39 7.56,-4.39 2.95,0 5.35,1.44 7.21,4.32 1.86,2.88 2.79,6.63 2.79,11.26 0,4.55 -0.93,8.27 -2.79,11.15 m -7.34,-25.56 c -3.92,0 -5.89,4.85 -5.89,14.53 0,9.45 1.95,14.18 5.85,14.18 3.89,0 5.84,-4.74 5.84,-14.22 0,-4.71 -0.49,-8.3 -1.48,-10.78 -0.99,-2.47 -2.43,-3.71 -4.32,-3.71"
     id="path4380" />
  <path
     class="Note"
     d="m 2598.771,636.64499 c 3.12,0 5.76,0.81 7.92,2.43 2.01,1.77 3.01,3.98 3.01,6.65 0,4.48 -2.3,8.68 -6.92,12.59 -4.69,3.91 -9.7,5.86 -15.05,5.86 -3.12,0 -5.76,-0.81 -7.9,-2.44 -2.02,-1.76 -3.03,-3.97 -3.03,-6.64 0,-4.49 2.34,-8.69 7.03,-12.59 4.56,-3.91 9.54,-5.86 14.94,-5.86"
     id="path4382" />
  <path
     class="Note"
     fill="#ffffff"
     fill-rule="evenodd"
     d="m 2490.101,831.655 h 28 v 37.5 h -28 v -37.5"
     id="path4384" />
  <path
     class="Note"
     fill="#ffffff"
     fill-rule="evenodd"
     d="m 2490.101,831.655 h 28 v 37.5 h -28 v -37.5"
     id="path4386" />
  <path
     class="Note"
     d="m 2511.231,861.215 c -1.86,2.88 -4.32,4.32 -7.38,4.32 -3.07,0 -5.53,-1.47 -7.39,-4.41 -1.86,-2.94 -2.79,-6.72 -2.79,-11.34 0,-4.35 0.93,-7.98 2.79,-10.91 1.86,-2.93 4.38,-4.39 7.56,-4.39 2.95,0 5.35,1.44 7.21,4.32 1.86,2.88 2.79,6.63 2.79,11.26 0,4.55 -0.93,8.27 -2.79,11.15 m -7.34,-25.56 c -3.92,0 -5.89,4.85 -5.89,14.53 0,9.45 1.95,14.18 5.85,14.18 3.89,0 5.84,-4.74 5.84,-14.22 0,-4.71 -0.49,-8.3 -1.48,-10.78 -0.99,-2.47 -2.43,-3.71 -4.32,-3.71"
     id="path4388" />
  <path
     class="Note"
     d="m 2507.321,636.64499 c 3.12,0 5.76,0.81 7.92,2.43 2.01,1.77 3.01,3.98 3.01,6.65 0,4.48 -2.3,8.68 -6.92,12.59 -4.69,3.91 -9.7,5.86 -15.05,5.86 -3.12,0 -5.76,-0.81 -7.9,-2.44 -2.02,-1.76 -3.03,-3.97 -3.03,-6.64 0,-4.49 2.34,-8.69 7.03,-12.59 4.56,-3.91 9.54,-5.86 14.94,-5.86"
     id="path4390" />
  <path
     class="Note"
     fill="#ffffff"
     fill-rule="evenodd"
     d="m 2398.651,831.655 h 28 v 37.5 h -28 v -37.5"
     id="path4392" />
  <path
     class="Note"
     fill="#ffffff"
     fill-rule="evenodd"
     d="m 2398.651,831.655 h 28 v 37.5 h -28 v -37.5"
     id="path4394" />
  <path
     class="Note"
     d="m 2419.781,861.215 c -1.86,2.88 -4.32,4.32 -7.38,4.32 -3.07,0 -5.53,-1.47 -7.39,-4.41 -1.86,-2.94 -2.79,-6.72 -2.79,-11.34 0,-4.35 0.93,-7.98 2.79,-10.91 1.86,-2.93 4.38,-4.39 7.56,-4.39 2.95,0 5.35,1.44 7.21,4.32 1.86,2.88 2.79,6.63 2.79,11.26 0,4.55 -0.93,8.27 -2.79,11.15 m -7.34,-25.56 c -3.92,0 -5.89,4.85 -5.89,14.53 0,9.45 1.95,14.18 5.85,14.18 3.89,0 5.84,-4.74 5.84,-14.22 0,-4.71 -0.49,-8.3 -1.48,-10.78 -0.99,-2.47 -2.43,-3.71 -4.32,-3.71"
     id="path4396" />
  <path
     class="Note"
     d="m 2415.871,636.64499 c 3.12,0 5.76,0.81 7.92,2.43 2.01,1.77 3.01,3.98 3.01,6.65 0,4.48 -2.3,8.68 -6.92,12.59 -4.69,3.91 -9.7,5.86 -15.05,5.86 -3.12,0 -5.76,-0.81 -7.9,-2.44 -2.02,-1.76 -3.03,-3.97 -3.03,-6.64 0,-4.49 2.34,-8.69 7.03,-12.59 4.56,-3.91 9.54,-5.86 14.94,-5.86"
     id="path4398" />
  <path
     class="Note"
     fill="#ffffff"
     fill-rule="evenodd"
     d="m 2307.201,831.655 h 28 v 37.5 h -28 v -37.5"
     id="path4400" />
  <path
     class="Note"
     fill="#ffffff"
     fill-rule="evenodd"
     d="m 2307.201,831.655 h 28 v 37.5 h -28 v -37.5"
     id="path4402" />
  <path
     class="Note"
     d="m 2328.331,861.215 c -1.86,2.88 -4.32,4.32 -7.38,4.32 -3.07,0 -5.53,-1.47 -7.39,-4.41 -1.86,-2.94 -2.79,-6.72 -2.79,-11.34 0,-4.35 0.93,-7.98 2.79,-10.91 1.86,-2.93 4.38,-4.39 7.56,-4.39 2.95,0 5.35,1.44 7.21,4.32 1.86,2.88 2.79,6.63 2.79,11.26 0,4.55 -0.93,8.27 -2.79,11.15 m -7.34,-25.56 c -3.92,0 -5.89,4.85 -5.89,14.53 0,9.45 1.95,14.18 5.85,14.18 3.89,0 5.84,-4.74 5.84,-14.22 0,-4.71 -0.5,-8.3 -1.48,-10.78 -0.99,-2.47 -2.43,-3.71 -4.32,-3.71"
     id="path4404" />
  <path
     class="Note"
     d="m 2324.411,636.64499 c 3.13,0 5.77,0.81 7.93,2.43 2.01,1.77 3.01,3.98 3.01,6.65 0,4.48 -2.31,8.68 -6.92,12.59 -4.69,3.91 -9.7,5.86 -15.05,5.86 -3.12,0 -5.76,-0.81 -7.9,-2.44 -2.02,-1.76 -3.03,-3.97 -3.03,-6.64 0,-4.49 2.34,-8.69 7.03,-12.59 4.56,-3.91 9.54,-5.86 14.93,-5.86"
     id="path4406" />
  <path
     class="Note"
     fill="#ffffff"
     fill-rule="evenodd"
     d="m 2215.751,831.655 h 28 v 37.5 h -28 v -37.5"
     id="path4408" />
  <path
     class="Note"
     fill="#ffffff"
     fill-rule="evenodd"
     d="m 2215.751,831.655 h 28 v 37.5 h -28 v -37.5"
     id="path4410" />
  <path
     class="Note"
     d="m 2236.881,861.215 c -1.86,2.88 -4.32,4.32 -7.38,4.32 -3.07,0 -5.53,-1.47 -7.39,-4.41 -1.86,-2.94 -2.79,-6.72 -2.79,-11.34 0,-4.35 0.93,-7.98 2.79,-10.91 1.86,-2.93 4.38,-4.39 7.56,-4.39 2.95,0 5.35,1.44 7.21,4.32 1.86,2.88 2.79,6.63 2.79,11.26 0,4.55 -0.93,8.27 -2.79,11.15 m -7.34,-25.56 c -3.92,0 -5.89,4.85 -5.89,14.53 0,9.45 1.95,14.18 5.85,14.18 3.89,0 5.84,-4.74 5.84,-14.22 0,-4.71 -0.5,-8.3 -1.49,-10.78 -0.98,-2.47 -2.42,-3.71 -4.31,-3.71"
     id="path4412" />
  <path
     class="Note"
     d="m 2232.961,636.64499 c 3.13,0 5.77,0.81 7.93,2.43 2.01,1.77 3.01,3.98 3.01,6.65 0,4.48 -2.31,8.68 -6.92,12.59 -4.69,3.91 -9.7,5.86 -15.05,5.86 -3.12,0 -5.76,-0.81 -7.9,-2.44 -2.02,-1.76 -3.03,-3.97 -3.03,-6.64 0,-4.49 2.34,-8.69 7.03,-12.59 4.56,-3.91 9.54,-5.86 14.93,-5.86"
     id="path4414" />
  <path
     class="Note"
     fill="#ffffff"
     fill-rule="evenodd"
     d="m 2124.291,831.655 h 28.01 v 37.5 h -28.01 v -37.5"
     id="path4416" />
  <path
     class="Note"
     fill="#ffffff"
     fill-rule="evenodd"
     d="m 2124.291,831.655 h 28.01 v 37.5 h -28.01 v -37.5"
     id="path4418" />
  <path
     class="Note"
     d="m 2145.431,861.215 c -1.86,2.88 -4.32,4.32 -7.39,4.32 -3.06,0 -5.52,-1.47 -7.38,-4.41 -1.86,-2.94 -2.79,-6.72 -2.79,-11.34 0,-4.35 0.93,-7.98 2.79,-10.91 1.86,-2.93 4.38,-4.39 7.56,-4.39 2.94,0 5.35,1.44 7.21,4.32 1.86,2.88 2.79,6.63 2.79,11.26 0,4.55 -0.93,8.27 -2.79,11.15 m -7.34,-25.56 c -3.93,0 -5.89,4.85 -5.89,14.53 0,9.45 1.95,14.18 5.84,14.18 3.9,0 5.85,-4.74 5.85,-14.22 0,-4.71 -0.5,-8.3 -1.49,-10.78 -0.99,-2.47 -2.42,-3.71 -4.31,-3.71"
     id="path4420" />
  <path
     class="Note"
     d="m 2141.511,636.64499 c 3.13,0 5.77,0.81 7.93,2.43 2.01,1.77 3.01,3.98 3.01,6.65 0,4.48 -2.31,8.68 -6.92,12.59 -4.69,3.91 -9.7,5.86 -15.05,5.86 -3.12,0 -5.76,-0.81 -7.9,-2.44 -2.02,-1.76 -3.04,-3.97 -3.04,-6.64 0,-4.49 2.35,-8.69 7.04,-12.59 4.56,-3.91 9.54,-5.86 14.93,-5.86"
     id="path4422" />
  <path
     class="Note"
     fill="#ffffff"
     fill-rule="evenodd"
     d="m 2032.841,831.655 h 28 v 37.5 h -28 v -37.5"
     id="path4424" />
  <path
     class="Note"
     fill="#ffffff"
     fill-rule="evenodd"
     d="m 2032.841,831.655 h 28 v 37.5 h -28 v -37.5"
     id="path4426" />
  <path
     class="Note"
     d="m 2053.981,861.215 c -1.86,2.88 -4.32,4.32 -7.39,4.32 -3.06,0 -5.52,-1.47 -7.38,-4.41 -1.86,-2.94 -2.79,-6.72 -2.79,-11.34 0,-4.35 0.93,-7.98 2.79,-10.91 1.86,-2.93 4.38,-4.39 7.56,-4.39 2.94,0 5.35,1.44 7.21,4.32 1.86,2.88 2.79,6.63 2.79,11.26 0,4.55 -0.93,8.27 -2.79,11.15 m -7.34,-25.56 c -3.93,0 -5.89,4.85 -5.89,14.53 0,9.45 1.95,14.18 5.84,14.18 3.9,0 5.85,-4.74 5.85,-14.22 0,-4.71 -0.5,-8.3 -1.49,-10.78 -0.99,-2.47 -2.42,-3.71 -4.31,-3.71"
     id="path4428" />
  <path
     class="Note"
     d="m 2050.061,636.64499 c 3.13,0 5.77,0.81 7.93,2.43 2.01,1.77 3.01,3.98 3.01,6.65 0,4.48 -2.31,8.68 -6.92,12.59 -4.69,3.91 -9.7,5.86 -15.05,5.86 -3.12,0 -5.76,-0.81 -7.9,-2.44 -2.03,-1.76 -3.04,-3.97 -3.04,-6.64 0,-4.49 2.35,-8.69 7.04,-12.59 4.56,-3.91 9.54,-5.86 14.93,-5.86"
     id="path4430" />
  <path
     class="Note"
     fill="#ffffff"
     fill-rule="evenodd"
     d="m 1871.151,831.655 h 28 v 37.5 h -28 v -37.5"
     id="path4432" />
  <path
     class="Note"
     fill="#ffffff"
     fill-rule="evenodd"
     d="m 1871.151,831.655 h 28 v 37.5 h -28 v -37.5"
     id="path4434" />
  <path
     class="Note"
     d="m 1892.281,861.215 c -1.86,2.88 -4.32,4.32 -7.38,4.32 -3.06,0 -5.52,-1.47 -7.38,-4.41 -1.86,-2.94 -2.79,-6.72 -2.79,-11.34 0,-4.35 0.93,-7.98 2.79,-10.91 1.86,-2.93 4.38,-4.39 7.55,-4.39 2.95,0 5.35,1.44 7.21,4.32 1.86,2.88 2.79,6.63 2.79,11.26 0,4.55 -0.93,8.27 -2.79,11.15 m -7.33,-25.56 c -3.93,0 -5.89,4.85 -5.89,14.53 0,9.45 1.94,14.18 5.84,14.18 3.9,0 5.84,-4.74 5.84,-14.22 0,-4.71 -0.49,-8.3 -1.48,-10.78 -0.99,-2.47 -2.43,-3.71 -4.31,-3.71"
     id="path4436" />
  <path
     class="Note"
     d="m 1888.371,636.64499 c 3.12,0 5.76,0.81 7.92,2.43 2.01,1.77 3.02,3.98 3.02,6.65 0,4.48 -2.31,8.68 -6.93,12.59 -4.68,3.91 -9.7,5.86 -15.04,5.86 -3.13,0 -5.76,-0.81 -7.91,-2.44 -2.02,-1.76 -3.03,-3.97 -3.03,-6.64 0,-4.49 2.34,-8.69 7.03,-12.59 4.56,-3.91 9.54,-5.86 14.94,-5.86"
     id="path4438" />
  <path
     class="Note"
     fill="#ffffff"
     fill-rule="evenodd"
     d="m 1740.751,831.655 h 28 v 37.5 h -28 v -37.5"
     id="path4440" />
  <path
     class="Note"
     fill="#ffffff"
     fill-rule="evenodd"
     d="m 1740.751,831.655 h 28 v 37.5 h -28 v -37.5"
     id="path4442" />
  <path
     class="Note"
     d="m 1761.881,861.215 c -1.86,2.88 -4.32,4.32 -7.38,4.32 -3.06,0 -5.52,-1.47 -7.38,-4.41 -1.86,-2.94 -2.79,-6.72 -2.79,-11.34 0,-4.35 0.93,-7.98 2.79,-10.91 1.86,-2.93 4.37,-4.39 7.55,-4.39 2.95,0 5.35,1.44 7.21,4.32 1.86,2.88 2.79,6.63 2.79,11.26 0,4.55 -0.93,8.27 -2.79,11.15 m -7.33,-25.56 c -3.93,0 -5.89,4.85 -5.89,14.53 0,9.45 1.94,14.18 5.84,14.18 3.9,0 5.84,-4.74 5.84,-14.22 0,-4.71 -0.49,-8.3 -1.48,-10.78 -0.99,-2.47 -2.43,-3.71 -4.31,-3.71"
     id="path4444" />
  <path
     class="Note"
     d="m 1757.971,636.64499 c 3.12,0 5.76,0.81 7.92,2.43 2.01,1.77 3.02,3.98 3.02,6.65 0,4.48 -2.31,8.68 -6.93,12.59 -4.68,3.91 -9.7,5.86 -15.04,5.86 -3.13,0 -5.76,-0.81 -7.91,-2.44 -2.02,-1.76 -3.03,-3.97 -3.03,-6.64 0,-4.49 2.34,-8.69 7.03,-12.59 4.56,-3.91 9.54,-5.86 14.94,-5.86"
     id="path4446" />
  <path
     class="Note"
     fill="#ffffff"
     fill-rule="evenodd"
     d="m 1610.351,831.655 h 28 v 37.5 h -28 v -37.5"
     id="path4448" />
  <path
     class="Note"
     fill="#ffffff"
     fill-rule="evenodd"
     d="m 1610.351,831.655 h 28 v 37.5 h -28 v -37.5"
     id="path4450" />
  <path
     class="Note"
     d="m 1631.481,861.215 c -1.86,2.88 -4.32,4.32 -7.38,4.32 -3.06,0 -5.52,-1.47 -7.38,-4.41 -1.86,-2.94 -2.79,-6.72 -2.79,-11.34 0,-4.35 0.93,-7.98 2.79,-10.91 1.86,-2.93 4.37,-4.39 7.55,-4.39 2.95,0 5.35,1.44 7.21,4.32 1.86,2.88 2.79,6.63 2.79,11.26 0,4.55 -0.93,8.27 -2.79,11.15 m -7.33,-25.56 c -3.93,0 -5.89,4.85 -5.89,14.53 0,9.45 1.94,14.18 5.84,14.18 3.89,0 5.84,-4.74 5.84,-14.22 0,-4.71 -0.49,-8.3 -1.48,-10.78 -0.99,-2.47 -2.43,-3.71 -4.31,-3.71"
     id="path4452" />
  <path
     class="Note"
     d="m 1627.571,636.64499 c 3.12,0 5.76,0.81 7.92,2.43 2.01,1.77 3.02,3.98 3.02,6.65 0,4.48 -2.31,8.68 -6.93,12.59 -4.68,3.91 -9.7,5.86 -15.04,5.86 -3.13,0 -5.76,-0.81 -7.91,-2.44 -2.02,-1.76 -3.03,-3.97 -3.03,-6.64 0,-4.49 2.34,-8.69 7.03,-12.59 4.56,-3.91 9.54,-5.86 14.94,-5.86"
     id="path4454" />
  <path
     class="Note"
     fill="#ffffff"
     fill-rule="evenodd"
     d="m 1479.951,831.655 h 28 v 37.5 h -28 v -37.5"
     id="path4456" />
  <path
     class="Note"
     fill="#ffffff"
     fill-rule="evenodd"
     d="m 1479.951,831.655 h 28 v 37.5 h -28 v -37.5"
     id="path4458" />
  <path
     class="Note"
     d="m 1501.081,861.215 c -1.86,2.88 -4.32,4.32 -7.38,4.32 -3.06,0 -5.53,-1.47 -7.38,-4.41 -1.86,-2.94 -2.79,-6.72 -2.79,-11.34 0,-4.35 0.93,-7.98 2.79,-10.91 1.85,-2.93 4.37,-4.39 7.55,-4.39 2.95,0 5.35,1.44 7.21,4.32 1.86,2.88 2.79,6.63 2.79,11.26 0,4.55 -0.93,8.27 -2.79,11.15 m -7.34,-25.56 c -3.92,0 -5.89,4.85 -5.89,14.53 0,9.45 1.95,14.18 5.85,14.18 3.89,0 5.84,-4.74 5.84,-14.22 0,-4.71 -0.49,-8.3 -1.48,-10.78 -0.99,-2.47 -2.43,-3.71 -4.32,-3.71"
     id="path4460" />
  <path
     class="Note"
     d="m 1497.171,636.64499 c 3.12,0 5.76,0.81 7.92,2.43 2.01,1.77 3.01,3.98 3.01,6.65 0,4.48 -2.3,8.68 -6.92,12.59 -4.69,3.91 -9.7,5.86 -15.04,5.86 -3.13,0 -5.77,-0.81 -7.91,-2.44 -2.02,-1.76 -3.03,-3.97 -3.03,-6.64 0,-4.49 2.34,-8.69 7.03,-12.59 4.56,-3.91 9.54,-5.86 14.94,-5.86"
     id="path4462" />
  <path
     class="Note"
     fill="#ffffff"
     fill-rule="evenodd"
     d="m 1357.201,869.155 h 28 v 37.5 h -28 v -37.5"
     id="path4464" />
  <path
     class="Note"
     fill="#ffffff"
     fill-rule="evenodd"
     d="m 1357.201,869.155 h 28 v 37.5 h -28 v -37.5"
     id="path4466" />
  <path
     class="Note"
     d="m 1378.341,898.715 c -1.86,2.88 -4.32,4.32 -7.39,4.32 -3.06,0 -5.52,-1.47 -7.38,-4.41 -1.86,-2.94 -2.79,-6.72 -2.79,-11.34 0,-4.35 0.93,-7.98 2.79,-10.91 1.86,-2.93 4.38,-4.39 7.56,-4.39 2.94,0 5.35,1.44 7.21,4.32 1.86,2.88 2.79,6.63 2.79,11.26 0,4.55 -0.93,8.27 -2.79,11.15 m -7.34,-25.56 c -3.93,0 -5.89,4.85 -5.89,14.53 0,9.45 1.95,14.18 5.84,14.18 3.9,0 5.85,-4.74 5.85,-14.22 0,-4.71 -0.5,-8.3 -1.49,-10.78 -0.99,-2.47 -2.42,-3.71 -4.31,-3.71"
     id="path4468" />
  <path
     class="Note"
     d="m 1374.421,674.145 c 3.13,0 5.77,0.81 7.93,2.43 2.01,1.77 3.01,3.98 3.01,6.65 0,4.49 -2.31,8.68 -6.92,12.59 -4.69,3.91 -9.7,5.86 -15.05,5.86 -3.12,0 -5.76,-0.81 -7.9,-2.44 -2.03,-1.76 -3.04,-3.97 -3.04,-6.64 0,-4.49 2.35,-8.69 7.04,-12.59 4.56,-3.91 9.54,-5.86 14.93,-5.86"
     id="path4470" />
  <path
     class="Note"
     fill="#ffffff"
     fill-rule="evenodd"
     d="m 1265.751,869.155 h 28 v 37.5 h -28 v -37.5"
     id="path4472" />
  <path
     class="Note"
     fill="#ffffff"
     fill-rule="evenodd"
     d="m 1265.751,869.155 h 28 v 37.5 h -28 v -37.5"
     id="path4474" />
  <path
     class="Note"
     d="m 1286.891,898.715 c -1.86,2.88 -4.32,4.32 -7.39,4.32 -3.06,0 -5.52,-1.47 -7.38,-4.41 -1.86,-2.94 -2.79,-6.72 -2.79,-11.34 0,-4.35 0.93,-7.98 2.79,-10.91 1.86,-2.93 4.38,-4.39 7.56,-4.39 2.94,0 5.35,1.44 7.21,4.32 1.86,2.88 2.79,6.63 2.79,11.26 0,4.55 -0.93,8.27 -2.79,11.15 m -7.34,-25.56 c -3.93,0 -5.89,4.85 -5.89,14.53 0,9.45 1.95,14.18 5.84,14.18 3.9,0 5.85,-4.74 5.85,-14.22 0,-4.71 -0.5,-8.3 -1.49,-10.78 -0.99,-2.47 -2.42,-3.71 -4.31,-3.71"
     id="path4476" />
  <path
     class="Note"
     d="m 1282.971,674.145 c 3.13,0 5.77,0.81 7.92,2.43 2.02,1.77 3.02,3.98 3.02,6.65 0,4.49 -2.31,8.68 -6.92,12.59 -4.69,3.91 -9.7,5.86 -15.05,5.86 -3.12,0 -5.76,-0.81 -7.9,-2.44 -2.03,-1.76 -3.04,-3.97 -3.04,-6.64 0,-4.49 2.35,-8.69 7.04,-12.59 4.56,-3.91 9.54,-5.86 14.93,-5.86"
     id="path4478" />
  <path
     class="Note"
     fill="#ffffff"
     fill-rule="evenodd"
     d="m 1174.301,869.155 h 28 v 37.5 h -28 v -37.5"
     id="path4480" />
  <path
     class="Note"
     fill="#ffffff"
     fill-rule="evenodd"
     d="m 1174.301,869.155 h 28 v 37.5 h -28 v -37.5"
     id="path4482" />
  <path
     class="Note"
     d="m 1195.441,898.715 c -1.86,2.88 -4.32,4.32 -7.39,4.32 -3.06,0 -5.52,-1.47 -7.38,-4.41 -1.86,-2.94 -2.79,-6.72 -2.79,-11.34 0,-4.35 0.93,-7.98 2.79,-10.91 1.86,-2.93 4.38,-4.39 7.56,-4.39 2.94,0 5.35,1.44 7.21,4.32 1.86,2.88 2.79,6.63 2.79,11.26 0,4.55 -0.93,8.27 -2.79,11.15 m -7.34,-25.56 c -3.93,0 -5.89,4.85 -5.89,14.53 0,9.45 1.95,14.18 5.84,14.18 3.9,0 5.85,-4.74 5.85,-14.22 0,-4.71 -0.5,-8.3 -1.49,-10.78 -0.99,-2.47 -2.42,-3.71 -4.31,-3.71"
     id="path4484" />
  <path
     class="Note"
     d="m 1191.521,674.145 c 3.13,0 5.77,0.81 7.92,2.43 2.01,1.77 3.02,3.98 3.02,6.65 0,4.49 -2.31,8.68 -6.92,12.59 -4.69,3.91 -9.71,5.86 -15.05,5.86 -3.12,0 -5.76,-0.81 -7.91,-2.44 -2.02,-1.76 -3.03,-3.97 -3.03,-6.64 0,-4.49 2.35,-8.69 7.03,-12.59 4.57,-3.91 9.55,-5.86 14.94,-5.86"
     id="path4486" />
  <path
     class="Note"
     fill="#ffffff"
     fill-rule="evenodd"
     d="m 1082.851,869.155 h 28 v 37.5 h -28 v -37.5"
     id="path4488" />
  <path
     class="Note"
     fill="#ffffff"
     fill-rule="evenodd"
     d="m 1082.851,869.155 h 28 v 37.5 h -28 v -37.5"
     id="path4490" />
  <path
     class="Note"
     d="m 1103.991,898.715 c -1.86,2.88 -4.32,4.32 -7.39,4.32 -3.06,0 -5.52,-1.47 -7.38,-4.41 -1.86,-2.94 -2.79,-6.72 -2.79,-11.34 0,-4.35 0.93,-7.98 2.79,-10.91 1.86,-2.93 4.38,-4.39 7.55,-4.39 2.95,0 5.36,1.44 7.22,4.32 1.86,2.88 2.78,6.63 2.78,11.26 0,4.55 -0.92,8.27 -2.78,11.15 m -7.34,-25.56 c -3.93,0 -5.89,4.85 -5.89,14.53 0,9.45 1.95,14.18 5.84,14.18 3.9,0 5.85,-4.74 5.85,-14.22 0,-4.71 -0.5,-8.3 -1.49,-10.78 -0.99,-2.47 -2.42,-3.71 -4.31,-3.71"
     id="path4492" />
  <path
     class="Note"
     d="m 1100.071,674.145 c 3.13,0 5.77,0.81 7.92,2.43 2.01,1.77 3.02,3.98 3.02,6.65 0,4.49 -2.31,8.68 -6.92,12.59 -4.69,3.91 -9.71,5.86 -15.05,5.86 -3.12,0 -5.76,-0.81 -7.91,-2.44 -2.02,-1.76 -3.03,-3.97 -3.03,-6.64 0,-4.49 2.35,-8.69 7.03,-12.59 4.57,-3.91 9.55,-5.86 14.94,-5.86"
     id="path4494" />
  <path
     class="Note"
     fill="#ffffff"
     fill-rule="evenodd"
     d="m 991.401,869.155 h 28 v 37.5 h -28 v -37.5"
     id="path4496" />
  <path
     class="Note"
     fill="#ffffff"
     fill-rule="evenodd"
     d="m 991.401,869.155 h 28 v 37.5 h -28 v -37.5"
     id="path4498" />
  <path
     class="Note"
     d="m 1012.541,898.715 c -1.86,2.88 -4.32,4.32 -7.39,4.32 -3.06,0 -5.52,-1.47 -7.38,-4.41 -1.86,-2.94 -2.79,-6.72 -2.79,-11.34 0,-4.35 0.93,-7.98 2.79,-10.91 1.86,-2.93 4.38,-4.39 7.55,-4.39 2.95,0 5.36,1.44 7.22,4.32 1.85,2.88 2.78,6.63 2.78,11.26 0,4.55 -0.93,8.27 -2.78,11.15 m -7.34,-25.56 c -3.93,0 -5.89,4.85 -5.89,14.53 0,9.45 1.95,14.18 5.84,14.18 3.9,0 5.85,-4.74 5.85,-14.22 0,-4.71 -0.5,-8.3 -1.49,-10.78 -0.99,-2.47 -2.43,-3.71 -4.31,-3.71"
     id="path4500" />
  <path
     class="Note"
     d="m 1008.621,674.145 c 3.13,0 5.77,0.81 7.92,2.43 2.01,1.77 3.02,3.98 3.02,6.65 0,4.49 -2.31,8.68 -6.92,12.59 -4.69,3.91 -9.71,5.86 -15.05,5.86 -3.12,0 -5.76,-0.81 -7.91,-2.44 -2.02,-1.76 -3.03,-3.97 -3.03,-6.64 0,-4.49 2.35,-8.69 7.03,-12.59 4.57,-3.91 9.55,-5.86 14.94,-5.86"
     id="path4502" />
  <path
     class="Note"
     fill="#ffffff"
     fill-rule="evenodd"
     d="m 899.951,869.155 h 28 v 37.5 h -28 v -37.5"
     id="path4504" />
  <path
     class="Note"
     fill="#ffffff"
     fill-rule="evenodd"
     d="m 899.951,869.155 h 28 v 37.5 h -28 v -37.5"
     id="path4506" />
  <path
     class="Note"
     d="m 921.081,898.715 c -1.85,2.88 -4.32,4.32 -7.38,4.32 -3.06,0 -5.52,-1.47 -7.38,-4.41 -1.86,-2.94 -2.79,-6.72 -2.79,-11.34 0,-4.35 0.93,-7.98 2.79,-10.91 1.86,-2.93 4.38,-4.39 7.55,-4.39 2.95,0 5.36,1.44 7.21,4.32 1.86,2.88 2.79,6.63 2.79,11.26 0,4.55 -0.93,8.27 -2.79,11.15 m -7.33,-25.56 c -3.93,0 -5.89,4.85 -5.89,14.53 0,9.45 1.95,14.18 5.84,14.18 3.9,0 5.85,-4.74 5.85,-14.22 0,-4.71 -0.5,-8.3 -1.49,-10.78 -0.99,-2.47 -2.43,-3.71 -4.31,-3.71"
     id="path4508" />
  <path
     class="Note"
     d="m 917.171,674.145 c 3.13,0 5.77,0.81 7.92,2.43 2.01,1.77 3.02,3.98 3.02,6.65 0,4.49 -2.31,8.68 -6.92,12.59 -4.69,3.91 -9.71,5.86 -15.05,5.86 -3.13,0 -5.76,-0.81 -7.91,-2.44 -2.02,-1.76 -3.03,-3.97 -3.03,-6.64 0,-4.49 2.35,-8.69 7.03,-12.59 4.57,-3.91 9.55,-5.86 14.94,-5.86"
     id="path4510" />
  <path
     class="Note"
     fill="#ffffff"
     fill-rule="evenodd"
     d="m 808.503,869.155 h 28 v 37.5 h -28 v -37.5"
     id="path4512" />
  <path
     class="Note"
     fill="#ffffff"
     fill-rule="evenodd"
     d="m 808.503,869.155 h 28 v 37.5 h -28 v -37.5"
     id="path4514" />
  <path
     class="Note"
     d="m 829.635,898.715 c -1.859,2.88 -4.32,4.32 -7.382,4.32 -3.063,0 -5.524,-1.47 -7.383,-4.41 -1.86,-2.94 -2.789,-6.72 -2.789,-11.34 0,-4.35 0.929,-7.98 2.789,-10.91 1.859,-2.93 4.377,-4.39 7.555,-4.39 2.947,0 5.351,1.44 7.21,4.32 1.86,2.88 2.79,6.63 2.79,11.26 0,4.55 -0.93,8.27 -2.79,11.15 m -7.335,-25.56 c -3.928,0 -5.891,4.85 -5.891,14.53 0,9.45 1.948,14.18 5.844,14.18 3.895,0 5.843,-4.74 5.843,-14.22 0,-4.71 -0.494,-8.3 -1.484,-10.78 -0.99,-2.47 -2.427,-3.71 -4.312,-3.71"
     id="path4516" />
  <path
     class="Note"
     d="m 825.721,674.145 c 3.125,0 5.766,0.81 7.922,2.43 2.011,1.77 3.016,3.98 3.016,6.65 0,4.49 -2.307,8.68 -6.922,12.59 -4.687,3.91 -9.703,5.86 -15.047,5.86 -3.125,0 -5.76,-0.81 -7.906,-2.44 -2.021,-1.76 -3.031,-3.97 -3.031,-6.64 0,-4.49 2.343,-8.69 7.031,-12.59 4.562,-3.91 9.542,-5.86 14.937,-5.86"
     id="path4518" />
  <path
     class="Note"
     fill="#ffffff"
     fill-rule="evenodd"
     d="m 717.052,869.155 h 28 v 37.5 h -28 v -37.5"
     id="path4520" />
  <path
     class="Note"
     fill="#ffffff"
     fill-rule="evenodd"
     d="m 717.052,869.155 h 28 v 37.5 h -28 v -37.5"
     id="path4522" />
  <path
     class="Note"
     d="m 738.185,898.715 c -1.859,2.88 -4.32,4.32 -7.383,4.32 -3.062,0 -5.523,-1.47 -7.383,-4.41 -1.859,-2.94 -2.789,-6.72 -2.789,-11.34 0,-4.35 0.93,-7.98 2.789,-10.91 1.86,-2.93 4.378,-4.39 7.555,-4.39 2.948,0 5.352,1.44 7.211,4.32 1.859,2.88 2.789,6.63 2.789,11.26 0,4.55 -0.93,8.27 -2.789,11.15 m -7.336,-25.56 c -3.927,0 -5.891,4.85 -5.891,14.53 0,9.45 1.948,14.18 5.844,14.18 3.896,0 5.844,-4.74 5.844,-14.22 0,-4.71 -0.495,-8.3 -1.484,-10.78 -0.99,-2.47 -2.428,-3.71 -4.313,-3.71"
     id="path4524" />
  <path
     class="Note"
     d="m 734.271,674.145 c 3.125,0 5.766,0.81 7.922,2.43 2.01,1.77 3.015,3.98 3.015,6.65 0,4.49 -2.307,8.68 -6.921,12.59 -4.688,3.91 -9.704,5.86 -15.047,5.86 -3.125,0 -5.761,-0.81 -7.907,-2.44 -2.02,-1.76 -3.031,-3.97 -3.031,-6.64 0,-4.49 2.344,-8.69 7.031,-12.59 4.563,-3.91 9.542,-5.86 14.938,-5.86"
     id="path4526" />
  <path
     class="Note"
     fill="#ffffff"
     fill-rule="evenodd"
     d="m 555.358,869.155 h 28 v 37.5 h -28 v -37.5"
     id="path4528" />
  <path
     class="Note"
     fill="#ffffff"
     fill-rule="evenodd"
     d="m 555.358,869.155 h 28 v 37.5 h -28 v -37.5"
     id="path4530" />
  <path
     class="Note"
     d="m 576.491,898.715 c -1.859,2.88 -4.32,4.32 -7.383,4.32 -3.062,0 -5.523,-1.47 -7.383,-4.41 -1.859,-2.94 -2.789,-6.72 -2.789,-11.34 0,-4.35 0.93,-7.98 2.789,-10.91 1.86,-2.93 4.378,-4.39 7.555,-4.39 2.948,0 5.352,1.44 7.211,4.32 1.859,2.88 2.789,6.63 2.789,11.26 0,4.55 -0.93,8.27 -2.789,11.15 m -7.336,-25.56 c -3.927,0 -5.89,4.85 -5.89,14.53 0,9.45 1.947,14.18 5.843,14.18 3.896,0 5.844,-4.74 5.844,-14.22 0,-4.71 -0.495,-8.3 -1.484,-10.78 -0.99,-2.47 -2.427,-3.71 -4.313,-3.71"
     id="path4532" />
  <path
     class="Note"
     d="m 572.577,674.145 c 3.125,0 5.766,0.81 7.922,2.43 2.01,1.77 3.016,3.98 3.016,6.65 0,4.49 -2.308,8.68 -6.922,12.59 -4.688,3.91 -9.703,5.86 -15.047,5.86 -3.125,0 -5.761,-0.81 -7.906,-2.44 -2.021,-1.76 -3.032,-3.97 -3.032,-6.64 0,-4.49 2.344,-8.69 7.032,-12.59 4.562,-3.91 9.541,-5.86 14.937,-5.86"
     id="path4534" />
  <path
     class="Note"
     fill="#ffffff"
     fill-rule="evenodd"
     d="m 424.957,869.155 h 28 v 37.5 h -28 v -37.5"
     id="path4536" />
  <path
     class="Note"
     fill="#ffffff"
     fill-rule="evenodd"
     d="m 424.957,869.155 h 28 v 37.5 h -28 v -37.5"
     id="path4538" />
  <path
     class="Note"
     d="m 446.09,898.715 c -1.859,2.88 -4.32,4.32 -7.383,4.32 -3.062,0 -5.523,-1.47 -7.382,-4.41 -1.86,-2.94 -2.789,-6.72 -2.789,-11.34 0,-4.35 0.929,-7.98 2.789,-10.91 1.859,-2.93 4.377,-4.39 7.554,-4.39 2.948,0 5.352,1.44 7.211,4.32 1.86,2.88 2.789,6.63 2.789,11.26 0,4.55 -0.929,8.27 -2.789,11.15 m -7.336,-25.56 c -3.927,0 -5.89,4.85 -5.89,14.53 0,9.45 1.948,14.18 5.843,14.18 3.896,0 5.844,-4.74 5.844,-14.22 0,-4.71 -0.495,-8.3 -1.484,-10.78 -0.99,-2.47 -2.427,-3.71 -4.313,-3.71"
     id="path4540" />
  <path
     class="Note"
     d="m 442.176,674.145 c 3.125,0 5.766,0.81 7.922,2.43 2.01,1.77 3.016,3.98 3.016,6.65 0,4.49 -2.308,8.68 -6.922,12.59 -4.688,3.91 -9.703,5.86 -15.047,5.86 -3.125,0 -5.761,-0.81 -7.906,-2.44 -2.021,-1.76 -3.032,-3.97 -3.032,-6.64 0,-4.49 2.344,-8.69 7.032,-12.59 4.562,-3.91 9.541,-5.86 14.937,-5.86"
     id="path4542" />
  <path
     class="Note"
     fill="#ffffff"
     fill-rule="evenodd"
     d="m 294.556,869.155 h 28 v 37.5 h -28 v -37.5"
     id="path4544" />
  <path
     class="Note"
     fill="#ffffff"
     fill-rule="evenodd"
     d="m 294.556,869.155 h 28 v 37.5 h -28 v -37.5"
     id="path4546" />
  <path
     class="Note"
     d="m 315.689,898.715 c -1.859,2.88 -4.32,4.32 -7.383,4.32 -3.062,0 -5.523,-1.47 -7.382,-4.41 -1.86,-2.94 -2.789,-6.72 -2.789,-11.34 0,-4.35 0.929,-7.98 2.789,-10.91 1.859,-2.93 4.377,-4.39 7.554,-4.39 2.948,0 5.352,1.44 7.211,4.32 1.86,2.88 2.789,6.63 2.789,11.26 0,4.55 -0.929,8.27 -2.789,11.15 m -7.336,-25.56 c -3.927,0 -5.89,4.85 -5.89,14.53 0,9.45 1.948,14.18 5.843,14.18 3.896,0 5.844,-4.74 5.844,-14.22 0,-4.71 -0.495,-8.3 -1.484,-10.78 -0.99,-2.47 -2.427,-3.71 -4.313,-3.71"
     id="path4548" />
  <path
     class="Note"
     d="m 311.775,674.145 c 3.125,0 5.766,0.81 7.922,2.43 2.011,1.77 3.016,3.98 3.016,6.65 0,4.49 -2.308,8.68 -6.922,12.59 -4.688,3.91 -9.703,5.86 -15.047,5.86 -3.125,0 -5.76,-0.81 -7.906,-2.44 -2.021,-1.76 -3.032,-3.97 -3.032,-6.64 0,-4.49 2.344,-8.69 7.032,-12.59 4.562,-3.91 9.541,-5.86 14.937,-5.86"
     id="path4550" />
  <path
     class="Note"
     fill="#ffffff"
     fill-rule="evenodd"
     d="m 164.156,869.155 h 28 v 37.5 h -28 v -37.5"
     id="path4552" />
  <path
     class="Note"
     fill="#ffffff"
     fill-rule="evenodd"
     d="m 164.156,869.155 h 28 v 37.5 h -28 v -37.5"
     id="path4554" />
  <path
     class="Note"
     d="m 185.288,898.715 c -1.859,2.88 -4.32,4.32 -7.382,4.32 -3.063,0 -5.524,-1.47 -7.383,-4.41 -1.86,-2.94 -2.789,-6.72 -2.789,-11.34 0,-4.35 0.929,-7.98 2.789,-10.91 1.859,-2.93 4.377,-4.39 7.554,-4.39 2.948,0 5.352,1.44 7.211,4.32 1.86,2.88 2.789,6.63 2.789,11.26 0,4.55 -0.929,8.27 -2.789,11.15 m -7.336,-25.56 c -3.927,0 -5.89,4.85 -5.89,14.53 0,9.45 1.948,14.18 5.844,14.18 3.895,0 5.843,-4.74 5.843,-14.22 0,-4.71 -0.494,-8.3 -1.484,-10.78 -0.99,-2.47 -2.427,-3.71 -4.313,-3.71"
     id="path4556" />
  <path
     class="Note"
     d="m 181.374,674.145 c 3.125,0 5.766,0.81 7.922,2.43 2.011,1.77 3.016,3.98 3.016,6.65 0,4.49 -2.307,8.68 -6.922,12.59 -4.688,3.91 -9.703,5.86 -15.047,5.86 -3.125,0 -5.76,-0.81 -7.906,-2.44 -2.021,-1.76 -3.031,-3.97 -3.031,-6.64 0,-4.49 2.343,-8.69 7.031,-12.59 4.562,-3.91 9.541,-5.86 14.937,-5.86"
     id="path4558" />
  <path
     class="Clef"
     d="m 59.765,859.755 v -3.5 H 35.062 v 3.5 h 10.406 v 28 h 4 v -28 h 10.297 m 1.406,62.9 -11,-31.5 h -5.203 l -11.297,31.5 h 4.297 l 3.297,-9.5 h 12.203 l 3.203,9.5 h 4.5 m -8.797,-12.79 H 42.265 l 5.203,-14.41 4.906,14.41 m 6.797,38.59 c 0,-3.8 -1.703,-6.09 -5.703,-7.59 2.797,-1.41 4.297,-3.71 4.297,-6.91 0,-4.59 -3.297,-8 -9.297,-8 H 35.671 v 31.5 h 14.203 c 5.688,0 9.297,-3.8 9.297,-9 m -5.406,-13.89 c 0,3.2 -1.797,5 -6.297,5 h -7.797 v -10.11 h 7.797 c 4.5,0 6.297,1.91 6.297,5.11 m 1.406,13.89 c 0,3.11 -1.797,5.41 -5.609,5.41 h -9.891 v -10.8 h 9.891 c 3.812,0 5.609,2.39 5.609,5.39"
     id="path4752" />
  <path
     class="Clef"
     d="m 70.687,637.31499 c 0,0 0.198,0 0.593,0 0.261,-0.06 0.485,-0.09 0.672,-0.09 7.292,0 13.282,2.57 17.969,7.71 4.688,5.08 7.031,11 7.031,17.77 0,8.41001 -3.479,15.24001 -10.437,20.52001 -1.823,1.43 -4.203,2.6 -7.141,3.51 0.334,4.23 0.5,7.65 0.5,10.25 0,0.52 -0.067,2.41 -0.203,5.67 -0.26,6.05 -2.344,11.29 -6.25,15.72 -3.771,4.37 -8.458,6.55 -14.062,6.55 -5.271,0 -9.761,-1.86 -13.469,-5.56 -3.719,-3.79 -5.578,-8.34 -5.578,-13.68 0,-2.8 1.078,-5.18 3.234,-7.14 2.208,-1.94 4.776,-2.92 7.703,-2.92 2.604,0 4.787,1.01 6.547,3.03 1.823,1.89 2.734,4.23 2.734,7.03 0,2.54 -0.911,4.71 -2.734,6.54 -1.823,1.82 -4.005,2.73 -6.547,2.73 -1.041,0 -2.047,-0.19 -3.015,-0.58 2.864,4.23 6.671,6.35 11.421,6.35 4.49,0 8.167,-1.83 11.032,-5.47 3,-3.77 4.63,-8.17 4.89,-13.19 0.125,-3.13 0.188,-4.91 0.188,-5.36 0,-3.65 -0.13,-6.64 -0.391,-8.98 -3.25,0.52 -6.146,0.78 -8.687,0.78 -9.052,0 -16.766,-3.59 -23.141,-10.75 -6.25,-7.23 -9.375,-15.83001 -9.375,-25.78001 0,-2.09 0.193,-4.2 0.578,-6.35 0.396,-1.76 0.886,-3.68 1.469,-5.76 0.323,-1.18 1.203,-3.07 2.641,-5.68 0.52,-0.78 1.106,-1.75 1.757,-2.93 0.651,-1.17 1.107,-1.95 1.368,-2.33 0.645,-1.3 1.911,-3.06 3.796,-5.28 0.521,-0.59 1.06,-1.23 1.618,-1.95 0.557,-0.71 1.031,-1.3 1.422,-1.76 0.39,-0.45 0.682,-0.81 0.875,-1.07 0.192,-0.26 1.658,-1.99 4.398,-5.18 0.646,-0.65 1.279,-1.35 1.898,-2.1 0.62,-0.74 1.125,-1.33 1.516,-1.76 0.391,-0.42 0.685,-0.73 0.883,-0.92 -2.344,-7.75 -3.813,-13.93 -4.406,-18.56 -0.448,-3.71 -0.672,-8.79 -0.672,-15.23 0,-5.67 1.302,-10.98 3.906,-15.93 2.531,-5.13 6.078,-9.33 10.641,-12.59 0.26,-0.2 0.583,-0.3 0.968,-0.3 0.459,0 0.787,0.1 0.985,0.3 3.51,4.23 6.536,9.73 9.078,16.5 2.604,6.77 3.906,12.93 3.906,18.47 0,6.25 -1.495,12.11 -4.484,17.58 -3.386,5.79 -7.75,11.78 -13.094,17.97 1.365,4.29 3.187,11.02 5.469,20.2 m 8.297,45.42001 c 3.385,-1.24 6.026,-3.35 7.921,-6.34 2.084,-2.87 3.125,-6.09 3.125,-9.67001 0,-4.63 -1.562,-8.73 -4.687,-12.32 -3.198,-3.71 -7.271,-5.79 -12.219,-6.25 2.802,13.74 4.755,25.27001 5.86,34.58001 M 41.202,660.17499 c 0,6.45 2.605,12.11001 7.813,17.00001 5.333,4.75 11.323,7.12 17.969,7.12 2.729,0 5.395,-0.19 8,-0.59 -1.042,-9.9 -3.094,-21.75001 -6.157,-35.55001 -3.708,0.4 -6.666,1.7 -8.875,3.91 -2.156,2.28 -3.234,4.85 -3.234,7.72 0,4.95 2.641,8.95001 7.922,12.01001 0.448,0.46 0.672,0.95 0.672,1.47 0,0.52 -0.224,1.01 -0.672,1.46 -0.396,0.45 -0.886,0.68 -1.469,0.68 -0.062,0 -0.354,-0.06 -0.875,-0.18 -3.719,-2.03 -6.583,-4.63 -8.594,-7.82001 -1.895,-3.39 -2.843,-6.81 -2.843,-10.26 0,-4.49 1.401,-8.56 4.203,-12.21 2.927,-3.64 6.734,-5.99 11.422,-7.03 -1.823,-7.29 -3.318,-12.99 -4.485,-17.09 -1.041,1.18 -2.294,2.59 -3.758,4.25 -1.463,1.66 -2.325,2.65 -2.586,2.98 -2.343,3.06 -4.135,5.43 -5.375,7.13 -2.218,3.06 -3.848,5.7 -4.89,7.9 -1.104,2.48 -2.078,5.19 -2.922,8.11 -0.844,2.81 -1.266,5.8 -1.266,8.99 m 32.61,-99.31 c -4.886,2.4 -8.724,5.85 -11.516,10.34 -2.864,4.62 -4.297,9.6 -4.297,14.94 0,4.68 1.172,11 3.516,18.95 4.687,-5.67 8.203,-10.91 10.547,-15.72 2.468,-5.08 3.703,-10.39 3.703,-15.92 0,-4.17 -0.651,-8.36 -1.953,-12.59"
     id="path4754" />
  <path
     class="Beam"
     fill-rule="evenodd"
     d="m 2423.561,575.40499 h 277.6 v 12.5 h -277.6 v -12.5"
     id="path4764" />
  <path
     class="Beam"
     fill-rule="evenodd"
     d="m 2057.761,575.40499 h 277.6 v 12.5 h -277.6 v -12.5"
     id="path4766" />
  <path
     class="Beam"
     fill-rule="evenodd"
     d="m 1107.771,606.65499 h 277.6 v 12.5 h -277.6 v -12.5"
     id="path4768" />
  <path
     class="Beam"
     fill-rule="evenodd"
     d="m 741.966,606.65499 h 277.605 v 12.5 H 741.966 v -12.5"
     id="path4770" />
</svg>
