<?xml version="1.0" encoding="UTF-8" standalone="no"?>
<svg
   xmlns:dc="http://purl.org/dc/elements/1.1/"
   xmlns:cc="http://creativecommons.org/ns#"
   xmlns:rdf="http://www.w3.org/1999/02/22-rdf-syntax-ns#"
   xmlns:svg="http://www.w3.org/2000/svg"
   xmlns="http://www.w3.org/2000/svg"
   xmlns:sodipodi="http://sodipodi.sourceforge.net/DTD/sodipodi-0.dtd"
   xmlns:inkscape="http://www.inkscape.org/namespaces/inkscape"
   inkscape:version="1.0 (4035a4fb49, 2020-05-01)"
   sodipodi:docname="exercise2.svg"
   id="svg2925"
   version="1.2"
   viewBox="0 0 2776.5381 417.60699"
   height="417.60699"
   width="2776.5381">
  <metadata
     id="metadata2931">
    <rdf:RDF>
      <cc:Work
         rdf:about="">
        <dc:format>image/svg+xml</dc:format>
        <dc:type
           rdf:resource="http://purl.org/dc/dcmitype/StillImage" />
        <dc:title>exercise-collection1 (1)</dc:title>
      </cc:Work>
    </rdf:RDF>
  </metadata>
  <defs
     id="defs2929" />
  <sodipodi:namedview
     inkscape:current-layer="svg2925"
     inkscape:window-maximized="1"
     inkscape:window-y="-8"
     inkscape:window-x="-8"
     inkscape:cy="1092.377"
     inkscape:cx="1388.268"
     inkscape:zoom="0.16919192"
     showgrid="false"
     id="namedview2927"
     inkscape:window-height="837"
     inkscape:window-width="1600"
     inkscape:pageshadow="2"
     inkscape:pageopacity="0"
     guidetolerance="10"
     gridtolerance="10"
     objecttolerance="10"
     borderopacity="1"
     bordercolor="#666666"
     pagecolor="#ffffff" />
  <title
     id="title2081">exercise-collection1 (1)</title>
  <desc
     id="desc2083">Generated by MuseScore 3.0.1</desc>
  <polyline
     transform="translate(-141.732,-887.623)"
     id="polyline2103"
     points="141.732,929.233 2918.27,929.233"
     stroke-linejoin="bevel"
     stroke-width="2"
     stroke="#000000"
     fill="none"
     class="StaffLines" />
  <polyline
     transform="translate(-141.732,-887.623)"
     id="polyline2105"
     points="141.732,954.233 2918.27,954.233"
     stroke-linejoin="bevel"
     stroke-width="2"
     stroke="#000000"
     fill="none"
     class="StaffLines" />
  <polyline
     transform="translate(-141.732,-887.623)"
     id="polyline2107"
     points="141.732,979.233 2918.27,979.233"
     stroke-linejoin="bevel"
     stroke-width="2"
     stroke="#000000"
     fill="none"
     class="StaffLines" />
  <polyline
     transform="translate(-141.732,-887.623)"
     id="polyline2109"
     points="141.732,1004.23 2918.27,1004.23"
     stroke-linejoin="bevel"
     stroke-width="2"
     stroke="#000000"
     fill="none"
     class="StaffLines" />
  <polyline
     transform="translate(-141.732,-887.623)"
     id="polyline2111"
     points="141.732,1029.23 2918.27,1029.23"
     stroke-linejoin="bevel"
     stroke-width="2"
     stroke="#000000"
     fill="none"
     class="StaffLines" />
  <polyline
     transform="translate(-141.732,-887.623)"
     id="polyline2113"
     points="141.732,1191.73 2918.27,1191.73"
     stroke-linejoin="bevel"
     stroke-width="2"
     stroke="#000000"
     fill="none"
     class="StaffLines" />
  <polyline
     transform="translate(-141.732,-887.623)"
     id="polyline2115"
     points="141.732,1229.23 2918.27,1229.23"
     stroke-linejoin="bevel"
     stroke-width="2"
     stroke="#000000"
     fill="none"
     class="StaffLines" />
  <polyline
     transform="translate(-141.732,-887.623)"
     id="polyline2117"
     points="141.732,1266.73 2918.27,1266.73"
     stroke-linejoin="bevel"
     stroke-width="2"
     stroke="#000000"
     fill="none"
     class="StaffLines" />
  <polyline
     transform="translate(-141.732,-887.623)"
     id="polyline2119"
     points="141.732,1304.23 2918.27,1304.23"
     stroke-linejoin="bevel"
     stroke-width="2"
     stroke="#000000"
     fill="none"
     class="StaffLines" />
  <polyline
     transform="translate(-141.732,-887.623)"
     id="polyline2251"
     points="2916.27,1190.73 2916.27,1305.23"
     stroke-linejoin="bevel"
     stroke-width="4"
     stroke="#000000"
     fill="none"
     class="BarLine" />
  <polyline
     transform="translate(-141.732,-887.623)"
     id="polyline2253"
     points="2916.27,928.233 2916.27,1030.23"
     stroke-linejoin="bevel"
     stroke-width="4"
     stroke="#000000"
     fill="none"
     class="BarLine" />
  <polyline
     transform="translate(-141.732,-887.623)"
     id="polyline2255"
     points="2309.38,1190.73 2309.38,1305.23"
     stroke-linejoin="bevel"
     stroke-width="4"
     stroke="#000000"
     fill="none"
     class="BarLine" />
  <polyline
     transform="translate(-141.732,-887.623)"
     id="polyline2257"
     points="2309.38,928.233 2309.38,1030.23"
     stroke-linejoin="bevel"
     stroke-width="4"
     stroke="#000000"
     fill="none"
     class="BarLine" />
  <polyline
     transform="translate(-141.732,-887.623)"
     id="polyline2259"
     points="1648.26,1190.73 1648.26,1305.23"
     stroke-linejoin="bevel"
     stroke-width="4"
     stroke="#000000"
     fill="none"
     class="BarLine" />
  <polyline
     transform="translate(-141.732,-887.623)"
     id="polyline2261"
     points="1648.26,928.233 1648.26,1030.23"
     stroke-linejoin="bevel"
     stroke-width="4"
     stroke="#000000"
     fill="none"
     class="BarLine" />
  <polyline
     transform="translate(-141.732,-887.623)"
     id="polyline2263"
     points="981.634,1190.73 981.634,1305.23"
     stroke-linejoin="bevel"
     stroke-width="4"
     stroke="#000000"
     fill="none"
     class="BarLine" />
  <polyline
     transform="translate(-141.732,-887.623)"
     id="polyline2265"
     points="981.634,928.233 981.634,1030.23"
     stroke-linejoin="bevel"
     stroke-width="4"
     stroke="#000000"
     fill="none"
     class="BarLine" />
  <polyline
     transform="translate(-141.732,-887.623)"
     id="polyline2267"
     points="143.732,1190.73 143.732,1305.23"
     stroke-linejoin="bevel"
     stroke-width="4"
     stroke="#000000"
     fill="none"
     class="BarLine" />
  <polyline
     transform="translate(-141.732,-887.623)"
     id="polyline2269"
     points="143.732,928.233 143.732,1191.73"
     stroke-linejoin="bevel"
     stroke-width="4"
     stroke="#000000"
     fill="none"
     class="BarLine" />
  <polyline
     transform="translate(-141.732,-887.623)"
     id="polyline2309"
     points="2650.05,1054.23 2699.77,1054.23"
     stroke-linejoin="bevel"
     stroke-linecap="square"
     stroke-width="4"
     stroke="#000000"
     fill="none"
     class="LedgerLine" />
  <polyline
     transform="translate(-141.732,-887.623)"
     id="polyline2311"
     points="346.209,1054.23 394.123,1054.23"
     stroke-linejoin="bevel"
     stroke-linecap="square"
     stroke-width="4"
     stroke="#000000"
     fill="none"
     class="LedgerLine" />
  <polyline
     transform="translate(-141.732,-887.623)"
     id="polyline2383"
     points="2690.64,1050.39 2690.64,966.733"
     stroke-linejoin="bevel"
     stroke-linecap="round"
     stroke-width="3.25"
     stroke="#000000"
     fill="none"
     class="Stem" />
  <polyline
     transform="translate(-141.732,-887.623)"
     id="polyline2385"
     points="2529.85,1037.04 2529.85,954.233"
     stroke-linejoin="bevel"
     stroke-linecap="round"
     stroke-width="3.25"
     stroke="#000000"
     fill="none"
     class="Stem" />
  <polyline
     transform="translate(-141.732,-887.623)"
     id="polyline2387"
     points="2369.97,1024.54 2369.97,941.733"
     stroke-linejoin="bevel"
     stroke-linecap="round"
     stroke-width="3.25"
     stroke="#000000"
     fill="none"
     class="Stem" />
  <polyline
     transform="translate(-141.732,-887.623)"
     id="polyline2389"
     points="2181.7,1012.04 2181.7,929.233"
     stroke-linejoin="bevel"
     stroke-linecap="round"
     stroke-width="3.25"
     stroke="#000000"
     fill="none"
     class="Stem" />
  <polyline
     transform="translate(-141.732,-887.623)"
     id="polyline2391"
     points="2024.73,999.537 2024.73,919.858"
     stroke-linejoin="bevel"
     stroke-linecap="round"
     stroke-width="3.25"
     stroke="#000000"
     fill="none"
     class="Stem" />
  <polyline
     transform="translate(-141.732,-887.623)"
     id="polyline2393"
     points="1867.76,987.037 1867.76,910.483"
     stroke-linejoin="bevel"
     stroke-linecap="round"
     stroke-width="3.25"
     stroke="#000000"
     fill="none"
     class="Stem" />
  <polyline
     transform="translate(-141.732,-887.623)"
     id="polyline2395"
     points="1681.13,983.928 1681.13,1057.36"
     stroke-linejoin="bevel"
     stroke-linecap="round"
     stroke-width="3.25"
     stroke="#000000"
     fill="none"
     class="Stem" />
  <polyline
     transform="translate(-141.732,-887.623)"
     id="polyline2397"
     points="1489.05,971.428 1489.05,1047.98"
     stroke-linejoin="bevel"
     stroke-linecap="round"
     stroke-width="3.25"
     stroke="#000000"
     fill="none"
     class="Stem" />
  <polyline
     transform="translate(-141.732,-887.623)"
     id="polyline2399"
     points="1330.22,983.928 1330.22,1057.36"
     stroke-linejoin="bevel"
     stroke-linecap="round"
     stroke-width="3.25"
     stroke="#000000"
     fill="none"
     class="Stem" />
  <polyline
     transform="translate(-141.732,-887.623)"
     id="polyline2401"
     points="1201.05,987.037 1201.05,910.483"
     stroke-linejoin="bevel"
     stroke-linecap="round"
     stroke-width="3.25"
     stroke="#000000"
     fill="none"
     class="Stem" />
  <polyline
     transform="translate(-141.732,-887.623)"
     id="polyline2403"
     points="1042.22,999.537 1042.22,919.858"
     stroke-linejoin="bevel"
     stroke-linecap="round"
     stroke-width="3.25"
     stroke="#000000"
     fill="none"
     class="Stem" />
  <polyline
     transform="translate(-141.732,-887.623)"
     id="polyline2405"
     points="854.442,1012.04 854.442,929.233"
     stroke-linejoin="bevel"
     stroke-linecap="round"
     stroke-width="3.25"
     stroke="#000000"
     fill="none"
     class="Stem" />
  <polyline
     transform="translate(-141.732,-887.623)"
     id="polyline2407"
     points="697.961,1024.54 697.961,941.733"
     stroke-linejoin="bevel"
     stroke-linecap="round"
     stroke-width="3.25"
     stroke="#000000"
     fill="none"
     class="Stem" />
  <polyline
     transform="translate(-141.732,-887.623)"
     id="polyline2409"
     points="541.479,1037.04 541.479,954.233"
     stroke-linejoin="bevel"
     stroke-linecap="round"
     stroke-width="3.25"
     stroke="#000000"
     fill="none"
     class="Stem" />
  <polyline
     transform="translate(-141.732,-887.623)"
     id="polyline2411"
     points="384.998,1049.54 384.998,966.733"
     stroke-linejoin="bevel"
     stroke-linecap="round"
     stroke-width="3.25"
     stroke="#000000"
     fill="none"
     class="Stem" />
  <path
     id="path2665"
     d="m 2522.368,360.357 h 28 v 37.5 h -28 v -37.5"
     fill-rule="evenodd"
     fill="#ffffff"
     class="Note" />
  <path
     id="path2667"
     d="m 2543.508,389.917 c -1.86,2.88 -4.32,4.32 -7.39,4.32 -3.06,0 -5.52,-1.47 -7.38,-4.41 -1.86,-2.94 -2.79,-6.72 -2.79,-11.34 0,-4.35 0.93,-7.98 2.79,-10.91 1.86,-2.93 4.38,-4.39 7.55,-4.39 2.95,0 5.36,1.44 7.22,4.32 1.85,2.88 2.78,6.63 2.78,11.26 0,4.55 -0.93,8.27 -2.78,11.15 m -7.34,-25.56 c -3.93,0 -5.89,4.85 -5.89,14.53 0,9.45 1.95,14.18 5.84,14.18 3.9,0 5.85,-4.74 5.85,-14.22 0,-4.71 -0.5,-8.3 -1.49,-10.78 -0.99,-2.47 -2.43,-3.71 -4.31,-3.71"
     class="Note" />
  <path
     id="path2669"
     d="m 2547.358,160.067 c 0,-1.11 -0.42,-2.05 -1.26,-2.83 -0.86,-0.85 -1.83,-1.27 -2.94,-1.27 -1.95,0 -5.88,1.96 -11.81,5.86 -6.13,3.97 -9.87,6.8 -11.24,8.5 -0.71,0.91 -1.07,1.85 -1.07,2.83 0,1.1 0.42,2.05 1.28,2.83 0.78,0.84 1.75,1.26 2.92,1.26 1.89,0 5.86,-1.95 11.92,-5.86 5.99,-3.9 9.7,-6.74 11.13,-8.5 0.72,-0.84 1.07,-1.78 1.07,-2.82 m -5.17,-7.22 c 5.6,0 8.39,2.4 8.39,7.22 0,2.34 -0.68,5.07 -2.04,8.2 -1.37,3.06 -3.19,5.41 -5.47,7.03 -5.01,3.39 -11.29,5.08 -18.85,5.08 -5.6,0 -8.4,-2.41 -8.4,-7.22 0,-2.15 0.68,-4.85 2.04,-8.11 1.31,-3.12 3.13,-5.5 5.47,-7.12 5.02,-3.39 11.31,-5.08 18.86,-5.08"
     class="Note" />
  <path
     id="path2671"
     d="m 2361.578,360.357 h 28 v 37.5 h -28 v -37.5"
     fill-rule="evenodd"
     fill="#ffffff"
     class="Note" />
  <path
     id="path2673"
     d="m 2365.468,372.137 c 0.16,-0.68 0.31,-1.28 0.46,-1.78 0.14,-0.51 0.47,-1.25 0.97,-2.22 0.5,-0.96 1.05,-1.77 1.67,-2.41 0.61,-0.64 1.47,-1.22 2.56,-1.73 1.09,-0.51 2.33,-0.76 3.7,-0.76 2.35,0 4.32,0.76 5.93,2.28 1.6,1.52 2.4,3.4 2.4,5.64 0,3.39 -1.92,7.09 -5.76,11.11 l -7.55,7.92 h 10.75 c 1.02,0 1.78,-0.17 2.27,-0.51 0.5,-0.35 1.17,-1.17 2.01,-2.46 l 0.58,0.22 -2.47,6.17 h -17.56 v -0.54 l 8.01,-8.5 c 3.9,-4.14 5.85,-8.04 5.85,-11.71 0,-1.88 -0.59,-3.41 -1.75,-4.58 -1.17,-1.17 -2.7,-1.76 -4.6,-1.76 -1.55,0 -2.8,0.43 -3.75,1.28 -0.94,0.85 -1.87,2.38 -2.76,4.58 l -0.96,-0.24"
     class="Note" />
  <path
     id="path2675"
     d="m 2378.798,140.347 c 3.13,0 5.77,0.81 7.92,2.43 2.02,1.77 3.02,3.98 3.02,6.65 0,4.48 -2.31,8.68 -6.92,12.59 -4.69,3.91 -9.7,5.86 -15.05,5.86 -3.12,0 -5.76,-0.81 -7.9,-2.44 -2.03,-1.76 -3.04,-3.97 -3.04,-6.64 0,-4.49 2.35,-8.69 7.04,-12.59 4.56,-3.91 9.54,-5.86 14.93,-5.86"
     class="Note" />
  <path
     id="path2677"
     d="m 2201.698,360.357 h 28 v 37.5 h -28 v -37.5"
     fill-rule="evenodd"
     fill="#ffffff"
     class="Note" />
  <path
     id="path2679"
     d="m 2225.428,383.217 v 2.88 h -4.58 v 7.51 h -3.46 v -7.51 h -12.65 v -2.88 l 14.13,-20.03 h 1.98 v 20.03 h 4.58 m -8.09,0 v -15.44 l -10.8,15.44 h 10.8"
     class="Note" />
  <path
     id="path2681"
     d="m 2218.918,127.847 c 3.12,0 5.76,0.81 7.92,2.43 2.01,1.77 3.01,3.98 3.01,6.65 0,4.48 -2.3,8.68 -6.92,12.59 -4.69,3.91 -9.7,5.86 -15.04,5.86 -3.13,0 -5.77,-0.81 -7.91,-2.44 -2.02,-1.76 -3.03,-3.97 -3.03,-6.64 0,-4.49 2.34,-8.69 7.03,-12.59 4.56,-3.91 9.54,-5.86 14.94,-5.86"
     class="Note" />
  <path
     id="path2683"
     d="m 2013.428,360.357 h 28 v 37.5 h -28 v -37.5"
     fill-rule="evenodd"
     fill="#ffffff"
     class="Note" />
  <path
     id="path2685"
     d="m 2031.998,384.847 c 0,-1.59 -0.35,-2.99 -1.06,-4.22 -0.7,-1.23 -1.55,-2.18 -2.56,-2.85 -1.01,-0.67 -2.13,-1.23 -3.37,-1.67 -1.25,-0.43 -2.33,-0.72 -3.25,-0.85 -0.91,-0.13 -1.72,-0.19 -2.4,-0.19 -0.37,0 -0.55,-0.12 -0.55,-0.36 0,-0.1 0.02,-0.18 0.05,-0.24 l 4.9,-10.64 h 9.41 c 0.48,0 0.86,-0.07 1.15,-0.22 0.28,-0.16 0.59,-0.47 0.91,-0.95 l 0.41,0.31 -1.71,4 c -0.12,0.27 -0.46,0.41 -1.03,0.41 h -8.82 l -1.9,3.81 c 4.39,0.78 7.65,2.05 9.78,3.8 2.13,1.75 3.19,4.32 3.19,7.7 0,1.78 -0.28,3.36 -0.83,4.74 -0.56,1.38 -1.27,2.5 -2.12,3.34 -0.85,0.84 -1.84,1.54 -2.97,2.08 -1.12,0.54 -2.2,0.91 -3.24,1.1 -1.04,0.19 -2.08,0.29 -3.12,0.29 -1.69,0 -3.02,-0.25 -4.01,-0.74 -0.99,-0.5 -1.49,-1.18 -1.49,-2.04 0,-1.12 0.65,-1.68 1.94,-1.68 0.84,0 1.93,0.46 3.27,1.38 1.33,0.92 2.39,1.37 3.17,1.37 1.77,0 3.25,-0.74 4.45,-2.22 1.2,-1.49 1.8,-3.31 1.8,-5.46"
     class="Note" />
  <path
     id="path2687"
     d="m 2030.648,115.347 c 3.13,0 5.77,0.81 7.93,2.43 2.01,1.77 3.01,3.98 3.01,6.65 0,4.48 -2.31,8.68 -6.92,12.59 -4.69,3.91 -9.7,5.86 -15.05,5.86 -3.12,0 -5.76,-0.81 -7.9,-2.44 -2.02,-1.76 -3.04,-3.97 -3.04,-6.64 0,-4.49 2.35,-8.69 7.04,-12.59 4.56,-3.91 9.54,-5.86 14.93,-5.86"
     class="Note" />
  <path
     id="path2689"
     d="m 1856.458,360.357 h 28 v 37.5 h -28 v -37.5"
     fill-rule="evenodd"
     fill="#ffffff"
     class="Note" />
  <path
     id="path2691"
     d="m 1879.168,363.827 v 0.7 l -9.53,29.44 h -2.94 l 8.92,-26.86 h -9.76 c -1.23,0 -2.17,0.23 -2.82,0.67 -0.64,0.45 -1.44,1.44 -2.4,2.97 l -0.77,-0.36 2.66,-6.56 h 16.64"
     class="Note" />
  <path
     id="path2693"
     d="m 1873.678,102.844 c 3.13,0 5.77,0.813 7.93,2.438 2.01,1.76 3.01,3.974 3.01,6.64 0,4.485 -2.31,8.685 -6.92,12.595 -4.69,3.91 -9.7,5.86 -15.05,5.86 -3.12,0 -5.76,-0.81 -7.9,-2.44 -2.02,-1.76 -3.04,-3.97 -3.04,-6.64 0,-4.49 2.35,-8.69 7.04,-12.593 4.56,-3.907 9.54,-5.86 14.93,-5.86"
     class="Note" />
  <path
     id="path2695"
     d="m 1699.488,360.357 h 28.01 v 37.5 h -28.01 v -37.5"
     fill-rule="evenodd"
     fill="#ffffff"
     class="Note" />
  <path
     id="path2697"
     d="m 1704.648,394.597 -0.14,-0.89 c 3.43,-0.61 6.33,-2.07 8.71,-4.39 2.38,-2.31 4.04,-5.31 4.98,-8.97 -2.22,1.73 -4.47,2.59 -6.75,2.59 -2.43,0 -4.39,-0.84 -5.88,-2.52 -1.49,-1.68 -2.23,-3.9 -2.23,-6.64 0,-3.04 0.89,-5.58 2.68,-7.62 1.78,-2.04 4.01,-3.06 6.68,-3.06 2.91,0 5.3,1.19 7.16,3.58 1.86,2.38 2.79,5.44 2.79,9.17 0,1.21 -0.1,2.44 -0.31,3.7 -0.21,1.26 -0.7,2.76 -1.46,4.48 -0.77,1.73 -1.77,3.28 -2.99,4.65 -1.23,1.36 -2.99,2.6 -5.27,3.71 -2.28,1.12 -4.94,1.85 -7.97,2.21 m 8.41,-13.63 c 0.57,0 1.22,-0.08 1.93,-0.25 0.72,-0.16 1.45,-0.52 2.19,-1.08 0.74,-0.55 1.11,-1.23 1.11,-2.04 v -1.75 c 0,-7.6 -1.98,-11.39 -5.95,-11.39 -0.93,0 -1.72,0.24 -2.38,0.74 -0.67,0.49 -1.17,1.14 -1.51,1.95 -0.35,0.81 -0.59,1.63 -0.74,2.47 -0.16,0.84 -0.23,1.72 -0.23,2.65 0,2.66 0.5,4.77 1.51,6.34 1,1.58 2.36,2.36 4.07,2.36"
     class="Note" />
  <path
     id="path2699"
     d="m 1716.708,90.344 c 3.13,0 5.77,0.813 7.93,2.438 2.01,1.76 3.01,3.974 3.01,6.64 0,4.49 -2.31,8.688 -6.92,12.594 -4.69,3.911 -9.7,5.861 -15.05,5.861 -3.12,0 -5.76,-0.81 -7.9,-2.44 -2.02,-1.76 -3.04,-3.973 -3.04,-6.64 0,-4.489 2.35,-8.687 7.04,-12.593 4.56,-3.907 9.54,-5.86 14.93,-5.86"
     class="Note" />
  <path
     id="path2701"
     d="m 1531.028,360.357 h 51 v 37.5 h -51 v -37.5"
     fill-rule="evenodd"
     fill="#ffffff"
     class="Note" />
  <path
     id="path2703"
     d="m 1541.758,366.927 c -0.54,0 -1.62,0.33 -3.23,1 v -0.65 l 8.09,-4.09 0.36,0.09 v 27 c 0,1.09 0.27,1.79 0.81,2.12 0.54,0.33 1.7,0.51 3.47,0.54 v 0.67 h -12.42 v -0.67 c 1.67,-0.06 2.8,-0.31 3.39,-0.74 0.58,-0.43 0.87,-1.36 0.87,-2.77 v -20.38 c 0,-1.42 -0.44,-2.12 -1.34,-2.12 m 23,0 c -0.54,0 -1.62,0.33 -3.23,1 v -0.65 l 8.09,-4.09 0.36,0.09 v 27 c 0,1.09 0.27,1.79 0.81,2.12 0.54,0.33 1.7,0.51 3.47,0.54 v 0.67 h -12.42 v -0.67 c 1.67,-0.06 2.8,-0.31 3.39,-0.74 0.58,-0.43 0.87,-1.36 0.87,-2.77 v -20.38 c 0,-1.42 -0.44,-2.12 -1.34,-2.12"
     class="Note" />
  <path
     id="path2705"
     d="m 1559.738,77.844 c 3.13,0 5.77,0.813 7.93,2.438 2.01,1.76 3.01,3.974 3.01,6.64 0,4.49 -2.31,8.688 -6.92,12.594 -4.69,3.906 -9.7,5.859 -15.05,5.859 -3.12,0 -5.76,-0.812 -7.9,-2.437 -2.02,-1.76 -3.03,-3.974 -3.03,-6.641 0,-4.489 2.34,-8.687 7.03,-12.593 4.56,-3.907 9.54,-5.86 14.93,-5.86"
     class="Note" />
  <path
     id="path2707"
     d="m 1338.938,360.357 h 51 v 37.5 h -51 v -37.5"
     fill-rule="evenodd"
     fill="#ffffff"
     class="Note" />
  <path
     id="path2709"
     d="m 1349.678,366.927 c -0.54,0 -1.62,0.33 -3.24,1 v -0.65 l 8.1,-4.09 0.36,0.09 v 27 c 0,1.09 0.27,1.79 0.81,2.12 0.54,0.33 1.7,0.51 3.47,0.54 v 0.67 h -12.42 v -0.67 c 1.67,-0.06 2.8,-0.31 3.39,-0.74 0.58,-0.43 0.87,-1.36 0.87,-2.77 v -20.38 c 0,-1.42 -0.45,-2.12 -1.34,-2.12 m 16.15,5.21 c 0.16,-0.68 0.31,-1.28 0.46,-1.78 0.14,-0.51 0.47,-1.25 0.97,-2.22 0.5,-0.96 1.05,-1.77 1.67,-2.41 0.61,-0.64 1.47,-1.22 2.56,-1.73 1.09,-0.51 2.33,-0.76 3.7,-0.76 2.35,0 4.32,0.76 5.92,2.28 1.61,1.52 2.41,3.4 2.41,5.64 0,3.39 -1.92,7.09 -5.76,11.11 l -7.55,7.92 h 10.75 c 1.02,0 1.78,-0.17 2.27,-0.51 0.5,-0.35 1.17,-1.17 2.01,-2.46 l 0.58,0.22 -2.47,6.17 h -17.56 v -0.54 l 8.01,-8.5 c 3.9,-4.14 5.85,-8.04 5.85,-11.71 0,-1.88 -0.59,-3.41 -1.75,-4.58 -1.17,-1.17 -2.7,-1.76 -4.6,-1.76 -1.55,0 -2.8,0.43 -3.75,1.28 -0.95,0.85 -1.87,2.38 -2.76,4.58 l -0.96,-0.24"
     class="Note" />
  <path
     id="path2711"
     d="m 1367.658,65.344 c 3.13,0 5.77,0.813 7.92,2.438 2.01,1.76 3.02,3.974 3.02,6.64 0,4.49 -2.31,8.688 -6.92,12.594 -4.69,3.906 -9.71,5.859 -15.05,5.859 -3.12,0 -5.76,-0.812 -7.91,-2.437 -2.02,-1.76 -3.03,-3.974 -3.03,-6.641 0,-4.489 2.35,-8.687 7.03,-12.593 4.57,-3.907 9.55,-5.86 14.94,-5.86"
     class="Note" />
  <path
     id="path2713"
     d="m 1180.108,360.357 h 51 v 37.5 h -51 v -37.5"
     fill-rule="evenodd"
     fill="#ffffff"
     class="Note" />
  <path
     id="path2715"
     d="m 1190.848,366.927 c -0.55,0 -1.62,0.33 -3.24,1 v -0.65 l 8.09,-4.09 0.36,0.09 v 27 c 0,1.09 0.27,1.79 0.82,2.12 0.54,0.33 1.69,0.51 3.47,0.54 v 0.67 h -12.43 v -0.67 c 1.68,-0.06 2.81,-0.31 3.39,-0.74 0.59,-0.43 0.88,-1.36 0.88,-2.77 v -20.38 c 0,-1.42 -0.45,-2.12 -1.34,-2.12 m 23,0 c -0.55,0 -1.62,0.33 -3.24,1 v -0.65 l 8.09,-4.09 0.36,0.09 v 27 c 0,1.09 0.27,1.79 0.82,2.12 0.54,0.33 1.69,0.51 3.47,0.54 v 0.67 h -12.43 v -0.67 c 1.68,-0.06 2.81,-0.31 3.39,-0.74 0.59,-0.43 0.88,-1.36 0.88,-2.77 v -20.38 c 0,-1.42 -0.45,-2.12 -1.34,-2.12"
     class="Note" />
  <path
     id="path2717"
     d="m 1208.828,77.844 c 3.12,0 5.77,0.813 7.92,2.438 2.01,1.76 3.02,3.974 3.02,6.64 0,4.49 -2.31,8.688 -6.92,12.594 -4.69,3.906 -9.71,5.859 -15.05,5.859 -3.13,0 -5.76,-0.812 -7.91,-2.437 -2.02,-1.76 -3.03,-3.974 -3.03,-6.641 0,-4.489 2.34,-8.687 7.03,-12.593 4.56,-3.907 9.54,-5.86 14.94,-5.86"
     class="Note" />
  <path
     id="path2719"
     d="m 1032.778,360.357 h 28 v 37.5 h -28 v -37.5"
     fill-rule="evenodd"
     fill="#ffffff"
     class="Note" />
  <path
     id="path2721"
     d="m 1037.938,394.597 -0.15,-0.89 c 3.43,-0.61 6.34,-2.07 8.72,-4.39 2.38,-2.31 4.03,-5.31 4.97,-8.97 -2.22,1.73 -4.47,2.59 -6.75,2.59 -2.42,0 -4.38,-0.84 -5.87,-2.52 -1.49,-1.68 -2.24,-3.9 -2.24,-6.64 0,-3.04 0.9,-5.58 2.68,-7.62 1.79,-2.04 4.02,-3.06 6.68,-3.06 2.92,0 5.31,1.19 7.17,3.58 1.86,2.38 2.79,5.44 2.79,9.17 0,1.21 -0.11,2.44 -0.32,3.7 -0.21,1.26 -0.69,2.76 -1.46,4.48 -0.76,1.73 -1.76,3.28 -2.99,4.65 -1.23,1.36 -2.98,2.6 -5.27,3.71 -2.28,1.12 -4.93,1.85 -7.96,2.21 m 8.4,-13.63 c 0.57,0 1.22,-0.08 1.94,-0.25 0.72,-0.16 1.45,-0.52 2.19,-1.08 0.74,-0.55 1.11,-1.23 1.11,-2.04 v -1.75 c 0,-7.6 -1.99,-11.39 -5.96,-11.39 -0.92,0 -1.72,0.24 -2.38,0.74 -0.66,0.49 -1.16,1.14 -1.51,1.95 -0.34,0.81 -0.59,1.63 -0.74,2.47 -0.15,0.84 -0.23,1.72 -0.23,2.65 0,2.66 0.51,4.77 1.51,6.34 1.01,1.58 2.36,2.36 4.07,2.36"
     class="Note" />
  <path
     id="path2723"
     d="m 1049.998,90.344 c 3.12,0 5.76,0.813 7.92,2.438 2.01,1.76 3.02,3.974 3.02,6.64 0,4.49 -2.31,8.688 -6.93,12.594 -4.68,3.911 -9.7,5.861 -15.04,5.861 -3.13,0 -5.76,-0.81 -7.91,-2.44 -2.02,-1.76 -3.03,-3.973 -3.03,-6.64 0,-4.489 2.34,-8.687 7.03,-12.593 4.56,-3.907 9.54,-5.86 14.94,-5.86"
     class="Note" />
  <path
     id="path2725"
     d="m 873.948,360.357 h 28 v 37.5 h -28 v -37.5"
     fill-rule="evenodd"
     fill="#ffffff"
     class="Note" />
  <path
     id="path2727"
     d="m 896.648,363.827 v 0.7 l -9.53,29.44 h -2.94 l 8.92,-26.86 h -9.76 c -1.23,0 -2.17,0.23 -2.81,0.67 -0.65,0.45 -1.45,1.44 -2.41,2.97 l -0.77,-0.36 2.66,-6.56 h 16.64"
     class="Note" />
  <path
     id="path2729"
     d="m 891.168,102.844 c 3.12,0 5.76,0.813 7.92,2.438 2.01,1.76 3.01,3.974 3.01,6.64 0,4.485 -2.3,8.685 -6.92,12.595 -4.69,3.91 -9.7,5.86 -15.05,5.86 -3.12,0 -5.76,-0.81 -7.9,-2.44 -2.02,-1.76 -3.03,-3.97 -3.03,-6.64 0,-4.49 2.34,-8.69 7.03,-12.593 4.56,-3.907 9.54,-5.86 14.94,-5.86"
     class="Note" />
  <path
     id="path2731"
     d="m 686.171,360.357 h 28 v 37.5 h -28 v -37.5"
     fill-rule="evenodd"
     fill="#ffffff"
     class="Note" />
  <path
     id="path2733"
     d="m 704.733,384.847 c 0,-1.59 -0.351,-2.99 -1.054,-4.22 -0.704,-1.23 -1.558,-2.18 -2.563,-2.85 -1.005,-0.67 -2.13,-1.23 -3.375,-1.67 -1.245,-0.43 -2.325,-0.72 -3.242,-0.85 -0.917,-0.13 -1.719,-0.19 -2.406,-0.19 -0.365,0 -0.547,-0.12 -0.547,-0.36 0,-0.1 0.015,-0.18 0.047,-0.24 l 4.906,-10.64 h 9.406 c 0.479,0 0.862,-0.07 1.149,-0.22 0.286,-0.16 0.591,-0.47 0.914,-0.95 l 0.406,0.31 -1.703,4 c -0.125,0.27 -0.469,0.41 -1.032,0.41 h -8.828 l -1.89,3.81 c 4.385,0.78 7.643,2.05 9.773,3.8 2.13,1.75 3.195,4.32 3.195,7.7 0,1.78 -0.278,3.36 -0.835,4.74 -0.558,1.38 -1.263,2.5 -2.118,3.34 -0.854,0.84 -1.843,1.54 -2.968,2.08 -1.125,0.54 -2.206,0.91 -3.243,1.1 -1.036,0.19 -2.075,0.29 -3.117,0.29 -1.687,0 -3.026,-0.25 -4.015,-0.74 -0.99,-0.5 -1.485,-1.18 -1.485,-2.04 0,-1.12 0.646,-1.68 1.938,-1.68 0.843,0 1.932,0.46 3.265,1.38 1.334,0.92 2.391,1.37 3.172,1.37 1.771,0 3.255,-0.74 4.453,-2.22 1.198,-1.49 1.797,-3.31 1.797,-5.46"
     class="Note" />
  <path
     id="path2735"
     d="m 703.389,115.347 c 3.125,0 5.766,0.81 7.922,2.43 2.011,1.77 3.016,3.98 3.016,6.65 0,4.48 -2.307,8.68 -6.922,12.59 -4.687,3.91 -9.703,5.86 -15.047,5.86 -3.125,0 -5.76,-0.81 -7.906,-2.44 -2.021,-1.76 -3.031,-3.97 -3.031,-6.64 0,-4.49 2.343,-8.69 7.031,-12.59 4.562,-3.91 9.542,-5.86 14.937,-5.86"
     class="Note" />
  <path
     id="path2737"
     d="m 529.689,360.357 h 28 v 37.5 h -28 v -37.5"
     fill-rule="evenodd"
     fill="#ffffff"
     class="Note" />
  <path
     id="path2739"
     d="m 553.424,383.217 v 2.88 h -4.578 v 7.51 h -3.469 v -7.51 h -12.641 v -2.88 l 14.125,-20.03 h 1.985 v 20.03 h 4.578 m -8.094,0 v -15.44 l -10.797,15.44 h 10.797"
     class="Note" />
  <path
     id="path2741"
     d="m 546.908,127.847 c 3.125,0 5.766,0.81 7.922,2.43 2.011,1.77 3.016,3.98 3.016,6.65 0,4.48 -2.308,8.68 -6.922,12.59 -4.688,3.91 -9.703,5.86 -15.047,5.86 -3.125,0 -5.76,-0.81 -7.906,-2.44 -2.021,-1.76 -3.032,-3.97 -3.032,-6.64 0,-4.49 2.344,-8.69 7.032,-12.59 4.562,-3.91 9.541,-5.86 14.937,-5.86"
     class="Note" />
  <path
     id="path2743"
     d="m 373.208,360.357 h 28 v 37.5 h -28 v -37.5"
     fill-rule="evenodd"
     fill="#ffffff"
     class="Note" />
  <path
     id="path2745"
     d="m 377.099,372.137 c 0.156,-0.68 0.307,-1.28 0.453,-1.78 0.146,-0.51 0.469,-1.25 0.969,-2.22 0.5,-0.96 1.057,-1.77 1.672,-2.41 0.614,-0.64 1.468,-1.22 2.562,-1.73 1.094,-0.51 2.328,-0.76 3.703,-0.76 2.344,0 4.318,0.76 5.922,2.28 1.604,1.52 2.406,3.4 2.406,5.64 0,3.39 -1.922,7.09 -5.765,11.11 l -7.547,7.92 h 10.75 c 1.021,0 1.778,-0.17 2.273,-0.51 0.495,-0.35 1.164,-1.17 2.008,-2.46 l 0.578,0.22 -2.469,6.17 h -17.562 v -0.54 l 8.016,-8.5 c 3.895,-4.14 5.843,-8.04 5.843,-11.71 0,-1.88 -0.583,-3.41 -1.75,-4.58 -1.166,-1.17 -2.698,-1.76 -4.593,-1.76 -1.552,0 -2.802,0.43 -3.75,1.28 -0.948,0.85 -1.87,2.38 -2.766,4.58 l -0.953,-0.24"
     class="Note" />
  <path
     id="path2747"
     d="m 390.427,140.347 c 3.125,0 5.766,0.81 7.922,2.43 2.01,1.77 3.015,3.98 3.015,6.65 0,4.48 -2.307,8.68 -6.921,12.59 -4.688,3.91 -9.704,5.86 -15.047,5.86 -3.125,0 -5.761,-0.81 -7.907,-2.44 -2.02,-1.76 -3.031,-3.97 -3.031,-6.64 0,-4.49 2.344,-8.69 7.031,-12.59 4.563,-3.91 9.542,-5.86 14.938,-5.86"
     class="Note" />
  <path
     id="path2749"
     d="m 216.727,360.357 h 28 v 37.5 h -28 v -37.5"
     fill-rule="evenodd"
     fill="#ffffff"
     class="Note" />
  <path
     id="path2751"
     d="m 237.86,389.917 c -1.86,2.88 -4.321,4.32 -7.383,4.32 -3.063,0 -5.523,-1.47 -7.383,-4.41 -1.859,-2.94 -2.789,-6.72 -2.789,-11.34 0,-4.35 0.93,-7.98 2.789,-10.91 1.86,-2.93 4.378,-4.39 7.555,-4.39 2.948,0 5.351,1.44 7.211,4.32 1.859,2.88 2.789,6.63 2.789,11.26 0,4.55 -0.93,8.27 -2.789,11.15 m -7.336,-25.56 c -3.927,0 -5.891,4.85 -5.891,14.53 0,9.45 1.948,14.18 5.844,14.18 3.896,0 5.844,-4.74 5.844,-14.22 0,-4.71 -0.495,-8.3 -1.485,-10.78 -0.989,-2.47 -2.427,-3.71 -4.312,-3.71"
     class="Note" />
  <path
     id="path2753"
     d="m 233.946,152.847 c 3.125,0 5.765,0.81 7.922,2.43 2.01,1.77 3.015,3.98 3.015,6.65 0,4.48 -2.307,8.68 -6.922,12.59 -4.687,3.91 -9.703,5.86 -15.047,5.86 -3.125,0 -5.76,-0.81 -7.906,-2.44 -2.021,-1.76 -3.031,-3.97 -3.031,-6.64 0,-4.49 2.344,-8.69 7.031,-12.59 4.563,-3.91 9.542,-5.86 14.938,-5.86"
     class="Note" />
  <path
     id="path2857"
     d="m 50.102,313.457 v -3.5 H 25.399 v 3.5 h 10.406 v 28 h 4 v -28 h 10.297 m 1.406,62.9 -11,-31.5 h -5.203 l -11.297,31.5 h 4.297 l 3.297,-9.5 h 12.203 l 3.203,9.5 h 4.5 m -8.797,-12.79 H 32.602 l 5.203,-14.41 4.906,14.41 m 6.797,38.59 c 0,-3.8 -1.703,-6.09 -5.703,-7.59 2.797,-1.41 4.297,-3.71 4.297,-6.91 0,-4.59 -3.297,-8 -9.297,-8 H 26.008 v 31.5 h 14.203 c 5.688,0 9.297,-3.8 9.297,-9 m -5.406,-13.89 c 0,3.2 -1.797,5 -6.297,5 h -7.797 v -10.11 h 7.797 c 4.5,0 6.297,1.91 6.297,5.11 m 1.406,13.89 c 0,3.11 -1.797,5.41 -5.609,5.41 h -9.891 v -10.8 h 9.891 c 3.812,0 5.609,2.39 5.609,5.39"
     class="Clef" />
  <path
     id="path2859"
     d="m 61.024,91.016 c 0,0 0.198,0 0.593,0 0.261,-0.062 0.485,-0.094 0.672,-0.094 7.292,0 13.282,2.573 17.969,7.719 4.688,5.073 7.031,10.995 7.031,17.766 0,8.41 -3.479,15.24 -10.437,20.52 -1.823,1.43 -4.203,2.6 -7.141,3.51 0.334,4.23 0.5,7.65 0.5,10.25 0,0.52 -0.067,2.41 -0.203,5.67 -0.26,6.05 -2.344,11.29 -6.25,15.72 -3.771,4.37 -8.458,6.55 -14.062,6.55 -5.271,0 -9.761,-1.86 -13.469,-5.56 -3.719,-3.79 -5.578,-8.34 -5.578,-13.68 0,-2.8 1.078,-5.18 3.234,-7.14 2.208,-1.94 4.776,-2.92 7.703,-2.92 2.604,0 4.787,1.01 6.547,3.03 1.823,1.89 2.734,4.23 2.734,7.03 0,2.54 -0.911,4.71 -2.734,6.54 -1.823,1.82 -4.005,2.73 -6.547,2.73 -1.041,0 -2.047,-0.19 -3.015,-0.58 2.864,4.23 6.671,6.35 11.421,6.35 4.49,0 8.167,-1.83 11.032,-5.47 3,-3.77 4.63,-8.17 4.89,-13.19 0.125,-3.13 0.188,-4.91 0.188,-5.36 0,-3.65 -0.13,-6.64 -0.391,-8.98 -3.25,0.52 -6.146,0.78 -8.687,0.78 -9.052,0 -16.766,-3.59 -23.141,-10.75 -6.25,-7.23 -9.375,-15.83 -9.375,-25.785 0,-2.083 0.193,-4.198 0.578,-6.343 0.396,-1.761 0.886,-3.683 1.469,-5.766 0.323,-1.177 1.203,-3.068 2.641,-5.672 0.52,-0.781 1.106,-1.758 1.757,-2.93 0.651,-1.171 1.107,-1.95 1.368,-2.336 0.645,-1.302 1.911,-3.062 3.796,-5.281 0.521,-0.583 1.06,-1.232 1.618,-1.945 0.557,-0.714 1.031,-1.3 1.422,-1.758 0.39,-0.458 0.682,-0.818 0.875,-1.078 0.192,-0.26 1.658,-1.984 4.398,-5.172 0.646,-0.656 1.279,-1.357 1.898,-2.101 0.62,-0.745 1.125,-1.331 1.516,-1.758 0.391,-0.427 0.685,-0.735 0.883,-0.922 -2.344,-7.75 -3.813,-13.938 -4.406,-18.563 -0.448,-3.708 -0.672,-8.786 -0.672,-15.234 0,-5.667 1.302,-10.974 3.906,-15.922 C 50.086,7.756 53.633,3.558 58.196,0.297 58.456,0.099 58.779,0 59.164,0 c 0.459,0 0.787,0.099 0.985,0.297 3.51,4.229 6.536,9.729 9.078,16.5 2.604,6.771 3.906,12.927 3.906,18.469 0,6.25 -1.495,12.109 -4.484,17.578 -3.386,5.792 -7.75,11.781 -13.094,17.969 1.365,4.292 3.187,11.026 5.469,20.203 m 8.297,45.421 c 3.385,-1.24 6.026,-3.35 7.921,-6.34 2.084,-2.87 3.125,-6.09 3.125,-9.67 0,-4.63 -1.562,-8.734 -4.687,-12.317 -3.198,-3.709 -7.271,-5.792 -12.219,-6.25 2.802,13.737 4.755,25.267 5.86,34.577 m -37.782,-22.56 c 0,6.45 2.605,12.11 7.813,17 5.333,4.75 11.323,7.12 17.969,7.12 2.729,0 5.395,-0.19 8,-0.59 -1.042,-9.9 -3.094,-21.75 -6.157,-35.547 -3.708,0.396 -6.666,1.698 -8.875,3.906 -2.156,2.281 -3.234,4.854 -3.234,7.721 0,4.95 2.641,8.95 7.922,12.01 0.448,0.46 0.672,0.95 0.672,1.47 0,0.52 -0.224,1.01 -0.672,1.46 -0.396,0.45 -0.886,0.68 -1.469,0.68 -0.062,0 -0.354,-0.06 -0.875,-0.18 -3.719,-2.03 -6.583,-4.63 -8.594,-7.82 -1.895,-3.39 -2.843,-6.81 -2.843,-10.263 0,-4.489 1.401,-8.557 4.203,-12.203 2.927,-3.646 6.734,-5.99 11.422,-7.031 -1.823,-7.292 -3.318,-12.99 -4.485,-17.094 -1.041,1.177 -2.294,2.594 -3.758,4.25 -1.463,1.656 -2.325,2.651 -2.586,2.984 -2.343,3.053 -4.135,5.428 -5.375,7.125 -2.218,3.063 -3.848,5.698 -4.89,7.907 -1.104,2.479 -2.078,5.182 -2.922,8.109 -0.844,2.802 -1.266,5.797 -1.266,8.986 m 32.61,-99.314 c -4.886,2.406 -8.724,5.854 -11.516,10.344 -2.864,4.625 -4.297,9.604 -4.297,14.937 0,4.688 1.172,11.005 3.516,18.953 4.687,-5.666 8.203,-10.906 10.547,-15.718 2.468,-5.084 3.703,-10.391 3.703,-15.922 0,-4.167 -0.651,-8.365 -1.953,-12.594"
     class="Clef" />
  <path
     id="path2877"
     d="m 135.039,42.789 c 1.948,0 3.607,-0.226 4.977,-0.679 1.37,-0.453 2.247,-0.68 2.633,-0.68 0.458,0 0.818,0.13 1.078,0.391 0.198,0.187 0.328,0.411 0.391,0.672 0,0.135 -0.068,0.333 -0.204,0.593 l -28.406,33.016 h 16.688 V 63.008 c 0,-0.844 0.229,-1.562 0.687,-2.156 0.781,-0.646 1.432,-1.036 1.953,-1.172 0.844,-0.385 1.886,-1.297 3.125,-2.734 1.042,-1.167 2.282,-3.214 3.719,-6.141 0.188,-0.396 0.479,-0.594 0.875,-0.594 0.781,0 1.234,0.459 1.359,1.375 v 24.516 h 7.141 c 0.906,0 1.427,0.484 1.563,1.453 0,0.979 -0.521,1.469 -1.563,1.469 h -7.141 v 0.781 c 0,2.604 0.651,4.818 1.954,6.641 1.5,1.823 3.26,2.734 5.281,2.734 0.781,0 1.172,0.391 1.172,1.172 0,0.781 -0.391,1.172 -1.172,1.172 -1.365,0 -3.578,-0.193 -6.641,-0.578 -2.802,-0.459 -4.984,-0.688 -6.547,-0.688 -1.625,0 -3.807,0.229 -6.547,0.688 -2.927,0.385 -5.104,0.578 -6.531,0.578 -0.781,0 -1.172,-0.391 -1.172,-1.172 0,-0.781 0.391,-1.172 1.172,-1.172 2.011,0 3.766,-0.911 5.266,-2.734 1.364,-1.886 2.047,-4.099 2.047,-6.641 v -0.781 h -16.688 c -1.114,0 -1.896,-0.261 -2.344,-0.781 -0.531,-0.386 -0.796,-0.907 -0.796,-1.563 0,-0.198 0.489,-0.88 1.468,-2.047 1.115,-1.302 2.287,-2.896 3.516,-4.781 1.437,-2.219 2.807,-4.5 4.109,-6.844 1.427,-2.666 2.568,-5.729 3.422,-9.187 0.969,-3.511 1.453,-7.089 1.453,-10.735 0,-1.041 0.459,-1.562 1.375,-1.562 0.198,0 0.62,0.099 1.266,0.297 0.198,0.062 0.607,0.159 1.226,0.289 0.62,0.13 1.123,0.258 1.508,0.383 1.177,0.198 2.287,0.296 3.328,0.296"
     class="TimeSig" />
  <path
     id="path2879"
     d="m 135.039,92.961 c 1.948,0 3.607,-0.226 4.977,-0.679 1.37,-0.453 2.247,-0.68 2.633,-0.68 0.458,0 0.818,0.13 1.078,0.391 0.198,0.187 0.328,0.411 0.391,0.672 0,0.135 -0.068,0.333 -0.204,0.593 l -28.406,33.019 h 16.688 v -13.1 c 0,-0.841 0.229,-1.559 0.687,-2.153 0.781,-0.646 1.432,-1.037 1.953,-1.172 0.844,-0.385 1.886,-1.297 3.125,-2.734 1.042,-1.167 2.282,-3.214 3.719,-6.141 0.188,-0.396 0.479,-0.594 0.875,-0.594 0.781,0 1.234,0.459 1.359,1.375 v 24.519 h 7.141 c 0.906,0 1.427,0.48 1.563,1.45 0,0.98 -0.521,1.47 -1.563,1.47 h -7.141 v 0.78 c 0,2.6 0.651,4.82 1.954,6.64 1.5,1.82 3.26,2.74 5.281,2.74 0.781,0 1.172,0.39 1.172,1.17 0,0.78 -0.391,1.17 -1.172,1.17 -1.365,0 -3.578,-0.19 -6.641,-0.58 -2.802,-0.46 -4.984,-0.69 -6.547,-0.69 -1.625,0 -3.807,0.23 -6.547,0.69 -2.927,0.39 -5.104,0.58 -6.531,0.58 -0.781,0 -1.172,-0.39 -1.172,-1.17 0,-0.78 0.391,-1.17 1.172,-1.17 2.011,0 3.766,-0.92 5.266,-2.74 1.364,-1.88 2.047,-4.1 2.047,-6.64 v -0.78 h -16.688 c -1.114,0 -1.896,-0.26 -2.344,-0.78 -0.531,-0.39 -0.796,-0.91 -0.796,-1.56 0,-0.2 0.489,-0.89 1.468,-2.05 1.115,-1.3 2.287,-2.9 3.516,-4.78 1.437,-2.22 2.807,-4.5 4.109,-6.85 1.427,-2.664 2.568,-5.726 3.422,-9.184 0.969,-3.511 1.453,-7.089 1.453,-10.735 0,-1.041 0.459,-1.562 1.375,-1.562 0.198,0 0.62,0.099 1.266,0.297 0.198,0.062 0.607,0.158 1.226,0.289 0.62,0.13 1.123,0.258 1.508,0.383 1.177,0.197 2.287,0.296 3.328,0.296"
     class="TimeSig" />
</svg>
