<?xml version="1.0" encoding="UTF-8" standalone="no"?>
<svg
   xmlns:dc="http://purl.org/dc/elements/1.1/"
   xmlns:cc="http://creativecommons.org/ns#"
   xmlns:rdf="http://www.w3.org/1999/02/22-rdf-syntax-ns#"
   xmlns:svg="http://www.w3.org/2000/svg"
   xmlns="http://www.w3.org/2000/svg"
   xmlns:sodipodi="http://sodipodi.sourceforge.net/DTD/sodipodi-0.dtd"
   xmlns:inkscape="http://www.inkscape.org/namespaces/inkscape"
   inkscape:version="1.0 (4035a4fb49, 2020-05-01)"
   sodipodi:docname="exercise1-1.svg"
   id="svg992"
   version="1.2"
   viewBox="0 0 2776.5381 460.53101"
   height="460.53101"
   width="2776.5381">
  <metadata
     id="metadata998">
    <rdf:RDF>
      <cc:Work
         rdf:about="">
        <dc:format>image/svg+xml</dc:format>
        <dc:type
           rdf:resource="http://purl.org/dc/dcmitype/StillImage" />
      </cc:Work>
    </rdf:RDF>
  </metadata>
  <defs
     id="defs996" />
  <sodipodi:namedview
     inkscape:current-layer="svg992"
     inkscape:window-maximized="1"
     inkscape:window-y="-8"
     inkscape:window-x="-8"
     inkscape:cy="330.2865"
     inkscape:cx="1388.268"
     inkscape:zoom="0.16919192"
     showgrid="false"
     id="namedview994"
     inkscape:window-height="837"
     inkscape:window-width="1600"
     inkscape:pageshadow="2"
     inkscape:pageopacity="0"
     guidetolerance="10"
     gridtolerance="10"
     objecttolerance="10"
     borderopacity="1"
     bordercolor="#666666"
     pagecolor="#ffffff" />
  <title
     id="title784">exercise1</title>
  <desc
     id="desc786">Generated by MuseScore 3.0.1</desc>
  <polyline
     transform="translate(-141.732,-275.123)"
     id="polyline788"
     points="141.732,316.732 2918.27,316.732"
     stroke-linejoin="bevel"
     stroke-width="2"
     stroke="#000000"
     fill="none"
     class="StaffLines" />
  <polyline
     transform="translate(-141.732,-275.123)"
     id="polyline790"
     points="141.732,341.732 2918.27,341.732"
     stroke-linejoin="bevel"
     stroke-width="2"
     stroke="#000000"
     fill="none"
     class="StaffLines" />
  <polyline
     transform="translate(-141.732,-275.123)"
     id="polyline792"
     points="141.732,366.732 2918.27,366.732"
     stroke-linejoin="bevel"
     stroke-width="2"
     stroke="#000000"
     fill="none"
     class="StaffLines" />
  <polyline
     transform="translate(-141.732,-275.123)"
     id="polyline794"
     points="141.732,391.732 2918.27,391.732"
     stroke-linejoin="bevel"
     stroke-width="2"
     stroke="#000000"
     fill="none"
     class="StaffLines" />
  <polyline
     transform="translate(-141.732,-275.123)"
     id="polyline796"
     points="141.732,416.732 2918.27,416.732"
     stroke-linejoin="bevel"
     stroke-width="2"
     stroke="#000000"
     fill="none"
     class="StaffLines" />
  <polyline
     transform="translate(-141.732,-275.123)"
     id="polyline798"
     points="141.732,598.733 2918.27,598.733"
     stroke-linejoin="bevel"
     stroke-width="2"
     stroke="#000000"
     fill="none"
     class="StaffLines" />
  <polyline
     transform="translate(-141.732,-275.123)"
     id="polyline800"
     points="141.732,636.233 2918.27,636.233"
     stroke-linejoin="bevel"
     stroke-width="2"
     stroke="#000000"
     fill="none"
     class="StaffLines" />
  <polyline
     transform="translate(-141.732,-275.123)"
     id="polyline802"
     points="141.732,673.733 2918.27,673.733"
     stroke-linejoin="bevel"
     stroke-width="2"
     stroke="#000000"
     fill="none"
     class="StaffLines" />
  <polyline
     transform="translate(-141.732,-275.123)"
     id="polyline804"
     points="141.732,711.233 2918.27,711.233"
     stroke-linejoin="bevel"
     stroke-width="2"
     stroke="#000000"
     fill="none"
     class="StaffLines" />
  <polyline
     transform="translate(-141.732,-275.123)"
     id="polyline806"
     points="2893.77,597.733 2893.77,712.233"
     stroke-linejoin="bevel"
     stroke-width="4"
     stroke="#000000"
     fill="none"
     class="BarLine" />
  <polyline
     transform="translate(-141.732,-275.123)"
     id="polyline808"
     points="2912.02,597.733 2912.02,712.233"
     stroke-linejoin="bevel"
     stroke-width="12.5"
     stroke="#000000"
     fill="none"
     class="BarLine" />
  <polyline
     transform="translate(-141.732,-275.123)"
     id="polyline810"
     points="2893.77,315.732 2893.77,417.732"
     stroke-linejoin="bevel"
     stroke-width="4"
     stroke="#000000"
     fill="none"
     class="BarLine" />
  <polyline
     transform="translate(-141.732,-275.123)"
     id="polyline812"
     points="2912.02,315.732 2912.02,417.732"
     stroke-linejoin="bevel"
     stroke-width="12.5"
     stroke="#000000"
     fill="none"
     class="BarLine" />
  <polyline
     transform="translate(-141.732,-275.123)"
     id="polyline814"
     points="2308.57,597.733 2308.57,712.233"
     stroke-linejoin="bevel"
     stroke-width="4"
     stroke="#000000"
     fill="none"
     class="BarLine" />
  <polyline
     transform="translate(-141.732,-275.123)"
     id="polyline816"
     points="2308.57,315.732 2308.57,598.733"
     stroke-linejoin="bevel"
     stroke-width="4"
     stroke="#000000"
     fill="none"
     class="BarLine" />
  <polyline
     transform="translate(-141.732,-275.123)"
     id="polyline818"
     points="1642.66,597.733 1642.66,712.233"
     stroke-linejoin="bevel"
     stroke-width="4"
     stroke="#000000"
     fill="none"
     class="BarLine" />
  <polyline
     transform="translate(-141.732,-275.123)"
     id="polyline820"
     points="1642.66,315.732 1642.66,598.733"
     stroke-linejoin="bevel"
     stroke-width="4"
     stroke="#000000"
     fill="none"
     class="BarLine" />
  <polyline
     transform="translate(-141.732,-275.123)"
     id="polyline822"
     points="972.563,597.733 972.563,712.233"
     stroke-linejoin="bevel"
     stroke-width="4"
     stroke="#000000"
     fill="none"
     class="BarLine" />
  <polyline
     transform="translate(-141.732,-275.123)"
     id="polyline824"
     points="972.563,315.732 972.563,598.733"
     stroke-linejoin="bevel"
     stroke-width="4"
     stroke="#000000"
     fill="none"
     class="BarLine" />
  <polyline
     transform="translate(-141.732,-275.123)"
     id="polyline826"
     points="143.732,597.733 143.732,712.233"
     stroke-linejoin="bevel"
     stroke-width="4"
     stroke="#000000"
     fill="none"
     class="BarLine" />
  <polyline
     transform="translate(-141.732,-275.123)"
     id="polyline828"
     points="143.732,315.732 143.732,598.733"
     stroke-linejoin="bevel"
     stroke-width="4"
     stroke="#000000"
     fill="none"
     class="BarLine" />
  <polyline
     transform="translate(-141.732,-275.123)"
     id="polyline830"
     points="2641.74,441.732 2691.46,441.732"
     stroke-linejoin="bevel"
     stroke-linecap="square"
     stroke-width="4"
     stroke="#000000"
     fill="none"
     class="LedgerLine" />
  <polyline
     transform="translate(-141.732,-275.123)"
     id="polyline832"
     points="345.904,441.732 393.818,441.732"
     stroke-linejoin="bevel"
     stroke-linecap="square"
     stroke-width="4"
     stroke="#000000"
     fill="none"
     class="LedgerLine" />
  <polyline
     transform="translate(-141.732,-275.123)"
     id="polyline834"
     points="2682.33,437.892 2682.33,354.232"
     stroke-linejoin="bevel"
     stroke-linecap="round"
     stroke-width="3.25"
     stroke="#000000"
     fill="none"
     class="Stem" />
  <polyline
     transform="translate(-141.732,-275.123)"
     id="polyline836"
     points="2530.41,424.537 2530.41,341.732"
     stroke-linejoin="bevel"
     stroke-linecap="round"
     stroke-width="3.25"
     stroke="#000000"
     fill="none"
     class="Stem" />
  <polyline
     transform="translate(-141.732,-275.123)"
     id="polyline838"
     points="2379.4,412.037 2379.4,329.232"
     stroke-linejoin="bevel"
     stroke-linecap="round"
     stroke-width="3.25"
     stroke="#000000"
     fill="none"
     class="Stem" />
  <polyline
     transform="translate(-141.732,-275.123)"
     id="polyline840"
     points="2181.77,399.537 2181.77,316.732"
     stroke-linejoin="bevel"
     stroke-linecap="round"
     stroke-width="3.25"
     stroke="#000000"
     fill="none"
     class="Stem" />
  <polyline
     transform="translate(-141.732,-275.123)"
     id="polyline842"
     points="2025.68,387.037 2025.68,307.357"
     stroke-linejoin="bevel"
     stroke-linecap="round"
     stroke-width="3.25"
     stroke="#000000"
     fill="none"
     class="Stem" />
  <polyline
     transform="translate(-141.732,-275.123)"
     id="polyline844"
     points="1869.59,374.537 1869.59,297.982"
     stroke-linejoin="bevel"
     stroke-linecap="round"
     stroke-width="3.25"
     stroke="#000000"
     fill="none"
     class="Stem" />
  <polyline
     transform="translate(-141.732,-275.123)"
     id="polyline846"
     points="1683.83,371.428 1683.83,444.857"
     stroke-linejoin="bevel"
     stroke-linecap="round"
     stroke-width="3.25"
     stroke="#000000"
     fill="none"
     class="Stem" />
  <polyline
     transform="translate(-141.732,-275.123)"
     id="polyline848"
     points="1485.9,358.928 1485.9,435.482"
     stroke-linejoin="bevel"
     stroke-linecap="round"
     stroke-width="3.25"
     stroke="#000000"
     fill="none"
     class="Stem" />
  <polyline
     transform="translate(-141.732,-275.123)"
     id="polyline850"
     points="1329.51,371.428 1329.51,444.857"
     stroke-linejoin="bevel"
     stroke-linecap="round"
     stroke-width="3.25"
     stroke="#000000"
     fill="none"
     class="Stem" />
  <polyline
     transform="translate(-141.732,-275.123)"
     id="polyline852"
     points="1202.78,374.537 1202.78,297.982"
     stroke-linejoin="bevel"
     stroke-linecap="round"
     stroke-width="3.25"
     stroke="#000000"
     fill="none"
     class="Stem" />
  <polyline
     transform="translate(-141.732,-275.123)"
     id="polyline854"
     points="1046.4,387.037 1046.4,307.357"
     stroke-linejoin="bevel"
     stroke-linecap="round"
     stroke-width="3.25"
     stroke="#000000"
     fill="none"
     class="Stem" />
  <polyline
     transform="translate(-141.732,-275.123)"
     id="polyline856"
     points="847.562,399.537 847.562,316.732"
     stroke-linejoin="bevel"
     stroke-linecap="round"
     stroke-width="3.25"
     stroke="#000000"
     fill="none"
     class="Stem" />
  <polyline
     transform="translate(-141.732,-275.123)"
     id="polyline858"
     points="693.273,412.037 693.273,329.232"
     stroke-linejoin="bevel"
     stroke-linecap="round"
     stroke-width="3.25"
     stroke="#000000"
     fill="none"
     class="Stem" />
  <polyline
     transform="translate(-141.732,-275.123)"
     id="polyline860"
     points="538.983,424.537 538.983,341.732"
     stroke-linejoin="bevel"
     stroke-linecap="round"
     stroke-width="3.25"
     stroke="#000000"
     fill="none"
     class="Stem" />
  <polyline
     transform="translate(-141.732,-275.123)"
     id="polyline862"
     points="384.693,437.037 384.693,354.232"
     stroke-linejoin="bevel"
     stroke-linecap="round"
     stroke-width="3.25"
     stroke="#000000"
     fill="none"
     class="Stem" />
  <path
     id="path864"
     d="m 2513.158,379.86 h 28 v 37.5 h -28 v -37.5"
     fill-rule="evenodd"
     fill="#ffffff"
     class="Note" />
  <path
     id="path866"
     d="m 2534.288,409.414 c -1.85,2.88 -4.32,4.321 -7.38,4.321 -3.06,0 -5.52,-1.469 -7.38,-4.407 -1.86,-2.937 -2.79,-6.718 -2.79,-11.343 0,-4.344 0.93,-7.98 2.79,-10.907 1.86,-2.927 4.38,-4.39 7.55,-4.39 2.95,0 5.36,1.44 7.21,4.32 1.86,2.88 2.79,6.633 2.79,11.258 0,4.552 -0.93,8.268 -2.79,11.148 m -7.33,-25.554 c -3.93,0 -5.89,4.843 -5.89,14.531 0,9.448 1.95,14.172 5.84,14.172 3.9,0 5.85,-4.74 5.85,-14.219 0,-4.708 -0.5,-8.3 -1.49,-10.773 -0.99,-2.474 -2.43,-3.711 -4.31,-3.711"
     class="Note" />
  <path
     id="path868"
     d="m 2539.058,160.063 c 0,-1.105 -0.43,-2.047 -1.27,-2.829 -0.85,-0.843 -1.83,-1.265 -2.94,-1.265 -1.94,0 -5.88,1.953 -11.81,5.859 -6.12,3.969 -9.87,6.802 -11.23,8.5 -0.72,0.906 -1.08,1.849 -1.08,2.828 0,1.105 0.43,2.047 1.28,2.828 0.78,0.844 1.76,1.266 2.92,1.266 1.89,0 5.86,-1.953 11.92,-5.859 5.99,-3.907 9.7,-6.74 11.13,-8.5 0.72,-0.844 1.08,-1.787 1.08,-2.828 m -5.18,-7.219 c 5.6,0 8.4,2.406 8.4,7.219 0,2.343 -0.69,5.078 -2.05,8.203 -1.37,3.062 -3.19,5.406 -5.47,7.031 -5.01,3.385 -11.29,5.078 -18.84,5.078 -5.61,0 -8.41,-2.406 -8.41,-7.219 0,-2.145 0.68,-4.849 2.05,-8.109 1.3,-3.125 3.12,-5.5 5.47,-7.125 5.02,-3.385 11.3,-5.078 18.85,-5.078"
     class="Note" />
  <path
     id="path870"
     d="m 2362.148,379.86 h 28 v 37.5 h -28 v -37.5"
     fill-rule="evenodd"
     fill="#ffffff"
     class="Note" />
  <path
     id="path872"
     d="m 2366.038,391.641 c 0.15,-0.688 0.3,-1.284 0.45,-1.789 0.15,-0.505 0.47,-1.242 0.97,-2.211 0.5,-0.969 1.06,-1.774 1.67,-2.414 0.61,-0.641 1.47,-1.216 2.56,-1.727 1.1,-0.51 2.33,-0.765 3.71,-0.765 2.34,0 4.31,0.76 5.92,2.281 1.6,1.521 2.4,3.401 2.4,5.64 0,3.386 -1.92,7.089 -5.76,11.11 l -7.55,7.922 h 10.75 c 1.02,0 1.78,-0.172 2.27,-0.516 0.5,-0.344 1.17,-1.161 2.01,-2.453 l 0.58,0.219 -2.47,6.172 h -17.56 v -0.547 l 8.02,-8.5 c 3.89,-4.136 5.84,-8.037 5.84,-11.703 0,-1.886 -0.58,-3.414 -1.75,-4.586 -1.17,-1.172 -2.7,-1.758 -4.59,-1.758 -1.56,0 -2.81,0.427 -3.75,1.281 -0.95,0.854 -1.87,2.38 -2.77,4.578 l -0.95,-0.234"
     class="Note" />
  <path
     id="path874"
     d="m 2379.358,140.344 c 3.13,0 5.77,0.812 7.93,2.437 2.01,1.761 3.01,3.974 3.01,6.641 0,4.49 -2.31,8.687 -6.92,12.594 -4.69,3.906 -9.7,5.859 -15.05,5.859 -3.12,0 -5.76,-0.812 -7.9,-2.437 -2.02,-1.761 -3.03,-3.974 -3.03,-6.641 0,-4.49 2.34,-8.688 7.03,-12.594 4.56,-3.906 9.54,-5.859 14.93,-5.859"
     class="Note" />
  <path
     id="path876"
     d="m 2211.128,342.36 h 28 v 37.5 h -28 v -37.5"
     fill-rule="evenodd"
     fill="#ffffff"
     class="Note" />
  <path
     id="path878"
     d="m 2232.258,371.914 c -1.86,2.88 -4.32,4.321 -7.38,4.321 -3.06,0 -5.52,-1.469 -7.38,-4.407 -1.86,-2.937 -2.79,-6.718 -2.79,-11.343 0,-4.344 0.93,-7.98 2.79,-10.907 1.86,-2.927 4.37,-4.39 7.55,-4.39 2.95,0 5.35,1.44 7.21,4.32 1.86,2.88 2.79,6.633 2.79,11.258 0,4.552 -0.93,8.268 -2.79,11.148 m -7.33,-25.554 c -3.93,0 -5.89,4.843 -5.89,14.531 0,9.448 1.94,14.172 5.84,14.172 3.9,0 5.84,-4.74 5.84,-14.219 0,-4.708 -0.49,-8.3 -1.48,-10.773 -0.99,-2.474 -2.43,-3.711 -4.31,-3.711"
     class="Note" />
  <path
     id="path880"
     d="m 2228.348,127.844 c 3.12,0 5.76,0.812 7.92,2.437 2.01,1.761 3.02,3.974 3.02,6.641 0,4.49 -2.31,8.687 -6.93,12.594 -4.68,3.906 -9.7,5.859 -15.04,5.859 -3.13,0 -5.76,-0.812 -7.91,-2.437 -2.02,-1.761 -3.03,-3.974 -3.03,-6.641 0,-4.49 2.34,-8.688 7.03,-12.594 4.56,-3.906 9.54,-5.859 14.94,-5.859"
     class="Note" />
  <path
     id="path882"
     d="m 2013.498,342.36 h 28 v 37.5 h -28 v -37.5"
     fill-rule="evenodd"
     fill="#ffffff"
     class="Note" />
  <path
     id="path884"
     d="m 2024.228,348.922 c -0.54,0 -1.62,0.333 -3.23,1 v -0.641 l 8.09,-4.093 0.36,0.093 v 27 c 0,1.084 0.27,1.79 0.81,2.118 0.54,0.328 1.7,0.507 3.47,0.539 v 0.672 h -12.42 v -0.672 c 1.68,-0.063 2.81,-0.31 3.39,-0.742 0.58,-0.433 0.87,-1.357 0.87,-2.774 v -20.375 c 0,-1.417 -0.44,-2.125 -1.34,-2.125"
     class="Note" />
  <path
     id="path886"
     d="m 2030.718,115.344 c 3.12,0 5.76,0.812 7.92,2.437 2.01,1.761 3.01,3.974 3.01,6.641 0,4.49 -2.3,8.687 -6.92,12.594 -4.69,3.906 -9.7,5.859 -15.05,5.859 -3.12,0 -5.76,-0.812 -7.9,-2.437 -2.02,-1.761 -3.03,-3.974 -3.03,-6.641 0,-4.49 2.34,-8.688 7.03,-12.594 4.56,-3.906 9.54,-5.859 14.94,-5.859"
     class="Note" />
  <path
     id="path888"
     d="m 1857.408,342.36 h 28 v 37.5 h -28 v -37.5"
     fill-rule="evenodd"
     fill="#ffffff"
     class="Note" />
  <path
     id="path890"
     d="m 1863.548,372.094 c 0.7,0 1.73,0.406 3.09,1.219 1.37,0.812 2.55,1.218 3.56,1.218 1.66,0 3.06,-0.64 4.2,-1.921 1.14,-1.282 1.71,-2.86 1.71,-4.735 0,-1.166 -0.2,-2.198 -0.61,-3.094 -0.41,-0.895 -0.92,-1.588 -1.55,-2.078 -0.63,-0.489 -1.38,-0.89 -2.25,-1.203 -0.87,-0.312 -1.69,-0.513 -2.46,-0.601 -0.76,-0.089 -1.58,-0.133 -2.44,-0.133 v -0.594 c 1.02,-0.354 1.9,-0.706 2.63,-1.055 0.73,-0.349 1.51,-0.815 2.31,-1.398 0.81,-0.583 1.43,-1.294 1.87,-2.133 0.44,-0.838 0.66,-1.799 0.66,-2.883 0,-1.406 -0.46,-2.56 -1.38,-3.461 -0.92,-0.901 -2.11,-1.351 -3.58,-1.351 -1.4,0 -2.64,0.383 -3.71,1.148 -1.07,0.766 -2.06,1.972 -2.99,3.617 l -0.67,-0.171 c 0.77,-2.136 1.82,-3.886 3.16,-5.25 1.34,-1.365 3.24,-2.047 5.7,-2.047 2.07,0 3.76,0.57 5.06,1.711 1.3,1.14 1.95,2.627 1.95,4.461 0,1.229 -0.31,2.307 -0.94,3.234 -0.63,0.927 -1.73,1.917 -3.29,2.969 1.8,0.781 3.21,1.776 4.23,2.984 1.02,1.208 1.53,2.932 1.53,5.172 0,3.187 -1.17,5.737 -3.53,7.648 -2.35,1.912 -5.31,2.868 -8.89,2.868 -1.55,0 -2.78,-0.232 -3.7,-0.696 -0.92,-0.463 -1.38,-1.086 -1.38,-1.867 0,-0.479 0.16,-0.862 0.47,-1.148 0.32,-0.287 0.73,-0.43 1.24,-0.43"
     class="Note" />
  <path
     id="path892"
     d="m 1874.628,102.844 c 3.12,0 5.76,0.812 7.92,2.437 2.01,1.761 3.01,3.974 3.01,6.641 0,4.49 -2.3,8.687 -6.92,12.594 -4.69,3.906 -9.7,5.859 -15.05,5.859 -3.12,0 -5.76,-0.812 -7.9,-2.437 -2.02,-1.761 -3.03,-3.974 -3.03,-6.641 0,-4.49 2.34,-8.688 7.03,-12.594 4.56,-3.906 9.54,-5.859 14.94,-5.859"
     class="Note" />
  <path
     id="path894"
     d="m 1701.318,304.86 h 28 v 37.5 h -28 v -37.5"
     fill-rule="evenodd"
     fill="#ffffff"
     class="Note" />
  <path
     id="path896"
     d="m 1722.448,334.414 c -1.86,2.88 -4.32,4.321 -7.38,4.321 -3.07,0 -5.53,-1.469 -7.39,-4.407 -1.85,-2.937 -2.78,-6.718 -2.78,-11.343 0,-4.344 0.93,-7.98 2.78,-10.907 1.86,-2.927 4.38,-4.39 7.56,-4.39 2.95,0 5.35,1.44 7.21,4.32 1.86,2.88 2.79,6.633 2.79,11.258 0,4.552 -0.93,8.268 -2.79,11.148 m -7.34,-25.554 c -3.92,0 -5.89,4.843 -5.89,14.531 0,9.448 1.95,14.172 5.85,14.172 3.89,0 5.84,-4.74 5.84,-14.219 0,-4.708 -0.49,-8.3 -1.48,-10.774 -0.99,-2.473 -2.43,-3.71 -4.32,-3.71"
     class="Note" />
  <path
     id="path898"
     d="m 1718.538,90.344 c 3.12,0 5.76,0.812 7.92,2.437 2.01,1.761 3.01,3.974 3.01,6.641 0,4.49 -2.3,8.687 -6.92,12.594 -4.69,3.906 -9.7,5.859 -15.05,5.859 -3.12,0 -5.76,-0.812 -7.9,-2.437 -2.02,-1.761 -3.03,-3.974 -3.03,-6.641 0,-4.49 2.34,-8.688 7.03,-12.594 4.56,-3.906 9.54,-5.859 14.94,-5.859"
     class="Note" />
  <path
     id="path900"
     d="m 1545.228,304.86 h 28 v 37.5 h -28 v -37.5"
     fill-rule="evenodd"
     fill="#ffffff"
     class="Note" />
  <path
     id="path902"
     d="m 1549.118,316.641 c 0.15,-0.688 0.31,-1.284 0.45,-1.789 0.15,-0.505 0.47,-1.242 0.97,-2.211 0.5,-0.969 1.06,-1.774 1.67,-2.414 0.62,-0.641 1.47,-1.216 2.56,-1.727 1.1,-0.51 2.33,-0.765 3.71,-0.765 2.34,0 4.32,0.76 5.92,2.281 1.6,1.521 2.41,3.401 2.41,5.64 0,3.386 -1.93,7.089 -5.77,11.11 l -7.55,7.922 h 10.75 c 1.02,0 1.78,-0.172 2.28,-0.516 0.49,-0.344 1.16,-1.161 2,-2.453 l 0.58,0.219 -2.47,6.172 h -17.56 v -0.547 l 8.02,-8.5 c 3.89,-4.136 5.84,-8.037 5.84,-11.703 0,-1.886 -0.58,-3.415 -1.75,-4.586 -1.17,-1.172 -2.7,-1.758 -4.59,-1.758 -1.55,0 -2.8,0.427 -3.75,1.281 -0.95,0.854 -1.87,2.38 -2.77,4.578 l -0.95,-0.234"
     class="Note" />
  <path
     id="path904"
     d="m 1562.448,77.844 c 3.12,0 5.76,0.812 7.92,2.437 2.01,1.761 3.01,3.974 3.01,6.641 0,4.49 -2.3,8.687 -6.92,12.594 -4.69,3.906 -9.7,5.859 -15.04,5.859 -3.13,0 -5.77,-0.812 -7.91,-2.437 -2.02,-1.761 -3.03,-3.974 -3.03,-6.641 0,-4.49 2.34,-8.688 7.03,-12.594 4.56,-3.906 9.54,-5.859 14.94,-5.859"
     class="Note" />
  <path
     id="path906"
     d="m 1347.298,304.86 h 28 v 37.5 h -28 v -37.5"
     fill-rule="evenodd"
     fill="#ffffff"
     class="Note" />
  <path
     id="path908"
     d="m 1353.438,334.594 c 0.69,0 1.72,0.406 3.09,1.219 1.36,0.812 2.55,1.218 3.56,1.218 1.66,0 3.06,-0.64 4.2,-1.921 1.14,-1.282 1.71,-2.86 1.71,-4.735 0,-1.166 -0.2,-2.198 -0.61,-3.094 -0.41,-0.895 -0.93,-1.588 -1.56,-2.078 -0.63,-0.489 -1.38,-0.89 -2.25,-1.203 -0.87,-0.312 -1.68,-0.513 -2.45,-0.601 -0.76,-0.089 -1.58,-0.133 -2.44,-0.133 v -0.594 c 1.02,-0.354 1.89,-0.706 2.63,-1.055 0.73,-0.349 1.5,-0.815 2.31,-1.398 0.81,-0.583 1.43,-1.294 1.87,-2.133 0.44,-0.838 0.65,-1.799 0.65,-2.883 0,-1.406 -0.45,-2.56 -1.37,-3.461 -0.92,-0.901 -2.11,-1.351 -3.58,-1.351 -1.4,0 -2.64,0.383 -3.71,1.148 -1.07,0.766 -2.06,1.972 -2.99,3.617 l -0.67,-0.171 c 0.77,-2.136 1.82,-3.886 3.16,-5.25 1.34,-1.365 3.24,-2.047 5.7,-2.047 2.07,0 3.76,0.57 5.06,1.711 1.3,1.14 1.95,2.627 1.95,4.461 0,1.229 -0.31,2.307 -0.94,3.234 -0.63,0.927 -1.73,1.917 -3.29,2.969 1.8,0.781 3.21,1.776 4.23,2.984 1.02,1.208 1.53,2.932 1.53,5.172 0,3.187 -1.17,5.737 -3.53,7.648 -2.35,1.912 -5.32,2.868 -8.89,2.868 -1.55,0 -2.79,-0.232 -3.7,-0.696 -0.92,-0.463 -1.38,-1.086 -1.38,-1.867 0,-0.479 0.16,-0.862 0.47,-1.148 0.31,-0.287 0.73,-0.43 1.24,-0.43"
     class="Note" />
  <path
     id="path910"
     d="m 1364.508,65.344 c 3.13,0 5.77,0.812 7.93,2.437 2.01,1.761 3.01,3.974 3.01,6.641 0,4.49 -2.31,8.687 -6.92,12.594 -4.69,3.906 -9.7,5.859 -15.05,5.859 -3.12,0 -5.76,-0.812 -7.9,-2.437 -2.02,-1.761 -3.03,-3.974 -3.03,-6.641 0,-4.49 2.34,-8.688 7.03,-12.594 4.56,-3.906 9.54,-5.859 14.93,-5.859"
     class="Note" />
  <path
     id="path912"
     d="m 1190.908,304.86 h 28 v 37.5 h -28 v -37.5"
     fill-rule="evenodd"
     fill="#ffffff"
     class="Note" />
  <path
     id="path914"
     d="m 1194.798,316.641 c 0.15,-0.688 0.3,-1.284 0.45,-1.789 0.15,-0.505 0.47,-1.242 0.97,-2.211 0.5,-0.969 1.06,-1.774 1.67,-2.414 0.61,-0.641 1.47,-1.216 2.56,-1.727 1.1,-0.51 2.33,-0.765 3.71,-0.765 2.34,0 4.31,0.76 5.92,2.281 1.6,1.521 2.4,3.401 2.4,5.64 0,3.386 -1.92,7.089 -5.76,11.11 l -7.55,7.922 h 10.75 c 1.02,0 1.78,-0.172 2.27,-0.516 0.5,-0.344 1.17,-1.161 2.01,-2.453 l 0.58,0.219 -2.47,6.172 h -17.56 v -0.547 l 8.01,-8.5 c 3.9,-4.136 5.85,-8.037 5.85,-11.703 0,-1.886 -0.58,-3.415 -1.75,-4.586 -1.17,-1.172 -2.7,-1.758 -4.6,-1.758 -1.55,0 -2.8,0.427 -3.75,1.281 -0.94,0.854 -1.86,2.38 -2.76,4.578 l -0.95,-0.234"
     class="Note" />
  <path
     id="path916"
     d="m 1208.118,77.844 c 3.13,0 5.77,0.812 7.93,2.437 2.01,1.761 3.01,3.974 3.01,6.641 0,4.49 -2.31,8.687 -6.92,12.594 -4.69,3.906 -9.7,5.859 -15.05,5.859 -3.12,0 -5.76,-0.812 -7.9,-2.437 -2.02,-1.761 -3.03,-3.974 -3.03,-6.641 0,-4.49 2.34,-8.688 7.03,-12.594 4.56,-3.906 9.54,-5.859 14.93,-5.859"
     class="Note" />
  <path
     id="path918"
     d="m 1034.518,304.86 h 28 v 37.5 h -28 v -37.5"
     fill-rule="evenodd"
     fill="#ffffff"
     class="Note" />
  <path
     id="path920"
     d="m 1055.648,334.414 c -1.86,2.88 -4.32,4.321 -7.38,4.321 -3.07,0 -5.53,-1.469 -7.39,-4.407 -1.86,-2.937 -2.79,-6.718 -2.79,-11.343 0,-4.344 0.93,-7.98 2.79,-10.907 1.86,-2.927 4.38,-4.39 7.56,-4.39 2.95,0 5.35,1.44 7.21,4.32 1.86,2.88 2.79,6.633 2.79,11.258 0,4.552 -0.93,8.268 -2.79,11.148 m -7.34,-25.554 c -3.92,0 -5.89,4.843 -5.89,14.531 0,9.448 1.95,14.172 5.85,14.172 3.89,0 5.84,-4.74 5.84,-14.219 0,-4.708 -0.5,-8.3 -1.48,-10.774 -0.99,-2.473 -2.43,-3.71 -4.32,-3.71"
     class="Note" />
  <path
     id="path922"
     d="m 1051.728,90.344 c 3.13,0 5.77,0.812 7.93,2.437 2.01,1.761 3.01,3.974 3.01,6.641 0,4.49 -2.31,8.687 -6.92,12.594 -4.69,3.906 -9.7,5.859 -15.05,5.859 -3.12,0 -5.76,-0.812 -7.9,-2.437 -2.02,-1.761 -3.03,-3.974 -3.03,-6.641 0,-4.49 2.34,-8.688 7.03,-12.594 4.56,-3.906 9.54,-5.859 14.93,-5.859"
     class="Note" />
  <path
     id="path924"
     d="m 878.128,342.36 h 28 v 37.5 h -28 v -37.5"
     fill-rule="evenodd"
     fill="#ffffff"
     class="Note" />
  <path
     id="path926"
     d="m 884.268,372.094 c 0.69,0 1.73,0.406 3.09,1.219 1.37,0.812 2.55,1.218 3.56,1.218 1.66,0 3.06,-0.64 4.2,-1.921 1.14,-1.282 1.71,-2.86 1.71,-4.735 0,-1.166 -0.2,-2.198 -0.61,-3.094 -0.41,-0.895 -0.92,-1.588 -1.55,-2.078 -0.64,-0.489 -1.39,-0.89 -2.25,-1.203 -0.87,-0.312 -1.69,-0.513 -2.46,-0.601 -0.76,-0.089 -1.58,-0.133 -2.44,-0.133 v -0.594 c 1.02,-0.354 1.9,-0.706 2.63,-1.055 0.73,-0.349 1.5,-0.815 2.31,-1.398 0.81,-0.583 1.43,-1.294 1.87,-2.133 0.44,-0.838 0.66,-1.799 0.66,-2.883 0,-1.406 -0.46,-2.56 -1.38,-3.461 -0.92,-0.901 -2.11,-1.351 -3.58,-1.351 -1.4,0 -2.64,0.383 -3.71,1.148 -1.07,0.766 -2.06,1.972 -2.99,3.617 l -0.67,-0.171 c 0.77,-2.136 1.82,-3.886 3.16,-5.25 1.34,-1.365 3.24,-2.047 5.7,-2.047 2.07,0 3.76,0.57 5.06,1.711 1.3,1.14 1.95,2.627 1.95,4.461 0,1.229 -0.31,2.307 -0.94,3.234 -0.63,0.927 -1.73,1.917 -3.29,2.969 1.8,0.781 3.21,1.776 4.23,2.984 1.02,1.208 1.53,2.932 1.53,5.172 0,3.187 -1.17,5.737 -3.53,7.648 -2.35,1.912 -5.32,2.868 -8.89,2.868 -1.55,0 -2.78,-0.232 -3.7,-0.696 -0.92,-0.463 -1.38,-1.086 -1.38,-1.867 0,-0.479 0.16,-0.862 0.47,-1.148 0.31,-0.287 0.73,-0.43 1.24,-0.43"
     class="Note" />
  <path
     id="path928"
     d="m 895.338,102.844 c 3.13,0 5.77,0.812 7.93,2.437 2.01,1.761 3.01,3.974 3.01,6.641 0,4.49 -2.31,8.687 -6.92,12.594 -4.69,3.906 -9.7,5.859 -15.05,5.859 -3.12,0 -5.76,-0.812 -7.9,-2.437 -2.02,-1.761 -3.03,-3.974 -3.03,-6.641 0,-4.49 2.34,-8.688 7.03,-12.594 4.56,-3.906 9.54,-5.859 14.93,-5.859"
     class="Note" />
  <path
     id="path930"
     d="m 679.291,342.36 h 28 v 37.5 h -28 v -37.5"
     fill-rule="evenodd"
     fill="#ffffff"
     class="Note" />
  <path
     id="path932"
     d="m 690.026,348.922 c -0.542,0 -1.62,0.333 -3.235,1 v -0.641 l 8.094,-4.093 0.359,0.093 v 27 c 0,1.084 0.271,1.79 0.813,2.118 0.542,0.328 1.698,0.507 3.469,0.539 v 0.672 h -12.422 v -0.672 c 1.677,-0.063 2.807,-0.31 3.39,-0.742 0.584,-0.433 0.875,-1.357 0.875,-2.774 v -20.375 c 0,-1.417 -0.447,-2.125 -1.343,-2.125"
     class="Note" />
  <path
     id="path934"
     d="m 696.51,115.344 c 3.125,0 5.766,0.812 7.922,2.437 2.01,1.761 3.016,3.974 3.016,6.641 0,4.49 -2.308,8.687 -6.922,12.594 -4.688,3.906 -9.703,5.859 -15.047,5.859 -3.125,0 -5.761,-0.812 -7.906,-2.437 -2.021,-1.761 -3.032,-3.974 -3.032,-6.641 0,-4.49 2.344,-8.688 7.032,-12.594 4.562,-3.906 9.541,-5.859 14.937,-5.859"
     class="Note" />
  <path
     id="path936"
     d="m 525.002,342.36 h 28 v 37.5 h -28 v -37.5"
     fill-rule="evenodd"
     fill="#ffffff"
     class="Note" />
  <path
     id="path938"
     d="m 546.134,371.914 c -1.859,2.88 -4.32,4.321 -7.382,4.321 -3.063,0 -5.524,-1.469 -7.383,-4.407 -1.86,-2.937 -2.789,-6.718 -2.789,-11.343 0,-4.344 0.929,-7.98 2.789,-10.907 1.859,-2.927 4.377,-4.39 7.555,-4.39 2.947,0 5.351,1.44 7.21,4.32 1.86,2.88 2.79,6.633 2.79,11.258 0,4.552 -0.93,8.268 -2.79,11.148 m -7.335,-25.554 c -3.928,0 -5.891,4.843 -5.891,14.531 0,9.448 1.948,14.172 5.844,14.172 3.896,0 5.843,-4.74 5.843,-14.219 0,-4.708 -0.494,-8.3 -1.484,-10.773 -0.99,-2.474 -2.427,-3.711 -4.312,-3.711"
     class="Note" />
  <path
     id="path940"
     d="m 542.22,127.844 c 3.125,0 5.766,0.812 7.922,2.437 2.011,1.761 3.016,3.974 3.016,6.641 0,4.49 -2.307,8.687 -6.922,12.594 -4.687,3.906 -9.703,5.859 -15.047,5.859 -3.125,0 -5.76,-0.812 -7.906,-2.437 -2.021,-1.761 -3.031,-3.974 -3.031,-6.641 0,-4.49 2.343,-8.688 7.031,-12.594 4.562,-3.906 9.542,-5.859 14.937,-5.859"
     class="Note" />
  <path
     id="path942"
     d="m 370.712,379.86 h 28 v 37.5 h -28 v -37.5"
     fill-rule="evenodd"
     fill="#ffffff"
     class="Note" />
  <path
     id="path944"
     d="m 374.603,391.641 c 0.156,-0.688 0.307,-1.284 0.453,-1.789 0.146,-0.505 0.468,-1.242 0.968,-2.211 0.5,-0.969 1.058,-1.774 1.672,-2.414 0.615,-0.641 1.469,-1.216 2.563,-1.727 1.094,-0.51 2.328,-0.765 3.703,-0.765 2.344,0 4.318,0.76 5.922,2.281 1.604,1.521 2.406,3.401 2.406,5.64 0,3.386 -1.922,7.089 -5.766,11.11 l -7.546,7.922 h 10.75 c 1.02,0 1.778,-0.172 2.273,-0.516 0.495,-0.344 1.164,-1.161 2.008,-2.453 l 0.578,0.219 -2.469,6.172 h -17.562 v -0.547 l 8.015,-8.5 c 3.896,-4.136 5.844,-8.037 5.844,-11.703 0,-1.886 -0.583,-3.414 -1.75,-4.586 -1.167,-1.172 -2.698,-1.758 -4.594,-1.758 -1.552,0 -2.802,0.427 -3.75,1.281 -0.948,0.854 -1.869,2.38 -2.765,4.578 l -0.953,-0.234"
     class="Note" />
  <path
     id="path946"
     d="m 387.931,140.344 c 3.125,0 5.765,0.812 7.922,2.437 2.01,1.761 3.015,3.974 3.015,6.641 0,4.49 -2.307,8.687 -6.922,12.594 -4.687,3.906 -9.703,5.859 -15.047,5.859 -3.125,0 -5.76,-0.812 -7.906,-2.437 -2.021,-1.761 -3.031,-3.974 -3.031,-6.641 0,-4.49 2.344,-8.688 7.031,-12.594 4.563,-3.906 9.542,-5.859 14.938,-5.859"
     class="Note" />
  <path
     id="path948"
     d="m 216.422,379.86 h 28 v 37.5 h -28 v -37.5"
     fill-rule="evenodd"
     fill="#ffffff"
     class="Note" />
  <path
     id="path950"
     d="m 237.555,409.414 c -1.859,2.88 -4.32,4.321 -7.383,4.321 -3.062,0 -5.523,-1.469 -7.383,-4.407 C 220.93,406.391 220,402.61 220,397.985 c 0,-4.344 0.93,-7.98 2.789,-10.907 1.86,-2.927 4.378,-4.39 7.555,-4.39 2.948,0 5.352,1.44 7.211,4.32 1.859,2.88 2.789,6.633 2.789,11.258 0,4.552 -0.93,8.268 -2.789,11.148 m -7.336,-25.554 c -3.927,0 -5.89,4.843 -5.89,14.531 0,9.448 1.947,14.172 5.843,14.172 3.896,0 5.844,-4.74 5.844,-14.219 0,-4.708 -0.495,-8.3 -1.484,-10.773 -0.99,-2.474 -2.427,-3.711 -4.313,-3.711"
     class="Note" />
  <path
     id="path952"
     d="m 233.641,152.844 c 3.125,0 5.766,0.812 7.922,2.437 2.01,1.761 3.016,3.974 3.016,6.641 0,4.49 -2.308,8.687 -6.922,12.594 -4.688,3.906 -9.703,5.859 -15.047,5.859 -3.125,0 -5.761,-0.812 -7.906,-2.437 -2.021,-1.761 -3.032,-3.974 -3.032,-6.641 0,-4.49 2.344,-8.688 7.032,-12.594 4.562,-3.906 9.541,-5.859 14.937,-5.859"
     class="Note" />
  <path
     id="path954"
     d="m 73.219,445.485 c 0,10.031 -6.151,15.046 -18.453,15.046 H 32.797 v -49.812 h 21.969 c 11.26,0 16.891,4.557 16.891,13.672 0,5.208 -2.375,8.432 -7.125,9.672 5.791,1.104 8.687,4.911 8.687,11.422 M 43.141,419.219 v 11.328 h 11.625 c 4.49,0 6.734,-2.052 6.734,-6.156 0,-3.448 -2.244,-5.172 -6.734,-5.172 H 43.141 m 0,19.828 v 12.984 h 11.625 c 5.406,0 8.109,-2.182 8.109,-6.546 0,-4.292 -2.703,-6.438 -8.109,-6.438 H 43.141 M 59.36,393.922 H 41 l -3.422,10.063 h -10.64 l 17.187,-49.813 h 12.11 l 17.187,49.813 H 62.766 L 59.36,393.922 m -2.547,-8.594 -6.641,-19.343 -6.64,19.343 H 56.813 M 55.344,307 v 41.125 H 45 V 307 H 29.86 v -8.687 H 70.485 V 307 H 55.344"
     class="Clef" />
  <path
     id="path956"
     d="m 60.719,91.016 c 0,0 0.198,0 0.594,0 0.26,-0.063 0.484,-0.094 0.672,-0.094 7.291,0 13.281,2.573 17.968,7.719 4.688,5.073 7.032,10.994 7.032,17.765 0,8.407 -3.479,15.245 -10.438,20.516 -1.823,1.437 -4.203,2.609 -7.14,3.516 0.333,4.229 0.5,7.645 0.5,10.25 0,0.52 -0.068,2.411 -0.204,5.671 -0.26,6.053 -2.343,11.292 -6.25,15.719 -3.77,4.365 -8.458,6.547 -14.062,6.547 -5.271,0 -9.76,-1.854 -13.469,-5.562 -3.719,-3.782 -5.578,-8.339 -5.578,-13.672 0,-2.802 1.078,-5.183 3.234,-7.141 2.209,-1.948 4.776,-2.922 7.704,-2.922 2.604,0 4.786,1.011 6.546,3.031 1.823,1.886 2.735,4.23 2.735,7.032 0,2.531 -0.912,4.708 -2.735,6.531 -1.822,1.823 -4.005,2.734 -6.546,2.734 -1.042,0 -2.047,-0.192 -3.016,-0.578 2.865,4.229 6.672,6.344 11.422,6.344 4.489,0 8.166,-1.823 11.031,-5.469 3,-3.771 4.63,-8.166 4.891,-13.187 0.125,-3.125 0.187,-4.912 0.187,-5.36 0,-3.646 -0.13,-6.64 -0.39,-8.984 -3.25,0.521 -6.146,0.781 -8.688,0.781 -9.052,0 -16.766,-3.583 -23.141,-10.75 -6.25,-7.229 -9.375,-15.823 -9.375,-25.781 0,-2.083 0.193,-4.198 0.579,-6.344 0.395,-1.76 0.885,-3.682 1.468,-5.765 0.323,-1.178 1.203,-3.068 2.641,-5.672 0.521,-0.782 1.107,-1.758 1.758,-2.93 0.651,-1.172 1.107,-1.951 1.367,-2.336 0.646,-1.302 1.911,-3.062 3.797,-5.281 0.521,-0.584 1.06,-1.232 1.617,-1.945 0.557,-0.714 1.031,-1.3 1.422,-1.758 0.39,-0.459 0.682,-0.818 0.875,-1.078 0.193,-0.261 1.659,-1.985 4.398,-5.172 0.646,-0.657 1.279,-1.357 1.899,-2.102 0.62,-0.745 1.125,-1.331 1.515,-1.758 0.391,-0.427 0.685,-0.734 0.883,-0.922 C 46.078,54.859 44.61,48.672 44.016,44.047 43.568,40.339 43.344,35.26 43.344,28.813 43.344,23.146 44.646,17.839 47.25,12.891 49.782,7.755 53.328,3.557 57.891,0.297 58.151,0.099 58.474,0 58.86,0 c 0.458,0 0.786,0.099 0.984,0.297 3.51,4.229 6.537,9.729 9.078,16.5 2.604,6.771 3.906,12.927 3.906,18.469 0,6.25 -1.494,12.109 -4.484,17.578 -3.385,5.791 -7.75,11.781 -13.094,17.969 1.365,4.291 3.188,11.026 5.469,20.203 m 8.297,45.422 c 3.385,-1.24 6.026,-3.355 7.922,-6.344 2.083,-2.865 3.125,-6.089 3.125,-9.672 0,-4.625 -1.563,-8.729 -4.688,-12.313 -3.198,-3.708 -7.271,-5.791 -12.218,-6.25 2.802,13.74 4.755,25.266 5.859,34.579 M 31.235,113.875 c 0,6.448 2.604,12.115 7.812,17 5.334,4.75 11.323,7.125 17.969,7.125 2.729,0 5.396,-0.198 8,-0.594 -1.042,-9.896 -3.094,-21.744 -6.156,-35.547 -3.709,0.396 -6.667,1.698 -8.875,3.907 -2.157,2.281 -3.235,4.854 -3.235,7.718 0,4.948 2.641,8.954 7.922,12.016 0.448,0.458 0.672,0.948 0.672,1.469 0,0.521 -0.224,1.005 -0.672,1.453 -0.396,0.458 -0.885,0.687 -1.469,0.687 -0.062,0 -0.354,-0.062 -0.875,-0.187 -3.718,-2.021 -6.583,-4.625 -8.593,-7.813 -1.896,-3.395 -2.844,-6.817 -2.844,-10.265 0,-4.49 1.401,-8.557 4.203,-12.203 2.927,-3.646 6.734,-5.99 11.422,-7.032 -1.823,-7.291 -3.318,-12.989 -4.484,-17.093 -1.042,1.177 -2.295,2.593 -3.758,4.25 -1.464,1.656 -2.326,2.651 -2.586,2.984 -2.344,3.052 -4.136,5.427 -5.375,7.125 -2.219,3.063 -3.849,5.698 -4.891,7.906 -1.104,2.479 -2.078,5.183 -2.922,8.11 -0.843,2.802 -1.265,5.797 -1.265,8.984 M 63.844,14.563 c -4.885,2.406 -8.724,5.854 -11.516,10.343 -2.864,4.625 -4.296,9.604 -4.296,14.938 0,4.687 1.171,11.005 3.515,18.953 4.688,-5.667 8.203,-10.906 10.547,-15.719 2.469,-5.083 3.703,-10.39 3.703,-15.922 0,-4.166 -0.651,-8.364 -1.953,-12.593"
     class="Clef" />
  <path
     id="path958"
     d="m 134.735,42.789 c 1.948,0 3.607,-0.226 4.976,-0.68 1.37,-0.453 2.248,-0.679 2.633,-0.679 0.458,0 0.818,0.13 1.078,0.39 0.198,0.188 0.328,0.412 0.391,0.672 0,0.136 -0.068,0.334 -0.203,0.594 l -28.407,33.016 h 16.688 V 63.008 c 0,-0.844 0.229,-1.563 0.687,-2.156 0.782,-0.646 1.433,-1.037 1.954,-1.172 0.843,-0.386 1.885,-1.297 3.125,-2.735 1.041,-1.166 2.281,-3.213 3.718,-6.14 0.188,-0.396 0.48,-0.594 0.875,-0.594 0.782,0 1.235,0.458 1.36,1.375 v 24.516 h 7.14 c 0.907,0 1.427,0.484 1.563,1.453 0,0.979 -0.521,1.468 -1.563,1.468 h -7.14 v 0.782 c 0,2.604 0.651,4.817 1.953,6.64 1.5,1.823 3.26,2.735 5.281,2.735 0.781,0 1.172,0.39 1.172,1.172 0,0.781 -0.391,1.171 -1.172,1.171 -1.364,0 -3.578,-0.192 -6.641,-0.578 -2.802,-0.458 -4.984,-0.687 -6.546,-0.687 -1.625,0 -3.808,0.229 -6.547,0.687 -2.927,0.386 -5.104,0.578 -6.532,0.578 -0.781,0 -1.171,-0.39 -1.171,-1.171 0,-0.782 0.39,-1.172 1.171,-1.172 2.011,0 3.766,-0.912 5.266,-2.735 1.365,-1.885 2.047,-4.099 2.047,-6.64 v -0.782 h -16.688 c -1.114,0 -1.895,-0.26 -2.343,-0.781 -0.532,-0.385 -0.797,-0.906 -0.797,-1.562 0,-0.198 0.489,-0.88 1.469,-2.047 1.114,-1.302 2.286,-2.896 3.515,-4.781 1.438,-2.219 2.808,-4.5 4.11,-6.844 1.427,-2.667 2.567,-5.729 3.421,-9.188 0.969,-3.51 1.454,-7.088 1.454,-10.734 0,-1.042 0.458,-1.563 1.375,-1.563 0.198,0 0.619,0.099 1.265,0.297 0.198,0.063 0.607,0.159 1.227,0.289 0.62,0.131 1.122,0.258 1.508,0.383 1.177,0.198 2.286,0.297 3.328,0.297"
     class="TimeSig" />
  <path
     id="path960"
     d="m 134.735,92.961 c 1.948,0 3.607,-0.227 4.976,-0.68 1.37,-0.453 2.248,-0.679 2.633,-0.679 0.458,0 0.818,0.13 1.078,0.39 0.198,0.188 0.328,0.412 0.391,0.672 0,0.136 -0.068,0.333 -0.203,0.594 l -28.407,33.016 h 16.688 V 113.18 c 0,-0.844 0.229,-1.563 0.687,-2.156 0.782,-0.646 1.433,-1.037 1.954,-1.172 0.843,-0.386 1.885,-1.297 3.125,-2.735 1.041,-1.166 2.281,-3.213 3.718,-6.14 0.188,-0.396 0.48,-0.594 0.875,-0.594 0.782,0 1.235,0.458 1.36,1.375 v 24.516 h 7.14 c 0.907,0 1.427,0.484 1.563,1.453 0,0.979 -0.521,1.468 -1.563,1.468 h -7.14 v 0.782 c 0,2.604 0.651,4.817 1.953,6.64 1.5,1.823 3.26,2.735 5.281,2.735 0.781,0 1.172,0.39 1.172,1.172 0,0.781 -0.391,1.171 -1.172,1.171 -1.364,0 -3.578,-0.192 -6.641,-0.578 -2.802,-0.458 -4.984,-0.687 -6.546,-0.687 -1.625,0 -3.808,0.229 -6.547,0.687 -2.927,0.386 -5.104,0.578 -6.532,0.578 -0.781,0 -1.171,-0.39 -1.171,-1.171 0,-0.782 0.39,-1.172 1.171,-1.172 2.011,0 3.766,-0.912 5.266,-2.735 1.365,-1.885 2.047,-4.099 2.047,-6.64 v -0.782 h -16.688 c -1.114,0 -1.895,-0.26 -2.343,-0.781 -0.532,-0.385 -0.797,-0.906 -0.797,-1.562 0,-0.198 0.489,-0.881 1.469,-2.047 1.114,-1.302 2.286,-2.896 3.515,-4.781 1.438,-2.219 2.808,-4.5 4.11,-6.844 1.427,-2.667 2.567,-5.729 3.421,-9.188 0.969,-3.51 1.454,-7.088 1.454,-10.734 0,-1.042 0.458,-1.563 1.375,-1.563 0.198,0 0.619,0.099 1.265,0.297 0.198,0.063 0.607,0.159 1.227,0.289 0.62,0.131 1.122,0.258 1.508,0.383 1.177,0.198 2.286,0.297 3.328,0.297"
     class="TimeSig" />
  <path
     id="path962"
     d="m 2508.288,224.734 c 0,-5.687 1.76,-10.307 5.28,-13.859 3.52,-3.552 7.9,-5.328 13.14,-5.328 2.35,0 4.55,0.286 6.6,0.859 2.06,0.573 3.25,0.86 3.57,0.86 1.21,0 1.98,-0.573 2.32,-1.719 h 1.15 l 0.5,12.312 h -1.26 c -2.02,-6.812 -5.97,-10.218 -11.83,-10.218 -4,0 -7.18,1.484 -9.55,4.453 -2.36,2.969 -3.54,6.943 -3.54,11.922 0,3.198 0.41,5.961 1.24,8.289 0.83,2.328 1.94,4.086 3.33,5.273 1.39,1.188 2.82,2.047 4.31,2.578 1.48,0.532 3.07,0.797 4.76,0.797 4.33,0 8.42,-1.849 12.26,-5.547 l 1,0.985 c -1.69,2.239 -3.83,3.963 -6.44,5.172 -2.6,1.208 -5.46,1.812 -8.57,1.812 -5.43,0 -9.83,-1.703 -13.21,-5.109 -3.37,-3.407 -5.06,-7.917 -5.06,-13.532"
     class="Lyrics" />
  <path
     id="path964"
     d="m 2392.458,224.25 c 0,1.646 -0.18,3.258 -0.54,4.836 -0.37,1.578 -1.05,3.208 -2.04,4.891 -0.99,1.682 -2.25,3.138 -3.79,4.367 -1.54,1.229 -3.59,2.247 -6.14,3.055 -2.54,0.807 -5.43,1.21 -8.66,1.21 h -15.61 v -1.046 c 2.08,-0.157 3.41,-0.526 3.99,-1.11 0.57,-0.583 0.85,-1.864 0.85,-3.844 v -24.406 c 0,-2.01 -0.26,-3.289 -0.8,-3.836 -0.54,-0.547 -1.88,-0.919 -4.04,-1.117 v -1.047 h 14.84 c 3.34,0 6.32,0.375 8.94,1.125 2.63,0.75 4.74,1.722 6.33,2.914 1.59,1.193 2.91,2.604 3.95,4.235 1.05,1.63 1.76,3.234 2.14,4.812 0.39,1.578 0.58,3.232 0.58,4.961 m -5.98,0.375 c 0,-1.573 -0.16,-3.081 -0.47,-4.523 -0.31,-1.443 -0.87,-2.904 -1.68,-4.383 -0.81,-1.479 -1.85,-2.748 -3.13,-3.805 -1.28,-1.057 -2.97,-1.924 -5.07,-2.601 -2.09,-0.677 -4.47,-1.016 -7.14,-1.016 -1.14,0 -1.91,0.146 -2.29,0.437 -0.38,0.292 -0.57,0.86 -0.57,1.704 v 27.828 c 0,0.885 0.2,1.482 0.61,1.789 0.4,0.307 1.15,0.461 2.25,0.461 11.66,0 17.49,-5.297 17.49,-15.891"
     class="Lyrics" />
  <path
     id="path966"
     d="m 2217.558,238.156 c 0,1.063 0.3,1.722 0.9,1.977 0.61,0.255 2.23,0.383 4.88,0.383 h 1.48 c 3.92,0 6.72,-0.466 8.41,-1.399 1.68,-0.932 3.21,-2.877 4.56,-5.836 h 1.55 l -2.49,9.328 h -29.69 v -1.046 c 2.02,-0.157 3.31,-0.537 3.9,-1.141 0.59,-0.604 0.89,-1.875 0.89,-3.813 v -24.406 c 0,-1.948 -0.3,-3.224 -0.89,-3.828 -0.59,-0.604 -1.88,-0.979 -3.9,-1.125 v -1.047 h 29.21 l 0.15,7.86 h -1.37 c -0.48,-2.448 -1.21,-4.021 -2.2,-4.719 -0.99,-0.698 -3.05,-1.047 -6.16,-1.047 h -7.42 c -0.73,0 -1.22,0.12 -1.46,0.359 -0.23,0.24 -0.35,0.74 -0.35,1.5 v 12.219 h 8.46 c 2.35,0 3.86,-0.357 4.54,-1.07 0.67,-0.714 1.18,-2.102 1.51,-4.164 h 1.27 v 12.765 h -1.27 c -0.36,-2.27 -0.89,-3.718 -1.59,-4.343 -0.7,-0.625 -2.19,-0.938 -4.46,-0.938 h -8.46 v 13.531"
     class="Lyrics" />
  <path
     id="path968"
     d="m 2036.198,229.906 h -1.26 c -0.32,-2.239 -0.85,-3.679 -1.59,-4.32 -0.73,-0.641 -2.22,-0.961 -4.46,-0.961 h -7.97 v 11.438 c 0,2.239 0.3,3.69 0.91,4.351 0.6,0.662 1.97,1.044 4.09,1.149 v 1.046 h -15.39 v -1.046 c 2.09,-0.146 3.4,-0.539 3.96,-1.18 0.55,-0.641 0.82,-2.096 0.82,-4.367 v -23.813 c 0,-1.948 -0.29,-3.224 -0.88,-3.828 -0.59,-0.604 -1.89,-0.979 -3.9,-1.125 v -1.047 h 29.21 l 0.15,7.86 h -1.37 c -0.48,-2.448 -1.22,-4.021 -2.21,-4.719 -0.99,-0.698 -3.04,-1.047 -6.15,-1.047 h -7.47 c -0.74,0 -1.22,0.12 -1.44,0.359 -0.22,0.24 -0.33,0.74 -0.33,1.5 v 12.219 h 7.97 c 2.2,0 3.68,-0.32 4.43,-0.961 0.76,-0.64 1.3,-2.065 1.62,-4.273 h 1.26 v 12.765"
     class="Lyrics" />
  <path
     id="path970"
     d="m 1870.328,207.641 c -2.08,0 -3.93,0.375 -5.54,1.125 -1.62,0.75 -2.92,1.711 -3.91,2.883 -0.99,1.171 -1.8,2.546 -2.42,4.125 -0.63,1.578 -1.06,3.091 -1.3,4.539 -0.24,1.448 -0.36,2.906 -0.36,4.375 0,5.125 1.3,9.174 3.88,12.148 2.59,2.974 6.12,4.461 10.59,4.461 1.98,0 3.69,-0.323 5.14,-0.969 1.45,-0.646 2.17,-1.411 2.17,-2.297 v -8.968 c 0,-2.073 -0.28,-3.375 -0.85,-3.907 -0.57,-0.531 -1.9,-0.875 -3.99,-1.031 v -0.984 h 14.03 v 0.984 c -1.61,0.156 -2.66,0.5 -3.13,1.031 -0.48,0.532 -0.71,1.61 -0.71,3.235 v 11.234 c -1.11,0.927 -3.1,1.784 -5.98,2.57 -2.88,0.787 -5.49,1.18 -7.84,1.18 -1.64,0 -3.29,-0.164 -4.94,-0.492 -1.65,-0.328 -3.38,-0.932 -5.17,-1.813 -1.8,-0.88 -3.38,-1.989 -4.73,-3.328 -1.35,-1.338 -2.48,-3.125 -3.38,-5.359 -0.9,-2.234 -1.35,-4.784 -1.35,-7.649 0,-5.572 1.76,-10.164 5.3,-13.773 3.54,-3.609 8.06,-5.414 13.56,-5.414 2.13,0 4.23,0.286 6.3,0.859 2.07,0.573 3.27,0.86 3.6,0.86 0.59,0 1.1,-0.164 1.54,-0.492 0.44,-0.329 0.75,-0.737 0.93,-1.227 h 1.22 l 0.44,11.594 h -1.27 c -1.18,-2.886 -2.64,-5.19 -4.41,-6.914 -1.76,-1.724 -4.23,-2.586 -7.42,-2.586"
     class="Lyrics" />
  <path
     id="path972"
     d="m 1732.348,241.563 v 1.046 h -14.03 v -1.046 c 1.47,-0.032 2.48,-0.177 3.03,-0.438 0.55,-0.26 0.83,-0.739 0.83,-1.437 0,-0.875 -0.35,-2.099 -1.05,-3.672 l -2.25,-5.282 h -14.42 l -2.53,6.438 c -0.29,0.76 -0.44,1.474 -0.44,2.141 0,1.5 1.25,2.25 3.75,2.25 v 1.046 h -10.89 v -1.046 c 1.36,-0.073 2.41,-0.594 3.16,-1.563 0.75,-0.969 1.97,-3.453 3.66,-7.453 l 11.43,-27 h 1.11 l 13.69,31.234 c 0.88,2.021 1.62,3.305 2.2,3.852 0.59,0.547 1.5,0.857 2.75,0.93 m -26.95,-13.094 h 12.7 l -6.37,-15.11 -6.33,15.11"
     class="Lyrics" />
  <path
     id="path974"
     d="m 1572.928,232.688 c 0,1.104 -0.2,2.187 -0.6,3.25 -0.4,1.062 -1.07,2.117 -2,3.164 -0.94,1.047 -2.33,1.893 -4.16,2.539 -1.83,0.646 -4.02,0.968 -6.55,0.968 h -18.36 v -1.046 c 2.27,-0.073 3.72,-0.401 4.35,-0.985 0.62,-0.583 0.93,-1.906 0.93,-3.969 v -24.406 c 0,-2.01 -0.3,-3.299 -0.9,-3.867 -0.61,-0.568 -2.06,-0.93 -4.38,-1.086 v -1.047 h 15.39 c 9.61,0 14.41,3.146 14.41,9.438 0,1.208 -0.22,2.278 -0.66,3.211 -0.43,0.932 -0.88,1.646 -1.34,2.14 -0.46,0.495 -1.16,0.961 -2.12,1.399 -0.95,0.437 -1.55,0.685 -1.81,0.742 -0.26,0.057 -0.79,0.19 -1.6,0.398 0.84,0.219 1.48,0.383 1.9,0.493 0.42,0.109 1.19,0.419 2.31,0.929 1.12,0.511 1.99,1.055 2.61,1.633 0.62,0.578 1.2,1.404 1.76,2.477 0.55,1.073 0.82,2.281 0.82,3.625 m -17.32,7.828 c 1.65,0 3.09,-0.11 4.29,-0.328 1.21,-0.219 2.35,-0.594 3.41,-1.125 1.06,-0.532 1.88,-1.326 2.45,-2.383 0.56,-1.057 0.85,-2.373 0.85,-3.946 0,-1.5 -0.29,-2.77 -0.85,-3.812 -0.57,-1.042 -1.26,-1.836 -2.07,-2.383 -0.8,-0.547 -1.92,-0.966 -3.35,-1.258 -1.43,-0.291 -2.69,-0.463 -3.79,-0.515 -1.1,-0.052 -2.56,-0.078 -4.4,-0.078 v 13.578 c 0,0.885 0.24,1.482 0.71,1.789 0.48,0.307 1.39,0.461 2.75,0.461 m -3.46,-17.922 h 5.22 c 2.56,0 4.55,-0.581 5.96,-1.742 1.41,-1.162 2.12,-2.826 2.12,-4.993 0,-2.468 -0.82,-4.346 -2.47,-5.632 -1.64,-1.287 -4.05,-1.93 -7.2,-1.93 h -2.42 c -0.81,0 -1.21,0.552 -1.21,1.656 v 12.641"
     class="Lyrics" />
  <path
     id="path976"
     d="m 1342.418,224.734 c 0,-5.687 1.76,-10.307 5.29,-13.859 3.52,-3.552 7.9,-5.328 13.14,-5.328 2.34,0 4.54,0.286 6.6,0.859 2.05,0.573 3.24,0.86 3.57,0.86 1.21,0 1.98,-0.573 2.31,-1.719 h 1.16 l 0.5,12.312 h -1.27 c -2.02,-6.812 -5.96,-10.218 -11.83,-10.218 -4,0 -7.18,1.484 -9.54,4.453 -2.37,2.969 -3.55,6.943 -3.55,11.922 0,3.198 0.41,5.961 1.24,8.289 0.83,2.328 1.94,4.086 3.33,5.273 1.39,1.188 2.83,2.047 4.31,2.578 1.49,0.532 3.07,0.797 4.76,0.797 4.33,0 8.42,-1.849 12.27,-5.547 l 1,0.985 c -1.69,2.239 -3.84,3.963 -6.44,5.172 -2.61,1.208 -5.47,1.812 -8.58,1.812 -5.43,0 -9.83,-1.703 -13.2,-5.109 -3.38,-3.407 -5.07,-7.917 -5.07,-13.532"
     class="Lyrics" />
  <path
     id="path978"
     d="m 1218.608,232.688 c 0,1.104 -0.2,2.187 -0.6,3.25 -0.4,1.062 -1.07,2.117 -2.01,3.164 -0.93,1.047 -2.32,1.893 -4.15,2.539 -1.84,0.646 -4.02,0.968 -6.55,0.968 h -18.36 v -1.046 c 2.27,-0.073 3.72,-0.401 4.34,-0.985 0.63,-0.583 0.94,-1.906 0.94,-3.969 v -24.406 c 0,-2.01 -0.3,-3.299 -0.9,-3.867 -0.61,-0.568 -2.07,-0.93 -4.38,-1.086 v -1.047 h 15.39 c 9.61,0 14.41,3.146 14.41,9.438 0,1.208 -0.22,2.278 -0.66,3.211 -0.44,0.932 -0.88,1.646 -1.34,2.14 -0.46,0.495 -1.17,0.961 -2.12,1.399 -0.95,0.437 -1.56,0.685 -1.81,0.742 -0.26,0.057 -0.79,0.19 -1.6,0.398 0.84,0.219 1.47,0.383 1.89,0.493 0.43,0.109 1.2,0.419 2.32,0.929 1.12,0.511 1.99,1.055 2.61,1.633 0.62,0.578 1.2,1.404 1.75,2.477 0.56,1.073 0.83,2.281 0.83,3.625 m -17.33,7.828 c 1.66,0 3.09,-0.11 4.3,-0.328 1.21,-0.219 2.34,-0.594 3.41,-1.125 1.06,-0.532 1.88,-1.326 2.44,-2.383 0.57,-1.057 0.85,-2.373 0.85,-3.946 0,-1.5 -0.28,-2.77 -0.85,-3.812 -0.56,-1.042 -1.25,-1.836 -2.06,-2.383 -0.81,-0.547 -1.92,-0.966 -3.35,-1.258 -1.43,-0.291 -2.69,-0.463 -3.79,-0.515 -1.1,-0.052 -2.57,-0.078 -4.4,-0.078 v 13.578 c 0,0.885 0.24,1.482 0.71,1.789 0.48,0.307 1.39,0.461 2.74,0.461 m -3.45,-17.922 h 5.22 c 2.56,0 4.55,-0.581 5.96,-1.742 1.41,-1.162 2.12,-2.826 2.12,-4.993 0,-2.468 -0.82,-4.346 -2.47,-5.632 -1.65,-1.287 -4.05,-1.93 -7.2,-1.93 h -2.43 c -0.8,0 -1.2,0.552 -1.2,1.656 v 12.641"
     class="Lyrics" />
  <path
     id="path980"
     d="m 1065.548,241.563 v 1.046 h -14.03 v -1.046 c 1.47,-0.032 2.48,-0.177 3.03,-0.438 0.55,-0.26 0.83,-0.739 0.83,-1.437 0,-0.875 -0.35,-2.099 -1.05,-3.672 l -2.25,-5.282 h -14.42 l -2.53,6.438 c -0.29,0.76 -0.44,1.474 -0.44,2.141 0,1.5 1.25,2.25 3.75,2.25 v 1.046 h -10.89 v -1.046 c 1.36,-0.073 2.41,-0.594 3.16,-1.563 0.75,-0.969 1.97,-3.453 3.65,-7.453 l 11.44,-27 h 1.11 l 13.69,31.234 c 0.88,2.021 1.62,3.305 2.2,3.852 0.58,0.547 1.5,0.857 2.75,0.93 m -26.95,-13.094 h 12.7 l -6.37,-15.11 -6.33,15.11"
     class="Lyrics" />
  <path
     id="path982"
     d="m 891.048,207.641 c -2.08,0 -3.93,0.375 -5.55,1.125 -1.61,0.75 -2.91,1.711 -3.9,2.883 -0.99,1.171 -1.8,2.546 -2.42,4.125 -0.63,1.578 -1.06,3.091 -1.3,4.539 -0.24,1.448 -0.36,2.906 -0.36,4.375 0,5.125 1.29,9.174 3.88,12.148 2.59,2.974 6.12,4.461 10.59,4.461 1.98,0 3.69,-0.323 5.14,-0.969 1.45,-0.646 2.17,-1.411 2.17,-2.297 v -8.968 c 0,-2.073 -0.28,-3.375 -0.85,-3.907 -0.57,-0.531 -1.9,-0.875 -3.99,-1.031 v -0.984 h 14.03 v 0.984 c -1.62,0.156 -2.66,0.5 -3.13,1.031 -0.48,0.532 -0.71,1.61 -0.71,3.235 v 11.234 c -1.11,0.927 -3.1,1.784 -5.98,2.57 -2.88,0.787 -5.49,1.18 -7.84,1.18 -1.64,0 -3.29,-0.164 -4.94,-0.492 -1.65,-0.328 -3.38,-0.932 -5.17,-1.813 -1.8,-0.88 -3.38,-1.989 -4.73,-3.328 -1.35,-1.338 -2.48,-3.125 -3.38,-5.359 -0.9,-2.234 -1.36,-4.784 -1.36,-7.649 0,-5.572 1.77,-10.164 5.31,-13.773 3.54,-3.609 8.05,-5.414 13.55,-5.414 2.14,0 4.24,0.286 6.31,0.859 2.07,0.573 3.27,0.86 3.6,0.86 0.58,0 1.1,-0.164 1.54,-0.492 0.44,-0.329 0.75,-0.737 0.93,-1.227 h 1.22 l 0.44,11.594 h -1.27 c -1.18,-2.886 -2.65,-5.19 -4.41,-6.914 -1.76,-1.724 -4.23,-2.586 -7.42,-2.586"
     class="Lyrics" />
  <path
     id="path984"
     d="m 701.998,229.906 h -1.265 c -0.323,-2.239 -0.852,-3.679 -1.586,-4.32 -0.735,-0.641 -2.222,-0.961 -4.461,-0.961 h -7.969 v 11.438 c 0,2.239 0.302,3.69 0.906,4.351 0.605,0.662 1.969,1.044 4.094,1.149 v 1.046 h -15.39 v -1.046 c 2.083,-0.146 3.401,-0.539 3.953,-1.18 0.552,-0.641 0.828,-2.096 0.828,-4.367 v -23.813 c 0,-1.948 -0.294,-3.224 -0.883,-3.828 -0.589,-0.604 -1.888,-0.979 -3.898,-1.125 v -1.047 h 29.203 l 0.156,7.86 h -1.375 c -0.479,-2.448 -1.214,-4.021 -2.203,-4.719 -0.99,-0.698 -3.042,-1.047 -6.156,-1.047 h -7.469 c -0.74,0 -1.219,0.12 -1.438,0.359 -0.218,0.24 -0.328,0.74 -0.328,1.5 v 12.219 h 7.969 c 2.198,0 3.674,-0.32 4.43,-0.961 0.755,-0.64 1.294,-2.065 1.617,-4.273 h 1.265 v 12.765"
     class="Lyrics" />
  <path
     id="path986"
     d="m 531.427,238.156 c 0,1.063 0.303,1.722 0.907,1.977 0.604,0.255 2.229,0.383 4.875,0.383 h 1.484 c 3.917,0 6.719,-0.466 8.406,-1.399 1.688,-0.932 3.209,-2.877 4.563,-5.836 h 1.547 l -2.485,9.328 h -29.687 v -1.046 c 2.01,-0.157 3.31,-0.537 3.898,-1.141 0.589,-0.604 0.883,-1.875 0.883,-3.813 v -24.406 c 0,-1.948 -0.294,-3.224 -0.883,-3.828 -0.588,-0.604 -1.888,-0.979 -3.898,-1.125 v -1.047 h 29.203 l 0.156,7.86 h -1.375 c -0.479,-2.448 -1.213,-4.021 -2.203,-4.719 -0.989,-0.698 -3.042,-1.047 -6.156,-1.047 h -7.422 c -0.729,0 -1.214,0.12 -1.453,0.359 -0.24,0.24 -0.36,0.74 -0.36,1.5 v 12.219 h 8.469 c 2.344,0 3.854,-0.357 4.531,-1.07 0.678,-0.714 1.183,-2.102 1.516,-4.164 h 1.266 v 12.765 h -1.266 c -0.364,-2.27 -0.896,-3.718 -1.594,-4.343 -0.698,-0.625 -2.182,-0.938 -4.453,-0.938 h -8.469 v 13.531"
     class="Lyrics" />
  <path
     id="path988"
     d="m 401.028,224.25 c 0,1.646 -0.182,3.258 -0.546,4.836 -0.365,1.578 -1.042,3.208 -2.032,4.891 -0.989,1.682 -2.255,3.138 -3.797,4.367 -1.541,1.229 -3.586,2.247 -6.132,3.055 -2.547,0.807 -5.435,1.21 -8.664,1.21 h -15.61 v -1.046 c 2.083,-0.157 3.412,-0.526 3.985,-1.11 0.572,-0.583 0.859,-1.864 0.859,-3.844 v -24.406 c 0,-2.01 -0.268,-3.289 -0.805,-3.836 -0.536,-0.547 -1.883,-0.919 -4.039,-1.117 v -1.047 h 14.844 c 3.333,0 6.312,0.375 8.937,1.125 2.625,0.75 4.735,1.722 6.329,2.914 1.593,1.193 2.911,2.604 3.953,4.235 1.041,1.63 1.755,3.234 2.14,4.812 0.386,1.578 0.578,3.232 0.578,4.961 m -5.984,0.375 c 0,-1.573 -0.156,-3.081 -0.469,-4.523 -0.312,-1.443 -0.872,-2.904 -1.679,-4.383 -0.808,-1.479 -1.852,-2.748 -3.133,-3.805 -1.281,-1.057 -2.969,-1.924 -5.063,-2.601 -2.093,-0.677 -4.474,-1.016 -7.14,-1.016 -1.146,0 -1.909,0.146 -2.289,0.437 -0.381,0.292 -0.571,0.86 -0.571,1.704 v 27.828 c 0,0.885 0.201,1.482 0.602,1.789 0.401,0.307 1.153,0.461 2.258,0.461 11.656,0 17.484,-5.297 17.484,-15.891"
     class="Lyrics" />
  <path
     id="path990"
     d="m 211.551,224.734 c 0,-5.687 1.761,-10.307 5.281,-13.859 3.521,-3.552 7.902,-5.328 13.141,-5.328 2.344,0 4.544,0.286 6.602,0.859 2.057,0.573 3.247,0.86 3.57,0.86 1.208,0 1.979,-0.573 2.312,-1.719 h 1.157 l 0.5,12.312 h -1.266 c -2.021,-6.812 -5.963,-10.218 -11.828,-10.218 -4,0 -7.182,1.484 -9.547,4.453 -2.364,2.969 -3.547,6.943 -3.547,11.922 0,3.198 0.414,5.961 1.242,8.289 0.829,2.328 1.938,4.086 3.329,5.273 1.39,1.188 2.828,2.047 4.312,2.578 1.484,0.532 3.07,0.797 4.758,0.797 4.333,0 8.422,-1.849 12.265,-5.547 l 1,0.985 c -1.687,2.239 -3.833,3.963 -6.437,5.172 -2.604,1.208 -5.464,1.812 -8.578,1.812 -5.427,0 -9.828,-1.703 -13.203,-5.109 -3.375,-3.407 -5.063,-7.917 -5.063,-13.532"
     class="Lyrics" />
</svg>
