<?xml version="1.0" encoding="UTF-8" standalone="no"?>
<svg
   xmlns:dc="http://purl.org/dc/elements/1.1/"
   xmlns:cc="http://creativecommons.org/ns#"
   xmlns:rdf="http://www.w3.org/1999/02/22-rdf-syntax-ns#"
   xmlns:svg="http://www.w3.org/2000/svg"
   xmlns="http://www.w3.org/2000/svg"
   xmlns:sodipodi="http://sodipodi.sourceforge.net/DTD/sodipodi-0.dtd"
   xmlns:inkscape="http://www.inkscape.org/namespaces/inkscape"
   inkscape:version="1.0 (4035a4fb49, 2020-05-01)"
   sodipodi:docname="exercise5.svg"
   id="svg1418"
   version="1.2"
   viewBox="0 0 2776.5381 417.60999"
   height="417.60999"
   width="2776.5381">
  <metadata
     id="metadata1424">
    <rdf:RDF>
      <cc:Work
         rdf:about="">
        <dc:format>image/svg+xml</dc:format>
        <dc:type
           rdf:resource="http://purl.org/dc/dcmitype/StillImage" />
      </cc:Work>
    </rdf:RDF>
  </metadata>
  <defs
     id="defs1422" />
  <sodipodi:namedview
     inkscape:current-layer="svg1418"
     inkscape:window-maximized="1"
     inkscape:window-y="-8"
     inkscape:window-x="-8"
     inkscape:cy="1704.877"
     inkscape:cx="1388.268"
     inkscape:zoom="0.16919192"
     showgrid="false"
     id="namedview1420"
     inkscape:window-height="837"
     inkscape:window-width="1600"
     inkscape:pageshadow="2"
     inkscape:pageopacity="0"
     guidetolerance="10"
     gridtolerance="10"
     objecttolerance="10"
     borderopacity="1"
     bordercolor="#666666"
     pagecolor="#ffffff" />
  <title
     id="title954">Mary_Had_A_Little_Lamb_in_C</title>
  <desc
     id="desc956">Generated by MuseScore 3.0.1</desc>
  <polyline
     transform="translate(-141.732,-275.123)"
     id="polyline958"
     points="141.732,316.732 2918.27,316.732"
     stroke-linejoin="bevel"
     stroke-width="2"
     stroke="#000000"
     fill="none"
     class="StaffLines" />
  <polyline
     transform="translate(-141.732,-275.123)"
     id="polyline960"
     points="141.732,341.732 2918.27,341.732"
     stroke-linejoin="bevel"
     stroke-width="2"
     stroke="#000000"
     fill="none"
     class="StaffLines" />
  <polyline
     transform="translate(-141.732,-275.123)"
     id="polyline962"
     points="141.732,366.732 2918.27,366.732"
     stroke-linejoin="bevel"
     stroke-width="2"
     stroke="#000000"
     fill="none"
     class="StaffLines" />
  <polyline
     transform="translate(-141.732,-275.123)"
     id="polyline964"
     points="141.732,391.732 2918.27,391.732"
     stroke-linejoin="bevel"
     stroke-width="2"
     stroke="#000000"
     fill="none"
     class="StaffLines" />
  <polyline
     transform="translate(-141.732,-275.123)"
     id="polyline966"
     points="141.732,416.732 2918.27,416.732"
     stroke-linejoin="bevel"
     stroke-width="2"
     stroke="#000000"
     fill="none"
     class="StaffLines" />
  <polyline
     transform="translate(-141.732,-275.123)"
     id="polyline968"
     points="141.732,579.233 2918.27,579.233"
     stroke-linejoin="bevel"
     stroke-width="2"
     stroke="#000000"
     fill="none"
     class="StaffLines" />
  <polyline
     transform="translate(-141.732,-275.123)"
     id="polyline970"
     points="141.732,616.733 2918.27,616.733"
     stroke-linejoin="bevel"
     stroke-width="2"
     stroke="#000000"
     fill="none"
     class="StaffLines" />
  <polyline
     transform="translate(-141.732,-275.123)"
     id="polyline972"
     points="141.732,654.233 2918.27,654.233"
     stroke-linejoin="bevel"
     stroke-width="2"
     stroke="#000000"
     fill="none"
     class="StaffLines" />
  <polyline
     transform="translate(-141.732,-275.123)"
     id="polyline974"
     points="141.732,691.733 2918.27,691.733"
     stroke-linejoin="bevel"
     stroke-width="2"
     stroke="#000000"
     fill="none"
     class="StaffLines" />
  <polyline
     transform="translate(-141.732,-275.123)"
     id="polyline976"
     points="2893.77,578.233 2893.77,692.733"
     stroke-linejoin="bevel"
     stroke-width="4"
     stroke="#000000"
     fill="none"
     class="BarLine" />
  <polyline
     transform="translate(-141.732,-275.123)"
     id="polyline978"
     points="2912.02,578.233 2912.02,692.733"
     stroke-linejoin="bevel"
     stroke-width="12.5"
     stroke="#000000"
     fill="none"
     class="BarLine" />
  <polyline
     transform="translate(-141.732,-275.123)"
     id="polyline980"
     points="2893.77,315.732 2893.77,417.732"
     stroke-linejoin="bevel"
     stroke-width="4"
     stroke="#000000"
     fill="none"
     class="BarLine" />
  <polyline
     transform="translate(-141.732,-275.123)"
     id="polyline982"
     points="2912.02,315.732 2912.02,417.732"
     stroke-linejoin="bevel"
     stroke-width="12.5"
     stroke="#000000"
     fill="none"
     class="BarLine" />
  <polyline
     transform="translate(-141.732,-275.123)"
     id="polyline984"
     points="2668.32,578.233 2668.32,692.733"
     stroke-linejoin="bevel"
     stroke-width="4"
     stroke="#000000"
     fill="none"
     class="BarLine" />
  <polyline
     transform="translate(-141.732,-275.123)"
     id="polyline986"
     points="2668.32,315.732 2668.32,417.732"
     stroke-linejoin="bevel"
     stroke-width="4"
     stroke="#000000"
     fill="none"
     class="BarLine" />
  <polyline
     transform="translate(-141.732,-275.123)"
     id="polyline988"
     points="2318.05,578.233 2318.05,692.733"
     stroke-linejoin="bevel"
     stroke-width="4"
     stroke="#000000"
     fill="none"
     class="BarLine" />
  <polyline
     transform="translate(-141.732,-275.123)"
     id="polyline990"
     points="2318.05,315.732 2318.05,417.732"
     stroke-linejoin="bevel"
     stroke-width="4"
     stroke="#000000"
     fill="none"
     class="BarLine" />
  <polyline
     transform="translate(-141.732,-275.123)"
     id="polyline992"
     points="1950.48,578.233 1950.48,692.733"
     stroke-linejoin="bevel"
     stroke-width="4"
     stroke="#000000"
     fill="none"
     class="BarLine" />
  <polyline
     transform="translate(-141.732,-275.123)"
     id="polyline994"
     points="1950.48,315.732 1950.48,417.732"
     stroke-linejoin="bevel"
     stroke-width="4"
     stroke="#000000"
     fill="none"
     class="BarLine" />
  <polyline
     transform="translate(-141.732,-275.123)"
     id="polyline996"
     points="1593,578.233 1593,692.733"
     stroke-linejoin="bevel"
     stroke-width="4"
     stroke="#000000"
     fill="none"
     class="BarLine" />
  <polyline
     transform="translate(-141.732,-275.123)"
     id="polyline998"
     points="1593,315.732 1593,417.732"
     stroke-linejoin="bevel"
     stroke-width="4"
     stroke="#000000"
     fill="none"
     class="BarLine" />
  <polyline
     transform="translate(-141.732,-275.123)"
     id="polyline1000"
     points="1295.23,578.233 1295.23,692.733"
     stroke-linejoin="bevel"
     stroke-width="4"
     stroke="#000000"
     fill="none"
     class="BarLine" />
  <polyline
     transform="translate(-141.732,-275.123)"
     id="polyline1002"
     points="1295.23,315.732 1295.23,417.732"
     stroke-linejoin="bevel"
     stroke-width="4"
     stroke="#000000"
     fill="none"
     class="BarLine" />
  <polyline
     transform="translate(-141.732,-275.123)"
     id="polyline1004"
     points="997.459,578.233 997.459,692.733"
     stroke-linejoin="bevel"
     stroke-width="4"
     stroke="#000000"
     fill="none"
     class="BarLine" />
  <polyline
     transform="translate(-141.732,-275.123)"
     id="polyline1006"
     points="997.459,315.732 997.459,417.732"
     stroke-linejoin="bevel"
     stroke-width="4"
     stroke="#000000"
     fill="none"
     class="BarLine" />
  <polyline
     transform="translate(-141.732,-275.123)"
     id="polyline1008"
     points="699.687,578.233 699.687,692.733"
     stroke-linejoin="bevel"
     stroke-width="4"
     stroke="#000000"
     fill="none"
     class="BarLine" />
  <polyline
     transform="translate(-141.732,-275.123)"
     id="polyline1010"
     points="699.687,315.732 699.687,417.732"
     stroke-linejoin="bevel"
     stroke-width="4"
     stroke="#000000"
     fill="none"
     class="BarLine" />
  <polyline
     transform="translate(-141.732,-275.123)"
     id="polyline1012"
     points="143.732,578.233 143.732,692.733"
     stroke-linejoin="bevel"
     stroke-width="4"
     stroke="#000000"
     fill="none"
     class="BarLine" />
  <polyline
     transform="translate(-141.732,-275.123)"
     id="polyline1014"
     points="143.732,315.732 143.732,579.233"
     stroke-linejoin="bevel"
     stroke-width="4"
     stroke="#000000"
     fill="none"
     class="BarLine" />
  <polyline
     transform="translate(-141.732,-275.123)"
     id="polyline1016"
     points="2697.32,441.732 2761.83,441.732"
     stroke-linejoin="bevel"
     stroke-linecap="square"
     stroke-width="4"
     stroke="#000000"
     fill="none"
     class="LedgerLine" />
  <polyline
     transform="translate(-141.732,-275.123)"
     id="polyline1018"
     points="2224.48,441.732 2272.39,441.732"
     stroke-linejoin="bevel"
     stroke-linecap="square"
     stroke-width="4"
     stroke="#000000"
     fill="none"
     class="LedgerLine" />
  <polyline
     transform="translate(-141.732,-275.123)"
     id="polyline1020"
     points="2140.41,441.732 2188.32,441.732"
     stroke-linejoin="bevel"
     stroke-linecap="square"
     stroke-width="4"
     stroke="#000000"
     fill="none"
     class="LedgerLine" />
  <polyline
     transform="translate(-141.732,-275.123)"
     id="polyline1022"
     points="1781.49,441.732 1829.4,441.732"
     stroke-linejoin="bevel"
     stroke-linecap="square"
     stroke-width="4"
     stroke="#000000"
     fill="none"
     class="LedgerLine" />
  <polyline
     transform="translate(-141.732,-275.123)"
     id="polyline1024"
     points="1622,441.732 1669.92,441.732"
     stroke-linejoin="bevel"
     stroke-linecap="square"
     stroke-width="4"
     stroke="#000000"
     fill="none"
     class="LedgerLine" />
  <polyline
     transform="translate(-141.732,-275.123)"
     id="polyline1026"
     points="868.621,441.732 918.34,441.732"
     stroke-linejoin="bevel"
     stroke-linecap="square"
     stroke-width="4"
     stroke="#000000"
     fill="none"
     class="LedgerLine" />
  <polyline
     transform="translate(-141.732,-275.123)"
     id="polyline1028"
     points="530.698,441.732 578.612,441.732"
     stroke-linejoin="bevel"
     stroke-linecap="square"
     stroke-width="4"
     stroke="#000000"
     fill="none"
     class="LedgerLine" />
  <polyline
     transform="translate(-141.732,-275.123)"
     id="polyline1030"
     points="371.209,441.732 419.123,441.732"
     stroke-linejoin="bevel"
     stroke-linecap="square"
     stroke-width="4"
     stroke="#000000"
     fill="none"
     class="LedgerLine" />
  <polyline
     transform="translate(-141.732,-275.123)"
     id="polyline1032"
     points="2617.86,387.037 2617.86,307.357"
     stroke-linejoin="bevel"
     stroke-linecap="round"
     stroke-width="3.25"
     stroke="#000000"
     fill="none"
     class="Stem" />
  <polyline
     transform="translate(-141.732,-275.123)"
     id="polyline1034"
     points="2538.12,399.537 2538.12,297.982"
     stroke-linejoin="bevel"
     stroke-linecap="round"
     stroke-width="3.25"
     stroke="#000000"
     fill="none"
     class="Stem" />
  <polyline
     transform="translate(-141.732,-275.123)"
     id="polyline1036"
     points="2458.37,387.037 2458.37,307.357"
     stroke-linejoin="bevel"
     stroke-linecap="round"
     stroke-width="3.25"
     stroke="#000000"
     fill="none"
     class="Stem" />
  <polyline
     transform="translate(-141.732,-275.123)"
     id="polyline1038"
     points="2378.63,412.037 2378.63,307.357"
     stroke-linejoin="bevel"
     stroke-linecap="round"
     stroke-width="3.25"
     stroke="#000000"
     fill="none"
     class="Stem" />
  <polyline
     transform="translate(-141.732,-275.123)"
     id="polyline1040"
     points="2263.27,437.037 2263.27,297.982"
     stroke-linejoin="bevel"
     stroke-linecap="round"
     stroke-width="3.25"
     stroke="#000000"
     fill="none"
     class="Stem" />
  <polyline
     transform="translate(-141.732,-275.123)"
     id="polyline1042"
     points="2179.2,437.037 2179.2,297.982"
     stroke-linejoin="bevel"
     stroke-linecap="round"
     stroke-width="3.25"
     stroke="#000000"
     fill="none"
     class="Stem" />
  <polyline
     transform="translate(-141.732,-275.123)"
     id="polyline1044"
     points="2095.13,399.537 2095.13,297.982"
     stroke-linejoin="bevel"
     stroke-linecap="round"
     stroke-width="3.25"
     stroke="#000000"
     fill="none"
     class="Stem" />
  <polyline
     transform="translate(-141.732,-275.123)"
     id="polyline1046"
     points="2011.06,374.537 2011.06,297.982"
     stroke-linejoin="bevel"
     stroke-linecap="round"
     stroke-width="3.25"
     stroke="#000000"
     fill="none"
     class="Stem" />
  <polyline
     transform="translate(-141.732,-275.123)"
     id="polyline1048"
     points="1900.02,387.037 1900.02,307.357"
     stroke-linejoin="bevel"
     stroke-linecap="round"
     stroke-width="3.25"
     stroke="#000000"
     fill="none"
     class="Stem" />
  <polyline
     transform="translate(-141.732,-275.123)"
     id="polyline1050"
     points="1820.28,437.037 1820.28,316.732"
     stroke-linejoin="bevel"
     stroke-linecap="round"
     stroke-width="3.25"
     stroke="#000000"
     fill="none"
     class="Stem" />
  <polyline
     transform="translate(-141.732,-275.123)"
     id="polyline1052"
     points="1740.53,387.037 1740.53,307.357"
     stroke-linejoin="bevel"
     stroke-linecap="round"
     stroke-width="3.25"
     stroke="#000000"
     fill="none"
     class="Stem" />
  <polyline
     transform="translate(-141.732,-275.123)"
     id="polyline1054"
     points="1660.79,437.037 1660.79,297.982"
     stroke-linejoin="bevel"
     stroke-linecap="round"
     stroke-width="3.25"
     stroke="#000000"
     fill="none"
     class="Stem" />
  <polyline
     transform="translate(-141.732,-275.123)"
     id="polyline1056"
     points="1473.29,358.152 1473.29,435.482"
     stroke-linejoin="bevel"
     stroke-linecap="round"
     stroke-width="3.25"
     stroke="#000000"
     fill="none"
     class="Stem" />
  <polyline
     transform="translate(-141.732,-275.123)"
     id="polyline1058"
     points="1400.17,358.928 1400.17,435.482"
     stroke-linejoin="bevel"
     stroke-linecap="round"
     stroke-width="3.25"
     stroke="#000000"
     fill="none"
     class="Stem" />
  <polyline
     transform="translate(-141.732,-275.123)"
     id="polyline1060"
     points="1355.81,374.537 1355.81,297.982"
     stroke-linejoin="bevel"
     stroke-linecap="round"
     stroke-width="3.25"
     stroke="#000000"
     fill="none"
     class="Stem" />
  <polyline
     transform="translate(-141.732,-275.123)"
     id="polyline1062"
     points="1206.99,387.892 1206.99,307.357"
     stroke-linejoin="bevel"
     stroke-linecap="round"
     stroke-width="3.25"
     stroke="#000000"
     fill="none"
     class="Stem" />
  <polyline
     transform="translate(-141.732,-275.123)"
     id="polyline1064"
     points="1132.06,387.037 1132.06,307.357"
     stroke-linejoin="bevel"
     stroke-linecap="round"
     stroke-width="3.25"
     stroke="#000000"
     fill="none"
     class="Stem" />
  <polyline
     transform="translate(-141.732,-275.123)"
     id="polyline1066"
     points="1058.04,412.037 1058.04,307.357"
     stroke-linejoin="bevel"
     stroke-linecap="round"
     stroke-width="3.25"
     stroke="#000000"
     fill="none"
     class="Stem" />
  <polyline
     transform="translate(-141.732,-275.123)"
     id="polyline1068"
     points="909.215,437.892 909.215,297.982"
     stroke-linejoin="bevel"
     stroke-linecap="round"
     stroke-width="3.25"
     stroke="#000000"
     fill="none"
     class="Stem" />
  <polyline
     transform="translate(-141.732,-275.123)"
     id="polyline1070"
     points="834.291,374.537 834.291,297.982"
     stroke-linejoin="bevel"
     stroke-linecap="round"
     stroke-width="3.25"
     stroke="#000000"
     fill="none"
     class="Stem" />
  <polyline
     transform="translate(-141.732,-275.123)"
     id="polyline1072"
     points="760.269,374.537 760.269,297.982"
     stroke-linejoin="bevel"
     stroke-linecap="round"
     stroke-width="3.25"
     stroke="#000000"
     fill="none"
     class="Stem" />
  <polyline
     transform="translate(-141.732,-275.123)"
     id="polyline1074"
     points="649.232,387.037 649.232,307.357"
     stroke-linejoin="bevel"
     stroke-linecap="round"
     stroke-width="3.25"
     stroke="#000000"
     fill="none"
     class="Stem" />
  <polyline
     transform="translate(-141.732,-275.123)"
     id="polyline1076"
     points="569.487,437.037 569.487,316.732"
     stroke-linejoin="bevel"
     stroke-linecap="round"
     stroke-width="3.25"
     stroke="#000000"
     fill="none"
     class="Stem" />
  <polyline
     transform="translate(-141.732,-275.123)"
     id="polyline1078"
     points="489.743,387.037 489.743,307.357"
     stroke-linejoin="bevel"
     stroke-linecap="round"
     stroke-width="3.25"
     stroke="#000000"
     fill="none"
     class="Stem" />
  <polyline
     transform="translate(-141.732,-275.123)"
     id="polyline1080"
     points="409.998,437.037 409.998,297.982"
     stroke-linejoin="bevel"
     stroke-linecap="round"
     stroke-width="3.25"
     stroke="#000000"
     fill="none"
     class="Stem" />
  <path
     id="path1082"
     d="m 2576.138,322.86 h 28 v 37.5 h -28 v -37.5"
     fill-rule="evenodd"
     fill="#ffffff"
     class="Note" />
  <path
     id="path1084"
     d="m 2576.138,322.86 h 28 v 37.5 h -28 v -37.5"
     fill-rule="evenodd"
     fill="#ffffff"
     class="Note" />
  <path
     id="path1086"
     d="m 2586.868,329.422 c -0.54,0 -1.62,0.333 -3.23,1 v -0.641 l 8.09,-4.093 0.36,0.093 v 27 c 0,1.084 0.27,1.79 0.82,2.118 0.54,0.328 1.69,0.507 3.46,0.539 v 0.672 h -12.42 v -0.672 c 1.68,-0.063 2.81,-0.31 3.39,-0.742 0.59,-0.433 0.88,-1.357 0.88,-2.774 v -20.375 c 0,-1.417 -0.45,-2.125 -1.35,-2.125"
     fill="#aa0000"
     class="Note" />
  <path
     id="path1088"
     d="m 2576.138,360.36 h 28 v 37.5 h -28 v -37.5"
     fill-rule="evenodd"
     fill="#ffffff"
     class="Note" />
  <path
     id="path1090"
     d="m 2576.138,360.36 h 28 v 37.5 h -28 v -37.5"
     fill-rule="evenodd"
     fill="#ffffff"
     class="Note" />
  <path
     id="path1092"
     d="m 2597.268,389.914 c -1.86,2.881 -4.32,4.321 -7.38,4.321 -3.06,0 -5.52,-1.469 -7.38,-4.407 -1.86,-2.937 -2.79,-6.718 -2.79,-11.343 0,-4.344 0.93,-7.98 2.79,-10.907 1.86,-2.927 4.37,-4.39 7.55,-4.39 2.95,0 5.35,1.44 7.21,4.32 1.86,2.88 2.79,6.633 2.79,11.258 0,4.552 -0.93,8.268 -2.79,11.148 m -7.33,-25.554 c -3.93,0 -5.89,4.843 -5.89,14.531 0,9.448 1.94,14.172 5.84,14.172 3.9,0 5.84,-4.74 5.84,-14.219 0,-4.708 -0.49,-8.299 -1.48,-10.773 -0.99,-2.474 -2.43,-3.711 -4.31,-3.711"
     class="Note" />
  <path
     id="path1094"
     d="m 2584.568,117.875 c -2.34,0 -4.03,0.813 -5.07,2.438 -1.17,1.562 -1.75,3.682 -1.75,6.359 0,3.062 0.81,5.698 2.43,7.906 1.63,2.146 3.42,3.646 5.38,4.5 1.75,0.844 3.6,1.266 5.56,1.266 2.28,0 4.01,-0.813 5.17,-2.438 1.11,-1.635 1.66,-3.755 1.66,-6.359 0,-3.063 -0.81,-5.698 -2.44,-7.906 -1.62,-2.084 -3.38,-3.584 -5.26,-4.5 -1.9,-0.844 -3.79,-1.266 -5.68,-1.266 m 3.33,-2.531 c 7.03,0 12.89,1.364 17.58,4.094 4.75,2.739 7.12,5.963 7.12,9.671 0,3.969 -2.44,7.224 -7.32,9.766 -4.89,2.667 -10.68,4 -17.38,4 -6.9,0 -12.76,-1.365 -17.58,-4.094 -4.82,-2.739 -7.23,-5.963 -7.23,-9.672 0,-3.968 2.47,-7.224 7.42,-9.765 4.89,-2.667 10.68,-4 17.39,-4"
     fill="#aa0000"
     class="Note" />
  <path
     id="path1096"
     d="m 2584.568,155.375 c -2.34,0 -4.03,0.813 -5.07,2.438 -1.17,1.562 -1.75,3.682 -1.75,6.359 0,3.062 0.81,5.698 2.43,7.906 1.63,2.146 3.42,3.646 5.38,4.5 1.75,0.844 3.6,1.266 5.56,1.266 2.28,0 4.01,-0.813 5.17,-2.438 1.11,-1.635 1.66,-3.755 1.66,-6.359 0,-3.063 -0.81,-5.698 -2.44,-7.906 -1.62,-2.084 -3.38,-3.584 -5.26,-4.5 -1.9,-0.844 -3.79,-1.266 -5.68,-1.266 m 3.33,-2.531 c 7.03,0 12.89,1.364 17.58,4.094 4.75,2.739 7.12,5.963 7.12,9.671 0,3.969 -2.44,7.224 -7.32,9.766 -4.89,2.667 -10.68,4 -17.38,4 -6.9,0 -12.76,-1.364 -17.58,-4.094 -4.82,-2.739 -7.23,-5.963 -7.23,-9.672 0,-3.968 2.47,-7.223 7.42,-9.765 4.89,-2.667 10.68,-4 17.39,-4"
     class="Note" />
  <path
     id="path1098"
     d="m 2449.588,322.86 h 28 v 37.5 h -28 v -37.5"
     fill-rule="evenodd"
     fill="#ffffff"
     class="Note" />
  <path
     id="path1100"
     d="m 2449.588,322.86 h 28 v 37.5 h -28 v -37.5"
     fill-rule="evenodd"
     fill="#ffffff"
     class="Note" />
  <path
     id="path1102"
     d="m 2455.728,352.594 c 0.7,0 1.73,0.406 3.1,1.219 1.36,0.812 2.55,1.218 3.56,1.218 1.66,0 3.06,-0.64 4.2,-1.921 1.14,-1.282 1.71,-2.86 1.71,-4.735 0,-1.166 -0.21,-2.198 -0.61,-3.094 -0.41,-0.895 -0.93,-1.588 -1.56,-2.078 -0.63,-0.489 -1.38,-0.89 -2.25,-1.203 -0.87,-0.312 -1.68,-0.513 -2.45,-0.601 -0.77,-0.089 -1.58,-0.133 -2.45,-0.133 v -0.594 c 1.03,-0.354 1.9,-0.706 2.64,-1.055 0.73,-0.349 1.5,-0.815 2.31,-1.398 0.81,-0.583 1.43,-1.294 1.87,-2.133 0.43,-0.838 0.65,-1.799 0.65,-2.883 0,-1.406 -0.45,-2.56 -1.37,-3.461 -0.92,-0.901 -2.11,-1.351 -3.58,-1.351 -1.41,0 -2.64,0.383 -3.71,1.148 -1.07,0.766 -2.07,1.972 -2.99,3.617 l -0.67,-0.171 c 0.77,-2.136 1.82,-3.886 3.16,-5.25 1.34,-1.365 3.24,-2.047 5.69,-2.047 2.08,0 3.77,0.57 5.07,1.711 1.3,1.14 1.95,2.627 1.95,4.461 0,1.229 -0.31,2.307 -0.94,3.234 -0.63,0.927 -1.73,1.917 -3.29,2.969 1.8,0.781 3.21,1.776 4.23,2.984 1.02,1.208 1.53,2.932 1.53,5.172 0,3.187 -1.18,5.737 -3.53,7.648 -2.35,1.912 -5.32,2.868 -8.89,2.868 -1.55,0 -2.79,-0.232 -3.7,-0.696 -0.92,-0.463 -1.38,-1.086 -1.38,-1.867 0,-0.479 0.16,-0.862 0.47,-1.148 0.31,-0.287 0.72,-0.43 1.23,-0.43"
     fill="#aa0000"
     class="Note" />
  <path
     id="path1104"
     d="m 2466.808,102.844 c 3.13,0 5.77,0.812 7.92,2.437 2.02,1.761 3.02,3.974 3.02,6.641 0,4.49 -2.31,8.687 -6.92,12.594 -4.69,3.906 -9.7,5.859 -15.05,5.859 -3.12,0 -5.76,-0.812 -7.9,-2.437 -2.03,-1.761 -3.04,-3.974 -3.04,-6.641 0,-4.49 2.35,-8.688 7.04,-12.594 4.56,-3.906 9.54,-5.859 14.93,-5.859"
     fill="#aa0000"
     class="Note" />
  <path
     id="path1106"
     d="m 2369.848,285.36 h 28 v 37.5 h -28 v -37.5"
     fill-rule="evenodd"
     fill="#ffffff"
     class="Note" />
  <path
     id="path1108"
     d="m 2369.848,285.36 h 28 v 37.5 h -28 v -37.5"
     fill-rule="evenodd"
     fill="#ffffff"
     class="Note" />
  <path
     id="path1110"
     d="m 2390.978,314.914 c -1.86,2.88 -4.32,4.321 -7.38,4.321 -3.06,0 -5.52,-1.469 -7.38,-4.407 -1.86,-2.937 -2.79,-6.718 -2.79,-11.343 0,-4.344 0.93,-7.98 2.79,-10.907 1.86,-2.927 4.37,-4.39 7.55,-4.39 2.95,0 5.35,1.44 7.21,4.32 1.86,2.88 2.79,6.633 2.79,11.258 0,4.552 -0.93,8.268 -2.79,11.148 m -7.33,-25.554 c -3.93,0 -5.89,4.843 -5.89,14.531 0,9.448 1.94,14.172 5.84,14.172 3.9,0 5.84,-4.74 5.84,-14.219 0,-4.708 -0.49,-8.3 -1.48,-10.774 -0.99,-2.473 -2.43,-3.71 -4.31,-3.71"
     fill="#aa0000"
     class="Note" />
  <path
     id="path1112"
     d="m 2369.848,322.86 h 28 v 37.5 h -28 v -37.5"
     fill-rule="evenodd"
     fill="#ffffff"
     class="Note" />
  <path
     id="path1114"
     d="m 2369.848,322.86 h 28 v 37.5 h -28 v -37.5"
     fill-rule="evenodd"
     fill="#ffffff"
     class="Note" />
  <path
     id="path1116"
     d="m 2380.578,329.422 c -0.54,0 -1.62,0.333 -3.23,1 v -0.641 l 8.09,-4.093 0.36,0.093 v 27 c 0,1.084 0.27,1.79 0.82,2.118 0.54,0.328 1.69,0.507 3.46,0.539 v 0.672 h -12.42 v -0.672 c 1.68,-0.063 2.81,-0.31 3.39,-0.742 0.59,-0.433 0.88,-1.357 0.88,-2.774 v -20.375 c 0,-1.417 -0.45,-2.125 -1.35,-2.125"
     class="Note" />
  <path
     id="path1118"
     d="m 2387.068,90.344 c 3.12,0 5.76,0.812 7.92,2.437 2.01,1.761 3.02,3.974 3.02,6.641 0,4.49 -2.31,8.687 -6.93,12.594 -4.68,3.906 -9.7,5.859 -15.04,5.859 -3.13,0 -5.76,-0.812 -7.91,-2.437 -2.02,-1.761 -3.03,-3.974 -3.03,-6.641 0,-4.49 2.34,-8.688 7.03,-12.594 4.56,-3.906 9.54,-5.859 14.94,-5.859"
     fill="#aa0000"
     class="Note" />
  <path
     id="path1120"
     d="m 2387.068,115.344 c 3.12,0 5.76,0.812 7.92,2.437 2.01,1.761 3.02,3.974 3.02,6.641 0,4.49 -2.31,8.687 -6.93,12.594 -4.68,3.906 -9.7,5.859 -15.04,5.859 -3.13,0 -5.76,-0.812 -7.91,-2.437 -2.02,-1.761 -3.03,-3.974 -3.03,-6.641 0,-4.49 2.34,-8.688 7.03,-12.594 4.56,-3.906 9.54,-5.859 14.94,-5.859"
     class="Note" />
  <path
     id="path1122"
     d="m 2290.108,322.86 h 28 v 37.5 h -28 v -37.5"
     fill-rule="evenodd"
     fill="#ffffff"
     class="Note" />
  <path
     id="path1124"
     d="m 2290.108,322.86 h 28 v 37.5 h -28 v -37.5"
     fill-rule="evenodd"
     fill="#ffffff"
     class="Note" />
  <path
     id="path1126"
     d="m 2296.248,352.594 c 0.69,0 1.72,0.406 3.09,1.219 1.36,0.812 2.55,1.218 3.56,1.218 1.66,0 3.06,-0.64 4.2,-1.921 1.14,-1.282 1.71,-2.86 1.71,-4.735 0,-1.166 -0.2,-2.198 -0.61,-3.094 -0.41,-0.895 -0.93,-1.588 -1.56,-2.078 -0.63,-0.489 -1.38,-0.89 -2.25,-1.203 -0.87,-0.312 -1.68,-0.513 -2.45,-0.601 -0.76,-0.089 -1.58,-0.133 -2.44,-0.133 v -0.594 c 1.02,-0.354 1.89,-0.706 2.63,-1.055 0.73,-0.349 1.5,-0.815 2.31,-1.398 0.81,-0.583 1.43,-1.294 1.87,-2.133 0.44,-0.838 0.65,-1.799 0.65,-2.883 0,-1.406 -0.45,-2.56 -1.37,-3.461 -0.92,-0.901 -2.11,-1.351 -3.58,-1.351 -1.4,0 -2.64,0.383 -3.71,1.148 -1.07,0.766 -2.06,1.972 -2.99,3.617 l -0.67,-0.171 c 0.77,-2.136 1.82,-3.886 3.16,-5.25 1.34,-1.365 3.24,-2.047 5.7,-2.047 2.07,0 3.76,0.57 5.06,1.711 1.3,1.14 1.95,2.627 1.95,4.461 0,1.229 -0.31,2.307 -0.94,3.234 -0.63,0.927 -1.73,1.917 -3.29,2.969 1.8,0.781 3.21,1.776 4.23,2.984 1.02,1.208 1.53,2.932 1.53,5.172 0,3.187 -1.17,5.737 -3.53,7.648 -2.35,1.912 -5.32,2.868 -8.89,2.868 -1.55,0 -2.79,-0.232 -3.7,-0.696 -0.92,-0.463 -1.38,-1.086 -1.38,-1.867 0,-0.479 0.16,-0.862 0.47,-1.148 0.31,-0.287 0.73,-0.43 1.24,-0.43"
     fill="#aa0000"
     class="Note" />
  <path
     id="path1128"
     d="m 2307.318,102.844 c 3.13,0 5.77,0.812 7.93,2.437 2.01,1.761 3.01,3.974 3.01,6.641 0,4.49 -2.31,8.687 -6.92,12.594 -4.69,3.906 -9.7,5.859 -15.05,5.859 -3.12,0 -5.76,-0.812 -7.9,-2.437 -2.02,-1.761 -3.03,-3.974 -3.03,-6.641 0,-4.49 2.34,-8.688 7.03,-12.594 4.56,-3.906 9.54,-5.859 14.93,-5.859"
     fill="#aa0000"
     class="Note" />
  <path
     id="path1130"
     d="m 2210.358,322.86 h 28 v 37.5 h -28 v -37.5"
     fill-rule="evenodd"
     fill="#ffffff"
     class="Note" />
  <path
     id="path1132"
     d="m 2210.358,322.86 h 28 v 37.5 h -28 v -37.5"
     fill-rule="evenodd"
     fill="#ffffff"
     class="Note" />
  <path
     id="path1134"
     d="m 2216.498,352.594 c 0.7,0 1.73,0.406 3.09,1.219 1.37,0.812 2.56,1.218 3.57,1.218 1.65,0 3.05,-0.64 4.19,-1.921 1.14,-1.282 1.71,-2.86 1.71,-4.735 0,-1.166 -0.2,-2.198 -0.61,-3.094 -0.4,-0.895 -0.92,-1.588 -1.55,-2.078 -0.63,-0.489 -1.38,-0.89 -2.25,-1.203 -0.87,-0.312 -1.69,-0.513 -2.45,-0.601 -0.77,-0.089 -1.58,-0.133 -2.45,-0.133 v -0.594 c 1.02,-0.354 1.9,-0.706 2.63,-1.055 0.74,-0.349 1.51,-0.815 2.32,-1.398 0.8,-0.583 1.43,-1.294 1.86,-2.133 0.44,-0.838 0.66,-1.799 0.66,-2.883 0,-1.406 -0.46,-2.56 -1.38,-3.461 -0.91,-0.901 -2.1,-1.351 -3.57,-1.351 -1.41,0 -2.65,0.383 -3.71,1.148 -1.07,0.766 -2.07,1.972 -3,3.617 l -0.67,-0.171 c 0.77,-2.136 1.83,-3.886 3.17,-5.25 1.33,-1.365 3.23,-2.047 5.69,-2.047 2.07,0 3.76,0.57 5.06,1.711 1.31,1.14 1.96,2.627 1.96,4.461 0,1.229 -0.32,2.307 -0.95,3.234 -0.63,0.927 -1.73,1.917 -3.29,2.969 1.8,0.781 3.22,1.776 4.24,2.984 1.02,1.208 1.53,2.932 1.53,5.172 0,3.187 -1.18,5.737 -3.53,7.648 -2.36,1.912 -5.32,2.868 -8.89,2.868 -1.56,0 -2.79,-0.232 -3.71,-0.696 -0.91,-0.463 -1.37,-1.086 -1.37,-1.867 0,-0.479 0.15,-0.862 0.47,-1.148 0.31,-0.287 0.72,-0.43 1.23,-0.43"
     fill="#aa0000"
     class="Note" />
  <path
     id="path1136"
     d="m 2210.358,360.36 h 28 v 37.5 h -28 v -37.5"
     fill-rule="evenodd"
     fill="#ffffff"
     class="Note" />
  <path
     id="path1138"
     d="m 2210.358,360.36 h 28 v 37.5 h -28 v -37.5"
     fill-rule="evenodd"
     fill="#ffffff"
     class="Note" />
  <path
     id="path1140"
     d="m 2234.088,383.219 v 2.875 h -4.57 v 7.516 h -3.47 v -7.516 h -12.64 v -2.875 l 14.12,-20.031 h 1.99 v 20.031 h 4.57 m -8.09,0 v -15.438 l -10.8,15.438 h 10.8"
     class="Note" />
  <path
     id="path1142"
     d="m 2227.578,102.844 c 3.12,0 5.76,0.812 7.92,2.437 2.01,1.761 3.02,3.974 3.02,6.641 0,4.49 -2.31,8.687 -6.93,12.594 -4.68,3.906 -9.7,5.859 -15.04,5.859 -3.13,0 -5.76,-0.812 -7.91,-2.437 -2.02,-1.761 -3.03,-3.974 -3.03,-6.641 0,-4.49 2.34,-8.688 7.03,-12.594 4.56,-3.906 9.54,-5.859 14.94,-5.859"
     fill="#aa0000"
     class="Note" />
  <path
     id="path1144"
     d="m 2227.578,127.844 c 3.12,0 5.76,0.812 7.92,2.437 2.01,1.761 3.02,3.974 3.02,6.641 0,4.49 -2.31,8.687 -6.93,12.594 -4.68,3.906 -9.7,5.859 -15.04,5.859 -3.13,0 -5.76,-0.812 -7.91,-2.437 -2.02,-1.761 -3.03,-3.974 -3.03,-6.641 0,-4.49 2.34,-8.688 7.03,-12.594 4.56,-3.906 9.54,-5.859 14.94,-5.859"
     class="Note" />
  <path
     id="path1146"
     d="m 2094.998,285.36 h 28 v 37.5 h -28 v -37.5"
     fill-rule="evenodd"
     fill="#ffffff"
     class="Note" />
  <path
     id="path1148"
     d="m 2094.998,285.36 h 28 v 37.5 h -28 v -37.5"
     fill-rule="evenodd"
     fill="#ffffff"
     class="Note" />
  <path
     id="path1150"
     d="m 2116.128,314.914 c -1.86,2.88 -4.32,4.321 -7.38,4.321 -3.06,0 -5.52,-1.469 -7.38,-4.407 -1.86,-2.937 -2.79,-6.718 -2.79,-11.343 0,-4.344 0.93,-7.98 2.79,-10.907 1.86,-2.927 4.37,-4.39 7.55,-4.39 2.95,0 5.35,1.44 7.21,4.32 1.86,2.88 2.79,6.633 2.79,11.258 0,4.552 -0.93,8.268 -2.79,11.148 m -7.33,-25.554 c -3.93,0 -5.89,4.843 -5.89,14.531 0,9.448 1.94,14.172 5.84,14.172 3.89,0 5.84,-4.74 5.84,-14.219 0,-4.708 -0.49,-8.3 -1.48,-10.774 -0.99,-2.473 -2.43,-3.71 -4.31,-3.71"
     fill="#aa0000"
     class="Note" />
  <path
     id="path1152"
     d="m 2094.998,322.86 h 28 v 37.5 h -28 v -37.5"
     fill-rule="evenodd"
     fill="#ffffff"
     class="Note" />
  <path
     id="path1154"
     d="m 2094.998,322.86 h 28 v 37.5 h -28 v -37.5"
     fill-rule="evenodd"
     fill="#ffffff"
     class="Note" />
  <path
     id="path1156"
     d="m 2105.728,329.422 c -0.54,0 -1.62,0.333 -3.23,1 v -0.641 l 8.09,-4.093 0.36,0.093 v 27 c 0,1.084 0.27,1.79 0.81,2.118 0.55,0.328 1.7,0.507 3.47,0.539 v 0.672 h -12.42 v -0.672 c 1.68,-0.063 2.81,-0.31 3.39,-0.742 0.59,-0.433 0.88,-1.357 0.88,-2.774 v -20.375 c 0,-1.417 -0.45,-2.125 -1.35,-2.125"
     class="Note" />
  <path
     id="path1158"
     d="m 2094.998,360.36 h 28 v 37.5 h -28 v -37.5"
     fill-rule="evenodd"
     fill="#ffffff"
     class="Note" />
  <path
     id="path1160"
     d="m 2094.998,360.36 h 28 v 37.5 h -28 v -37.5"
     fill-rule="evenodd"
     fill="#ffffff"
     class="Note" />
  <path
     id="path1162"
     d="m 2116.128,389.914 c -1.86,2.881 -4.32,4.321 -7.38,4.321 -3.06,0 -5.52,-1.469 -7.38,-4.407 -1.86,-2.937 -2.79,-6.718 -2.79,-11.343 0,-4.344 0.93,-7.98 2.79,-10.907 1.86,-2.927 4.37,-4.39 7.55,-4.39 2.95,0 5.35,1.44 7.21,4.32 1.86,2.88 2.79,6.633 2.79,11.258 0,4.552 -0.93,8.268 -2.79,11.148 m -7.33,-25.554 c -3.93,0 -5.89,4.843 -5.89,14.531 0,9.448 1.94,14.172 5.84,14.172 3.89,0 5.84,-4.74 5.84,-14.219 0,-4.708 -0.49,-8.299 -1.48,-10.773 -0.99,-2.474 -2.43,-3.711 -4.31,-3.711"
     class="Note" />
  <path
     id="path1164"
     d="m 2112.218,90.344 c 3.12,0 5.76,0.812 7.92,2.437 2.01,1.761 3.02,3.974 3.02,6.641 0,4.49 -2.31,8.687 -6.93,12.594 -4.68,3.906 -9.7,5.859 -15.04,5.859 -3.13,0 -5.76,-0.812 -7.91,-2.437 -2.02,-1.761 -3.03,-3.974 -3.03,-6.641 0,-4.49 2.34,-8.688 7.03,-12.594 4.56,-3.906 9.54,-5.859 14.94,-5.859"
     fill="#aa0000"
     class="Note" />
  <path
     id="path1166"
     d="m 2112.218,115.344 c 3.12,0 5.76,0.812 7.92,2.437 2.01,1.761 3.02,3.974 3.02,6.641 0,4.49 -2.31,8.687 -6.93,12.594 -4.68,3.906 -9.7,5.859 -15.04,5.859 -3.13,0 -5.76,-0.812 -7.91,-2.437 -2.02,-1.761 -3.03,-3.974 -3.03,-6.641 0,-4.49 2.34,-8.688 7.03,-12.594 4.56,-3.906 9.54,-5.859 14.94,-5.859"
     class="Note" />
  <path
     id="path1168"
     d="m 2112.218,152.844 c 3.12,0 5.76,0.812 7.92,2.437 2.01,1.761 3.02,3.974 3.02,6.641 0,4.49 -2.31,8.687 -6.93,12.594 -4.68,3.906 -9.7,5.859 -15.04,5.859 -3.13,0 -5.76,-0.812 -7.91,-2.437 -2.02,-1.761 -3.03,-3.974 -3.03,-6.641 0,-4.49 2.34,-8.688 7.03,-12.594 4.56,-3.906 9.54,-5.859 14.94,-5.859"
     class="Note" />
  <path
     id="path1170"
     d="m 2010.928,285.36 h 28 v 37.5 h -28 v -37.5"
     fill-rule="evenodd"
     fill="#ffffff"
     class="Note" />
  <path
     id="path1172"
     d="m 2010.928,285.36 h 28 v 37.5 h -28 v -37.5"
     fill-rule="evenodd"
     fill="#ffffff"
     class="Note" />
  <path
     id="path1174"
     d="m 2032.058,314.914 c -1.86,2.88 -4.32,4.321 -7.38,4.321 -3.06,0 -5.52,-1.469 -7.38,-4.407 -1.86,-2.937 -2.79,-6.718 -2.79,-11.343 0,-4.344 0.93,-7.98 2.79,-10.907 1.86,-2.927 4.37,-4.39 7.55,-4.39 2.95,0 5.35,1.44 7.21,4.32 1.86,2.88 2.79,6.633 2.79,11.258 0,4.552 -0.93,8.268 -2.79,11.148 m -7.33,-25.554 c -3.93,0 -5.89,4.843 -5.89,14.531 0,9.448 1.94,14.172 5.84,14.172 3.9,0 5.84,-4.74 5.84,-14.219 0,-4.708 -0.49,-8.3 -1.48,-10.774 -0.99,-2.473 -2.43,-3.71 -4.31,-3.71"
     fill="#aa0000"
     class="Note" />
  <path
     id="path1176"
     d="m 2010.928,322.86 h 28 v 37.5 h -28 v -37.5"
     fill-rule="evenodd"
     fill="#ffffff"
     class="Note" />
  <path
     id="path1178"
     d="m 2010.928,322.86 h 28 v 37.5 h -28 v -37.5"
     fill-rule="evenodd"
     fill="#ffffff"
     class="Note" />
  <path
     id="path1180"
     d="m 2021.658,329.422 c -0.54,0 -1.62,0.333 -3.23,1 v -0.641 l 8.09,-4.093 0.36,0.093 v 27 c 0,1.084 0.27,1.79 0.82,2.118 0.54,0.328 1.69,0.507 3.46,0.539 v 0.672 h -12.42 v -0.672 c 1.68,-0.063 2.81,-0.31 3.39,-0.742 0.59,-0.433 0.88,-1.357 0.88,-2.774 v -20.375 c 0,-1.417 -0.45,-2.125 -1.35,-2.125"
     class="Note" />
  <path
     id="path1182"
     d="m 2010.928,360.36 h 28 v 37.5 h -28 v -37.5"
     fill-rule="evenodd"
     fill="#ffffff"
     class="Note" />
  <path
     id="path1184"
     d="m 2010.928,360.36 h 28 v 37.5 h -28 v -37.5"
     fill-rule="evenodd"
     fill="#ffffff"
     class="Note" />
  <path
     id="path1186"
     d="m 2032.058,389.914 c -1.86,2.881 -4.32,4.321 -7.38,4.321 -3.06,0 -5.52,-1.469 -7.38,-4.407 -1.86,-2.937 -2.79,-6.718 -2.79,-11.343 0,-4.344 0.93,-7.98 2.79,-10.907 1.86,-2.927 4.37,-4.39 7.55,-4.39 2.95,0 5.35,1.44 7.21,4.32 1.86,2.88 2.79,6.633 2.79,11.258 0,4.552 -0.93,8.268 -2.79,11.148 m -7.33,-25.554 c -3.93,0 -5.89,4.843 -5.89,14.531 0,9.448 1.94,14.172 5.84,14.172 3.9,0 5.84,-4.74 5.84,-14.219 0,-4.708 -0.49,-8.299 -1.48,-10.773 -0.99,-2.474 -2.43,-3.711 -4.31,-3.711"
     class="Note" />
  <path
     id="path1188"
     d="m 2028.148,90.344 c 3.12,0 5.76,0.812 7.92,2.437 2.01,1.761 3.02,3.974 3.02,6.641 0,4.49 -2.31,8.687 -6.93,12.594 -4.68,3.906 -9.7,5.859 -15.04,5.859 -3.13,0 -5.76,-0.812 -7.91,-2.437 -2.02,-1.761 -3.03,-3.974 -3.03,-6.641 0,-4.49 2.34,-8.688 7.03,-12.594 4.56,-3.906 9.54,-5.859 14.94,-5.859"
     fill="#aa0000"
     class="Note" />
  <path
     id="path1190"
     d="m 2028.148,115.344 c 3.12,0 5.76,0.812 7.92,2.437 2.01,1.761 3.02,3.974 3.02,6.641 0,4.49 -2.31,8.687 -6.93,12.594 -4.68,3.906 -9.7,5.859 -15.04,5.859 -3.13,0 -5.76,-0.812 -7.91,-2.437 -2.02,-1.761 -3.03,-3.974 -3.03,-6.641 0,-4.49 2.34,-8.688 7.03,-12.594 4.56,-3.906 9.54,-5.859 14.94,-5.859"
     class="Note" />
  <path
     id="path1192"
     d="m 2028.148,152.844 c 3.12,0 5.76,0.812 7.92,2.437 2.01,1.761 3.02,3.974 3.02,6.641 0,4.49 -2.31,8.687 -6.93,12.594 -4.68,3.906 -9.7,5.859 -15.04,5.859 -3.13,0 -5.76,-0.812 -7.91,-2.437 -2.02,-1.761 -3.03,-3.974 -3.03,-6.641 0,-4.49 2.34,-8.688 7.03,-12.594 4.56,-3.906 9.54,-5.859 14.94,-5.859"
     class="Note" />
  <path
     id="path1194"
     d="m 1926.858,285.36 h 28 v 37.5 h -28 v -37.5"
     fill-rule="evenodd"
     fill="#ffffff"
     class="Note" />
  <path
     id="path1196"
     d="m 1926.858,285.36 h 28 v 37.5 h -28 v -37.5"
     fill-rule="evenodd"
     fill="#ffffff"
     class="Note" />
  <path
     id="path1198"
     d="m 1947.988,314.914 c -1.86,2.88 -4.32,4.321 -7.38,4.321 -3.06,0 -5.52,-1.469 -7.38,-4.407 -1.86,-2.937 -2.79,-6.718 -2.79,-11.343 0,-4.344 0.93,-7.98 2.79,-10.907 1.86,-2.927 4.38,-4.39 7.55,-4.39 2.95,0 5.35,1.44 7.21,4.32 1.86,2.88 2.79,6.633 2.79,11.258 0,4.552 -0.93,8.268 -2.79,11.148 m -7.33,-25.554 c -3.93,0 -5.89,4.843 -5.89,14.531 0,9.448 1.95,14.172 5.84,14.172 3.9,0 5.84,-4.74 5.84,-14.219 0,-4.708 -0.49,-8.3 -1.48,-10.774 -0.99,-2.473 -2.43,-3.71 -4.31,-3.71"
     fill="#aa0000"
     class="Note" />
  <path
     id="path1200"
     d="m 1926.858,322.86 h 28 v 37.5 h -28 v -37.5"
     fill-rule="evenodd"
     fill="#ffffff"
     class="Note" />
  <path
     id="path1202"
     d="m 1926.858,322.86 h 28 v 37.5 h -28 v -37.5"
     fill-rule="evenodd"
     fill="#ffffff"
     class="Note" />
  <path
     id="path1204"
     d="m 1937.598,329.422 c -0.55,0 -1.62,0.333 -3.24,1 v -0.641 l 8.09,-4.093 0.36,0.093 v 27 c 0,1.084 0.28,1.79 0.82,2.118 0.54,0.328 1.69,0.507 3.47,0.539 v 0.672 h -12.43 v -0.672 c 1.68,-0.063 2.81,-0.31 3.39,-0.742 0.59,-0.433 0.88,-1.357 0.88,-2.774 v -20.375 c 0,-1.417 -0.45,-2.125 -1.34,-2.125"
     class="Note" />
  <path
     id="path1206"
     d="m 1944.078,90.344 c 3.12,0 5.77,0.812 7.92,2.437 2.01,1.761 3.02,3.974 3.02,6.641 0,4.49 -2.31,8.687 -6.92,12.594 -4.69,3.906 -9.71,5.859 -15.05,5.859 -3.13,0 -5.76,-0.812 -7.91,-2.437 -2.02,-1.761 -3.03,-3.974 -3.03,-6.641 0,-4.49 2.34,-8.688 7.03,-12.594 4.56,-3.906 9.54,-5.859 14.94,-5.859"
     fill="#aa0000"
     class="Note" />
  <path
     id="path1208"
     d="m 1944.078,115.344 c 3.12,0 5.77,0.812 7.92,2.437 2.01,1.761 3.02,3.974 3.02,6.641 0,4.49 -2.31,8.687 -6.92,12.594 -4.69,3.906 -9.71,5.859 -15.05,5.859 -3.13,0 -5.76,-0.812 -7.91,-2.437 -2.02,-1.761 -3.03,-3.974 -3.03,-6.641 0,-4.49 2.34,-8.688 7.03,-12.594 4.56,-3.906 9.54,-5.859 14.94,-5.859"
     class="Note" />
  <path
     id="path1210"
     d="m 1842.788,285.36 h 28 v 37.5 h -28 v -37.5"
     fill-rule="evenodd"
     fill="#ffffff"
     class="Note" />
  <path
     id="path1212"
     d="m 1842.788,285.36 h 28 v 37.5 h -28 v -37.5"
     fill-rule="evenodd"
     fill="#ffffff"
     class="Note" />
  <path
     id="path1214"
     d="m 1863.928,314.914 c -1.86,2.88 -4.33,4.321 -7.39,4.321 -3.06,0 -5.52,-1.469 -7.38,-4.407 -1.86,-2.937 -2.79,-6.718 -2.79,-11.343 0,-4.344 0.93,-7.98 2.79,-10.907 1.86,-2.927 4.38,-4.39 7.55,-4.39 2.95,0 5.36,1.44 7.22,4.32 1.85,2.88 2.78,6.633 2.78,11.258 0,4.552 -0.93,8.268 -2.78,11.148 m -7.34,-25.554 c -3.93,0 -5.89,4.843 -5.89,14.531 0,9.448 1.95,14.172 5.84,14.172 3.9,0 5.85,-4.74 5.85,-14.219 0,-4.708 -0.5,-8.3 -1.49,-10.774 -0.99,-2.473 -2.43,-3.71 -4.31,-3.71"
     fill="#aa0000"
     class="Note" />
  <path
     id="path1216"
     d="m 1860.008,90.344 c 3.13,0 5.77,0.812 7.92,2.437 2.01,1.761 3.02,3.974 3.02,6.641 0,4.49 -2.31,8.687 -6.92,12.594 -4.69,3.906 -9.71,5.859 -15.05,5.859 -3.13,0 -5.76,-0.812 -7.91,-2.437 -2.02,-1.761 -3.03,-3.974 -3.03,-6.641 0,-4.49 2.35,-8.688 7.03,-12.594 4.57,-3.906 9.55,-5.859 14.94,-5.859"
     fill="#aa0000"
     class="Note" />
  <path
     id="path1218"
     d="m 1731.748,322.86 h 28 v 37.5 h -28 v -37.5"
     fill-rule="evenodd"
     fill="#ffffff"
     class="Note" />
  <path
     id="path1220"
     d="m 1731.748,322.86 h 28 v 37.5 h -28 v -37.5"
     fill-rule="evenodd"
     fill="#ffffff"
     class="Note" />
  <path
     id="path1222"
     d="m 1737.898,352.594 c 0.69,0 1.72,0.406 3.09,1.219 1.36,0.812 2.55,1.218 3.56,1.218 1.66,0 3.06,-0.64 4.2,-1.921 1.14,-1.282 1.71,-2.86 1.71,-4.735 0,-1.166 -0.21,-2.198 -0.61,-3.094 -0.41,-0.895 -0.93,-1.588 -1.56,-2.078 -0.63,-0.489 -1.38,-0.89 -2.25,-1.203 -0.87,-0.312 -1.68,-0.513 -2.45,-0.601 -0.76,-0.089 -1.58,-0.133 -2.44,-0.133 v -0.594 c 1.02,-0.354 1.89,-0.706 2.63,-1.055 0.73,-0.349 1.5,-0.815 2.31,-1.398 0.81,-0.583 1.43,-1.294 1.87,-2.133 0.44,-0.838 0.65,-1.799 0.65,-2.883 0,-1.406 -0.45,-2.56 -1.37,-3.461 -0.92,-0.901 -2.11,-1.351 -3.58,-1.351 -1.41,0 -2.64,0.383 -3.71,1.148 -1.07,0.766 -2.06,1.972 -2.99,3.617 l -0.67,-0.171 c 0.77,-2.136 1.82,-3.886 3.16,-5.25 1.34,-1.365 3.24,-2.047 5.7,-2.047 2.07,0 3.76,0.57 5.06,1.711 1.3,1.14 1.95,2.627 1.95,4.461 0,1.229 -0.31,2.307 -0.94,3.234 -0.63,0.927 -1.73,1.917 -3.29,2.969 1.8,0.781 3.21,1.776 4.23,2.984 1.02,1.208 1.53,2.932 1.53,5.172 0,3.187 -1.17,5.737 -3.53,7.648 -2.35,1.912 -5.32,2.868 -8.89,2.868 -1.55,0 -2.79,-0.232 -3.7,-0.696 -0.92,-0.463 -1.38,-1.086 -1.38,-1.867 0,-0.479 0.16,-0.862 0.47,-1.148 0.31,-0.287 0.73,-0.43 1.24,-0.43"
     fill="#aa0000"
     class="Note" />
  <path
     id="path1224"
     d="m 1748.968,102.844 c 3.13,0 5.77,0.812 7.93,2.437 2.01,1.761 3.01,3.974 3.01,6.641 0,4.49 -2.31,8.687 -6.92,12.594 -4.69,3.906 -9.7,5.859 -15.05,5.859 -3.12,0 -5.76,-0.812 -7.9,-2.437 -2.02,-1.761 -3.04,-3.974 -3.04,-6.641 0,-4.49 2.35,-8.688 7.04,-12.594 4.56,-3.906 9.54,-5.859 14.93,-5.859"
     fill="#aa0000"
     class="Note" />
  <path
     id="path1226"
     d="m 1652.008,322.86 h 28 v 37.5 h -28 v -37.5"
     fill-rule="evenodd"
     fill="#ffffff"
     class="Note" />
  <path
     id="path1228"
     d="m 1652.008,322.86 h 28 v 37.5 h -28 v -37.5"
     fill-rule="evenodd"
     fill="#ffffff"
     class="Note" />
  <path
     id="path1230"
     d="m 1662.738,329.422 c -0.54,0 -1.62,0.333 -3.23,1 v -0.641 l 8.09,-4.093 0.36,0.093 v 27 c 0,1.084 0.27,1.79 0.82,2.118 0.54,0.328 1.69,0.507 3.46,0.539 v 0.672 h -12.42 v -0.672 c 1.68,-0.063 2.81,-0.31 3.39,-0.742 0.59,-0.433 0.88,-1.357 0.88,-2.774 v -20.375 c 0,-1.417 -0.45,-2.125 -1.35,-2.125"
     fill="#aa0000"
     class="Note" />
  <path
     id="path1232"
     d="m 1652.008,360.36 h 28 v 37.5 h -28 v -37.5"
     fill-rule="evenodd"
     fill="#ffffff"
     class="Note" />
  <path
     id="path1234"
     d="m 1652.008,360.36 h 28 v 37.5 h -28 v -37.5"
     fill-rule="evenodd"
     fill="#ffffff"
     class="Note" />
  <path
     id="path1236"
     d="m 1673.138,389.914 c -1.86,2.881 -4.32,4.321 -7.38,4.321 -3.06,0 -5.52,-1.469 -7.38,-4.407 -1.86,-2.937 -2.79,-6.718 -2.79,-11.343 0,-4.344 0.93,-7.98 2.79,-10.907 1.86,-2.927 4.38,-4.39 7.55,-4.39 2.95,0 5.35,1.44 7.21,4.32 1.86,2.88 2.79,6.633 2.79,11.258 0,4.552 -0.93,8.268 -2.79,11.148 m -7.33,-25.554 c -3.93,0 -5.89,4.843 -5.89,14.531 0,9.448 1.94,14.172 5.84,14.172 3.9,0 5.84,-4.74 5.84,-14.219 0,-4.708 -0.49,-8.299 -1.48,-10.773 -0.99,-2.474 -2.43,-3.711 -4.31,-3.711"
     class="Note" />
  <path
     id="path1238"
     d="m 1669.228,115.344 c 3.12,0 5.76,0.812 7.92,2.437 2.01,1.761 3.02,3.974 3.02,6.641 0,4.49 -2.31,8.687 -6.93,12.594 -4.68,3.906 -9.7,5.859 -15.04,5.859 -3.13,0 -5.76,-0.812 -7.91,-2.437 -2.02,-1.761 -3.03,-3.974 -3.03,-6.641 0,-4.49 2.34,-8.688 7.03,-12.594 4.56,-3.906 9.54,-5.859 14.94,-5.859"
     fill="#aa0000"
     class="Note" />
  <path
     id="path1240"
     d="m 1669.228,152.844 c 3.12,0 5.76,0.812 7.92,2.437 2.01,1.761 3.02,3.974 3.02,6.641 0,4.49 -2.31,8.687 -6.93,12.594 -4.68,3.906 -9.7,5.859 -15.04,5.859 -3.13,0 -5.76,-0.812 -7.91,-2.437 -2.02,-1.761 -3.03,-3.974 -3.03,-6.641 0,-4.49 2.34,-8.688 7.03,-12.594 4.56,-3.906 9.54,-5.859 14.94,-5.859"
     class="Note" />
  <path
     id="path1242"
     d="m 1572.268,322.86 h 28 v 37.5 h -28 v -37.5"
     fill-rule="evenodd"
     fill="#ffffff"
     class="Note" />
  <path
     id="path1244"
     d="m 1572.268,322.86 h 28 v 37.5 h -28 v -37.5"
     fill-rule="evenodd"
     fill="#ffffff"
     class="Note" />
  <path
     id="path1246"
     d="m 1578.408,352.594 c 0.69,0 1.73,0.406 3.09,1.219 1.36,0.812 2.55,1.218 3.56,1.218 1.66,0 3.06,-0.64 4.2,-1.921 1.14,-1.282 1.71,-2.86 1.71,-4.735 0,-1.166 -0.2,-2.198 -0.61,-3.094 -0.41,-0.895 -0.93,-1.588 -1.56,-2.078 -0.63,-0.489 -1.38,-0.89 -2.25,-1.203 -0.87,-0.312 -1.68,-0.513 -2.45,-0.601 -0.76,-0.089 -1.58,-0.133 -2.44,-0.133 v -0.594 c 1.02,-0.354 1.89,-0.706 2.63,-1.055 0.73,-0.349 1.5,-0.815 2.31,-1.398 0.81,-0.583 1.43,-1.294 1.87,-2.133 0.44,-0.838 0.66,-1.799 0.66,-2.883 0,-1.406 -0.46,-2.56 -1.38,-3.461 -0.92,-0.901 -2.11,-1.351 -3.58,-1.351 -1.4,0 -2.64,0.383 -3.71,1.148 -1.07,0.766 -2.06,1.972 -2.99,3.617 l -0.67,-0.171 c 0.77,-2.136 1.82,-3.886 3.16,-5.25 1.34,-1.365 3.24,-2.047 5.7,-2.047 2.07,0 3.76,0.57 5.06,1.711 1.3,1.14 1.95,2.627 1.95,4.461 0,1.229 -0.31,2.307 -0.94,3.234 -0.63,0.927 -1.73,1.917 -3.29,2.969 1.8,0.781 3.21,1.776 4.23,2.984 1.02,1.208 1.53,2.932 1.53,5.172 0,3.187 -1.17,5.737 -3.53,7.648 -2.35,1.912 -5.32,2.868 -8.89,2.868 -1.55,0 -2.79,-0.232 -3.7,-0.696 -0.92,-0.463 -1.38,-1.086 -1.38,-1.867 0,-0.479 0.16,-0.862 0.47,-1.148 0.31,-0.287 0.73,-0.43 1.24,-0.43"
     fill="#aa0000"
     class="Note" />
  <path
     id="path1248"
     d="m 1589.478,102.844 c 3.13,0 5.77,0.812 7.93,2.437 2.01,1.761 3.01,3.974 3.01,6.641 0,4.49 -2.31,8.687 -6.92,12.594 -4.69,3.906 -9.7,5.859 -15.05,5.859 -3.12,0 -5.76,-0.812 -7.9,-2.437 -2.02,-1.761 -3.03,-3.974 -3.03,-6.641 0,-4.49 2.34,-8.688 7.03,-12.594 4.56,-3.906 9.54,-5.859 14.93,-5.859"
     fill="#aa0000"
     class="Note" />
  <path
     id="path1250"
     d="m 1492.518,285.36 h 28 v 37.5 h -28 v -37.5"
     fill-rule="evenodd"
     fill="#ffffff"
     class="Note" />
  <path
     id="path1252"
     d="m 1492.518,285.36 h 28 v 37.5 h -28 v -37.5"
     fill-rule="evenodd"
     fill="#ffffff"
     class="Note" />
  <path
     id="path1254"
     d="m 1513.648,314.914 c -1.86,2.88 -4.32,4.321 -7.38,4.321 -3.06,0 -5.52,-1.469 -7.38,-4.407 -1.86,-2.937 -2.79,-6.718 -2.79,-11.343 0,-4.344 0.93,-7.98 2.79,-10.907 1.86,-2.927 4.38,-4.39 7.55,-4.39 2.95,0 5.35,1.44 7.21,4.32 1.86,2.88 2.79,6.633 2.79,11.258 0,4.552 -0.93,8.268 -2.79,11.148 m -7.33,-25.554 c -3.93,0 -5.89,4.843 -5.89,14.531 0,9.448 1.95,14.172 5.84,14.172 3.9,0 5.84,-4.74 5.84,-14.219 0,-4.708 -0.49,-8.3 -1.48,-10.774 -0.99,-2.473 -2.43,-3.71 -4.31,-3.71"
     fill="#aa0000"
     class="Note" />
  <path
     id="path1256"
     d="m 1492.518,360.36 h 28 v 37.5 h -28 v -37.5"
     fill-rule="evenodd"
     fill="#ffffff"
     class="Note" />
  <path
     id="path1258"
     d="m 1492.518,360.36 h 28 v 37.5 h -28 v -37.5"
     fill-rule="evenodd"
     fill="#ffffff"
     class="Note" />
  <path
     id="path1260"
     d="m 1513.648,389.914 c -1.86,2.881 -4.32,4.321 -7.38,4.321 -3.06,0 -5.52,-1.469 -7.38,-4.407 -1.86,-2.937 -2.79,-6.718 -2.79,-11.343 0,-4.344 0.93,-7.98 2.79,-10.907 1.86,-2.927 4.38,-4.39 7.55,-4.39 2.95,0 5.35,1.44 7.21,4.32 1.86,2.88 2.79,6.633 2.79,11.258 0,4.552 -0.93,8.268 -2.79,11.148 m -7.33,-25.554 c -3.93,0 -5.89,4.843 -5.89,14.531 0,9.448 1.95,14.172 5.84,14.172 3.9,0 5.84,-4.74 5.84,-14.219 0,-4.708 -0.49,-8.299 -1.48,-10.773 -0.99,-2.474 -2.43,-3.711 -4.31,-3.711"
     class="Note" />
  <path
     id="path1262"
     d="m 1509.738,90.344 c 3.12,0 5.77,0.812 7.92,2.437 2.01,1.761 3.02,3.974 3.02,6.641 0,4.49 -2.31,8.687 -6.92,12.594 -4.69,3.906 -9.71,5.859 -15.05,5.859 -3.13,0 -5.76,-0.812 -7.91,-2.437 -2.02,-1.761 -3.03,-3.974 -3.03,-6.641 0,-4.49 2.34,-8.688 7.03,-12.594 4.56,-3.906 9.54,-5.859 14.94,-5.859"
     fill="#aa0000"
     class="Note" />
  <path
     id="path1264"
     d="m 1509.738,152.844 c 3.12,0 5.77,0.812 7.92,2.437 2.01,1.761 3.02,3.974 3.02,6.641 0,4.49 -2.31,8.687 -6.92,12.594 -4.69,3.906 -9.71,5.859 -15.05,5.859 -3.13,0 -5.76,-0.812 -7.91,-2.437 -2.02,-1.761 -3.03,-3.974 -3.03,-6.641 0,-4.49 2.34,-8.688 7.03,-12.594 4.56,-3.906 9.54,-5.859 14.94,-5.859"
     class="Note" />
  <path
     id="path1266"
     d="m 1335.588,285.36 h 28 v 37.5 h -28 v -37.5"
     fill-rule="evenodd"
     fill="#ffffff"
     class="Note" />
  <path
     id="path1268"
     d="m 1335.588,285.36 h 28 v 37.5 h -28 v -37.5"
     fill-rule="evenodd"
     fill="#ffffff"
     class="Note" />
  <path
     id="path1270"
     d="m 1341.728,315.094 c 0.69,0 1.73,0.406 3.09,1.219 1.37,0.812 2.55,1.218 3.56,1.218 1.66,0 3.06,-0.64 4.2,-1.921 1.14,-1.282 1.71,-2.86 1.71,-4.735 0,-1.166 -0.2,-2.198 -0.61,-3.094 -0.41,-0.895 -0.92,-1.588 -1.55,-2.078 -0.63,-0.489 -1.38,-0.89 -2.25,-1.203 -0.87,-0.312 -1.69,-0.513 -2.46,-0.601 -0.76,-0.089 -1.58,-0.133 -2.44,-0.133 v -0.594 c 1.02,-0.354 1.9,-0.706 2.63,-1.055 0.73,-0.349 1.5,-0.815 2.31,-1.398 0.81,-0.583 1.43,-1.294 1.87,-2.133 0.44,-0.838 0.66,-1.799 0.66,-2.883 0,-1.406 -0.46,-2.56 -1.38,-3.461 -0.92,-0.901 -2.11,-1.351 -3.58,-1.351 -1.4,0 -2.64,0.383 -3.71,1.148 -1.07,0.766 -2.06,1.972 -2.99,3.617 l -0.67,-0.171 c 0.77,-2.136 1.82,-3.886 3.16,-5.25 1.34,-1.365 3.24,-2.047 5.7,-2.047 2.07,0 3.76,0.57 5.06,1.711 1.3,1.14 1.95,2.627 1.95,4.461 0,1.229 -0.31,2.307 -0.94,3.234 -0.63,0.927 -1.73,1.917 -3.29,2.969 1.8,0.781 3.21,1.776 4.23,2.984 1.02,1.208 1.53,2.932 1.53,5.172 0,3.187 -1.17,5.737 -3.53,7.648 -2.35,1.912 -5.32,2.868 -8.89,2.868 -1.55,0 -2.78,-0.232 -3.7,-0.696 -0.92,-0.463 -1.38,-1.086 -1.38,-1.867 0,-0.479 0.16,-0.862 0.47,-1.148 0.32,-0.287 0.73,-0.43 1.24,-0.43"
     fill="#aa0000"
     class="Note" />
  <path
     id="path1272"
     d="m 1361.478,72.563 c 0,-1.105 -0.42,-2.047 -1.26,-2.829 -0.86,-0.843 -1.84,-1.265 -2.94,-1.265 -1.95,0 -5.89,1.953 -11.81,5.859 -6.13,3.969 -9.87,6.802 -11.24,8.5 -0.72,0.906 -1.08,1.849 -1.08,2.828 0,1.104 0.43,2.047 1.28,2.828 0.79,0.844 1.76,1.266 2.93,1.266 1.88,0 5.86,-1.953 11.92,-5.859 5.99,-3.907 9.7,-6.74 11.12,-8.5 0.72,-0.844 1.08,-1.787 1.08,-2.828 m -5.17,-7.219 c 5.59,0 8.39,2.406 8.39,7.219 0,2.343 -0.68,5.078 -2.05,8.203 -1.36,3.062 -3.18,5.406 -5.47,7.031 -5.01,3.385 -11.29,5.078 -18.84,5.078 -5.6,0 -8.41,-2.406 -8.41,-7.219 0,-2.146 0.69,-4.849 2.05,-8.109 1.3,-3.125 3.13,-5.5 5.47,-7.125 5.02,-3.385 11.31,-5.078 18.86,-5.078"
     fill="#aa0000"
     class="Note" />
  <path
     id="path1274"
     d="m 1261.558,285.36 h 28 v 37.5 h -28 v -37.5"
     fill-rule="evenodd"
     fill="#ffffff"
     class="Note" />
  <path
     id="path1276"
     d="m 1261.558,285.36 h 28 v 37.5 h -28 v -37.5"
     fill-rule="evenodd"
     fill="#ffffff"
     class="Note" />
  <path
     id="path1278"
     d="m 1267.708,315.094 c 0.69,0 1.72,0.406 3.09,1.219 1.36,0.812 2.55,1.218 3.56,1.218 1.66,0 3.06,-0.64 4.2,-1.921 1.14,-1.282 1.71,-2.86 1.71,-4.735 0,-1.166 -0.21,-2.198 -0.61,-3.094 -0.41,-0.895 -0.93,-1.588 -1.56,-2.078 -0.63,-0.489 -1.38,-0.89 -2.25,-1.203 -0.87,-0.312 -1.68,-0.513 -2.45,-0.601 -0.77,-0.089 -1.58,-0.133 -2.44,-0.133 v -0.594 c 1.02,-0.354 1.89,-0.706 2.63,-1.055 0.73,-0.349 1.5,-0.815 2.31,-1.398 0.81,-0.583 1.43,-1.294 1.87,-2.133 0.44,-0.838 0.65,-1.799 0.65,-2.883 0,-1.406 -0.45,-2.56 -1.37,-3.461 -0.92,-0.901 -2.11,-1.351 -3.58,-1.351 -1.41,0 -2.64,0.383 -3.71,1.148 -1.07,0.766 -2.07,1.972 -2.99,3.617 l -0.67,-0.171 c 0.77,-2.136 1.82,-3.886 3.16,-5.25 1.34,-1.365 3.24,-2.047 5.7,-2.047 2.07,0 3.76,0.57 5.06,1.711 1.3,1.14 1.95,2.627 1.95,4.461 0,1.229 -0.31,2.307 -0.94,3.234 -0.63,0.927 -1.73,1.917 -3.29,2.969 1.8,0.781 3.21,1.776 4.23,2.984 1.02,1.208 1.53,2.932 1.53,5.172 0,3.187 -1.18,5.737 -3.53,7.648 -2.35,1.912 -5.32,2.868 -8.89,2.868 -1.55,0 -2.79,-0.232 -3.7,-0.696 -0.92,-0.463 -1.38,-1.086 -1.38,-1.867 0,-0.479 0.16,-0.862 0.47,-1.148 0.31,-0.287 0.72,-0.43 1.24,-0.43"
     fill="#aa0000"
     class="Note" />
  <path
     id="path1280"
     d="m 1278.778,65.344 c 3.13,0 5.77,0.812 7.93,2.437 2.01,1.761 3.01,3.974 3.01,6.641 0,4.49 -2.31,8.687 -6.92,12.594 -4.69,3.906 -9.7,5.859 -15.05,5.859 -3.12,0 -5.76,-0.812 -7.9,-2.437 -2.03,-1.761 -3.04,-3.974 -3.04,-6.641 0,-4.49 2.35,-8.688 7.04,-12.594 4.56,-3.906 9.54,-5.859 14.93,-5.859"
     fill="#aa0000"
     class="Note" />
  <path
     id="path1282"
     d="m 1187.538,285.36 h 28 v 37.5 h -28 v -37.5"
     fill-rule="evenodd"
     fill="#ffffff"
     class="Note" />
  <path
     id="path1284"
     d="m 1187.538,285.36 h 28 v 37.5 h -28 v -37.5"
     fill-rule="evenodd"
     fill="#ffffff"
     class="Note" />
  <path
     id="path1286"
     d="m 1208.678,314.914 c -1.86,2.88 -4.32,4.321 -7.39,4.321 -3.06,0 -5.52,-1.469 -7.38,-4.407 -1.86,-2.937 -2.79,-6.718 -2.79,-11.343 0,-4.344 0.93,-7.98 2.79,-10.907 1.86,-2.927 4.38,-4.39 7.55,-4.39 2.95,0 5.36,1.44 7.22,4.32 1.86,2.88 2.78,6.633 2.78,11.258 0,4.552 -0.92,8.268 -2.78,11.148 m -7.34,-25.554 c -3.93,0 -5.89,4.843 -5.89,14.531 0,9.448 1.95,14.172 5.84,14.172 3.9,0 5.85,-4.74 5.85,-14.219 0,-4.708 -0.5,-8.3 -1.49,-10.774 -0.99,-2.473 -2.42,-3.71 -4.31,-3.71"
     fill="#aa0000"
     class="Note" />
  <path
     id="path1288"
     d="m 1204.758,90.344 c 3.13,0 5.77,0.812 7.92,2.437 2.01,1.761 3.02,3.974 3.02,6.641 0,4.49 -2.31,8.687 -6.92,12.594 -4.69,3.906 -9.71,5.859 -15.05,5.859 -3.12,0 -5.76,-0.812 -7.91,-2.437 -2.02,-1.761 -3.03,-3.974 -3.03,-6.641 0,-4.49 2.35,-8.688 7.03,-12.594 4.57,-3.906 9.55,-5.859 14.94,-5.859"
     fill="#aa0000"
     class="Note" />
  <path
     id="path1290"
     d="m 1037.818,322.86 h 28 v 37.5 h -28 v -37.5"
     fill-rule="evenodd"
     fill="#ffffff"
     class="Note" />
  <path
     id="path1292"
     d="m 1037.818,322.86 h 28 v 37.5 h -28 v -37.5"
     fill-rule="evenodd"
     fill="#ffffff"
     class="Note" />
  <path
     id="path1294"
     d="m 1043.958,352.594 c 0.69,0 1.72,0.406 3.09,1.219 1.36,0.812 2.55,1.218 3.56,1.218 1.66,0 3.06,-0.64 4.2,-1.921 1.14,-1.282 1.71,-2.86 1.71,-4.735 0,-1.166 -0.2,-2.198 -0.61,-3.094 -0.41,-0.895 -0.93,-1.588 -1.56,-2.078 -0.63,-0.489 -1.38,-0.89 -2.25,-1.203 -0.87,-0.312 -1.68,-0.513 -2.45,-0.601 -0.76,-0.089 -1.58,-0.133 -2.44,-0.133 v -0.594 c 1.02,-0.354 1.89,-0.706 2.63,-1.055 0.73,-0.349 1.5,-0.815 2.31,-1.398 0.81,-0.583 1.43,-1.294 1.87,-2.133 0.44,-0.838 0.65,-1.799 0.65,-2.883 0,-1.406 -0.45,-2.56 -1.37,-3.461 -0.92,-0.901 -2.11,-1.351 -3.58,-1.351 -1.4,0 -2.64,0.383 -3.71,1.148 -1.07,0.766 -2.06,1.972 -2.99,3.617 l -0.67,-0.171 c 0.77,-2.136 1.82,-3.886 3.16,-5.25 1.34,-1.365 3.24,-2.047 5.7,-2.047 2.07,0 3.76,0.57 5.06,1.711 1.3,1.14 1.95,2.627 1.95,4.461 0,1.229 -0.31,2.307 -0.94,3.234 -0.63,0.927 -1.73,1.917 -3.29,2.969 1.8,0.781 3.21,1.776 4.23,2.984 1.02,1.208 1.53,2.932 1.53,5.172 0,3.187 -1.17,5.737 -3.53,7.648 -2.35,1.912 -5.32,2.868 -8.89,2.868 -1.55,0 -2.79,-0.232 -3.7,-0.696 -0.92,-0.463 -1.38,-1.086 -1.38,-1.867 0,-0.479 0.16,-0.862 0.47,-1.148 0.31,-0.287 0.73,-0.43 1.24,-0.43"
     fill="#aa0000"
     class="Note" />
  <path
     id="path1296"
     d="m 1063.708,110.063 c 0,-1.105 -0.42,-2.047 -1.27,-2.829 -0.85,-0.843 -1.83,-1.265 -2.93,-1.265 -1.95,0 -5.89,1.953 -11.82,5.859 -6.12,3.969 -9.87,6.802 -11.23,8.5 -0.72,0.906 -1.08,1.849 -1.08,2.828 0,1.104 0.43,2.047 1.28,2.828 0.78,0.844 1.76,1.266 2.92,1.266 1.89,0 5.86,-1.953 11.93,-5.859 5.99,-3.907 9.69,-6.74 11.12,-8.5 0.72,-0.844 1.08,-1.787 1.08,-2.828 m -5.17,-7.219 c 5.59,0 8.39,2.406 8.39,7.219 0,2.343 -0.68,5.078 -2.05,8.203 -1.36,3.062 -3.19,5.406 -5.47,7.031 -5.01,3.385 -11.29,5.078 -18.84,5.078 -5.61,0 -8.41,-2.406 -8.41,-7.219 0,-2.146 0.68,-4.849 2.05,-8.109 1.3,-3.125 3.12,-5.5 5.47,-7.125 5.02,-3.385 11.31,-5.078 18.86,-5.078"
     fill="#aa0000"
     class="Note" />
  <path
     id="path1298"
     d="m 963.788,322.86 h 28 v 37.5 h -28 v -37.5"
     fill-rule="evenodd"
     fill="#ffffff"
     class="Note" />
  <path
     id="path1300"
     d="m 963.788,322.86 h 28 v 37.5 h -28 v -37.5"
     fill-rule="evenodd"
     fill="#ffffff"
     class="Note" />
  <path
     id="path1302"
     d="m 969.928,352.594 c 0.7,0 1.73,0.406 3.1,1.219 1.36,0.812 2.55,1.218 3.56,1.218 1.66,0 3.05,-0.64 4.2,-1.921 1.14,-1.282 1.71,-2.86 1.71,-4.735 0,-1.166 -0.21,-2.198 -0.61,-3.094 -0.41,-0.895 -0.93,-1.588 -1.56,-2.078 -0.63,-0.489 -1.38,-0.89 -2.25,-1.203 -0.87,-0.312 -1.69,-0.513 -2.45,-0.601 -0.77,-0.089 -1.58,-0.133 -2.45,-0.133 v -0.594 c 1.02,-0.354 1.9,-0.706 2.64,-1.055 0.73,-0.349 1.5,-0.815 2.31,-1.398 0.81,-0.583 1.43,-1.294 1.87,-2.133 0.43,-0.838 0.65,-1.799 0.65,-2.883 0,-1.406 -0.46,-2.56 -1.37,-3.461 -0.92,-0.901 -2.11,-1.351 -3.58,-1.351 -1.41,0 -2.64,0.383 -3.71,1.148 -1.07,0.766 -2.07,1.972 -2.99,3.617 l -0.68,-0.171 c 0.78,-2.136 1.83,-3.886 3.17,-5.25 1.34,-1.365 3.24,-2.047 5.69,-2.047 2.08,0 3.76,0.57 5.07,1.711 1.3,1.14 1.95,2.627 1.95,4.461 0,1.229 -0.32,2.307 -0.95,3.234 -0.63,0.927 -1.72,1.917 -3.28,2.969 1.8,0.781 3.21,1.776 4.23,2.984 1.02,1.208 1.53,2.932 1.53,5.172 0,3.187 -1.18,5.737 -3.53,7.648 -2.35,1.912 -5.32,2.868 -8.89,2.868 -1.55,0 -2.79,-0.232 -3.7,-0.696 -0.92,-0.463 -1.38,-1.086 -1.38,-1.867 0,-0.479 0.16,-0.862 0.47,-1.148 0.31,-0.287 0.72,-0.43 1.23,-0.43"
     fill="#aa0000"
     class="Note" />
  <path
     id="path1304"
     d="m 981.008,102.844 c 3.13,0 5.77,0.812 7.92,2.437 2.01,1.761 3.02,3.974 3.02,6.641 0,4.49 -2.31,8.687 -6.92,12.594 -4.69,3.906 -9.71,5.859 -15.05,5.859 -3.12,0 -5.76,-0.812 -7.91,-2.437 -2.02,-1.761 -3.03,-3.974 -3.03,-6.641 0,-4.49 2.35,-8.688 7.03,-12.594 4.57,-3.906 9.55,-5.859 14.94,-5.859"
     fill="#aa0000"
     class="Note" />
  <path
     id="path1306"
     d="m 889.768,360.36 h 28 v 37.5 h -28 v -37.5"
     fill-rule="evenodd"
     fill="#ffffff"
     class="Note" />
  <path
     id="path1308"
     d="m 889.768,360.36 h 28 v 37.5 h -28 v -37.5"
     fill-rule="evenodd"
     fill="#ffffff"
     class="Note" />
  <path
     id="path1310"
     d="m 913.508,383.219 v 2.875 h -4.58 v 7.516 h -3.47 v -7.516 h -12.64 v -2.875 l 14.12,-20.031 h 1.99 v 20.031 h 4.58 m -8.1,0 v -15.438 l -10.79,15.438 h 10.79"
     class="Note" />
  <path
     id="path1312"
     d="m 889.768,322.86 h 28 v 37.5 h -28 v -37.5"
     fill-rule="evenodd"
     fill="#ffffff"
     class="Note" />
  <path
     id="path1314"
     d="m 889.768,322.86 h 28 v 37.5 h -28 v -37.5"
     fill-rule="evenodd"
     fill="#ffffff"
     class="Note" />
  <path
     id="path1316"
     d="m 895.908,352.594 c 0.7,0 1.73,0.406 3.1,1.219 1.36,0.812 2.55,1.218 3.56,1.218 1.65,0 3.05,-0.64 4.19,-1.921 1.14,-1.282 1.71,-2.86 1.71,-4.735 0,-1.166 -0.2,-2.198 -0.6,-3.094 -0.41,-0.895 -0.93,-1.588 -1.56,-2.078 -0.63,-0.489 -1.38,-0.89 -2.25,-1.203 -0.87,-0.312 -1.69,-0.513 -2.45,-0.601 -0.77,-0.089 -1.58,-0.133 -2.45,-0.133 v -0.594 c 1.02,-0.354 1.9,-0.706 2.64,-1.055 0.73,-0.349 1.5,-0.815 2.31,-1.398 0.8,-0.583 1.43,-1.294 1.86,-2.133 0.44,-0.838 0.66,-1.799 0.66,-2.883 0,-1.406 -0.46,-2.56 -1.37,-3.461 -0.92,-0.901 -2.11,-1.351 -3.58,-1.351 -1.41,0 -2.65,0.383 -3.71,1.148 -1.07,0.766 -2.07,1.972 -3,3.617 l -0.67,-0.171 c 0.77,-2.136 1.83,-3.886 3.17,-5.25 1.34,-1.365 3.23,-2.047 5.69,-2.047 2.08,0 3.76,0.57 5.06,1.711 1.31,1.14 1.96,2.627 1.96,4.461 0,1.229 -0.32,2.307 -0.95,3.234 -0.63,0.927 -1.72,1.917 -3.29,2.969 1.81,0.781 3.22,1.776 4.24,2.984 1.02,1.208 1.53,2.932 1.53,5.172 0,3.187 -1.18,5.737 -3.53,7.648 -2.36,1.912 -5.32,2.868 -8.89,2.868 -1.55,0 -2.79,-0.232 -3.71,-0.696 -0.91,-0.463 -1.37,-1.086 -1.37,-1.867 0,-0.479 0.16,-0.862 0.47,-1.148 0.31,-0.287 0.72,-0.43 1.23,-0.43"
     fill="#aa0000"
     class="Note" />
  <path
     id="path1318"
     d="m 906.988,102.844 c 3.13,0 5.77,0.812 7.92,2.437 2.01,1.761 3.02,3.974 3.02,6.641 0,4.49 -2.31,8.687 -6.92,12.594 -4.69,3.906 -9.71,5.859 -15.05,5.859 -3.13,0 -5.76,-0.812 -7.91,-2.437 -2.02,-1.761 -3.03,-3.974 -3.03,-6.641 0,-4.49 2.35,-8.688 7.03,-12.594 4.57,-3.906 9.54,-5.859 14.94,-5.859"
     fill="#aa0000"
     class="Note" />
  <path
     id="path1320"
     d="m 906.988,127.844 c 3.13,0 5.77,0.812 7.92,2.437 2.01,1.761 3.02,3.974 3.02,6.641 0,4.49 -2.31,8.687 -6.92,12.594 -4.69,3.906 -9.71,5.859 -15.05,5.859 -3.13,0 -5.76,-0.812 -7.91,-2.437 -2.02,-1.761 -3.03,-3.974 -3.03,-6.641 0,-4.49 2.35,-8.688 7.03,-12.594 4.57,-3.906 9.54,-5.859 14.94,-5.859"
     class="Note" />
  <path
     id="path1322"
     d="m 740.042,285.36 h 28 v 37.5 h -28 v -37.5"
     fill-rule="evenodd"
     fill="#ffffff"
     class="Note" />
  <path
     id="path1324"
     d="m 740.042,285.36 h 28 v 37.5 h -28 v -37.5"
     fill-rule="evenodd"
     fill="#ffffff"
     class="Note" />
  <path
     id="path1326"
     d="m 761.175,314.914 c -1.86,2.88 -4.321,4.321 -7.383,4.321 -3.063,0 -5.524,-1.469 -7.383,-4.407 -1.859,-2.937 -2.789,-6.718 -2.789,-11.343 0,-4.344 0.93,-7.98 2.789,-10.907 1.859,-2.927 4.378,-4.39 7.555,-4.39 2.948,0 5.351,1.44 7.211,4.32 1.859,2.88 2.789,6.633 2.789,11.258 0,4.552 -0.93,8.268 -2.789,11.148 m -7.336,-25.554 c -3.927,0 -5.891,4.843 -5.891,14.531 0,9.448 1.948,14.172 5.844,14.172 3.896,0 5.844,-4.74 5.844,-14.219 0,-4.708 -0.495,-8.3 -1.485,-10.774 -0.989,-2.473 -2.427,-3.71 -4.312,-3.71"
     fill="#aa0000"
     class="Note" />
  <path
     id="path1328"
     d="m 740.042,322.86 h 28 v 37.5 h -28 v -37.5"
     fill-rule="evenodd"
     fill="#ffffff"
     class="Note" />
  <path
     id="path1330"
     d="m 740.042,322.86 h 28 v 37.5 h -28 v -37.5"
     fill-rule="evenodd"
     fill="#ffffff"
     class="Note" />
  <path
     id="path1332"
     d="m 750.776,329.422 c -0.542,0 -1.62,0.333 -3.234,1 v -0.641 l 8.094,-4.093 0.359,0.093 v 27 c 0,1.084 0.271,1.79 0.812,2.118 0.542,0.328 1.698,0.507 3.469,0.539 v 0.672 h -12.422 v -0.672 c 1.677,-0.063 2.808,-0.31 3.391,-0.742 0.583,-0.433 0.875,-1.357 0.875,-2.774 v -20.375 c 0,-1.417 -0.448,-2.125 -1.344,-2.125"
     class="Note" />
  <path
     id="path1334"
     d="m 740.042,360.36 h 28 v 37.5 h -28 v -37.5"
     fill-rule="evenodd"
     fill="#ffffff"
     class="Note" />
  <path
     id="path1336"
     d="m 740.042,360.36 h 28 v 37.5 h -28 v -37.5"
     fill-rule="evenodd"
     fill="#ffffff"
     class="Note" />
  <path
     id="path1338"
     d="m 761.175,389.914 c -1.86,2.881 -4.321,4.321 -7.383,4.321 -3.063,0 -5.524,-1.469 -7.383,-4.407 -1.859,-2.937 -2.789,-6.718 -2.789,-11.343 0,-4.344 0.93,-7.98 2.789,-10.907 1.859,-2.927 4.378,-4.39 7.555,-4.39 2.948,0 5.351,1.44 7.211,4.32 1.859,2.88 2.789,6.633 2.789,11.258 0,4.552 -0.93,8.268 -2.789,11.148 m -7.336,-25.554 c -3.927,0 -5.891,4.843 -5.891,14.531 0,9.448 1.948,14.172 5.844,14.172 3.896,0 5.844,-4.74 5.844,-14.219 0,-4.708 -0.495,-8.299 -1.485,-10.773 -0.989,-2.474 -2.427,-3.711 -4.312,-3.711"
     class="Note" />
  <path
     id="path1340"
     d="m 765.936,97.563 c 0,-1.105 -0.422,-2.047 -1.265,-2.829 -0.854,-0.843 -1.834,-1.265 -2.938,-1.265 -1.948,0 -5.885,1.953 -11.812,5.859 -6.125,3.969 -9.87,6.802 -11.235,8.5 -0.718,0.906 -1.078,1.849 -1.078,2.828 0,1.104 0.427,2.047 1.281,2.828 0.782,0.844 1.756,1.266 2.922,1.266 1.886,0 5.86,-1.953 11.922,-5.859 5.99,-3.907 9.698,-6.74 11.125,-8.5 0.719,-0.844 1.078,-1.787 1.078,-2.828 m -5.172,-7.219 c 5.594,0 8.391,2.406 8.391,7.219 0,2.343 -0.682,5.078 -2.047,8.203 -1.364,3.062 -3.187,5.406 -5.469,7.031 -5.01,3.385 -11.291,5.078 -18.843,5.078 -5.604,0 -8.407,-2.406 -8.407,-7.219 0,-2.146 0.683,-4.849 2.047,-8.109 1.302,-3.125 3.125,-5.5 5.469,-7.125 5.021,-3.385 11.307,-5.078 18.859,-5.078"
     fill="#aa0000"
     class="Note" />
  <path
     id="path1342"
     d="m 765.936,122.563 c 0,-1.105 -0.422,-2.047 -1.265,-2.829 -0.854,-0.843 -1.834,-1.265 -2.938,-1.265 -1.948,0 -5.885,1.953 -11.812,5.859 -6.125,3.969 -9.87,6.802 -11.235,8.5 -0.718,0.906 -1.078,1.849 -1.078,2.828 0,1.104 0.427,2.047 1.281,2.828 0.782,0.844 1.756,1.266 2.922,1.266 1.886,0 5.86,-1.953 11.922,-5.859 5.99,-3.907 9.698,-6.74 11.125,-8.5 0.719,-0.844 1.078,-1.787 1.078,-2.828 m -5.172,-7.219 c 5.594,0 8.391,2.406 8.391,7.219 0,2.343 -0.682,5.078 -2.047,8.203 -1.364,3.062 -3.187,5.406 -5.469,7.031 -5.01,3.385 -11.291,5.078 -18.843,5.078 -5.604,0 -8.407,-2.406 -8.407,-7.219 0,-2.146 0.683,-4.849 2.047,-8.109 1.302,-3.125 3.125,-5.5 5.469,-7.125 5.021,-3.385 11.307,-5.078 18.859,-5.078"
     class="Note" />
  <path
     id="path1344"
     d="m 765.936,160.063 c 0,-1.105 -0.422,-2.047 -1.265,-2.829 -0.854,-0.843 -1.834,-1.265 -2.938,-1.265 -1.948,0 -5.885,1.953 -11.812,5.859 -6.125,3.969 -9.87,6.802 -11.235,8.5 -0.718,0.906 -1.078,1.849 -1.078,2.828 0,1.105 0.427,2.047 1.281,2.828 0.782,0.844 1.756,1.266 2.922,1.266 1.886,0 5.86,-1.953 11.922,-5.859 5.99,-3.907 9.698,-6.74 11.125,-8.5 0.719,-0.844 1.078,-1.787 1.078,-2.828 m -5.172,-7.219 c 5.594,0 8.391,2.406 8.391,7.219 0,2.343 -0.682,5.078 -2.047,8.203 -1.364,3.062 -3.187,5.406 -5.469,7.031 -5.01,3.385 -11.291,5.078 -18.843,5.078 -5.604,0 -8.407,-2.406 -8.407,-7.219 0,-2.145 0.683,-4.849 2.047,-8.109 1.302,-3.125 3.125,-5.5 5.469,-7.125 5.021,-3.385 11.307,-5.078 18.859,-5.078"
     class="Note" />
  <path
     id="path1346"
     d="m 666.02,285.36 h 28 v 37.5 h -28 v -37.5"
     fill-rule="evenodd"
     fill="#ffffff"
     class="Note" />
  <path
     id="path1348"
     d="m 666.02,285.36 h 28 v 37.5 h -28 v -37.5"
     fill-rule="evenodd"
     fill="#ffffff"
     class="Note" />
  <path
     id="path1350"
     d="m 687.153,314.914 c -1.86,2.88 -4.32,4.321 -7.383,4.321 -3.062,0 -5.523,-1.469 -7.383,-4.407 -1.859,-2.937 -2.789,-6.718 -2.789,-11.343 0,-4.344 0.93,-7.98 2.789,-10.907 1.86,-2.927 4.378,-4.39 7.555,-4.39 2.948,0 5.351,1.44 7.211,4.32 1.859,2.88 2.789,6.633 2.789,11.258 0,4.552 -0.93,8.268 -2.789,11.148 m -7.336,-25.554 c -3.927,0 -5.891,4.843 -5.891,14.531 0,9.448 1.948,14.172 5.844,14.172 3.896,0 5.844,-4.74 5.844,-14.219 0,-4.708 -0.495,-8.3 -1.485,-10.774 -0.989,-2.473 -2.427,-3.71 -4.312,-3.71"
     fill="#aa0000"
     class="Note" />
  <path
     id="path1352"
     d="m 683.239,90.344 c 3.125,0 5.765,0.812 7.922,2.437 2.01,1.761 3.015,3.974 3.015,6.641 0,4.49 -2.307,8.687 -6.922,12.594 -4.687,3.906 -9.703,5.859 -15.046,5.859 -3.125,0 -5.761,-0.812 -7.907,-2.437 -2.021,-1.761 -3.031,-3.974 -3.031,-6.641 0,-4.49 2.344,-8.688 7.031,-12.594 4.563,-3.906 9.542,-5.859 14.938,-5.859"
     fill="#aa0000"
     class="Note" />
  <path
     id="path1354"
     d="m 591.998,285.36 h 28 v 37.5 h -28 v -37.5"
     fill-rule="evenodd"
     fill="#ffffff"
     class="Note" />
  <path
     id="path1356"
     d="m 591.998,285.36 h 28 v 37.5 h -28 v -37.5"
     fill-rule="evenodd"
     fill="#ffffff"
     class="Note" />
  <path
     id="path1358"
     d="m 613.131,314.914 c -1.859,2.88 -4.32,4.321 -7.383,4.321 -3.062,0 -5.523,-1.469 -7.383,-4.407 -1.859,-2.937 -2.789,-6.718 -2.789,-11.343 0,-4.344 0.93,-7.98 2.789,-10.907 1.86,-2.927 4.378,-4.39 7.555,-4.39 2.948,0 5.352,1.44 7.211,4.32 1.859,2.88 2.789,6.633 2.789,11.258 0,4.552 -0.93,8.268 -2.789,11.148 m -7.336,-25.554 c -3.927,0 -5.89,4.843 -5.89,14.531 0,9.448 1.947,14.172 5.843,14.172 3.896,0 5.844,-4.74 5.844,-14.219 0,-4.708 -0.495,-8.3 -1.484,-10.774 -0.99,-2.473 -2.427,-3.71 -4.313,-3.71"
     fill="#aa0000"
     class="Note" />
  <path
     id="path1360"
     d="m 609.217,90.344 c 3.125,0 5.766,0.812 7.922,2.437 2.01,1.761 3.016,3.974 3.016,6.641 0,4.49 -2.308,8.687 -6.922,12.594 -4.688,3.906 -9.703,5.859 -15.047,5.859 -3.125,0 -5.761,-0.812 -7.906,-2.437 -2.021,-1.761 -3.032,-3.974 -3.032,-6.641 0,-4.49 2.344,-8.688 7.032,-12.594 4.562,-3.906 9.541,-5.859 14.937,-5.859"
     fill="#aa0000"
     class="Note" />
  <path
     id="path1362"
     d="m 480.961,322.86 h 28 v 37.5 h -28 v -37.5"
     fill-rule="evenodd"
     fill="#ffffff"
     class="Note" />
  <path
     id="path1364"
     d="m 480.961,322.86 h 28 v 37.5 h -28 v -37.5"
     fill-rule="evenodd"
     fill="#ffffff"
     class="Note" />
  <path
     id="path1366"
     d="m 487.101,352.594 c 0.698,0 1.73,0.406 3.094,1.219 1.365,0.812 2.552,1.218 3.563,1.218 1.656,0 3.054,-0.64 4.195,-1.921 1.141,-1.282 1.711,-2.86 1.711,-4.735 0,-1.166 -0.203,-2.198 -0.61,-3.094 -0.406,-0.895 -0.924,-1.588 -1.554,-2.078 -0.63,-0.489 -1.38,-0.89 -2.25,-1.203 -0.87,-0.312 -1.688,-0.513 -2.453,-0.601 -0.766,-0.089 -1.581,-0.133 -2.446,-0.133 v -0.594 c 1.021,-0.354 1.899,-0.706 2.633,-1.055 0.735,-0.349 1.505,-0.815 2.313,-1.398 0.807,-0.583 1.429,-1.294 1.867,-2.133 0.437,-0.838 0.656,-1.799 0.656,-2.883 0,-1.406 -0.458,-2.56 -1.375,-3.461 -0.917,-0.901 -2.109,-1.351 -3.578,-1.351 -1.406,0 -2.643,0.383 -3.711,1.148 -1.068,0.766 -2.065,1.972 -2.992,3.617 l -0.672,-0.171 c 0.771,-2.136 1.826,-3.886 3.164,-5.25 1.339,-1.365 3.237,-2.047 5.695,-2.047 2.073,0 3.761,0.57 5.063,1.711 1.302,1.14 1.953,2.627 1.953,4.461 0,1.229 -0.315,2.307 -0.945,3.234 -0.631,0.927 -1.727,1.917 -3.289,2.969 1.802,0.781 3.213,1.776 4.234,2.984 1.021,1.208 1.531,2.932 1.531,5.172 0,3.187 -1.177,5.737 -3.531,7.648 -2.354,1.912 -5.318,2.868 -8.891,2.868 -1.552,0 -2.786,-0.232 -3.703,-0.696 -0.916,-0.463 -1.375,-1.086 -1.375,-1.867 0,-0.479 0.156,-0.862 0.469,-1.148 0.312,-0.287 0.724,-0.43 1.234,-0.43"
     fill="#aa0000"
     class="Note" />
  <path
     id="path1368"
     d="m 498.179,102.844 c 3.125,0 5.766,0.812 7.922,2.437 2.011,1.761 3.016,3.974 3.016,6.641 0,4.49 -2.307,8.687 -6.922,12.594 -4.687,3.906 -9.703,5.859 -15.047,5.859 -3.125,0 -5.76,-0.812 -7.906,-2.437 -2.021,-1.761 -3.031,-3.974 -3.031,-6.641 0,-4.49 2.343,-8.688 7.031,-12.594 4.562,-3.906 9.542,-5.859 14.937,-5.859"
     fill="#aa0000"
     class="Note" />
  <path
     id="path1370"
     d="m 401.216,322.86 h 28 v 37.5 h -28 v -37.5"
     fill-rule="evenodd"
     fill="#ffffff"
     class="Note" />
  <path
     id="path1372"
     d="m 401.216,322.86 h 28 v 37.5 h -28 v -37.5"
     fill-rule="evenodd"
     fill="#ffffff"
     class="Note" />
  <path
     id="path1374"
     d="m 411.951,329.422 c -0.542,0 -1.62,0.333 -3.235,1 v -0.641 l 8.094,-4.093 0.359,0.093 v 27 c 0,1.084 0.271,1.79 0.813,2.118 0.541,0.328 1.698,0.507 3.469,0.539 v 0.672 h -12.422 v -0.672 c 1.677,-0.063 2.807,-0.31 3.39,-0.742 0.584,-0.433 0.875,-1.357 0.875,-2.774 v -20.375 c 0,-1.417 -0.448,-2.125 -1.343,-2.125"
     fill="#aa0000"
     class="Note" />
  <path
     id="path1376"
     d="m 401.216,360.36 h 28 v 37.5 h -28 v -37.5"
     fill-rule="evenodd"
     fill="#ffffff"
     class="Note" />
  <path
     id="path1378"
     d="m 401.216,360.36 h 28 v 37.5 h -28 v -37.5"
     fill-rule="evenodd"
     fill="#ffffff"
     class="Note" />
  <path
     id="path1380"
     d="m 422.349,389.914 c -1.859,2.881 -4.32,4.321 -7.383,4.321 -3.062,0 -5.523,-1.469 -7.383,-4.407 -1.859,-2.937 -2.789,-6.718 -2.789,-11.343 0,-4.344 0.93,-7.98 2.789,-10.907 1.86,-2.927 4.378,-4.39 7.555,-4.39 2.948,0 5.352,1.44 7.211,4.32 1.859,2.88 2.789,6.633 2.789,11.258 0,4.552 -0.93,8.268 -2.789,11.148 m -7.336,-25.554 c -3.927,0 -5.891,4.843 -5.891,14.531 0,9.448 1.948,14.172 5.844,14.172 3.896,0 5.844,-4.74 5.844,-14.219 0,-4.708 -0.495,-8.299 -1.484,-10.773 -0.99,-2.474 -2.428,-3.711 -4.313,-3.711"
     class="Note" />
  <path
     id="path1382"
     d="m 418.435,115.344 c 3.125,0 5.766,0.812 7.922,2.437 2.01,1.761 3.015,3.974 3.015,6.641 0,4.49 -2.307,8.687 -6.921,12.594 -4.688,3.906 -9.704,5.859 -15.047,5.859 -3.125,0 -5.761,-0.812 -7.907,-2.437 -2.02,-1.761 -3.031,-3.974 -3.031,-6.641 0,-4.49 2.344,-8.688 7.031,-12.594 4.563,-3.906 9.542,-5.859 14.938,-5.859"
     fill="#aa0000"
     class="Note" />
  <path
     id="path1384"
     d="m 418.435,152.844 c 3.125,0 5.766,0.812 7.922,2.437 2.01,1.761 3.015,3.974 3.015,6.641 0,4.49 -2.307,8.687 -6.921,12.594 -4.688,3.906 -9.704,5.859 -15.047,5.859 -3.125,0 -5.761,-0.812 -7.907,-2.437 -2.02,-1.761 -3.031,-3.974 -3.031,-6.641 0,-4.49 2.344,-8.688 7.031,-12.594 4.563,-3.906 9.542,-5.859 14.938,-5.859"
     class="Note" />
  <path
     id="path1386"
     d="m 321.472,322.86 h 28 v 37.5 h -28 v -37.5"
     fill-rule="evenodd"
     fill="#ffffff"
     class="Note" />
  <path
     id="path1388"
     d="m 321.472,322.86 h 28 v 37.5 h -28 v -37.5"
     fill-rule="evenodd"
     fill="#ffffff"
     class="Note" />
  <path
     id="path1390"
     d="m 327.612,352.594 c 0.698,0 1.729,0.406 3.094,1.219 1.365,0.812 2.552,1.218 3.562,1.218 1.657,0 3.055,-0.64 4.196,-1.921 1.14,-1.282 1.711,-2.86 1.711,-4.735 0,-1.166 -0.203,-2.198 -0.61,-3.094 -0.406,-0.895 -0.924,-1.588 -1.554,-2.078 -0.631,-0.489 -1.381,-0.89 -2.25,-1.203 -0.87,-0.312 -1.688,-0.513 -2.453,-0.601 -0.766,-0.089 -1.581,-0.133 -2.446,-0.133 v -0.594 c 1.021,-0.354 1.899,-0.706 2.633,-1.055 0.734,-0.349 1.505,-0.815 2.313,-1.398 0.807,-0.583 1.429,-1.294 1.867,-2.133 0.437,-0.838 0.656,-1.799 0.656,-2.883 0,-1.406 -0.458,-2.56 -1.375,-3.461 -0.917,-0.901 -2.109,-1.351 -3.578,-1.351 -1.406,0 -2.643,0.383 -3.711,1.148 -1.068,0.766 -2.065,1.972 -2.992,3.617 l -0.672,-0.171 c 0.771,-2.136 1.825,-3.886 3.164,-5.25 1.338,-1.365 3.237,-2.047 5.695,-2.047 2.073,0 3.761,0.57 5.063,1.711 1.302,1.14 1.953,2.627 1.953,4.461 0,1.229 -0.315,2.307 -0.945,3.234 -0.631,0.927 -1.727,1.917 -3.29,2.969 1.803,0.781 3.214,1.776 4.235,2.984 1.021,1.208 1.531,2.932 1.531,5.172 0,3.187 -1.177,5.737 -3.531,7.648 -2.354,1.912 -5.318,2.868 -8.891,2.868 -1.552,0 -2.786,-0.232 -3.703,-0.696 -0.917,-0.463 -1.375,-1.086 -1.375,-1.867 0,-0.479 0.156,-0.862 0.469,-1.148 0.312,-0.287 0.724,-0.43 1.234,-0.43"
     fill="#aa0000"
     class="Note" />
  <path
     id="path1392"
     d="m 338.69,102.844 c 3.125,0 5.766,0.812 7.922,2.437 2.011,1.761 3.016,3.974 3.016,6.641 0,4.49 -2.307,8.687 -6.922,12.594 -4.688,3.906 -9.703,5.859 -15.047,5.859 -3.125,0 -5.76,-0.812 -7.906,-2.437 -2.021,-1.761 -3.031,-3.974 -3.031,-6.641 0,-4.49 2.343,-8.688 7.031,-12.594 4.562,-3.906 9.541,-5.859 14.937,-5.859"
     fill="#aa0000"
     class="Note" />
  <path
     id="path1394"
     d="m 241.727,285.36 h 28 v 37.5 h -28 v -37.5"
     fill-rule="evenodd"
     fill="#ffffff"
     class="Note" />
  <path
     id="path1396"
     d="m 241.727,285.36 h 28 v 37.5 h -28 v -37.5"
     fill-rule="evenodd"
     fill="#ffffff"
     class="Note" />
  <path
     id="path1398"
     d="m 262.86,314.914 c -1.86,2.88 -4.321,4.321 -7.383,4.321 -3.063,0 -5.523,-1.469 -7.383,-4.407 -1.859,-2.937 -2.789,-6.718 -2.789,-11.343 0,-4.344 0.93,-7.98 2.789,-10.907 1.86,-2.927 4.378,-4.39 7.555,-4.39 2.948,0 5.351,1.44 7.211,4.32 1.859,2.88 2.789,6.633 2.789,11.258 0,4.552 -0.93,8.268 -2.789,11.148 m -7.336,-25.554 c -3.927,0 -5.891,4.843 -5.891,14.531 0,9.448 1.948,14.172 5.844,14.172 3.896,0 5.844,-4.74 5.844,-14.219 0,-4.708 -0.495,-8.3 -1.485,-10.774 -0.989,-2.473 -2.427,-3.71 -4.312,-3.71"
     fill="#aa0000"
     class="Note" />
  <path
     id="path1400"
     d="m 241.727,360.36 h 28 v 37.5 h -28 v -37.5"
     fill-rule="evenodd"
     fill="#ffffff"
     class="Note" />
  <path
     id="path1402"
     d="m 241.727,360.36 h 28 v 37.5 h -28 v -37.5"
     fill-rule="evenodd"
     fill="#ffffff"
     class="Note" />
  <path
     id="path1404"
     d="m 262.86,389.914 c -1.86,2.881 -4.321,4.321 -7.383,4.321 -3.063,0 -5.523,-1.469 -7.383,-4.407 -1.859,-2.937 -2.789,-6.718 -2.789,-11.343 0,-4.344 0.93,-7.98 2.789,-10.907 1.86,-2.927 4.378,-4.39 7.555,-4.39 2.948,0 5.351,1.44 7.211,4.32 1.859,2.88 2.789,6.633 2.789,11.258 0,4.552 -0.93,8.268 -2.789,11.148 m -7.336,-25.554 c -3.927,0 -5.891,4.843 -5.891,14.531 0,9.448 1.948,14.172 5.844,14.172 3.896,0 5.844,-4.74 5.844,-14.219 0,-4.708 -0.495,-8.299 -1.485,-10.773 -0.989,-2.474 -2.427,-3.711 -4.312,-3.711"
     class="Note" />
  <path
     id="path1406"
     d="m 258.946,90.344 c 3.125,0 5.765,0.812 7.922,2.437 2.01,1.761 3.015,3.974 3.015,6.641 0,4.49 -2.307,8.687 -6.922,12.594 -4.687,3.906 -9.703,5.859 -15.047,5.859 -3.125,0 -5.76,-0.812 -7.906,-2.437 -2.021,-1.761 -3.031,-3.974 -3.031,-6.641 0,-4.49 2.344,-8.688 7.031,-12.594 4.563,-3.906 9.542,-5.859 14.938,-5.859"
     fill="#aa0000"
     class="Note" />
  <path
     id="path1408"
     d="m 258.946,152.844 c 3.125,0 5.765,0.812 7.922,2.437 2.01,1.761 3.015,3.974 3.015,6.641 0,4.49 -2.307,8.687 -6.922,12.594 -4.687,3.906 -9.703,5.859 -15.047,5.859 -3.125,0 -5.76,-0.812 -7.906,-2.437 -2.021,-1.761 -3.031,-3.974 -3.031,-6.641 0,-4.49 2.344,-8.688 7.031,-12.594 4.563,-3.906 9.542,-5.859 14.938,-5.859"
     class="Note" />
  <path
     id="path1410"
     d="m 50.102,313.453 v -3.5 H 25.399 v 3.5 h 10.406 v 28 h 4 v -28 h 10.297 m 1.406,62.907 -11,-31.5 h -5.203 l -11.297,31.5 h 4.297 l 3.297,-9.5 h 12.203 l 3.203,9.5 h 4.5 M 42.711,363.563 H 32.602 l 5.203,-14.407 4.906,14.407 m 6.797,38.593 c 0,-3.796 -1.703,-6.093 -5.703,-7.593 2.797,-1.407 4.297,-3.703 4.297,-6.907 0,-4.593 -3.297,-8 -9.297,-8 H 26.008 v 31.5 h 14.203 c 5.688,0 9.297,-3.796 9.297,-9 m -5.406,-13.89 c 0,3.203 -1.797,5 -6.297,5 h -7.797 v -10.11 h 7.797 c 4.5,0 6.297,1.907 6.297,5.11 m 1.406,13.89 c 0,3.11 -1.797,5.407 -5.609,5.407 h -9.891 v -10.797 h 9.891 c 3.812,0 5.609,2.39 5.609,5.39"
     class="Clef" />
  <path
     id="path1412"
     d="m 61.024,91.016 c 0,0 0.198,0 0.593,0 0.261,-0.063 0.485,-0.094 0.672,-0.094 7.292,0 13.282,2.573 17.969,7.719 4.688,5.073 7.031,10.994 7.031,17.765 0,8.407 -3.479,15.245 -10.437,20.516 -1.823,1.437 -4.203,2.609 -7.141,3.516 0.334,4.229 0.5,7.645 0.5,10.25 0,0.52 -0.067,2.411 -0.203,5.671 -0.26,6.053 -2.344,11.292 -6.25,15.719 -3.771,4.365 -8.458,6.547 -14.062,6.547 -5.271,0 -9.761,-1.854 -13.469,-5.562 -3.719,-3.782 -5.578,-8.339 -5.578,-13.672 0,-2.802 1.078,-5.183 3.234,-7.141 2.208,-1.948 4.776,-2.922 7.703,-2.922 2.604,0 4.787,1.011 6.547,3.031 1.823,1.886 2.734,4.23 2.734,7.032 0,2.531 -0.911,4.708 -2.734,6.531 -1.823,1.823 -4.005,2.734 -6.547,2.734 -1.041,0 -2.047,-0.192 -3.015,-0.578 2.864,4.229 6.671,6.344 11.421,6.344 4.49,0 8.167,-1.823 11.032,-5.469 3,-3.771 4.63,-8.166 4.89,-13.187 0.125,-3.125 0.188,-4.912 0.188,-5.36 0,-3.646 -0.13,-6.64 -0.391,-8.984 -3.25,0.521 -6.146,0.781 -8.687,0.781 -9.052,0 -16.766,-3.583 -23.141,-10.75 -6.25,-7.229 -9.375,-15.823 -9.375,-25.781 0,-2.083 0.193,-4.198 0.578,-6.344 0.396,-1.76 0.886,-3.682 1.469,-5.765 0.323,-1.178 1.203,-3.068 2.641,-5.672 0.52,-0.782 1.106,-1.758 1.757,-2.93 0.651,-1.172 1.107,-1.951 1.368,-2.336 0.645,-1.302 1.911,-3.062 3.796,-5.281 0.521,-0.584 1.06,-1.232 1.618,-1.945 0.557,-0.714 1.031,-1.3 1.422,-1.758 0.39,-0.459 0.682,-0.818 0.875,-1.078 0.192,-0.261 1.658,-1.985 4.398,-5.172 0.646,-0.657 1.279,-1.357 1.898,-2.102 0.62,-0.745 1.125,-1.331 1.516,-1.758 0.391,-0.427 0.685,-0.734 0.883,-0.922 -2.344,-7.75 -3.813,-13.937 -4.406,-18.562 -0.448,-3.708 -0.672,-8.787 -0.672,-15.234 0,-5.667 1.302,-10.974 3.906,-15.922 C 50.086,7.755 53.633,3.557 58.196,0.297 58.456,0.099 58.779,0 59.164,0 c 0.459,0 0.787,0.099 0.985,0.297 3.51,4.229 6.536,9.729 9.078,16.5 2.604,6.771 3.906,12.927 3.906,18.469 0,6.25 -1.495,12.109 -4.484,17.578 -3.386,5.791 -7.75,11.781 -13.094,17.969 1.365,4.291 3.187,11.026 5.469,20.203 m 8.297,45.422 c 3.385,-1.24 6.026,-3.355 7.921,-6.344 2.084,-2.865 3.125,-6.089 3.125,-9.672 0,-4.625 -1.562,-8.729 -4.687,-12.313 -3.198,-3.708 -7.271,-5.791 -12.219,-6.25 2.802,13.74 4.755,25.266 5.86,34.579 M 31.539,113.875 c 0,6.448 2.605,12.115 7.813,17 5.333,4.75 11.323,7.125 17.969,7.125 2.729,0 5.395,-0.198 8,-0.594 -1.042,-9.896 -3.094,-21.744 -6.157,-35.547 -3.708,0.396 -6.666,1.698 -8.875,3.907 -2.156,2.281 -3.234,4.854 -3.234,7.718 0,4.948 2.641,8.954 7.922,12.016 0.448,0.458 0.672,0.948 0.672,1.469 0,0.521 -0.224,1.005 -0.672,1.453 -0.396,0.458 -0.886,0.687 -1.469,0.687 -0.062,0 -0.354,-0.062 -0.875,-0.187 -3.719,-2.021 -6.583,-4.625 -8.594,-7.813 -1.895,-3.395 -2.843,-6.817 -2.843,-10.265 0,-4.49 1.401,-8.557 4.203,-12.203 2.927,-3.646 6.734,-5.99 11.422,-7.032 -1.823,-7.291 -3.318,-12.989 -4.485,-17.093 -1.041,1.177 -2.294,2.593 -3.758,4.25 -1.463,1.656 -2.325,2.651 -2.586,2.984 -2.343,3.052 -4.135,5.427 -5.375,7.125 -2.218,3.063 -3.848,5.698 -4.89,7.906 -1.104,2.479 -2.078,5.183 -2.922,8.11 -0.844,2.802 -1.266,5.797 -1.266,8.984 m 32.61,-99.312 c -4.886,2.406 -8.724,5.854 -11.516,10.343 -2.864,4.625 -4.297,9.604 -4.297,14.938 0,4.687 1.172,11.005 3.516,18.953 4.687,-5.667 8.203,-10.906 10.547,-15.719 2.468,-5.083 3.703,-10.39 3.703,-15.922 0,-4.166 -0.651,-8.364 -1.953,-12.593"
     class="Clef" />
  <path
     id="path1414"
     d="m 160.039,42.789 c 1.948,0 3.607,-0.226 4.977,-0.68 1.37,-0.453 2.247,-0.679 2.633,-0.679 0.458,0 0.818,0.13 1.078,0.39 0.198,0.188 0.328,0.412 0.391,0.672 0,0.136 -0.068,0.334 -0.204,0.594 l -28.406,33.016 h 16.688 V 63.008 c 0,-0.844 0.229,-1.563 0.687,-2.156 0.781,-0.646 1.432,-1.037 1.953,-1.172 0.844,-0.386 1.886,-1.297 3.125,-2.735 1.042,-1.166 2.282,-3.213 3.719,-6.14 0.188,-0.396 0.479,-0.594 0.875,-0.594 0.781,0 1.234,0.458 1.359,1.375 v 24.516 h 7.141 c 0.906,0 1.427,0.484 1.563,1.453 0,0.979 -0.521,1.468 -1.563,1.468 h -7.141 v 0.782 c 0,2.604 0.651,4.817 1.954,6.64 1.5,1.823 3.26,2.735 5.281,2.735 0.781,0 1.172,0.39 1.172,1.172 0,0.781 -0.391,1.171 -1.172,1.171 -1.365,0 -3.578,-0.192 -6.641,-0.578 -2.802,-0.458 -4.984,-0.687 -6.547,-0.687 -1.625,0 -3.807,0.229 -6.547,0.687 -2.927,0.386 -5.104,0.578 -6.531,0.578 -0.781,0 -1.172,-0.39 -1.172,-1.171 0,-0.782 0.391,-1.172 1.172,-1.172 2.011,0 3.766,-0.912 5.266,-2.735 1.364,-1.885 2.047,-4.099 2.047,-6.64 v -0.782 h -16.688 c -1.114,0 -1.896,-0.26 -2.344,-0.781 -0.531,-0.385 -0.796,-0.906 -0.796,-1.562 0,-0.198 0.489,-0.88 1.468,-2.047 1.115,-1.302 2.287,-2.896 3.516,-4.781 1.437,-2.219 2.807,-4.5 4.109,-6.844 1.427,-2.667 2.568,-5.729 3.422,-9.188 0.969,-3.51 1.453,-7.088 1.453,-10.734 0,-1.042 0.459,-1.563 1.375,-1.563 0.198,0 0.62,0.099 1.266,0.297 0.198,0.063 0.607,0.159 1.226,0.289 0.62,0.131 1.123,0.258 1.508,0.383 1.177,0.198 2.287,0.297 3.328,0.297"
     class="TimeSig" />
  <path
     id="path1416"
     d="m 160.039,92.961 c 1.948,0 3.607,-0.227 4.977,-0.68 1.37,-0.453 2.247,-0.679 2.633,-0.679 0.458,0 0.818,0.13 1.078,0.39 0.198,0.188 0.328,0.412 0.391,0.672 0,0.136 -0.068,0.333 -0.204,0.594 l -28.406,33.016 h 16.688 V 113.18 c 0,-0.844 0.229,-1.563 0.687,-2.156 0.781,-0.646 1.432,-1.037 1.953,-1.172 0.844,-0.386 1.886,-1.297 3.125,-2.735 1.042,-1.166 2.282,-3.213 3.719,-6.14 0.188,-0.396 0.479,-0.594 0.875,-0.594 0.781,0 1.234,0.458 1.359,1.375 v 24.516 h 7.141 c 0.906,0 1.427,0.484 1.563,1.453 0,0.979 -0.521,1.468 -1.563,1.468 h -7.141 v 0.782 c 0,2.604 0.651,4.817 1.954,6.64 1.5,1.823 3.26,2.735 5.281,2.735 0.781,0 1.172,0.39 1.172,1.172 0,0.781 -0.391,1.171 -1.172,1.171 -1.365,0 -3.578,-0.192 -6.641,-0.578 -2.802,-0.458 -4.984,-0.687 -6.547,-0.687 -1.625,0 -3.807,0.229 -6.547,0.687 -2.927,0.386 -5.104,0.578 -6.531,0.578 -0.781,0 -1.172,-0.39 -1.172,-1.171 0,-0.782 0.391,-1.172 1.172,-1.172 2.011,0 3.766,-0.912 5.266,-2.735 1.364,-1.885 2.047,-4.099 2.047,-6.64 v -0.782 h -16.688 c -1.114,0 -1.896,-0.26 -2.344,-0.781 -0.531,-0.385 -0.796,-0.906 -0.796,-1.562 0,-0.198 0.489,-0.881 1.468,-2.047 1.115,-1.302 2.287,-2.896 3.516,-4.781 1.437,-2.219 2.807,-4.5 4.109,-6.844 1.427,-2.667 2.568,-5.729 3.422,-9.188 0.969,-3.51 1.453,-7.088 1.453,-10.734 0,-1.042 0.459,-1.563 1.375,-1.563 0.198,0 0.62,0.099 1.266,0.297 0.198,0.063 0.607,0.159 1.226,0.289 0.62,0.131 1.123,0.258 1.508,0.383 1.177,0.198 2.287,0.297 3.328,0.297"
     class="TimeSig" />
</svg>
