<?xml version="1.0" encoding="UTF-8" standalone="no"?>
<svg width="3060px" height="3960px" viewBox="0 0 3060 3960"
 xmlns="http://www.w3.org/2000/svg" xmlns:xlink="http://www.w3.org/1999/xlink" version="1.2" baseProfile="tiny">
<title>exercise-collection1 (2)</title>
<desc>Generated by MuseScore 3.0.1</desc>
<polyline class="StaffLines" fill="none" stroke="#000000" stroke-width="2.00" stroke-linejoin="bevel" points="141.732,316.732 2918.27,316.732"/>
<polyline class="StaffLines" fill="none" stroke="#000000" stroke-width="2.00" stroke-linejoin="bevel" points="141.732,341.732 2918.27,341.732"/>
<polyline class="StaffLines" fill="none" stroke="#000000" stroke-width="2.00" stroke-linejoin="bevel" points="141.732,366.732 2918.27,366.732"/>
<polyline class="StaffLines" fill="none" stroke="#000000" stroke-width="2.00" stroke-linejoin="bevel" points="141.732,391.732 2918.27,391.732"/>
<polyline class="StaffLines" fill="none" stroke="#000000" stroke-width="2.00" stroke-linejoin="bevel" points="141.732,416.732 2918.27,416.732"/>
<polyline class="StaffLines" fill="none" stroke="#000000" stroke-width="2.00" stroke-linejoin="bevel" points="141.732,579.233 2918.27,579.233"/>
<polyline class="StaffLines" fill="none" stroke="#000000" stroke-width="2.00" stroke-linejoin="bevel" points="141.732,616.733 2918.27,616.733"/>
<polyline class="StaffLines" fill="none" stroke="#000000" stroke-width="2.00" stroke-linejoin="bevel" points="141.732,654.233 2918.27,654.233"/>
<polyline class="StaffLines" fill="none" stroke="#000000" stroke-width="2.00" stroke-linejoin="bevel" points="141.732,691.733 2918.27,691.733"/>
<polyline class="BarLine" fill="none" stroke="#000000" stroke-width="4.00" stroke-linejoin="bevel" points="2893.77,578.233 2893.77,692.733"/>
<polyline class="BarLine" fill="none" stroke="#000000" stroke-width="12.50" stroke-linejoin="bevel" points="2912.02,578.233 2912.02,692.733"/>
<polyline class="BarLine" fill="none" stroke="#000000" stroke-width="4.00" stroke-linejoin="bevel" points="2893.77,315.732 2893.77,417.732"/>
<polyline class="BarLine" fill="none" stroke="#000000" stroke-width="12.50" stroke-linejoin="bevel" points="2912.02,315.732 2912.02,417.732"/>
<polyline class="BarLine" fill="none" stroke="#000000" stroke-width="4.00" stroke-linejoin="bevel" points="2374.51,578.233 2374.51,692.733"/>
<polyline class="BarLine" fill="none" stroke="#000000" stroke-width="4.00" stroke-linejoin="bevel" points="2374.51,315.732 2374.51,417.732"/>
<polyline class="BarLine" fill="none" stroke="#000000" stroke-width="4.00" stroke-linejoin="bevel" points="1670.73,578.233 1670.73,692.733"/>
<polyline class="BarLine" fill="none" stroke="#000000" stroke-width="4.00" stroke-linejoin="bevel" points="1670.73,315.732 1670.73,417.732"/>
<polyline class="BarLine" fill="none" stroke="#000000" stroke-width="4.00" stroke-linejoin="bevel" points="974.153,578.233 974.153,692.733"/>
<polyline class="BarLine" fill="none" stroke="#000000" stroke-width="4.00" stroke-linejoin="bevel" points="974.153,315.732 974.153,417.732"/>
<polyline class="BarLine" fill="none" stroke="#000000" stroke-width="4.00" stroke-linejoin="bevel" points="143.732,578.233 143.732,692.733"/>
<polyline class="BarLine" fill="none" stroke="#000000" stroke-width="4.00" stroke-linejoin="bevel" points="143.732,315.732 143.732,579.233"/>
<polyline class="LedgerLine" fill="none" stroke="#000000" stroke-width="4.00" stroke-linecap="square" stroke-linejoin="bevel" points="2403.51,441.732 2468.03,441.732"/>
<polyline class="LedgerLine" fill="none" stroke="#000000" stroke-width="4.00" stroke-linecap="square" stroke-linejoin="bevel" points="1699.73,441.732 1747.64,441.732"/>
<polyline class="LedgerLine" fill="none" stroke="#000000" stroke-width="4.00" stroke-linecap="square" stroke-linejoin="bevel" points="293.475,441.732 341.389,441.732"/>
<polyline class="Stem" fill="none" stroke="#000000" stroke-width="3.25" stroke-linecap="round" stroke-linejoin="bevel" points="2207.81,358.928 2207.81,435.482"/>
<polyline class="Stem" fill="none" stroke="#000000" stroke-width="3.25" stroke-linecap="round" stroke-linejoin="bevel" points="2071.16,387.037 2071.16,307.357"/>
<polyline class="Stem" fill="none" stroke="#000000" stroke-width="3.25" stroke-linecap="round" stroke-linejoin="bevel" points="1904.84,412.037 1904.84,329.232"/>
<polyline class="Stem" fill="none" stroke="#000000" stroke-width="3.25" stroke-linecap="round" stroke-linejoin="bevel" points="1738.52,437.037 1738.52,354.232"/>
<polyline class="Stem" fill="none" stroke="#000000" stroke-width="3.25" stroke-linecap="round" stroke-linejoin="bevel" points="1533.7,387.037 1533.7,307.357"/>
<polyline class="Stem" fill="none" stroke="#000000" stroke-width="3.25" stroke-linecap="round" stroke-linejoin="bevel" points="1367.38,374.537 1367.38,297.982"/>
<polyline class="Stem" fill="none" stroke="#000000" stroke-width="3.25" stroke-linecap="round" stroke-linejoin="bevel" points="1201.06,399.537 1201.06,316.732"/>
<polyline class="Stem" fill="none" stroke="#000000" stroke-width="3.25" stroke-linecap="round" stroke-linejoin="bevel" points="1034.74,412.037 1034.74,329.232"/>
<polyline class="Stem" fill="none" stroke="#000000" stroke-width="3.25" stroke-linecap="round" stroke-linejoin="bevel" points="805.984,371.428 805.984,444.857"/>
<polyline class="Stem" fill="none" stroke="#000000" stroke-width="3.25" stroke-linecap="round" stroke-linejoin="bevel" points="638.189,358.928 638.189,435.482"/>
<polyline class="Stem" fill="none" stroke="#000000" stroke-width="3.25" stroke-linecap="round" stroke-linejoin="bevel" points="500.058,424.537 500.058,341.732"/>
<polyline class="Stem" fill="none" stroke="#000000" stroke-width="3.25" stroke-linecap="round" stroke-linejoin="bevel" points="332.264,437.037 332.264,354.232"/>
<path class="Note" fill="#ffffff" fill-rule="evenodd" d="M2424.06,635.483 L2452.06,635.483 L2452.06,672.983 L2424.06,672.983 L2424.06,635.483 "/>
<path class="Note" d="M2445.19,665.037 C2443.33,667.918 2440.87,669.358 2437.81,669.358 C2434.75,669.358 2432.29,667.889 2430.43,664.951 C2428.57,662.014 2427.64,658.233 2427.64,653.608 C2427.64,649.264 2428.57,645.628 2430.43,642.701 C2432.29,639.774 2434.81,638.311 2437.98,638.311 C2440.93,638.311 2443.33,639.751 2445.19,642.631 C2447.05,645.511 2447.98,649.264 2447.98,653.889 C2447.98,658.441 2447.05,662.157 2445.19,665.037 M2437.86,639.483 C2433.93,639.483 2431.97,644.326 2431.97,654.014 C2431.97,663.462 2433.92,668.186 2437.81,668.186 C2441.71,668.186 2443.66,663.446 2443.66,653.967 C2443.66,649.259 2443.16,645.668 2442.17,643.194 C2441.18,640.72 2439.74,639.483 2437.86,639.483"/>
<path class="Note" d="M2432.49,430.498 C2430.15,430.498 2428.46,431.311 2427.42,432.936 C2426.25,434.498 2425.67,436.618 2425.67,439.295 C2425.67,442.357 2426.48,444.993 2428.1,447.201 C2429.73,449.347 2431.52,450.847 2433.48,451.701 C2435.23,452.545 2437.08,452.967 2439.04,452.967 C2441.32,452.967 2443.05,452.154 2444.21,450.529 C2445.32,448.894 2445.87,446.774 2445.87,444.17 C2445.87,441.107 2445.06,438.472 2443.43,436.264 C2441.81,434.18 2440.05,432.68 2438.17,431.764 C2436.27,430.92 2434.38,430.498 2432.49,430.498 M2435.82,427.967 C2442.85,427.967 2448.71,429.331 2453.4,432.061 C2458.15,434.8 2460.53,438.024 2460.53,441.732 C2460.53,445.701 2458.08,448.956 2453.2,451.498 C2448.31,454.165 2442.52,455.498 2435.82,455.498 C2428.92,455.498 2423.06,454.134 2418.24,451.404 C2413.42,448.665 2411.01,445.441 2411.01,441.732 C2411.01,437.764 2413.48,434.509 2418.43,431.967 C2423.32,429.3 2429.11,427.967 2435.82,427.967"/>
<path class="Note" fill="#ffffff" fill-rule="evenodd" d="M2210.94,560.483 L2238.94,560.483 L2238.94,597.983 L2210.94,597.983 L2210.94,560.483 "/>
<path class="Note" d="M2217.08,590.217 C2217.78,590.217 2218.81,590.623 2220.17,591.436 C2221.54,592.248 2222.73,592.654 2223.74,592.654 C2225.39,592.654 2226.79,592.014 2227.93,590.733 C2229.07,589.451 2229.64,587.873 2229.64,585.998 C2229.64,584.832 2229.44,583.8 2229.03,582.904 C2228.63,582.009 2228.11,581.316 2227.48,580.826 C2226.85,580.337 2226.1,579.936 2225.23,579.623 C2224.36,579.311 2223.54,579.11 2222.78,579.022 C2222.01,578.933 2221.2,578.889 2220.33,578.889 L2220.33,578.295 C2221.35,577.941 2222.23,577.589 2222.96,577.24 C2223.7,576.891 2224.47,576.425 2225.28,575.842 C2226.08,575.259 2226.71,574.548 2227.14,573.709 C2227.58,572.871 2227.8,571.91 2227.8,570.826 C2227.8,569.42 2227.34,568.266 2226.42,567.365 C2225.51,566.464 2224.31,566.014 2222.85,566.014 C2221.44,566.014 2220.2,566.397 2219.14,567.162 C2218.07,567.928 2217.07,569.134 2216.14,570.779 L2215.47,570.608 C2216.24,568.472 2217.3,566.722 2218.64,565.358 C2219.97,563.993 2221.87,563.311 2224.33,563.311 C2226.4,563.311 2228.09,563.881 2229.39,565.022 C2230.7,566.162 2231.35,567.649 2231.35,569.483 C2231.35,570.712 2231.03,571.79 2230.4,572.717 C2229.77,573.644 2228.67,574.634 2227.11,575.686 C2228.91,576.467 2230.33,577.462 2231.35,578.67 C2232.37,579.878 2232.88,581.602 2232.88,583.842 C2232.88,587.029 2231.7,589.579 2229.35,591.49 C2226.99,593.402 2224.03,594.358 2220.46,594.358 C2218.9,594.358 2217.67,594.126 2216.75,593.662 C2215.84,593.199 2215.38,592.576 2215.38,591.795 C2215.38,591.316 2215.53,590.933 2215.85,590.647 C2216.16,590.36 2216.57,590.217 2217.08,590.217"/>
<path class="Note" d="M2228.16,340.467 C2231.28,340.467 2233.92,341.279 2236.08,342.904 C2238.09,344.665 2239.1,346.878 2239.1,349.545 C2239.1,354.035 2236.79,358.232 2232.17,362.139 C2227.49,366.045 2222.47,367.998 2217.13,367.998 C2214,367.998 2211.37,367.186 2209.22,365.561 C2207.2,363.8 2206.19,361.587 2206.19,358.92 C2206.19,354.43 2208.53,350.232 2213.22,346.326 C2217.78,342.42 2222.76,340.467 2228.16,340.467"/>
<path class="Note" fill="#ffffff" fill-rule="evenodd" d="M2044.62,597.983 L2072.62,597.983 L2072.62,635.483 L2044.62,635.483 L2044.62,597.983 "/>
<path class="Note" d="M2050.76,627.717 C2051.46,627.717 2052.49,628.123 2053.85,628.936 C2055.22,629.748 2056.41,630.154 2057.42,630.154 C2059.07,630.154 2060.47,629.514 2061.61,628.233 C2062.75,626.951 2063.32,625.373 2063.32,623.498 C2063.32,622.332 2063.12,621.3 2062.71,620.404 C2062.31,619.509 2061.79,618.816 2061.16,618.326 C2060.53,617.837 2059.78,617.436 2058.91,617.123 C2058.04,616.811 2057.22,616.61 2056.46,616.522 C2055.69,616.433 2054.87,616.389 2054.01,616.389 L2054.01,615.795 C2055.03,615.441 2055.91,615.089 2056.64,614.74 C2057.38,614.391 2058.15,613.925 2058.96,613.342 C2059.76,612.759 2060.39,612.048 2060.82,611.209 C2061.26,610.371 2061.48,609.41 2061.48,608.326 C2061.48,606.92 2061.02,605.766 2060.1,604.865 C2059.19,603.964 2057.99,603.514 2056.53,603.514 C2055.12,603.514 2053.88,603.897 2052.81,604.662 C2051.75,605.428 2050.75,606.634 2049.82,608.279 L2049.15,608.108 C2049.92,605.972 2050.98,604.222 2052.31,602.858 C2053.65,601.493 2055.55,600.811 2058.01,600.811 C2060.08,600.811 2061.77,601.381 2063.07,602.522 C2064.37,603.662 2065.03,605.149 2065.03,606.983 C2065.03,608.212 2064.71,609.29 2064.08,610.217 C2063.45,611.144 2062.35,612.134 2060.79,613.186 C2062.59,613.967 2064,614.962 2065.03,616.17 C2066.05,617.378 2066.56,619.102 2066.56,621.342 C2066.56,624.529 2065.38,627.079 2063.03,628.99 C2060.67,630.902 2057.71,631.858 2054.14,631.858 C2052.58,631.858 2051.35,631.626 2050.43,631.162 C2049.52,630.699 2049.06,630.076 2049.06,629.295 C2049.06,628.816 2049.21,628.433 2049.53,628.147 C2049.84,627.86 2050.25,627.717 2050.76,627.717"/>
<path class="Note" d="M2061.84,377.967 C2064.96,377.967 2067.6,378.779 2069.76,380.404 C2071.77,382.165 2072.78,384.378 2072.78,387.045 C2072.78,391.535 2070.47,395.732 2065.85,399.639 C2061.17,403.545 2056.15,405.498 2050.81,405.498 C2047.68,405.498 2045.05,404.686 2042.9,403.061 C2040.88,401.3 2039.87,399.087 2039.87,396.42 C2039.87,391.93 2042.21,387.732 2046.9,383.826 C2051.46,379.92 2056.44,377.967 2061.84,377.967"/>
<path class="Note" fill="#ffffff" fill-rule="evenodd" d="M1878.3,597.983 L1906.3,597.983 L1906.3,635.483 L1878.3,635.483 L1878.3,597.983 "/>
<path class="Note" d="M1899.43,627.537 C1897.57,630.417 1895.11,631.858 1892.05,631.858 C1888.99,631.858 1886.53,630.389 1884.67,627.451 C1882.81,624.514 1881.88,620.733 1881.88,616.108 C1881.88,611.764 1882.81,608.128 1884.67,605.201 C1886.53,602.274 1889.04,600.811 1892.22,600.811 C1895.17,600.811 1897.57,602.251 1899.43,605.131 C1901.29,608.011 1902.22,611.764 1902.22,616.389 C1902.22,620.941 1901.29,624.657 1899.43,627.537 M1892.1,601.983 C1888.17,601.983 1886.21,606.826 1886.21,616.514 C1886.21,625.962 1888.15,630.686 1892.05,630.686 C1895.94,630.686 1897.89,625.946 1897.89,616.467 C1897.89,611.759 1897.4,608.167 1896.41,605.694 C1895.42,603.22 1893.98,601.983 1892.1,601.983"/>
<path class="Note" d="M1895.52,402.967 C1898.64,402.967 1901.28,403.779 1903.44,405.404 C1905.45,407.165 1906.46,409.378 1906.46,412.045 C1906.46,416.535 1904.15,420.732 1899.53,424.639 C1894.85,428.545 1889.83,430.498 1884.49,430.498 C1881.36,430.498 1878.73,429.686 1876.58,428.061 C1874.56,426.3 1873.55,424.087 1873.55,421.42 C1873.55,416.93 1875.89,412.732 1880.58,408.826 C1885.14,404.92 1890.12,402.967 1895.52,402.967"/>
<path class="Note" fill="#ffffff" fill-rule="evenodd" d="M1711.98,635.483 L1739.98,635.483 L1739.98,672.983 L1711.98,672.983 L1711.98,635.483 "/>
<path class="Note" d="M1733.11,665.037 C1731.25,667.918 1728.79,669.358 1725.73,669.358 C1722.67,669.358 1720.21,667.889 1718.35,664.951 C1716.49,662.014 1715.56,658.233 1715.56,653.608 C1715.56,649.264 1716.49,645.628 1718.35,642.701 C1720.21,639.774 1722.72,638.311 1725.9,638.311 C1728.85,638.311 1731.25,639.751 1733.11,642.631 C1734.97,645.511 1735.9,649.264 1735.9,653.889 C1735.9,658.441 1734.97,662.157 1733.11,665.037 M1725.78,639.483 C1721.85,639.483 1719.88,644.326 1719.88,654.014 C1719.88,663.462 1721.83,668.186 1725.73,668.186 C1729.62,668.186 1731.57,663.446 1731.57,653.967 C1731.57,649.259 1731.08,645.668 1730.09,643.194 C1729.1,640.72 1727.66,639.483 1725.78,639.483"/>
<path class="Note" d="M1729.2,427.967 C1732.32,427.967 1734.96,428.779 1737.12,430.404 C1739.13,432.165 1740.13,434.378 1740.13,437.045 C1740.13,441.535 1737.83,445.732 1733.21,449.639 C1728.53,453.545 1723.51,455.498 1718.17,455.498 C1715.04,455.498 1712.41,454.686 1710.26,453.061 C1708.24,451.3 1707.23,449.087 1707.23,446.42 C1707.23,441.93 1709.57,437.732 1714.26,433.826 C1718.82,429.92 1723.8,427.967 1729.2,427.967"/>
<path class="Note" fill="#ffffff" fill-rule="evenodd" d="M1507.16,597.983 L1535.16,597.983 L1535.16,635.483 L1507.16,635.483 L1507.16,597.983 "/>
<path class="Note" d="M1513.3,627.717 C1514,627.717 1515.03,628.123 1516.39,628.936 C1517.76,629.748 1518.94,630.154 1519.95,630.154 C1521.61,630.154 1523.01,629.514 1524.15,628.233 C1525.29,626.951 1525.86,625.373 1525.86,623.498 C1525.86,622.332 1525.66,621.3 1525.25,620.404 C1524.85,619.509 1524.33,618.816 1523.7,618.326 C1523.07,617.837 1522.32,617.436 1521.45,617.123 C1520.58,616.811 1519.76,616.61 1518.99,616.522 C1518.23,616.433 1517.41,616.389 1516.55,616.389 L1516.55,615.795 C1517.57,615.441 1518.45,615.089 1519.18,614.74 C1519.92,614.391 1520.69,613.925 1521.49,613.342 C1522.3,612.759 1522.92,612.048 1523.36,611.209 C1523.8,610.371 1524.02,609.41 1524.02,608.326 C1524.02,606.92 1523.56,605.766 1522.64,604.865 C1521.73,603.964 1520.53,603.514 1519.06,603.514 C1517.66,603.514 1516.42,603.897 1515.35,604.662 C1514.29,605.428 1513.29,606.634 1512.36,608.279 L1511.69,608.108 C1512.46,605.972 1513.51,604.222 1514.85,602.858 C1516.19,601.493 1518.09,600.811 1520.55,600.811 C1522.62,600.811 1524.31,601.381 1525.61,602.522 C1526.91,603.662 1527.56,605.149 1527.56,606.983 C1527.56,608.212 1527.25,609.29 1526.62,610.217 C1525.99,611.144 1524.89,612.134 1523.33,613.186 C1525.13,613.967 1526.54,614.962 1527.56,616.17 C1528.59,617.378 1529.1,619.102 1529.1,621.342 C1529.1,624.529 1527.92,627.079 1525.56,628.99 C1523.21,630.902 1520.25,631.858 1516.67,631.858 C1515.12,631.858 1513.89,631.626 1512.97,631.162 C1512.05,630.699 1511.6,630.076 1511.6,629.295 C1511.6,628.816 1511.75,628.433 1512.06,628.147 C1512.38,627.86 1512.79,627.717 1513.3,627.717"/>
<path class="Note" d="M1524.38,377.967 C1527.5,377.967 1530.14,378.779 1532.3,380.404 C1534.31,382.165 1535.31,384.378 1535.31,387.045 C1535.31,391.535 1533.01,395.732 1528.39,399.639 C1523.7,403.545 1518.69,405.498 1513.35,405.498 C1510.22,405.498 1507.59,404.686 1505.44,403.061 C1503.42,401.3 1502.41,399.087 1502.41,396.42 C1502.41,391.93 1504.75,387.732 1509.44,383.826 C1514,379.92 1518.98,377.967 1524.38,377.967"/>
<path class="Note" fill="#ffffff" fill-rule="evenodd" d="M1340.84,560.483 L1368.84,560.483 L1368.84,597.983 L1340.84,597.983 L1340.84,560.483 "/>
<path class="Note" d="M1361.97,590.037 C1360.11,592.917 1357.65,594.358 1354.59,594.358 C1351.52,594.358 1349.06,592.889 1347.2,589.951 C1345.35,587.014 1344.42,583.233 1344.42,578.608 C1344.42,574.264 1345.35,570.628 1347.2,567.701 C1349.06,564.774 1351.58,563.311 1354.76,563.311 C1357.71,563.311 1360.11,564.751 1361.97,567.631 C1363.83,570.511 1364.76,574.264 1364.76,578.889 C1364.76,583.441 1363.83,587.157 1361.97,590.037 M1354.63,564.483 C1350.71,564.483 1348.74,569.326 1348.74,579.014 C1348.74,588.462 1350.69,593.186 1354.59,593.186 C1358.48,593.186 1360.43,588.446 1360.43,578.967 C1360.43,574.259 1359.94,570.667 1358.95,568.193 C1357.96,565.72 1356.52,564.483 1354.63,564.483"/>
<path class="Note" d="M1358.06,365.467 C1361.18,365.467 1363.82,366.279 1365.98,367.904 C1367.99,369.665 1368.99,371.878 1368.99,374.545 C1368.99,379.035 1366.69,383.232 1362.07,387.139 C1357.38,391.045 1352.37,392.998 1347.02,392.998 C1343.9,392.998 1341.26,392.186 1339.12,390.561 C1337.1,388.8 1336.09,386.587 1336.09,383.92 C1336.09,379.43 1338.43,375.232 1343.12,371.326 C1347.68,367.42 1352.66,365.467 1358.06,365.467"/>
<path class="Note" fill="#ffffff" fill-rule="evenodd" d="M1174.52,597.983 L1202.52,597.983 L1202.52,635.483 L1174.52,635.483 L1174.52,597.983 "/>
<path class="Note" d="M1185.25,604.545 C1184.71,604.545 1183.63,604.878 1182.02,605.545 L1182.02,604.904 L1190.11,600.811 L1190.47,600.904 L1190.47,627.904 C1190.47,628.988 1190.74,629.694 1191.28,630.022 C1191.82,630.35 1192.98,630.529 1194.75,630.561 L1194.75,631.233 L1182.33,631.233 L1182.33,630.561 C1184.01,630.498 1185.14,630.251 1185.72,629.819 C1186.3,629.386 1186.6,628.462 1186.6,627.045 L1186.6,606.67 C1186.6,605.253 1186.15,604.545 1185.25,604.545"/>
<path class="Note" d="M1191.74,390.467 C1194.86,390.467 1197.5,391.279 1199.66,392.904 C1201.67,394.665 1202.67,396.878 1202.67,399.545 C1202.67,404.035 1200.37,408.232 1195.75,412.139 C1191.06,416.045 1186.05,417.998 1180.7,417.998 C1177.58,417.998 1174.94,417.186 1172.8,415.561 C1170.78,413.8 1169.77,411.587 1169.77,408.92 C1169.77,404.43 1172.11,400.232 1176.8,396.326 C1181.36,392.42 1186.34,390.467 1191.74,390.467"/>
<path class="Note" fill="#ffffff" fill-rule="evenodd" d="M1008.2,597.983 L1036.2,597.983 L1036.2,635.483 L1008.2,635.483 L1008.2,597.983 "/>
<path class="Note" d="M1029.33,627.537 C1027.47,630.417 1025.01,631.858 1021.95,631.858 C1018.88,631.858 1016.42,630.389 1014.56,627.451 C1012.7,624.514 1011.77,620.733 1011.77,616.108 C1011.77,611.764 1012.7,608.128 1014.56,605.201 C1016.42,602.274 1018.94,600.811 1022.12,600.811 C1025.07,600.811 1027.47,602.251 1029.33,605.131 C1031.19,608.011 1032.12,611.764 1032.12,616.389 C1032.12,620.941 1031.19,624.657 1029.33,627.537 M1021.99,601.983 C1018.07,601.983 1016.1,606.826 1016.1,616.514 C1016.1,625.962 1018.05,630.686 1021.95,630.686 C1025.84,630.686 1027.79,625.946 1027.79,616.467 C1027.79,611.759 1027.3,608.167 1026.31,605.694 C1025.32,603.22 1023.88,601.983 1021.99,601.983"/>
<path class="Note" d="M1025.42,402.967 C1028.54,402.967 1031.18,403.779 1033.34,405.404 C1035.35,407.165 1036.35,409.378 1036.35,412.045 C1036.35,416.535 1034.05,420.732 1029.43,424.639 C1024.74,428.545 1019.73,430.498 1014.38,430.498 C1011.26,430.498 1008.62,429.686 1006.48,428.061 C1004.46,426.3 1003.45,424.087 1003.45,421.42 C1003.45,416.93 1005.79,412.732 1010.48,408.826 C1015.04,404.92 1020.02,402.967 1025.42,402.967"/>
<path class="Note" fill="#ffffff" fill-rule="evenodd" d="M809.109,560.483 L837.109,560.483 L837.109,597.983 L809.109,597.983 L809.109,560.483 "/>
<path class="Note" d="M812.999,572.264 C813.156,571.576 813.307,570.98 813.452,570.475 C813.598,569.97 813.921,569.233 814.421,568.264 C814.921,567.295 815.479,566.49 816.093,565.85 C816.708,565.209 817.562,564.634 818.656,564.123 C819.749,563.613 820.984,563.358 822.359,563.358 C824.702,563.358 826.676,564.118 828.281,565.639 C829.885,567.16 830.687,569.04 830.687,571.279 C830.687,574.665 828.765,578.368 824.921,582.389 L817.374,590.311 L828.124,590.311 C829.145,590.311 829.903,590.139 830.398,589.795 C830.893,589.451 831.562,588.634 832.406,587.342 L832.984,587.561 L830.515,593.733 L812.952,593.733 L812.952,593.186 L820.968,584.686 C824.864,580.55 826.812,576.649 826.812,572.983 C826.812,571.097 826.229,569.568 825.062,568.397 C823.895,567.225 822.364,566.639 820.468,566.639 C818.916,566.639 817.666,567.066 816.718,567.92 C815.77,568.774 814.848,570.3 813.952,572.498 L812.999,572.264 "/>
<path class="Note" d="M826.327,352.967 C829.452,352.967 832.093,353.779 834.249,355.404 C836.26,357.165 837.265,359.378 837.265,362.045 C837.265,366.535 834.958,370.732 830.343,374.639 C825.656,378.545 820.64,380.498 815.296,380.498 C812.171,380.498 809.536,379.686 807.39,378.061 C805.369,376.3 804.359,374.087 804.359,371.42 C804.359,366.93 806.702,362.732 811.39,358.826 C815.952,354.92 820.932,352.967 826.327,352.967"/>
<path class="Note" fill="#ffffff" fill-rule="evenodd" d="M641.314,560.483 L669.314,560.483 L669.314,597.983 L641.314,597.983 L641.314,560.483 "/>
<path class="Note" d="M647.455,590.217 C648.153,590.217 649.184,590.623 650.548,591.436 C651.913,592.248 653.1,592.654 654.111,592.654 C655.767,592.654 657.166,592.014 658.306,590.733 C659.447,589.451 660.017,587.873 660.017,585.998 C660.017,584.832 659.814,583.8 659.408,582.904 C659.002,582.009 658.483,581.316 657.853,580.826 C657.223,580.337 656.473,579.936 655.603,579.623 C654.733,579.311 653.916,579.11 653.15,579.022 C652.384,578.933 651.569,578.889 650.705,578.889 L650.705,578.295 C651.725,577.941 652.603,577.589 653.337,577.24 C654.072,576.891 654.843,576.425 655.65,575.842 C656.457,575.259 657.08,574.548 657.517,573.709 C657.955,572.871 658.173,571.91 658.173,570.826 C658.173,569.42 657.715,568.266 656.798,567.365 C655.882,566.464 654.689,566.014 653.22,566.014 C651.814,566.014 650.577,566.397 649.509,567.162 C648.442,567.928 647.444,569.134 646.517,570.779 L645.845,570.608 C646.616,568.472 647.671,566.722 649.009,565.358 C650.348,563.993 652.246,563.311 654.705,563.311 C656.778,563.311 658.465,563.881 659.767,565.022 C661.069,566.162 661.72,567.649 661.72,569.483 C661.72,570.712 661.405,571.79 660.775,572.717 C660.145,573.644 659.048,574.634 657.486,575.686 C659.288,576.467 660.699,577.462 661.72,578.67 C662.741,579.878 663.252,581.602 663.252,583.842 C663.252,587.029 662.074,589.579 659.72,591.49 C657.366,593.402 654.403,594.358 650.83,594.358 C649.278,594.358 648.043,594.126 647.127,593.662 C646.21,593.199 645.752,592.576 645.752,591.795 C645.752,591.316 645.908,590.933 646.22,590.647 C646.533,590.36 646.944,590.217 647.455,590.217"/>
<path class="Note" d="M658.533,340.467 C661.658,340.467 664.298,341.279 666.455,342.904 C668.465,344.665 669.47,346.878 669.47,349.545 C669.47,354.035 667.163,358.232 662.548,362.139 C657.861,366.045 652.845,367.998 647.502,367.998 C644.377,367.998 641.741,367.186 639.595,365.561 C637.574,363.8 636.564,361.587 636.564,358.92 C636.564,354.43 638.908,350.232 643.595,346.326 C648.158,342.42 653.137,340.467 658.533,340.467"/>
<path class="Note" fill="#ffffff" fill-rule="evenodd" d="M473.519,635.483 L501.519,635.483 L501.519,672.983 L473.519,672.983 L473.519,635.483 "/>
<path class="Note" d="M477.41,647.264 C477.566,646.576 477.717,645.98 477.863,645.475 C478.009,644.97 478.332,644.233 478.832,643.264 C479.332,642.295 479.889,641.49 480.504,640.85 C481.118,640.209 481.972,639.634 483.066,639.123 C484.16,638.613 485.394,638.358 486.769,638.358 C489.113,638.358 491.087,639.118 492.691,640.639 C494.295,642.16 495.097,644.04 495.097,646.279 C495.097,649.665 493.176,653.368 489.332,657.389 L481.785,665.311 L492.535,665.311 C493.556,665.311 494.314,665.139 494.808,664.795 C495.303,664.451 495.972,663.634 496.816,662.342 L497.394,662.561 L494.926,668.733 L477.363,668.733 L477.363,668.186 L485.379,659.686 C489.275,655.55 491.222,651.649 491.222,647.983 C491.222,646.097 490.639,644.569 489.472,643.397 C488.306,642.225 486.775,641.639 484.879,641.639 C483.327,641.639 482.077,642.066 481.129,642.92 C480.181,643.774 479.259,645.3 478.363,647.498 L477.41,647.264 "/>
<path class="Note" d="M490.738,415.467 C493.863,415.467 496.504,416.279 498.66,417.904 C500.67,419.665 501.676,421.878 501.676,424.545 C501.676,429.035 499.368,433.232 494.754,437.139 C490.066,441.045 485.051,442.998 479.707,442.998 C476.582,442.998 473.946,442.186 471.801,440.561 C469.78,438.8 468.769,436.587 468.769,433.92 C468.769,429.43 471.113,425.232 475.801,421.326 C480.363,417.42 485.342,415.467 490.738,415.467"/>
<path class="Note" fill="#ffffff" fill-rule="evenodd" d="M305.725,635.483 L333.725,635.483 L333.725,672.983 L305.725,672.983 L305.725,635.483 "/>
<path class="Note" d="M326.857,665.037 C324.998,667.918 322.537,669.358 319.475,669.358 C316.412,669.358 313.951,667.889 312.092,664.951 C310.232,662.014 309.303,658.233 309.303,653.608 C309.303,649.264 310.232,645.628 312.092,642.701 C313.951,639.774 316.469,638.311 319.646,638.311 C322.594,638.311 324.998,639.751 326.857,642.631 C328.717,645.511 329.646,649.264 329.646,653.889 C329.646,658.441 328.717,662.157 326.857,665.037 M319.521,639.483 C315.594,639.483 313.631,644.326 313.631,654.014 C313.631,663.462 315.579,668.186 319.475,668.186 C323.37,668.186 325.318,663.446 325.318,653.967 C325.318,649.259 324.824,645.668 323.834,643.194 C322.844,640.72 321.407,639.483 319.521,639.483"/>
<path class="Note" d="M322.943,427.967 C326.068,427.967 328.709,428.779 330.865,430.404 C332.876,432.165 333.881,434.378 333.881,437.045 C333.881,441.535 331.574,445.732 326.959,449.639 C322.271,453.545 317.256,455.498 311.912,455.498 C308.787,455.498 306.152,454.686 304.006,453.061 C301.985,451.3 300.975,449.087 300.975,446.42 C300.975,441.93 303.318,437.732 308.006,433.826 C312.568,429.92 317.547,427.967 322.943,427.967"/>
<path class="Clef" d="M191.834,588.576 L191.834,585.076 L167.131,585.076 L167.131,588.576 L177.537,588.576 L177.537,616.576 L181.537,616.576 L181.537,588.576 L191.834,588.576 M193.24,651.483 L182.24,619.983 L177.037,619.983 L165.74,651.483 L170.037,651.483 L173.334,641.983 L185.537,641.983 L188.74,651.483 L193.24,651.483 M184.443,638.686 L174.334,638.686 L179.537,624.279 L184.443,638.686 M191.24,677.279 C191.24,673.483 189.537,671.186 185.537,669.686 C188.334,668.279 189.834,665.983 189.834,662.779 C189.834,658.186 186.537,654.779 180.537,654.779 L167.74,654.779 L167.74,686.279 L181.943,686.279 C187.631,686.279 191.24,682.483 191.24,677.279 M185.834,663.389 C185.834,666.592 184.037,668.389 179.537,668.389 L171.74,668.389 L171.74,658.279 L179.537,658.279 C184.037,658.279 185.834,660.186 185.834,663.389 M187.24,677.279 C187.24,680.389 185.443,682.686 181.631,682.686 L171.74,682.686 L171.74,671.889 L181.631,671.889 C185.443,671.889 187.24,674.279 187.24,677.279"/>
<path class="Clef" d="M202.756,366.139 C202.756,366.139 202.954,366.139 203.349,366.139 C203.61,366.076 203.834,366.045 204.021,366.045 C211.313,366.045 217.303,368.618 221.99,373.764 C226.678,378.837 229.021,384.758 229.021,391.529 C229.021,399.936 225.542,406.774 218.584,412.045 C216.761,413.482 214.381,414.654 211.443,415.561 C211.777,419.79 211.943,423.206 211.943,425.811 C211.943,426.331 211.876,428.222 211.74,431.482 C211.48,437.535 209.396,442.774 205.49,447.201 C201.719,451.566 197.032,453.748 191.428,453.748 C186.157,453.748 181.667,451.894 177.959,448.186 C174.24,444.404 172.381,439.847 172.381,434.514 C172.381,431.712 173.459,429.331 175.615,427.373 C177.823,425.425 180.391,424.451 183.318,424.451 C185.922,424.451 188.105,425.462 189.865,427.482 C191.688,429.368 192.599,431.712 192.599,434.514 C192.599,437.045 191.688,439.222 189.865,441.045 C188.042,442.868 185.86,443.779 183.318,443.779 C182.277,443.779 181.271,443.587 180.303,443.201 C183.167,447.43 186.974,449.545 191.724,449.545 C196.214,449.545 199.891,447.722 202.756,444.076 C205.756,440.305 207.386,435.91 207.646,430.889 C207.771,427.764 207.834,425.977 207.834,425.529 C207.834,421.883 207.704,418.889 207.443,416.545 C204.193,417.066 201.297,417.326 198.756,417.326 C189.704,417.326 181.99,413.743 175.615,406.576 C169.365,399.347 166.24,390.753 166.24,380.795 C166.24,378.712 166.433,376.597 166.818,374.451 C167.214,372.691 167.704,370.769 168.287,368.686 C168.61,367.508 169.49,365.618 170.928,363.014 C171.448,362.232 172.034,361.256 172.685,360.084 C173.336,358.912 173.792,358.133 174.053,357.748 C174.698,356.446 175.964,354.686 177.849,352.467 C178.37,351.883 178.909,351.235 179.467,350.522 C180.024,349.808 180.498,349.222 180.889,348.764 C181.279,348.305 181.571,347.946 181.764,347.686 C181.956,347.425 183.422,345.701 186.162,342.514 C186.808,341.857 187.441,341.157 188.06,340.412 C188.68,339.667 189.185,339.081 189.576,338.654 C189.967,338.227 190.261,337.92 190.459,337.732 C188.115,329.982 186.646,323.795 186.053,319.17 C185.605,315.462 185.381,310.383 185.381,303.936 C185.381,298.269 186.683,292.962 189.287,288.014 C191.818,282.878 195.365,278.68 199.928,275.42 C200.188,275.222 200.511,275.123 200.896,275.123 C201.355,275.123 201.683,275.222 201.881,275.42 C205.391,279.649 208.417,285.149 210.959,291.92 C213.563,298.691 214.865,304.847 214.865,310.389 C214.865,316.639 213.37,322.498 210.381,327.967 C206.995,333.758 202.631,339.748 197.287,345.936 C198.652,350.227 200.474,356.962 202.756,366.139 M211.053,411.561 C214.438,410.321 217.079,408.206 218.974,405.217 C221.058,402.352 222.099,399.128 222.099,395.545 C222.099,390.92 220.537,386.816 217.412,383.232 C214.214,379.524 210.141,377.441 205.193,376.982 C207.995,390.722 209.948,402.248 211.053,411.561 M173.271,388.998 C173.271,395.446 175.876,401.113 181.084,405.998 C186.417,410.748 192.407,413.123 199.053,413.123 C201.782,413.123 204.448,412.925 207.053,412.529 C206.011,402.633 203.959,390.785 200.896,376.982 C197.188,377.378 194.23,378.68 192.021,380.889 C189.865,383.17 188.787,385.743 188.787,388.607 C188.787,393.555 191.428,397.561 196.709,400.623 C197.157,401.081 197.381,401.571 197.381,402.092 C197.381,402.613 197.157,403.097 196.709,403.545 C196.313,404.003 195.823,404.232 195.24,404.232 C195.178,404.232 194.886,404.17 194.365,404.045 C190.646,402.024 187.782,399.42 185.771,396.232 C183.876,392.837 182.928,389.415 182.928,385.967 C182.928,381.477 184.329,377.41 187.131,373.764 C190.058,370.118 193.865,367.774 198.553,366.732 C196.73,359.441 195.235,353.743 194.068,349.639 C193.027,350.816 191.774,352.232 190.31,353.889 C188.847,355.545 187.985,356.54 187.724,356.873 C185.381,359.925 183.589,362.3 182.349,363.998 C180.131,367.061 178.501,369.696 177.459,371.904 C176.355,374.383 175.381,377.087 174.537,380.014 C173.693,382.816 173.271,385.811 173.271,388.998 M205.881,289.686 C200.995,292.092 197.157,295.54 194.365,300.029 C191.501,304.654 190.068,309.633 190.068,314.967 C190.068,319.654 191.24,325.972 193.584,333.92 C198.271,328.253 201.787,323.014 204.131,318.201 C206.599,313.118 207.834,307.811 207.834,302.279 C207.834,298.113 207.183,293.915 205.881,289.686"/>
<path class="Page" d="M141.953,3657.46 C142.089,3656.84 142.224,3656.31 142.359,3655.86 C142.495,3655.42 142.781,3654.76 143.219,3653.89 C143.656,3653.03 144.148,3652.31 144.695,3651.75 C145.242,3651.18 146.003,3650.67 146.977,3650.22 C147.951,3649.76 149.052,3649.54 150.281,3649.54 C152.354,3649.54 154.104,3650.21 155.531,3651.57 C156.958,3652.92 157.672,3654.59 157.672,3656.58 C157.672,3659.59 155.969,3662.88 152.563,3666.46 L145.844,3673.49 L155.391,3673.49 C156.297,3673.49 156.971,3673.34 157.414,3673.04 C157.857,3672.73 158.453,3672.01 159.203,3670.86 L159.719,3671.05 L157.516,3676.54 L141.922,3676.54 L141.922,3676.05 L149.031,3668.5 C152.5,3664.82 154.234,3661.35 154.234,3658.1 C154.234,3656.42 153.714,3655.06 152.672,3654.02 C151.63,3652.98 150.271,3652.46 148.594,3652.46 C147.208,3652.46 146.096,3652.84 145.258,3653.6 C144.419,3654.36 143.599,3655.71 142.797,3657.66 L141.953,3657.46 "/>
</svg>
