<?xml version="1.0" encoding="UTF-8" standalone="no"?>
<svg
   xmlns:dc="http://purl.org/dc/elements/1.1/"
   xmlns:cc="http://creativecommons.org/ns#"
   xmlns:rdf="http://www.w3.org/1999/02/22-rdf-syntax-ns#"
   xmlns:svg="http://www.w3.org/2000/svg"
   xmlns="http://www.w3.org/2000/svg"
   xmlns:sodipodi="http://sodipodi.sourceforge.net/DTD/sodipodi-0.dtd"
   xmlns:inkscape="http://www.inkscape.org/namespaces/inkscape"
   sodipodi:docname="half.svg"
   inkscape:version="1.0 (4035a4fb49, 2020-05-01)"
   id="svg2323"
   version="1.1"
   viewBox="0 0 9.1995668 23.679398"
   height="23.679398mm"
   width="9.1995668mm">
  <defs
     id="defs2317" />
  <sodipodi:namedview
     inkscape:window-maximized="0"
     inkscape:window-y="0"
     inkscape:window-x="156"
     inkscape:window-height="860"
     inkscape:window-width="1375"
     showgrid="false"
     inkscape:document-rotation="0"
     inkscape:current-layer="layer1"
     inkscape:document-units="mm"
     inkscape:cy="-109.09344"
     inkscape:cx="43.074256"
     inkscape:zoom="0.35"
     inkscape:pageshadow="2"
     inkscape:pageopacity="0.0"
     borderopacity="1.0"
     bordercolor="#666666"
     pagecolor="#ffffff"
     id="base" />
  <metadata
     id="metadata2320">
    <rdf:RDF>
      <cc:Work
         rdf:about="">
        <dc:format>image/svg+xml</dc:format>
        <dc:type
           rdf:resource="http://purl.org/dc/dcmitype/StillImage" />
        <dc:title></dc:title>
      </cc:Work>
    </rdf:RDF>
  </metadata>
  <g
     transform="translate(-94.436603,-177.03097)"
     id="layer1"
     inkscape:groupmode="layer"
     inkscape:label="Layer 1">
    <polyline
       class="Stem"
       fill="none"
       stroke="#000000"
       stroke-width="3.25"
       stroke-linecap="round"
       stroke-linejoin="bevel"
       points="2683.62,2887.89 2683.62,2729.23"
       id="polyline1652"
       transform="matrix(0.26458333,0,0,0.11836296,-606.84946,-145.81643)" />
    <path
       style="stroke-width:0.264583"
       class="Note"
       d="m 102.78421,195.33668 c 0,-0.29369 -0.11113,-0.54239 -0.33602,-0.74877 -0.2249,-0.2249 -0.48419,-0.33602 -0.77788,-0.33602 -0.51329,0 -1.55575,0.51594 -3.124728,1.55046 -1.61925,1.05039 -2.611437,1.79916 -2.97127,2.24896 -0.1905,0.24077 -0.28575,0.48948 -0.28575,0.74877 0,0.29104 0.11377,0.54239 0.338666,0.74877 0.206375,0.22225 0.465667,0.33337 0.772584,0.33337 0.500062,0 1.550458,-0.51593 3.153833,-1.55046 1.584855,-1.03187 2.566455,-1.78329 2.944815,-2.24895 0.1905,-0.22225 0.28575,-0.47096 0.28575,-0.74613 m -1.3679,-1.91029 c 1.47902,0 2.21986,0.635 2.21986,1.91029 0,0.61913 -0.18257,1.34144 -0.5424,2.16958 -0.36248,0.80963 -0.84402,1.42875 -1.44727,1.86003 -1.32556,0.89693 -2.987147,1.34408 -4.984751,1.34408 -1.484312,0 -2.225146,-0.63765 -2.225146,-1.91029 0,-0.56886 0.179917,-1.28323 0.542396,-2.14577 0.343958,-0.82815 0.8255,-1.45521 1.447271,-1.88648 1.328208,-0.89429 2.989792,-1.34144 4.99004,-1.34144"
       id="path1814" />
  </g>
</svg>
