<?xml version="1.0" encoding="UTF-8" standalone="no"?>
<svg
   xmlns:dc="http://purl.org/dc/elements/1.1/"
   xmlns:cc="http://creativecommons.org/ns#"
   xmlns:rdf="http://www.w3.org/1999/02/22-rdf-syntax-ns#"
   xmlns:svg="http://www.w3.org/2000/svg"
   xmlns="http://www.w3.org/2000/svg"
   xmlns:sodipodi="http://sodipodi.sourceforge.net/DTD/sodipodi-0.dtd"
   xmlns:inkscape="http://www.inkscape.org/namespaces/inkscape"
   sodipodi:docname="quarter.svg"
   inkscape:version="1.0 (4035a4fb49, 2020-05-01)"
   id="svg2389"
   version="1.1"
   viewBox="0 0 8.7087555 25.570669"
   height="25.570669mm"
   width="8.7087555mm">
  <defs
     id="defs2383" />
  <sodipodi:namedview
     inkscape:window-maximized="0"
     inkscape:window-y="0"
     inkscape:window-x="182"
     inkscape:window-height="860"
     inkscape:window-width="1375"
     showgrid="false"
     inkscape:document-rotation="0"
     inkscape:current-layer="layer1"
     inkscape:document-units="mm"
     inkscape:cy="88.322515"
     inkscape:cx="-200.68538"
     inkscape:zoom="0.35"
     inkscape:pageshadow="2"
     inkscape:pageopacity="0.0"
     borderopacity="1.0"
     bordercolor="#666666"
     pagecolor="#ffffff"
     id="base" />
  <metadata
     id="metadata2386">
    <rdf:RDF>
      <cc:Work
         rdf:about="">
        <dc:format>image/svg+xml</dc:format>
        <dc:type
           rdf:resource="http://purl.org/dc/dcmitype/StillImage" />
        <dc:title></dc:title>
      </cc:Work>
    </rdf:RDF>
  </metadata>
  <g
     transform="translate(-158.93134,-124.798)"
     id="layer1"
     inkscape:groupmode="layer"
     inkscape:label="Layer 1">
    <polyline
       class="Stem"
       fill="none"
       stroke="#000000"
       stroke-width="3.25"
       stroke-linecap="round"
       stroke-linejoin="bevel"
       points="2518.45,2824.54 2518.45,2747.98"
       id="polyline1654"
       transform="matrix(0.26458333,0,0,0.26458333,-499.12974,-601.84175)" />
    <path
       style="stroke-width:0.264583"
       class="Note"
       d="m 164.74423,143.08469 c 0.8255,0 1.524,0.21431 2.0955,0.64293 0.53181,0.46567 0.79904,1.05305 0.79904,1.75684 0,1.18798 -0.61118,2.29923 -1.83356,3.33375 -1.23825,1.03187 -2.56646,1.55046 -3.97933,1.55046 -0.82815,0 -1.524,-0.21432 -2.09286,-0.64559 -0.53445,-0.46566 -0.80168,-1.05039 -0.80168,-1.75683 0,-1.18798 0.61912,-2.29923 1.86002,-3.33111 1.2065,-1.03452 2.52412,-1.55045 3.95287,-1.55045"
       id="path1824" />
  </g>
</svg>
