<?xml version="1.0" encoding="UTF-8" standalone="no"?>
<svg
   xmlns:dc="http://purl.org/dc/elements/1.1/"
   xmlns:cc="http://creativecommons.org/ns#"
   xmlns:rdf="http://www.w3.org/1999/02/22-rdf-syntax-ns#"
   xmlns:svg="http://www.w3.org/2000/svg"
   xmlns="http://www.w3.org/2000/svg"
   xmlns:sodipodi="http://sodipodi.sourceforge.net/DTD/sodipodi-0.dtd"
   xmlns:inkscape="http://www.inkscape.org/namespaces/inkscape"
   width="53.695"
   height="102.891"
   viewBox="0 0 53.695 102.891"
   version="1.2"
   id="svg6963"
   sodipodi:docname="sixteenth.svg"
   inkscape:version="1.0 (4035a4fb49, 2020-05-01)">
  <metadata
     id="metadata6969">
    <rdf:RDF>
      <cc:Work
         rdf:about="">
        <dc:format>image/svg+xml</dc:format>
        <dc:type
           rdf:resource="http://purl.org/dc/dcmitype/StillImage" />
        <dc:title>exercise-collection1 (1)</dc:title>
      </cc:Work>
    </rdf:RDF>
  </metadata>
  <defs
     id="defs6967" />
  <sodipodi:namedview
     inkscape:document-rotation="0"
     pagecolor="#ffffff"
     bordercolor="#666666"
     borderopacity="1"
     objecttolerance="10"
     gridtolerance="10"
     guidetolerance="10"
     inkscape:pageopacity="0"
     inkscape:pageshadow="2"
     inkscape:window-width="1600"
     inkscape:window-height="837"
     id="namedview6965"
     showgrid="false"
     inkscape:zoom="0.95709403"
     inkscape:cx="113.1067"
     inkscape:cy="243.67027"
     inkscape:window-x="-8"
     inkscape:window-y="-8"
     inkscape:window-maximized="1"
     inkscape:current-layer="svg6963" />
  <title
     id="title6049">exercise-collection1 (1)</title>
  <desc
     id="desc6051">Generated by MuseScore 3.0.1</desc>
  <polyline
     class="Stem"
     fill="none"
     stroke="#000000"
     stroke-width="3.25"
     stroke-linecap="round"
     stroke-linejoin="bevel"
     points="656.944,424.537 656.944,341.732"
     id="polyline6423"
     transform="translate(-625.655,-340.107)" />
  <path
     class="Note"
     d="m 21.969,75.36 c 3.125,0 5.765,0.812 7.922,2.437 2.01,1.761 3.015,3.974 3.015,6.641 0,4.489 -2.307,8.687 -6.922,12.594 -4.687,3.906 -9.703,5.859 -15.047,5.859 -3.125,0 -5.76,-0.813 -7.906,-2.438 C 1.01,98.693 0,96.479 0,93.813 0,89.323 2.344,85.125 7.031,81.219 11.594,77.313 16.573,75.36 21.969,75.36"
     id="path6899" />
  <path
     class="Hook"
     d="m 32.789,1.625 c 0,3.323 0.719,6.646 2.156,9.969 1.365,3.25 3.058,6.339 5.078,9.266 l 5.86,8.593 c 1.948,2.677 3.64,5.771 5.078,9.282 1.427,3.26 2.14,6.547 2.14,9.859 0,3.063 -0.781,6.255 -2.343,9.578 1.958,3.969 2.937,7.844 2.937,11.625 0,5.99 -1.401,12.11 -4.203,18.36 -0.521,0.781 -1.141,1.171 -1.859,1.171 -0.646,0 -1.229,-0.26 -1.75,-0.781 -0.396,-0.396 -0.594,-0.885 -0.594,-1.469 0,0 0,-0.161 0,-0.484 2.802,-5.542 4.203,-11.141 4.203,-16.797 0,-2.542 -0.489,-4.885 -1.469,-7.031 -1.166,-2.542 -2.599,-4.886 -4.297,-7.031 -2.145,-2.802 -3.838,-4.823 -5.078,-6.063 -1.687,-1.687 -3.64,-3.542 -5.859,-5.562 v 7.515 h -3.125 v -50 h 3.125 m 15.328,51.657 c 0.458,-1.365 0.688,-2.928 0.688,-4.688 0,-2.271 -0.454,-4.578 -1.36,-6.922 -0.979,-2.344 -2.349,-4.724 -4.109,-7.14 -1.625,-2.011 -3.287,-3.995 -4.985,-5.954 -1.302,-1.427 -3.156,-3.312 -5.562,-5.656 0,2.667 0.552,5.495 1.656,8.485 1.177,2.802 2.386,5.244 3.625,7.328 1.427,2.218 3.183,4.726 5.266,7.523 2.083,2.797 3.677,5.138 4.781,7.024"
     id="path6961" />
</svg>
