<?xml version="1.0" encoding="UTF-8" standalone="no"?>
<svg
   xmlns:dc="http://purl.org/dc/elements/1.1/"
   xmlns:cc="http://creativecommons.org/ns#"
   xmlns:rdf="http://www.w3.org/1999/02/22-rdf-syntax-ns#"
   xmlns:svg="http://www.w3.org/2000/svg"
   xmlns="http://www.w3.org/2000/svg"
   xmlns:sodipodi="http://sodipodi.sourceforge.net/DTD/sodipodi-0.dtd"
   xmlns:inkscape="http://www.inkscape.org/namespaces/inkscape"
   inkscape:version="1.0 (4035a4fb49, 2020-05-01)"
   sodipodi:docname="tab1.svg"
   id="svg7611"
   version="1.2"
   viewBox="0 0 402.08301 150"
   height="150"
   width="402.08301">
  <metadata
     id="metadata7617">
    <rdf:RDF>
      <cc:Work
         rdf:about="">
        <dc:format>image/svg+xml</dc:format>
        <dc:type
           rdf:resource="http://purl.org/dc/dcmitype/StillImage" />
      </cc:Work>
    </rdf:RDF>
  </metadata>
  <defs
     id="defs7615" />
  <sodipodi:namedview
     inkscape:current-layer="svg7611"
     inkscape:window-maximized="1"
     inkscape:window-y="-8"
     inkscape:window-x="-8"
     inkscape:cy="1682.018"
     inkscape:cx="1388.268"
     inkscape:zoom="0.16919192"
     showgrid="false"
     id="namedview7613"
     inkscape:window-height="837"
     inkscape:window-width="1600"
     inkscape:pageshadow="2"
     inkscape:pageopacity="0"
     guidetolerance="10"
     gridtolerance="10"
     objecttolerance="10"
     borderopacity="1"
     bordercolor="#666666"
     pagecolor="#ffffff" />
  <title
     id="title7579">exercise4</title>
  <desc
     id="desc7581">Generated by MuseScore 3.0.1</desc>
  <polyline
     transform="translate(-141.732,-297.982)"
     id="polyline7583"
     points="141.732,316.732 543.815,316.732"
     stroke-linejoin="bevel"
     stroke-width="2"
     stroke="#000000"
     fill="none"
     class="StaffLines" />
  <polyline
     transform="translate(-141.732,-297.982)"
     id="polyline7585"
     points="141.732,354.232 543.815,354.232"
     stroke-linejoin="bevel"
     stroke-width="2"
     stroke="#000000"
     fill="none"
     class="StaffLines" />
  <polyline
     transform="translate(-141.732,-297.982)"
     id="polyline7587"
     points="141.732,391.732 543.815,391.732"
     stroke-linejoin="bevel"
     stroke-width="2"
     stroke="#000000"
     fill="none"
     class="StaffLines" />
  <polyline
     transform="translate(-141.732,-297.982)"
     id="polyline7589"
     points="141.732,429.232 543.815,429.232"
     stroke-linejoin="bevel"
     stroke-width="2"
     stroke="#000000"
     fill="none"
     class="StaffLines" />
  <polyline
     transform="translate(-141.732,-297.982)"
     id="polyline7591"
     points="541.815,315.732 541.815,430.232"
     stroke-linejoin="bevel"
     stroke-width="4"
     stroke="#000000"
     fill="none"
     class="BarLine" />
  <path
     id="path7593"
     d="m 129.543,0 h 28 v 37.5 h -28 V 0"
     fill-rule="evenodd"
     fill="#ffffff"
     class="Note" />
  <path
     id="path7595"
     d="m 135.684,29.735 c 0.698,0 1.729,0.406 3.094,1.219 1.364,0.812 2.552,1.218 3.562,1.218 1.656,0 3.055,-0.64 4.196,-1.922 1.14,-1.281 1.71,-2.859 1.71,-4.734 0,-1.167 -0.203,-2.198 -0.609,-3.094 -0.406,-0.896 -0.924,-1.588 -1.555,-2.078 -0.63,-0.489 -1.38,-0.89 -2.25,-1.203 -0.869,-0.312 -1.687,-0.513 -2.453,-0.602 -0.765,-0.088 -1.58,-0.132 -2.445,-0.132 v -0.594 c 1.021,-0.354 1.898,-0.706 2.633,-1.055 0.734,-0.349 1.505,-0.815 2.312,-1.398 0.808,-0.584 1.43,-1.295 1.867,-2.133 0.438,-0.839 0.657,-1.8 0.657,-2.883 0,-1.406 -0.459,-2.56 -1.375,-3.461 -0.917,-0.901 -2.11,-1.351 -3.578,-1.351 -1.407,0 -2.644,0.382 -3.711,1.148 -1.068,0.766 -2.065,1.971 -2.993,3.617 l -0.671,-0.172 c 0.77,-2.135 1.825,-3.885 3.164,-5.25 1.338,-1.364 3.237,-2.046 5.695,-2.046 2.073,0 3.76,0.57 5.062,1.71 1.303,1.141 1.954,2.628 1.954,4.461 0,1.23 -0.316,2.308 -0.946,3.235 -0.63,0.927 -1.726,1.916 -3.289,2.969 1.802,0.781 3.214,1.776 4.235,2.984 1.02,1.208 1.531,2.932 1.531,5.172 0,3.187 -1.177,5.737 -3.531,7.648 -2.355,1.912 -5.318,2.867 -8.891,2.867 -1.552,0 -2.786,-0.231 -3.703,-0.695 -0.917,-0.463 -1.375,-1.086 -1.375,-1.867 0,-0.479 0.156,-0.862 0.469,-1.149 0.312,-0.286 0.724,-0.429 1.234,-0.429"
     class="Note" />
  <path
     id="path7597"
     d="m 129.543,112.5 h 28 V 150 h -28 v -37.5"
     fill-rule="evenodd"
     fill="#ffffff"
     class="Note" />
  <path
     id="path7599"
     d="m 150.676,142.055 c -1.859,2.88 -4.32,4.32 -7.383,4.32 -3.062,0 -5.523,-1.468 -7.382,-4.406 -1.86,-2.937 -2.79,-6.719 -2.79,-11.344 0,-4.343 0.93,-7.979 2.79,-10.906 1.859,-2.927 4.377,-4.39 7.554,-4.39 2.948,0 5.352,1.44 7.211,4.32 1.86,2.88 2.789,6.633 2.789,11.258 0,4.552 -0.929,8.268 -2.789,11.148 M 143.34,116.5 c -3.927,0 -5.89,4.844 -5.89,14.532 0,9.448 1.948,14.172 5.843,14.172 3.896,0 5.844,-4.74 5.844,-14.219 0,-4.708 -0.495,-8.3 -1.484,-10.774 -0.99,-2.474 -2.427,-3.711 -4.313,-3.711"
     class="Note" />
  <path
     id="path7601"
     d="m 129.543,37.5 h 28 V 75 h -28 V 37.5"
     fill-rule="evenodd"
     fill="#ffffff"
     class="Note" />
  <path
     id="path7603"
     d="m 150.676,67.055 c -1.859,2.88 -4.32,4.32 -7.383,4.32 -3.062,0 -5.523,-1.468 -7.382,-4.406 -1.86,-2.937 -2.79,-6.719 -2.79,-11.344 0,-4.343 0.93,-7.979 2.79,-10.906 1.859,-2.927 4.377,-4.39 7.554,-4.39 2.948,0 5.352,1.44 7.211,4.32 1.86,2.88 2.789,6.633 2.789,11.258 0,4.552 -0.929,8.268 -2.789,11.148 M 143.34,41.5 c -3.927,0 -5.89,4.844 -5.89,14.532 0,9.448 1.948,14.172 5.843,14.172 3.896,0 5.844,-4.74 5.844,-14.219 0,-4.709 -0.495,-8.3 -1.484,-10.774 -0.99,-2.474 -2.427,-3.711 -4.313,-3.711"
     class="Note" />
  <path
     id="path7605"
     d="m 129.543,75 h 28 v 37.5 h -28 V 75"
     fill-rule="evenodd"
     fill="#ffffff"
     class="Note" />
  <path
     id="path7607"
     d="m 150.676,104.555 c -1.859,2.88 -4.32,4.32 -7.383,4.32 -3.062,0 -5.523,-1.468 -7.382,-4.406 -1.86,-2.937 -2.79,-6.719 -2.79,-11.344 0,-4.343 0.93,-7.979 2.79,-10.906 1.859,-2.927 4.377,-4.39 7.554,-4.39 2.948,0 5.352,1.44 7.211,4.32 1.86,2.88 2.789,6.633 2.789,11.258 0,4.552 -0.929,8.268 -2.789,11.148 M 143.34,79 c -3.927,0 -5.89,4.844 -5.89,14.532 0,9.448 1.948,14.172 5.843,14.172 3.896,0 5.844,-4.74 5.844,-14.219 0,-4.709 -0.495,-8.3 -1.484,-10.774 C 146.663,80.237 145.226,79 143.34,79"
     class="Note" />
  <path
     id="path7609"
     d="m 46.102,28.094 v -3.5 H 21.399 v 3.5 h 10.406 v 28 h 4 v -28 H 46.102 M 47.508,91 36.508,59.5 H 31.305 L 20.008,91 h 4.297 l 3.297,-9.5 h 12.203 l 3.203,9.5 h 4.5 M 38.711,78.204 H 28.602 l 5.203,-14.407 4.906,14.407 m 6.797,38.593 c 0,-3.797 -1.703,-6.093 -5.703,-7.593 2.797,-1.407 4.297,-3.704 4.297,-6.907 0,-4.593 -3.297,-8 -9.297,-8 H 22.008 v 31.5 h 14.203 c 5.688,0 9.297,-3.797 9.297,-9 m -5.406,-13.89 c 0,3.203 -1.797,5 -6.297,5 h -7.797 v -10.11 h 7.797 c 4.5,0 6.297,1.907 6.297,5.11 m 1.406,13.89 c 0,3.11 -1.797,5.407 -5.609,5.407 h -9.891 v -10.797 h 9.891 c 3.812,0 5.609,2.39 5.609,5.39"
     class="Clef" />
</svg>
